<svg version="1.2" xmlns="http://www.w3.org/2000/svg" viewBox="0 0 2167 1253" width="2167" height="1253"><defs><linearGradient id="P" gradientUnits="userSpaceOnUse"/><linearGradient id="g1" x1="5.4" y1="54.4" x2="1983.2" y2="54.4" href="#P"><stop stop-color="#b37cff"/><stop offset="1" stop-color="#f895e7"/></linearGradient><linearGradient id="g2" x1="1904.8" y1="-1.6" x2="180.2" y2="-1.6" href="#P"><stop stop-color="#b37cff"/><stop offset="1" stop-color="#f895e7"/></linearGradient><linearGradient id="g3" x1="2321.8" y1="778.7" x2="2029.1" y2="235.8" href="#P"><stop stop-color="#a737d5"/><stop offset="1" stop-color="#ef497a"/></linearGradient><linearGradient id="g4" x1="1709.9" y1="343.2" x2="2089.7" y2="343.2" href="#P"><stop stop-color="#b37cff"/><stop offset="1" stop-color="#f895e7"/></linearGradient><linearGradient id="g5" x1="2231.4" y1="41.5" x2="1741.5" y2="1506.2" href="#P"><stop stop-color="#cb236d"/><stop offset="1" stop-color="#4c246d"/></linearGradient><linearGradient id="g6" x1="1599.7" y1="161.6" x2="1838" y2="161.6" href="#P"><stop stop-color="#b37cff"/><stop offset="1" stop-color="#f895e7"/></linearGradient><linearGradient id="g7" x1="2205.6" y1="1131.3" x2="2168.6" y2="743.4" href="#P"><stop stop-color="#cb236d"/><stop offset="1" stop-color="#4c246d"/></linearGradient><linearGradient id="g8" x1="1726.3" y1="792.1" x2="2118.1" y2="792.1" href="#P"><stop stop-color="#b37cff"/><stop offset="1" stop-color="#f895e7"/></linearGradient><linearGradient id="g9" x1="414" y1="1613.4" x2="-239" y2="340" href="#P"><stop stop-color="#a737d5"/><stop offset="1" stop-color="#ef497a"/></linearGradient><linearGradient id="g10" x1="657.1" y1="1519.4" x2="-29.4" y2="373.7" href="#P"><stop stop-color="#b37cff"/><stop offset="1" stop-color="#f895e7"/></linearGradient><linearGradient id="g11" x1="-79.4" y1="1039.4" x2="45.5" y2="661.6" href="#P"><stop stop-color="#cb236d"/><stop offset="1" stop-color="#4c246d"/></linearGradient><linearGradient id="g12" x1="68.7" y1="720.1" x2="343.6" y2="720.1" href="#P"><stop stop-color="#b37cff"/><stop offset="1" stop-color="#f895e7"/></linearGradient><linearGradient id="g13" x1="179.3" y1="827.9" x2="493.9" y2="-115.9" href="#P"><stop stop-color="#2b3582"/><stop offset="1" stop-color="#150e42"/></linearGradient><linearGradient id="g14" x1="2062.7" y1="922.5" x2="-900.5" y2="2499.8" href="#P"><stop stop-color="#fdf53f"/><stop offset="1" stop-color="#d93c65"/></linearGradient><linearGradient id="g15" x1="433.4" y1="361.9" x2="1662.9" y2="361.9" href="#P"><stop stop-color="#fff"/><stop offset="1" stop-color="#fff"/></linearGradient><linearGradient id="g16" x1="237.7" y1="1344.4" x2="358" y2="697.2" href="#P"><stop stop-color="#2b3582"/><stop offset="1" stop-color="#150e42"/></linearGradient><clipPath clipPathUnits="userSpaceOnUse" id="cp1"><path d="m953.45 556.1h-117.05c-6.17 0-11.22-5.05-11.22-11.22v-138.53c0-6.17 5.05-11.22 11.22-11.22h117.05c6.17 0 11.21 5.05 11.21 11.22v138.53c0 6.17-5.04 11.22-11.21 11.22z"/></clipPath><linearGradient id="g17" x1="964.4" y1="395.2" x2="926.1" y2="449.8" href="#P"><stop stop-color="#2b3582"/><stop offset="1" stop-color="#150e42"/></linearGradient><linearGradient id="g18" x1="968.5" y1="566.2" x2="808.6" y2="703.9" href="#P"><stop stop-color="#53d8ff"/><stop offset="1" stop-color="#3840f7"/></linearGradient><linearGradient id="g19" x1="842.8" y1="501.1" x2="913.3" y2="671.4" href="#P"><stop stop-color="#f9b776"/><stop offset="1" stop-color="#f47960"/></linearGradient><linearGradient id="g20" x1="948.5" y1="501.1" x2="878.1" y2="671.4" href="#P"><stop stop-color="#f9b776"/><stop offset="1" stop-color="#f47960"/></linearGradient><linearGradient id="g21" x1="871.7" y1="521.1" x2="870.8" y2="440.4" href="#P"><stop stop-color="#f9b776"/><stop offset="1" stop-color="#f47960"/></linearGradient><linearGradient id="g22" x1="874" y1="465.7" x2="886.8" y2="403.4" href="#P"><stop stop-color="#f9b776"/><stop offset="1" stop-color="#f47960"/></linearGradient><linearGradient id="g23" x1="960.6" y1="387" x2="917.9" y2="447.5" href="#P"><stop stop-color="#2b3582"/><stop offset="1" stop-color="#150e42"/></linearGradient><linearGradient id="g24" x1="876.8" y1="475.5" x2="869.6" y2="396.9" href="#P"><stop stop-color="#f9b776"/><stop offset="1" stop-color="#f47960"/></linearGradient><clipPath clipPathUnits="userSpaceOnUse" id="cp2"><path d="m1217.61 556.1h-121.5c-6.17 0-11.22-5.05-11.22-11.22v-143.66c0-6.17 5.05-11.22 11.22-11.22h121.5c6.17 0 11.21 5.05 11.21 11.22v143.66c0 6.17-5.04 11.22-11.21 11.22z"/></clipPath><linearGradient id="g25" x1="1175" y1="405.1" x2="1257.1" y2="617.8" href="#P"><stop stop-color="#cb236d"/><stop offset="1" stop-color="#4c246d"/></linearGradient><linearGradient id="g26" x1="1147.7" y1="445.1" x2="1170.1" y2="445.1" href="#P"><stop stop-color="#f9b776"/><stop offset="1" stop-color="#f47960"/></linearGradient><linearGradient id="g27" x1="2970" y1="-1086.9" x2="2999.1" y2="-1113.6" href="#P"><stop stop-color="#f9b776"/><stop offset="1" stop-color="#f47960"/></linearGradient><linearGradient id="g28" x1="1137.4" y1="426.5" x2="1171.1" y2="407.9" href="#P"><stop stop-color="#2b3582"/><stop offset="1" stop-color="#150e42"/></linearGradient><linearGradient id="g29" x1="2690" y1="-900" x2="2714.5" y2="-922.5" href="#P"><stop stop-color="#f9b776"/><stop offset="1" stop-color="#f47960"/></linearGradient><linearGradient id="g30" x1="1095.5" y1="424.3" x2="1182.4" y2="649.5" href="#P"><stop stop-color="#cb236d"/><stop offset="1" stop-color="#4c246d"/></linearGradient><linearGradient id="g31" x1="1157" y1="587.1" x2="1125.1" y2="614.3" href="#P"><stop stop-color="#f9b776"/><stop offset="1" stop-color="#f47960"/></linearGradient><linearGradient id="g32" x1="1184" y1="380.8" x2="1271" y2="606" href="#P"><stop stop-color="#cb236d"/><stop offset="1" stop-color="#4c246d"/></linearGradient><linearGradient id="g33" x1="1186.8" y1="575" x2="1204.7" y2="593" href="#P"><stop stop-color="#f9b776"/><stop offset="1" stop-color="#f47960"/></linearGradient><clipPath clipPathUnits="userSpaceOnUse" id="cp3"><path d="m532.98 548.37v-138.54c0-6.17 5.04-11.21 11.21-11.21h117.06c6.16 0 11.21 5.04 11.21 11.21v138.54c0 6.17-5.05 11.21-11.21 11.21h-117.06c-6.17 0-11.21-5.04-11.21-11.21z"/></clipPath><linearGradient id="g34" x1="593.9" y1="391.3" x2="508" y2="514.6" href="#P"><stop stop-color="#2b3582"/><stop offset="1" stop-color="#150e42"/></linearGradient><linearGradient id="g35" x1="647.5" y1="477.3" x2="745.3" y2="623.9" href="#P"><stop stop-color="#a737d5"/><stop offset="1" stop-color="#ef497a"/></linearGradient><linearGradient id="g36" x1="646.1" y1="521.1" x2="639.9" y2="481.1" href="#P"><stop stop-color="#f9b776"/><stop offset="1" stop-color="#f47960"/></linearGradient><linearGradient id="g37" x1="654.7" y1="468" x2="625.5" y2="384.3" href="#P"><stop stop-color="#f9b776"/><stop offset="1" stop-color="#f47960"/></linearGradient><linearGradient id="g38" x1="622.7" y1="403.6" x2="540.2" y2="522.1" href="#P"><stop stop-color="#2b3582"/><stop offset="1" stop-color="#150e42"/></linearGradient><linearGradient id="g39" x1="633.8" y1="472.5" x2="605.8" y2="392.1" href="#P"><stop stop-color="#f9b776"/><stop offset="1" stop-color="#f47960"/></linearGradient><linearGradient id="g40" x1="606" y1="503.6" x2="702.2" y2="648" href="#P"><stop stop-color="#a737d5"/><stop offset="1" stop-color="#ef497a"/></linearGradient><clipPath clipPathUnits="userSpaceOnUse" id="cp4"><path d="m1463.27 556.1h-117.05c-6.17 0-11.22-5.05-11.22-11.22v-138.53c0-6.17 5.05-11.22 11.22-11.22h117.05c6.17 0 11.22 5.05 11.22 11.22v138.53c0 6.17-5.05 11.22-11.22 11.22z"/></clipPath><linearGradient id="g41" x1="1309.8" y1="454.7" x2="1420.9" y2="610.2" href="#P"><stop stop-color="#2b3582"/><stop offset="1" stop-color="#150e42"/></linearGradient><linearGradient id="g42" x1="1403.5" y1="495.1" x2="1522.9" y2="642.9" href="#P"><stop stop-color="#a737d5"/><stop offset="1" stop-color="#ef497a"/></linearGradient><linearGradient id="g43" x1="1363.2" y1="423.6" x2="1403.4" y2="508.2" href="#P"><stop stop-color="#c4421b"/><stop offset="1" stop-color="#5c0e16"/></linearGradient><linearGradient id="g44" x1="1346.3" y1="481.2" x2="1374.4" y2="395.4" href="#P"><stop stop-color="#c4421b"/><stop offset="1" stop-color="#5c0e16"/></linearGradient><linearGradient id="g45" x1="1352.4" y1="433.3" x2="1451.5" y2="572" href="#P"><stop stop-color="#2b3582"/><stop offset="1" stop-color="#150e42"/></linearGradient><linearGradient id="g46" x1="1396.8" y1="571.1" x2="1467" y2="571.1" href="#P"><stop stop-color="#9cfffb"/><stop offset="1" stop-color="#9bfffa"/></linearGradient><linearGradient id="g47" x1="1400.1" y1="569.4" x2="1467.1" y2="569.4" href="#P"><stop stop-color="#9cfffb"/><stop offset="1" stop-color="#9bfffa"/></linearGradient><linearGradient id="g48" x1="1464.1" y1="583.6" x2="1478.3" y2="647.4" href="#P"><stop stop-color="#53d8ff"/><stop offset="1" stop-color="#3840f7"/></linearGradient><linearGradient id="g49" x1="1410.8" y1="502.8" x2="1512.6" y2="628.9" href="#P"><stop stop-color="#a737d5"/><stop offset="1" stop-color="#ef497a"/></linearGradient><linearGradient id="g50" x1="1447.8" y1="602.3" x2="1429.9" y2="636.8" href="#P"><stop stop-color="#c4421b"/><stop offset="1" stop-color="#5c0e16"/></linearGradient><clipPath clipPathUnits="userSpaceOnUse" id="cp5"><path d="m600.48 777.59v-156.79c0-6.17 5.04-11.22 11.21-11.22h132.88c6.17 0 11.21 5.05 11.21 11.22v156.79c0 6.17-5.04 11.22-11.21 11.22h-132.88c-6.17 0-11.21-5.05-11.21-11.22z"/></clipPath><linearGradient id="g51" x1="645.2" y1="698.8" x2="722.5" y2="805.3" href="#P"><stop stop-color="#f9b776"/><stop offset="1" stop-color="#f47960"/></linearGradient><linearGradient id="g52" x1="764.9" y1="769.2" x2="683.1" y2="559.1" href="#P"><stop stop-color="#cb236d"/><stop offset="1" stop-color="#4c246d"/></linearGradient><linearGradient id="g53" x1="776.6" y1="658.7" x2="695.4" y2="802.9" href="#P"><stop stop-color="#53d8ff"/><stop offset="1" stop-color="#3840f7"/></linearGradient><linearGradient id="g54" x1="719.6" y1="699.4" x2="708.6" y2="673.6" href="#P"><stop stop-color="#f9b776"/><stop offset="1" stop-color="#f47960"/></linearGradient><linearGradient id="g55" x1="688" y1="632.9" x2="665.8" y2="678.7" href="#P"><stop stop-color="#f9b776"/><stop offset="1" stop-color="#f47960"/></linearGradient><linearGradient id="g56" x1="757.6" y1="768.3" x2="677.1" y2="561.6" href="#P"><stop stop-color="#cb236d"/><stop offset="1" stop-color="#4c246d"/></linearGradient><linearGradient id="g57" x1="685.6" y1="641.4" x2="668.4" y2="677" href="#P"><stop stop-color="#f9b776"/><stop offset="1" stop-color="#f47960"/></linearGradient><linearGradient id="g58" x1="618.2" y1="762.7" x2="736.2" y2="594.8" href="#P"><stop stop-color="#f9b776"/><stop offset="1" stop-color="#f47960"/></linearGradient><linearGradient id="g59" x1="402.3" y1="1201" x2="426.5" y2="1201" href="#P"><stop stop-color="#2b3582"/><stop offset="1" stop-color="#150e42"/></linearGradient><linearGradient id="g60" x1="412.8" y1="1180.6" x2="428.4" y2="1180.6" href="#P"><stop stop-color="#f9b776"/><stop offset="1" stop-color="#f47960"/></linearGradient><linearGradient id="g61" x1="493.6" y1="1200.6" x2="545.6" y2="1200.6" href="#P"><stop stop-color="#2b3582"/><stop offset="1" stop-color="#150e42"/></linearGradient><linearGradient id="g62" x1="496.7" y1="1183.2" x2="509.4" y2="1183.2" href="#P"><stop stop-color="#f9b776"/><stop offset="1" stop-color="#f47960"/></linearGradient><linearGradient id="g63" x1="650.7" y1="1050.2" x2="397" y2="1312" href="#P"><stop stop-color="#cb236d"/><stop offset="1" stop-color="#4c246d"/></linearGradient><linearGradient id="g64" x1="531.4" y1="995.7" x2="478" y2="1064.8" href="#P"><stop stop-color="#cb236d"/><stop offset="1" stop-color="#4c246d"/></linearGradient><linearGradient id="g65" x1="261.5" y1="885.6" x2="643.6" y2="818.8" href="#P"><stop stop-color="#53d8ff"/><stop offset="1" stop-color="#3840f7"/></linearGradient><linearGradient id="g66" x1="689.6" y1="792" x2="630.7" y2="884.5" href="#P"><stop stop-color="#f9b776"/><stop offset="1" stop-color="#f47960"/></linearGradient><linearGradient id="g67" x1="520.1" y1="860.6" x2="526" y2="824.6" href="#P"><stop stop-color="#f9b776"/><stop offset="1" stop-color="#f47960"/></linearGradient><linearGradient id="g68" x1="570.6" y1="825" x2="532" y2="854.5" href="#P"><stop stop-color="#f9b776"/><stop offset="1" stop-color="#f47960"/></linearGradient><linearGradient id="g69" x1="551.4" y1="757.6" x2="589" y2="806" href="#P"><stop stop-color="#2b3582"/><stop offset="1" stop-color="#150e42"/></linearGradient><linearGradient id="g70" x1="551.1" y1="807.8" x2="520.1" y2="831.6" href="#P"><stop stop-color="#f9b776"/><stop offset="1" stop-color="#f47960"/></linearGradient><linearGradient id="g71" x1="673.1" y1="781.5" x2="624.8" y2="857.3" href="#P"><stop stop-color="#f9b776"/><stop offset="1" stop-color="#f47960"/></linearGradient><linearGradient id="g72" x1="582.7" y1="862.6" x2="404" y2="922.4" href="#P"><stop stop-color="#9cfffb"/><stop offset="1" stop-color="#9bfffa"/></linearGradient><linearGradient id="g73" x1="573.1" y1="861" x2="402.4" y2="918.1" href="#P"><stop stop-color="#9cfffb"/><stop offset="1" stop-color="#9bfffa"/></linearGradient><linearGradient id="g74" x1="424.3" y1="948.4" x2="442.4" y2="1122.8" href="#P"><stop stop-color="#fdf53f"/><stop offset="1" stop-color="#d93c65"/></linearGradient><linearGradient id="g75" x1="261.5" y1="885.7" x2="643.6" y2="818.9" href="#P"><stop stop-color="#53d8ff"/><stop offset="1" stop-color="#3840f7"/></linearGradient><linearGradient id="g76" x1="438" y1="928.1" x2="474.4" y2="928.1" href="#P"><stop stop-color="#f9b776"/><stop offset="1" stop-color="#f47960"/></linearGradient><linearGradient id="g77" x1="1641" y1="810.2" x2="1607.5" y2="912.9" href="#P"><stop stop-color="#f9b776"/><stop offset="1" stop-color="#f47960"/></linearGradient><linearGradient id="g78" x1="1455.2" y1="546.7" x2="1864.2" y2="767.6" href="#P"><stop stop-color="#53d8ff"/><stop offset="1" stop-color="#3840f7"/></linearGradient><linearGradient id="g79" x1="1600.4" y1="1081.3" x2="1670.4" y2="1081.3" href="#P"><stop stop-color="#f9b776"/><stop offset="1" stop-color="#f47960"/></linearGradient><linearGradient id="g80" x1="1710.7" y1="1009.3" x2="1675.8" y2="1235.7" href="#P"><stop stop-color="#53d8ff"/><stop offset="1" stop-color="#3840f7"/></linearGradient><linearGradient id="g81" x1="1643.9" y1="998.8" x2="1608.9" y2="1225.9" href="#P"><stop stop-color="#53d8ff"/><stop offset="1" stop-color="#3840f7"/></linearGradient><linearGradient id="g82" x1="1557.5" y1="1091.8" x2="1598.4" y2="1091.8" href="#P"><stop stop-color="#f9b776"/><stop offset="1" stop-color="#f47960"/></linearGradient><linearGradient id="g83" x1="1470.3" y1="781.5" x2="1549.5" y2="781.5" href="#P"><stop stop-color="#f9b776"/><stop offset="1" stop-color="#f47960"/></linearGradient><linearGradient id="g84" x1="1514.2" y1="726.4" x2="1663.8" y2="1022.7" href="#P"><stop stop-color="#53d8ff"/><stop offset="1" stop-color="#3840f7"/></linearGradient><linearGradient id="g85" x1="1568" y1="952.3" x2="1688.5" y2="1088.2" href="#P"><stop stop-color="#cb236d"/><stop offset="1" stop-color="#4c246d"/></linearGradient><linearGradient id="g86" x1="1570" y1="884.9" x2="1594.9" y2="884.9" href="#P"><stop stop-color="#f9b776"/><stop offset="1" stop-color="#f47960"/></linearGradient><linearGradient id="g87" x1="1611.3" y1="845" x2="1775.7" y2="856.1" href="#P"><stop stop-color="#f9b776"/><stop offset="1" stop-color="#f47960"/></linearGradient><linearGradient id="g88" x1="1687.8" y1="883.6" x2="1628.6" y2="1002" href="#P"><stop stop-color="#cb236d"/><stop offset="1" stop-color="#4c246d"/></linearGradient><linearGradient id="g89" x1="1148.4" y1="817.1" x2="955.6" y2="1225.2" href="#P"><stop stop-color="#53d8ff"/><stop offset="1" stop-color="#3840f7"/></linearGradient><linearGradient id="g90" x1="1084.8" y1="787.1" x2="892" y2="1195.1" href="#P"><stop stop-color="#53d8ff"/><stop offset="1" stop-color="#3840f7"/></linearGradient><linearGradient id="g91" x1="678.8" y1="876.6" x2="830.5" y2="876.6" href="#P"><stop stop-color="#9cfffb"/><stop offset="1" stop-color="#9bfffa"/></linearGradient><linearGradient id="g92" x1="769.5" y1="876.6" x2="921.2" y2="876.6" href="#P"><stop stop-color="#9cfffb"/><stop offset="1" stop-color="#9bfffa"/></linearGradient><linearGradient id="g93" x1="816.1" y1="874.5" x2="958.6" y2="874.5" href="#P"><stop stop-color="#9cfffb"/><stop offset="1" stop-color="#9bfffa"/></linearGradient><linearGradient id="g94" x1="802.7" y1="929.4" x2="899.4" y2="929.4" href="#P"><stop stop-color="#9cfffb"/><stop offset="1" stop-color="#9bfffa"/></linearGradient><linearGradient id="g95" x1="777.7" y1="994.7" x2="868.6" y2="994.7" href="#P"><stop stop-color="#9cfffb"/><stop offset="1" stop-color="#9bfffa"/></linearGradient><linearGradient id="g96" x1="750.7" y1="1059.9" x2="841.6" y2="1059.9" href="#P"><stop stop-color="#9cfffb"/><stop offset="1" stop-color="#9bfffa"/></linearGradient><linearGradient id="g97" x1="719.5" y1="1125.2" x2="816.2" y2="1125.2" href="#P"><stop stop-color="#9cfffb"/><stop offset="1" stop-color="#9bfffa"/></linearGradient><linearGradient id="g98" x1="692.2" y1="1190.5" x2="788.8" y2="1190.5" href="#P"><stop stop-color="#9cfffb"/><stop offset="1" stop-color="#9bfffa"/></linearGradient><linearGradient id="g99" x1="1179.7" y1="1213.1" x2="1332.7" y2="1379.4" href="#P"><stop stop-color="#cb236d"/><stop offset="1" stop-color="#4c246d"/></linearGradient><linearGradient id="g100" x1="1251.4" y1="1196.7" x2="1237.7" y2="1196.7" href="#P"><stop stop-color="#f9b776"/><stop offset="1" stop-color="#f47960"/></linearGradient><linearGradient id="g101" x1="1070.2" y1="1217.7" x2="1255.5" y2="1002.6" href="#P"><stop stop-color="#53d8ff"/><stop offset="1" stop-color="#3840f7"/></linearGradient><linearGradient id="g102" x1="1224.4" y1="1171.4" x2="1378.9" y2="1339.6" href="#P"><stop stop-color="#cb236d"/><stop offset="1" stop-color="#4c246d"/></linearGradient><linearGradient id="g103" x1="1301" y1="1193.7" x2="1289.1" y2="1193.7" href="#P"><stop stop-color="#f9b776"/><stop offset="1" stop-color="#f47960"/></linearGradient><linearGradient id="g104" x1="1080.9" y1="1195.7" x2="1253.1" y2="995.9" href="#P"><stop stop-color="#53d8ff"/><stop offset="1" stop-color="#3840f7"/></linearGradient><linearGradient id="g105" x1="1382" y1="903.8" x2="1202.2" y2="1144.9" href="#P"><stop stop-color="#cb236d"/><stop offset="1" stop-color="#4c246d"/></linearGradient><linearGradient id="g106" x1="1194.8" y1="803.3" x2="1124.6" y2="803.3" href="#P"><stop stop-color="#f9b776"/><stop offset="1" stop-color="#f47960"/></linearGradient><linearGradient id="g107" x1="1148.2" y1="827.8" x2="1193.4" y2="930.8" href="#P"><stop stop-color="#f9b776"/><stop offset="1" stop-color="#f47960"/></linearGradient><linearGradient id="g108" x1="1130.4" y1="794.6" x2="1112" y2="766.2" href="#P"><stop stop-color="#f9b776"/><stop offset="1" stop-color="#f47960"/></linearGradient><linearGradient id="g109" x1="1372.8" y1="893.3" x2="1187.7" y2="1141.5" href="#P"><stop stop-color="#cb236d"/><stop offset="1" stop-color="#4c246d"/></linearGradient><linearGradient id="g110" x1="1347.6" y1="922.1" x2="1259.6" y2="922.1" href="#P"><stop stop-color="#f9b776"/><stop offset="1" stop-color="#f47960"/></linearGradient><linearGradient id="g111" x1="1165.2" y1="919.4" x2="1116.7" y2="1121.7" href="#P"><stop stop-color="#53d8ff"/><stop offset="1" stop-color="#3840f7"/></linearGradient><linearGradient id="g112" x1="1192.6" y1="853.9" x2="1202.7" y2="898.6" href="#P"><stop stop-color="#53d8ff"/><stop offset="1" stop-color="#3840f7"/></linearGradient><linearGradient id="g113" x1="1189.7" y1="873.3" x2="1194.6" y2="902.9" href="#P"><stop stop-color="#53d8ff"/><stop offset="1" stop-color="#3840f7"/></linearGradient><linearGradient id="g114" x1="1265.4" y1="922.6" x2="1238.6" y2="922.6" href="#P"><stop stop-color="#f9b776"/><stop offset="1" stop-color="#f47960"/></linearGradient><linearGradient id="g115" x1="1280.2" y1="830.4" x2="1245.1" y2="830.4" href="#P"><stop stop-color="#f9b776"/><stop offset="1" stop-color="#f47960"/></linearGradient><linearGradient id="g116" x1="1249.1" y1="845.2" x2="1286.4" y2="822.4" href="#P"><stop stop-color="#f9b776"/><stop offset="1" stop-color="#f47960"/></linearGradient><linearGradient id="g117" x1="1271.9" y1="759.4" x2="1224" y2="797.3" href="#P"><stop stop-color="#2b3582"/><stop offset="1" stop-color="#150e42"/></linearGradient><linearGradient id="g118" x1="1251.3" y1="841.6" x2="1284.4" y2="821.4" href="#P"><stop stop-color="#f9b776"/><stop offset="1" stop-color="#f47960"/></linearGradient><linearGradient id="g119" x1="801.5" y1="626.5" x2="1063.7" y2="564.6" href="#P"><stop stop-color="#2b3582"/><stop offset="1" stop-color="#150e42"/></linearGradient><linearGradient id="g120" x1="1048.2" y1="332.2" x2="1299.6" y2="359.5" href="#P"><stop stop-color="#2b3582"/><stop offset="1" stop-color="#150e42"/></linearGradient><linearGradient id="g121" x1="819.5" y1="889.5" x2="882.2" y2="728.1" href="#P"><stop stop-color="#c4421b"/><stop offset="1" stop-color="#5c0e16"/></linearGradient><linearGradient id="g122" x1="962.1" y1="692" x2="909.8" y2="921.5" href="#P"><stop stop-color="#c4421b"/><stop offset="1" stop-color="#5c0e16"/></linearGradient><linearGradient id="g123" x1="885" y1="585.4" x2="911" y2="631.8" href="#P"><stop stop-color="#c4421b"/><stop offset="1" stop-color="#5c0e16"/></linearGradient><linearGradient id="g124" x1="873.5" y1="834.1" x2="896.8" y2="873.4" href="#P"><stop stop-color="#53d8ff"/><stop offset="1" stop-color="#3840f7"/></linearGradient><linearGradient id="g125" x1="852.1" y1="817.4" x2="858.2" y2="861.5" href="#P"><stop stop-color="#53d8ff"/><stop offset="1" stop-color="#3840f7"/></linearGradient><linearGradient id="g126" x1="993.2" y1="598.7" x2="924.2" y2="760.2" href="#P"><stop stop-color="#a737d5"/><stop offset="1" stop-color="#ef497a"/></linearGradient><linearGradient id="g127" x1="958.4" y1="532.7" x2="890.3" y2="596.6" href="#P"><stop stop-color="#c4421b"/><stop offset="1" stop-color="#5c0e16"/></linearGradient><linearGradient id="g128" x1="1011.8" y1="524.4" x2="921.2" y2="640.7" href="#P"><stop stop-color="#a737d5"/><stop offset="1" stop-color="#ef497a"/></linearGradient><linearGradient id="g129" x1="910.5" y1="549.7" x2="1049.3" y2="661.3" href="#P"><stop stop-color="#c4421b"/><stop offset="1" stop-color="#5c0e16"/></linearGradient><linearGradient id="g130" x1="930.6" y1="545.9" x2="1049.9" y2="641.8" href="#P"><stop stop-color="#c4421b"/><stop offset="1" stop-color="#5c0e16"/></linearGradient><linearGradient id="g131" x1="907.5" y1="560.9" x2="879.2" y2="519.5" href="#P"><stop stop-color="#c4421b"/><stop offset="1" stop-color="#5c0e16"/></linearGradient><linearGradient id="g132" x1="850.5" y1="508.4" x2="920.3" y2="508.4" href="#P"><stop stop-color="#2b3582"/><stop offset="1" stop-color="#150e42"/></linearGradient><linearGradient id="g133" x1="951.2" y1="1093.5" x2="896.7" y2="1186.3" href="#P"><stop stop-color="#cb236d"/><stop offset="1" stop-color="#4c246d"/></linearGradient><linearGradient id="g134" x1="911.3" y1="1046.7" x2="861.7" y2="1182.7" href="#P"><stop stop-color="#cb236d"/><stop offset="1" stop-color="#4c246d"/></linearGradient><linearGradient id="g135" x1="882.9" y1="1091.9" x2="833.8" y2="1259.2" href="#P"><stop stop-color="#cb236d"/><stop offset="1" stop-color="#4c246d"/></linearGradient><linearGradient id="g136" x1="895.9" y1="1267.4" x2="915.4" y2="1171.9" href="#P"><stop stop-color="#a737d5"/><stop offset="1" stop-color="#ef497a"/></linearGradient></defs><style>.a{opacity:.5;fill:url(#g1)}.b{opacity:.3;fill:url(#g2)}.c{fill:url(#g3)}.d{opacity:.6;fill:url(#g4)}.e{fill:url(#g5)}.f{opacity:.6;fill:url(#g6)}.g{fill:url(#g7)}.h{opacity:.6;fill:url(#g8)}.i{fill:url(#g9)}.j{opacity:.6;fill:url(#g10)}.k{fill:url(#g11)}.l{opacity:.6;fill:url(#g12)}.m{opacity:.6;fill:#fff}.n{fill:url(#g13)}.o{fill:url(#g14)}.p{fill:#fff}.q{fill:url(#g15)}.r{fill:url(#g16)}.s{fill:url(#g17)}.t{fill:url(#g18)}.u{fill:url(#g19)}.v{fill:url(#g20)}.w{fill:url(#g21)}.x{fill:url(#g22)}.y{fill:url(#g23)}.z{fill:url(#g24)}.A{fill:url(#g25)}.B{fill:url(#g26)}.C{fill:url(#g27)}.D{fill:url(#g28)}.E{fill:url(#g29)}.F{fill:url(#g30)}.G{fill:url(#g31)}.H{fill:url(#g32)}.I{fill:url(#g33)}.J{fill:url(#g34)}.K{fill:url(#g35)}.L{fill:url(#g36)}.M{fill:url(#g37)}.N{fill:url(#g38)}.O{fill:url(#g39)}.P{fill:url(#g40)}.Q{fill:url(#g41)}.R{fill:url(#g42)}.S{fill:url(#g43)}.T{fill:url(#g44)}.U{fill:url(#g45)}.V{fill:url(#g46)}.W{fill:url(#g47)}.X{fill:url(#g48)}.Y{fill:url(#g49)}.Z{fill:url(#g50)}.a0{fill:#f0f0f0}.a1{fill:url(#g51)}.a2{fill:url(#g52)}.a3{fill:url(#g53)}.a4{fill:url(#g54)}.a5{fill:url(#g55)}.a6{fill:url(#g56)}.a7{fill:url(#g57)}.a8{fill:url(#g58)}.a9{fill:url(#g59)}.aa{fill:url(#g60)}.ab{fill:url(#g61)}.ac{fill:url(#g62)}.ad{fill:url(#g63)}.ae{fill:url(#g64)}.af{fill:url(#g65)}.ag{fill:url(#g66)}.ah{fill:url(#g67)}.ai{fill:url(#g68)}.aj{fill:url(#g69)}.ak{fill:url(#g70)}.al{fill:url(#g71)}.am{fill:url(#g72)}.an{fill:url(#g73)}.ao{fill:url(#g74)}.ap{fill:url(#g75)}.aq{fill:url(#g76)}.ar{fill:url(#g77)}.as{fill:url(#g78)}.at{fill:url(#g79)}.au{fill:url(#g80)}.av{fill:url(#g81)}.aw{fill:url(#g82)}.ax{fill:url(#g83)}.ay{fill:url(#g84)}.az{fill:url(#g85)}.aA{fill:url(#g86)}.aB{fill:url(#g87)}.aC{fill:url(#g88)}.aD{fill:url(#g89)}.aE{fill:url(#g90)}.aF{fill:url(#g91)}.aG{fill:url(#g92)}.aH{fill:url(#g93)}.aI{fill:url(#g94)}.aJ{fill:url(#g95)}.aK{fill:url(#g96)}.aL{fill:url(#g97)}.aM{fill:url(#g98)}.aN{fill:url(#g99)}.aO{fill:url(#g100)}.aP{fill:url(#g101)}.aQ{fill:url(#g102)}.aR{fill:url(#g103)}.aS{fill:url(#g104)}.aT{fill:url(#g105)}.aU{fill:url(#g106)}.aV{fill:url(#g107)}.aW{fill:url(#g108)}.aX{fill:url(#g109)}.aY{fill:url(#g110)}.aZ{fill:url(#g111)}.b0{fill:url(#g112)}.b1{fill:url(#g113)}.b2{fill:url(#g114)}.b3{fill:url(#g115)}.b4{fill:url(#g116)}.b5{fill:url(#g117)}.b6{fill:url(#g118)}.b7{fill:url(#g119)}.b8{fill:url(#g120)}.b9{fill:url(#g121)}.ba{fill:url(#g122)}.bb{fill:url(#g123)}.bc{fill:url(#g124)}.bd{fill:url(#g125)}.be{fill:url(#g126)}.bf{fill:url(#g127)}.bg{fill:url(#g128)}.bh{fill:url(#g129)}.bi{fill:url(#g130)}.bj{fill:url(#g131)}.bk{fill:url(#g132)}.bl{fill:url(#g133)}.bm{mix-blend-mode:soft-light;fill:#fff}.bn{fill:url(#g134)}.bo{fill:url(#g135)}.bp{fill:url(#g136)}</style><path class="a" d="m939.6 167c172.1 32 258.2 47.9 364.7 30.2 152.8-25.4 248.1-94.1 497-132.4 84.3-12.9 127.5-13.3 161.1 13 74 58 85.7 225.9 28.1 318.2-94.3 150.8-48.2 138 47.1 358.4 95.4 220.4-185 406.2-453.3 286.8-268.3-119.4-244.9-87.6-570.9 88.9-326.1 176.6-338.6-8.2-795.3-287.1-169.7-103.6-223-187-217.4-254.5 9.5-113.3 270.4-163.9 256.6-228.6-3.8-17.7-22.8-15.9-35.3-44.2-28-63.5 35.9-144.2 39.5-148.7 37.8-46.7 87.5-65.4 112.4-73.4 160.2-51 326 29 565.7 73.4z"/><path class="b" d="m1467.1 93c110.2 124.1 445.4-46.9 441.4 181.9-4.8 267.8-380.7 346.6-258.9 534.8 121.7 188.3-12.7 399.3-501.8 395.3-489.2-3.9-1276-240.2-1086.5-496.8 189.6-256.6 63.3-269.8 54.1-383.2-9.3-113.4 86.6-362.1 465.4-154.7 378.9 207.5 607.2-391.5 886.3-77.3z"/><path class="c" d="m2143.4 245.8c22.8 104.4 127.4 718.7-515.3 954.3q-188-380.6 498.3-958.4c6-5 15.5-2.8 17 4.1z"/><path class="d" d="m2089.8 347.1c-7.2 36.7-15.9 72.9-25.2 109.1q-14.2 54.1-30.9 107.6c-22.2 71.2-48 141.4-77.4 210-14.9 34.3-30.8 68.1-47.8 101.4-17.1 33.2-35.4 65.8-54.9 97.6-19.9 31.7-41 62.6-63.7 92.4-23 29.5-47.6 57.8-74 84.4-1.4 1.5-3.8 1.5-5.3 0.1-1.5-1.5-1.5-3.9 0-5.4 26.3-26.3 50.8-54.2 73.8-83.4 22.6-29.4 43.8-60.1 63.7-91.5 19.6-31.6 37.9-64 55.2-96.9 17-33.1 33-66.8 48-100.8 29.7-68.3 55.8-138.2 78.3-209.2q16.9-53.3 31.3-107.3c9.6-36 18.5-72.2 25.8-108.7 0.1-0.9 1-1.5 1.8-1.3 0.9 0.2 1.5 1 1.3 1.9z"/><path class="e" d="m1866.9 45.8c55.5 109.7 348.5 760.2-313 1125.8q-321.3-382.1 292.6-1127.3c5.4-6.5 16.7-5.7 20.4 1.5z"/><path class="f" d="m1834.5 165c1.5 20.7 2.3 41.4 2.9 62.1q0.8 31.1 0.7 62.2c-0.2 41.4-1.6 82.9-4.1 124.2-5.1 82.8-14.8 165.3-30.8 246.7-16 81.4-38.2 161.8-69.8 238.6-15.8 38.4-34.1 75.9-55.3 111.7-10.6 17.8-21.9 35.4-34 52.3-12.2 16.9-25.1 33.2-38.8 48.9-1.2 1.5-3.4 1.6-4.9 0.4-1.4-1.3-1.6-3.5-0.3-4.9v-0.1c13.6-15.4 26.4-31.6 38.6-48.2 12.1-16.7 23.2-34 33.9-51.7 21.1-35.4 39.4-72.5 55.3-110.6 31.7-76.3 54.1-156.3 70.4-237.3 16.3-81.1 26.3-163.4 31.8-246 2.7-41.3 4.2-82.7 4.5-124q0.3-31.1-0.4-62.1c-0.5-20.7-1.2-41.4-2.6-62 0-0.8 0.6-1.5 1.4-1.6 0.8 0 1.5 0.6 1.5 1.4z"/><path class="g" d="m2166.7 749.8c-11.8 66.7-96 451.8-471.6 437.6q-9.8-267.7 463.9-444c4.2-1.5 8.4 2 7.7 6.4z"/><path class="h" d="m2118.1 796.9c-10.8 19.7-23 38.4-35.7 56.8-12.7 18.3-26.2 36.2-40.2 53.6q-21 26.1-43.7 50.8c-15.2 16.4-30.9 32.3-47.2 47.7-16.2 15.4-33.1 30-50.3 44.3-8.7 7-17.4 14.1-26.3 20.8-8.9 6.9-18 13.3-27.1 19.8-36.6 25.8-75.2 48.7-115.4 68.7-2.2 1.1-4.9 0.2-6.1-2.1-1.1-2.2-0.2-5 2.1-6.1h0.1c39.8-19.3 78.3-41.7 114.9-66.8 9-6.4 18.2-12.7 27-19.5 8.9-6.5 17.6-13.4 26.3-20.3 17.2-14 34.2-28.4 50.4-43.6 16.3-15.1 32.1-30.7 47.3-46.9q22.9-24.3 44-50.1c14.1-17.1 27.7-34.8 40.5-52.9 12.8-18.2 25.2-36.7 36-56l0.1-0.1c0.5-0.9 1.7-1.2 2.6-0.7 0.9 0.5 1.2 1.7 0.7 2.6z"/><path class="i" d="m139.7 144.4q596.1 647.5 369.5 1055.3c-594-274.5-420.7-938.7-386.4-1051.4 2.3-7.4 11.7-9.5 16.9-3.9z"/><path class="j" d="m165.9 262.4c2.3 39.5 6.2 78.9 11 118.2q7.1 59 17.1 117.6c13.4 78 30.5 155.5 52.7 231.5 22.1 76 49.3 150.6 84.2 221.5 8.6 17.8 18 35.2 27.8 52.4q14.6 25.7 31.2 50.3c21.9 32.8 46.7 63.6 74.2 91.8 1.5 1.4 1.4 3.8 0 5.2-1.5 1.5-3.8 1.4-5.3 0-27.8-28.7-52.7-60-74.7-93.2q-16.6-24.8-31.2-50.9c-9.8-17.3-19.1-34.9-27.7-52.8-34.8-71.5-61.7-146.6-83.6-222.8-21.9-76.4-38.6-154.1-51.7-232.3q-9.8-58.7-16.7-117.8c-4.5-39.4-8.3-78.9-10.5-118.6 0-0.8 0.7-1.6 1.5-1.6 0.9-0.1 1.6 0.6 1.7 1.5z"/><path class="k" d="m40.5 663.5q418.8 274.6 350.3 531.1c-365.9-69.1-362.4-459.6-359.1-526.6 0.2-4.4 5.1-6.9 8.8-4.5z"/><path class="l" d="m71.5 723.2c6.9 20.9 14.6 41.6 22.6 62.2q12.1 30.8 25.5 61c8.9 20.2 18.4 40.1 28.2 59.8 9.9 19.7 20.1 39.2 31 58.4 21.8 38.3 45.7 75.4 72.5 110.2 3.3 4.4 6.9 8.6 10.3 12.9l5.2 6.4c1.7 2.2 3.6 4.2 5.3 6.3 3.6 4.1 7.2 8.3 10.9 12.4l11.2 12c15.2 15.8 31.3 30.7 48.5 44.3v0.1c1.6 1.2 1.8 3.5 0.6 5.1-1.3 1.5-3.5 1.8-5.1 0.6v-0.1c-17.4-13.9-33.6-29.2-48.9-45.3l-11.3-12.3c-3.7-4.1-7.2-8.4-10.8-12.6-1.8-2.1-3.6-4.2-5.4-6.4l-5.2-6.5c-3.4-4.4-7-8.6-10.2-13.1-26.8-35.3-50.5-72.8-72.1-111.5-10.8-19.3-20.9-39-30.7-58.8-9.7-19.9-19-40-27.8-60.2q-13.2-30.5-25.1-61.4c-7.8-20.7-15.4-41.4-22.1-62.5-0.3-0.9 0.2-1.7 1-2 0.8-0.2 1.6 0.2 1.9 1z"/><g style="opacity:.6"><path class="m" d="m447.8 137c-4.2-35.2 35.9-84.8 108.3-41 2-16.6 92.9-68.4 135 40.6 7.2-26.5 73.1-13.2 85 31.5 24.8-11 84.4 44.3 5.5 53.9-100.8 12.2-331.7 8.7-373.1-51.8q-41.4-60.5 39.3-33.2z"/><path class="m" d="m880.5 263c-2.3-19.5 19.9-46.9 59.9-22.7 1.1-9.2 51.3-37.8 74.6 22.4 4-14.6 40.4-7.2 47 17.5 13.7-6.1 46.6 24.5 3 29.7-55.7 6.8-183.3 4.8-206.2-28.6q-22.8-33.4 21.7-18.3z"/></g><path class="n" d="m1739.7 1111.3c0 13.5-11.1 24.6-24.6 24.6h-1332.7c-13.6 0-24.7-11.1-24.7-24.6l-11.1-765.9c0-13.5 16-39.9 45.2-38l1302.5-33.7c17-0.4 33.4 6.1 45.5 18.2 12 12 18.6 28.4 18.2 45.4z"/><path class="o" d="m1715.4 1087.7c0 12.8-10.5 23.3-23.3 23.3h-1277.6c-12.8 0-23.3-10.5-23.3-23.3l-10.5-695.3c1.3-41.8 37.9-56.9 60.2-56l1248.3-33.5c11.9-0.3 23.5 4.3 32 12.8 8.4 8.4 13 20 12.7 31.9z"/><path class="p" d="m405 756.2c-1.2 0-2.2-1-2.2-2.2l-0.8-56.4c-0.1-1.2 0.9-2.2 2.1-2.2 1.2-0.1 2.2 0.9 2.3 2.1l0.8 56.4c0 1.2-1 2.2-2.2 2.3q0 0 0 0z"/><path class="p" d="m403 618c-1.2 0-2.2-1-2.2-2.2l-3.2-215.9c0.1-14.5 4.5-26.1 13.3-34.5 15.9-15.3 40.8-14.5 41.9-14.5l398.6-10.7c1.2-0.1 2.2 0.9 2.2 2.2 0.1 1.2-0.9 2.2-2.1 2.2l-398.8 10.7c-1.1 0-24.2-0.7-38.8 13.2-7.8 7.6-11.8 18.1-11.9 31.3l3.2 216c0 1.2-1 2.2-2.2 2.2q0 0 0 0z"/><path class="q" d="m432.8 1053.2c1.3-57.1 0.8-562.6-2.5-606.2-3.2-43.7 64.9-51.9 169.4-56.8 104.6-4.9 986.8-24.4 1009.5-26.2 51-4.1 61.6 72.1 56.5 237.5-3.8 124.2-10.2 328.9-13.1 423.1-0.9 28-23.9 50.3-51.9 50.3-212.3 0.6-1026 2.9-1080.1 4.6-62.4 1.8-88.3-3.7-87.8-26.3z"/><path class="r" d="m1814.1 1201.7l-1503.9-4.4c-18.5 0-33.6-15.2-33.6-33.7 0.1-18.5 15.3-33.6 33.8-33.6l1503.9 4.4c18.5 0 33.6 15.2 33.5 33.7 0 18.5-15.2 33.6-33.7 33.6z"/><path class="p" d="m476.7 573.9c-1.8 0-3.3-1.4-3.3-3 0-1.6 1.5-3 3.3-3l1046.7-2q0 0 0 0c1.8 0 3.3 1.3 3.3 2.9 0 1.6-1.5 3-3.3 3l-1046.7 2.1q0 0 0 0z"/><path class="p" d="m777.2 1078c-1.6 0-2.9-1.1-2.9-2.5l-8.1-502.8c-0.1-1.4 1.2-2.6 2.9-2.6 1.6 0 3 1.1 3 2.5l8.1 502.8c0 1.4-1.3 2.6-2.9 2.6q0 0-0.1 0z"/><path class="p" d="m486.7 1078c-1.6 0-3-1.1-3-2.5l-8.1-502.8c0-1.4 1.3-2.6 2.9-2.6 1.7 0 3 1.1 3 2.5l8.1 502.8c0.1 1.4-1.2 2.6-2.9 2.6q0 0 0 0z"/><path class="p" d="m1033.5 1076.4c-1.6 0-3-1.2-3-2.6v-504.4c0-1.4 1.4-2.6 3-2.6 1.6 0 3 1.2 3 2.6v504.4c0 1.4-1.4 2.6-3 2.6z"/><path class="p" d="m1289.2 1076.4c-1.6 0-2.9-1.1-2.9-2.5l-7.2-500.7c-0.1-1.4 1.3-2.6 2.9-2.6 1.6 0 3 1.1 3 2.5l7.2 500.7c0 1.4-1.3 2.6-2.9 2.6q-0.1 0-0.1 0z"/><path class="p" d="m1530 1076.4c-1.6 0-2.9-1.1-2.9-2.5l-7.2-500.7c-0.1-1.4 1.3-2.6 2.9-2.6 1.6 0 3 1.1 3 2.5l7.2 500.7c0 1.4-1.3 2.6-2.9 2.6q-0.1 0-0.1 0z"/><path class="p" d="m1081.1 604.7h147.4c3.4 0 6.1 4.8 6.1 10.8 0 6.1-2.7 10.9-6.1 10.9h-147.4c-3.3 0-6-4.8-6-10.9 0-6 2.7-10.8 6-10.8z"/><path fill-rule="evenodd" class="p" d="m1087.3 775.7c-5.7 0-10.3-5-10.6-11.6l-4.1-85c-0.2-5.6 3.5-10.4 8.3-10.7l146.8-9.5c2.2-0.1 4.4 0.7 6.1 2.3 2.1 2 3.2 4.9 3.2 8.1l-1.2 87.4c-0.1 7.9-5.5 14.2-12.3 14.4l-135.9 4.6q-0.2 0-0.3 0zm-12.8-96.7l4 85c0.3 5.6 4.3 10 9 9.9l135.9-4.6c5.8-0.2 10.4-5.8 10.5-12.6l1.2-87.5c0.1-2.6-0.9-5-2.6-6.6-1.3-1.3-3-1.9-4.7-1.8l-146.8 9.5c-3.8 0.2-6.7 4.1-6.5 8.7z"/><path class="p" d="m1107.9 693c-0.5 0-0.9-0.4-0.9-0.9-0.1-0.5 0.4-0.9 0.9-1l111.2-3.6q0 0 0.1 0c0.5 0 0.9 0.4 0.9 0.9 0 0.5-0.4 1-0.9 1l-111.3 3.6q0 0 0 0z"/><path fill-rule="evenodd" class="p" d="m1096.6 698.6c-1.4 0-2.7-0.5-3.8-1.5-1.4-1.2-2.2-3.1-2.3-5.2-0.2-3.8 2.4-7.2 5.8-7.4 1.5-0.1 2.9 0.5 4.1 1.5 1.4 1.3 2.3 3.2 2.4 5.2 0.1 3.9-2.5 7.2-5.8 7.4q-0.2 0-0.4 0zm0-12.2q-0.1 0-0.2 0c-2.4 0.1-4.2 2.6-4.1 5.5 0.1 1.5 0.7 2.9 1.8 3.8 0.8 0.8 1.7 1.1 2.7 1.1 2.4-0.2 4.2-2.6 4.1-5.5-0.1-1.6-0.7-3-1.7-3.9-0.8-0.7-1.7-1-2.6-1z"/><path class="p" d="m1109.7 718.2c-0.5 0-0.9-0.4-0.9-0.9 0-0.5 0.4-0.9 0.9-1l111.2-3.6c0.6 0 1 0.4 1 0.9 0 0.5-0.4 1-0.9 1l-111.3 3.6q0 0 0 0z"/><path fill-rule="evenodd" class="p" d="m1098.4 723.8c-1.3 0-2.7-0.5-3.8-1.5-1.4-1.2-2.2-3.1-2.3-5.2-0.2-3.8 2.4-7.2 5.8-7.4 1.5-0.1 2.9 0.5 4.1 1.5 1.4 1.3 2.3 3.2 2.4 5.2 0.1 3.9-2.5 7.2-5.8 7.4q-0.2 0-0.4 0zm0-12.2q-0.1 0-0.2 0c-2.4 0.1-4.2 2.6-4.1 5.5 0.1 1.5 0.7 2.9 1.8 3.8 0.8 0.8 1.8 1.1 2.7 1 2.4-0.1 4.2-2.6 4.1-5.4-0.1-1.6-0.7-3-1.7-3.9-0.8-0.7-1.7-1-2.6-1z"/><path class="p" d="m1111.5 743.4c-0.5 0-0.9-0.4-0.9-0.9 0-0.5 0.4-1 0.9-1l64.7-2.1q0 0 0 0c0.5 0 0.9 0.4 1 0.9 0 0.5-0.4 1-0.9 1l-64.8 2.1q0 0 0 0z"/><path fill-rule="evenodd" class="p" d="m1100.2 749c-1.3 0-2.7-0.5-3.8-1.5-1.4-1.2-2.2-3.1-2.3-5.2-0.2-3.9 2.4-7.2 5.8-7.4 1.5-0.1 2.9 0.4 4.1 1.5 1.4 1.3 2.3 3.1 2.4 5.2 0.2 3.9-2.5 7.2-5.8 7.4q-0.2 0-0.4 0zm0-12.2q-0.1 0-0.2 0c-2.4 0.1-4.2 2.6-4 5.4 0 1.6 0.7 3 1.7 3.9 0.8 0.7 1.8 1.1 2.8 1 2.3-0.1 4.1-2.6 4-5.4-0.1-1.6-0.7-3-1.7-3.9-0.8-0.7-1.7-1-2.6-1z"/><path fill-rule="evenodd" class="p" d="m1091.6 854.3c-5.7 0-10.3-3.3-10.7-7.5l-4-52.3c-0.1-1.5 0.4-2.9 1.5-4.1 1.5-1.7 4-2.8 6.8-2.9l146.8-5.8c2.9-0.1 5.7 0.8 7.5 2.6 1.2 1.2 1.8 2.6 1.8 4.1l-1.2 53.8c-0.1 5-5.5 9.1-12.3 9.2l-135.9 2.9q-0.2 0-0.3 0zm140.8-70.8q-0.2 0-0.4 0.1l-146.7 5.8c-2.3 0.1-4.3 0.9-5.5 2.3-0.8 0.8-1.1 1.7-1 2.7l4 52.2c0.3 3.3 4.3 5.9 9 5.8l135.9-2.8c5.8-0.1 10.4-3.4 10.5-7.4l1.2-53.8c0-1.3-0.7-2.2-1.2-2.8-1.4-1.3-3.5-2.1-5.8-2.1z"/><path class="p" d="m1112.2 803.4c-0.5 0-0.9-0.4-1-0.9 0-0.5 0.4-1 1-1l111.2-2.2c0.5 0 1 0.4 1 0.9 0 0.5-0.4 0.9-0.9 1l-111.3 2.2q0 0 0 0z"/><path fill-rule="evenodd" class="p" d="m1100.9 806.8c-3.3 0-6-1.9-6.2-4.4 0-1 0.3-2.1 1.1-2.9 1.1-1.2 2.8-2 4.8-2.1 3.4-0.1 6.2 1.9 6.4 4.5 0.1 1-0.2 2-1 2.9-1.1 1.2-2.8 2-4.8 2q-0.2 0-0.3 0zm0-7.5q-0.1 0-0.3 0c-1.4 0.1-2.7 0.6-3.4 1.4-0.3 0.4-0.6 0.9-0.6 1.6 0.1 1.5 2.2 2.8 4.5 2.7 1.5-0.1 2.7-0.6 3.5-1.4 0.3-0.4 0.6-0.9 0.6-1.6-0.1-1.5-2.1-2.7-4.3-2.7z"/><path class="p" d="m1114 818.9c-0.5 0-0.9-0.4-1-0.9 0-0.6 0.4-1 1-1l111.2-2.2q0 0 0 0c0.5 0 1 0.4 1 0.9 0 0.5-0.4 0.9-0.9 0.9l-111.3 2.3q0 0 0 0z"/><path fill-rule="evenodd" class="p" d="m1102.7 822.3c-3.3 0-6-1.9-6.1-4.4-0.1-1 0.2-2.1 1-2.9 1.1-1.2 2.8-2 4.8-2.1 3.4-0.1 6.2 1.9 6.4 4.5 0.1 1-0.2 2-1 2.9-1.1 1.2-2.8 2-4.8 2q-0.1 0-0.3 0zm0-7.5q-0.1 0-0.2 0c-1.5 0.1-2.8 0.6-3.5 1.4-0.3 0.4-0.6 0.9-0.6 1.6 0.1 1.5 2.2 2.8 4.5 2.7 1.5-0.1 2.8-0.6 3.5-1.4 0.3-0.4 0.6-0.9 0.6-1.6-0.1-1.5-2.1-2.7-4.3-2.7z"/><path class="p" d="m1115.8 834.4c-0.5 0-0.9-0.4-0.9-0.9-0.1-0.6 0.4-1 0.9-1l64.7-1.3c0.5 0 0.9 0.4 0.9 0.9 0 0.5-0.4 1-0.9 1l-64.7 1.3q0 0 0 0z"/><path fill-rule="evenodd" class="p" d="m1104.5 837.8c-3.3 0-6-1.9-6.1-4.4-0.1-1.1 0.2-2.1 1-2.9 1.1-1.2 2.8-2 4.8-2.1 3.4-0.1 6.3 1.8 6.5 4.5 0 1-0.3 2-1.1 2.9-1.1 1.2-2.8 2-4.8 2q-0.1 0-0.3 0zm0-7.5q-0.1 0-0.2 0c-1.5 0.1-2.7 0.6-3.5 1.4-0.3 0.3-0.6 0.9-0.6 1.6 0.1 1.5 2.2 2.7 4.6 2.7 1.4-0.1 2.7-0.6 3.4-1.4 0.3-0.4 0.6-0.9 0.6-1.6-0.1-1.5-2.1-2.7-4.3-2.7z"/><path fill-rule="evenodd" class="p" d="m1093.2 939c-5.7 0-10.3-3.3-10.7-7.5l-4-52.3c-0.1-1.5 0.4-2.9 1.5-4.1 1.5-1.7 4-2.8 6.8-2.9l146.8-5.8c2.9-0.2 5.7 0.8 7.5 2.6 1.2 1.2 1.8 2.6 1.8 4.1l-1.2 53.8c-0.1 5-5.5 9.1-12.3 9.2l-135.9 2.9q-0.2 0-0.3 0zm140.9-70.8q-0.2 0-0.4 0l-146.8 5.9c-2.3 0.1-4.3 0.9-5.5 2.3-0.7 0.8-1.1 1.7-1 2.6l4 52.3c0.3 3.3 4.3 5.9 9 5.8l135.9-2.8c5.8-0.2 10.4-3.4 10.5-7.5l1.2-53.7c0-1.3-0.6-2.2-1.2-2.8-1.4-1.3-3.5-2.1-5.7-2.1z"/><path class="p" d="m1113.8 888.1c-0.5 0-0.9-0.4-0.9-1-0.1-0.5 0.3-0.9 0.9-0.9l111.2-2.2c0.5 0 1 0.4 1 0.9 0 0.5-0.4 0.9-0.9 0.9l-111.3 2.3q0 0 0 0z"/><path fill-rule="evenodd" class="p" d="m1102.5 891.5c-3.3 0-6-1.9-6.1-4.4-0.1-1.1 0.2-2.1 1-2.9 1.1-1.3 2.8-2 4.8-2.1 3.4-0.1 6.3 1.8 6.4 4.4 0.1 1.1-0.2 2.1-1 3-1.1 1.2-2.8 1.9-4.8 2q-0.1 0-0.3 0zm0-7.5q-0.1 0-0.2 0c-1.5 0-2.8 0.6-3.5 1.4-0.3 0.3-0.6 0.9-0.6 1.5 0.1 1.6 2.2 2.8 4.5 2.7 1.5 0 2.8-0.5 3.5-1.4 0.3-0.3 0.6-0.8 0.6-1.5-0.1-1.5-2.1-2.7-4.3-2.7z"/><path class="p" d="m1115.6 903.6c-0.5 0-0.9-0.4-0.9-1-0.1-0.5 0.4-0.9 0.9-0.9l111.2-2.2c0.5 0 1 0.4 1 0.9 0 0.5-0.4 0.9-0.9 0.9l-111.3 2.3q0 0 0 0z"/><path fill-rule="evenodd" class="p" d="m1104.3 907c-3.3 0-5.9-1.9-6.1-4.4-0.1-1.1 0.3-2.1 1-2.9 1.1-1.3 2.8-2 4.8-2.1 3.4-0.1 6.3 1.8 6.5 4.4 0 1.1-0.3 2.1-1.1 3-1.1 1.2-2.8 1.9-4.8 2q-0.1 0-0.3 0zm0-7.5q-0.1 0-0.2 0c-1.5 0-2.7 0.6-3.5 1.4-0.3 0.3-0.6 0.9-0.6 1.5 0.1 1.6 2.2 2.8 4.6 2.7 1.4 0 2.7-0.5 3.4-1.4 0.3-0.3 0.6-0.8 0.6-1.5-0.1-1.5-2.1-2.7-4.3-2.7z"/><path class="p" d="m1117.4 919.1c-0.5 0-0.9-0.5-0.9-1 0-0.5 0.4-0.9 0.9-0.9l64.7-1.3c0.5 0 0.9 0.4 0.9 0.9 0.1 0.5-0.4 0.9-0.9 1l-64.7 1.3q0 0 0 0z"/><path fill-rule="evenodd" class="p" d="m1106.1 922.5c-3.3 0-5.9-1.9-6.1-4.4-0.1-1.1 0.3-2.1 1-3 1.1-1.2 2.9-1.9 4.8-2 3.4-0.1 6.3 1.8 6.5 4.4 0 1.1-0.3 2.1-1.1 3-1.1 1.2-2.8 1.9-4.8 2q-0.1 0-0.3 0zm0-7.5q-0.1 0-0.2 0c-1.4 0-2.7 0.6-3.5 1.4-0.3 0.3-0.6 0.9-0.6 1.5 0.2 1.6 2.2 2.8 4.6 2.7 1.4 0 2.7-0.5 3.4-1.4 0.3-0.3 0.6-0.8 0.6-1.5-0.1-1.5-2.1-2.7-4.3-2.7z"/><g style="opacity:.5"><path class="p" d="m559.4 606.7h147.4c3.3 0 6 4.9 6 10.9 0 6-2.7 10.9-6 10.9h-147.4c-3.4 0-6.1-4.9-6.1-10.9 0-6 2.7-10.9 6.1-10.9z"/><path fill-rule="evenodd" class="p" d="m565.5 777.8c-5.6 0-10.3-5-10.6-11.6l-4-85c-0.3-5.6 3.4-10.4 8.3-10.7l146.7-9.5c2.2-0.2 4.4 0.7 6.1 2.3 2.1 2 3.3 4.9 3.3 8l-1.2 87.5c-0.2 7.8-5.6 14.2-12.3 14.4l-135.9 4.6q-0.2 0-0.4 0zm-12.7-96.7l4 85c0.2 5.6 4.3 10 9 9.8l135.9-4.6c5.8-0.2 10.4-5.7 10.5-12.6l1.2-87.4c0-2.6-0.9-5-2.7-6.7-1.3-1.2-3-1.9-4.7-1.8l-146.7 9.5c-3.8 0.3-6.8 4.2-6.5 8.8z"/><path class="p" d="m586.2 695.1c-0.6 0-1-0.4-1-0.9 0-0.5 0.4-1 0.9-1l111.3-3.6q0 0 0 0c0.5 0 0.9 0.4 0.9 0.9 0.1 0.5-0.3 0.9-0.9 0.9l-111.2 3.7q0 0 0 0z"/><path fill-rule="evenodd" class="p" d="m574.9 700.7c-1.4 0-2.7-0.5-3.8-1.5-1.4-1.3-2.3-3.1-2.4-5.2-0.2-3.9 2.5-7.2 5.8-7.4 1.5-0.1 3 0.4 4.2 1.5 1.4 1.2 2.2 3.1 2.3 5.2 0.2 3.9-2.4 7.2-5.8 7.4q-0.2 0-0.3 0zm0-12.2q-0.1 0-0.3 0c-2.3 0.1-4.1 2.6-4 5.4 0.1 1.6 0.7 3 1.7 3.9 0.8 0.7 1.8 1.1 2.8 1 2.4-0.1 4.2-2.6 4.1-5.4-0.1-1.6-0.8-3-1.8-3.9-0.7-0.7-1.6-1-2.5-1z"/><path class="p" d="m588 720.3c-0.5 0-1-0.4-1-0.9 0-0.6 0.4-1 0.9-1l111.3-3.6c0.5-0.1 0.9 0.4 1 0.9 0 0.5-0.4 0.9-1 0.9l-111.2 3.7q0 0 0 0z"/><path fill-rule="evenodd" class="p" d="m576.7 725.9c-1.4 0-2.7-0.5-3.8-1.5-1.4-1.3-2.3-3.2-2.4-5.2-0.1-3.9 2.5-7.2 5.8-7.4 1.5-0.1 3 0.4 4.2 1.5 1.4 1.2 2.2 3.1 2.3 5.2 0.2 3.8-2.4 7.2-5.8 7.4q-0.2 0-0.3 0zm0-12.3q-0.1 0-0.2 0c-2.4 0.2-4.2 2.6-4.1 5.5 0.1 1.6 0.7 3 1.7 3.9 0.8 0.7 1.8 1.1 2.8 1 2.4-0.1 4.2-2.6 4.1-5.5-0.1-1.5-0.7-2.9-1.8-3.8-0.7-0.7-1.6-1.1-2.5-1.1z"/><path class="p" d="m589.8 745.5c-0.5 0-1-0.4-1-0.9 0-0.6 0.4-1 0.9-1l64.7-2.1q0.1 0 0.1 0c0.5 0 0.9 0.4 0.9 0.9 0 0.5-0.4 0.9-0.9 0.9l-64.7 2.2q0 0 0 0z"/><path fill-rule="evenodd" class="p" d="m578.5 751.1c-1.4 0-2.7-0.5-3.8-1.5-1.4-1.3-2.3-3.2-2.4-5.2-0.1-3.9 2.5-7.2 5.8-7.4 1.5-0.1 3 0.4 4.2 1.5 1.4 1.2 2.2 3.1 2.3 5.2 0.2 3.8-2.4 7.2-5.8 7.4q-0.1 0-0.3 0zm0-12.3q-0.1 0-0.2 0c-2.4 0.2-4.2 2.6-4.1 5.5 0.1 1.5 0.7 3 1.7 3.9 0.8 0.7 1.8 1.1 2.8 1 2.4-0.1 4.2-2.6 4.1-5.5-0.1-1.5-0.7-2.9-1.8-3.8-0.7-0.7-1.6-1.1-2.5-1.1z"/><path fill-rule="evenodd" class="p" d="m569.8 856.3c-5.6 0-10.3-3.2-10.6-7.4l-4-52.3c-0.1-1.5 0.4-2.9 1.4-4.1 1.6-1.7 4.1-2.8 6.9-2.9l146.7-5.8c3-0.2 5.8 0.8 7.5 2.5 1.2 1.2 1.9 2.7 1.8 4.2l-1.2 53.8c-0.1 5-5.5 9.1-12.3 9.2l-135.9 2.8q-0.1 0-0.3 0zm140.9-70.7q-0.2 0-0.4 0l-146.7 5.8c-2.3 0.1-4.4 1-5.6 2.3-0.7 0.9-1 1.8-1 2.7l4.1 52.3c0.2 3.3 4.3 5.9 9 5.8l135.9-2.9c5.8-0.1 10.4-3.3 10.5-7.4l1.2-53.7c0-1.3-0.7-2.2-1.3-2.8-1.3-1.3-3.4-2.1-5.7-2.1z"/><path class="p" d="m590.4 805.4c-0.5 0-0.9-0.4-0.9-0.9 0-0.5 0.4-0.9 0.9-0.9l111.3-2.3c0.5 0 0.9 0.4 0.9 1 0 0.5-0.4 0.9-0.9 0.9l-111.3 2.2q0 0 0 0z"/><path fill-rule="evenodd" class="p" d="m579.1 808.9c-3.2 0-5.9-1.9-6.1-4.4-0.1-1.1 0.3-2.1 1.1-3 1-1.2 2.8-1.9 4.7-2 3.5-0.1 6.3 1.8 6.5 4.4 0.1 1.1-0.3 2.1-1.1 3-1.1 1.2-2.8 1.9-4.7 2q-0.2 0-0.4 0zm0-7.5q-0.1 0-0.2 0c-1.4 0-2.7 0.6-3.4 1.4-0.3 0.3-0.7 0.9-0.6 1.5 0.1 1.6 2.2 2.8 4.5 2.7 1.4 0 2.7-0.5 3.4-1.4 0.3-0.3 0.7-0.8 0.6-1.5-0.1-1.5-2-2.7-4.3-2.7z"/><path class="p" d="m592.2 820.9c-0.5 0-0.9-0.4-0.9-0.9 0-0.5 0.4-0.9 0.9-0.9l111.3-2.3q0 0 0 0c0.5 0 0.9 0.4 0.9 1 0 0.5-0.4 0.9-0.9 0.9l-111.2 2.2q-0.1 0-0.1 0z"/><path fill-rule="evenodd" class="p" d="m580.9 824.4c-3.2 0-5.9-1.9-6.1-4.4-0.1-1.1 0.3-2.1 1.1-3 1.1-1.2 2.8-1.9 4.7-2 3.5-0.1 6.3 1.8 6.5 4.4 0.1 1.1-0.3 2.1-1.1 3-1 1.2-2.8 1.9-4.7 2q-0.2 0-0.4 0zm0-7.5q-0.1 0-0.2 0c-1.4 0-2.7 0.6-3.4 1.4-0.3 0.3-0.7 0.9-0.6 1.5 0.1 1.6 2.2 2.8 4.5 2.7 1.4 0 2.7-0.6 3.4-1.4 0.3-0.3 0.7-0.8 0.6-1.5-0.1-1.5-2-2.7-4.3-2.7z"/><path class="p" d="m594 836.4c-0.5 0-0.9-0.4-0.9-0.9 0-0.5 0.4-0.9 0.9-0.9l64.7-1.3c0.6 0 1 0.4 1 0.9 0 0.5-0.4 0.9-0.9 0.9l-64.7 1.3q0 0-0.1 0z"/><path fill-rule="evenodd" class="p" d="m582.7 839.9c-3.2 0-5.9-1.9-6.1-4.4-0.1-1.1 0.3-2.1 1.1-3 1.1-1.2 2.8-1.9 4.7-2 3.5-0.1 6.3 1.8 6.5 4.4 0.1 1.1-0.3 2.1-1.1 3-1 1.2-2.8 1.9-4.7 2q-0.2 0-0.4 0zm0.1-7.5q-0.2 0-0.3 0c-1.4 0-2.7 0.6-3.4 1.4-0.3 0.3-0.7 0.9-0.6 1.5 0.1 1.6 2.2 2.8 4.5 2.7 1.4 0 2.7-0.6 3.5-1.4 0.3-0.3 0.6-0.9 0.5-1.5-0.1-1.5-2-2.7-4.2-2.7z"/><path fill-rule="evenodd" class="p" d="m571.4 941c-5.6 0-10.3-3.2-10.6-7.5l-4-52.3c-0.1-1.4 0.4-2.8 1.4-4 1.6-1.8 4.1-2.8 6.9-2.9l146.7-5.9c3-0.1 5.8 0.9 7.5 2.6 1.3 1.2 1.9 2.7 1.8 4.2l-1.2 53.8c-0.1 5-5.5 9-12.3 9.2l-135.9 2.8q-0.1 0-0.3 0zm140.9-70.7q-0.2 0-0.4 0l-146.7 5.8c-2.3 0.1-4.4 1-5.6 2.3-0.7 0.8-1 1.8-1 2.7l4.1 52.3c0.2 3.3 4.3 5.8 9 5.7l135.9-2.8c5.8-0.1 10.4-3.4 10.5-7.4l1.2-53.8c0-1.2-0.7-2.2-1.3-2.7-1.3-1.4-3.4-2.1-5.7-2.1z"/><path class="p" d="m592 890.1c-0.5 0-0.9-0.4-0.9-0.9 0-0.5 0.4-0.9 0.9-0.9l111.3-2.3c0.5 0 0.9 0.4 0.9 0.9 0 0.6-0.4 1-0.9 1l-111.2 2.2q-0.1 0-0.1 0z"/><path fill-rule="evenodd" class="p" d="m580.7 893.6c-3.2 0-5.9-1.9-6.1-4.4-0.1-1.1 0.3-2.1 1.1-3 1.1-1.2 2.8-1.9 4.7-2 3.5-0.1 6.3 1.8 6.5 4.4 0.1 1.1-0.3 2.1-1.1 2.9-1 1.3-2.8 2-4.7 2.1q-0.2 0-0.4 0zm0.1-7.6q-0.2 0-0.3 0.1c-1.4 0-2.7 0.5-3.4 1.4-0.3 0.3-0.7 0.8-0.6 1.5 0.1 1.6 2.2 2.8 4.5 2.7 1.4 0 2.7-0.6 3.5-1.4 0.2-0.3 0.6-0.9 0.5-1.5-0.1-1.5-2-2.8-4.2-2.8z"/><path class="p" d="m593.8 905.6c-0.5 0-0.9-0.4-0.9-0.9 0-0.5 0.4-0.9 0.9-0.9l111.3-2.3c0.5 0 0.9 0.4 0.9 0.9 0 0.6-0.4 1-0.9 1l-111.2 2.2q0 0-0.1 0z"/><path fill-rule="evenodd" class="p" d="m582.6 909.1c-3.3 0-6-1.9-6.2-4.5-0.1-1 0.3-2 1.1-2.9 1.1-1.2 2.8-1.9 4.7-2 3.5-0.2 6.3 1.8 6.5 4.4 0.1 1.1-0.3 2.1-1 2.9-1.1 1.3-2.9 2-4.8 2.1q-0.2 0-0.3 0zm0-7.6q-0.2 0-0.3 0.1c-1.4 0-2.7 0.5-3.4 1.4-0.3 0.3-0.7 0.8-0.6 1.5 0.1 1.6 2.2 2.8 4.5 2.7 1.4 0 2.7-0.6 3.5-1.4 0.3-0.3 0.6-0.9 0.5-1.6-0.1-1.5-2-2.7-4.2-2.7z"/><path class="p" d="m595.7 921.1c-0.6 0-1-0.4-1-0.9 0-0.5 0.4-0.9 0.9-0.9l64.7-1.3c0.6 0 1 0.4 1 0.9 0 0.5-0.4 0.9-0.9 0.9l-64.7 1.3q0 0 0 0z"/><path fill-rule="evenodd" class="p" d="m584.4 924.6c-3.3 0-6-1.9-6.2-4.5-0.1-1 0.3-2 1.1-2.9 1.1-1.2 2.8-1.9 4.8-2 3.4-0.2 6.2 1.8 6.4 4.4 0.1 1.1-0.3 2.1-1 2.9-1.1 1.3-2.9 2-4.8 2.1q-0.2 0-0.3 0zm0-7.6q-0.2 0-0.3 0c-1.4 0.1-2.7 0.6-3.4 1.5-0.3 0.3-0.7 0.8-0.6 1.5 0.1 1.6 2.2 2.8 4.5 2.7 1.4-0.1 2.7-0.6 3.5-1.4 0.3-0.3 0.6-0.9 0.6-1.6-0.2-1.5-2.1-2.7-4.3-2.7z"/></g><path class="p" d="m1325.2 590.1h153.2c3.4 0 6.2 4.9 6.2 10.9 0 6-2.8 10.9-6.2 10.9h-153.2c-3.4 0-6.2-4.9-6.2-10.9 0-6 2.8-10.9 6.2-10.9z"/><path fill-rule="evenodd" class="p" d="m1331.3 746.3c-5.7 0-10.3-4.4-10.6-10.1l-4-72.8c-0.3-4.9 3.4-9 8.3-9.3l146.7-8.1c2.5-0.2 4.8 0.7 6.6 2.4 1.8 1.7 2.8 4.1 2.7 6.6l-1.2 74.8c-0.1 6.8-5.5 12.3-12.3 12.5l-135.9 4q-0.1 0-0.3 0zm140.9-98.5q-0.2 0-0.4 0.1l-146.7 8.1c-3.9 0.2-6.8 3.5-6.6 7.3l4 72.8c0.3 4.8 4.3 8.4 9.1 8.3l135.9-3.9c5.8-0.2 10.4-4.9 10.5-10.7l1.2-74.8c0-2-0.8-3.8-2.2-5.2-1.3-1.3-3-2-4.8-2z"/><path class="p" d="m1351.9 675.4c-0.5 0-0.9-0.4-0.9-0.9 0-0.5 0.4-0.9 0.9-0.9l111.3-3.1c0.5 0 0.9 0.4 0.9 0.9 0 0.5-0.4 0.9-0.9 0.9l-111.3 3.1q0 0 0 0z"/><path fill-rule="evenodd" class="p" d="m1340.6 680.3c-1.5 0-2.9-0.6-4.1-1.6-1.2-1.1-1.9-2.6-2-4.3-0.1-1.6 0.5-3.2 1.6-4.4 1.1-1.3 2.6-2 4.2-2.1 1.6-0.1 3.2 0.5 4.5 1.6 1.2 1.1 1.9 2.6 2 4.3 0.2 3.4-2.4 6.3-5.8 6.5q-0.2 0-0.4 0zm0-10.5q-0.1 0-0.2 0c-1.1 0-2.2 0.5-3 1.4-0.7 0.9-1.1 2-1 3.1 0 1.2 0.5 2.2 1.4 3 0.8 0.8 1.9 1.2 3.1 1.1 2.3-0.1 4.1-2.2 4-4.5 0-1.2-0.5-2.3-1.4-3-0.8-0.7-1.8-1.1-2.9-1.1z"/><path class="p" d="m1353.7 697c-0.5 0-0.9-0.4-0.9-0.9 0-0.5 0.4-0.9 0.9-1l111.3-3.1c0.5 0 0.9 0.4 0.9 0.9 0 0.6-0.4 1-0.9 1l-111.3 3.1q0 0 0 0z"/><path fill-rule="evenodd" class="p" d="m1342.4 701.8c-1.5 0-2.9-0.5-4.1-1.6-1.2-1.1-1.9-2.6-2-4.2-0.1-1.7 0.5-3.3 1.6-4.5 1.1-1.2 2.6-1.9 4.2-2 3.4-0.2 6.3 2.4 6.5 5.8 0.2 3.4-2.4 6.3-5.8 6.5q-0.2 0-0.4 0zm0-10.5q-0.1 0-0.2 0c-1.1 0.1-2.2 0.6-2.9 1.5-0.8 0.8-1.2 1.9-1.1 3.1 0 1.1 0.5 2.2 1.4 3 0.8 0.7 1.9 1.1 3.1 1.1 2.3-0.2 4.1-2.2 4-4.6-0.1-2.3-2-4.1-4.3-4.1z"/><path class="p" d="m1355.5 718.6c-0.5 0-0.9-0.4-0.9-0.9 0-0.5 0.4-1 0.9-1l64.7-1.8c0.5 0 1 0.4 1 0.9 0 0.5-0.4 1-0.9 1l-64.7 1.8q-0.1 0-0.1 0z"/><path fill-rule="evenodd" class="p" d="m1344.2 723.4c-3.2 0-5.9-2.6-6.1-5.9-0.2-3.4 2.4-6.3 5.8-6.5 1.7 0 3.2 0.5 4.5 1.6 1.2 1.1 1.9 2.6 2 4.3 0.1 1.6-0.5 3.2-1.6 4.4-1.1 1.3-2.6 2-4.2 2.1q-0.2 0-0.4 0zm0.1-10.5q-0.2 0-0.3 0c-2.3 0.1-4.2 2.2-4 4.5 0.1 2.4 2.1 4.3 4.5 4.1 1.1 0 2.2-0.5 2.9-1.4 0.8-0.9 1.2-2 1.1-3.1 0-1.2-0.5-2.2-1.4-3-0.8-0.7-1.8-1.1-2.8-1.1z"/><path fill-rule="evenodd" class="p" d="m1334.3 855.2c-5.7 0-10.3-4.4-10.7-10.1l-4-72.8c-0.1-2.3 0.7-4.6 2.2-6.4 1.6-1.7 3.8-2.8 6.1-2.9l146.8-8.1c2.4-0.1 4.8 0.7 6.6 2.5 1.7 1.7 2.7 4 2.7 6.5l-1.2 74.8c-0.1 6.9-5.5 12.3-12.3 12.5l-135.9 4q-0.2 0-0.3 0zm-12.8-83l4 72.8c0.3 4.8 4.2 8.5 9 8.3l135.9-3.9c5.8-0.2 10.4-4.9 10.5-10.7l1.2-74.8c0-2-0.7-3.8-2.1-5.2-1.4-1.4-3.3-2-5.2-1.9l-146.8 8.1c-1.8 0.1-3.5 0.9-4.8 2.3-1.2 1.4-1.8 3.2-1.7 5z"/><path class="p" d="m1354.9 784.4c-0.5 0-0.9-0.4-1-0.9 0-0.6 0.4-1 1-1l111.2-3.1c0.5 0 1 0.4 1 0.9 0 0.5-0.4 0.9-0.9 1l-111.3 3.1q0 0 0 0z"/><path fill-rule="evenodd" class="p" d="m1343.6 789.2c-1.5 0-3-0.6-4.1-1.6-1.2-1.1-2-2.6-2.1-4.3-0.1-3.4 2.5-6.3 5.9-6.5 3.4-0.1 6.3 2.5 6.4 5.9 0.2 3.4-2.4 6.3-5.8 6.5q-0.1 0-0.3 0zm0-10.5q-0.1 0-0.2 0c-2.4 0.1-4.2 2.2-4.1 4.5 0.1 1.2 0.6 2.2 1.4 3 0.9 0.8 2 1.2 3.1 1.1 2.4-0.1 4.2-2.2 4.1-4.5-0.1-2.3-2-4.1-4.3-4.1z"/><path class="p" d="m1356.7 805.9c-0.5 0-0.9-0.4-1-0.9 0-0.5 0.4-0.9 1-0.9l111.2-3.2c0.5 0 1 0.4 1 1 0 0.5-0.4 0.9-0.9 0.9l-111.3 3.1q0 0 0 0z"/><path fill-rule="evenodd" class="p" d="m1345.4 810.7c-3.2 0-6-2.5-6.1-5.8-0.2-3.4 2.4-6.3 5.8-6.5 3.4-0.2 6.3 2.4 6.4 5.8 0.2 3.4-2.4 6.3-5.8 6.5q-0.1 0-0.3 0zm0-10.4q-0.1 0-0.2 0c-2.4 0.1-4.2 2.1-4.1 4.5 0.1 2.4 2.2 4.2 4.5 4.1 2.4-0.2 4.2-2.2 4.1-4.6-0.1-2.3-2-4-4.3-4z"/><path class="p" d="m1358.5 827.5c-0.5 0-0.9-0.4-0.9-0.9-0.1-0.5 0.3-1 0.9-1l64.7-1.8c0.5 0 0.9 0.4 0.9 0.9 0 0.5-0.4 1-0.9 1l-64.7 1.8q0 0 0 0z"/><path fill-rule="evenodd" class="p" d="m1347.2 832.3c-3.2 0-6-2.6-6.1-5.8-0.2-3.4 2.4-6.4 5.8-6.5 1.6-0.1 3.2 0.4 4.4 1.5 1.2 1.1 2 2.6 2.1 4.3 0 1.6-0.5 3.2-1.6 4.5-1.1 1.2-2.6 1.9-4.3 2q-0.1 0-0.3 0zm0-10.5q-0.1 0-0.2 0c-2.4 0.2-4.2 2.2-4.1 4.6 0.2 2.3 2.2 4.2 4.5 4 1.2 0 2.2-0.5 3-1.4 0.8-0.8 1.1-2 1.1-3.1-0.1-1.2-0.6-2.2-1.4-3-0.8-0.7-1.8-1.1-2.9-1.1z"/><path fill-rule="evenodd" class="p" d="m1337.2 964.1c-5.6 0-10.3-4.4-10.6-10.1l-4-72.8c-0.3-4.8 3.4-9 8.3-9.3l146.7-8.1c2.5-0.1 4.8 0.7 6.6 2.5 1.8 1.7 2.8 4.1 2.7 6.5l-1.2 74.9c-0.1 6.8-5.5 12.3-12.3 12.5l-135.9 3.9q-0.1 0-0.3 0zm-12.8-83l4.1 72.8c0.2 4.8 4.2 8.5 9 8.3l135.9-3.9c5.8-0.2 10.4-4.9 10.5-10.7l1.2-74.8c0-2-0.8-3.8-2.2-5.2-1.4-1.3-3.2-2-5.2-1.9l-146.7 8.1c-3.8 0.2-6.8 3.5-6.6 7.3z"/><path class="p" d="m1357.8 893.3c-0.5 0-0.9-0.4-0.9-0.9 0-0.6 0.4-1 0.9-1l111.3-3.1c0.5 0 0.9 0.4 0.9 0.9 0 0.5-0.4 0.9-0.9 1l-111.2 3.1q-0.1 0-0.1 0z"/><path fill-rule="evenodd" class="p" d="m1346.5 898.1c-1.5 0-2.9-0.6-4.1-1.6-1.2-1.1-1.9-2.6-2-4.3-0.1-1.6 0.5-3.2 1.6-4.4 1.1-1.2 2.6-2 4.2-2.1 1.7 0 3.2 0.5 4.5 1.6 1.2 1.1 1.9 2.6 2 4.3 0.2 3.4-2.4 6.3-5.8 6.5q-0.2 0-0.4 0zm0.1-10.5q-0.2 0-0.3 0c-1.1 0.1-2.2 0.6-2.9 1.4-0.8 0.9-1.2 2-1.1 3.1 0 1.2 0.5 2.2 1.4 3 0.8 0.8 1.9 1.2 3.1 1.1 2.3-0.1 4.2-2.2 4-4.5 0-1.2-0.5-2.2-1.4-3-0.8-0.7-1.8-1.1-2.8-1.1z"/><path class="p" d="m1359.6 914.8c-0.5 0-0.9-0.4-0.9-0.9 0-0.5 0.4-0.9 0.9-0.9l111.3-3.1q0 0 0 0c0.5 0 0.9 0.4 0.9 0.9 0.1 0.5-0.4 0.9-0.9 0.9l-111.2 3.1q0 0-0.1 0z"/><path fill-rule="evenodd" class="p" d="m1348.4 919.6c-3.3 0-6-2.5-6.2-5.8-0.2-3.4 2.4-6.3 5.8-6.5 3.4-0.2 6.3 2.4 6.5 5.8 0.2 3.4-2.4 6.4-5.8 6.5q-0.2 0-0.3 0zm0-10.4q-0.2 0-0.3 0c-2.3 0.1-4.1 2.1-4 4.5 0.1 2.4 2.1 4.2 4.5 4.1 2.4-0.2 4.2-2.2 4-4.6-0.1-2.3-2-4-4.2-4z"/><path class="p" d="m1361.4 936.4c-0.5 0-0.9-0.4-0.9-0.9 0-0.5 0.4-1 0.9-1l64.7-1.8c0.6 0 1 0.4 1 0.9 0 0.6-0.4 1-0.9 1l-64.7 1.8q0 0-0.1 0z"/><path fill-rule="evenodd" class="p" d="m1350.2 941.2c-1.6 0-3-0.5-4.1-1.6-1.3-1.1-2-2.6-2.1-4.2-0.1-1.7 0.5-3.3 1.6-4.5 1.1-1.2 2.6-1.9 4.2-2 1.7-0.1 3.3 0.4 4.5 1.5 1.2 1.1 1.9 2.7 2 4.3 0.2 3.4-2.4 6.3-5.8 6.5q-0.2 0-0.3 0zm0-10.5q-0.1 0-0.3 0c-1.1 0.1-2.2 0.6-2.9 1.5-0.8 0.8-1.2 1.9-1.1 3.1 0 1.1 0.6 2.2 1.4 2.9 0.9 0.8 2 1.2 3.1 1.1 2.4-0.1 4.2-2.1 4-4.5 0-1.1-0.5-2.2-1.4-3-0.8-0.7-1.8-1.1-2.8-1.1z"/><path class="p" d="m828.8 603.3h153.1c3.5 0 6.3 4.9 6.3 10.9 0 6-2.8 10.9-6.3 10.9h-153.1c-3.5 0-6.3-4.9-6.3-10.9 0-6 2.8-10.9 6.3-10.9z"/><path fill-rule="evenodd" class="p" d="m834.9 759.5c-5.7 0-10.3-4.4-10.7-10.1l-4-72.8c-0.2-4.9 3.5-9 8.3-9.3l146.8-8.1c2.4-0.2 4.8 0.7 6.6 2.4 1.7 1.7 2.7 4.1 2.7 6.6l-1.2 74.8c-0.1 6.8-5.5 12.3-12.3 12.5l-135.9 4q-0.2 0-0.3 0zm140.9-98.5q-0.2 0-0.4 0l-146.8 8.2c-3.8 0.2-6.7 3.5-6.5 7.3l4 72.8c0.3 4.8 4.2 8.4 9 8.3l135.9-4c5.8-0.1 10.4-4.8 10.5-10.6l1.2-74.8c0.1-2-0.7-3.9-2.1-5.2-1.3-1.3-3-2-4.8-2z"/><path class="p" d="m855.5 688.6c-0.5 0-0.9-0.4-0.9-0.9-0.1-0.5 0.3-0.9 0.9-0.9l111.2-3.1c0.5 0 1 0.4 1 0.9 0 0.5-0.4 0.9-0.9 0.9l-111.3 3.1q0 0 0 0z"/><path fill-rule="evenodd" class="p" d="m844.2 693.4c-1.5 0-3-0.5-4.1-1.5-1.2-1.1-2-2.7-2-4.3-0.1-1.6 0.4-3.2 1.5-4.5 1.1-1.2 2.6-1.9 4.3-2 1.6-0.1 3.2 0.5 4.4 1.6 1.2 1.1 2 2.6 2.1 4.2 0.1 3.4-2.5 6.4-5.9 6.5q-0.1 0-0.3 0zm0-10.4q-0.1 0-0.2 0c-1.2 0-2.2 0.5-3 1.4-0.7 0.8-1.1 1.9-1.1 3.1 0.1 1.1 0.6 2.2 1.4 3 0.9 0.7 2 1.1 3.1 1.1 2.4-0.2 4.2-2.2 4.1-4.6-0.1-1.1-0.6-2.2-1.4-2.9-0.8-0.8-1.8-1.1-2.9-1.1z"/><path class="p" d="m857.3 710.2c-0.5 0-0.9-0.4-0.9-0.9-0.1-0.5 0.4-1 0.9-1l111.2-3.1c0.5 0 1 0.4 1 0.9 0 0.5-0.4 1-0.9 1l-111.3 3.1q0 0 0 0z"/><path fill-rule="evenodd" class="p" d="m846 715c-1.5 0-3-0.5-4.1-1.6-1.2-1.1-1.9-2.6-2-4.2-0.1-1.7 0.4-3.3 1.5-4.5 1.1-1.2 2.6-1.9 4.3-2 3.4-0.2 6.3 2.4 6.5 5.8 0.1 3.4-2.5 6.3-5.9 6.5q-0.1 0-0.3 0zm0-10.5q-0.1 0-0.2 0c-1.2 0.1-2.2 0.6-3 1.5-0.7 0.8-1.1 1.9-1.1 3.1 0.1 1.1 0.6 2.2 1.4 2.9 0.9 0.8 2 1.2 3.1 1.1 2.4-0.1 4.2-2.1 4.1-4.5-0.1-2.3-2-4.1-4.3-4.1z"/><path class="p" d="m859.1 731.8c-0.5 0-0.9-0.4-0.9-0.9 0-0.6 0.4-1 0.9-1l64.7-1.8c0.5 0 0.9 0.4 0.9 0.9 0.1 0.5-0.3 0.9-0.9 1l-64.7 1.8q0 0 0 0z"/><path fill-rule="evenodd" class="p" d="m847.8 736.6c-3.2 0-6-2.6-6.1-5.9-0.2-3.4 2.4-6.3 5.8-6.5 1.6 0 3.2 0.5 4.4 1.6 1.3 1.1 2 2.6 2.1 4.3 0.1 1.6-0.5 3.2-1.6 4.4-1.1 1.3-2.6 2-4.3 2.1q-0.1 0-0.3 0zm0-10.5q-0.1 0-0.2 0c-2.4 0.1-4.2 2.2-4.1 4.5 0.2 2.4 2.2 4.2 4.5 4.1 1.2-0.1 2.2-0.6 3-1.4 0.8-0.9 1.2-2 1.1-3.1-0.1-1.2-0.6-2.2-1.4-3-0.8-0.7-1.8-1.1-2.9-1.1z"/><path fill-rule="evenodd" class="p" d="m837.8 868.4c-5.6 0-10.3-4.4-10.6-10.1l-4-72.8c-0.1-2.4 0.6-4.6 2.2-6.4 1.6-1.7 3.7-2.8 6.1-2.9l146.7-8.1c2.5-0.2 4.8 0.7 6.6 2.4 1.8 1.7 2.8 4.1 2.8 6.6l-1.3 74.8c-0.1 6.8-5.5 12.3-12.2 12.5l-136 4q-0.1 0-0.3 0zm-12.7-83l4 72.8c0.2 4.8 4.2 8.4 9 8.3l135.9-3.9c5.8-0.2 10.4-4.9 10.5-10.7l1.2-74.8c0-2-0.8-3.8-2.2-5.2-1.4-1.4-3.2-2.1-5.2-1.9l-146.7 8.1c-1.9 0.1-3.6 0.9-4.8 2.3-1.2 1.4-1.9 3.1-1.7 5z"/><path class="p" d="m858.4 797.5c-0.5 0-0.9-0.4-0.9-0.9 0-0.5 0.4-0.9 0.9-0.9l111.3-3.1c0.5 0 0.9 0.4 0.9 0.9 0.1 0.5-0.4 0.9-0.9 0.9l-111.2 3.1q0 0-0.1 0z"/><path fill-rule="evenodd" class="p" d="m847.2 802.4c-1.6 0-3-0.6-4.2-1.6-1.2-1.1-1.9-2.6-2-4.3-0.2-3.4 2.4-6.3 5.8-6.5 3.4-0.2 6.3 2.5 6.5 5.9 0.2 3.4-2.4 6.3-5.8 6.5q-0.2 0-0.3 0zm0-10.5q-0.2 0-0.3 0c-2.3 0.1-4.1 2.1-4 4.5 0 1.2 0.5 2.2 1.4 3 0.9 0.8 2 1.2 3.1 1.1 2.4-0.1 4.2-2.2 4-4.5-0.1-2.3-2-4.1-4.2-4.1z"/><path class="p" d="m860.3 819.1c-0.6 0-1-0.4-1-0.9 0-0.5 0.4-0.9 0.9-1l111.3-3.1c0.5 0 0.9 0.4 0.9 0.9 0.1 0.6-0.3 1-0.9 1l-111.2 3.1q0 0 0 0z"/><path fill-rule="evenodd" class="p" d="m849 823.9c-3.3 0-6-2.5-6.2-5.8-0.2-3.4 2.5-6.3 5.8-6.5 3.5-0.2 6.3 2.4 6.5 5.8 0.2 3.4-2.4 6.3-5.8 6.5q-0.2 0-0.3 0zm0-10.5q-0.1 0-0.3 0c-2.3 0.2-4.1 2.2-4 4.6 0.1 2.3 2.1 4.2 4.5 4 2.4-0.1 4.2-2.1 4.1-4.5-0.2-2.3-2.1-4.1-4.3-4.1z"/><path class="p" d="m862.1 840.7c-0.5 0-1-0.4-1-0.9 0-0.5 0.4-1 0.9-1l64.7-1.8c0.6 0 1 0.4 1 0.9 0 0.5-0.4 1-0.9 1l-64.7 1.8q0 0 0 0z"/><path fill-rule="evenodd" class="p" d="m850.8 845.5c-3.3 0-6-2.6-6.2-5.9-0.2-3.4 2.5-6.3 5.8-6.5 1.7 0 3.3 0.5 4.5 1.6 1.2 1.1 1.9 2.6 2 4.3 0.1 1.6-0.4 3.2-1.5 4.4-1.1 1.3-2.6 2-4.3 2.1q-0.2 0-0.3 0zm0-10.5q-0.1 0-0.3 0c-2.3 0.1-4.1 2.2-4 4.5 0.1 2.4 2.2 4.3 4.5 4.1 1.2 0 2.2-0.6 3-1.4 0.7-0.9 1.1-2 1.1-3.1-0.1-1.2-0.6-2.2-1.5-3-0.8-0.7-1.8-1.1-2.8-1.1z"/><path fill-rule="evenodd" class="p" d="m840.8 977.3c-5.7 0-10.3-4.4-10.6-10.1l-4.1-72.8c-0.2-4.8 3.5-9 8.3-9.3l146.8-8.1c2.5-0.2 4.8 0.7 6.6 2.5 1.8 1.7 2.7 4 2.7 6.5l-1.2 74.8c-0.1 6.9-5.5 12.3-12.3 12.5l-135.9 4q-0.2 0-0.3 0zm-12.8-83l4 72.8c0.3 4.8 4.2 8.5 9.1 8.3l135.9-3.9c5.7-0.2 10.3-4.9 10.4-10.7l1.2-74.8c0.1-2-0.7-3.8-2.1-5.2-1.4-1.4-3.3-2-5.2-1.9l-146.8 8.1c-3.8 0.2-6.7 3.5-6.5 7.3z"/><path class="p" d="m861.4 906.5c-0.5 0-0.9-0.4-0.9-0.9 0-0.6 0.4-1 0.9-1l111.2-3.1c0.5 0 1 0.4 1 0.9 0 0.5-0.4 0.9-0.9 1l-111.3 3.1q0 0 0 0z"/><path fill-rule="evenodd" class="p" d="m850.1 911.3c-1.5 0-3-0.6-4.1-1.6-1.2-1.1-1.9-2.6-2-4.3-0.1-1.6 0.4-3.2 1.5-4.4 1.1-1.3 2.7-2 4.3-2.1 1.6-0.1 3.2 0.5 4.4 1.6 1.3 1.1 2 2.6 2.1 4.3 0.2 3.4-2.5 6.3-5.8 6.5q-0.2 0-0.4 0zm0-10.5q-0.1 0-0.2 0c-1.1 0.1-2.2 0.6-3 1.4-0.7 0.9-1.1 2-1.1 3.1 0.1 1.2 0.6 2.2 1.5 3 0.8 0.8 1.9 1.2 3.1 1.1 2.3-0.1 4.1-2.2 4-4.5-0.1-1.2-0.6-2.2-1.4-3-0.8-0.7-1.8-1.1-2.9-1.1z"/><path class="p" d="m863.2 928c-0.5 0-0.9-0.4-0.9-0.9 0-0.5 0.4-0.9 0.9-0.9l111.2-3.2q0.1 0 0.1 0c0.5 0 0.9 0.4 0.9 1 0 0.5-0.4 0.9-0.9 0.9l-111.3 3.1q0 0 0 0z"/><path fill-rule="evenodd" class="p" d="m851.9 932.8c-3.2 0-5.9-2.5-6.1-5.8-0.2-3.4 2.4-6.3 5.8-6.5 3.4-0.2 6.3 2.4 6.5 5.8 0.2 3.4-2.5 6.3-5.8 6.5q-0.2 0-0.4 0zm0-10.4q-0.1 0-0.2 0c-2.4 0.1-4.2 2.1-4.1 4.5 0.2 2.4 2.2 4.2 4.6 4.1 2.3-0.2 4.1-2.2 4-4.6-0.1-2.3-2-4-4.3-4z"/><path class="p" d="m865 949.6c-0.5 0-0.9-0.4-0.9-0.9 0-0.5 0.4-1 0.9-1l64.7-1.8c0.5 0 0.9 0.4 1 0.9 0 0.5-0.4 1-0.9 1l-64.8 1.8q0 0 0 0z"/><path fill-rule="evenodd" class="p" d="m853.7 954.4c-1.5 0-2.9-0.6-4.1-1.6-1.2-1.1-1.9-2.6-2-4.2-0.1-1.7 0.5-3.3 1.6-4.5 1.1-1.2 2.6-2 4.2-2 1.7-0.1 3.2 0.4 4.5 1.5 1.2 1.1 1.9 2.6 2 4.3 0.2 3.4-2.4 6.3-5.8 6.5q-0.2 0-0.4 0zm0-10.5q-0.1 0-0.2 0c-1.1 0.1-2.2 0.6-3 1.4-0.7 0.9-1.1 2-1 3.2 0 1.1 0.5 2.2 1.4 2.9 0.8 0.8 1.9 1.2 3.1 1.1 2.3-0.1 4.1-2.1 4-4.5 0-1.2-0.5-2.2-1.4-3-0.8-0.7-1.8-1.1-2.9-1.1z"/><g clip-path="url(#cp1)"><rect class="p" x="825.2" y="395.1" width="139.5" height="161" rx="11.2"></rect><path class="s" d="m907.4 428.7c10.1-1.1 18.5-0.6 17.1 5.1q-6.4 24.8-18.3 22-14.9 13.4-25.5 6-9.7-6.7-12-23.6 10.7-7.9 10.9-8.3 14.8 0.1 27.8-1.2z"/><path class="t" d="m859.5 487.8c4.2-2.8 8.8-5 13.8-6.4 1.8-0.5 11.8 2.4 18 2.3 8.5-0.2 17.1-4.1 24.1-2.3 6.9 1.7 12.6 4 15.9 6.3 9.8 7 15.6 20 19.1 32.9q-6.7 6.8-15 9.9l-1.6 62.7-37.1 19-42.3-21.3 1.5-61.3q-13.4-6.2-14.4-8.5c-1-2.3 6.1-25.1 18-33.3z"/><path class="u" d="m858 530.4q-5.4 41.6 12.4 45.6 3.3 14.1-5.2 15.3-41.1-20.5-23.1-70.5 10.9 5.5 15.9 9.6z"/><path class="v" d="m949.5 520.8q12.4 52.1-23 70.5-8.6-1.2-5.3-15.3 14.4-7.1 12.5-45.6 4.9-4.1 15.8-9.6z"/><path class="w" d="m883.7 479.5l0.4-12.8 18.2-1.4 1 13.5 12.1 2.6q-1.7 15.6-20.2 15.9-18.2 0.4-21.9-15.9z"/><path class="x" d="m907.3 428.9q3.3-1.7 8.4 12.4c3.2 9.2-7.7 42.9-25.2 36q-24.7-9.8-3.9-50.2z"/><path class="y" d="m920.7 423.4c10.3 2.8 1.5 25.2-14 19.9-15.6-5.3-21.7-5.2-24.1-0.9-2.4 4.2-2.9 19.4-8.2 11.9-5.7-8.2-8.9-24.7-1.9-30 6.3-4.7 7.8-12.1 15.4-11.8 10 0.3 17.8-4.1 22.3-0.9 5.2 3.7 2.9 9.7 10.5 11.8z"/><path class="z" d="m880.8 456c-2.7 4-5-3.4-4.3-9.2q0.7-5.7 5.2-1 1.7 6.1-0.9 10.2z"/></g><g clip-path="url(#cp2)"><rect class="p" x="1084.9" y="390" width="143.9" height="166.1" rx="11.2"></rect><path class="A" d="m1119.5 480.9q47.3-7.4 84.7 2.5l-2.5 38.6q-10 53.6-17.4 77.2-28.7 5-42.4-2.5-11.2-67.2-17.4-77.2-6.2-26.1-5-38.6z"/><path class="B" d="m1168.1 456l2 22.5q-9.3 6.3-22.4 0.3l4.7-31.9z"/><path class="C" d="m1172.7 426.2c0.1 0.2 3 16.3 4.7 26.3 0.7 4.1-2.3 7.9-6.4 8.1l-3.9 0.3c-7 0.4-13.1-4.6-14.2-11.6l-2.8-18q19-11.7 22.6-5.1z"/><path class="D" d="m1146 431.4c-1.4-1.8-2.7-4.8 0.4-7.9 3.2-3.1 6.7-2.3 9-1.3 1 0.5 2.2 0.3 3-0.6 0.3-0.3 0.7-0.6 1.4-0.5 1.4 0.1 2.5-0.7 2.7-2.1 0.3-2.2 1.5-4.9 5.5-5.7 7.3-1.4 11 6 10.8 11.1-0.1 5.2-8.1 6.3-12.7 5.4-3.3-0.6-6.2 2.3-7.5 3.9-0.5 0.6-0.7 1.4-0.5 2.1l1.1 5c-0.8 1.5-1.6 3.1-2.7 4.4-0.8 1-1.7 1.5-2.6 1.7-1.4-2.5-5.2-2.9-7-3-0.7 0-1.3-0.3-1.7-0.8-1.4-1.6-3.5-5 0.5-8.4 1-0.8 1.1-2.3 0.3-3.3z"/><path class="E" d="m1146.9 449.6c-3.1-5.4 0.9-8 4.5-7.2q3.6 0.9 3.8 9.9-4.4 4-8.3-2.7z"/><path class="F" d="m1125.1 520.2q-24.9 37.3 7.5 64.7v6.2q-86.5-30.5-13.1-110.2 2.5 3.8 5.6 39.3z"/><path class="G" d="m1133.2 585.5q11.2-7.5 16.2-5 5 2.5 5 6.3-2.5 4.9-6.2 3.7c-3.8-1.3-12.5 1.2-16.2 0q-1.3-5 1.2-5z"/><path class="H" d="m1201.7 520.2q24.9 37.3-7.5 64.7v6.2q86.5-30.5 10-107.7-5 6.3-2.5 36.8z"/><path class="I" d="m1194.8 590.5c-3.7 1.2-12.4-1.3-16.1 0q-3.8 1.2-6.3-3.7 0-3.8 5-6.3 5-2.5 16.2 5 2.5 0 1.2 5z"/></g><g clip-path="url(#cp3)"><rect class="p" x="533" y="398.6" width="139.5" height="161" rx="11.2"></rect><path class="J" d="m634.3 450.6l-4.2 90.5q-28.1 52.3-57.6 37.5c-13.1-6.6-15.5-15.2-14.1-22.8 1.4-7.8-3.9-15.2-11.7-17-10.6-2.4-20.8-9.7-18.4-29.5 3.2-25.9 26-34 40.8-36.6 6-1 10.4-5.9 11-11.9 1.2-11.7 12-15.8 17.6-18.6q10-5 8.4-8.1z"/><path class="K" d="m610.9 563.9q8.5-39.6-15.5-61.4c11.8-11.7 31.5-18.6 38.8-20.8 1.8-0.5 3.7-0.2 5.2 1 6.4 4.9 23.3 19.4 21 31.5q-1.6 8.7-17.2 52.3-15 7.4-32.3-2.6z"/><path class="L" d="m625.4 452.2l6.3 2.6c1.7 0.8 2.8 2.6 2.6 4.4l-2.8 23.7c-0.1 0.4-0.2 0.9-0.4 1.2-2.1 3.9-8.4 6-13.3 7-3.1 0.6-5.8 1.2-5.1-1.8l6.9-34.1c0.6-2.6 3.3-4.1 5.8-3z"/><path class="M" d="m633.5 423.9q8.2 5.3 11.9 19.1c3.7 13.8-1.8 18.9-7.6 18.7-5.8-0.2-14.1-1.8-21.6-11.6-7.4-9.8 6.6-32.7 17.3-26.2z"/><path class="N" d="m622.3 444.7q-2.9-4.5-5.1-1.6-2.1 2.9 0.7 9.6-4.2 6.8-10.1-0.9c-5.9-7.7-3.6-16.5 3-29.2 6.6-12.6 19-14.6 28.1-7.9q9.1 6.7 1.2 16l-3.4-3.5q-16.6-2.7-13.3 17.2z"/><path class="O" d="m619.3 450.6c-2.9-2.2-10.1-8.7-4.9-11.7q5.1-3 6.8 7.2z"/><path class="P" d="m608.5 520.5q-15.7 19.5-13.9 29.1 1.8 9.6 19.4 6.1l1.7 8c-11 11.4-41.6 4-38.8-15.3q2.9-19.4 18.4-45.4 8.1 3.1 13.2 17.5z"/><path class="p" d="m550.1 527.2c-0.5 0-1-0.2-1.4-0.4-6.9-4.4-10.7-13.5-9.3-22.2 0.9-5.2 3.4-9.8 7.1-12.8 2.6-2.1 5.7-3.5 8.6-4.6 5-2 10.2-3.8 15.3-5.3q0.6-0.2 1.3-0.4c3-0.8 6.1-1.7 8.9-3.2 3.6-1.9 6.2-4.6 7.3-7.5 0.7-1.9 0.9-4 1-6 0.2-2.4 0.4-4.9 1.6-7.1 0.1-0.1 0.2-0.1 0.3-0.1 0.1 0.1 0.1 0.2 0 0.3-1.1 2.1-1.3 4.6-1.5 7-0.2 2-0.4 4.1-1.1 6-1.1 3-3.8 5.8-7.4 7.7-2.9 1.5-6 2.4-9 3.3q-0.7 0.2-1.3 0.3c-5.1 1.5-10.3 3.3-15.2 5.3-3 1.2-6.1 2.5-8.6 4.6-3.6 3-6.1 7.4-6.9 12.6-1.5 8.5 2.3 17.5 9.1 21.7 0.5 0.4 1.4 0.7 1.8 0.2 0-0.1 0.1-0.1 0.2-0.1 0.1 0.1 0.1 0.2 0.1 0.3-0.2 0.3-0.6 0.4-0.9 0.4z"/><path class="p" d="m548.2 519.1q-0.1 0-0.1-0.1c-2.7-3.9-4.2-8-4.2-11.9-0.1-4.5 2-8.8 5.3-11.1 0.1-0.1 0.2-0.1 0.2 0 0.1 0.1 0.1 0.2 0 0.3-3.2 2.2-5.2 6.4-5.2 10.8 0.1 3.8 1.5 7.9 4.2 11.7 0 0.1 0 0.2-0.1 0.3q0 0-0.1 0z"/></g><g clip-path="url(#cp4)"><rect class="p" x="1335" y="395.1" width="139.5" height="161" rx="11.2"></rect><path class="Q" d="m1389.7 434.6q5.5 9.7 14.3 13.5c5.3 2.4 15.4 6.3 16.7 17.1 0.7 5.5 4.9 10 10.4 10.9 13.9 2.1 35.2 9.3 38.6 33.3 2.6 18.4-6.7 25.3-16.6 27.7-7.2 1.8-12 8.8-10.5 16.1 1.4 7-0.7 15-12.8 21.4q-27.1 14.3-54.2-33.9l-5.5-84.1z"/><path class="R" d="m1366.8 581.9q-16.8-44.3-18.6-53.2c-2.4-11.6 10.8-23.9 17.3-29.1 2.1-1.8 4.8-2.8 7.6-2.9 8.1-0.3 25.9 0.4 37.4 11.4q-20.1 30.2-10.6 70.5-17.6 10.6-33.1 3.3z"/><path class="S" d="m1381.9 467.5l7.8 32.3c0.7 3.1-2.1 4-5.2 4.5-7.3 1-12.9-1.7-13.8-6.9-0.1-0.5-0.3-0.9-0.4-1.3l-3.3-24.1c-0.3-1.9 0.7-3.8 2.5-4.6l6.4-2.8c2.5-1.1 5.4 0.3 6 2.9z"/><path class="T" d="m1385.3 462.3c-7.4 10.2-16 12-21.9 12.3-5.9 0.3-11.7-4.8-8.1-19q3.5-14.2 11.8-19.8c10.8-6.8 25.6 16.3 18.2 26.5z"/><path class="U" d="m1377.8 456.5q3-20.3-13.9-17.2l-3.4 3.5q-8.3-9.3 0.9-16.3c9.1-7.1 21.8-5.3 28.9 7.6 7 12.8 9.6 21.8 3.7 29.8q-5.9 7.9-10.4 1.1 4.2-7.3 2-10.3-2.3-2.9-6.6 2.2z"/><path class="V" d="m1456.6 573.2c0.7-0.2 1.3 0.2 1.5 0.8l9 31.1c0.2 0.6-0.2 1.3-0.9 1.5l-52.1 15.1c-0.6 0.1-1.2-0.1-1.4-0.6l-16-30.6c-0.3-0.7 0-1.6 0.8-1.8z"/><path class="W" d="m1458.4 571.4c0.7-0.1 1.4 0.3 1.6 1l7.2 33.4c0.1 0.6-0.3 1.3-0.9 1.5l-52 15c-0.7 0.2-1.3-0.2-1.6-0.8l-12.7-34.7c-0.3-0.7 0.1-1.5 0.9-1.7z"/><path class="X" d="m1457.4 573.7c0.8-0.1 1.6 0.4 1.8 1.2l7.8 30.6c0.2 0.8-0.2 1.6-1.1 1.9l-51.2 14.8c-0.8 0.2-1.7-0.3-1.9-1.2l-8.7-37.4c-0.2-0.9 0.4-1.8 1.3-2z"/><path class="Y" d="m1431.6 593.2c-1.7-19.8-10-43.4-32.2-64.3-3.1-10.8-0.2-18.2 11.1-20.8q47.2 41.7 36.3 87.8c-4.9-5-12.2-3.6-15.2-2.7z"/><path class="Z" d="m1446.8 595.9c-1 7.7-3.7 15.8-9.1 24q-8 12.8-20.1 1.4l7.3-2.1c0.7-0.2 0.9-1.1 0.2-1.5-1.7-1-4.2-2.7-5.2-4.7-0.4-0.7 0.5-1.5 1.2-1 1.3 1 3.3 2.1 5.1 2 1.6-0.1 3.4-0.2 4.7-0.3 1.2-0.1 2.2-1 2.3-2.2 0.3-3.1 0.5-9.6-1.6-18.3 3-0.9 10.3-2.3 15.2 2.7z"/><path class="a0" d="m1333 478.2l0.2-0.2 0.3 0.2-0.2 0.2z"/><path class="a0" d="m1450 532.1c6.1-2.5 10.5-9.3 10.6-16.6 0.1-6.6-3-13.4-8.5-18.6-4.5-4.3-10.7-7.6-18.3-9.8q-1.2-0.3-2.4-0.7c-5.4-1.4-10.9-2.9-14.2-7.3-2.5-3.2-3.2-7.4-3.8-11.4-0.2-1.3-0.4-2.6-0.7-3.8-1-4.9-4.1-10.8-9.4-11.3v-0.3c5.5 0.4 8.7 6.5 9.7 11.5 0.3 1.3 0.5 2.6 0.7 3.8 0.7 4 1.3 8.1 3.8 11.3 3.2 4.3 8.7 5.7 14 7.2q1.2 0.3 2.4 0.7c7.7 2.2 13.9 5.5 18.5 9.9 5.5 5.2 8.6 12.1 8.5 18.8-0.1 7.4-4.5 14.4-10.8 16.9z"/><path class="a0" d="m1440.7 529.6c6.1-2.2 10.1-9.3 9.3-16.5-0.7-6.2-4.6-12.3-10.7-16.8-5.2-3.8-11.2-6.1-18.7-8.4l0.1-0.3c7.5 2.3 13.6 4.6 18.8 8.5 6.2 4.5 10.1 10.7 10.8 17 0.8 7.3-3.3 14.6-9.5 16.8z"/></g><g clip-path="url(#cp5)"><rect class="p" x="600.5" y="609.6" width="155.3" height="179.2" rx="11.2"></rect><path class="a1" d="m710.6 695.3c8.9 35.3 10.3 69.5 19.4 100.3h-12c-13.4-28-16.3-63.8-21.2-99z"/><path class="a2" d="m608.9 709.9c6.6-24.4 27-44.4 49.7-49.5 4.1-0.9 6.6-5.1 5.6-9.3q0 0 0-0.1c-3.3-14.2 5.8-25.5 19.5-28.6 13.7-3.2 26.8 2.9 30.1 17.1 2.2 9.6-0.6 20.3-6.9 27.3-2.6 2.9-2.8 7.2-0.3 10.1 13.8 16.2 19.5 40.9 13.5 63.1-8.8 32.6-39.5 47.1-70.2 38.8-30.7-8.3-49.8-36.3-41-68.9z"/><path class="a3" d="m710.2 696.7c4.5 6.9 22.3 35.6 15.1 45.8q-10.5 14.7-19 48.6-17.6 13.8-36.1 1.5c9.4-18.2 2.7-66.5-0.9-81-0.8-3.2 0.2-6.7 2.8-8.9 14.8-13.1 30-9.9 35.2-8.3 1.2 0.4 2.3 1.2 2.9 2.3z"/><path class="a4" d="m703.7 668.9q-1.3 3.9-2.6 25.8-8.2 6.5-16.7 2.4 0.8-9.7 9-31.5z"/><path class="a5" d="m704.7 635.8q19.8 28.8 7.5 36.9-12.3 8-26.4-12.5-4.4-15.7 0.6-20.8 5.1-5.2 18.3-3.6z"/><path class="a6" d="m695.5 628.8q9.2 2.4 10.5 6.7c1.2 4.2-13.4 7.8-17.5 8l-3.6 17q-9.4-16.3-5.4-25.5 4-9.2 16-6.2z"/><path class="a7" d="m689.3 662.5c-3.6 2.9-13.8-1.8-10.5-7.7q3.3-5.9 11 3.4z"/><path class="a8" d="m678.4 722.7c-0.8 2-2.1 3.7-3.8 5-28.6 22.9-22.1 38.5-11.1 43.7 11.2 5.3 7.6-1.1 15.6-1 8 0.2 14.1 13.8 7.3 11.4q-6.8-2.5-12.7 3.9-42.4-3.8-35.7-31.9 6.7-28.1 31.9-48.3c10.1-5.6 14.2 3.6 8.5 17.2z"/><path class="p" d="m616.5 710.9c3.6-8.3 9.8-15.9 19.8-23.9 3.6-2.9 7.5-5.7 11.3-8.4 4.5-3.3 9.2-6.6 13.5-10.2 3.8-3.3 7.8-7.2 8.6-12.3 0.4-2.6 0-5.3-0.3-8-0.6-4.3-1.3-8.7 1.5-12l0.5 0.4c-2.5 3.1-1.9 7.2-1.3 11.5 0.4 2.7 0.8 5.5 0.3 8.2-0.8 5.3-4.9 9.4-8.8 12.7-4.4 3.7-9 7-13.6 10.3-3.7 2.7-7.6 5.5-11.3 8.4-9.8 7.9-16 15.4-19.5 23.6-4.3 10.3-3.6 21.6 1.9 29.4l-0.6 0.4c-5.7-8-6.4-19.5-2-30.1z"/><path class="p" d="m636.1 710.3c5.6-11.8 14.8-21.4 22.2-28.5l0.5 0.5c-7.3 7-16.5 16.6-22.1 28.3-5.6 11.8-6.7 24.5-3 34.9l-0.6 0.2c-3.9-10.5-2.7-23.4 3-35.4z"/></g><path class="a9" d="m425.9 1223.8l-23.6-0.9q0-0.7 0.4-1.4c2.2-3.9 5.6-9.8 6.8-11.8q1.9-3.2 6.1-5.2 5.9-3.3 7.6 0c1.1 2.1 2.5 10.4 3.4 16 0.2 1.2-0.1 2.3-0.7 3.3z"/><path class="aa" d="m428.4 1185.7c-0.2 0.6-3.3 15.4-4.6 21.9-0.4 1.8-2 3.1-3.8 3-1-0.1-2.2-0.2-3.4-0.3-2.2-0.3-3.8-2.1-3.9-4.3-0.2-5.7-0.3-16.6 1.8-20.8q2.8-5.9 13.9 0.5z"/><path class="ab" d="m493.8 1218.5q1.1-11.1 4.3-16l9.4 0.6c13.7 4.4 30.2 15.4 37.3 20.5-7.8 0.4-19.6 0.7-31.7 0.2-13.2-0.6-17.8-3.4-19.3-5.3z"/><path class="ac" d="m509.4 1185.2l-1.6 17.3c-0.2 1.9-1.7 3.3-3.5 3.4-1.2 0.1-2.4 0.2-3.5 0.1-1.5 0-2.7-1.2-3.1-2.7-2-6.7-0.2-13.4-1.5-13.4z"/><path class="ad" d="m532.8 1005.7c-0.5 2.8-21.2 123.1-22.4 185.3 0 1-0.8 1.9-1.8 2-2.6 0.4-7.7 0.9-12.7 0-0.7-0.2-1.2-0.7-1.2-1.4-0.7-11.6-6.5-109.6 0.6-155.8q-58.7 123.4-67.5 157.4c-0.3 0.8-1 1.4-1.9 1.3-2.5-0.1-7.7-0.6-11.8-2.1-1.5-0.5-2.4-2.1-2-3.6 5-20.4 39.8-160.6 63.4-191.6z"/><path class="ae" d="m495.3 1036.6q-0.3 0-0.6-0.2c-0.3-0.3-0.3-0.8 0-1.1l7.9-8.1c0.3-0.3 0.7-0.3 1.1 0 0.3 0.3 0.3 0.8 0 1.1l-7.9 8q-0.2 0.3-0.5 0.3z"/><path class="af" d="m629.2 842.6c3.1 5.1 8.2 12.7 14.5 19.6q-25.9 31.5-73.8 38.4l-0.7 16-78.7-9 1.9-60.3c23.1-4.1 56.9 3.3 74 7.8 12.8 3.4 26.3 3.5 39-0.1 9.9-2.7 17.7-7.2 23.8-12.4z"/><path class="ag" d="m643.7 862.2c-6.3-6.9-11.4-14.5-14.5-19.6q22.6-19.3 20.8-50.9l8.6 3.4c6.2 29.6-2.2 51.6-14.9 67.1z"/><path class="ah" d="m552.1 819.5l0.7 33q-5.8 3.3-27.8-2.8 0.6-8.6 5.1-35.8z"/><path class="ai" d="m554.9 788.7q7.4 16.9 7.9 25.7c0.5 8.9 2.4 14.6-7.9 16.4-10.2 1.8-18.8-3.3-23.5-12.1q-7.3-13.6-5.7-19.2 1.7-5.5 29.2-10.8z"/><path class="aj" d="m532.2 812.3c-0.4 0-0.8 0.4-0.7 0.8l0.4 7.7c0.1 0.3-0.2 0.6-0.5 0.7-1.2 0.3-4.4 0.6-9.9-2.3-5.3-2.8-3.2-4.9-1.8-5.8 0.3-0.3 0.3-0.9 0-1.1-7.6-6.3-9-13.8-5.6-16.7 2-1.7 3.5-1.4 4.5-0.9 0.4 0.3 1 0 1-0.5 0.2-8.8 8.6-13.9 21.2-16.2 8.9-1.6 12.2-4.8 13.4-6.8 0.3-0.5 1.1-0.4 1.3 0.2 0.1 0.6 1 0.7 1.3 0.1l0.4-0.8c0.1-0.3 0.5-0.5 0.9-0.3 5.1 2.3 8.5 10.5 4.7 16.8-4 6.6-22.6 10.4-27.2 12.3q-4.7 1.9 0.6 12.8h-1.3z"/><path class="ak" d="m534 818.7c-3.9-0.4-11.2-9.5-6.4-12.5q4.8-3 7.6 7.8z"/><path class="al" d="m642.5 780.9q1.8 1 7.6 6.7l14.5 1.2q-2.7 6.5-7.9 6.8-10.8-0.4-19.1-12v-11.2q3.6 0.4 4.9 8.5z"/><path class="am" d="m594.6 905c2.1-0.1 3.8 1.8 3.5 3.8l-14.5 91.2c-0.3 1.5-1.6 2.7-3.1 2.7l-145.2 6.1c-1.8 0.1-3.4-1.3-3.4-3.1l-3.6-86.6c-0.1-1.8 1.2-3.3 3-3.4z"/><path class="an" d="m583 898.8c2.1-0.2 3.8 1.4 3.8 3.5l-3 98.9c0 1.8-1.5 3.2-3.3 3.3l-144.7 6c-1.8 0.1-3.4-1.2-3.6-3l-10-90.9c-0.2-1.9 1.2-3.6 3.1-3.7z"/><path class="ao" d="m568.6 893.7c2.4-0.4 4.7 1.4 4.9 3.8l9.8 102.4c0.2 2.4-1.6 4.5-4 4.6l-142.6 6c-2.3 0.1-4.3-1.7-4.4-3.9l-6-84.3c-0.1-2.2 1.4-4.1 3.5-4.5z"/><path class="ap" d="m461.3 943.5l-21.5-13.4q12.2-48.2 52.6-82.8l19.4 32.6c-26.4 27-41.8 47.9-50.5 63.6z"/><path class="aq" d="m474.4 1015q-12.5 6.7-20.6 2-8.2-4.8-12.2-28.3c-7-20.7-6.3-40.6-1.8-58.6l21.5 13.4c-14.3 25.6-11.4 37.3-10.6 39.4l20.5 8.8c-0.1 2.5-3.8 4.3-8.2 3.2q-4.4-1-6.9 0.2c2.3 3 6.6 12 8.7 16.8 0.9 1.8 2.7 3 4.7 3z"/><path class="ar" d="m1624 806.1l-15.6 10.2-28.4-2q-17.1 49.2 21.4 111.1l-20 1.8q-53.2-60.7-6.6-120.4z"/><path class="as" d="m1437.3 672.6l221.4-11.4c4.3-0.3 8 2.4 8.1 5.8l5 134.1c0.2 3.4-3.3 6.3-7.7 6.4-40.1 0.9-218.1 4.6-225.9 5.2-7.7 0.6-8.3-107.2-8.3-133.8 0-3.3 3.2-6.1 7.4-6.3z"/><path fill-rule="evenodd" class="p" d="m1441.8 807.9l-0.2-0.6c-3.3-12.3-5.5-62.7-5.6-128.6 0-0.7 0.7-1.4 1.6-1.4l221.4-11.4q0.6-0.1 1.1 0.3c0.4 0.2 0.6 0.6 0.6 1l5 134.1c0 0.8-0.7 1.5-1.6 1.5-31.9 0.7-192.5 4.1-221.8 5zm217.4-140.5q-0.1 0-0.1 0l-221.4 11.4c-0.1 0-0.1 0.1-0.2 0.1 0.1 64.7 2.2 114.5 5.5 127.5 30.7-1 189.4-4.3 221.1-5h0.1c0 0 0.1 0 0.1 0l-5-134q0 0-0.1 0z"/><path class="p" d="m1584.3 681.8l61.5-2.7c1.4-0.1 2.7 2.6 2.8 6 0.2 3.4-0.8 6.2-2.2 6.3l-61.6 2.7c-1.4 0.1-2.6-2.6-2.8-6-0.1-3.4 0.9-6.2 2.3-6.3z"/><path class="p" d="m1584.7 701.6l61.5-2.7c1.4-0.1 2.6 1.2 2.7 2.9 0.1 1.7-1 3.1-2.4 3.2l-61.5 2.8c-1.4 0-2.6-1.3-2.7-3-0.1-1.7 1-3.1 2.4-3.2z"/><path class="p" d="m1584.7 714.4l61.5-2.7c1.4-0.1 2.6 1.2 2.7 2.9 0.1 1.7-1 3.1-2.4 3.2l-61.5 2.7c-1.4 0.1-2.6-1.2-2.7-2.9-0.1-1.7 1-3.1 2.4-3.2z"/><path fill-rule="evenodd" class="p" d="m1498 792c-1.4 0-2.3 0-2.5 0-1.5 0-2.7-1.2-2.9-2.7l-5.4-46.1c-0.1-0.8 0.2-1.6 0.7-2.2 0.4-0.6 1.2-1 1.9-1.1 0.1 0 4.5-0.6 8.1-3 1.2-0.8 2.6-4.5 3.9-7.8 1.9-5 4.3-11.3 8.6-16.3 7.1-8.1 5.9-20.3 5.8-21.6-0.4-3 1.9-7.4 5.5-8.8 2.3-0.9 6.7-1.3 11.5 5.3 6 8.4 3.4 19.6 1.6 27-0.5 2.3-1 4.5-1.1 5.8q0 0.1 0 0.1c1.5 1 8.3-0.1 12.4-0.7 2.2-0.4 4.4-0.7 6.6-1 7.7-0.8 16.6-0.5 18.3 10 0.7 4.3-1.2 7.6-3 9.6q5 4.4 5.2 9.4c0 3.1-1.3 5.6-2.7 7.3 3 2.8 4.2 6.5 3.4 10.5-0.5 2.8-2 5.3-4 7.1 1.5 1.7 1.7 3.5 1.7 4.5-0.2 5.1-6.4 10.2-14.7 12.2-10.2 2.3-48.7 2.5-58.9 2.5zm-4.6-46.8l4.7 40.9c10.4 0 48.1-0.2 57.4-2.4 6.7-1.5 10.1-5 10.2-6.5 0-0.6-1.1-1.4-2.8-1.8-1.4-0.4-2.2-1.7-2.1-3.2 0.1-1.4 1.2-2.5 2.7-2.6 2-0.2 4.1-2.5 4.6-5 0.4-1.9 0.1-4.5-3.5-6.4-0.9-0.4-1.5-1.4-1.6-2.4 0-1 0.4-2 1.3-2.6 0 0 3.1-2.3 3-5.2-0.1-2.7-3.1-5.2-5.6-6.8-0.9-0.6-1.4-1.5-1.4-2.6 0-1 0.6-1.9 1.5-2.5 0.1 0 4-2.4 3.4-6.3-0.5-2.9-1-6.2-11.8-5-2.1 0.2-4.2 0.6-6.4 0.9-7.8 1.2-14.1 2.2-17.3-0.8-0.9-0.8-2-2.3-1.9-4.7 0.1-1.9 0.7-4.2 1.3-6.9 1.6-6.7 3.7-16-0.7-22.1-1.7-2.4-3.4-3.7-4.4-3.3-1.1 0.3-1.9 2-2 2.7 0.2 1.5 1.6 16.1-7.1 26.1-3.7 4.2-5.8 9.7-7.6 14.5-1.9 4.9-3.3 8.8-6.1 10.7-2.8 1.8-5.7 2.8-7.8 3.3z"/><path class="at" d="m1622.3 1083.3l18.8 64.9q19.5 11.4 26.2 64.6 2.2-0.1 3.3 1.5 1.1 1.6-0.3 30.5l-15.7 0.4 3.4-1.5q3.9-6.7 0-28.2-19.9-34.1-57.6-116.4z"/><path class="au" d="m1654.6 1245.2q9.2-0.2 12.3-1.8c3.2-1.6 2.1-14.9 0.8-20.1q-1.2-5.2 2.8-10.7l2.8 0.7c2.5 0.5 4.1 3 3.6 5.5l-5 26.4c-0.6 2.4-2.6 4.1-5.1 4.2-6.7 0.1-18.9 0.3-18.9-0.1q0.2-3.4 6.7-4.1z"/><path class="av" d="m1575.7 1243.4l22.7-7.4c4.1 3.5 8 13.8 5.2 14.9-2.3 1-27.2 1.3-38.4 1.4-1.4 0-1.9-1.8-0.6-2.5z"/><path class="aw" d="m1591.8 1102.1q-1.5 13.3 4.6 130.8l2 3.1q-5.6 7-11.7 7.4-6 0.4-14.2 1.8l16.3-10.2q-6.9-23.1-31.3-141.2z"/><path class="ax" d="m1496.9 818.4q-3.4 61.4 52.6 92.8l-13.5 30.7q-50.6-30.6-48.8-114.2c0.1-2.4-0.8-4.7-2.3-6.5l-10.8-12.5c-4.1-4.8-5.6-11.2-4.1-17.3l1.4-5.7c0.5-1.9 2.6-2.8 4.3-1.8l1.2 0.7c3.5 2 6.4 5.2 8.1 9l5.2 11.8c2 4.4 6.6 7.1 11.4 6.7l3.3-0.3z"/><path class="ay" d="m1547.5 906.6c9.4 2.6 41.1 10.9 60.9 10.6l-12.2 68.6 1 11.1-39.6-0.1q-11.2-25.9-20-38.9c-2.5-3.7-0.6-8.1 0.8-12.4l-2-1.3c-2-1.4-2.9-3.9-2.1-6.2l9.6-29.5c0.5-1.5 2.1-2.3 3.6-1.9z"/><path class="az" d="m1596.8 989.5l0.4 7.4q7.6 3.8 19.1 20.9 2.3 3.5 10.7 77.4-29.9 24.6-66.2 14.3-16.8-78.3-5.6-111.8l-0.8-6.8q10.5 4.4 42.4-1.4z"/><path class="aA" d="m1569.9 912.1q-0.1-0.2 8.3-25.4l12 1.1 4.7 28.6q-18.9 3.8-25-4.3z"/><path class="aB" d="m1611.9 859.8c0.4 6.7-8.2 29.5-21.2 30.8-9.4 1-17.3-1.8-21-3.5-1.4-0.6-2.4-1.9-2.7-3.4-5.4-25.9 19.5-36.2 20.3-36.7 8-5 24.3 6.2 24.6 12.8z"/><path class="aC" d="m1620.1 851.8c-0.6 2.6 1.1 5 3.7 5.5 4.4 0.7 10.4 3.1 13.5 10.2 3.5 7.9-0.8 12.9-4.2 15.3-1.4 1.1-1.9 2.8-1.7 4.5q0 0 0.1 0.1c0.2 1.7 2 3.4 3.8 3.7 21 3.7 25 25.6 23 33-0.7 2.7-2.5 4.4-4.4 5.5-2.6 1.5-3 5.1-0.9 7.2 2.2 2.1 4 4.7 4.1 7.6 0.2 4.8-4.8 5.4-8.4 5.2-2-0.1-3.8 1-4.5 2.9-3.3 8.5-15.1 29.8-47.8 17.3-33-12.6-23.9-35.5-19.5-43.2 0.9-1.7 0.7-3.8-0.5-5.2-14.9-18.3 0.1-31.1 6.2-35.2 1.4-1 2.1-2.6 2-4.2-0.6-8.3 6-6 8.9-10 3.2-4.4 0.7-10.3-6.2-20.3-6.8-9.9 7-14.7 7.6-14.8 25.4-3.3 26.7 7.9 25.2 14.9z"/><path class="aD" d="m950.1 1227.3c-1.6 0-2.8-1.3-2.8-2.8v-343c0-1.6 1.2-2.9 2.8-2.9 1.6 0 2.9 1.3 2.9 2.9v343c0 1.5-1.3 2.8-2.9 2.8z"/><path class="aE" d="m872.4 1227.3c-1.6 0-2.9-1.3-2.9-2.8v-343c0-1.6 1.3-2.9 2.9-2.9 1.5 0 2.8 1.3 2.8 2.9v343c0 1.5-1.3 2.8-2.8 2.8z"/><path class="aF" d="m681.3 1229.5q-0.6 0-1.1-0.2c-1.5-0.7-2.1-2.3-1.5-3.8l146.7-345.2c0.6-1.4 2.3-2.1 3.8-1.5 1.4 0.6 2.1 2.3 1.5 3.8l-146.7 345.2c-0.5 1-1.6 1.7-2.7 1.7z"/><path class="aG" d="m772 1229.5q-0.6 0-1.2-0.2c-1.4-0.7-2.1-2.3-1.5-3.8l146.7-345.2c0.7-1.4 2.4-2.1 3.8-1.5 1.5 0.6 2.1 2.3 1.5 3.8l-146.7 345.2c-0.5 1-1.5 1.7-2.6 1.7z"/><rect class="aH" x="816.1" y="876.5" width="142.5" height="8.1" rx="3.1"></rect><path class="aI" d="m896.5 937.1h-90.9c-1.6 0-2.9-1.3-2.9-2.9 0-1.5 1.3-2.8 2.9-2.8h90.9c1.6 0 2.9 1.3 2.9 2.8 0 1.6-1.3 2.9-2.9 2.9z"/><path class="aJ" d="m868.6 1002.4h-90.9v-5.7h90.9z"/><path class="aK" d="m841.6 1067.7h-90.9v-5.8h90.9z"/><path class="aL" d="m813.3 1132.9h-90.9c-1.6 0-2.9-1.2-2.9-2.8 0-1.6 1.3-2.9 2.9-2.9h90.9c1.6 0 2.9 1.3 2.9 2.9 0 1.6-1.3 2.8-2.9 2.8z"/><path class="aM" d="m785.9 1198.2h-90.9c-1.6 0-2.8-1.3-2.8-2.8 0-1.6 1.2-2.9 2.8-2.9h90.9c1.6 0 2.9 1.3 2.9 2.9 0 1.5-1.3 2.8-2.9 2.8z"/><path class="aN" d="m1250.1 1205.4q1.6 9.1 2.4 18.1c0.3 3.5-2.4 6.6-5.9 6.7-12 0.5-37.6 1.5-46.8 1.1-1.3-0.1-2.3-1.5-1.7-2.8 0.4-1.1 1.2-1.9 2.3-2.4l42.2-19.4z"/><path class="aO" d="m1251.4 1200.1l-1.3 10.9q-7.4 3.4-12.4-0.5l3-12.1z"/><path class="aP" d="m1281 996l1.7 47.7q3-74.5 0 2.6c-2.6 69-22.9 141.2-27.2 155.6-0.4 1.6-1.9 2.7-3.6 2.6-5.3-0.2-9.8-1.5-12.1-2.4-0.9-0.4-1.4-1.5-1.2-2.5 14.8-62.1 12.4-200.7 11.8-203.6z"/><path class="aQ" d="m1298.7 1210.2q2.6 4.6 5 16.7c0.5 2.2-1 4.3-3.3 4.6-3.9 0.3-10 0.8-14.9 0.8-2.2 0-4-2-3.7-4.2 0.5-4.4 2.2-11.7 7.4-17.4z"/><path class="aR" d="m1301 1196.2l-3 16.4q-3 2.2-8.9 0.6l1.4-17.6z"/><path class="aS" d="m1309.1 1000.3c12.1 73.1-2.6 180.8-7.6 201.8-0.3 1.3-1.4 2.3-2.7 2.5-2.2 0.4-5.8 0.7-9.4-0.4-1.3-0.3-2.2-1.4-2.2-2.7-0.7-17.1 0.5-121.6-10.8-162.9-0.5-2.1-1.8-4-3.6-5.2l-21.9-15.6-1.7-25.2z"/><path class="aT" d="m1231.9 861.7q36.3-0.6 76.4 9.5 10.8 63.2 1.9 136.1-28.2 7.3-59.9-4.5-4.7-26.5-26.5-100.8c-17.7-2.2-32.3-7.3-44.4-14.1 9.2-10.6 13.6-24.1 15.4-32.1 12.9 3.9 25.9 6.1 37.1 5.9z"/><path class="aU" d="m1124.6 808.2q3.6-4.3 8.1-2.3c5.3 22.6 33.3 40.9 62.1 49.9-1.8 8-6.2 21.5-15.4 32.1q-47.7-26.8-54.8-79.7z"/><path class="aV" d="m1118.2 805c-1.6-2.2-3.2-5.1-4.5-7.3-1.2-2.2-1.6-4.8-0.9-7.2 0.8-3.2 2.6-5.4 4-8l-6.9-7.3q-2-2.3 0.4-4.7 14.4 12.6 21.8 22.7c1.4 1.9-0.1 11.9-0.2 14.2-2.5 4.9-6.8 3.1-6.4 1.9q-4.3 0-7.3-4.3z"/><path class="aW" d="m1119.9 787.2l6.3 5.4 2 5.3-5.6 6.3q-1.9-10.6-3.3-12.9c-1.5-2.3-0.7-3.4 0.6-4.1z"/><path class="aX" d="m1294.3 906.4l14-35.2q33.9 23.1 39.5 52.3c-6.4 0.5-18.1 2.1-29.5 7.9q-2.5-13.8-24-25z"/><path class="aY" d="m1264.7 939.5q38.1 21.5 50.9 3.1c2.7-3.8 3.3-7.6 2.7-11.2 11.4-5.8 23.1-7.4 29.5-7.9 1.7 8.8 0.8 18.2-4.4 27.7q-22.5 41.1-83.8-2.3z"/><path class="aZ" d="m1267.2 969.4l-48.2 0.5c-0.7 0-1.3-0.3-1.7-0.9-12.3-16.1-37-65.4-43-77.5-0.6-1.4 0.3-3 1.8-3.1 10.5-0.9 28.1 0.2 43.3 1.5 12.6 1 23.5 2.3 27.3 2.7 0.8 0.1 1.5 0.7 1.8 1.5l20.8 72.6c0.4 1.4-0.7 2.7-2.1 2.7z"/><path class="b0" d="m1218.1 884.4l0.9 3.9c0.2 0.8-0.4 1.5-1.1 1.4l-14.6-2c-0.4 0-0.7-0.3-0.8-0.7l-1.5-4.5c-0.3-0.8 0.4-1.6 1.2-1.4l15.1 2.5c0.4 0 0.7 0.4 0.8 0.8z"/><path class="b1" d="m1227 898.1l-29.8-1.5c-0.6 0-1.2-0.5-1.3-1.1l-2-8.1c-0.2-1 0.6-1.9 1.6-1.8l30.5 3.1c0.6 0 1.2 0.5 1.3 1.2l1.2 6.4c0.2 1-0.5 1.8-1.5 1.8z"/><path class="b2" d="m1248.9 942.5q-3.6 2.3-5.7-1.3l3.3-3.7q-4.8 2.4-5.3-2l3.5-2.8q-5.7 1.8-6.1-3.7 8.9-3.2 16.4-4.4c7.5-1.2 9.8 4.2 11 8.4q1.1 4.3-1.8 16.2c-10.1 1.4-11.8-9.1-15.3-6.7z"/><path class="b3" d="m1268.7 832.2l11.5 33.4c0.2 0.6 0 1.2-0.5 1.5-3.2 1.7-14.5 6.7-28.2-1.9-1.4-0.9-2.4-2.4-2.6-4.1l-3.8-28.9z"/><path class="b4" d="m1273.1 810.1l-9.6 25.8c-13.7 7.8-29.4 8.5-31-1.1q-1.7-9.7 11-33.5z"/><path class="b5" d="m1262.9 823.2c-0.5-0.2-0.7-0.9-0.4-1.4 1-1.6 2.9-4.7 3.5-7.5q2.3-1.5-5.8-3.4c-8.1-1.9-20.1-4.9-22.7-11.8-2.4-6.7 4.1-23.6 14.4-10.2 0.4 0.6 1.2 0.6 1.6 0.1 1.7-2.3 6.2-6.8 12.4-4.1 5.8 2.6 6.4 6.9 6.3 9 0 0.7 0.6 1.2 1.2 1 2.9-0.5 10-1 13.2 6.2 2.7 6 1 9.3-0.6 11-0.5 0.5-0.3 1.4 0.4 1.6 1.9 0.6 4.4 2.2 4.2 6.7-0.4 6.3-7.3 5.7-9.3 5.5-0.4-0.1-0.7 0-0.9 0.3-1.7 1.9-9.4 9.9-17.7 10.8-0.7 0.1-1.3-0.6-1-1.3l3.6-10.4c0.1-0.5-0.1-1.1-0.6-1.3z"/><path class="b6" d="m1261.5 824.7q9-6.2 9.7-1c0.6 5.3-8.2 7.6-12.5 5.7z"/><path class="b7" d="m1067.7 581.3l-213.4 167.4c-7.8 6.2-19.2 4.8-25.4-3.1l-1.1-1.5c-6.9-8.9-4.8-21.9 4.7-28.1l225.4-148z"/><path fill-rule="evenodd" class="b8" d="m1294 455.2c17.4 73.4-29.2 147.3-104 165-74.9 17.7-149.6-27.5-166.9-101-17.4-73.5 29.2-147.4 104-165.1 74.8-17.6 149.6 27.6 166.9 101.1zm-19.9 4.7c-14.8-62.7-78.5-101.3-142.4-86.2-63.8 15.1-103.5 78.1-88.7 140.8 14.8 62.7 78.5 101.3 142.4 86.2 63.8-15.1 103.5-78.1 88.7-140.8z"/><path class="p" d="m1037 532.8c-0.2 0-0.4-0.1-0.4-0.3-1.2-3.1-2.2-6.2-3.1-9.3-0.1-0.3 0.1-0.6 0.3-0.6 0.3-0.1 0.6 0 0.6 0.3 0.9 3.1 2 6.2 3.1 9.2 0.1 0.3 0 0.6-0.3 0.7q-0.1 0-0.2 0zm-7.8-37.4c-0.3 0-0.5-0.2-0.5-0.5-0.5-8.9 0-17.8 1.4-26.6 4-24.9 15.2-48 32.6-66.8 17.7-19.2 40.7-32.6 66.5-38.7 24.1-5.7 49.3-4.6 72.6 3.4 0.2 0.1 0.4 0.3 0.3 0.6-0.1 0.3-0.4 0.4-0.7 0.3-23.1-7.8-48-9-72-3.3-51.5 12.1-90.1 53.2-98.3 104.6-1.4 8.8-1.9 17.7-1.4 26.5 0 0.3-0.2 0.5-0.5 0.5q0 0 0 0z"/><path class="p" d="m844.8 746.9q0 0 0 0c-8.2-0.9-13.2-4.2-14.8-10.1-1.7-5.9 0.7-12.3 6-15.9l26.9-18.6c0.2-0.1 0.5-0.1 0.7 0.2 0.1 0.2 0.1 0.5-0.1 0.7l-26.9 18.5c-5 3.4-7.2 9.4-5.7 14.8 1.5 5.4 6.2 8.6 14 9.4 0.2 0 0.4 0.2 0.4 0.5 0 0.3-0.2 0.5-0.5 0.5z"/><path class="p" d="m871.5 697.5q-0.3 0-0.5-0.2c-0.1-0.2 0-0.5 0.2-0.7l3.5-2.4c0.2-0.1 0.5-0.1 0.7 0.2 0.1 0.2 0.1 0.5-0.2 0.6l-3.5 2.5q-0.1 0-0.2 0z"/><path class="b9" d="m905.8 766.2q-17.8 62.6-26.1 84.8c0.2 0.1-0.5 5.4-0.1 8l2.5 16.4-15.3-20.6 0.6-2.7 5.3-3.2q2.6-46.6 5.3-57.7 2.8-11.1 11.1-19.4l-5.5-41.7 22.2-5.5z"/><path class="ba" d="m914.6 862.4l8.7 14.2-22.1-13.1-0.5-2.7 3.6-5v-0.1c0.3 0-10.8-83.5-1.3-97.8l-13.9-47.2 25-25q13.9 50 8.3 75c-4.9 22-9.8 81-10.8 94.3q0.3 0.1 0.7 0c0.1 2.7 0.9 5.2 2.3 7.4z"/><path class="bb" d="m889.1 609.3q-24.1 34.8 0 63.3l-4.9 4.4q-48.7-34.6 0-102.1z"/><path class="bc" d="m924.7 878.6h-7c-1.3 0-2.6-0.6-3.4-1.6-2.2-2.9-6.8-8.5-8.9-8.6q-3-0.2-2.6 10.2h-1.6l-2.1-12.9c-0.5-3.3 1.1-6.5 4-8.1q0.7 5 4.3 7.2 3.7 2.2 14.8 10 1.4-0.1 2.9 0.1c2.2 0.4 1.9 3.7-0.4 3.7z"/><path class="bd" d="m882.7 877.8l-6.5-2.7c-1.3-0.5-2.2-1.6-2.5-2.9-0.9-3.4-3-10.4-4.9-11.3q-2.6-1.3-6.3 8.4l-1.6-0.6 3.1-12.8c0.8-3.2 3.6-5.5 6.9-5.8q-1.3 4.8 1.2 8.3 2.5 3.4 9.7 15 1.3 0.3 2.6 1.1c1.9 1.3 0.4 4.2-1.7 3.3z"/><path class="be" d="m920.5 643.6q-0.8 5.9 0.4 22.2c1.2 16.3 6.9 54.5 5.7 91.1q-16.2 4.5-44.5 2.4-11.9-57.2-9-78.9 2.9-21.7 18.7-37.3z"/><path class="bf" d="m908.5 551.6l2 23.3h-18.9l4.7-35.6z"/><path class="bg" d="m886 571.7c6.5-0.3 21.1-1 31.4-0.4 5.4 0.2 10 4.1 11.1 9.5l2.5 12c0.9 4.5 0.8 9.2-0.4 13.6l-10.1 37.1q-9 5.4-28.7-0.4-17.4-41.3-10.3-67.7c0.6-2.1 2.4-3.6 4.5-3.7z"/><path class="bh" d="m928 578.6c2.8 7.3 5.3 15 8 22.2 1.3 3.6 2.7 7.1 4.2 10.4 0.8 1.6 1.6 3.1 2.4 4.4 0.7 1.3 1.6 2.4 2 3 0.1 0-0.2 0.1-0.3 0.1 0 0 1.9 0.3 2.5 0.4h2.3c3.3-0.2 7.1-0.8 10.9-1.5 7.6-1.4 15.6-3.4 23.7-4.9h0.1c1.5-0.3 3 0.7 3.3 2.3 0.2 1-0.2 2-0.9 2.6-3.3 2.9-6.8 5.3-10.4 7.6q-2.7 1.7-5.5 3.3c-2 0.9-3.9 1.9-5.9 2.8-4 1.8-8.1 3.4-12.9 4.4-1.3 0.2-2.5 0.5-3.8 0.6-1.5 0.1-2.8 0.2-4.4 0.1q-1.2-0.1-2.5-0.3c-0.5-0.1-0.8-0.1-1.3-0.2q-0.9-0.3-1.8-0.6c-1.1-0.4-1.9-0.9-2.9-1.5q-1.2-0.8-2.2-1.6c-2.6-2.3-4.3-4.5-5.7-6.6-1.4-2.1-2.5-4.2-3.6-6.3-2-4.2-3.6-8.3-4.9-12.4-2.6-8.4-4.4-16.5-5.1-25.2-0.4-4.2 2.7-7.8 6.9-8.2 3.4-0.3 6.5 1.8 7.7 4.8z"/><path class="bi" d="m981.1 616.4l3.4-8 17.7-4.4q1.5 3.1-6 4.4 2.7 2.9 1.2 6.4c-1.4 3.5-16.4 6.9-16.3 1.6z"/><path class="bj" d="m916.5 524.6c0.6 0.4 5.9 19.1 1.5 27-4.5 7.8-18-1-21.7-12.3-3.7-11.4 2.2-25.3 20.2-14.7z"/><path class="bk" d="m879.1 530.2c2.7-3.4 4.4-8.1 6.6-11.9 2.7-4.5 6.8-6.9 12-7.8 6.9-1.1 21 3.5 22.9 11.1 0.7 2.8-0.6 5.8-2.5 7.9-1.9 2.2-4.4 3.7-6.7 5.3-3.2 2.1-6.3 4.5-8.3 7.8-1.8 3.2-0.9 5.9 0.3 9.2 2.3 6.2 7.3 11.6 7.5 18.5 0.1 3.4-1.4 6.9-4.1 9.2-2.5 2.2-4.6 3.9-5.1 7.5-0.2 1.8 0.1 3.6 0 5.4-0.4 6.3-6.4 11.7-12.7 11.6-4.8-0.2-9.6-3.1-14.3-1.9-4 1.1-10.4 5.2-12.9-0.9-0.9-2.1-0.2-4.7-1.6-6.4-1.2-1.4-3.3-1.5-5.1-2.2-3-1.1-4.9-4-4.7-7.2 0.1-3.2 3.3-4.8 3.8-7.8 0.6-4.1-1.7-8.4-0.9-12.8 0.8-4 3.2-7.6 6.5-10 3.2-2.4 6.9-3.7 9-7.4 1.9-3.5 1.8-8 4.1-11.2 1.1-1.5 2.5-2.6 3.9-3.8 0.8-0.7 1.6-1.4 2.3-2.2z"/><path class="p" d="m687.8 837.2q-3.4 2-6.7 4.2c-0.5 0.4-1.2 0.3-1.6-0.2-0.4-0.6-0.2-1.3 0.3-1.7q0 0 0 0 3.4-2.3 6.9-4.3c0.5-0.3 1.2-0.1 1.5 0.4 0.3 0.6 0.1 1.2-0.4 1.6z"/><path class="p" d="m668.9 851.5l-5.5 5.6-0.1 0.1c-0.5 0.5-1.3 0.5-1.8 0-0.6-0.5-0.6-1.4-0.1-1.9q0 0 0 0l5.8-5.7c0.5-0.5 1.3-0.5 1.8 0 0.5 0.5 0.5 1.3 0 1.8z"/><path class="p" d="m653.7 869.5l-4.2 6.8v0.1c-0.4 0.6-1.4 0.9-2.1 0.4-0.6-0.4-0.9-1.3-0.4-2l4.3-6.9c0.4-0.6 1.3-0.8 2-0.4 0.7 0.4 0.9 1.3 0.4 2z"/><path class="p" d="m642.8 890.5l-2.6 7.5v0.1c-0.3 0.8-1.2 1.3-2 1-0.9-0.3-1.3-1.2-1-2.1l2.7-7.6c0.3-0.8 1.2-1.3 2-1 0.8 0.3 1.2 1.2 0.9 2z"/><path class="p" d="m636.7 913.3l-0.9 7.9v0.1c-0.1 0.9-1 1.6-1.9 1.5-1-0.1-1.6-1-1.5-1.9v-0.1l1-8c0.2-0.9 1-1.6 1.9-1.4 0.9 0.1 1.6 0.9 1.5 1.8z"/><path class="p" d="m635.4 936.9l0.6 7.9v0.1c0.1 1-0.7 1.9-1.7 2-1 0-1.9-0.7-2-1.7l-0.5-8.1c0-1 0.7-1.9 1.7-1.9 1-0.1 1.9 0.6 1.9 1.6z"/><path class="p" d="m638.4 960.4l1.7 7.8c0.2 1.1-0.4 2.1-1.5 2.4-1 0.2-2.1-0.5-2.3-1.5l-1.7-7.9c-0.2-1.1 0.4-2.1 1.5-2.3 1-0.2 2 0.4 2.2 1.5z"/><path class="p" d="m644.2 983.5l2.5 7.5v0.1c0.4 1.1-0.2 2.2-1.3 2.6-1.1 0.4-2.2-0.2-2.6-1.3l-2.5-7.7c-0.3-1.1 0.3-2.2 1.4-2.6 1-0.3 2.2 0.2 2.5 1.3z"/><path class="p" d="m652.6 1005.7l3.4 7.1v0.1c0.5 1.1 0.1 2.4-1 2.9-1 0.5-2.3 0-2.8-1v-0.1l-3.5-7.3c-0.5-1 0-2.3 1.1-2.8 1-0.5 2.3 0 2.8 1z"/><path class="p" d="m663.7 1026.6l4.3 6.6 0.1 0.1c0.7 1 0.4 2.4-0.7 3.1-1 0.7-2.4 0.4-3-0.7l-4.4-6.8c-0.7-1-0.4-2.4 0.6-3 1-0.7 2.4-0.4 3.1 0.6z"/><path class="p" d="m677.6 1045.7c0.9 1 1.7 2 2.6 3l2.7 2.9v0.1c0.9 0.9 0.8 2.3-0.1 3.2-0.9 0.8-2.4 0.8-3.2-0.1v-0.1l-2.8-3c-0.9-1-1.8-2-2.6-3-0.9-1-0.7-2.4 0.2-3.2 1-0.8 2.4-0.7 3.2 0.2z"/><path class="p" d="m694.3 1062.4l6.2 4.8 0.1 0.1c1.1 0.8 1.2 2.3 0.4 3.3-0.8 1.1-2.3 1.2-3.3 0.4l-6.4-5.1c-1-0.8-1.1-2.2-0.3-3.2 0.8-1 2.2-1.2 3.2-0.4z"/><path class="p" d="m713.7 1075.9l6.9 3.7 0.1 0.1c1.2 0.6 1.6 2.1 1 3.3-0.7 1.2-2.1 1.6-3.3 1l-7.2-4c-1.1-0.6-1.6-2.1-0.9-3.2 0.6-1.2 2.1-1.6 3.2-1z"/><path class="p" d="m735 1086l7.4 2.5 0.1 0.1c1.3 0.4 2 1.9 1.6 3.2-0.5 1.3-1.9 2-3.2 1.5l-7.7-2.7c-1.3-0.5-2-1.9-1.5-3.2 0.5-1.3 1.9-1.9 3.2-1.5z"/><path class="p" d="m757.6 1092.7l7.8 1.5h0.1c1.4 0.3 2.3 1.7 2 3.1-0.3 1.4-1.6 2.3-3 2h-0.1l-7.9-1.7c-1.4-0.2-2.3-1.6-2-3 0.3-1.4 1.6-2.2 3-2z"/><path class="p" d="m781.1 1096.5l7.8 0.9h0.1c1.5 0.2 2.5 1.5 2.4 2.9-0.2 1.5-1.5 2.5-3 2.4l-8-1c-1.5-0.1-2.5-1.4-2.3-2.9 0.1-1.4 1.4-2.4 2.9-2.3z"/><path class="p" d="m804.7 1098.3l7.9 0.1h0.1c1.5 0 2.7 1.2 2.7 2.7 0 1.5-1.2 2.7-2.7 2.7l-8.1-0.1c-1.5 0-2.7-1.2-2.7-2.7 0-1.5 1.3-2.7 2.7-2.7z"/><path class="p" d="m828.5 1097.8l7.9-0.6c1.5-0.1 2.9 1 3 2.5 0.1 1.5-1 2.9-2.5 3l-8.1 0.6c-1.5 0.1-2.8-1-2.9-2.5-0.1-1.5 1-2.8 2.5-3z"/><path class="p" d="m852.1 1095.3l7.8-1.2h0.1c1.5-0.3 2.9 0.7 3.2 2.3 0.2 1.5-0.8 2.9-2.3 3.1l-8 1.3c-1.5 0.2-2.9-0.8-3.1-2.3-0.3-1.5 0.7-2.9 2.2-3.2z"/><path class="p" d="m875.5 1091l7.8-1.8c1.5-0.3 3 0.6 3.4 2.1 0.3 1.5-0.6 3-2.1 3.3l-7.9 1.8c-1.5 0.4-3-0.5-3.3-2-0.4-1.5 0.6-3 2.1-3.4z"/><path class="p" d="m898.6 1085.1l7.6-2.2h0.1c1.5-0.5 3 0.4 3.5 1.8 0.4 1.5-0.4 3.1-1.9 3.5l-7.8 2.3c-1.4 0.5-3-0.4-3.4-1.9-0.5-1.4 0.4-3 1.9-3.4z"/><path class="p" d="m921.3 1077.9l7.5-2.7h0.1c1.4-0.5 3 0.2 3.6 1.7 0.5 1.5-0.3 3.1-1.7 3.6l-7.6 2.7c-1.5 0.6-3.1-0.2-3.6-1.7-0.6-1.4 0.2-3.1 1.7-3.6z"/><path class="p" d="m943.6 1069.5l7.4-3.1c1.5-0.6 3.2 0.1 3.8 1.6 0.6 1.4-0.1 3.1-1.6 3.7l-7.4 3.1c-1.5 0.6-3.1-0.1-3.7-1.6-0.6-1.4 0.1-3.1 1.5-3.7z"/><path class="p" d="m965.6 1060l7.2-3.4c1.4-0.7 3.2 0 3.8 1.4 0.7 1.4 0.1 3.2-1.4 3.8l-7.3 3.4c-1.4 0.7-3.1 0.1-3.8-1.4-0.6-1.4 0-3.1 1.4-3.8z"/><path class="p" d="m987 1049.6l7.1-3.7c1.5-0.7 3.2-0.2 4 1.2 0.7 1.5 0.1 3.2-1.3 4l-7.1 3.7c-1.4 0.7-3.2 0.1-3.9-1.3-0.8-1.4-0.2-3.2 1.2-3.9z"/><path class="p" d="m1008.1 1038.3l6.9-3.9h0.1c1.4-0.8 3.2-0.4 4 1.1 0.8 1.4 0.3 3.1-1.1 4l-7 3.9c-1.4 0.8-3.2 0.3-4-1.1-0.8-1.4-0.3-3.2 1.1-4z"/><path class="p" d="m1028.7 1026.2l6.8-4.2c1.4-0.8 3.2-0.4 4.1 1 0.9 1.4 0.4 3.2-1 4.1l-6.8 4.2c-1.4 0.8-3.2 0.4-4.1-1-0.8-1.4-0.4-3.2 1-4z"/><path class="p" d="m1048.9 1013.4l6.6-4.4v-0.1c1.4-0.9 3.2-0.5 4.1 0.8 1 1.4 0.6 3.3-0.8 4.2l-6.6 4.5c-1.4 0.9-3.3 0.5-4.2-0.9-0.9-1.3-0.5-3.2 0.8-4.1z"/><path class="p" d="m1068.4 999.8l3.2-2.4c1.1-0.8 2.1-1.6 3.2-2.4 1.3-1 3.1-0.8 4.2 0.5 1 1.3 0.8 3.2-0.5 4.2-1.1 0.8-2.2 1.7-3.3 2.5l-3.2 2.4c-1.3 1-3.2 0.7-4.2-0.6-1-1.3-0.7-3.2 0.6-4.2z"/><path class="p" d="m1087.2 985.1l6.2-5.1c1.2-1.1 3.1-0.9 4.2 0.4 1 1.2 0.8 3.1-0.4 4.1l-6.2 5.2c-1.3 1-3.2 0.8-4.2-0.4-1.1-1.3-0.9-3.2 0.4-4.2z"/><path class="p" d="m1105.5 969.6l6-5.2c1.2-1.1 3.1-1 4.1 0.2 1.1 1.2 1 3.1-0.2 4.2l-6 5.3c-1.3 1.1-3.1 0.9-4.2-0.3-1.1-1.2-1-3.1 0.3-4.1z"/><path class="p" d="m1123.3 953.7l5.8-5.5c1.2-1.1 3-1.1 4.1 0.1 1.1 1.2 1.1 3-0.1 4.1l-5.9 5.5c-1.1 1.1-3 1.1-4.1-0.1-1.1-1.2-1-3 0.1-4.1z"/><path class="p" d="m1140.5 937.1l5.7-5.6c1.1-1.1 3-1.1 4.1 0 1.1 1.1 1.1 2.9 0 4.1l-5.7 5.6c-1.1 1.2-3 1.2-4.1 0-1.1-1.1-1.1-2.9 0-4v-0.1z"/><path class="p" d="m1157.3 920.1l5.5-5.8c1.1-1.2 2.9-1.2 4.1-0.1 1.1 1.1 1.2 2.9 0.1 4l-5.5 5.8c-1.1 1.2-2.9 1.2-4.1 0.2-1.1-1.1-1.2-2.9-0.1-4.1z"/><path class="p" d="m1173.6 902.6l5.3-6h0.1c1-1.1 2.8-1.2 4-0.2 1.1 1 1.2 2.8 0.2 4l-5.4 6c-1 1.1-2.8 1.2-4 0.2-1.1-1-1.2-2.8-0.2-4z"/><path class="p" d="m1189.5 884.6l5.1-6h0.1c1-1.2 2.7-1.4 3.9-0.4 1.2 1 1.3 2.8 0.3 4l-5.2 6.1c-1 1.2-2.8 1.3-3.9 0.3-1.2-1-1.4-2.8-0.4-3.9z"/><path class="p" d="m1204.9 866.3l5-6.2c1-1.2 2.8-1.3 3.9-0.4 1.2 1 1.4 2.8 0.4 3.9l-5 6.3c-1 1.1-2.8 1.3-3.9 0.4-1.2-1-1.4-2.8-0.4-4z"/><path class="p" d="m1219.9 847.7l5-6.3c0.9-1.2 2.7-1.4 3.8-0.4 1.2 0.9 1.4 2.6 0.5 3.8l-5 6.3c-0.9 1.2-2.6 1.4-3.8 0.5-1.2-1-1.4-2.7-0.5-3.9z"/><path class="p" d="m1234.7 828.8l4.9-6.3c0.9-1.2 2.6-1.4 3.8-0.5 1.2 0.9 1.4 2.6 0.5 3.8l-4.9 6.4c-0.9 1.2-2.6 1.4-3.8 0.5-1.2-1-1.4-2.7-0.5-3.9z"/><path class="p" d="m1249.4 809.8l4.8-6.3c0.9-1.2 2.6-1.4 3.7-0.5 1.2 0.9 1.4 2.5 0.5 3.7l-4.8 6.4c-0.9 1.2-2.6 1.4-3.7 0.5-1.2-0.9-1.5-2.6-0.6-3.8z"/><path class="p" d="m1264 790.8l4.9-6.3c0.9-1.1 2.5-1.3 3.6-0.5 1.1 0.9 1.3 2.5 0.5 3.6l-4.9 6.4c-0.9 1.1-2.5 1.3-3.6 0.5-1.2-0.9-1.4-2.5-0.5-3.7z"/><path class="p" d="m1278.8 771.9l5-6.3c0.8-1.1 2.4-1.2 3.5-0.4 1 0.9 1.2 2.4 0.4 3.5l-5 6.3c-0.8 1.1-2.4 1.3-3.5 0.4-1.1-0.9-1.3-2.4-0.4-3.5z"/><path class="p" d="m1294 753.2l5.2-6.1c0.8-1 2.3-1.2 3.3-0.3 1 0.8 1.2 2.4 0.3 3.4l-5.1 6.1c-0.9 1-2.4 1.2-3.4 0.3-1.1-0.8-1.2-2.4-0.3-3.4z"/><path class="p" d="m1309.8 735l5.5-5.8c0.9-1 2.4-1 3.3-0.1 0.9 0.8 1 2.3 0.1 3.2v0.1l-5.4 5.8c-0.9 1-2.4 1-3.3 0.2-1-0.9-1-2.4-0.2-3.3z"/><path class="p" d="m1326.7 717.8l6-5.5c0.9-0.8 2.3-0.8 3.1 0.1 0.8 0.9 0.8 2.3-0.1 3.2h-0.1l-5.8 5.4v0.1c-0.9 0.8-2.3 0.8-3.2-0.1-0.8-0.9-0.8-2.4 0.1-3.2z"/><path class="p" d="m1345 701.9l6.5-4.8c0.9-0.7 2.3-0.5 3 0.4 0.7 0.9 0.5 2.3-0.4 3h-0.1l-6.3 4.8-0.1 0.1c-0.9 0.7-2.3 0.5-3-0.4-0.7-1-0.5-2.3 0.4-3.1z"/><path class="p" d="m1365 688.2l7.1-3.9c1-0.6 2.3-0.2 2.8 0.8 0.6 0.9 0.2 2.2-0.8 2.7l-0.1 0.1-6.8 3.9h-0.1c-1 0.6-2.3 0.3-2.9-0.7-0.5-1-0.2-2.3 0.8-2.9z"/><path class="p" d="m1386.8 677.5l7.6-2.8c1-0.4 2.1 0.2 2.5 1.1 0.4 1-0.1 2.1-1.1 2.5h-0.1l-7.4 2.8-0.1 0.1c-1 0.4-2.1-0.2-2.5-1.2-0.4-1 0.1-2.1 1.1-2.5q0 0 0 0z"/><path class="p" d="m1410.1 670.4l7.9-1.5c1-0.2 1.9 0.4 2.1 1.4 0.2 1-0.4 1.9-1.4 2.1h-0.1l-7.7 1.6h-0.1c-1 0.2-2-0.5-2.2-1.4-0.2-1 0.5-2 1.4-2.2q0.1 0 0.1 0z"/><path class="p" d="m1434.1 667.1c1.3-0.1 2.7-0.2 4-0.2l4.1-0.1c0.9-0.1 1.6 0.7 1.6 1.6 0.1 0.9-0.6 1.6-1.5 1.7h-0.1l-3.9 0.1c-1.4 0.1-2.7 0.2-4 0.3-1 0-1.8-0.7-1.8-1.6-0.1-1 0.6-1.7 1.6-1.8q0 0 0 0z"/><path class="p" d="m1458.3 667.2l8 0.8c0.8 0.1 1.4 0.8 1.4 1.6-0.1 0.9-0.8 1.5-1.6 1.4h-0.1l-7.9-0.7h-0.1c-0.8-0.1-1.5-0.8-1.4-1.6 0.1-0.9 0.8-1.5 1.7-1.5q0 0 0 0z"/><path class="p" d="m1482.2 670.6l7.9 1.7c0.7 0.2 1.2 0.9 1 1.7-0.2 0.7-0.9 1.1-1.6 1l-7.8-1.7h-0.1c-0.7-0.2-1.2-0.9-1-1.7 0.1-0.7 0.9-1.2 1.6-1q0 0 0 0z"/><path class="p" d="m1505.6 676.8l7.5 2.7c0.7 0.2 1 0.9 0.8 1.5-0.3 0.6-0.9 0.9-1.5 0.7l-7.6-2.6c-0.7-0.2-1-0.9-0.8-1.5 0.2-0.7 0.9-1 1.5-0.8q0 0 0.1 0z"/><path class="bl" d="m975.2 999.3c0.1-0.8 1.4-0.9 1.6-0.2q33.3 107.2-10.7 209c-1.3-73.8 1.1-144 9.1-208.8z"/><path class="bm" d="m966.2 1205.9q0 0-0.1 0c-0.3-0.1-0.5-0.4-0.4-0.7 7.8-27.6 10.7-74.7 11.9-109.3 1.2-37.6 0.5-69 0.5-69.3 0-0.3 0.3-0.6 0.6-0.6q0 0 0 0c0.3 0 0.5 0.3 0.6 0.6 0 0.3 0.6 31.7-0.6 69.3-1.1 34.7-4.1 81.9-11.9 109.6-0.1 0.3-0.3 0.4-0.6 0.4z"/><path class="bn" d="m930.2 940.6c0-0.9 1.2-1.2 1.6-0.3q51.4 126.3 24.2 251.2c-13.6-88.3-23-172.7-25.8-250.9z"/><path class="bm" d="m955.7 1188.8q0 0 0 0c-0.4 0-0.6-0.3-0.6-0.6 6.2-64.5-17.1-213.5-17.4-215 0-0.3 0.2-0.6 0.5-0.6 0.3-0.1 0.6 0.1 0.7 0.4 0.2 1.5 23.5 150.7 17.4 215.3-0.1 0.3-0.3 0.5-0.6 0.5z"/><path class="bo" d="m898.5 1018.9c-0.2-0.8 1-1.1 1.4-0.5q64.8 98 51.8 206.9c-23.3-71.9-41.8-141.2-53.2-206.4z"/><path class="bm" d="m951 1223.2c-0.3 0-0.5-0.2-0.5-0.5-0.6-28.8-11.7-75.5-20.9-109.6-10-37.1-20-67.7-20.1-68-0.1-0.3 0-0.6 0.3-0.7 0.3-0.1 0.7 0.1 0.8 0.4 0.1 0.3 10.1 30.9 20.1 68 9.2 34.2 20.3 81 20.9 109.8 0 0.4-0.2 0.6-0.6 0.6q0 0 0 0z"/><path class="bp" d="m924.9 1165.3h59.8c4 0 6.9 3.7 6 7.5-3.9 16.6-8.4 33.4-17.8 50.5-1.8 3.2-5.1 5.2-8.7 5.2h-19.5c-3.6 0-6.8-2-8.5-5.1-7.5-14-14.8-30.7-18.3-49.6-0.9-4.4 2.5-8.5 7-8.5z"/></svg>