<svg version="1.2" xmlns="http://www.w3.org/2000/svg" viewBox="0 0 1029 742" width="1029" ><defs><linearGradient id="P" gradientUnits="userSpaceOnUse"/><linearGradient id="g1" x1="111.3" y1="-1.7" x2="993.5" y2="-1.7" href="#P"><stop stop-color="#b37cff"/><stop offset="1" stop-color="#f895e7"/></linearGradient><linearGradient id="g2" x1="951.5" y1="21.5" x2="99.4" y2="21.5" href="#P"><stop stop-color="#b37cff"/><stop offset="1" stop-color="#f895e7"/></linearGradient><linearGradient id="g3" x1="1209.1" y1="259.1" x2="562.4" y2="1126.8" href="#P"><stop stop-color="#fdf53f"/><stop offset="1" stop-color="#d93c65"/></linearGradient><linearGradient id="g4" x1="1034.4" y1="703.1" x2="518.1" y2="746.6" href="#P"><stop stop-color="#53d8ff"/><stop offset="1" stop-color="#3840f7"/></linearGradient><linearGradient id="g5" x1="894.1" y1="708.6" x2="462.7" y2="734.4" href="#P"><stop stop-color="#53d8ff"/><stop offset="1" stop-color="#3840f7"/></linearGradient><linearGradient id="g6" x1="935.2" y1="693.2" x2="393.6" y2="848.2" href="#P"><stop stop-color="#fdf53f"/><stop offset="1" stop-color="#d93c65"/></linearGradient><linearGradient id="g7" x1="840.7" y1="361.2" x2="295" y2="517.2" href="#P"><stop stop-color="#fdf53f"/><stop offset="1" stop-color="#d93c65"/></linearGradient><linearGradient id="g8" x1="790.8" y1="127.8" x2="963.6" y2="128.1" href="#P"><stop stop-color="#a737d5"/><stop offset="1" stop-color="#ef497a"/></linearGradient><linearGradient id="g9" x1="784.6" y1="159.9" x2="1023" y2="150" href="#P"><stop stop-color="#53d8ff"/><stop offset="1" stop-color="#3840f7"/></linearGradient><linearGradient id="g10" x1="1262.5" y1="349.7" x2="739.5" y2="1051.5" href="#P"><stop stop-color="#fdf53f"/><stop offset="1" stop-color="#d93c65"/></linearGradient><linearGradient id="g11" x1="1120.9" y1="709" x2="703.4" y2="744.2" href="#P"><stop stop-color="#53d8ff"/><stop offset="1" stop-color="#3840f7"/></linearGradient><linearGradient id="g12" x1="1007.5" y1="713.4" x2="658.6" y2="734.3" href="#P"><stop stop-color="#53d8ff"/><stop offset="1" stop-color="#3840f7"/></linearGradient><linearGradient id="g13" x1="1040.8" y1="701" x2="602.8" y2="826.3" href="#P"><stop stop-color="#fdf53f"/><stop offset="1" stop-color="#d93c65"/></linearGradient><linearGradient id="g14" x1="964.2" y1="432.3" x2="529.1" y2="556.7" href="#P"><stop stop-color="#fdf53f"/><stop offset="1" stop-color="#d93c65"/></linearGradient><linearGradient id="g15" x1="904.2" y1="392.4" x2="1039.5" y2="522" href="#P"><stop stop-color="#a737d5"/><stop offset="1" stop-color="#ef497a"/></linearGradient><linearGradient id="g16" x1="-2.5" y1="632.3" x2="82.2" y2="430.6" href="#P"><stop stop-color="#a737d5"/><stop offset="1" stop-color="#ef497a"/></linearGradient><linearGradient id="g17" x1="49.1" y1="291" x2="227.1" y2="247.5" href="#P"><stop stop-color="#a737d5"/><stop offset="1" stop-color="#ef497a"/></linearGradient><linearGradient id="g18" x1="158.9" y1="213.3" x2="210.6" y2="147.9" href="#P"><stop stop-color="#cb236d"/><stop offset="1" stop-color="#4c246d"/></linearGradient><linearGradient id="g19" x1="809.8" y1="571.1" x2="357.2" y2="1122.3" href="#P"><stop stop-color="#53d8ff"/><stop offset="1" stop-color="#3840f7"/></linearGradient><linearGradient id="g20" x1="533.4" y1="610.5" x2="185.7" y2="1033.9" href="#P"><stop stop-color="#53d8ff"/><stop offset="1" stop-color="#3840f7"/></linearGradient><linearGradient id="g21" x1="571.4" y1="429.1" x2="56.2" y2="785.6" href="#P"><stop stop-color="#2b3582"/><stop offset="1" stop-color="#150e42"/></linearGradient><linearGradient id="g22" x1="390.1" y1="364" x2="510.6" y2="526.5" href="#P"><stop stop-color="#53d8ff"/><stop offset="1" stop-color="#3840f7"/></linearGradient><linearGradient id="g23" x1="919.1" y1="429.1" x2="403.9" y2="785.6" href="#P"><stop stop-color="#2b3582"/><stop offset="1" stop-color="#150e42"/></linearGradient><linearGradient id="g24" x1="737.8" y1="364" x2="858.3" y2="526.5" href="#P"><stop stop-color="#53d8ff"/><stop offset="1" stop-color="#3840f7"/></linearGradient><linearGradient id="g25" x1="571.4" y1="240.1" x2="56.2" y2="596.5" href="#P"><stop stop-color="#2b3582"/><stop offset="1" stop-color="#150e42"/></linearGradient><linearGradient id="g26" x1="390.1" y1="174.9" x2="510.6" y2="337.5" href="#P"><stop stop-color="#53d8ff"/><stop offset="1" stop-color="#3840f7"/></linearGradient><linearGradient id="g27" x1="919.1" y1="240.1" x2="403.9" y2="596.5" href="#P"><stop stop-color="#2b3582"/><stop offset="1" stop-color="#150e42"/></linearGradient><linearGradient id="g28" x1="737.8" y1="174.9" x2="858.3" y2="337.5" href="#P"><stop stop-color="#53d8ff"/><stop offset="1" stop-color="#3840f7"/></linearGradient><linearGradient id="g29" x1="740.8" y1="536.8" x2="225.7" y2="893.3" href="#P"><stop stop-color="#2b3582"/><stop offset="1" stop-color="#150e42"/></linearGradient><linearGradient id="g30" x1="559.6" y1="471.7" x2="680" y2="634.3" href="#P"><stop stop-color="#53d8ff"/><stop offset="1" stop-color="#3840f7"/></linearGradient><linearGradient id="g31" x1="740.8" y1="132.3" x2="225.7" y2="488.8" href="#P"><stop stop-color="#2b3582"/><stop offset="1" stop-color="#150e42"/></linearGradient><linearGradient id="g32" x1="559.6" y1="67.2" x2="680" y2="229.8" href="#P"><stop stop-color="#53d8ff"/><stop offset="1" stop-color="#3840f7"/></linearGradient><linearGradient id="g33" x1="464.3" y1="587.1" x2="160" y2="909.9" href="#P"><stop stop-color="#cb236d"/><stop offset="1" stop-color="#4c246d"/></linearGradient><linearGradient id="g34" x1="916" y1="170.6" x2="853.1" y2="265.8" href="#P"><stop stop-color="#fdf53f"/><stop offset="1" stop-color="#d93c65"/></linearGradient><linearGradient id="g35" x1="987.8" y1="222.5" x2="928.6" y2="284.9" href="#P"><stop stop-color="#fdf53f"/><stop offset="1" stop-color="#d93c65"/></linearGradient><linearGradient id="g36" x1="294.9" y1="456.4" x2="441.5" y2="286.3" href="#P"><stop stop-color="#fdf53f"/><stop offset="1" stop-color="#d93c65"/></linearGradient><linearGradient id="g37" x1="720.3" y1="310.8" x2="287" y2="965.4" href="#P"><stop stop-color="#fdf53f"/><stop offset="1" stop-color="#d93c65"/></linearGradient><linearGradient id="g38" x1="584.8" y1="327.7" x2="373.6" y2="622.5" href="#P"><stop stop-color="#fdf53f"/><stop offset="1" stop-color="#d93c65"/></linearGradient><linearGradient id="g39" x1="624.7" y1="364" x2="425.7" y2="641.6" href="#P"><stop stop-color="#fdf53f"/><stop offset="1" stop-color="#d93c65"/></linearGradient><linearGradient id="g40" x1="651.1" y1="376.5" x2="704.5" y2="496.9" href="#P"><stop stop-color="#f9b776"/><stop offset="1" stop-color="#f47960"/></linearGradient><linearGradient id="g41" x1="734.2" y1="399.9" x2="769.1" y2="460.1" href="#P"><stop stop-color="#cb236d"/><stop offset="1" stop-color="#4c246d"/></linearGradient><linearGradient id="g42" x1="656.9" y1="368.9" x2="714.8" y2="499.6" href="#P"><stop stop-color="#f9b776"/><stop offset="1" stop-color="#f47960"/></linearGradient><linearGradient id="g43" x1="780.1" y1="715.5" x2="797.3" y2="715.5" href="#P"><stop stop-color="#53d8ff"/><stop offset="1" stop-color="#3840f7"/></linearGradient><linearGradient id="g44" x1="691.1" y1="793.1" x2="716.5" y2="496.7" href="#P"><stop stop-color="#f9b776"/><stop offset="1" stop-color="#f47960"/></linearGradient><linearGradient id="g45" x1="717.3" y1="708.8" x2="744.7" y2="708.8" href="#P"><stop stop-color="#53d8ff"/><stop offset="1" stop-color="#3840f7"/></linearGradient><linearGradient id="g46" x1="723.8" y1="793.2" x2="748.2" y2="508.4" href="#P"><stop stop-color="#f9b776"/><stop offset="1" stop-color="#f47960"/></linearGradient><linearGradient id="g47" x1="756.3" y1="479.3" x2="649.1" y2="641.5" href="#P"><stop stop-color="#fdf53f"/><stop offset="1" stop-color="#d93c65"/></linearGradient><linearGradient id="g48" x1="768.7" y1="612.5" x2="634.7" y2="793.3" href="#P"><stop stop-color="#fdf53f"/><stop offset="1" stop-color="#d93c65"/></linearGradient><linearGradient id="g49" x1="690" y1="498.9" x2="694.6" y2="465.2" href="#P"><stop stop-color="#f9b776"/><stop offset="1" stop-color="#f47960"/></linearGradient><linearGradient id="g50" x1="679.6" y1="448.9" x2="716.8" y2="382.8" href="#P"><stop stop-color="#f9b776"/><stop offset="1" stop-color="#f47960"/></linearGradient><linearGradient id="g51" x1="720.1" y1="408.1" x2="753.2" y2="465.1" href="#P"><stop stop-color="#cb236d"/><stop offset="1" stop-color="#4c246d"/></linearGradient><linearGradient id="g52" x1="697" y1="455.5" x2="730.6" y2="395.6" href="#P"><stop stop-color="#f9b776"/><stop offset="1" stop-color="#f47960"/></linearGradient><linearGradient id="g53" x1="729.6" y1="422.8" x2="725.2" y2="532.6" href="#P"><stop stop-color="#f9b776"/><stop offset="1" stop-color="#f47960"/></linearGradient><linearGradient id="g54" x1="633.7" y1="420.9" x2="629.8" y2="516.7" href="#P"><stop stop-color="#f9b776"/><stop offset="1" stop-color="#f47960"/></linearGradient><linearGradient id="g55" x1="149.9" y1="638.9" x2="181.9" y2="638.9" href="#P"><stop stop-color="#53d8ff"/><stop offset="1" stop-color="#3840f7"/></linearGradient><linearGradient id="g56" x1="149.9" y1="627.6" x2="181.2" y2="627.6" href="#P"><stop stop-color="#2b3582"/><stop offset="1" stop-color="#150e42"/></linearGradient><linearGradient id="g57" x1="152.9" y1="619.6" x2="161.9" y2="619.6" href="#P"><stop stop-color="#f9b776"/><stop offset="1" stop-color="#f47960"/></linearGradient><linearGradient id="g58" x1="85.9" y1="637.3" x2="98" y2="637.3" href="#P"><stop stop-color="#53d8ff"/><stop offset="1" stop-color="#3840f7"/></linearGradient><linearGradient id="g59" x1="85.7" y1="619.6" x2="103.1" y2="619.6" href="#P"><stop stop-color="#2b3582"/><stop offset="1" stop-color="#150e42"/></linearGradient><linearGradient id="g60" x1="95.3" y1="611.2" x2="106" y2="611.2" href="#P"><stop stop-color="#f9b776"/><stop offset="1" stop-color="#f47960"/></linearGradient><linearGradient id="g61" x1="60.8" y1="599.9" x2="218.1" y2="382.4" href="#P"><stop stop-color="#fdf53f"/><stop offset=".7" stop-color="#e57a58"/><stop offset="1" stop-color="#d93c65"/></linearGradient><linearGradient id="g62" x1="251.9" y1="419.9" x2="78" y2="628.3" href="#P"><stop stop-color="#53d8ff"/><stop offset="1" stop-color="#3840f7"/></linearGradient><linearGradient id="g63" x1="126.8" y1="576" x2="131.9" y2="565.7" href="#P"><stop stop-color="#fdf53f"/><stop offset=".7" stop-color="#e57a58"/><stop offset="1" stop-color="#d93c65"/></linearGradient><linearGradient id="g64" x1="156.9" y1="474.9" x2="118.3" y2="509.1" href="#P"><stop stop-color="#f9b776"/><stop offset="1" stop-color="#f47960"/></linearGradient><linearGradient id="g65" x1="198.3" y1="393.5" x2="44.8" y2="577.5" href="#P"><stop stop-color="#53d8ff"/><stop offset="1" stop-color="#3840f7"/></linearGradient><linearGradient id="g66" x1="258.2" y1="425.8" x2="83.7" y2="634.8" href="#P"><stop stop-color="#53d8ff"/><stop offset="1" stop-color="#3840f7"/></linearGradient><linearGradient id="g67" x1="217.3" y1="453.3" x2="247.7" y2="453.3" href="#P"><stop stop-color="#f9b776"/><stop offset="1" stop-color="#f47960"/></linearGradient><linearGradient id="g68" x1="200.9" y1="383.3" x2="200.5" y2="439" href="#P"><stop stop-color="#f9b776"/><stop offset="1" stop-color="#f47960"/></linearGradient><linearGradient id="g69" x1="104.8" y1="446.7" x2="262.5" y2="446.7" href="#P"><stop stop-color="#2b3582"/><stop offset="1" stop-color="#150e42"/></linearGradient><linearGradient id="g70" x1="245.5" y1="334.3" x2="408.2" y2="334.3" href="#P"><stop stop-color="#2b3582"/><stop offset="1" stop-color="#150e42"/></linearGradient><linearGradient id="g71" x1="165.2" y1="486.9" x2="131.3" y2="517" href="#P"><stop stop-color="#f9b776"/><stop offset="1" stop-color="#f47960"/></linearGradient><linearGradient id="g72" x1="247.1" y1="453.8" x2="255.2" y2="453.8" href="#P"><stop stop-color="#f9b776"/><stop offset="1" stop-color="#f47960"/></linearGradient><linearGradient id="g73" x1="210.8" y1="392.4" x2="185.6" y2="411.7" href="#P"><stop stop-color="#f9b776"/><stop offset="1" stop-color="#f47960"/></linearGradient><linearGradient id="g74" x1="198.4" y1="347.5" x2="222.9" y2="379.1" href="#P"><stop stop-color="#2b3582"/><stop offset="1" stop-color="#150e42"/></linearGradient><linearGradient id="g75" x1="198" y1="381.2" x2="177.7" y2="396.6" href="#P"><stop stop-color="#f9b776"/><stop offset="1" stop-color="#f47960"/></linearGradient></defs><style>.a{opacity:.5;fill:url(#g1)}.b{opacity:.3;fill:url(#g2)}.c{fill:url(#g3)}.d{fill:url(#g4)}.e{fill:url(#g5)}.f{fill:url(#g6)}.g{fill:url(#g7)}.h{fill:url(#g8)}.i{opacity:.9;fill:#fff}.j{fill:url(#g9)}.k{fill:url(#g10)}.l{fill:url(#g11)}.m{fill:url(#g12)}.n{fill:url(#g13)}.o{fill:url(#g14)}.p{fill:url(#g15)}.q{opacity:.6;fill:#fff}.r{fill:url(#g16)}.s{opacity:.7;fill:#fff}.t{fill:url(#g17)}.u{fill:url(#g18)}.v{fill:url(#g19)}.w{fill:#fff}.x{fill:url(#g20)}.y{fill:url(#g21)}.z{opacity:.6;fill:url(#g22)}.A{fill:url(#g23)}.B{opacity:.6;fill:url(#g24)}.C{fill:url(#g25)}.D{opacity:.6;fill:url(#g26)}.E{fill:url(#g27)}.F{opacity:.6;fill:url(#g28)}.G{fill:url(#g29)}.H{opacity:.6;fill:url(#g30)}.I{fill:url(#g31)}.J{opacity:.6;fill:url(#g32)}.K{fill:url(#g33)}.L{opacity:.5;fill:#fff}.M{fill:url(#g34)}.N{fill:url(#g35)}.O{fill:url(#g36)}.P{fill:url(#g37)}.Q{opacity:.8;fill:#fff}.R{fill:url(#g38)}.S{fill:url(#g39)}.T{fill:url(#g40)}.U{fill:url(#g41)}.V{fill:url(#g42)}.W{fill:url(#g43)}.X{fill:url(#g44)}.Y{fill:url(#g45)}.Z{fill:url(#g46)}.a0{fill:url(#g47)}.a1{fill:url(#g48)}.a2{fill:url(#g49)}.a3{fill:url(#g50)}.a4{fill:url(#g51)}.a5{fill:url(#g52)}.a6{fill:url(#g53)}.a7{fill:url(#g54)}.a8{fill:url(#g55)}.a9{fill:url(#g56)}.aa{fill:url(#g57)}.ab{fill:url(#g58)}.ac{fill:url(#g59)}.ad{fill:url(#g60)}.ae{fill:url(#g61)}.af{fill:url(#g62)}.ag{fill:url(#g63)}.ah{fill:url(#g64)}.ai{fill:url(#g65)}.aj{fill:url(#g66)}.ak{fill:url(#g67)}.al{fill:url(#g68)}.am{fill:url(#g69)}.an{fill:url(#g70)}.ao{fill:url(#g71)}.ap{fill:url(#g72)}.aq{fill:url(#g73)}.ar{fill:url(#g74)}.as{fill:url(#g75)}</style><path class="a" d="m446.1 114.9c20.7 57.6 138.8 172.6 327.5 18.6 188.7-154 274.4 45.2 219.6 117.2-54.8 72.1-24.3 70.6 23.7 183.4 48 112.8-93.2 207.8-228.2 146.7-135.1-61.1-123.3-44.8-287.5 45.5-164.1 90.3-170.5-4.2-400.4-146.9-230-142.6-1.6-214.5 53.5-251.4 55.2-36.9-51.3-121.3 28.3-187.1 125.9-104 242.7 16.4 263.5 74z"/><path class="b" d="m711.8 68.8c54.5 63.2 243.5-7.1 241.5 109.6-2.3 136.6-188.1 176.8-127.9 272.7 60.1 96-6.3 203.6-248 201.6-241.6-2-630.4-122.5-536.7-253.3 93.6-130.9 31.2-137.6 26.7-195.4-4.6-57.9 42.8-184.7 229.9-78.9 187.2 105.8 276.7-216.5 414.5-56.3z"/><path class="c" d="m826.6 184.2l21.2 1.1c10.5 0.6 18.7 9.2 18.6 19.7l-2.1 502.3c-0.1 11.4-9.4 20.6-20.9 20.5l-145.3-1.6z"/><path class="d" d="m572.9 187.3l268.1-15.8c5.5-0.3 10.2 4.2 10 9.7l-11.1 517.6c-0.2 11.1-9.4 19.8-20.5 19.5l-188.6-5.6z"/><path class="e" d="m587.3 198l235.6-32.5c6.1-0.9 11.4 3.9 11.4 10l-6 522c-0.1 7.3-6 13.4-13.3 13.6l-173.5 6.9z"/><path class="f" d="m525 172.7l258.5-18.8c12.9-0.9 23.9 9.2 24 22.1l5.6 533c0.1 10.8-8.6 19.6-19.4 19.7l-238.4 2.5c-11.3 0.2-20.7-8.5-21.4-19.8l-32.9-511.1c-0.9-14.2 9.8-26.5 24-27.6z"/><path class="g" d="m820.1 363.4l-21.2 0.3c-5.3 0-9.6-4.2-9.6-9.4l-1.5-140c0-5.3 4.2-9.6 9.4-9.7l21.2-0.2c5.3 0 9.6 4.2 9.6 9.4l1.5 140c0 5.3-4.2 9.6-9.4 9.6z"/><g style="opacity:.9"><path class="h" d="m963.9 134.2q-62.7 279.8-190.6 288.6c-23.4-213.5 156-282.3 187.2-292.6 2-0.7 3.9 1.6 3.4 4z"/><path class="i" d="m941.4 162q-12.4 11.8-30.3 30.3c-4.5 4.6-9.3 9.7-14.3 15-5.1 5.4-10.3 11.1-15.7 17.1-5.5 5.9-11 12.1-16.5 18.5-5.6 6.3-11.2 12.8-16.6 19.4q-4.2 4.9-8.2 9.9c-2.7 3.3-5.4 6.6-8 9.9-5.2 6.6-10.3 13.2-15.1 19.6-2.4 3.2-4.7 6.4-7 9.5-2.2 3.2-4.4 6.3-6.5 9.3-2.1 3-4 6-6 8.9-1.9 2.8-3.7 5.7-5.4 8.3-1.8 2.7-3.3 5.4-4.9 7.9-0.7 1.2-1.5 2.4-2.2 3.6q-1 1.8-2 3.5c-2.6 4.5-4.7 8.5-6.4 11.8-0.9 1.6-1.7 3.1-2.3 4.4q-1 2-1.6 3.3-0.9 1.8-1.4 2.8c-0.5 1-1.7 1.4-2.7 1-1-0.5-1.4-1.7-0.9-2.7q0.5-1 1.4-2.8 0.7-1.4 1.7-3.3c0.6-1.4 1.4-2.9 2.3-4.5 1.8-3.3 4-7.4 6.7-11.9q1-1.7 2-3.5c0.7-1.2 1.5-2.4 2.3-3.7 1.5-2.5 3.1-5.1 4.9-7.8 1.8-2.7 3.6-5.5 5.6-8.4 1.9-2.9 3.9-5.9 6.1-8.9 2.1-3 4.3-6.1 6.6-9.2 2.3-3.1 4.7-6.4 7.1-9.6 4.9-6.4 10-12.9 15.3-19.5 2.7-3.3 5.4-6.6 8.1-9.9q4.1-4.9 8.3-9.8c5.5-6.6 11.2-13.1 16.8-19.4 5.6-6.3 11.2-12.5 16.7-18.4 5.4-5.9 10.8-11.6 15.9-16.9 5-5.3 9.9-10.3 14.4-14.9q18.1-18.4 30.6-30.2c0.3-0.3 0.9-0.3 1.2 0.1 0.3 0.3 0.3 0.9 0 1.2z"/></g><g style="opacity:.9"><path class="j" d="m1023.6 156.1q-75.2 336.6-257.1 354.8c-44.4-252.6 208.1-345.2 252.1-359.3 2.9-1 5.7 1.6 5 4.5z"/><path class="i" d="m992.6 190.4q-16.7 14.5-40.9 37.2c-6.1 5.7-12.6 11.9-19.4 18.4-6.8 6.6-14 13.6-21.4 21-7.3 7.3-14.8 14.9-22.4 22.7q-5.6 5.9-11.4 11.9c-3.7 4-7.5 8-11.3 12-3.7 4.1-7.5 8.1-11.1 12.3-3.7 4-7.4 8.1-11 12.2q-2.6 3.1-5.3 6.1-2.6 3.1-5.2 6.1c-3.5 4.1-6.9 8.1-10.2 12.1-6.6 8-12.8 15.8-18.5 23.3-5.8 7.6-11.1 14.8-15.9 21.6-2.4 3.3-4.6 6.6-6.7 9.7q-1.5 2.4-3 4.6c-1 1.5-1.9 3-2.8 4.4-1.8 2.9-3.5 5.5-5 8q-2.1 3.7-4 6.9-0.9 1.5-1.7 2.9-0.7 1.4-1.4 2.7-1.3 2.4-2.2 4.2-1.2 2.2-1.9 3.4v0.1c-0.5 1-1.7 1.4-2.7 0.8-1-0.5-1.4-1.7-0.8-2.7q0.6-1.2 1.9-3.5 0.9-1.7 2.3-4.2 0.6-1.3 1.4-2.7 0.8-1.4 1.8-3 1.8-3.1 4.1-6.9c1.5-2.5 3.2-5.2 5-8 0.9-1.5 1.9-2.9 2.9-4.4q1.5-2.3 3.1-4.6c2.1-3.2 4.3-6.5 6.8-9.8 4.8-6.8 10.2-14.1 16-21.6 5.9-7.5 12.1-15.3 18.8-23.3 3.4-4 6.7-8 10.3-12q2.6-3.1 5.2-6.1 2.7-3.1 5.5-6.1c3.6-4.1 7.3-8.2 11-12.2 3.7-4.1 7.5-8.1 11.3-12.2 3.7-4.1 7.6-8 11.4-12q5.7-6 11.4-11.8c7.7-7.8 15.2-15.4 22.6-22.7 7.4-7.3 14.7-14.2 21.5-20.8 6.9-6.5 13.5-12.7 19.6-18.3q24.3-22.6 41.2-36.9c0.3-0.3 0.9-0.3 1.2 0 0.3 0.4 0.2 0.9-0.1 1.2z"/></g><path class="k" d="m952.9 289l17.1 0.9c8.5 0.4 15.1 7.4 15.1 15.9l-1.8 406.1c0 9.3-7.6 16.7-16.8 16.6l-117.5-1.2z"/><path class="l" d="m747.7 291.5l216.8-12.8c4.5-0.3 8.2 3.4 8.1 7.8l-9 418.6c-0.2 9-7.6 16-16.5 15.8l-152.6-4.6z"/><path class="m" d="m759.3 300.1l190.6-26.3c4.9-0.7 9.2 3.2 9.2 8.1l-4.9 422.1c-0.1 6-4.8 10.8-10.7 11.1l-140.3 5.6z"/><path class="n" d="m709 279.7l209-15.2c10.4-0.8 19.3 7.4 19.4 17.8l4.6 431c0 8.8-7 15.9-15.7 16l-192.9 2c-9.1 0.1-16.7-6.9-17.2-16l-26.6-413.4c-0.8-11.5 7.9-21.4 19.4-22.2z"/><path class="o" d="m945.8 433.9l-13.5 0.2c-5.3 0-9.6-4.2-9.6-9.5l-1.2-109.5c0-5.3 4.2-9.6 9.4-9.6l13.5-0.2c5.3 0 9.6 4.2 9.6 9.4l1.2 109.6c0 5.3-4.2 9.6-9.4 9.6z"/><path class="p" d="m777 503.7l235 5.1c9.2 0.2 16.4 5.1 16.4 11.1v73.1c0 6.2-7.6 11.2-16.9 11.2h-233.1c-9.2 0-16.7-4.9-16.9-11l-2-78.1c-0.2-6.4 7.8-11.6 17.5-11.4z"/><path class="q" d="m786.9 517.3l217.3 7.1c4.2 0.2 7.4 2.4 7.4 5.1v62.4c0 2.7-3.4 5-7.6 5.1l-212.3 2.4c-4.2 0.1-7.7-2.1-7.8-4.8l-5.1-71.9c-0.2-3 3.6-5.5 8.1-5.4z"/><path class="q" d="m800.8 526.2l183.1 3.2c2.7 0 4.8 1.5 4.8 3.2 0 1.8-2.2 3.3-4.9 3.3l-183 2c-2.8 0-5.1-1.5-5.1-3.3v-5.2c0-1.8 2.3-3.3 5.1-3.2z"/><path class="q" d="m803.4 545.7l174.3-0.7c2.8 0 5 1.4 5 3.2v1.5c0 1.8-2.1 3.2-4.7 3.3l-174.4 4c-2.8 0.1-5.1-1.4-5.1-3.3v-4.7c0-1.8 2.2-3.3 4.9-3.3z"/><g style="opacity:.9"><path class="r" d="m171.8 682.2c-103.6 0.9-124.4-116.9-128.3-152.3-0.4-3.3 3.6-5.2 6-2.9 51.9 50.8 64.8 5.3 157 30.6q96.1 26.3 120.3 182.1-35.2-58.5-155-57.5z"/><path class="s" d="m66.8 559.8q0.1 0.2 0.4 0.7c0.4 0.5 0.8 1.2 1.5 2.1 1.2 1.9 3.3 4.4 6.2 7.5 0.7 0.8 1.5 1.6 2.3 2.4 0.9 0.8 1.7 1.7 2.6 2.5 2 1.7 3.9 3.6 6.3 5.3q1.8 1.3 3.6 2.8c1.3 0.9 2.6 1.7 4 2.7q1 0.7 2.1 1.4c0.7 0.4 1.4 0.9 2.1 1.3q2.3 1.3 4.6 2.7 1.2 0.7 2.4 1.4c0.8 0.4 1.7 0.8 2.5 1.2q2.5 1.3 5.1 2.6c0.9 0.4 1.8 0.9 2.7 1.3q1.4 0.5 2.8 1.1 2.8 1.2 5.6 2.4l1.5 0.6q0.7 0.2 1.5 0.5 1.4 0.5 3 1 3 1 6.1 2.1l1.5 0.5 1.6 0.4q1.6 0.5 3.2 0.9 3.2 0.9 6.5 1.8c2.1 0.6 4.4 1 6.7 1.5q3.3 0.7 6.7 1.4c1.2 0.2 2.3 0.5 3.5 0.7q1.7 0.2 3.5 0.5 3.5 0.5 7 1c2.4 0.3 4.7 0.7 7.1 1q3.6 0.5 7.2 1 3.6 0.6 7.2 1.2l7.3 1.4c9.6 2 19 4.7 28.1 8.1 9.1 3.4 17.8 7.6 25.7 12.4 4 2.4 7.7 5 11.3 7.6 3.6 2.7 7 5.5 10.1 8.4 6.3 5.7 11.8 11.7 16.4 17.5 4.6 5.8 8.5 11.4 11.8 16.4 3.2 5 5.9 9.5 8.1 13.2q4.3 7.3 6.8 11.5c0.9 1.7 0.4 3.8-1.3 4.7-1.6 1-3.7 0.5-4.7-1.2q0 0 0 0v-0.1q-2.4-4.2-6.6-11.6c-2.1-3.6-4.6-8.1-7.8-13-3.1-5-6.7-10.5-11.1-16.1-4.3-5.7-9.5-11.5-15.4-17.1-3-2.9-6.2-5.6-9.6-8.2-3.4-2.6-6.9-5.2-10.7-7.6-7.6-4.7-15.9-8.9-24.7-12.4-8.8-3.4-18-6.2-27.4-8.4l-7-1.5q-3.6-0.6-7.1-1.3-3.6-0.5-7.1-1.1c-2.4-0.3-4.8-0.7-7.2-1.1q-3.5-0.6-7-1.2-1.8-0.2-3.6-0.5c-1.1-0.3-2.3-0.5-3.4-0.8q-3.5-0.8-6.9-1.5c-2.3-0.6-4.5-1-6.7-1.7q-3.3-0.9-6.6-1.9-1.6-0.5-3.2-0.9l-1.6-0.5-1.6-0.6q-3.1-1.1-6.1-2.2-1.6-0.5-3.1-1.1-0.7-0.2-1.5-0.5l-1.4-0.6q-2.9-1.3-5.7-2.5-1.4-0.6-2.8-1.3c-0.9-0.3-1.8-0.8-2.7-1.3q-2.6-1.3-5.2-2.7c-0.8-0.4-1.7-0.8-2.5-1.3q-1.2-0.7-2.4-1.4-2.3-1.5-4.6-2.8c-0.7-0.4-1.4-1-2.2-1.4q-1-0.8-2-1.5c-1.4-1-2.8-1.9-4-2.8q-1.9-1.5-3.6-2.9c-2.4-1.8-4.4-3.8-6.4-5.5-0.9-0.8-1.7-1.8-2.6-2.6-0.8-0.9-1.6-1.7-2.3-2.5-2.9-3.2-5-5.8-6.3-7.8-0.6-0.9-1.1-1.7-1.4-2.2q-0.3-0.5-0.5-0.8c-0.2-0.4 0-0.9 0.4-1.1 0.3-0.2 0.8 0 1 0.4z"/></g><g style="opacity:.9"><path class="t" d="m332 695.8l-10.7-3.2c-13.1-74.1-59.1-204.7-140.8-223.4-55.4-12.7-80.5-35.7-91.2-95.5-7.1-39.8-26.8-63.8-39.1-75.3-2.5-2.4-0.3-6.5 3.1-5.8 33.7 7.5 122.7 32.3 175.6 93.3q66.3 76.4 103.1 309.9z"/><path class="s" d="m111.7 329.8q0.1 0.1 0.3 0.1 0.3 0.1 0.9 0.3 0.6 0.2 1.5 0.4 0.8 0.3 1.9 0.7c1.5 0.5 3.2 1.3 5.3 2.1 1 0.4 2.1 1 3.3 1.5 1.1 0.5 2.4 1.1 3.7 1.7 2.5 1.4 5.4 2.8 8.3 4.6q2.3 1.3 4.7 2.7 2.3 1.5 4.9 3.1c6.7 4.3 13.9 9.8 21.5 16 0.9 0.7 1.8 1.5 2.8 2.4q1.4 1.2 2.8 2.5 2.9 2.5 5.9 5.1c3.7 3.7 7.7 7.5 11.6 11.5q2.9 3.1 5.9 6.2 1.4 1.6 2.9 3.2c1 1.1 2 2.1 3 3.3q2.8 3.3 5.8 6.8 1.4 1.7 2.9 3.4c1 1.2 2 2.3 2.9 3.5q5.6 7.3 11.4 14.8 5.4 7.7 11 15.6c0.5 0.7 0.9 1.2 1.4 2l1.3 2q1.3 2.1 2.6 4.1 2.6 4.1 5.2 8.2l2.6 4.1c0.8 1.4 1.6 2.8 2.4 4.2q2.4 4.3 4.9 8.5l2.4 4.3c0.8 1.4 1.6 2.8 2.4 4.3q2.2 4.3 4.5 8.6 2.2 4.4 4.4 8.7c1.4 2.9 2.8 5.8 4.2 8.7 2.7 5.8 5.5 11.5 7.9 17.4q1.9 4.3 3.7 8.6 0.9 2.1 1.8 4.2 0.9 2.2 1.7 4.3c2.3 5.7 4.6 11.2 6.6 16.8q3.1 8.2 5.9 16.1 2.7 8 5.3 15.5c1.6 5 3.1 9.9 4.6 14.5 2.9 9.4 5.4 18 7.4 25.7 1.1 3.8 2 7.4 2.9 10.7q1.3 5 2.2 9.2c1.4 5.5 2.4 9.9 3 12.9q0.6 3 1 4.7c0.4 1.8-0.8 3.7-2.7 4.1-1.9 0.3-3.7-0.9-4.1-2.7v-0.1-0.1q-0.3-1.5-0.9-4.5c-0.6-2.9-1.6-7.3-2.8-12.8q-1-4.1-2.2-9.1c-0.8-3.3-1.7-6.8-2.7-10.7-2-7.6-4.4-16.1-7.2-25.4-1.4-4.7-2.8-9.5-4.4-14.5q-2.5-7.4-5.1-15.4-2.8-7.8-5.7-16.1c-2-5.5-4.2-11-6.4-16.7q-0.8-2.1-1.7-4.2-0.9-2.1-1.7-4.2-1.8-4.3-3.7-8.6c-2.3-5.8-5-11.5-7.7-17.3-1.3-2.9-2.6-5.8-4-8.7q-2.2-4.3-4.3-8.6-2.2-4.3-4.4-8.6c-0.7-1.4-1.5-2.8-2.3-4.2l-2.3-4.3q-2.4-4.2-4.8-8.4c-0.8-1.4-1.5-2.8-2.3-4.2l-2.6-4.1q-2.6-4.1-5.1-8.2-1.3-2.1-2.6-4.1l-1.2-2.1-1.4-1.9q-5.4-7.8-10.7-15.5-5.7-7.5-11.2-14.7c-0.8-1.2-1.9-2.4-2.8-3.5q-1.4-1.7-2.9-3.5-2.8-3.4-5.6-6.7c-0.9-1.2-1.9-2.2-2.9-3.3q-1.5-1.6-2.9-3.1-2.9-3.2-5.7-6.3c-3.9-3.9-7.8-7.7-11.5-11.4q-2.9-2.6-5.7-5.1-1.4-1.3-2.7-2.5c-1-0.8-1.9-1.6-2.8-2.4-7.4-6.2-14.5-11.6-21-15.9q-2.5-1.6-4.8-3.1-2.3-1.4-4.5-2.7c-2.9-1.8-5.7-3.2-8.2-4.5-1.2-0.7-2.4-1.2-3.5-1.7-1.2-0.6-2.2-1.1-3.2-1.5-2-0.8-3.7-1.6-5.1-2.1q-1.1-0.4-1.9-0.6-0.8-0.3-1.3-0.5-0.5-0.1-0.8-0.2-0.2-0.1-0.3-0.1c-0.9-0.2-1.4-1.1-1.2-2 0.3-0.9 1.2-1.4 2-1.2z"/></g><g style="opacity:.9"><path class="u" d="m338.6 684.3c-0.6 2.2-3.8 1.9-4.1-0.4-4.6-40.4-27.4-216.9-80.6-298.7-59.6-91.7-152.4-175.5-1.2-283.2 1.8-1.3 4.4 0.3 4 2.6-2.2 12.7-3.8 43.1 20 73.7 31.4 40.3 50 117.5 14.2 208.1q66.1 232.8 47.7 297.9z"/><path class="s" d="m237.8 136.1q-0.2 0.2-0.6 0.5c-0.4 0.3-0.9 0.9-1.6 1.6-1.4 1.4-3.4 3.5-5.7 6.4-2.3 2.9-4.8 6.7-7.4 11.1-1.3 2.3-2.5 4.7-3.8 7.3-1.1 2.7-2.4 5.4-3.5 8.4q-0.4 1.2-0.8 2.3c-0.3 0.8-0.5 1.5-0.8 2.3-0.4 1.6-1 3.2-1.4 4.9q-0.7 2.5-1.3 5c-0.2 0.9-0.4 1.8-0.6 2.6q-0.2 1.4-0.5 2.7-0.2 1.3-0.5 2.7c-0.1 0.9-0.2 1.8-0.3 2.8-0.3 1.8-0.5 3.7-0.8 5.6-0.2 3.8-0.6 7.7-0.5 11.7-0.3 7.9 0.5 16.1 1.4 24.4q0.5 3.1 1 6.2c0.4 2.1 0.7 4.2 1.2 6.2q0.6 3.1 1.3 6.3c0.3 1 0.4 2 0.7 3.1l0.9 3c1.1 4.1 2.1 8.2 3.6 12.2 1.3 4.1 2.5 8.1 4.1 12 2.9 7.8 6.3 15.4 9.5 22.6q2.7 5.4 5.2 10.6c0.5 0.8 0.9 1.7 1.3 2.5q0.7 1.3 1.4 2.5 1.3 2.5 2.6 4.9c3.4 6.5 7.1 12.4 10.3 17.9q1.3 2 2.5 4 1.2 1.9 2.4 3.8 2.4 3.6 4.5 6.9c2.8 4.4 5.4 8.1 7.5 11.1q4.3 6.1 6.8 9.6v0.1c1.1 1.6 0.8 3.8-0.8 4.9-1.6 1.1-3.7 0.7-4.8-0.9q-0.1 0-0.1 0-2.4-3.6-6.6-9.9c-2.1-3.1-4.7-6.9-7.4-11.4q-2.1-3.3-4.5-7.1-1.1-1.9-2.4-3.8-1.1-2.1-2.3-4.2c-3.3-5.6-6.9-11.6-10.2-18.3q-1.3-2.4-2.6-5-0.7-1.2-1.3-2.5c-0.5-0.9-0.8-1.8-1.3-2.6q-2.5-5.3-5-10.8c-3.2-7.5-6.5-15.2-9.3-23.2-1.6-4-2.8-8.1-4-12.3-1.4-4.1-2.4-8.3-3.5-12.5l-0.8-3.1c-0.3-1.1-0.4-2.1-0.7-3.2q-0.6-3.2-1.2-6.3c-0.5-2.2-0.8-4.3-1.1-6.4q-0.4-3.2-0.9-6.4c-0.8-8.5-1.4-16.9-1-25 0-4.1 0.5-8.1 0.8-12 0.2-1.9 0.5-3.8 0.8-5.7 0.2-1 0.3-1.9 0.4-2.8q0.3-1.4 0.6-2.8 0.3-1.4 0.6-2.7c0.2-0.9 0.3-1.8 0.6-2.7q0.7-2.6 1.4-5.2c0.5-1.6 1.1-3.3 1.6-4.9 0.3-0.8 0.5-1.6 0.8-2.4q0.5-1.1 0.9-2.3c1.1-3 2.5-5.8 3.7-8.5 1.4-2.7 2.7-5.2 4.1-7.4 2.7-4.6 5.3-8.3 7.8-11.3 2.4-2.9 4.4-5.1 5.9-6.5q1.1-1.1 1.7-1.6 0.4-0.4 0.6-0.6c0.5-0.3 1.1-0.3 1.5 0.2 0.4 0.4 0.3 1-0.1 1.4z"/></g><path class="v" d="m658.7 739.7h-275.9c-8.7 0-15.9-7.1-15.9-15.9v-266.4c0-8.8 7.1-15.9 15.9-15.9l278.1-0.8c8.8 0 16 7.2 16 16.1l-2.2 267.1c-0.1 8.7-7.2 15.8-16 15.8z"/><path class="q" d="m661.5 477.5l-5.3 229.9c-0.1 9-7.5 16.1-16.5 16l-239.6-4.4c-8.8-0.2-15.9-7.3-15.9-16.1l-1.7-224c-0.1-8.9 7.1-16.2 16-16.3l246.7-1.5c9.1 0 16.4 7.4 16.3 16.4z"/><rect class="q" x="435.4" y="477.1" width="199.7" height="11.4" rx="4.8"></rect><path class="q" d="m614 503.3c-0.2 2.5-2.2 4.5-4.8 4.6l-166.2 3c-2.7 0-4.9-2.1-4.9-4.8v-0.4c0-2.7 2.1-4.8 4.7-4.9l166.3-2.6c2.8 0 5 2.3 4.9 5.1z"/><path fill-rule="evenodd" class="w" d="m630.9 710.4q0 0-0.1 0l-224.8-2.7c-3.7 0-7-1.5-9.6-4.1-2.5-2.6-3.8-6-3.8-9.6l5.8-158.2c0.1-3.6 1.6-6.9 4.1-9.4 2.6-2.5 6-3.9 9.7-3.8l224.4 4.4c7.4 0.1 13.3 6.3 13.2 13.7q0 0 0 0l-5.4 156.5c-0.1 7.3-6.1 13.2-13.5 13.2zm-219-183.8c-2.5 0-4.8 0.9-6.6 2.6-1.8 1.8-2.8 4.2-2.9 6.7l-5.8 158.2c0 2.5 0.9 4.9 2.7 6.7 1.8 1.9 4.2 2.9 6.7 2.9l224.8 2.7q0.1 0 0.1 0c5.2 0 9.4-4.1 9.5-9.3l5.4-156.5c0.1-5.2-4.1-9.5-9.3-9.6l-224.4-4.4q-0.1 0-0.2 0z"/><path class="w" d="m644.9 557.1h-244.8c-1.2 0-2-0.9-2-2 0-1.1 0.8-2 2-2h244.8c1.1 0 2 0.9 2 2 0 1.1-0.9 2-2 2z"/><path class="x" d="m417 739.7h-212c-6.7 0-12.2-5.5-12.2-12.2v-204.7c0-6.7 5.4-12.2 12.2-12.2l213.6-0.6c6.8 0 12.3 5.5 12.3 12.3l-1.7 205.2c0 6.8-5.5 12.2-12.2 12.2z"/><path class="q" d="m419.1 538.3l-4.1 176.6c-0.1 6.9-5.8 12.4-12.6 12.3l-184.2-3.4c-6.7-0.1-12.1-5.6-12.2-12.3l-1.3-172.2c0-6.8 5.5-12.4 12.4-12.4l189.5-1.2c6.9 0 12.6 5.6 12.5 12.6z"/><rect class="q" x="245.4" y="537.9" width="153.4" height="8.7" rx="3.7"></rect><path class="q" d="m382.6 558.1c-0.1 1.9-1.7 3.5-3.7 3.5l-127.7 2.3c-2 0.1-3.8-1.6-3.8-3.7v-0.3c0-2 1.7-3.7 3.7-3.7l127.7-2c2.2-0.1 3.9 1.7 3.8 3.9z"/><path fill-rule="evenodd" class="w" d="m395.6 717.7q-0.1 0-0.1 0l-172.7-2.1c-3 0-5.7-1.2-7.7-3.3-2-2.1-3.1-4.8-3-7.7l4.4-121.6c0.1-2.8 1.2-5.5 3.3-7.5 2.1-2 4.9-3.1 7.7-3.1l172.5 3.4c5.9 0.1 10.7 5.1 10.6 11q0 0 0 0.1l-4.2 120.2c-0.1 5.8-4.9 10.6-10.8 10.6zm-168.3-141.3c-1.7 0-3.4 0.7-4.7 2-1.3 1.2-2.1 2.9-2.1 4.7l-4.4 121.6c-0.1 1.8 0.6 3.5 1.9 4.8 1.3 1.3 3 2.1 4.8 2.1l172.7 2.1q0.1 0 0.1 0c3.7 0 6.8-3 6.8-6.7l4.2-120.3c0-3.7-3-6.8-6.7-6.9l-172.4-3.4q-0.1 0-0.2 0z"/><path class="w" d="m406.3 599.9h-188.1c-1.1 0-2-0.9-2-2 0-1.1 0.9-2 2-2h188.1c1.1 0 2 0.9 2 2 0 1.1-0.9 2-2 2z"/><circle class="y" cx="368.7" cy="461.6" r="76.2"/><path class="w" d="m298.5 458.9q0 0 0 0c-0.6 0-1-0.5-1-1.1 0.2-3 0.5-6 1.1-8.9 0.1-0.6 0.6-0.9 1.1-0.8 0.6 0.1 0.9 0.6 0.8 1.1-0.5 2.9-0.8 5.8-1 8.7 0 0.6-0.4 1-1 1z"/><path class="w" d="m305.9 431q-0.2 0-0.4-0.1c-0.5-0.3-0.7-0.9-0.4-1.4 12.2-24.2 36.6-39.2 63.6-39.2 4.4 0 8.7 0.4 12.9 1.2 0.5 0.1 0.9 0.6 0.8 1.1-0.1 0.6-0.6 1-1.2 0.8-4.1-0.7-8.3-1.1-12.5-1.1-26.3 0-50 14.6-61.9 38.1-0.1 0.4-0.5 0.6-0.9 0.6z"/><circle class="z" cx="370.4" cy="463.3" r="64.5"/><path class="q" d="m390.1 438.9c0 10.9-8.8 22.7-19.7 22.7-10.9 0-19.8-11.8-19.8-22.7 0-10.9 8.9-18.6 19.8-18.6 10.9 0 19.7 7.7 19.7 18.6z"/><path class="q" d="m334.6 495l-2-7.3c-1.6-6 1.6-12.2 7.4-14.1 20.8-7 41.1-7.9 60.8-0.7 5.8 2.1 8.9 8.6 7 14.5l-2.6 8.1c-1.5 4.9-6 8.1-11.1 8.1h-48.2c-5.3 0-9.9-3.5-11.3-8.6z"/><circle class="A" cx="716.4" cy="461.6" r="76.2"/><path class="w" d="m646.2 458.9q0 0 0 0c-0.6 0-1-0.5-1-1.1 0.2-3 0.5-6 1.1-8.9 0.1-0.6 0.6-0.9 1.1-0.8 0.6 0.1 0.9 0.6 0.8 1.1-0.5 2.9-0.8 5.8-1 8.7 0 0.6-0.4 1-1 1z"/><path class="w" d="m653.6 431q-0.2 0-0.4-0.1c-0.5-0.3-0.7-0.9-0.5-1.4 12.2-24.2 36.6-39.2 63.7-39.2 4.3 0 8.7 0.4 12.9 1.2 0.5 0.1 0.9 0.6 0.8 1.1-0.1 0.6-0.6 1-1.2 0.8-4.1-0.7-8.3-1.1-12.5-1.1-26.3 0-50 14.6-61.9 38.1-0.2 0.4-0.5 0.6-0.9 0.6z"/><circle class="B" cx="718.1" cy="463.3" r="64.5"/><path class="q" d="m737.8 438.9c0 10.9-8.8 22.7-19.7 22.7-11 0-19.8-11.8-19.8-22.7 0-10.9 8.8-18.6 19.8-18.6 10.9 0 19.7 7.7 19.7 18.6z"/><path class="q" d="m682.3 495l-2-7.3c-1.6-6 1.6-12.2 7.4-14.1 20.8-7 41.1-7.9 60.7-0.7 5.9 2.1 9 8.6 7.1 14.5l-2.6 8.1c-1.6 4.9-6 8.1-11.1 8.1h-48.3c-5.2 0-9.9-3.5-11.2-8.6z"/><circle class="C" cx="368.7" cy="272.6" r="76.2"/><path class="w" d="m298.5 269.9q0 0 0 0c-0.6-0.1-1-0.5-1-1.1 0.2-3 0.5-6 1.1-8.9 0.1-0.6 0.6-0.9 1.1-0.8 0.6 0.1 0.9 0.6 0.8 1.1-0.5 2.9-0.8 5.8-1 8.7 0 0.6-0.4 1-1 1z"/><path class="w" d="m305.9 242q-0.2 0-0.4-0.1c-0.5-0.3-0.7-0.9-0.4-1.4 12.2-24.2 36.6-39.2 63.6-39.2 4.4 0 8.7 0.4 12.9 1.2 0.5 0.1 0.9 0.6 0.8 1.1-0.1 0.6-0.6 0.9-1.2 0.8-4-0.7-8.3-1.1-12.5-1.1-26.3 0-50 14.6-61.9 38.1-0.1 0.4-0.5 0.6-0.9 0.6z"/><circle class="D" cx="370.4" cy="274.3" r="64.5"/><path class="q" d="m390.1 249.9c0 10.9-8.8 22.7-19.7 22.7-10.9 0-19.8-11.8-19.8-22.7 0-10.9 8.9-18.7 19.8-18.7 10.9 0 19.7 7.8 19.7 18.7z"/><path class="q" d="m334.6 306l-2-7.4c-1.6-5.9 1.6-12.1 7.4-14.1 20.8-6.9 41.1-7.8 60.8-0.6 5.8 2.1 8.9 8.5 7 14.5l-2.6 8.1c-1.5 4.8-6 8.1-11.1 8.1h-48.2c-5.3 0-9.9-3.5-11.3-8.6z"/><circle class="E" cx="716.4" cy="272.6" r="76.2"/><path class="w" d="m646.2 269.9q0 0 0 0c-0.6-0.1-1-0.5-1-1.1 0.2-3 0.5-6 1.1-8.9 0.1-0.6 0.6-0.9 1.1-0.8 0.6 0.1 0.9 0.6 0.8 1.1-0.5 2.9-0.8 5.8-1 8.7 0 0.6-0.4 1-1 1z"/><path class="w" d="m653.6 242q-0.2 0-0.4-0.1c-0.5-0.3-0.7-0.9-0.5-1.4 12.2-24.2 36.6-39.2 63.7-39.2 4.3 0 8.7 0.4 12.9 1.2 0.5 0.1 0.9 0.6 0.8 1.1-0.1 0.6-0.6 0.9-1.2 0.8-4.1-0.7-8.3-1.1-12.5-1.1-26.3 0-50 14.6-61.9 38.1-0.2 0.4-0.5 0.6-0.9 0.6z"/><circle class="F" cx="718.1" cy="274.3" r="64.5"/><path class="q" d="m737.8 249.9c0 10.9-8.8 22.7-19.7 22.7-11 0-19.8-11.8-19.8-22.7 0-10.9 8.8-18.7 19.8-18.7 10.9 0 19.7 7.8 19.7 18.7z"/><path class="q" d="m682.3 306l-2-7.4c-1.6-5.9 1.6-12.1 7.4-14.1 20.8-6.9 41.1-7.8 60.7-0.6 5.9 2.1 9 8.5 7.1 14.5l-2.6 8.1c-1.6 4.8-6 8.1-11.1 8.1h-48.3c-5.2 0-9.9-3.5-11.2-8.6z"/><circle class="G" cx="538.2" cy="569.4" r="76.2"/><path class="w" d="m468 566.6q-0.1 0-0.1 0c-0.5 0-1-0.5-0.9-1 0.1-3 0.5-6 1-9 0.1-0.5 0.6-0.9 1.2-0.8 0.5 0.1 0.9 0.6 0.8 1.2-0.5 2.8-0.9 5.8-1 8.7-0.1 0.5-0.5 0.9-1 0.9z"/><path class="w" d="m475.4 538.7q-0.3 0-0.5-0.1c-0.5-0.2-0.7-0.8-0.4-1.3 12.2-24.2 36.6-39.2 63.7-39.2 4.3 0 8.6 0.3 12.8 1.1 0.6 0.1 0.9 0.6 0.8 1.2-0.1 0.5-0.6 0.9-1.1 0.8-4.1-0.8-8.3-1.1-12.5-1.1-26.3 0-50.1 14.6-61.9 38.1-0.2 0.3-0.6 0.5-0.9 0.5z"/><circle class="H" cx="539.8" cy="571" r="64.5"/><path class="q" d="m559.6 546.7c0 10.9-8.9 22.7-19.8 22.7-10.9 0-19.8-11.8-19.8-22.7 0-11 8.9-18.7 19.8-18.7 10.9 0 19.8 7.7 19.8 18.7z"/><path class="q" d="m504 602.8l-2-7.4c-1.6-5.9 1.6-12.2 7.5-14.1 20.8-6.9 41.1-7.8 60.7-0.7 5.9 2.2 8.9 8.6 7 14.5l-2.6 8.2c-1.5 4.8-6 8.1-11.1 8.1h-48.2c-5.3 0-9.9-3.6-11.3-8.6z"/><circle class="I" cx="538.2" cy="164.9" r="76.2"/><path class="w" d="m468 162.1q-0.1 0-0.1 0c-0.5 0-1-0.5-0.9-1 0.1-3 0.5-6 1-9 0.1-0.5 0.6-0.9 1.2-0.8 0.5 0.1 0.9 0.6 0.8 1.2-0.5 2.8-0.9 5.8-1 8.7-0.1 0.5-0.5 0.9-1 0.9z"/><path class="w" d="m475.4 134.2q-0.3 0-0.5-0.1c-0.5-0.2-0.7-0.8-0.4-1.3 12.2-24.2 36.6-39.2 63.7-39.2 4.3 0 8.6 0.4 12.8 1.1 0.6 0.1 0.9 0.6 0.8 1.2-0.1 0.5-0.6 0.9-1.1 0.8-4.1-0.8-8.3-1.1-12.5-1.1-26.3 0-50.1 14.6-61.9 38.1-0.2 0.3-0.6 0.5-0.9 0.5z"/><circle class="J" cx="539.8" cy="166.5" r="64.5"/><path class="q" d="m559.6 142.2c0 10.9-8.9 22.7-19.8 22.7-10.9 0-19.8-11.8-19.8-22.7 0-10.9 8.9-18.7 19.8-18.7 10.9 0 19.8 7.8 19.8 18.7z"/><path class="q" d="m504 198.3l-2-7.4c-1.6-5.9 1.6-12.2 7.5-14.1 20.8-6.9 41.1-7.8 60.7-0.7 5.9 2.2 8.9 8.6 7 14.6l-2.6 8.1c-1.5 4.8-6 8.1-11.1 8.1h-48.2c-5.3 0-9.9-3.5-11.3-8.6z"/><path class="K" d="m71 639.3l235 5c9.2 0.2 16.4 5.1 16.4 11.1v73.2c0 6.1-7.6 11.1-16.9 11.1h-233.1c-9.2 0-16.7-4.8-16.9-10.9l-2-78.2c-0.2-6.3 7.8-11.5 17.5-11.3z"/><path class="q" d="m80.9 652.9l217.3 7.1c4.2 0.1 7.4 2.4 7.4 5.1v62.3c0 2.8-3.4 5.1-7.6 5.1l-212.3 2.5c-4.2 0-7.7-2.1-7.8-4.9l-5.1-71.9c-0.2-3 3.6-5.5 8.1-5.3z"/><path class="q" d="m94.8 661.7l183.1 3.2c2.7 0.1 4.8 1.5 4.8 3.3 0 1.8-2.2 3.2-4.9 3.2l-183 2c-2.8 0-5.1-1.4-5.1-3.3v-5.1c0-1.9 2.3-3.3 5.1-3.3z"/><path class="q" d="m97.4 681.3l174.3-0.8c2.8 0 5 1.5 5 3.3v1.5c0 1.7-2.1 3.2-4.7 3.2l-174.4 4c-2.8 0.1-5.1-1.4-5.1-3.2v-4.8c0-1.8 2.2-3.2 4.9-3.2z"/><path class="w" d="m284.3 386.7l-2.9-0.8c-0.5-0.2-0.8-0.7-0.7-1.3 0.2-0.5 0.7-0.8 1.3-0.7l2.9 0.8c0.5 0.2 0.8 0.7 0.7 1.3-0.2 0.5-0.7 0.8-1.3 0.7z"/><path class="w" d="m274.7 384.2l-2.9-0.6c-0.6-0.2-1-0.7-0.8-1.3 0.1-0.5 0.6-0.9 1.2-0.7l2.9 0.6c0.6 0.1 0.9 0.7 0.8 1.2-0.1 0.6-0.7 0.9-1.2 0.8z"/><path class="w" d="m264.9 382.3l-2.9-0.5c-0.6-0.1-1-0.7-0.9-1.2 0.1-0.6 0.6-1 1.2-0.9l3 0.5c0.5 0.1 0.9 0.6 0.8 1.2-0.1 0.6-0.6 1-1.2 0.9z"/><path class="w" d="m255.1 380.8l-3-0.4c-0.6 0-1-0.6-0.9-1.1 0-0.6 0.6-1.1 1.2-1l2.9 0.4c0.6 0 1 0.6 1 1.2-0.1 0.5-0.6 1-1.2 0.9z"/><path class="w" d="m245.2 379.8l-3-0.2c-0.6 0-1.1-0.6-1-1.2 0-0.6 0.6-1 1.2-1l3 0.2c0.5 0.1 1 0.6 1 1.2-0.1 0.6-0.6 1.1-1.2 1z"/><path class="w" d="m235.3 379.3h-3c-0.6-0.1-1.1-0.6-1.1-1.2 0-0.6 0.5-1.1 1.1-1.1l3 0.1c0.6 0 1.1 0.5 1.1 1.1 0 0.6-0.5 1.1-1.1 1.1z"/><path class="w" d="m225.3 379.3l-3 0.1c-0.6 0-1.1-0.5-1.2-1.1 0-0.6 0.5-1.2 1.2-1.2l3-0.1c0.6 0 1.1 0.5 1.1 1.1 0 0.7-0.5 1.2-1.1 1.2z"/><path class="w" d="m215.4 379.8l-3 0.2c-0.6 0-1.2-0.4-1.3-1.1 0-0.6 0.5-1.2 1.1-1.2l3-0.2c0.6-0.1 1.2 0.4 1.2 1 0.1 0.7-0.4 1.2-1 1.3z"/><path class="w" d="m205.5 380.7l-3 0.4c-0.6 0.1-1.2-0.4-1.3-1-0.1-0.7 0.4-1.3 1-1.4l3-0.3c0.6-0.1 1.2 0.4 1.3 1 0.1 0.6-0.4 1.2-1 1.3z"/><path class="w" d="m195.6 382.1l-2.9 0.5c-0.7 0.2-1.3-0.3-1.4-0.9-0.1-0.7 0.3-1.3 1-1.4l2.9-0.5c0.7-0.2 1.3 0.3 1.4 0.9 0.1 0.7-0.3 1.3-1 1.4z"/><path class="w" d="m185.9 384l-3 0.7c-0.6 0.1-1.3-0.3-1.4-1-0.2-0.6 0.2-1.3 0.9-1.4l2.9-0.7c0.7-0.1 1.4 0.3 1.5 1 0.1 0.6-0.3 1.3-0.9 1.4z"/><path class="w" d="m176.2 386.4l-2.9 0.8c-0.6 0.2-1.3-0.2-1.5-0.9-0.2-0.7 0.2-1.4 0.9-1.5l2.9-0.8c0.6-0.2 1.3 0.2 1.5 0.8 0.2 0.7-0.2 1.4-0.9 1.6z"/><path class="w" d="m166.7 389.2l-2.9 0.9c-0.6 0.2-1.3-0.1-1.6-0.8-0.2-0.6 0.2-1.4 0.8-1.6l2.9-0.9c0.7-0.2 1.4 0.1 1.6 0.8 0.2 0.7-0.1 1.4-0.8 1.6z"/><path class="w" d="m157.3 392.5l-2.8 1.1c-0.7 0.2-1.4-0.1-1.7-0.8-0.2-0.7 0.1-1.4 0.8-1.7l2.8-1c0.7-0.3 1.4 0 1.6 0.7 0.3 0.7 0 1.4-0.7 1.7z"/><path class="w" d="m148.1 396.2l-2.7 1.2c-0.7 0.3-1.5 0-1.8-0.6-0.3-0.7 0-1.5 0.7-1.8l2.8-1.2c0.6-0.3 1.4 0 1.7 0.7 0.3 0.7 0 1.4-0.7 1.7z"/><path class="w" d="m139.1 400.4l-2.7 1.4c-0.6 0.3-1.4 0-1.8-0.6-0.3-0.7 0-1.5 0.6-1.8l2.7-1.4c0.7-0.3 1.5 0 1.8 0.6 0.3 0.7 0.1 1.5-0.6 1.8z"/><path class="w" d="m130.3 405.1l-2.6 1.5c-0.6 0.3-1.4 0.1-1.8-0.5-0.4-0.7-0.2-1.5 0.5-1.9l2.6-1.5c0.6-0.3 1.5-0.1 1.8 0.5 0.4 0.7 0.2 1.5-0.5 1.9z"/><path class="w" d="m121.8 410.2l-2.5 1.6c-0.6 0.4-1.5 0.2-1.9-0.4-0.4-0.7-0.2-1.5 0.4-1.9l2.5-1.6c0.7-0.5 1.5-0.3 1.9 0.4 0.4 0.6 0.3 1.5-0.4 1.9z"/><path class="w" d="m113.6 415.7l-2.5 1.7c-0.6 0.5-1.5 0.3-1.9-0.3-0.5-0.6-0.3-1.5 0.3-2l2.4-1.7c0.7-0.4 1.5-0.3 2 0.3 0.4 0.7 0.3 1.5-0.3 2z"/><path class="w" d="m105.6 421.6l-2.4 1.9c-0.6 0.4-1.5 0.3-2-0.3-0.5-0.6-0.4-1.5 0.3-2l2.3-1.8c0.6-0.5 1.5-0.4 2 0.2 0.5 0.6 0.4 1.5-0.2 2z"/><path class="w" d="m97.9 427.9l-2.2 2c-0.6 0.5-1.6 0.4-2.1-0.2-0.5-0.6-0.5-1.5 0.1-2h0.1l2.2-2c0.6-0.5 1.5-0.4 2.1 0.2 0.5 0.6 0.4 1.5-0.2 2z"/><path class="w" d="m90.6 434.6l-2.2 2c-0.6 0.6-1.5 0.6-2.1 0-0.5-0.6-0.5-1.5 0.1-2.1l2.1-2c0.6-0.6 1.5-0.6 2.1 0 0.6 0.6 0.5 1.5 0 2.1z"/><path class="w" d="m83.5 441.6l-2 2.2c-0.6 0.6-1.5 0.6-2.1 0-0.6-0.5-0.7-1.5-0.1-2.1l2.1-2.2c0.5-0.6 1.5-0.6 2.1 0 0.6 0.5 0.6 1.5 0 2.1z"/><path class="w" d="m76.8 448.9l-1.9 2.3c-0.6 0.6-1.5 0.7-2.1 0.2-0.7-0.6-0.8-1.5-0.2-2.2l1.9-2.2c0.6-0.7 1.5-0.7 2.2-0.2 0.6 0.5 0.7 1.5 0.1 2.1z"/><path class="w" d="m70.5 456.6l-1.8 2.3c-0.5 0.7-1.5 0.8-2.2 0.3-0.7-0.5-0.8-1.5-0.3-2.1l1.9-2.4c0.5-0.7 1.5-0.8 2.1-0.3 0.7 0.6 0.8 1.5 0.3 2.2z"/><path class="w" d="m64.6 464.5l-1.8 2.5c-0.5 0.7-1.4 0.9-2.1 0.4-0.7-0.5-0.9-1.5-0.4-2.2l1.7-2.5c0.5-0.7 1.5-0.8 2.2-0.3 0.7 0.5 0.9 1.4 0.4 2.1z"/><path class="w" d="m59 472.7l-1.6 2.6c-0.5 0.7-1.4 0.9-2.2 0.5-0.7-0.5-0.9-1.5-0.5-2.2l1.6-2.5c0.5-0.8 1.5-1 2.2-0.5 0.7 0.4 1 1.4 0.5 2.1z"/><path class="w" d="m53.8 481.2l-1.4 2.6c-0.5 0.8-1.4 1.1-2.2 0.6-0.8-0.4-1-1.4-0.6-2.1l1.5-2.6c0.4-0.8 1.4-1.1 2.2-0.6 0.7 0.4 1 1.4 0.5 2.1z"/><path class="w" d="m49.1 489.9l-1.3 2.7c-0.4 0.8-1.4 1.2-2.2 0.7-0.8-0.4-1.1-1.3-0.7-2.1l1.3-2.7c0.4-0.8 1.4-1.1 2.2-0.7 0.8 0.4 1.1 1.3 0.7 2.1z"/><path class="w" d="m44.8 498.9l-1.2 2.7c-0.3 0.9-1.3 1.2-2.1 0.9-0.9-0.4-1.3-1.4-0.9-2.2l1.2-2.7c0.4-0.9 1.4-1.2 2.2-0.9 0.8 0.4 1.2 1.4 0.8 2.2z"/><path class="w" d="m41 508l-1.1 2.8c-0.3 0.9-1.3 1.3-2.1 1-0.9-0.3-1.3-1.3-1-2.2l1.1-2.8c0.3-0.8 1.3-1.2 2.1-0.9 0.9 0.3 1.3 1.3 1 2.1z"/><path class="w" d="m37.6 517.3l-0.9 2.9c-0.3 0.9-1.2 1.4-2.1 1.1-0.9-0.3-1.4-1.2-1.1-2.1l0.9-2.9c0.3-0.9 1.3-1.3 2.1-1.1 0.9 0.3 1.4 1.3 1.1 2.1z"/><path class="w" d="m34.7 526.8l-0.7 2.9c-0.2 0.9-1.2 1.5-2.1 1.2-0.9-0.2-1.4-1.1-1.2-2l0.8-2.9c0.2-0.9 1.2-1.5 2.1-1.2 0.8 0.2 1.4 1.1 1.1 2z"/><path class="w" d="m32.4 536.5l-0.6 2.9c-0.1 0.9-1 1.5-2 1.3-0.9-0.2-1.5-1.1-1.3-2l0.6-2.9c0.2-0.9 1.1-1.5 2-1.3 0.9 0.2 1.5 1 1.3 2z"/><path class="w" d="m30.7 546.2l-0.4 3c-0.1 0.9-1 1.6-1.9 1.4-1-0.1-1.6-1-1.5-1.9l0.4-3c0.1-0.9 1-1.6 1.9-1.4 1 0.1 1.6 1 1.5 1.9z"/><path class="w" d="m29.6 556l-0.2 3c-0.1 1-0.9 1.7-1.9 1.6-0.9-0.1-1.6-0.9-1.6-1.8l0.3-3c0-1 0.8-1.7 1.8-1.6 0.9 0.1 1.6 0.9 1.6 1.8z"/><path class="w" d="m29.1 565.9v3c0 0.9-0.8 1.7-1.7 1.7-1 0-1.7-0.8-1.7-1.7v-3c0-1 0.7-1.7 1.7-1.7 1 0 1.7 0.7 1.7 1.7z"/><path class="w" d="m29.4 575.7l0.2 3c0.1 1-0.6 1.8-1.6 1.9-1 0.1-1.8-0.6-1.9-1.6l-0.2-3c-0.1-0.9 0.7-1.8 1.6-1.9 1 0 1.8 0.7 1.9 1.6z"/><path class="w" d="m30.4 585.5l0.5 3c0.1 1-0.5 1.9-1.5 2-0.9 0.2-1.8-0.5-2-1.4l-0.5-3c-0.1-1 0.5-1.9 1.5-2 1-0.2 1.9 0.5 2 1.4z"/><path class="w" d="m32.3 595.2l0.7 2.9c0.2 1-0.3 1.9-1.3 2.2-0.9 0.2-1.9-0.4-2.1-1.3l-0.8-2.9c-0.2-1 0.4-1.9 1.3-2.2 1-0.2 1.9 0.4 2.2 1.3z"/><path class="w" d="m35 604.7l1 2.8c0.3 0.9-0.2 1.9-1.1 2.3-0.9 0.3-2-0.2-2.3-1.1l-1-2.8c-0.3-1 0.2-2 1.1-2.3 0.9-0.3 1.9 0.1 2.3 1.1z"/><path class="w" d="m38.6 613.8l1.2 2.7c0.5 0.9 0.1 2-0.8 2.4-0.9 0.4-2 0-2.4-0.9l-1.3-2.7c-0.4-0.9 0-1.9 0.9-2.4 0.9-0.4 1.9 0 2.4 0.9z"/><path class="w" d="m43.1 622.5l1.5 2.6c0.5 0.8 0.2 2-0.6 2.5-0.9 0.5-2 0.2-2.5-0.6l-1.5-2.6c-0.5-0.9-0.3-2 0.6-2.5 0.9-0.5 2-0.2 2.5 0.6z"/><path class="w" d="m48.4 630.8l1.8 2.4c0.6 0.8 0.4 1.9-0.4 2.5-0.8 0.6-1.9 0.5-2.5-0.4l-1.8-2.4c-0.6-0.8-0.4-1.9 0.4-2.5 0.8-0.6 1.9-0.4 2.5 0.4z"/><path class="w" d="m54.5 638.5l2 2.2c0.6 0.8 0.6 2-0.2 2.6-0.7 0.7-1.9 0.6-2.6-0.1l-1.9-2.3c-0.7-0.7-0.6-1.9 0.1-2.6 0.8-0.6 1.9-0.6 2.6 0.2z"/><path class="w" d="m61.2 645.7l2.2 2.1c0.7 0.7 0.7 1.8 0 2.6-0.7 0.7-1.8 0.7-2.6 0l-2.1-2.1c-0.8-0.7-0.8-1.8-0.1-2.6 0.7-0.7 1.9-0.7 2.6 0z"/><path class="w" d="m68.5 652.3l2.3 1.9c0.8 0.7 0.9 1.9 0.3 2.7-0.7 0.8-1.9 0.9-2.7 0.2l-2.3-1.9c-0.7-0.7-0.9-1.8-0.2-2.6 0.7-0.8 1.8-0.9 2.6-0.3z"/><path class="w" d="m76.2 658.5l2.5 1.7c0.8 0.6 1 1.8 0.4 2.6-0.6 0.9-1.8 1.1-2.6 0.5l-2.5-1.8c-0.8-0.6-1-1.8-0.4-2.6 0.7-0.9 1.8-1 2.6-0.4z"/><path class="w" d="m84.4 664.1l2.5 1.6c0.9 0.6 1.1 1.8 0.5 2.6-0.5 0.9-1.7 1.2-2.6 0.6l-2.5-1.6c-0.8-0.6-1.1-1.7-0.5-2.6 0.5-0.9 1.7-1.1 2.6-0.6z"/><path class="w" d="m92.8 669.3l2.6 1.5c0.9 0.5 1.2 1.7 0.7 2.6-0.5 0.9-1.7 1.2-2.6 0.7l-2.6-1.5c-0.9-0.5-1.2-1.7-0.7-2.6 0.5-0.9 1.7-1.2 2.6-0.7z"/><path class="w" d="m101.5 674.1l2.6 1.4c1 0.5 1.3 1.6 0.9 2.6-0.5 0.9-1.7 1.3-2.6 0.8l-2.7-1.4c-0.9-0.5-1.3-1.6-0.8-2.6 0.5-0.9 1.6-1.3 2.6-0.8z"/><path class="w" d="m110.3 678.5l2.8 1.3c0.9 0.5 1.3 1.6 0.9 2.6-0.5 0.9-1.6 1.3-2.6 0.9l-2.7-1.3c-0.9-0.4-1.3-1.6-0.9-2.5 0.5-1 1.6-1.4 2.5-1z"/><path class="w" d="m119.4 682.6l2.8 1.2c0.9 0.4 1.4 1.6 1 2.5-0.4 1-1.6 1.5-2.5 1.1l-2.8-1.2c-1-0.4-1.4-1.6-1-2.6 0.4-0.9 1.5-1.4 2.5-1z"/><path class="w" d="m128.6 686.4l2.8 1.1c1 0.4 1.5 1.5 1.1 2.5-0.4 1-1.5 1.5-2.5 1.1l-2.8-1.1c-1-0.4-1.5-1.5-1.1-2.5 0.4-1 1.5-1.5 2.5-1.1z"/><path class="w" d="m137.9 689.9l2.8 1c1 0.4 1.6 1.5 1.2 2.5-0.3 1.1-1.5 1.6-2.5 1.2l-2.8-1c-1-0.4-1.6-1.5-1.2-2.5 0.4-1 1.5-1.5 2.5-1.2z"/><path class="w" d="m147.3 693.2l2.9 0.9c1 0.4 1.6 1.5 1.2 2.5-0.3 1-1.4 1.6-2.5 1.3l-2.8-1c-1.1-0.3-1.6-1.4-1.3-2.5 0.4-1 1.5-1.5 2.5-1.2z"/><path class="w" d="m156.8 696.2l2.9 0.8c1 0.4 1.6 1.5 1.3 2.5-0.3 1.1-1.4 1.7-2.5 1.3l-2.8-0.8c-1.1-0.3-1.7-1.4-1.4-2.5 0.3-1 1.4-1.6 2.5-1.3z"/><path class="w" d="m166.3 698.9l2.9 0.8c1.1 0.3 1.7 1.4 1.5 2.4-0.3 1.1-1.4 1.7-2.5 1.5l-2.9-0.8c-1-0.3-1.7-1.4-1.4-2.5 0.3-1 1.4-1.7 2.4-1.4z"/><path class="w" d="m176 701.4l2.9 0.7c1.1 0.3 1.7 1.3 1.5 2.4-0.3 1.1-1.4 1.8-2.4 1.5l-3-0.7c-1-0.3-1.7-1.3-1.4-2.4 0.2-1.1 1.3-1.7 2.4-1.5z"/><path class="w" d="m185.7 703.6l2.9 0.6c1.1 0.3 1.8 1.3 1.6 2.4-0.3 1.1-1.3 1.8-2.4 1.6l-3-0.6c-1.1-0.3-1.7-1.3-1.5-2.4 0.2-1.1 1.3-1.8 2.4-1.6z"/><path class="w" d="m195.4 705.6l3 0.5c1.1 0.2 1.8 1.3 1.6 2.4-0.2 1.1-1.3 1.8-2.4 1.6l-2.9-0.5c-1.1-0.2-1.8-1.3-1.6-2.4 0.2-1.1 1.2-1.8 2.3-1.6z"/><path class="w" d="m205.2 707.3l3 0.5c1.1 0.1 1.9 1.2 1.7 2.3-0.2 1.1-1.2 1.9-2.4 1.7l-2.9-0.5c-1.1-0.2-1.9-1.2-1.7-2.3 0.2-1.1 1.2-1.9 2.3-1.7z"/><path class="w" d="m215.1 708.7l2.9 0.4c1.2 0.2 2 1.2 1.8 2.3-0.1 1.1-1.2 1.9-2.3 1.8l-3-0.4c-1.1-0.1-1.9-1.2-1.7-2.3 0.1-1.1 1.1-1.9 2.3-1.8z"/><path class="w" d="m224.9 709.9l3 0.3c1.2 0.1 2 1.2 1.9 2.3-0.2 1.1-1.2 1.9-2.3 1.8l-3-0.3c-1.1-0.1-1.9-1.1-1.8-2.2 0.1-1.2 1.1-2 2.2-1.9z"/><path class="w" d="m234.8 710.8l3 0.3c1.2 0.1 2 1 1.9 2.2 0 1.1-1 2-2.2 1.9l-3-0.2c-1.1-0.1-2-1.1-1.9-2.3 0.1-1.1 1.1-2 2.2-1.9z"/><path class="w" d="m244.8 711.5l3 0.1c1.1 0.1 2 1.1 1.9 2.2 0 1.2-1 2.1-2.1 2h-0.1l-3-0.1c-1.1-0.1-2-1.1-1.9-2.2 0-1.2 1-2.1 2.2-2z"/><path class="w" d="m254.7 711.9l3 0.1c1.2 0 2.1 1 2 2.1 0 1.2-0.9 2.1-2.1 2.1l-3-0.1c-1.2 0-2.1-1-2-2.2 0-1.1 0.9-2 2.1-2z"/><path class="w" d="m264.6 712.1l3-0.1c1.2 0 2.2 1 2.2 2.1 0 1.2-1 2.1-2.1 2.1l-3 0.1c-1.2 0-2.1-1-2.1-2.1 0-1.2 0.9-2.1 2-2.1z"/><path class="w" d="m274.6 711.9h3c1.2-0.1 2.1 0.8 2.2 2 0 1.2-0.9 2.1-2.1 2.2h-3c-1.1 0.1-2.1-0.8-2.1-2-0.1-1.2 0.8-2.1 2-2.2z"/><path class="w" d="m284.5 711.6l3-0.2c1.2-0.1 2.2 0.8 2.3 2 0 1.2-0.9 2.2-2 2.2l-3 0.2c-1.2 0-2.2-0.8-2.3-2 0-1.2 0.9-2.2 2-2.2z"/><path class="w" d="m294.5 710.9l3-0.2c1.1-0.1 2.1 0.8 2.2 1.9 0.1 1.2-0.7 2.2-1.9 2.3l-3 0.3c-1.2 0-2.2-0.8-2.3-2-0.1-1.1 0.8-2.2 2-2.3z"/><path class="w" d="m304.4 710.1l3-0.4c1.1-0.1 2.2 0.7 2.3 1.9 0.1 1.2-0.7 2.2-1.9 2.3l-3 0.4c-1.1 0.1-2.2-0.8-2.3-1.9-0.1-1.2 0.7-2.2 1.9-2.3z"/><path class="w" d="m314.3 708.9l2.9-0.4c1.2-0.2 2.3 0.7 2.4 1.8 0.2 1.2-0.7 2.3-1.8 2.4l-3 0.4c-1.1 0.2-2.2-0.7-2.4-1.8-0.1-1.2 0.7-2.2 1.9-2.4z"/><path class="w" d="m324.1 707.5l3-0.5c1.1-0.2 2.2 0.6 2.4 1.8 0.2 1.1-0.6 2.2-1.8 2.4l-2.9 0.5c-1.2 0.2-2.3-0.6-2.5-1.8-0.1-1.1 0.6-2.2 1.8-2.4z"/><path class="w" d="m333.9 705.8l2.9-0.5c1.2-0.3 2.3 0.5 2.5 1.7 0.2 1.1-0.5 2.2-1.7 2.4l-2.9 0.6c-1.2 0.2-2.3-0.5-2.5-1.7-0.2-1.2 0.5-2.3 1.7-2.5z"/><path class="w" d="m343.7 703.9l2.9-0.6c1.1-0.3 2.3 0.4 2.5 1.6 0.3 1.1-0.5 2.3-1.6 2.5l-2.9 0.7c-1.2 0.2-2.3-0.5-2.6-1.7-0.2-1.1 0.5-2.3 1.7-2.5z"/><path class="w" d="m353.3 701.7l3-0.7c1.1-0.3 2.3 0.4 2.5 1.5 0.3 1.2-0.4 2.4-1.5 2.6l-2.9 0.7c-1.2 0.3-2.3-0.4-2.6-1.5-0.3-1.2 0.4-2.3 1.5-2.6z"/><path class="w" d="m363 699.2l2.9-0.8c1.1-0.3 2.3 0.4 2.6 1.5 0.3 1.2-0.4 2.4-1.5 2.7l-2.9 0.8c-1.1 0.3-2.3-0.4-2.6-1.5-0.3-1.2 0.3-2.3 1.5-2.7z"/><path class="w" d="m372.5 696.5l2.9-0.8c1.1-0.4 2.3 0.3 2.7 1.4 0.3 1.1-0.3 2.3-1.4 2.7l-2.9 0.8c-1.1 0.4-2.3-0.3-2.7-1.4-0.3-1.1 0.3-2.3 1.4-2.7z"/><path class="w" d="m382 693.6l2.9-1c1.1-0.4 2.3 0.2 2.7 1.4 0.4 1.1-0.2 2.3-1.4 2.7l-2.8 0.9c-1.1 0.4-2.4-0.2-2.7-1.3-0.4-1.2 0.2-2.4 1.3-2.7z"/><path class="w" d="m391.4 690.3l2.8-1c1.2-0.4 2.4 0.2 2.8 1.3 0.4 1.1-0.2 2.3-1.3 2.7l-2.8 1.1c-1.1 0.4-2.4-0.2-2.8-1.3-0.4-1.1 0.2-2.4 1.3-2.8z"/><path class="w" d="m400.7 686.8l2.8-1.1c1.1-0.4 2.4 0.1 2.8 1.2 0.5 1.1-0.1 2.4-1.2 2.8l-2.8 1.1c-1.1 0.5-2.3-0.1-2.8-1.2-0.4-1.1 0.1-2.3 1.2-2.8z"/><path class="w" d="m409.9 683.1l2.8-1.2c1.1-0.5 2.4 0 2.8 1.1 0.5 1.1 0 2.4-1.1 2.9l-2.8 1.1c-1.1 0.5-2.3 0-2.8-1.1-0.5-1.1 0-2.4 1.1-2.8z"/><path class="w" d="m419 679.1l2.8-1.3c1-0.5 2.3 0 2.8 1.1 0.5 1.1 0.1 2.3-1 2.8l-2.7 1.3c-1.1 0.5-2.4 0-2.9-1.1-0.5-1 0-2.3 1-2.8z"/><path class="w" d="m428 674.8l2.7-1.3c1.1-0.6 2.4-0.1 2.9 1 0.5 1 0.1 2.3-1 2.9l-2.7 1.3c-1 0.5-2.3 0.1-2.9-1-0.5-1.1-0.1-2.4 1-2.9z"/><path class="w" d="m436.9 670.3l2.6-1.4c1.1-0.6 2.4-0.1 3 0.9 0.5 1.1 0.1 2.4-0.9 2.9v0.1l-2.7 1.4c-1 0.5-2.4 0.1-2.9-1-0.6-1-0.2-2.3 0.9-2.9z"/><path class="w" d="m445.6 665.6l2.6-1.5c1.1-0.6 2.4-0.2 3 0.8 0.6 1.1 0.2 2.4-0.8 3l-2.6 1.5c-1.1 0.6-2.4 0.2-3-0.9-0.6-1-0.2-2.3 0.8-2.9z"/><path class="w" d="m454.2 660.6l2.6-1.5c1-0.7 2.4-0.3 3 0.7 0.6 1 0.3 2.4-0.8 3l-2.5 1.5c-1.1 0.7-2.4 0.3-3-0.7-0.6-1-0.3-2.4 0.7-3z"/><path class="w" d="m462.7 655.4l2.5-1.6c1-0.7 2.4-0.4 3 0.7 0.7 1 0.4 2.3-0.6 3l-2.6 1.6c-1 0.6-2.3 0.3-3-0.7-0.6-1-0.3-2.3 0.7-3z"/><path class="w" d="m471 650l2.5-1.7c1-0.7 2.4-0.4 3 0.6 0.7 1 0.5 2.3-0.5 3l-2.5 1.7c-1 0.7-2.4 0.4-3.1-0.6-0.6-1-0.4-2.3 0.6-3z"/><path class="w" d="m479.2 644.3l2.4-1.7c1-0.7 2.4-0.5 3.1 0.5 0.7 1 0.5 2.3-0.5 3.1l-2.4 1.7c-1 0.7-2.4 0.5-3.1-0.5-0.7-1-0.5-2.4 0.5-3.1z"/><path class="w" d="m487.2 638.5l2.4-1.8c1-0.8 2.4-0.6 3.1 0.4 0.7 1 0.6 2.3-0.4 3.1l-2.4 1.8c-1 0.7-2.4 0.5-3.1-0.5-0.7-0.9-0.5-2.3 0.4-3z"/><path class="w" d="m495.1 632.4l2.4-1.9c0.9-0.7 2.3-0.6 3.1 0.4 0.7 0.9 0.6 2.3-0.4 3.1l-2.3 1.8c-1 0.8-2.4 0.6-3.1-0.3-0.8-1-0.6-2.3 0.3-3.1z"/><path class="w" d="m502.8 626.1l2.3-1.9c1-0.8 2.3-0.7 3.1 0.3 0.8 0.9 0.7 2.3-0.2 3.1l-2.3 1.9c-1 0.8-2.4 0.7-3.1-0.3-0.8-0.9-0.7-2.3 0.2-3.1z"/><path class="w" d="m510.4 619.7l2.2-2c0.9-0.9 2.3-0.8 3.1 0.1 0.9 1 0.8 2.4-0.1 3.2l-2.3 2c-0.9 0.8-2.3 0.7-3.1-0.2-0.8-0.9-0.7-2.3 0.2-3.1z"/><path class="w" d="m517.8 613l2.1-2.1c0.9-0.8 2.3-0.8 3.2 0.1 0.8 0.9 0.8 2.3-0.1 3.2l-2.2 2c-0.9 0.8-2.3 0.8-3.2-0.1-0.8-0.9-0.7-2.3 0.2-3.1z"/><path class="w" d="m525 606.1l2.1-2.1c0.9-0.8 2.3-0.8 3.1 0 0.9 0.9 0.9 2.3 0 3.2l-2.1 2.1c-0.9 0.8-2.3 0.8-3.2 0-0.8-0.9-0.8-2.3 0.1-3.2z"/><path class="w" d="m532 599.1l2-2.2c0.9-0.9 2.3-0.9 3.2-0.1 0.9 0.9 0.9 2.3 0.1 3.2l-2.1 2.2c-0.9 0.8-2.3 0.9-3.2 0-0.9-0.8-0.9-2.2 0-3.1z"/><path class="w" d="m538.8 591.8l2-2.2c0.9-0.9 2.3-0.9 3.2-0.1 0.9 0.8 0.9 2.2 0.1 3.1l-2 2.2c-0.8 1-2.3 1-3.2 0.2-0.9-0.8-0.9-2.3-0.1-3.2z"/><path class="w" d="m545.4 584.4l2-2.2c0.8-1 2.2-1.1 3.1-0.3 1 0.9 1.1 2.3 0.3 3.2l-2 2.3c-0.8 0.9-2.2 1-3.1 0.2-1-0.8-1.1-2.2-0.3-3.2z"/><path class="w" d="m551.9 576.9l1.9-2.4c0.8-0.9 2.2-1 3.1-0.3 1 0.8 1.1 2.2 0.3 3.2l-1.9 2.3c-0.8 1-2.2 1.1-3.1 0.3-1-0.8-1.1-2.2-0.3-3.1z"/><path class="w" d="m558.1 569.1l1.9-2.3c0.7-1 2.1-1.2 3.1-0.4 1 0.7 1.2 2.1 0.4 3.1l-1.9 2.4c-0.7 0.9-2.1 1.1-3.1 0.4-1-0.8-1.1-2.2-0.4-3.2z"/><path class="w" d="m564.1 561.2l1.8-2.4c0.8-1 2.2-1.2 3.2-0.5 1 0.8 1.2 2.2 0.4 3.2l-1.7 2.4c-0.8 1-2.2 1.2-3.2 0.5-1-0.8-1.2-2.2-0.5-3.2z"/><path class="w" d="m570 553.2l1.7-2.5c0.7-1 2.1-1.3 3.1-0.6 1 0.7 1.3 2.1 0.6 3.2l-1.8 2.4c-0.7 1-2.1 1.3-3.1 0.6-1-0.7-1.2-2.1-0.5-3.1z"/><path class="w" d="m575.6 544.9l1.6-2.5c0.7-1 2.1-1.3 3.1-0.6 1.1 0.7 1.4 2.1 0.7 3.1l-1.7 2.5c-0.7 1.1-2.1 1.3-3.1 0.7-1-0.7-1.3-2.1-0.6-3.2z"/><path class="w" d="m580.9 536.6l1.6-2.6c0.7-1 2.1-1.3 3.1-0.7 1.1 0.7 1.4 2.1 0.8 3.1l-1.6 2.6c-0.7 1-2.1 1.3-3.1 0.7-1.1-0.7-1.4-2.1-0.8-3.1z"/><path class="w" d="m586.1 528.1l1.5-2.6c0.6-1.1 2-1.4 3.1-0.8 1.1 0.6 1.4 2 0.8 3.1l-1.5 2.6c-0.6 1-2 1.4-3.1 0.8-1.1-0.7-1.4-2-0.8-3.1z"/><path class="w" d="m591 519.5l1.4-2.7c0.6-1.1 2-1.5 3.1-0.9 1.1 0.6 1.5 2 0.9 3.1l-1.4 2.6c-0.6 1.1-2 1.5-3.1 0.9-1.1-0.6-1.5-2-0.9-3z"/><path class="w" d="m595.7 510.7l1.3-2.7c0.6-1.1 2-1.5 3.1-1 1.1 0.6 1.5 2 1 3.1l-1.4 2.6c-0.6 1.2-1.9 1.6-3 1-1.2-0.5-1.6-1.9-1-3z"/><path class="w" d="m600.1 501.8l1.3-2.7c0.5-1.1 1.9-1.6 3-1.1 1.2 0.5 1.6 1.9 1.1 3l-1.3 2.7c-0.5 1.2-1.9 1.7-3 1.1-1.2-0.5-1.6-1.9-1.1-3z"/><path class="w" d="m604.3 492.8l1.2-2.8c0.5-1.1 1.9-1.6 3-1.1 1.2 0.5 1.7 1.8 1.2 3l-1.3 2.7c-0.5 1.2-1.8 1.7-3 1.2-1.1-0.5-1.6-1.9-1.1-3z"/><path class="w" d="m608.2 483.7l1.2-2.8c0.5-1.2 1.8-1.7 3-1.2 1.1 0.4 1.7 1.8 1.2 2.9l-1.1 2.8c-0.5 1.2-1.9 1.7-3 1.2-1.2-0.5-1.7-1.8-1.3-2.9z"/><path class="w" d="m612 474.4l1.1-2.8c0.4-1.1 1.8-1.7 2.9-1.2 1.2 0.4 1.8 1.7 1.3 2.9l-1.1 2.8c-0.4 1.2-1.7 1.8-2.9 1.3-1.2-0.5-1.8-1.8-1.3-3z"/><path class="w" d="m615.5 465.1l1.1-2.8c0.4-1.2 1.7-1.8 2.9-1.3 1.2 0.4 1.8 1.7 1.4 2.9l-1.1 2.8c-0.4 1.2-1.7 1.8-2.9 1.4-1.2-0.5-1.8-1.8-1.4-3z"/><path class="w" d="m618.9 455.8l1-2.9c0.4-1.1 1.7-1.8 2.9-1.4 1.2 0.5 1.9 1.8 1.4 3l-0.9 2.8c-0.5 1.2-1.8 1.8-3 1.4-1.2-0.4-1.8-1.7-1.4-2.9z"/><path class="w" d="m622.2 446.4l0.9-2.9c0.4-1.2 1.7-1.8 2.9-1.4 1.2 0.4 1.9 1.7 1.5 2.9l-1 2.8c-0.4 1.2-1.7 1.9-2.9 1.5-1.2-0.4-1.8-1.7-1.4-2.9z"/><path class="w" d="m625.3 436.9l1-2.9c0.4-1.1 1.6-1.8 2.8-1.4 1.2 0.4 1.9 1.7 1.5 2.8l-0.9 2.9c-0.4 1.2-1.7 1.9-2.9 1.5-1.2-0.4-1.9-1.7-1.5-2.9z"/><path class="w" d="m628.4 427.4l0.9-2.9c0.4-1.2 1.6-1.8 2.8-1.4 1.2 0.3 1.9 1.6 1.5 2.8l-0.9 2.9c-0.4 1.1-1.6 1.8-2.8 1.4-1.2-0.3-1.9-1.6-1.5-2.8z"/><path class="w" d="m631.4 417.9l0.9-2.9c0.3-1.2 1.6-1.9 2.8-1.5 1.2 0.4 1.8 1.6 1.5 2.8l-0.9 2.9c-0.4 1.2-1.6 1.8-2.8 1.5-1.2-0.4-1.9-1.6-1.5-2.8z"/><path class="w" d="m634.3 408.3l0.9-2.9c0.4-1.1 1.6-1.8 2.8-1.4 1.2 0.3 1.9 1.6 1.5 2.8l-0.9 2.8c-0.3 1.2-1.6 1.9-2.8 1.5-1.2-0.3-1.8-1.6-1.5-2.8z"/><path class="w" d="m637.3 398.8l0.9-2.9c0.3-1.2 1.6-1.8 2.7-1.5 1.2 0.4 1.9 1.6 1.5 2.8l-0.9 2.9c-0.3 1.1-1.6 1.8-2.7 1.4-1.2-0.3-1.9-1.6-1.5-2.7z"/><path class="w" d="m640.2 389.2l0.9-2.9c0.4-1.1 1.6-1.8 2.8-1.4 1.1 0.3 1.8 1.6 1.4 2.7l-0.9 2.9c-0.3 1.2-1.6 1.8-2.7 1.5-1.2-0.4-1.8-1.6-1.5-2.8z"/><path class="w" d="m643.2 379.6l0.9-2.8c0.4-1.2 1.6-1.8 2.7-1.5 1.2 0.4 1.8 1.6 1.5 2.8l-0.9 2.8c-0.4 1.2-1.6 1.8-2.8 1.5-1.1-0.4-1.8-1.6-1.4-2.8z"/><path class="w" d="m646.2 370.1l0.9-2.9c0.4-1.1 1.6-1.8 2.8-1.4 1.1 0.4 1.8 1.6 1.4 2.8l-0.9 2.8c-0.4 1.2-1.6 1.8-2.8 1.4-1.1-0.3-1.8-1.6-1.4-2.7z"/><path class="w" d="m649.3 360.6l1-2.9c0.4-1.1 1.6-1.7 2.7-1.4 1.2 0.4 1.8 1.6 1.4 2.8l-1 2.8c-0.3 1.2-1.6 1.8-2.7 1.4-1.1-0.4-1.8-1.6-1.4-2.7z"/><path class="w" d="m652.5 351.1l1-2.9c0.4-1.1 1.7-1.7 2.8-1.3 1.1 0.4 1.7 1.6 1.3 2.7l-1 2.9c-0.4 1.1-1.6 1.7-2.7 1.3-1.1-0.4-1.7-1.6-1.4-2.7z"/><path class="w" d="m655.9 341.6l1-2.8c0.4-1.1 1.7-1.7 2.8-1.3 1.1 0.4 1.7 1.6 1.3 2.7l-1.1 2.9c-0.4 1.1-1.6 1.6-2.7 1.2-1.1-0.4-1.7-1.6-1.3-2.7z"/><path class="w" d="m659.4 332.2l1.1-2.8c0.4-1.1 1.6-1.7 2.7-1.2 1.1 0.4 1.7 1.6 1.3 2.7l-1.1 2.8c-0.4 1.1-1.7 1.7-2.8 1.2-1.1-0.4-1.6-1.6-1.2-2.7z"/><path class="w" d="m663.1 322.8l1.1-2.7c0.5-1.1 1.7-1.6 2.8-1.2 1.1 0.5 1.6 1.7 1.1 2.8l-1.1 2.7c-0.4 1.1-1.7 1.7-2.7 1.2-1.1-0.4-1.7-1.7-1.2-2.7z"/><path class="w" d="m667 313.6l1.2-2.8c0.5-1 1.7-1.5 2.8-1 1 0.4 1.5 1.7 1 2.7l-1.2 2.8c-0.4 1-1.7 1.5-2.7 1.1-1.1-0.5-1.6-1.7-1.1-2.8z"/><path class="w" d="m671.1 304.4l1.3-2.7c0.5-1 1.7-1.5 2.8-1 1 0.5 1.4 1.7 1 2.8l-1.3 2.7c-0.5 1-1.7 1.5-2.8 1-1-0.5-1.5-1.7-1-2.8z"/><path class="w" d="m675.5 295.4l1.4-2.7c0.5-1 1.8-1.4 2.8-0.9 1 0.5 1.3 1.8 0.8 2.8l-1.3 2.6c-0.5 1-1.8 1.4-2.8 0.9-1-0.5-1.4-1.7-0.9-2.7z"/><path class="w" d="m680.3 286.5l1.5-2.6c0.5-1 1.7-1.3 2.7-0.8 0.9 0.5 1.3 1.8 0.7 2.7l-1.4 2.6c-0.5 1-1.8 1.4-2.7 0.8-1-0.5-1.4-1.7-0.8-2.7z"/><path class="w" d="m685.3 277.8l1.6-2.6c0.6-0.9 1.8-1.2 2.7-0.6 0.9 0.5 1.2 1.7 0.7 2.6l-1.6 2.6c-0.6 0.9-1.8 1.3-2.7 0.7-0.9-0.6-1.2-1.8-0.7-2.7z"/><path class="w" d="m690.7 269.2l1.7-2.4c0.6-0.9 1.7-1.2 2.6-0.6 0.9 0.6 1.1 1.8 0.6 2.7l-1.7 2.5c-0.6 0.9-1.7 1.1-2.6 0.5-0.9-0.5-1.2-1.7-0.6-2.6z"/><path class="w" d="m696.4 260.9l1.7-2.4c0.6-0.8 1.8-1 2.7-0.4 0.8 0.6 1 1.7 0.4 2.6l-1.7 2.4c-0.6 0.9-1.8 1.1-2.7 0.5-0.8-0.6-1-1.8-0.4-2.7z"/><path class="w" d="m702.4 252.8l1.8-2.3c0.7-0.8 1.8-1 2.6-0.3 0.8 0.6 1 1.7 0.3 2.5l-1.8 2.4c-0.6 0.8-1.8 1-2.6 0.3-0.8-0.6-0.9-1.7-0.3-2.5z"/><path class="w" d="m708.7 245l1.9-2.3c0.7-0.8 1.8-0.8 2.6-0.2 0.7 0.6 0.8 1.8 0.2 2.5l-1.9 2.3c-0.7 0.8-1.8 0.9-2.6 0.3-0.8-0.7-0.9-1.8-0.2-2.6z"/><path class="w" d="m715.3 237.4l2.1-2.2c0.6-0.7 1.8-0.7 2.5-0.1 0.7 0.7 0.7 1.8 0.1 2.5l-2.1 2.2c-0.6 0.7-1.7 0.8-2.5 0.1-0.7-0.6-0.7-1.8-0.1-2.5z"/><path class="w" d="m722.3 230.1l2.1-2.1c0.7-0.6 1.8-0.6 2.5 0 0.6 0.7 0.6 1.8 0 2.5l-2.2 2.1c-0.6 0.7-1.7 0.7-2.4 0-0.7-0.7-0.7-1.8 0-2.5z"/><path class="w" d="m729.6 223.2l2.2-2c0.7-0.6 1.8-0.6 2.4 0.1 0.6 0.7 0.6 1.8-0.1 2.4l-2.2 2c-0.7 0.6-1.8 0.6-2.4-0.1-0.6-0.7-0.6-1.8 0.1-2.4z"/><path class="w" d="m737.3 216.6l2.3-1.9c0.7-0.5 1.7-0.4 2.3 0.3 0.6 0.7 0.4 1.7-0.2 2.3l-2.4 1.9c-0.7 0.5-1.7 0.4-2.3-0.3-0.6-0.7-0.5-1.7 0.2-2.3q0 0 0.1 0z"/><path class="w" d="m745.2 210.4l2.5-1.7c0.7-0.5 1.7-0.3 2.2 0.4 0.5 0.7 0.3 1.6-0.4 2.1l-2.4 1.8c-0.7 0.5-1.7 0.4-2.2-0.3-0.5-0.7-0.4-1.7 0.3-2.3q0 0 0 0z"/><path class="w" d="m753.6 204.7l2.5-1.6c0.7-0.4 1.6-0.2 2.1 0.5 0.4 0.7 0.2 1.6-0.5 2.1l-2.5 1.6c-0.7 0.5-1.6 0.3-2.1-0.4-0.5-0.7-0.2-1.7 0.5-2.1q0-0.1 0-0.1z"/><path class="w" d="m762.2 199.6l2.7-1.5c0.7-0.4 1.5-0.1 1.9 0.6 0.4 0.7 0.1 1.6-0.5 1.9l-2.7 1.5c-0.7 0.4-1.5 0.2-1.9-0.5-0.4-0.7-0.2-1.6 0.5-2q0 0 0 0z"/><path class="w" d="m771.2 194.9l2.7-1.2c0.7-0.3 1.5 0 1.9 0.7 0.3 0.6 0 1.5-0.7 1.8l-2.7 1.3c-0.7 0.3-1.5 0-1.9-0.7-0.3-0.7 0-1.5 0.7-1.9q0 0 0 0z"/><path class="w" d="m780.5 190.9l2.8-1c0.7-0.3 1.4 0.1 1.7 0.7 0.2 0.7-0.1 1.5-0.8 1.7l-2.8 1.1c-0.7 0.3-1.4 0-1.7-0.7-0.3-0.7 0.1-1.5 0.8-1.8q0 0 0 0z"/><path class="w" d="m790 187.6l2.9-0.8c0.6-0.2 1.3 0.2 1.5 0.8 0.2 0.7-0.2 1.3-0.8 1.5l-2.9 0.9c-0.6 0.2-1.3-0.1-1.5-0.8-0.3-0.7 0.1-1.4 0.8-1.6q0 0 0 0z"/><path class="w" d="m799.8 185l2.9-0.6c0.6-0.1 1.2 0.3 1.4 0.9 0.1 0.6-0.3 1.2-0.9 1.4l-2.9 0.7c-0.7 0.1-1.3-0.3-1.5-0.9-0.1-0.7 0.3-1.3 0.9-1.5q0 0 0.1 0z"/><path class="w" d="m809.7 183.2l3-0.4c0.5-0.1 1.1 0.4 1.2 0.9 0 0.6-0.4 1.2-1 1.3l-2.9 0.4c-0.6 0.1-1.2-0.3-1.3-0.9-0.1-0.6 0.4-1.2 1-1.3q0 0 0 0z"/><path class="w" d="m819.7 182.2l2.4-0.1c0.5-0.1 1 0.3 1 0.9 0 0.5-0.4 1-0.9 1l-2.4 0.2c-0.5 0.1-1-0.4-1.1-0.9 0-0.6 0.4-1.1 1-1.1q0 0 0 0z"/><path class="w" d="m392.8 717l3-0.3c0.6 0 1.1 0.4 1.1 0.9 0.1 0.6-0.3 1.1-0.9 1.2q0 0 0 0l-3 0.2c-0.6 0-1.1-0.4-1.1-0.9 0-0.6 0.4-1.1 0.9-1.1z"/><path class="w" d="m402.8 716l2.9-0.3c0.7-0.1 1.2 0.4 1.3 1 0.1 0.6-0.4 1.2-1 1.2q0 0 0 0l-3 0.3c-0.6 0.1-1.2-0.4-1.2-1-0.1-0.6 0.4-1.1 1-1.2z"/><path class="w" d="m412.7 714.9l3-0.4c0.6 0 1.2 0.4 1.3 1.1 0.1 0.7-0.4 1.3-1 1.4q-0.1 0-0.1 0l-3 0.3c-0.6 0.1-1.2-0.4-1.3-1.1 0-0.6 0.4-1.2 1.1-1.3z"/><path class="w" d="m422.6 713.7l3-0.4c0.7-0.1 1.3 0.4 1.4 1.1 0.1 0.7-0.4 1.4-1.1 1.5q0 0 0 0l-3 0.3c-0.7 0.1-1.3-0.4-1.4-1.1-0.1-0.7 0.4-1.3 1.1-1.4z"/><path class="w" d="m432.5 712.3l2.9-0.4c0.8-0.2 1.5 0.4 1.6 1.1 0.1 0.8-0.4 1.5-1.1 1.6q-0.1 0-0.1 0l-2.9 0.4c-0.8 0.1-1.5-0.4-1.6-1.2-0.1-0.7 0.5-1.4 1.2-1.5z"/><path class="w" d="m442.3 710.8l3-0.5c0.8-0.1 1.5 0.4 1.7 1.2 0.1 0.8-0.4 1.5-1.2 1.7q0 0 0 0l-3 0.4c-0.8 0.1-1.5-0.4-1.6-1.2-0.2-0.8 0.4-1.5 1.1-1.6z"/><path class="w" d="m452.2 709.1l2.9-0.5c0.9-0.2 1.7 0.4 1.8 1.2 0.2 0.8-0.4 1.6-1.2 1.8q0 0 0 0l-3 0.5c-0.8 0.1-1.6-0.4-1.7-1.3-0.2-0.8 0.4-1.5 1.2-1.7z"/><path class="w" d="m462 707.3l2.9-0.6c0.9-0.1 1.7 0.4 1.9 1.3 0.2 0.9-0.4 1.7-1.3 1.9q0 0 0 0l-2.9 0.5c-0.9 0.2-1.7-0.4-1.9-1.3-0.1-0.8 0.4-1.6 1.3-1.8z"/><path class="w" d="m471.8 705.3l2.9-0.6c0.9-0.2 1.8 0.4 2 1.3 0.2 0.9-0.4 1.8-1.3 2l-3 0.6c-0.9 0.2-1.7-0.4-1.9-1.3-0.2-0.9 0.4-1.8 1.3-2z"/><path class="w" d="m481.5 703.2l2.9-0.6c1-0.2 1.9 0.4 2.1 1.3 0.2 0.9-0.4 1.8-1.3 2l-2.9 0.7c-1 0.2-1.9-0.4-2.1-1.3-0.2-0.9 0.4-1.9 1.3-2.1z"/><path class="w" d="m491.2 701l3-0.7c0.9-0.2 1.9 0.3 2.1 1.3 0.2 0.9-0.4 1.9-1.3 2.1l-3 0.7c-0.9 0.2-1.8-0.4-2.1-1.3-0.2-0.9 0.4-1.9 1.3-2.1z"/><path class="w" d="m500.9 698.6l2.9-0.8c1-0.2 2 0.4 2.2 1.3 0.3 1-0.3 2-1.3 2.2l-2.9 0.8c-1 0.2-1.9-0.4-2.2-1.3-0.2-1 0.4-2 1.3-2.2z"/><path class="w" d="m510.6 696l2.8-0.8c1-0.2 2.1 0.3 2.3 1.3 0.3 1-0.3 2-1.3 2.3l-2.9 0.8c-1 0.2-2-0.3-2.2-1.3-0.3-1 0.3-2 1.3-2.3z"/><path class="w" d="m520.1 693.3l2.9-0.8c1-0.3 2.1 0.2 2.4 1.2 0.3 1-0.3 2.1-1.3 2.4l-2.9 0.8c-1 0.3-2-0.3-2.3-1.3-0.3-1 0.3-2 1.2-2.3z"/><path class="w" d="m529.7 690.4l2.9-0.9c1-0.3 2.1 0.3 2.4 1.3 0.3 1-0.3 2.1-1.3 2.4l-2.9 0.9c-1 0.3-2.1-0.3-2.4-1.3-0.3-1 0.3-2.1 1.3-2.4z"/><path class="w" d="m539.2 687.4l2.8-1c1.1-0.3 2.2 0.2 2.5 1.3 0.4 1-0.2 2.1-1.2 2.5l-2.9 0.9c-1 0.4-2.1-0.2-2.5-1.3-0.3-1 0.3-2.1 1.3-2.4z"/><path class="w" d="m548.6 684.1l2.8-1c1.1-0.3 2.3 0.2 2.6 1.3 0.4 1-0.1 2.2-1.2 2.6l-2.9 1c-1 0.3-2.2-0.2-2.5-1.3-0.4-1 0.2-2.2 1.2-2.6z"/><path class="w" d="m558 680.7l2.8-1c1.1-0.4 2.3 0.1 2.7 1.2 0.4 1.1-0.2 2.3-1.2 2.7h-0.1l-2.8 1c-1.1 0.4-2.2-0.1-2.6-1.2-0.4-1.1 0.1-2.3 1.2-2.7z"/><path class="w" d="m567.3 677.2l2.8-1.1c1.1-0.4 2.3 0.1 2.7 1.2 0.4 1.1-0.1 2.3-1.2 2.7l-2.8 1.1c-1.1 0.4-2.3-0.1-2.7-1.2-0.4-1.1 0.1-2.3 1.2-2.7z"/><path class="w" d="m576.5 673.5l2.8-1.2c1.1-0.4 2.3 0.1 2.8 1.2 0.4 1.1-0.1 2.3-1.2 2.8l-2.7 1.1c-1.1 0.5-2.4-0.1-2.8-1.1-0.5-1.1 0-2.4 1.1-2.8z"/><path class="w" d="m585.7 669.6l2.7-1.2c1.1-0.5 2.4 0 2.9 1.1 0.4 1.1-0.1 2.4-1.1 2.8l-2.8 1.2c-1.1 0.5-2.3 0-2.8-1.1-0.5-1.1 0-2.3 1.1-2.8z"/><path class="w" d="m594.8 665.5l2.7-1.2c1.1-0.5 2.4 0 2.9 1 0.5 1.1 0 2.4-1.1 2.9l-2.7 1.3c-1.1 0.5-2.4 0-2.9-1.1-0.5-1.1 0-2.4 1.1-2.9z"/><path class="w" d="m603.8 661.3l2.7-1.3c1.1-0.5 2.4-0.1 2.9 1 0.5 1.1 0.1 2.4-1 2.9l-2.7 1.3c-1.1 0.5-2.4 0.1-2.9-1-0.5-1.1-0.1-2.4 1-2.9z"/><path class="w" d="m612.7 656.9l2.7-1.4c1.1-0.5 2.4-0.1 2.9 1 0.6 1.1 0.2 2.4-0.9 2.9l-2.7 1.4c-1.1 0.5-2.4 0.1-2.9-1-0.6-1-0.2-2.4 0.9-2.9z"/><path class="w" d="m621.5 652.3l2.7-1.4c1.1-0.6 2.4-0.2 3 0.9 0.5 1.1 0.1 2.4-0.9 3l-2.7 1.4c-1.1 0.6-2.4 0.2-3-0.9-0.5-1.1-0.1-2.4 0.9-3z"/><path class="w" d="m630.3 647.5l2.6-1.4c1.1-0.6 2.4-0.3 3 0.8 0.6 1.1 0.2 2.4-0.8 3l-2.7 1.5c-1 0.6-2.4 0.2-3-0.8-0.6-1.1-0.2-2.5 0.9-3.1z"/><path class="w" d="m638.9 642.6l2.6-1.6c1-0.6 2.4-0.2 3.1 0.8 0.6 1.1 0.2 2.5-0.8 3.1l-2.6 1.5c-1.1 0.7-2.5 0.3-3.1-0.8-0.6-1-0.3-2.4 0.8-3z"/><path class="w" d="m647.4 637.4l2.6-1.5c1-0.7 2.4-0.4 3.1 0.7 0.6 1 0.3 2.4-0.7 3.1h-0.1l-2.5 1.6c-1.1 0.6-2.4 0.3-3.1-0.8-0.7-1-0.3-2.4 0.7-3.1z"/><path class="w" d="m655.8 632.1l2.5-1.6c1.1-0.7 2.5-0.4 3.2 0.6 0.7 1.1 0.4 2.5-0.7 3.2l-2.5 1.6c-1 0.7-2.4 0.4-3.1-0.7-0.7-1-0.4-2.4 0.6-3.1z"/><path class="w" d="m664.1 626.6l2.5-1.7c1-0.7 2.5-0.4 3.2 0.6 0.7 1 0.4 2.5-0.6 3.2l-2.5 1.7c-1 0.7-2.5 0.4-3.2-0.6-0.7-1.1-0.4-2.5 0.6-3.2z"/><path class="w" d="m672.3 620.9l2.4-1.7c1.1-0.8 2.5-0.5 3.2 0.5 0.8 1 0.5 2.5-0.5 3.2l-2.4 1.8c-1.1 0.7-2.5 0.5-3.2-0.6-0.8-1-0.5-2.4 0.5-3.2z"/><path class="w" d="m680.3 615.1l2.4-1.8c1-0.8 2.5-0.6 3.3 0.4 0.7 1 0.5 2.5-0.5 3.3l-2.4 1.8c-1 0.7-2.5 0.5-3.2-0.5-0.8-1-0.6-2.5 0.4-3.2z"/><path class="w" d="m688.2 609l2.4-1.8c1-0.8 2.4-0.6 3.2 0.4 0.8 1 0.6 2.4-0.4 3.2l-2.3 1.9c-1 0.7-2.5 0.6-3.3-0.4-0.7-1-0.6-2.5 0.4-3.3z"/><path class="w" d="m696 602.8l2.3-1.9c1-0.8 2.5-0.6 3.3 0.3 0.8 1 0.6 2.5-0.3 3.3l-2.4 1.9c-0.9 0.8-2.4 0.6-3.2-0.3-0.8-1-0.7-2.5 0.3-3.3z"/><path class="w" d="m703.7 596.5l2.2-2c1-0.8 2.4-0.7 3.3 0.2 0.8 1 0.7 2.4-0.3 3.3l-2.3 1.9c-0.9 0.9-2.4 0.7-3.2-0.2-0.8-1-0.7-2.4 0.3-3.2z"/><path class="w" d="m711.1 589.9l2.3-2c0.9-0.8 2.3-0.8 3.2 0.2 0.8 0.9 0.8 2.3-0.2 3.2l-2.2 2c-0.9 0.8-2.4 0.8-3.2-0.2-0.9-0.9-0.8-2.3 0.1-3.2z"/><path class="w" d="m718.5 583.2l2.2-2.1c0.9-0.8 2.3-0.8 3.2 0.1 0.8 0.9 0.8 2.4-0.1 3.2l-2.2 2.1c-0.9 0.9-2.3 0.8-3.2-0.1-0.9-0.9-0.8-2.3 0.1-3.2z"/><path class="w" d="m725.7 576.3l2.1-2.1c0.9-0.9 2.3-0.9 3.2 0 0.9 0.9 0.8 2.3 0 3.2l-2.2 2.1c-0.8 0.9-2.3 0.9-3.2 0-0.8-0.9-0.8-2.3 0.1-3.2z"/><path class="w" d="m732.7 569.3l2.1-2.2c0.8-0.9 2.2-0.9 3.1-0.1 0.9 0.9 0.9 2.3 0.1 3.2l-2.1 2.2c-0.8 0.9-2.3 0.9-3.2 0-0.9-0.8-0.9-2.2 0-3.1z"/><path class="w" d="m739.5 562l2-2.2c0.9-0.9 2.3-0.9 3.2-0.1 0.9 0.8 1 2.2 0.1 3.1l-2 2.3c-0.8 0.9-2.2 0.9-3.1 0.1-1-0.8-1-2.2-0.2-3.2z"/><path class="w" d="m746.2 554.7l2-2.3c0.8-0.9 2.2-1 3.1-0.2 0.9 0.8 1 2.2 0.2 3.1l-2 2.3c-0.8 0.9-2.2 1-3.1 0.2-0.9-0.8-1-2.2-0.2-3.1z"/><path class="w" d="m752.7 547.1l1.9-2.3c0.8-0.9 2.2-1.1 3.1-0.3 0.9 0.8 1.1 2.2 0.3 3.1l-1.9 2.3c-0.8 1-2.2 1.1-3.1 0.3-1-0.8-1.1-2.2-0.3-3.1z"/><path class="w" d="m758.9 539.4l1.9-2.4c0.8-0.9 2.1-1.1 3.1-0.3 0.9 0.7 1.1 2.1 0.4 3.1l-1.9 2.3c-0.7 1-2.1 1.1-3.1 0.4-0.9-0.8-1.1-2.1-0.4-3.1z"/><path class="w" d="m765 531.5l1.8-2.4c0.8-0.9 2.1-1.1 3.1-0.4 1 0.7 1.2 2.1 0.4 3l-1.8 2.5c-0.7 0.9-2.1 1.1-3 0.4-1-0.7-1.2-2.1-0.5-3.1z"/><path class="w" d="m770.9 523.5l1.7-2.4c0.7-1 2.1-1.2 3.1-0.5 1 0.6 1.2 2 0.5 3l-1.7 2.4c-0.7 1-2.1 1.3-3.1 0.6-0.9-0.7-1.2-2.1-0.5-3.1z"/><path class="w" d="m776.6 515.4l1.6-2.5c0.7-1 2.1-1.3 3.1-0.6 1 0.6 1.2 2 0.6 3l-1.7 2.5c-0.7 1-2 1.2-3 0.6-1-0.7-1.3-2-0.6-3z"/><path class="w" d="m782 507l1.6-2.5c0.7-1 2-1.3 3-0.7 1 0.7 1.3 2 0.7 3l-1.6 2.5c-0.6 1.1-2 1.4-3 0.7-1-0.6-1.3-1.9-0.7-3z"/><path class="w" d="m787.3 498.6l1.5-2.6c0.6-1 1.9-1.3 2.9-0.7 1 0.6 1.4 1.9 0.8 2.9l-1.5 2.6c-0.6 1-2 1.3-3 0.7-1-0.6-1.4-1.9-0.7-2.9z"/><path class="w" d="m792.2 490l1.5-2.6c0.6-1.1 1.9-1.4 2.9-0.8 1 0.5 1.4 1.8 0.8 2.9l-1.4 2.6c-0.6 1-1.9 1.4-2.9 0.8-1.1-0.6-1.4-1.9-0.9-2.9z"/><path class="w" d="m797 481.3l1.4-2.7c0.5-1 1.8-1.4 2.9-0.9 1 0.6 1.4 1.8 0.9 2.9l-1.4 2.6c-0.6 1.1-1.9 1.5-2.9 0.9-1-0.5-1.4-1.8-0.9-2.8z"/><path class="w" d="m801.5 472.4l1.3-2.7c0.5-1 1.8-1.5 2.8-1 1.1 0.6 1.5 1.8 1 2.9l-1.3 2.7c-0.5 1-1.8 1.5-2.8 0.9-1.1-0.5-1.5-1.7-1-2.8z"/><path class="w" d="m805.8 463.4l1.2-2.7c0.5-1 1.8-1.5 2.8-1 1.1 0.5 1.5 1.7 1 2.7l-1.2 2.8c-0.5 1-1.7 1.5-2.8 1-1-0.4-1.5-1.7-1-2.8z"/><path class="w" d="m809.9 454.4l1.2-2.8c0.4-1 1.6-1.5 2.7-1.1 1 0.5 1.5 1.7 1 2.7l-1.1 2.8c-0.5 1-1.7 1.5-2.7 1.1-1.1-0.5-1.6-1.7-1.1-2.7z"/><path class="w" d="m813.8 445.2l1.1-2.8c0.4-1 1.6-1.5 2.7-1.1 1 0.4 1.5 1.6 1.1 2.7l-1.2 2.7c-0.4 1.1-1.6 1.6-2.6 1.2-1.1-0.5-1.6-1.6-1.1-2.7z"/><path class="w" d="m817.5 436l1.1-2.8c0.4-1.1 1.6-1.6 2.6-1.1 1 0.4 1.6 1.5 1.2 2.5l-1.1 2.8c-0.4 1.1-1.6 1.6-2.6 1.2-1.1-0.4-1.6-1.6-1.2-2.6z"/><path class="w" d="m821.2 426.7l1-2.8c0.4-1 1.6-1.5 2.6-1.2 1 0.4 1.5 1.6 1.1 2.6l-1 2.8c-0.4 1-1.6 1.5-2.6 1.1-1-0.3-1.5-1.5-1.1-2.5z"/><path class="w" d="m824.7 417.3l1.1-2.8c0.3-1 1.5-1.5 2.5-1.1 1 0.4 1.5 1.5 1.1 2.5l-1 2.8c-0.4 1-1.5 1.5-2.5 1.2-1-0.4-1.6-1.5-1.2-2.5z"/><path class="w" d="m828.2 408l1.1-2.8c0.3-1 1.4-1.5 2.4-1.1 1 0.3 1.5 1.4 1.1 2.4l-1 2.8c-0.4 1-1.5 1.5-2.4 1.2-1-0.4-1.6-1.5-1.2-2.5z"/><path class="w" d="m831.7 398.6l1-2.8c0.4-1 1.5-1.5 2.4-1.1 1 0.3 1.5 1.4 1.2 2.4l-1.1 2.8c-0.3 1-1.4 1.5-2.4 1.1-1-0.3-1.5-1.4-1.1-2.4z"/><path class="w" d="m835.2 389.2l1-2.8c0.4-0.9 1.5-1.4 2.4-1.1 1 0.4 1.4 1.4 1.1 2.4l-1 2.8c-0.4 1-1.5 1.5-2.4 1.1-1-0.3-1.5-1.4-1.1-2.4z"/><path class="w" d="m838.7 379.9l1.1-2.9c0.3-0.9 1.4-1.4 2.3-1 0.9 0.4 1.4 1.4 1.1 2.3l-1.1 2.8c-0.3 1-1.4 1.5-2.3 1.1-1-0.3-1.4-1.4-1.1-2.3z"/><path class="w" d="m842.3 370.5l1.1-2.8c0.4-0.9 1.4-1.4 2.3-1 0.9 0.4 1.4 1.4 1 2.3l-1.1 2.8c-0.3 0.9-1.3 1.4-2.3 1-0.9-0.3-1.3-1.4-1-2.3z"/><path class="w" d="m846 361.2l1.2-2.8c0.3-0.9 1.3-1.3 2.2-0.9 0.9 0.3 1.4 1.3 1 2.2l-1.1 2.8c-0.4 0.9-1.4 1.3-2.3 1-0.9-0.4-1.3-1.4-1-2.3z"/><path class="w" d="m849.9 351.9l1.2-2.7c0.3-0.9 1.3-1.3 2.2-0.9 0.9 0.3 1.3 1.3 0.9 2.2l-1.1 2.8c-0.4 0.9-1.4 1.3-2.3 0.9-0.9-0.4-1.3-1.4-0.9-2.3z"/><path class="w" d="m853.9 342.7l1.2-2.7c0.4-0.8 1.4-1.2 2.3-0.8 0.8 0.3 1.2 1.3 0.8 2.2l-1.2 2.7c-0.4 0.9-1.4 1.3-2.3 0.9-0.8-0.4-1.2-1.4-0.8-2.3z"/><path class="w" d="m858.1 333.6l1.3-2.7c0.4-0.8 1.4-1.1 2.2-0.7 0.9 0.4 1.2 1.3 0.8 2.2l-1.3 2.7c-0.4 0.8-1.4 1.1-2.2 0.8-0.8-0.4-1.2-1.4-0.8-2.3z"/><path class="w" d="m862.6 324.6l1.4-2.6c0.4-0.8 1.4-1.1 2.2-0.7 0.7 0.4 1 1.4 0.6 2.1l-1.3 2.7c-0.4 0.8-1.4 1.1-2.2 0.7-0.8-0.4-1.1-1.4-0.7-2.1q0-0.1 0-0.1z"/><path class="w" d="m867.4 315.8l1.4-2.6c0.4-0.8 1.4-1 2.1-0.6 0.8 0.4 1 1.3 0.6 2.1l-1.4 2.6c-0.4 0.7-1.4 1-2.1 0.6-0.8-0.4-1.1-1.4-0.6-2.1q0 0 0 0z"/><path class="w" d="m872.4 307.1l1.5-2.6c0.5-0.7 1.4-0.9 2.1-0.5 0.7 0.4 0.9 1.3 0.5 2l-1.6 2.6c-0.4 0.7-1.3 1-2 0.5-0.7-0.4-0.9-1.3-0.5-2q0 0 0 0z"/><path class="w" d="m877.7 298.5l1.6-2.5c0.5-0.6 1.4-0.8 2-0.4 0.7 0.5 0.8 1.3 0.4 2l-1.6 2.5c-0.4 0.7-1.3 0.9-2 0.4-0.6-0.4-0.8-1.3-0.4-1.9q0-0.1 0-0.1z"/><path class="w" d="m883.3 290.2l1.8-2.4c0.4-0.6 1.3-0.8 1.9-0.3 0.6 0.4 0.7 1.2 0.3 1.9l-1.7 2.4c-0.4 0.6-1.3 0.8-1.9 0.4-0.7-0.5-0.8-1.3-0.4-2q0 0 0 0z"/><path class="w" d="m889.3 282.1l1.9-2.3c0.4-0.6 1.2-0.7 1.8-0.3 0.6 0.5 0.7 1.3 0.2 1.9l-1.8 2.4c-0.4 0.5-1.3 0.6-1.8 0.2-0.6-0.4-0.7-1.3-0.3-1.9q0 0 0 0z"/><path class="w" d="m895.7 274.3l1.9-2.3c0.5-0.5 1.3-0.5 1.8-0.1 0.5 0.5 0.6 1.2 0.1 1.8l-1.9 2.3c-0.5 0.5-1.3 0.6-1.8 0.1-0.5-0.4-0.6-1.2-0.2-1.8q0.1 0 0.1 0z"/><path class="w" d="m902.4 266.8l2.1-2.1c0.4-0.5 1.2-0.5 1.6-0.1 0.5 0.5 0.5 1.2 0.1 1.7l-2.1 2.2c-0.4 0.5-1.2 0.5-1.7 0-0.5-0.4-0.5-1.2 0-1.7q0 0 0 0z"/><path class="w" d="m909.5 259.7l2.2-2c0.4-0.5 1.2-0.5 1.6 0 0.4 0.5 0.4 1.2-0.1 1.6l-2.1 2.1c-0.5 0.4-1.2 0.4-1.7-0.1-0.4-0.4-0.4-1.2 0.1-1.6q0 0 0 0z"/><path class="w" d="m917 253l2.3-1.9c0.4-0.4 1.1-0.3 1.5 0.1 0.4 0.5 0.3 1.1-0.1 1.5l-2.3 2c-0.5 0.4-1.2 0.3-1.6-0.2-0.4-0.4-0.3-1.1 0.2-1.5q0 0 0 0z"/><path class="w" d="m924.9 246.7l2.4-1.7c0.4-0.4 1.1-0.3 1.4 0.2 0.4 0.5 0.3 1.1-0.2 1.4l-2.4 1.8c-0.5 0.4-1.1 0.3-1.5-0.2-0.3-0.5-0.2-1.1 0.3-1.5q0 0 0 0z"/><path class="L" d="m872.2 142.6l7.7 15.7c0.7 1.4 2.1 2.4 3.7 2.6l17.2 2.5c4 0.6 5.6 5.5 2.7 8.3l-12.5 12.2c-1.1 1.1-1.6 2.7-1.4 4.2l3 17.2c0.7 4-3.5 7-7 5.1l-15.5-8.1c-1.4-0.7-3.1-0.7-4.5 0l-15.4 8.1c-3.6 1.9-7.7-1.1-7.1-5.1l3-17.2c0.3-1.5-0.3-3.1-1.4-4.2l-12.5-12.2c-2.9-2.8-1.3-7.7 2.7-8.3l17.3-2.5c1.5-0.2 2.9-1.2 3.6-2.6l7.7-15.7c1.8-3.6 6.9-3.6 8.7 0z"/><path class="M" d="m887.8 208.1q-0.4 0-0.9-0.2l-15.4-8.2c-1.1-0.5-2.4-0.9-3.6-0.9-1.3 0-2.5 0.4-3.6 0.9l-15.5 8.2q-0.4 0.2-0.9 0.2c-0.5 0-1.1-0.3-1.5-0.7-0.2-0.3-0.5-0.8-0.4-1.6l3-17.2c0.4-2.5-0.4-5.1-2.3-6.8l-12.5-12.2c-0.7-0.8-0.6-1.6-0.4-2 0.1-0.3 0.4-1.1 1.5-1.3l17.3-2.5c2.5-0.4 4.7-2 5.8-4.3l7.7-15.6c0.5-1 1.4-1.1 1.8-1.1 0.3 0 1.2 0.1 1.7 1.1l7.7 15.6c1.1 2.3 3.3 3.9 5.9 4.3l17.2 2.5c1.1 0.2 1.5 1 1.6 1.3 0.1 0.4 0.3 1.2-0.5 2l-12.5 12.2c-1.8 1.7-2.7 4.3-2.2 6.8l2.9 17.2c0.1 0.8-0.1 1.3-0.4 1.6-0.4 0.4-0.9 0.7-1.5 0.7z"/><path class="w" d="m851.5 184.5c-0.2 0-0.4-0.2-0.4-0.3-0.5-1.6-1.4-3.1-2.6-4.2l-4.8-4.7c-0.2-0.1-0.2-0.4 0-0.6 0.2-0.2 0.5-0.2 0.6 0l4.8 4.6c1.3 1.3 2.2 2.9 2.8 4.6 0.1 0.2 0 0.5-0.3 0.5q0 0.1-0.1 0.1z"/><path class="w" d="m860.8 198.7c-0.1 0-0.3-0.1-0.4-0.3-0.1-0.2 0-0.4 0.2-0.6l2.1-1c1.6-0.9 3.4-1.3 5.2-1.3 1.8 0 3.6 0.4 5.1 1.3 0.3 0.1 0.3 0.3 0.2 0.5-0.1 0.3-0.3 0.3-0.6 0.2-1.4-0.7-3.1-1.1-4.7-1.1-1.7 0-3.3 0.4-4.8 1.1l-2.1 1.1q-0.1 0.1-0.2 0.1z"/><path class="w" d="m882.3 202.2q-0.5 0-1-0.2c-0.2-0.1-0.4-0.3-0.3-0.5 0.1-0.3 0.3-0.4 0.5-0.3 0.9 0.2 1.9 0 2.6-0.6 0.7-0.6 1-1.5 0.9-2.5l-1.6-8.9c-0.6-3.6 0.6-7.3 3.2-9.9l6.5-6.3c0.8-0.7 1-1.7 0.7-2.7-0.3-1-1.1-1.7-2.2-1.9l-8.9-1.3c-3.7-0.5-6.8-2.8-8.4-6.1l-4-8.1c-0.5-0.9-1.4-1.5-2.4-1.5-1.1 0-2 0.6-2.5 1.5l-4 8.1c-1.6 3.3-4.7 5.6-8.3 6.1l-9 1.3q-0.8 0.2-1.4 0.7c-0.2 0.1-0.5 0.1-0.6-0.1-0.2-0.1-0.2-0.4 0-0.6 0.5-0.4 1.2-0.7 1.9-0.8l8.9-1.3c3.4-0.5 6.3-2.6 7.8-5.7l4-8.1c0.6-1.2 1.8-2 3.2-2 1.3 0 2.6 0.8 3.2 2l4 8.1c1.5 3.1 4.4 5.2 7.7 5.7l8.9 1.3c1.4 0.2 2.5 1.1 2.9 2.4 0.5 1.3 0.1 2.7-0.9 3.7l-6.4 6.3c-2.5 2.3-3.6 5.7-3 9.1l1.5 8.9c0.2 1.2-0.2 2.4-1.1 3.3-0.7 0.5-1.5 0.9-2.4 0.9z"/><path class="L" d="m958.5 195.6l3.7 12.6c0.3 1.2 1.2 2.1 2.4 2.5l12.5 4.1c2.8 0.9 3.4 4.8 0.9 6.5l-10.9 7.4c-1 0.7-1.6 1.8-1.6 3l-0.1 13.2c0 3-3.5 4.7-5.9 2.9l-10.4-8.1c-0.9-0.7-2.2-0.9-3.4-0.6l-12.5 4c-2.9 1-5.6-1.8-4.6-4.7l4.5-12.4c0.4-1.1 0.2-2.4-0.5-3.4l-7.7-10.7c-1.8-2.4 0.1-5.8 3.1-5.8l13.2 0.4c1.2 0.1 2.3-0.5 3-1.5l7.8-10.6c1.8-2.4 5.6-1.8 6.5 1.2z"/><path class="N" d="m961.5 246.3q-0.3 0-0.6-0.3l-10.4-8c-0.8-0.6-1.7-1-2.6-1.2-0.9-0.1-1.9-0.1-2.8 0.2l-12.6 4q-0.3 0.1-0.7 0.1c-0.4-0.1-0.8-0.4-1-0.7-0.1-0.3-0.3-0.7-0.1-1.2l4.5-12.4c0.6-1.9 0.3-3.9-0.8-5.5l-7.7-10.7c-0.5-0.6-0.2-1.2-0.1-1.5 0.1-0.2 0.5-0.8 1.3-0.7l13.2 0.4c1.9 0 3.8-0.9 4.9-2.4l7.8-10.7c0.5-0.6 1.2-0.6 1.4-0.5 0.3 0 0.9 0.2 1.2 1l3.7 12.6c0.5 1.9 1.9 3.4 3.8 4l12.5 4.1c0.7 0.3 0.9 0.9 1 1.2 0 0.2 0 0.9-0.7 1.4l-10.9 7.4c-1.6 1.1-2.5 2.9-2.5 4.8l-0.1 13.2c0 0.6-0.3 0.9-0.5 1.1-0.3 0.3-0.8 0.4-1.2 0.3z"/><path class="w" d="m937.6 224c-0.2 0-0.3-0.2-0.3-0.3-0.2-1.2-0.6-2.4-1.4-3.4l-2.9-4.1c-0.1-0.2-0.1-0.4 0.1-0.5 0.1-0.1 0.3-0.1 0.4 0.1l3 4.1c0.8 1.1 1.3 2.4 1.5 3.7 0 0.2-0.1 0.4-0.3 0.4q-0.1 0-0.1 0z"/><path class="w" d="m942.7 235.8q-0.2-0.1-0.3-0.2c0-0.2 0-0.4 0.2-0.5l1.7-0.5c1.3-0.4 2.7-0.5 4-0.3 1.4 0.3 2.6 0.8 3.7 1.7 0.2 0.1 0.2 0.3 0.1 0.4-0.1 0.2-0.3 0.2-0.5 0.1-1-0.8-2.2-1.3-3.4-1.5-1.2-0.2-2.5-0.2-3.7 0.2l-1.7 0.6q-0.1 0-0.1 0z"/><path class="w" d="m958.2 241.2q-0.4-0.1-0.7-0.3c-0.2 0-0.3-0.2-0.2-0.4 0.1-0.2 0.3-0.2 0.5-0.1 0.6 0.3 1.3 0.2 1.9-0.1 0.6-0.4 1-1 1-1.8v-6.8c0-2.8 1.4-5.4 3.7-6.9l5.7-3.9c0.6-0.4 0.9-1.1 0.8-1.9-0.1-0.8-0.6-1.4-1.4-1.7l-6.4-2.1c-2.7-0.9-4.7-3-5.5-5.7l-1.9-6.5c-0.2-0.8-0.8-1.3-1.6-1.4-0.8-0.2-1.5 0.1-2 0.8l-4 5.5c-1.7 2.2-4.3 3.5-7.1 3.4l-6.8-0.2q-0.6 0-1.1 0.3c-0.2 0.1-0.4 0-0.5-0.1-0.1-0.2 0-0.4 0.1-0.5q0.7-0.4 1.5-0.4l6.8 0.2c2.6 0.1 5-1.1 6.5-3.1l4.1-5.5c0.6-0.9 1.6-1.3 2.6-1.1 1 0.2 1.9 0.9 2.1 1.9l2 6.6c0.7 2.4 2.5 4.3 5 5.1l6.5 2.2c0.9 0.3 1.6 1.2 1.8 2.2 0.1 1-0.3 2-1.2 2.6l-5.6 3.8c-2.1 1.5-3.4 3.9-3.4 6.4v6.8c0 1-0.5 1.8-1.3 2.3-0.6 0.4-1.3 0.5-1.9 0.4z"/><circle class="O" cx="538.5" cy="363.9" r="109.2"/><circle class="P" cx="538.5" cy="363.9" r="105.6"/><path class="w" d="m441.1 359.7q0 0 0 0c-0.6 0-1-0.5-1-1 0.2-4.2 0.7-8.3 1.4-12.4 0.1-0.5 0.7-0.9 1.2-0.8 0.6 0.1 0.9 0.6 0.8 1.2-0.7 3.9-1.2 8-1.4 12.1 0 0.5-0.5 0.9-1 0.9z"/><path class="w" d="m451.4 321q-0.2 0-0.5-0.1c-0.5-0.2-0.7-0.8-0.4-1.3 16.9-33.4 50.6-54.2 88-54.2 5.9 0 11.9 0.5 17.7 1.6 0.6 0.1 0.9 0.6 0.8 1.2-0.1 0.5-0.6 0.9-1.1 0.8-5.7-1.1-11.6-1.6-17.4-1.6-36.7 0-69.7 20.3-86.2 53.1-0.2 0.3-0.6 0.5-0.9 0.5z"/><circle class="Q" cx="540.8" cy="366.2" r="89.4"/><path class="R" d="m568.1 332.4c0 15.2-12.2 31.5-27.4 31.5-15.1 0-27.4-16.3-27.4-31.5 0-15.1 12.3-25.9 27.4-25.9 15.2 0 27.4 10.8 27.4 25.9z"/><path class="S" d="m491.1 410.2l-2.8-10.2c-2.2-8.2 2.3-16.9 10.4-19.5 28.8-9.6 57-10.9 84.2-1 8.1 3 12.4 11.9 9.8 20.2l-3.6 11.2c-2.2 6.7-8.4 11.3-15.5 11.3h-66.9c-7.3 0-13.7-4.9-15.6-12z"/><path class="T" d="m640.2 400.9q-4.2-4.8-3.1-7.5 1.1-2.7 5.4-35.3l7.4 15c1.2 2.4 1.2 5.2 0 7.6l-6.5 13 0.1 6.3z"/><path class="U" d="m716.3 419.1q7 3.4 8.3 7.3c1 3.1 8.8 3.5 9.5 9.7 0.4 3.2 2.8 5.8 6 6.3 7.9 1.2 20.1 5.3 22 19 1.5 10.5-3.8 14.5-9.5 15.9-4.1 1-6.8 5-6 9.1 0.8 4-0.4 8.6-7.3 12.3q-15.5 8.2-30.9-19.4l-3.2-48.1z"/><path class="V" d="m643.4 393.7q19.9 54.4 53.9 71.3-11.3 18.5-17.2 19.6-36.3-46.4-40-84.5z"/><path class="W" d="m782.7 717.4h9.2c2.7 2.8 4.5 7.6 5.5 10.8 0.6 1.7 0.1 13.4-3.9 13.8-6.5 0.6-11.5-9.3-12.5-13.2l-1-8.2c-0.2-1.7 1.1-3.2 2.7-3.2z"/><path class="X" d="m719.2 631.5l4.7 8.8c1.6 3.1 2.3 6.5 2 10l-4.9 58.6 3.8 5.2-0.5 2.7-22.8 13.5 9-14.6c1.7-2.8 2.5-6 2.4-9.3q-0.9-20.9-6.1-73.3l1.6-9.1z"/><path class="Y" d="m699.6 728.6q1.6-0.3 3-0.1 11.5-8.1 15.3-10.4 3.7-2.2 4.4-7.3c3 1.5 4.7 4.9 4.2 8.2l-2.2 13.4h-1.7q0.4-10.7-2.6-10.5c-2.3 0.1-7 5.9-9.3 8.8-0.8 1.1-2.1 1.7-3.4 1.7h-7.3c-2.4 0-2.7-3.4-0.4-3.8z"/><path class="Z" d="m755.2 628.4c12.6 9.6 15.9 20.1 18.8 29.8 2.9 9.6 8.2 37.4 10.6 43.5 2.1 5.2 7.7 16.5 9.4 20.1 0.5 1 0.5 2.1-0.1 3.1-0.7 1.1-2.1 2.2-5 2.2-5.5 0-7.5-1.5-7.6-3.1-0.1-1.1-1.8-12-6.6-25.1q-4.8-13.1-35.1-70.5 6.9-8.5 15.6 0z"/><path class="a0" d="m693.4 536.9q-13.8-36.3-15.3-43.6-2.5-12.4 19.2-28.3 11.1 2.7 22 8.4c7 3.6 9.7 12.2 5.9 19.2-4.7 8.7-9.1 22.9-4.7 41.7q-14.4 8.6-27.1 2.6z"/><path class="a1" d="m756.2 629.2q-29.9 7.9-49.4 3.9-12.3-65-14.3-75.2-2-10.1 0.9-21 12.7 6 27.1-2.6 14.1 6.8 17.3 16.4c3.2 9.5 6 56.5 18.4 78.5z"/><path class="a2" d="m711.4 443.2l6.4 28.5c0.6 2.5-1.7 2.1-4.2 1.6-4.2-0.8-9.5-2.4-11.3-5.6-0.2-0.4-0.3-0.7-0.4-1.1l-2.7-19.8c-0.2-1.5 0.6-3.1 2.1-3.7l5.2-2.3c2.1-0.9 4.4 0.2 4.9 2.4z"/><path class="a3" d="m714.4 440.2c-7.6 7-14.7 7.1-19.5 6.4-4.8-0.7-8.7-5.7-3.5-16.5q5.1-10.9 12.6-14.1c9.8-3.7 18 17.2 10.4 24.2z"/><path class="a4" d="m709.3 434.4q5.7-15.9-8.4-16.1l-3.3 2.3q-5.2-8.8 3.3-13c8.5-4.2 18.4-0.7 22 10.7 3.6 11.4 4.3 19.1-1.8 24.6q-6 5.4-8.4-0.8 3.2-5.1 1.9-7.8-1.3-2.8-4.4 0.5z"/><path class="a5" d="m710.9 436.2q2.9-8.2 6.7-5c3.8 3.3-3.1 7.6-5.8 9z"/><path class="a6" d="m632.1 424.3q16.7 58.1 84.1 52.6c4.3-0.3 8.1 2.9 8.4 7.2l0.2 2.3c0.5 6.3-4.6 11.5-10.9 11.2-22.4-1.1-70.5-9.9-87-63.2z"/><path class="a7" d="m626.9 434.4q-3.2-9.4-4-15.3c-0.8-5.9 2.1-19.2 4.7-22.9 2.5-3.7 3 5.4 4.1 9.7q1.2 4.3-0.8 10.4l1.2 8z"/><path class="a8" d="m182 641.7c0.4 0.7-0.1 1.7-0.9 1.7-4.1 0.3-15.4 0.8-29.7 0-0.8-0.1-1.5-0.7-1.5-1.5q0-0.2 0-0.5c1.5 0.6 4.1 1.1 8.7 0.9 7.5-0.4 17.1-1.1 22.6-1.6q0.4 0.5 0.8 1z"/><path class="a9" d="m149.9 641.4c0-2.4 0.4-7 3.8-11.9h4.9q17.2 4.5 22.6 11.2c-5.5 0.5-15.1 1.2-22.6 1.6-4.6 0.2-7.2-0.3-8.7-0.9z"/><path class="aa" d="m161.9 621.6l-1.5 8.8c-0.2 0.8-0.8 1.6-1.7 1.8-1.3 0.5-2.6 0.5-3.6 0.3-1-0.1-1.7-0.9-1.8-1.9l-0.4-9z"/><path class="ab" d="m98 641.8c-1 1.2-2.6 1.9-4.4 2-1.7 0.1-3.8-0.1-5.8-0.9-1.6-0.7-2.5-2.2-2.1-3.6q0 0 0 0c0.5 1.3 1.5 2.6 3.9 2.9 4 0.6 6.6 0.5 8.4-0.4z"/><path class="ac" d="m103.7 627.3c-0.8 3.7-2.4 10.1-5.7 14.5-1.8 0.9-4.4 1-8.4 0.4-2.4-0.3-3.4-1.6-3.9-2.9 1.3-5 5.1-17.9 11.2-17.8h4q3.7 1.6 2.8 5.8z"/><path class="ad" d="m106 615.2l-3.3 9.3c-0.2 0.7-0.9 1.3-1.6 1.4-1.6 0.2-3.4-0.5-4.7-1.1-1-0.6-1.5-1.7-1.2-2.8l2.2-8.8z"/><path class="ae" d="m143 489.7c3.8 3 15.5 10.5 37.5 11-8.8 33.1-16.2 75.1-16.6 123.3q-6.9 2.4-12.3 0-3.9-65.1 0.8-94.6-13.3 11.1-45.8 89.1-9.1-0.3-11.8-2.8 29.9-96.5 48.2-126z"/><path class="af" d="m209.9 420.9q-15.2 31.3-28.3 80.2c-0.3 1.1-1.3 1.9-2.5 1.8-17.6-0.8-32.9-8-37.4-10.3-0.7-0.4-1-1.3-0.5-2 2.7-4.5 6-11.1 5.7-15.9-1-16.9-2.5-54 1.7-74.7q44.6-5.9 61.3 20.9z"/><path class="ag" d="m154.6 527.6q-0.3 0-0.6-0.2c-0.5-0.3-0.6-0.9-0.3-1.4 0.2-0.3 4.4-7.1 12.9-11.2 0.5-0.2 1.1 0 1.4 0.5 0.2 0.5 0 1.1-0.5 1.4-8 3.8-12 10.3-12 10.4-0.2 0.3-0.6 0.5-0.9 0.5z"/><path class="ah" d="m137.2 458.4q-2 16 1.5 30l-3 2.5c-7.9-11.2-11.9-21.8-13.2-31.4 4.1-1.1 9.8-2 14.7-1.1z"/><path class="ai" d="m137.2 458.4c-4.9-0.9-10.6 0-14.7 1.1q-4.9-35.8 26.1-59.5l4.6 25.5c-10.4 9-14.6 21.4-16 32.9z"/><path class="aj" d="m221.3 454.8c-1.7 4-3.5 9.7-4 16.8-9-2.6-17.4-9.3-19.3-24.9l11.9-25.8q-0.1 22 11.4 33.9z"/><path class="ak" d="m243.3 462.1l4.4 0.7q-6.4 18.2-30.4 8.8c0.5-7.1 2.3-12.8 4-16.8 4.9 5.1 11.9 8.3 22 7.3z"/><path class="al" d="m198.9 389.1l-5.8 21.3c-0.6 2.3-3.2 3.6-5.5 2.7-2.5-1-5.6-2.3-8.3-3.8-2.9-1.6-3.8-5.3-2-8l12-17.9z"/><path class="am" d="m262.5 457.5l-143.9 66.6c-5.3 2.5-11.6 0.1-14-5.2l-0.4-1c-2.8-6 0.2-13.1 6.4-15.4l148.1-53.9z"/><ellipse class="L" cx="326.8" cy="416.2" rx="73.1" ry="71.8"/><path fill-rule="evenodd" class="an" d="m408.2 416.2c0 44.1-36.4 79.9-81.4 79.9-44.9 0-81.3-35.8-81.3-79.9 0-44.1 36.4-79.9 81.3-79.9 45 0 81.4 35.8 81.4 79.9zm-11.9 0c0-37.7-31.1-68.2-69.5-68.2-38.3 0-69.4 30.5-69.4 68.2 0 37.6 31.1 68.2 69.4 68.2 38.4 0 69.5-30.6 69.5-68.2z"/><path class="w" d="m251.6 426c-0.2 0-0.4-0.1-0.4-0.4q-0.4-2.8-0.6-5.7c0-0.3 0.2-0.5 0.5-0.5 0.3-0.1 0.5 0.2 0.5 0.4q0.2 2.9 0.5 5.7c0.1 0.3-0.1 0.5-0.4 0.5q0 0-0.1 0zm0.6-22.3q0 0-0.1 0c-0.3-0.1-0.4-0.3-0.4-0.6 0.9-5.1 2.4-10.2 4.4-15 11.7-28.4 39.5-46.8 70.7-46.8 14.6 0 28.8 4 41 11.7 0.2 0.1 0.3 0.4 0.2 0.7-0.2 0.2-0.5 0.3-0.7 0.1-12.1-7.5-26.1-11.5-40.5-11.5-30.8 0-58.2 18.1-69.8 46.2q0 0 0 0c-1.9 4.7-3.4 9.7-4.3 14.8 0 0.2-0.3 0.4-0.5 0.4z"/><path class="ao" d="m137.4 488l14.1-1.2 6 5.6q-1.4 2-5.9 0.9-4.5-1.2-10.6-1.4-6.2 2.8-6.3-2.5z"/><path class="ap" d="m252.4 455.6c1.2 0.3 2.2 2.8 2.8 4.7 0.5 1.4-0.1 2.8-1.4 3.5-2.5 1.3-6.7 3.3-7.9 2.4-5-3.9 4.4-11.1 6.5-10.6z"/><path class="w" d="m113.5 522q-0.1 0-0.1-0.1c-5.8-1.9-7.1-5.3-7.3-7.8-0.1-3.7 2.2-7.1 5.8-8.5l17.8-6.9c0.2-0.1 0.5 0 0.6 0.3 0.1 0.2 0 0.5-0.3 0.6l-17.8 6.9c-3.2 1.3-5.2 4.3-5.1 7.5 0.2 3.2 2.4 5.6 6.6 7 0.2 0.1 0.4 0.4 0.3 0.6-0.1 0.2-0.3 0.4-0.5 0.4z"/><path class="w" d="m135.3 497.5c-0.2 0-0.4-0.1-0.5-0.3-0.1-0.3 0.1-0.6 0.3-0.7l2.3-0.9c0.3-0.1 0.6 0.1 0.7 0.3 0.1 0.3 0 0.6-0.3 0.7l-2.3 0.9q-0.1 0-0.2 0z"/><path class="aq" d="m200.2 368.2q4.7 11 5.1 16.8c0.3 5.8 1.5 9.5-5.1 10.7-6.7 1.1-12.3-2.2-15.4-7.9q-4.8-8.9-3.7-12.5 1.1-3.6 19.1-7.1z"/><path class="ar" d="m185.3 383.6c-0.3 0-0.5 0.3-0.5 0.5l0.4 5.1c0 0.2-0.2 0.4-0.4 0.4-0.8 0.2-2.9 0.4-6.4-1.5-3.5-1.8-2.2-3.2-1.3-3.8 0.3-0.2 0.3-0.5 0.1-0.7-5-4.1-5.9-9-3.7-10.9 1.3-1.1 2.3-0.9 2.9-0.6 0.3 0.2 0.7 0 0.7-0.3 0.2-5.7 5.6-9 13.8-10.6 5.8-1 8-3.1 8.8-4.4 0.2-0.3 0.7-0.3 0.8 0.1 0.1 0.4 0.7 0.5 0.8 0.1l0.3-0.5c0.1-0.2 0.4-0.3 0.6-0.2 3.4 1.5 5.6 6.8 3.1 10.9-2.6 4.3-14.7 6.8-17.8 8.1q-3 1.2 0.4 8.3h-0.8z"/><path class="as" d="m186.5 387.8c-2.5-0.3-7.3-6.2-4.2-8.2q3.2-1.9 5 5.1z"/></svg>