<svg version="1.2" xmlns="http://www.w3.org/2000/svg" viewBox="0 0 1064 735" width="1064" height="735"><defs><linearGradient id="P" gradientUnits="userSpaceOnUse"/><linearGradient id="g1" x1="997.4" y1="-47.3" x2="106.8" y2="62.2" href="#P"><stop stop-color="#b37cff"/><stop offset="1" stop-color="#f895e7"/></linearGradient><linearGradient id="g2" x1="718.9" y1="-25.1" x2="-71.3" y2="197.4" href="#P"><stop stop-color="#b37cff"/><stop offset="1" stop-color="#f895e7"/></linearGradient><linearGradient id="g3" x1="1.4" y1="489.3" x2="-60" y2="566.1" href="#P"><stop stop-color="#a737d5"/><stop offset="1" stop-color="#ef497a"/></linearGradient><linearGradient id="g4" x1="-101.3" y1="340.2" x2="17.3" y2="579" href="#P"><stop stop-color="#53d8ff"/><stop offset="1" stop-color="#3840f7"/></linearGradient><linearGradient id="g5" x1="1284.6" y1="347.6" x2="773.8" y2="1033" href="#P"><stop stop-color="#fdf53f"/><stop offset="1" stop-color="#d93c65"/></linearGradient><linearGradient id="g6" x1="1146.2" y1="698.5" x2="738.5" y2="732.9" href="#P"><stop stop-color="#53d8ff"/><stop offset="1" stop-color="#3840f7"/></linearGradient><linearGradient id="g7" x1="1035.4" y1="702.8" x2="694.7" y2="723.2" href="#P"><stop stop-color="#53d8ff"/><stop offset="1" stop-color="#3840f7"/></linearGradient><linearGradient id="g8" x1="1068" y1="690.7" x2="640.2" y2="813.1" href="#P"><stop stop-color="#fdf53f"/><stop offset="1" stop-color="#d93c65"/></linearGradient><linearGradient id="g9" x1="993.2" y1="428.2" x2="569" y2="549.5" href="#P"><stop stop-color="#fdf53f"/><stop offset="1" stop-color="#d93c65"/></linearGradient><linearGradient id="g10" x1="937.2" y1="578.5" x2="974.4" y2="624.9" href="#P"><stop stop-color="#a737d5"/><stop offset="1" stop-color="#ef497a"/></linearGradient><linearGradient id="g11" x1="999.3" y1="489.2" x2="927.6" y2="633.5" href="#P"><stop stop-color="#53d8ff"/><stop offset="1" stop-color="#3840f7"/></linearGradient><linearGradient id="g12" x1="629.4" y1="70.2" x2="289" y2="956.8" href="#P"><stop stop-color="#53d8ff"/><stop offset="1" stop-color="#3840f7"/></linearGradient><linearGradient id="g13" x1="229.6" y1="136.7" x2="457.2" y2="136.7" href="#P"><stop stop-color="#53d8ff"/><stop offset="1" stop-color="#3840f7"/></linearGradient><linearGradient id="g14" x1="682.5" y1="158.6" x2="313.1" y2="608.5" href="#P"><stop stop-color="#53d8ff"/><stop offset="1" stop-color="#3840f7"/></linearGradient><linearGradient id="g15" x1="652.6" y1="481.1" x2="263.6" y2="992" href="#P"><stop stop-color="#2b3582"/><stop offset="1" stop-color="#150e42"/></linearGradient><linearGradient id="g16" x1="-64.3" y1="676" x2="218.7" y2="258.6" href="#P"><stop stop-color="#a737d5"/><stop offset="1" stop-color="#ef497a"/></linearGradient><linearGradient id="g17" x1="361.1" y1="257.3" x2="250.4" y2="402.9" href="#P"><stop stop-color="#2b3582"/><stop offset="1" stop-color="#150e42"/></linearGradient><linearGradient id="g18" x1="397.6" y1="281" x2="285.4" y2="428.6" href="#P"><stop stop-color="#2b3582"/><stop offset="1" stop-color="#150e42"/></linearGradient><linearGradient id="g19" x1="416.3" y1="299.6" x2="338.3" y2="442.7" href="#P"><stop stop-color="#53d8ff"/><stop offset="1" stop-color="#3840f7"/></linearGradient><linearGradient id="g20" x1="272" y1="598.7" x2="334.8" y2="598.7" href="#P"><stop stop-color="#53d8ff"/><stop offset="1" stop-color="#3840f7"/></linearGradient><linearGradient id="g21" x1="1073.5" y1="394.2" x2="550.3" y2="1081.5" href="#P"><stop stop-color="#2b3582"/><stop offset="1" stop-color="#150e42"/></linearGradient><linearGradient id="g22" x1="110.3" y1="657.2" x2="490.9" y2="95.6" href="#P"><stop stop-color="#a737d5"/><stop offset="1" stop-color="#ef497a"/></linearGradient><linearGradient id="g23" x1="583.5" y1="259.7" x2="422.6" y2="499.3" href="#P"><stop stop-color="#fdf53f"/><stop offset="1" stop-color="#d93c65"/></linearGradient><linearGradient id="g24" x1="618.2" y1="285.2" x2="460.3" y2="520.2" href="#P"><stop stop-color="#fdf53f"/><stop offset="1" stop-color="#d93c65"/></linearGradient><linearGradient id="g25" x1="784.8" y1="306" x2="611.6" y2="534.3" href="#P"><stop stop-color="#a737d5"/><stop offset="1" stop-color="#ef497a"/></linearGradient><linearGradient id="g26" x1="723.8" y1="273.6" x2="550" y2="484.2" href="#P"><stop stop-color="#a737d5"/><stop offset="1" stop-color="#ef497a"/></linearGradient><linearGradient id="g27" x1="732.9" y1="282.3" x2="558.7" y2="493.3" href="#P"><stop stop-color="#a737d5"/><stop offset="1" stop-color="#ef497a"/></linearGradient><linearGradient id="g28" x1="535.1" y1="427.1" x2="401.6" y2="615.7" href="#P"><stop stop-color="#53d8ff"/><stop offset="1" stop-color="#3840f7"/></linearGradient><linearGradient id="g29" x1="675.9" y1="429.7" x2="564" y2="563.3" href="#P"><stop stop-color="#fdf53f"/><stop offset="1" stop-color="#d93c65"/></linearGradient><linearGradient id="g30" x1="681.6" y1="93" x2="532.6" y2="289" href="#P"><stop stop-color="#2b3582"/><stop offset="1" stop-color="#150e42"/></linearGradient><linearGradient id="g31" x1="730.4" y1="125" x2="579.5" y2="323.5" href="#P"><stop stop-color="#2b3582"/><stop offset="1" stop-color="#150e42"/></linearGradient><linearGradient id="g32" x1="755.5" y1="150" x2="650.7" y2="342.6" href="#P"><stop stop-color="#53d8ff"/><stop offset="1" stop-color="#3840f7"/></linearGradient><linearGradient id="g33" x1="926" y1="190.7" x2="397.3" y2="1093" href="#P"><stop stop-color="#a737d5"/><stop offset="1" stop-color="#ef497a"/></linearGradient><linearGradient id="g34" x1="721.1" y1="724.1" x2="808.9" y2="819.5" href="#P"><stop stop-color="#2b3582"/><stop offset="1" stop-color="#150e42"/></linearGradient><linearGradient id="g35" x1="762.9" y1="713.3" x2="755" y2="713.3" href="#P"><stop stop-color="#f9b776"/><stop offset="1" stop-color="#f47960"/></linearGradient><linearGradient id="g36" x1="691.8" y1="636.5" x2="764.7" y2="735.3" href="#P"><stop stop-color="#2b3582"/><stop offset="1" stop-color="#150e42"/></linearGradient><linearGradient id="g37" x1="746.8" y1="700.2" x2="835.4" y2="796.6" href="#P"><stop stop-color="#2b3582"/><stop offset="1" stop-color="#150e42"/></linearGradient><linearGradient id="g38" x1="791.3" y1="711.6" x2="784.5" y2="711.6" href="#P"><stop stop-color="#f9b776"/><stop offset="1" stop-color="#f47960"/></linearGradient><linearGradient id="g39" x1="712.7" y1="622.7" x2="780.5" y2="714.5" href="#P"><stop stop-color="#2b3582"/><stop offset="1" stop-color="#150e42"/></linearGradient><linearGradient id="g40" x1="791.8" y1="511.5" x2="829.6" y2="715" href="#P"><stop stop-color="#fdf53f"/><stop offset="1" stop-color="#d93c65"/></linearGradient><linearGradient id="g41" x1="712.5" y1="462.1" x2="726.1" y2="501.2" href="#P"><stop stop-color="#f9b776"/><stop offset="1" stop-color="#f47960"/></linearGradient><linearGradient id="g42" x1="691.4" y1="468.1" x2="704.7" y2="506.2" href="#P"><stop stop-color="#f9b776"/><stop offset="1" stop-color="#f47960"/></linearGradient><linearGradient id="g43" x1="691.6" y1="497.9" x2="681.1" y2="476.8" href="#P"><stop stop-color="#f9b776"/><stop offset="1" stop-color="#f47960"/></linearGradient><linearGradient id="g44" x1="811.1" y1="508.2" x2="849.9" y2="717.7" href="#P"><stop stop-color="#fdf53f"/><stop offset="1" stop-color="#d93c65"/></linearGradient><linearGradient id="g45" x1="818.1" y1="556" x2="767.6" y2="556" href="#P"><stop stop-color="#f9b776"/><stop offset="1" stop-color="#f47960"/></linearGradient><linearGradient id="g46" x1="719.4" y1="526.6" x2="691.5" y2="642.7" href="#P"><stop stop-color="#9cfffb"/><stop offset="1" stop-color="#9bfffa"/></linearGradient><linearGradient id="g47" x1="728.3" y1="517.7" x2="734.1" y2="543.3" href="#P"><stop stop-color="#53d8ff"/><stop offset="1" stop-color="#3840f7"/></linearGradient><linearGradient id="g48" x1="726.6" y1="528.8" x2="729.5" y2="545.7" href="#P"><stop stop-color="#53d8ff"/><stop offset="1" stop-color="#3840f7"/></linearGradient><linearGradient id="g49" x1="770.9" y1="556.1" x2="755.5" y2="556.1" href="#P"><stop stop-color="#f9b776"/><stop offset="1" stop-color="#f47960"/></linearGradient><linearGradient id="g50" x1="779.4" y1="503.2" x2="759.3" y2="503.2" href="#P"><stop stop-color="#f9b776"/><stop offset="1" stop-color="#f47960"/></linearGradient><linearGradient id="g51" x1="762" y1="513.2" x2="783.4" y2="500.1" href="#P"><stop stop-color="#f9b776"/><stop offset="1" stop-color="#f47960"/></linearGradient><linearGradient id="g52" x1="774.1" y1="462.7" x2="746.6" y2="484.5" href="#P"><stop stop-color="#2b3582"/><stop offset="1" stop-color="#150e42"/></linearGradient><linearGradient id="g53" x1="763.2" y1="510.9" x2="782.2" y2="499.4" href="#P"><stop stop-color="#f9b776"/><stop offset="1" stop-color="#f47960"/></linearGradient><linearGradient id="g54" x1="781.5" y1="296.7" x2="840.6" y2="330.4" href="#P"><stop stop-color="#f9b776"/><stop offset="1" stop-color="#f47960"/></linearGradient><linearGradient id="g55" x1="828.2" y1="281.7" x2="854.6" y2="345.7" href="#P"><stop stop-color="#cb236d"/><stop offset="1" stop-color="#4c246d"/></linearGradient><linearGradient id="g56" x1="837.9" y1="220.4" x2="635.8" y2="93.9" href="#P"><stop stop-color="#f9b776"/><stop offset="1" stop-color="#f47960"/></linearGradient><linearGradient id="g57" x1="837" y1="295.6" x2="875.8" y2="352.9" href="#P"><stop stop-color="#cb236d"/><stop offset="1" stop-color="#4c246d"/></linearGradient><linearGradient id="g58" x1="1776.9" y1="1827.8" x2="1821.8" y2="1910.6" href="#P"><stop stop-color="#a737d5"/><stop offset="1" stop-color="#ef497a"/></linearGradient><linearGradient id="g59" x1="888.8" y1="132.3" x2="912.2" y2="159.3" href="#P"><stop stop-color="#2b3582"/><stop offset="1" stop-color="#150e42"/></linearGradient><linearGradient id="g60" x1="858.6" y1="205.2" x2="997.6" y2="339.2" href="#P"><stop stop-color="#fdf53f"/><stop offset="1" stop-color="#d93c65"/></linearGradient><linearGradient id="g61" x1="909.2" y1="225.8" x2="967.7" y2="225.8" href="#P"><stop stop-color="#f9b776"/><stop offset="1" stop-color="#f47960"/></linearGradient><linearGradient id="g62" x1="875.4" y1="204.3" x2="876.7" y2="184.1" href="#P"><stop stop-color="#f9b776"/><stop offset="1" stop-color="#f47960"/></linearGradient><linearGradient id="g63" x1="876.9" y1="191" x2="855.4" y2="149.9" href="#P"><stop stop-color="#f9b776"/><stop offset="1" stop-color="#f47960"/></linearGradient><linearGradient id="g64" x1="858.5" y1="152.2" x2="892.6" y2="159" href="#P"><stop stop-color="#2b3582"/><stop offset="1" stop-color="#150e42"/></linearGradient><linearGradient id="g65" x1="890.3" y1="185.8" x2="867.6" y2="142.3" href="#P"><stop stop-color="#f9b776"/><stop offset="1" stop-color="#f47960"/></linearGradient><linearGradient id="g66" x1="909.7" y1="243.2" x2="879.5" y2="253.1" href="#P"><stop stop-color="#53d8ff"/><stop offset="1" stop-color="#3840f7"/></linearGradient><linearGradient id="g67" x1="825.5" y1="207.3" x2="1099.9" y2="184.2" href="#P"><stop stop-color="#2b3582"/><stop offset="1" stop-color="#150e42"/></linearGradient><linearGradient id="g68" x1="856" y1="223.3" x2="846.8" y2="237" href="#P"><stop stop-color="#53d8ff"/><stop offset="1" stop-color="#3840f7"/></linearGradient><linearGradient id="g69" x1="207" y1="417.8" x2="207" y2="258.9" href="#P"><stop stop-color="#a737d5"/><stop offset="1" stop-color="#ef497a"/></linearGradient><linearGradient id="g70" x1="327.8" y1="460" x2="327.8" y2="377.5" href="#P"><stop stop-color="#a737d5"/><stop offset="1" stop-color="#ef497a"/></linearGradient><linearGradient id="g71" x1="804.4" y1="465.7" x2="863.1" y2="387" href="#P"><stop stop-color="#2b3582"/><stop offset="1" stop-color="#150e42"/></linearGradient><linearGradient id="g72" x1="1028.3" y1="263.3" x2="1131.4" y2="447" href="#P"><stop stop-color="#53d8ff"/><stop offset="1" stop-color="#3840f7"/></linearGradient><linearGradient id="g73" x1="1168.2" y1="407.5" x2="1053.7" y2="455.2" href="#P"><stop stop-color="#53d8ff"/><stop offset="1" stop-color="#3840f7"/></linearGradient><linearGradient id="g74" x1="1091.8" y1="435.7" x2="1049" y2="448.8" href="#P"><stop stop-color="#53d8ff"/><stop offset="1" stop-color="#3840f7"/></linearGradient><clipPath clipPathUnits="userSpaceOnUse" id="cp1"><path d="m1040.98 449.15c-1.56-1.59-4.95-7.71-7.87-23.53-2.81-15.29-4.36-35.12-4.36-55.84 0-20.72 1.55-40.55 4.36-55.84 2.92-15.82 6.31-21.94 7.87-23.53 1.56 1.59 4.96 7.71 7.87 23.53 2.82 15.29 25.03 35.12 25.03 55.84 0 20.72-22.21 40.55-25.03 55.84-2.91 15.82-6.31 21.94-7.87 23.53z"/></clipPath><linearGradient id="g75" x1="1102.4" y1="332.8" x2="1049.7" y2="406.6" href="#P"><stop stop-color="#fdf53f"/><stop offset="1" stop-color="#d93c65"/></linearGradient><linearGradient id="g76" x1="848.4" y1="411.6" x2="843.9" y2="298.9" href="#P"><stop stop-color="#2b3582"/><stop offset="1" stop-color="#150e42"/></linearGradient><linearGradient id="g77" x1="81.3" y1="728" x2="110.2" y2="728" href="#P"><stop stop-color="#53d8ff"/><stop offset="1" stop-color="#3840f7"/></linearGradient><linearGradient id="g78" x1="81.3" y1="717.7" x2="109.6" y2="717.7" href="#P"><stop stop-color="#2b3582"/><stop offset="1" stop-color="#150e42"/></linearGradient><linearGradient id="g79" x1="84" y1="710.5" x2="92.2" y2="710.5" href="#P"><stop stop-color="#f9b776"/><stop offset="1" stop-color="#f47960"/></linearGradient><linearGradient id="g80" x1="23.5" y1="726.5" x2="34.5" y2="726.5" href="#P"><stop stop-color="#53d8ff"/><stop offset="1" stop-color="#3840f7"/></linearGradient><linearGradient id="g81" x1="23.4" y1="710.5" x2="39.1" y2="710.5" href="#P"><stop stop-color="#2b3582"/><stop offset="1" stop-color="#150e42"/></linearGradient><linearGradient id="g82" x1="32.1" y1="702.9" x2="41.7" y2="702.9" href="#P"><stop stop-color="#f9b776"/><stop offset="1" stop-color="#f47960"/></linearGradient><linearGradient id="g83" x1="-27.7" y1="706.4" x2="101" y2="560.8" href="#P"><stop stop-color="#2b3582"/><stop offset="1" stop-color="#150e42"/></linearGradient><linearGradient id="g84" x1="157.9" y1="555.6" x2="65.2" y2="655.8" href="#P"><stop stop-color="#fdf53f"/><stop offset="1" stop-color="#d93c65"/></linearGradient><linearGradient id="g85" x1="60.3" y1="671.3" x2="64.9" y2="662" href="#P"><stop stop-color="#53d8ff"/><stop offset="1" stop-color="#3840f7"/></linearGradient><linearGradient id="g86" x1="87.8" y1="580.3" x2="52.9" y2="611.2" href="#P"><stop stop-color="#f9b776"/><stop offset="1" stop-color="#f47960"/></linearGradient><linearGradient id="g87" x1="112.9" y1="523.5" x2="31.1" y2="611.9" href="#P"><stop stop-color="#fdf53f"/><stop offset="1" stop-color="#d93c65"/></linearGradient><linearGradient id="g88" x1="161.7" y1="559" x2="68.7" y2="659.5" href="#P"><stop stop-color="#fdf53f"/><stop offset="1" stop-color="#d93c65"/></linearGradient><linearGradient id="g89" x1="142.1" y1="560.5" x2="169.6" y2="560.5" href="#P"><stop stop-color="#f9b776"/><stop offset="1" stop-color="#f47960"/></linearGradient><linearGradient id="g90" x1="127.5" y1="497.5" x2="127.2" y2="547.7" href="#P"><stop stop-color="#f9b776"/><stop offset="1" stop-color="#f47960"/></linearGradient><linearGradient id="g91" x1="40.6" y1="554.5" x2="182.9" y2="554.5" href="#P"><stop stop-color="#2b3582"/><stop offset="1" stop-color="#150e42"/></linearGradient><linearGradient id="g92" x1="175" y1="460.3" x2="307" y2="460.3" href="#P"><stop stop-color="#b37cff"/><stop offset="1" stop-color="#f895e7"/></linearGradient><linearGradient id="g93" x1="241" y1="599.3" x2="241" y2="455" href="#P"><stop stop-color="#2b3582"/><stop offset="1" stop-color="#150e42"/></linearGradient><linearGradient id="g94" x1="142.3" y1="496.3" x2="123.7" y2="530" href="#P"><stop stop-color="#f9b776"/><stop offset="1" stop-color="#f47960"/></linearGradient><linearGradient id="g95" x1="111.9" y1="477.9" x2="140.1" y2="473.8" href="#P"><stop stop-color="#2b3582"/><stop offset="1" stop-color="#150e42"/></linearGradient><linearGradient id="g96" x1="97.9" y1="511.9" x2="111.2" y2="493.6" href="#P"><stop stop-color="#f9b776"/><stop offset="1" stop-color="#f47960"/></linearGradient><linearGradient id="g97" x1="95.2" y1="591.1" x2="64.6" y2="618.2" href="#P"><stop stop-color="#f9b776"/><stop offset="1" stop-color="#f47960"/></linearGradient><linearGradient id="g98" x1="169" y1="560.9" x2="176.3" y2="560.9" href="#P"><stop stop-color="#f9b776"/><stop offset="1" stop-color="#f47960"/></linearGradient></defs><style>.a{opacity:.3;fill:url(#g1)}.b{opacity:.3;fill:url(#g2)}.c{fill:url(#g3)}.d{opacity:.5;fill:#fff}.e{fill:url(#g4)}.f{opacity:.4;fill:#fff}.g{fill:url(#g5)}.h{fill:url(#g6)}.i{fill:url(#g7)}.j{fill:url(#g8)}.k{fill:url(#g9)}.l{fill:url(#g10)}.m{fill:url(#g11)}.n{fill:url(#g12)}.o{fill:url(#g13)}.p{opacity:.6;fill:#fff}.q{fill:url(#g14)}.r{fill:#fff}.s{fill:url(#g15)}.t{fill:url(#g16)}.u{opacity:.1;fill:#fff}.v{opacity:.8;fill:#fff}.w{fill:url(#g17)}.x{fill:url(#g18)}.y{fill:url(#g19)}.z{fill:url(#g20)}.A{fill:url(#g21)}.B{fill:url(#g22)}.C{fill:url(#g23)}.D{fill:url(#g24)}.E{fill:url(#g25)}.F{fill:url(#g26)}.G{fill:url(#g27)}.H{fill:url(#g28)}.I{fill:url(#g29)}.J{fill:url(#g30)}.K{fill:url(#g31)}.L{fill:url(#g32)}.M{fill:url(#g33)}.N{fill:url(#g34)}.O{fill:url(#g35)}.P{fill:url(#g36)}.Q{fill:url(#g37)}.R{fill:url(#g38)}.S{fill:url(#g39)}.T{fill:url(#g40)}.U{fill:url(#g41)}.V{fill:url(#g42)}.W{fill:url(#g43)}.X{fill:url(#g44)}.Y{fill:url(#g45)}.Z{fill:url(#g46)}.a0{fill:url(#g47)}.a1{fill:url(#g48)}.a2{fill:url(#g49)}.a3{fill:url(#g50)}.a4{fill:url(#g51)}.a5{fill:url(#g52)}.a6{fill:url(#g53)}.a7{fill:url(#g54)}.a8{fill:url(#g55)}.a9{fill:url(#g56)}.aa{fill:url(#g57)}.ab{fill:url(#g58)}.ac{fill:url(#g59)}.ad{fill:url(#g60)}.ae{fill:url(#g61)}.af{fill:url(#g62)}.ag{fill:url(#g63)}.ah{fill:url(#g64)}.ai{fill:url(#g65)}.aj{fill:url(#g66)}.ak{fill:url(#g67)}.al{fill:url(#g68)}.am{fill:#eac4f9}.an{fill:url(#g69)}.ao{fill:url(#g70)}.ap{fill:url(#g71)}.aq{fill:url(#g72)}.ar{fill:url(#g73)}.as{fill:url(#g74)}.at{fill:url(#g75)}.au{fill:url(#g76)}.av{fill:url(#g77)}.aw{fill:url(#g78)}.ax{fill:url(#g79)}.ay{fill:url(#g80)}.az{fill:url(#g81)}.aA{fill:url(#g82)}.aB{fill:url(#g83)}.aC{fill:url(#g84)}.aD{fill:url(#g85)}.aE{fill:url(#g86)}.aF{fill:url(#g87)}.aG{fill:url(#g88)}.aH{fill:url(#g89)}.aI{fill:url(#g90)}.aJ{fill:url(#g91)}.aK{fill:url(#g92)}.aL{fill:url(#g93)}.aM{fill:url(#g94)}.aN{fill:url(#g95)}.aO{fill:url(#g96)}.aP{fill:url(#g97)}.aQ{fill:url(#g98)}</style><path class="a" d="m775.4 38.1c65.2 59.3 254.3-38.7 267.2 83.8 15.2 143.5-174.4 209.5-99 302.4 75.5 92.9 19.7 214.3-233.9 243.3-253.6 29-676.7-47.2-595.4-196.4 81.3-149.3 15-148.3 2.8-208.3-12.2-60.1 21.1-199.2 230.9-112.4 209.9 86.8 262.1-262.6 427.4-112.4z"/><path class="b" d="m564.7 93c65.2 43.3 217.9-68.2 245.8 37.6 32.6 123.9-124.8 207.3-46.2 278.7 78.7 71.4 46.1 185.4-172.5 244.9-218.7 59.6-600.2 49.7-548.9-92.2 51.3-141.9-6.7-132.1-25.6-183.1-18.8-51.1-8.3-177.6 187.6-129.7 195.8 47.9 194.6-265.7 359.8-156.2z"/><g style="opacity:.9"><path class="c" d="m49.9 647.7c-45.7-58.5-49.7-126.5-49.2-154 0.1-2.6 3.5-4 4.5-1.9 22.2 48 119.9 122.4 159.6 155.1q42.8 35.2 43.4 79-99.3-2.8-158.3-78.2z"/><path class="d" d="m20.5 537.6q0.1 1 0.5 2.9c0.3 0.9 0.5 2 0.9 3.4q0.3 1 0.6 2.1 0.3 1.1 0.7 2.4c0.3 0.8 0.6 1.7 0.9 2.7q0.5 1.3 1 2.8c0.7 2.1 1.7 4.2 2.6 6.4q0.7 1.8 1.6 3.5 0.8 1.8 1.7 3.7c1.2 2.5 2.6 5 4 7.7q2.3 3.9 4.8 8.1c1.8 2.7 3.6 5.5 5.7 8.3q1.5 2.1 3.1 4.2c1.1 1.4 2.1 2.9 3.3 4.3q1.8 2.1 3.6 4.2c1.2 1.4 2.3 2.9 3.7 4.2q1.9 2.1 3.9 4.1 1 1.1 2 2.1l1 1.1 1 1c2.9 2.6 5.7 5.4 8.6 8q4.6 3.8 9.2 7.7c3.2 2.5 6.4 5 9.6 7.5 6.4 4.9 12.9 9.7 19.4 14.4 6.4 4.7 12.8 9.3 19.1 13.6 6.2 4.4 12.2 8.6 17.9 12.6 5.8 4 11.2 7.8 16.1 11.4 1.2 0.9 2.5 1.8 3.6 2.7q1.8 1.3 3.4 2.6c2.2 1.7 4.3 3.4 6.2 5 1.9 1.6 3.6 3.2 5.2 4.6 1.6 1.5 3 2.9 4.2 4.2 2.4 2.7 4.3 4.8 5.3 6.4q1.2 1.6 1.8 2.4c0.1 0.2 0.1 0.5-0.2 0.7-0.2 0.1-0.5 0.1-0.6-0.1h-0.1q-0.6-0.8-1.8-2.3c-1.1-1.5-3-3.5-5.5-6-1.3-1.2-2.7-2.6-4.3-4-1.6-1.3-3.4-2.8-5.3-4.3-3.9-3-8.4-6.3-13.4-9.7-5-3.5-10.5-7.2-16.3-11-5.8-3.9-11.9-8-18.3-12.3-6.2-4.3-12.7-8.8-19.2-13.4-6.5-4.7-13.1-9.6-19.6-14.5-3.2-2.5-6.4-4.9-9.6-7.5q-4.7-3.9-9.3-7.8c-2.9-2.8-5.8-5.6-8.7-8.3l-1-1-1-1.1q-1-1.1-2-2.2-2-2.1-3.9-4.3c-1.4-1.4-2.5-2.9-3.7-4.3q-1.8-2.2-3.5-4.4l-0.9-1.1-0.8-1.1q-0.8-1.1-1.6-2.2-1.6-2.2-3.1-4.4c-2-2.9-3.7-5.8-5.5-8.6-1.6-2.9-3.1-5.7-4.6-8.4-1.3-2.8-2.6-5.4-3.7-8q-0.8-1.9-1.6-3.8-0.8-1.8-1.4-3.6c-0.8-2.3-1.6-4.5-2.2-6.6q-0.5-1.5-0.9-2.9c-0.3-1-0.5-1.9-0.7-2.8q-0.3-1.3-0.6-2.4-0.3-1.2-0.5-2.2c-0.3-1.4-0.4-2.5-0.6-3.5q-0.3-1.9-0.4-2.9 0 0 0.1 0 0.1 0 0.1 0z"/></g><g style="opacity:.9"><path class="e" d="m56.8 231.2c0.8-4.1 6.6-4.3 7.7-0.3 11 38.5 42.9 138.7 91.6 191.8 79.4 86.4 132.6 226.9 82.2 300q-275.1-49.6-181.5-491.5z"/><path class="f" d="m65.8 286.2q0 0.4 0.1 1.2c0.2 0.8 0.3 1.9 0.6 3.4 0.6 3.1 1.5 7.6 2.6 13.3 1.2 5.6 2.7 12.5 4.5 20.4 1.7 7.9 3.9 16.8 6.2 26.5 2.4 9.6 5 20.1 8.1 31.1 2.9 11 6.3 22.5 9.8 34.5 3.6 11.9 7.3 24.2 11.5 36.5q1.5 4.7 3.1 9.4 1.6 4.6 3.2 9.3c2.1 6.3 4.5 12.5 6.7 18.7 2.3 6.3 4.7 12.4 7.1 18.6q3.6 9.2 7.3 18.3c2.5 6 4.9 12 7.5 17.9q2 4.3 3.9 8.7 1 2.1 1.9 4.3 1 2.1 2 4.2 2 4.2 3.9 8.4 1 2 2 4.1 1 2 2 4c2.7 5.4 5.2 10.7 7.9 15.7q2 3.8 3.9 7.4 1 1.9 2 3.7 1 1.8 1.9 3.5c2.7 4.7 5.2 9.2 7.7 13.5q3.9 6.4 7.4 12.2c2.4 3.8 4.8 7.4 6.9 10.8q1.7 2.6 3.2 4.9 1.6 2.4 3.1 4.5 3 4.3 5.5 7.9c1.7 2.4 3.3 4.4 4.7 6.2q2 2.7 3.4 4.6 1.9 2.5 2.9 3.8c0.2 0.2 0.1 0.5-0.1 0.7-0.2 0.2-0.5 0.1-0.7-0.1q-1-1.3-3-3.7-1.4-1.9-3.5-4.5-1.1-1.4-2.3-2.9c-0.8-1-1.7-2.1-2.5-3.3q-2.6-3.5-5.7-7.8-1.5-2.1-3.2-4.4-1.6-2.3-3.3-4.9c-2.2-3.3-4.7-6.9-7.2-10.7q-3.6-5.8-7.5-12.2c-2.6-4.2-5.1-8.8-7.9-13.4q-1-1.8-2-3.5-1-1.8-2-3.7-1.9-3.6-4-7.4c-5.4-10.1-10.8-20.9-16.1-32.2q-1-2.1-2-4.2-0.9-2.2-1.9-4.3-2-4.4-3.9-8.8c-2.7-5.8-5.1-11.8-7.7-17.9q-3.7-9.1-7.4-18.3-1.8-4.6-3.5-9.3c-1.2-3.1-2.4-6.2-3.5-9.3-2.3-6.3-4.6-12.5-6.7-18.8q-1.6-4.7-3.2-9.4-1.5-4.7-3.1-9.3c-4.1-12.5-7.8-24.8-11.4-36.8-3.4-11.9-6.6-23.5-9.5-34.6-2.9-11.1-5.4-21.6-7.8-31.2-4.5-19.5-7.8-35.8-9.9-47.2-1.1-5.7-1.9-10.2-2.3-13.3-0.3-1.5-0.5-2.7-0.6-3.5q-0.1-0.9-0.1-1.3c-0.1-0.2 0.1-0.5 0.4-0.5 0.3 0 0.5 0.1 0.6 0.4z"/></g><path class="g" d="m982.1 288.3l16.7 0.8c8.3 0.5 14.8 7.3 14.7 15.6l-1.6 396.7c-0.1 9-7.5 16.3-16.5 16.2l-114.8-1.3z"/><path class="h" d="m781.7 290.7l211.7-12.5c4.4-0.2 8.1 3.3 8 7.7l-8.8 408.8c-0.2 8.7-7.5 15.6-16.2 15.4l-149-4.5z"/><path class="i" d="m793.1 299.2l186.1-25.8c4.8-0.6 9 3.1 9 7.9l-4.8 412.3c-0.1 5.9-4.7 10.6-10.5 10.8l-137 5.5z"/><path class="j" d="m743.9 279.2l204.1-14.9c10.2-0.7 18.9 7.3 19 17.5l4.4 420.9c0.1 8.5-6.7 15.5-15.3 15.6l-188.3 2c-8.9 0.1-16.3-6.8-16.9-15.7l-26-403.7c-0.7-11.2 7.8-20.9 19-21.7z"/><path class="k" d="m974.9 429.8l-12.7 0.2c-5.2 0-9.6-4.2-9.6-9.5l-1.1-106.5c-0.1-5.3 4.1-9.6 9.4-9.7l12.7-0.1c5.3 0 9.6 4.2 9.6 9.4l1.2 106.6c0 5.3-4.2 9.6-9.5 9.6z"/><g style="opacity:.9"><path class="l" d="m811.8 721.9q0.3-26.5 26.2-47.8c24-19.7 83-64.6 96.5-93.7 0.6-1.3 2.6-0.4 2.7 1.1 0.3 16.7-2.2 57.8-29.8 93.1q-35.6 45.6-95.6 47.3z"/><path class="d" d="m925.3 608.1q0 0.6-0.2 1.8c-0.1 1.1-0.3 2.8-0.9 4.9-0.4 2.1-1.2 4.7-2.2 7.5-0.4 1.5-1.1 2.9-1.7 4.5-0.6 1.6-1.4 3.2-2.2 4.9q-1.3 2.5-2.7 5.1c-1.1 1.7-2.1 3.5-3.3 5.3-1.2 1.8-2.4 3.6-3.8 5.4-1.4 1.7-2.8 3.6-4.4 5.3-1.6 1.7-3.1 3.6-4.8 5.3-1.7 1.6-3.5 3.3-5.3 5q-2.8 2.4-5.6 4.8c-1.9 1.5-3.9 3-5.8 4.5-3.9 3-7.9 6-11.8 8.8-4 2.8-7.9 5.5-11.7 8.1-3.9 2.5-7.6 5-11.1 7.3-3.5 2.3-6.9 4.5-9.9 6.6-3 2-5.8 3.9-8.1 5.7-1.2 0.9-2.3 1.8-3.3 2.6-1 0.8-1.8 1.6-2.6 2.3-1.5 1.5-2.7 2.7-3.4 3.6q-0.7 0.9-1.1 1.3v0.1c-0.2 0.2-0.5 0.2-0.7 0-0.2-0.1-0.3-0.4-0.1-0.6q0.3-0.5 1-1.5c0.6-1 1.7-2.3 3.2-4 0.7-0.7 1.6-1.6 2.5-2.5 1-0.9 2-1.9 3.1-2.9 2.3-1.9 5-4.1 8-6.3 2.9-2.2 6.2-4.6 9.6-7 3.5-2.4 7.1-5 10.8-7.7 3.8-2.6 7.7-5.4 11.5-8.2 3.9-2.9 7.8-5.8 11.7-8.7 1.9-1.5 3.9-3 5.8-4.5q2.8-2.4 5.5-4.6c1.8-1.6 3.5-3.3 5.2-4.8 1.7-1.7 3.2-3.4 4.8-5 1.6-1.6 3-3.4 4.4-5 0.8-0.8 1.3-1.7 2-2.6q1-1.2 1.9-2.5c1.3-1.7 2.4-3.4 3.5-5q1.5-2.5 3-4.8c0.8-1.6 1.7-3.1 2.4-4.6 0.7-1.5 1.5-2.9 2.1-4.3 0.5-1.3 1.1-2.6 1.6-3.8q0.7-1.8 1.2-3.3c0.7-2 1.1-3.7 1.4-4.8q0.3-1.1 0.4-1.7 0 0 0.1 0 0 0 0 0z"/></g><g style="opacity:.9"><path class="m" d="m793.6 720c-30.5-44.2 1.7-129.1 49.6-181.3 29.5-32.1 48.8-92.7 55.4-116 0.7-2.4 4.2-2.2 4.7 0.2q56.5 267.1-109.7 297.1z"/><path class="f" d="m898.7 456.2q-0.1 0.3-0.1 0.7-0.1 0.8-0.3 2.2c-0.3 1.9-0.8 4.6-1.4 8.1-1.3 6.9-3.2 16.8-5.9 28.5-1.4 5.9-2.9 12.2-4.6 18.9-1.7 6.7-3.6 13.7-5.7 21-2.1 7.2-4.4 14.7-6.9 22.2q-0.9 2.8-1.8 5.7-1 2.8-2 5.6c-1.2 3.8-2.6 7.6-4 11.4-1.3 3.8-2.8 7.5-4.2 11.3q-2.3 5.6-4.5 11.1c-1.6 3.6-3.1 7.2-4.7 10.8-1.6 3.5-3.1 7-4.7 10.4-3.3 6.9-6.5 13.4-9.8 19.5-3.3 6.1-6.6 11.7-9.7 16.9q-2.4 3.9-4.6 7.4c-1.5 2.3-3 4.4-4.4 6.4q-1 1.6-2 3-1 1.4-1.9 2.6-1.9 2.6-3.5 4.7c-2.1 2.8-3.9 4.9-5.1 6.4q-1.2 1.5-1.8 2.3c-0.2 0.2-0.5 0.2-0.7 0-0.2-0.1-0.3-0.4-0.1-0.6v-0.1q0.6-0.8 1.7-2.3c1.1-1.5 2.8-3.7 4.9-6.5q1.4-2.2 3.2-4.8 0.9-1.3 1.9-2.7 0.9-1.4 1.9-3c1.3-2 2.7-4.2 4.2-6.5q2.1-3.6 4.4-7.4c3-5.2 6.2-10.9 9.3-17 3.1-6.2 6.3-12.7 9.5-19.5 1.6-3.4 3.1-6.9 4.7-10.4 1.5-3.5 3-7.2 4.5-10.8q2.2-5.5 4.4-11c1.4-3.8 2.9-7.5 4.3-11.3 1.3-3.7 2.7-7.5 4-11.2q1-2.9 2-5.7 0.9-2.8 1.9-5.6c2.5-7.5 4.8-14.9 6.9-22.1 2.2-7.2 4.2-14.2 6-20.8 1.9-6.6 3.5-13 5-18.8 1.4-5.8 2.7-11.2 3.8-15.9 1.1-4.8 2-9 2.8-12.4 0.7-3.4 1.2-6.1 1.6-8q0.2-1.3 0.3-2 0.1-0.5 0.2-0.8c0-0.3 0.3-0.5 0.5-0.4 0.3 0 0.5 0.2 0.5 0.5z"/></g><path class="n" d="m218.7 473l-1.8-337.8c0-7.3 5.9-13.1 13.1-13.1l226.9 0.6c7.2 0 13 5.8 13 13v337.2c0 7.2-5.8 13-13 13h-225.2c-7.1 0-12.9-5.8-13-12.9z"/><path class="o" d="m242.8 138.7l201.3 1.3c7.3 0 13.1 5.9 13.1 13.2l-1.4 302.7c0 7.2-5.8 13-13 13.1l-195.6 3.6c-7.3 0.1-13.3-5.7-13.4-13l-4.3-307.5c-0.1-7.4 5.9-13.4 13.3-13.4z"/><rect class="p" x="251" y="151.7" width="163" height="9.3" rx="3.9"></rect><path class="p" d="m272.3 169l135.6 2.1c2.2 0.1 3.9 1.8 3.9 4v0.3c0 2.2-1.8 4-4 3.9l-135.7-2.4c-2-0.1-3.7-1.7-3.8-3.8-0.2-2.2 1.7-4.2 4-4.1z"/><path fill-rule="evenodd" class="p" d="m254.4 462.4c-6.2 0-11.2-5-11.4-11.2l-4.4-247.5c-0.1-6.3 4.9-11.5 11.2-11.6l183.2-3.6c3 0 5.9 1.1 8.1 3.2 2.2 2.1 3.4 4.9 3.5 8l4.7 248.9c0 3-1.1 5.9-3.2 8.1-2.2 2.2-5 3.4-8.1 3.5l-183.4 2.2q-0.1 0-0.2 0zm-11.8-258.8l4.4 247.5c0.1 4 3.4 7.3 7.4 7.3q0.1 0 0.1 0l183.5-2.2c2 0 3.8-0.8 5.2-2.3 1.4-1.4 2.1-3.3 2.1-5.2l-4.7-248.9c-0.1-2-0.9-3.9-2.3-5.2-1.4-1.4-3.3-2.1-5.3-2.1l-183.1 3.6c-4.1 0.1-7.3 3.4-7.3 7.5z"/><path class="p" d="m442.9 217.4h-199.9c-1.1 0-2-0.9-2-2 0-1.1 0.9-2 2-2h199.9c1.1 0 2 0.9 2 2 0 1.1-0.9 2-2 2z"/><path class="q" d="m558.9 296h-225.2c-7.1 0-13-5.8-13-13v-217.4c0-7.2 5.8-13 13-13l227-0.6c7.2 0 13 5.8 13 13.1l-1.8 218c0 7.1-5.9 12.9-13 12.9z"/><path class="p" d="m561.1 82l-4.3 187.7c-0.1 7.3-6.1 13.1-13.4 13l-195.6-3.6c-7.2-0.1-12.9-6-13-13.1l-1.4-182.9c0-7.2 5.9-13.2 13.1-13.2l201.4-1.3c7.3 0 13.3 6 13.2 13.4z"/><rect class="p" x="376.7" y="81.7" width="163" height="9.3" rx="3.9"></rect><path class="p" d="m522.4 103.1c-0.1 2-1.8 3.6-3.9 3.7l-135.7 2.5c-2.2 0-4-1.8-4-4v-0.3c0-2.2 1.7-3.9 3.9-4l135.7-2.1c2.2 0 4.1 1.9 4 4.2z"/><path fill-rule="evenodd" class="r" d="m536.2 272.5q-0.1 0-0.1 0l-183.5-2.2c-3.1-0.1-5.9-1.3-8-3.5-2.2-2.2-3.3-5.1-3.2-8.1l4.7-129.1c0-3.1 1.3-5.9 3.5-8 2.1-2.1 5-3.2 8.1-3.2l183.1 3.6c6.3 0.1 11.3 5.3 11.2 11.6q0 0 0 0l-4.4 127.7c-0.1 6.2-5.2 11.2-11.4 11.2zm-178.8-150.1c-1.9 0-3.7 0.8-5.1 2.1-1.4 1.4-2.2 3.2-2.2 5.2l-4.7 129.1c-0.1 1.9 0.7 3.8 2 5.2 1.4 1.4 3.3 2.2 5.2 2.3l183.5 2.2q0.1 0 0.1 0c4 0 7.3-3.3 7.4-7.3l4.4-127.7c0-4.1-3.2-7.4-7.2-7.5l-183.2-3.6q-0.1 0-0.2 0z"/><path class="r" d="m547.6 147.3h-199.8c-1.1 0-2-0.9-2-2 0-1.1 0.9-2 2-2h199.8c1.1 0 2 0.9 2 2 0 1.1-0.9 2-2 2z"/><path class="s" d="m181.2 326.8h245.5c13.5 0 24.7 10.7 25.4 24.2l18.1 355.9c0.6 10.6-7.8 19.5-18.4 19.7l-281.3 5.1c-10 0.2-18.2-7.8-18.2-17.8v-358.2c0-15.9 13-28.9 28.9-28.9z"/><path class="r" d="m211.6 725.7q0 0 0 0l-31.5-0.4c-10.5-0.2-19.1-8.9-19.1-19.4v-47.5c0-0.4 0.3-0.7 0.7-0.7 0.3 0 0.6 0.3 0.6 0.7v47.5c0 9.8 8 17.9 17.8 18l31.5 0.4c0.4 0 0.7 0.3 0.7 0.7 0 0.4-0.3 0.7-0.7 0.7z"/><path class="r" d="m161.7 644.3c-0.4 0-0.7-0.3-0.7-0.6v-7.7c0-0.4 0.3-0.7 0.7-0.7 0.3 0 0.6 0.3 0.6 0.7v7.7c0 0.3-0.3 0.6-0.6 0.6z"/><path class="t" d="m182 328c33.5 4.5 148.8 18.6 244.1 11.3 4.3-0.3 8.1 2.9 8.3 7.3l19 357.5c0.3 4.9-3.5 9.1-8.4 9.4-40 2.4-205.1 11.5-264 5.4-3.6-0.4-6.3-3.4-6.3-7l-2.2-375.5c-0.1-5.1 4.4-9.1 9.5-8.4z"/><path class="p" d="m185.6 337.3c32.2 4.3 143.2 17.9 234.9 10.8 4.2-0.3 7.8 2.9 8 7.1l18.3 344c0.2 4.7-3.4 8.8-8.1 9-38.5 2.3-197.4 11.1-254.1 5.2-3.4-0.4-6.1-3.3-6.1-6.7l-2.1-361.4c0-4.9 4.3-8.7 9.2-8z"/><path class="u" d="m211.4 366.6l80.8 2.9c2.7 0 5.1 2 5.6 4.8 3.1 16.8 2.1 57 1.7 70.9-0.1 2.7-2.3 4.9-5 5-24 1.3-66.6 0.3-80.3-0.1-2.4-0.1-4.4-2-4.5-4.5l-3.4-73.8c-0.2-2.9 2.2-5.3 5.1-5.2z"/><circle class="v" cx="252.7" cy="398.2" r="15.9"/><path class="v" d="m225.3 438.3c4.5-6.4 13.3-15.3 28.3-15.7 15.6-0.4 24.5 9.4 28.8 16.1 1.7 2.6-0.1 6.1-3.2 6.1h-50.6c-3.3 0-5.2-3.8-3.3-6.5z"/><g style="opacity:.8"><path class="r" d="m323 378.3c-2.2 0-4.5-1.5-5.1-3.4-0.7-1.8 0.6-3.2 2.8-3.2l86.3 1.5c2.2 0.1 4 1.2 4.1 2.6 0 1.3-1.8 2.5-4 2.5z"/></g><g style="opacity:.8"><path class="r" d="m407 387c2.2 0 4 1.2 4.1 2.5 0 1.4-1.8 2.5-4 2.5h-84.1c-2.2 0-4.5-1.5-5.1-3.3-0.7-1.8 0.6-3.3 2.8-3.2z"/></g><g style="opacity:.8"><path class="r" d="m407 400.9c2.2 0.1 4 1.2 4.1 2.6 0 1.3-1.8 2.5-4 2.5h-84.1c-2.2 0-4.5-1.5-5.1-3.4-0.7-1.8 0.6-3.2 2.8-3.2z"/></g><path class="v" d="m377.5 411.6c6.9-0.5 19.7-0.8 26.7-0.9 3 0 5.6 2 6.3 4.9 1.4 5.6 3.2 15.4 3 25.8-0.1 3.1-2.6 5.6-5.7 5.5l-26-0.3c-3.2 0-5.9-2.4-6.1-5.6l-2.3-24.4c-0.3-2.6 1.6-4.8 4.1-5z"/><g style="opacity:.8"><path class="r" d="m322.7 424c-2.2 0-4.2-1.5-4.6-3.3-0.3-1.8 1.3-3.2 3.5-3.2l38.6 1.4c2.2 0.1 4 1.3 4 2.6 0 1.4-1.8 2.5-4 2.5z"/></g><g style="opacity:.8"><path class="r" d="m360.1 433.7c2.2 0 4 1.1 4.1 2.4 0.1 1.4-1.7 2.6-3.9 2.6l-37.5 1.4c-2.2 0.1-4.3-1.3-4.6-3.1-0.4-1.8 1.1-3.3 3.3-3.3z"/></g><g style="opacity:.8"><path class="r" d="m215.5 473.2c-2.2 0-5.1-1.4-6.5-3.1l-0.3-0.4c-1.3-1.7-0.7-3.1 1.5-3.1l205.2 1.7c2.2 0 4.1 1.1 4.2 2.5 0.1 1.3-1.7 2.4-3.9 2.4z"/></g><g style="opacity:.8"><path class="r" d="m415.4 482c2.2 0 4.1 1.2 4.2 2.5 0.1 1.4-1.7 2.5-3.9 2.5h-200.2c-2.2 0-5.1-1.4-6.5-3.1l-0.3-0.4c-1.3-1.7-0.7-3.1 1.5-3.1z"/></g><path class="v" d="m208.2 503.3c5-0.3 14.3-0.5 19.4-0.6 2.2 0 4.1 1.5 4.6 3.6 1 4.1 2.4 11.2 2.2 18.8 0 2.3-1.9 4.1-4.1 4l-19-0.2c-2.3 0-4.3-1.8-4.5-4.1l-1.7-17.8c-0.1-1.9 1.2-3.5 3.1-3.7z"/><g style="opacity:.8"><path class="r" d="m289.5 512.6c2.2 0.1 4 1.6 4 3.4 0 1.8-1.8 3.3-4 3.3h-43.8c-2.2 0-4.3-1.8-4.6-4l-0.1-0.8c-0.3-2.2 1.2-3.9 3.4-3.8z"/></g><path class="v" d="m311.5 503.3c5-0.3 14.4-0.5 19.5-0.6 2.2 0 4.1 1.5 4.6 3.6 1 4.1 2.4 11.2 2.2 18.8-0.1 2.3-1.9 4.1-4.2 4l-19-0.2c-2.3 0-4.2-1.8-4.4-4.1l-1.7-17.8c-0.2-1.9 1.2-3.5 3-3.7z"/><g style="opacity:.8"><path class="r" d="m392.8 512.6c2.2 0.1 4 1.6 4 3.4 0.1 1.8-1.7 3.3-3.9 3.3h-43.8c-2.2 0-4.3-1.8-4.6-4l-0.2-0.8c-0.3-2.2 1.2-3.9 3.4-3.8z"/></g><g style="opacity:.8"><path class="r" d="m210.2 565.1c-2.2 0-5.1-1.4-6.4-3.2l-0.2-0.3c-1.4-1.7-0.7-3.1 1.5-3.1l199.2 1.6c2.2 0 4.1 1.2 4.2 2.5 0.1 1.4-1.7 2.5-3.9 2.5z"/></g><g style="opacity:.6"><path class="r" d="m404.3 573.9c2.2 0 4.1 1.1 4.2 2.5 0.1 1.3-1.7 2.5-3.9 2.5h-194.4c-2.2 0-5.1-1.5-6.4-3.2l-0.2-0.3c-1.4-1.7-0.7-3.2 1.5-3.1z"/></g><g style="opacity:.6"><path class="r" d="m404.3 587.8c2.2 0 4.1 1.2 4.2 2.5 0.1 1.4-1.7 2.5-3.9 2.5h-194.4c-2.2 0-5.1-1.4-6.4-3.2l-0.2-0.3c-1.4-1.7-0.7-3.1 1.5-3.1z"/></g><path fill-rule="evenodd" class="w" d="m319.7 313.3l-27.9-2.5-2.3-25.5c-0.5-5.2 2.7-10 7.7-11.4 5.4-1.6 13.1-1.7 22 4.4q17.4 12.1 0.5 35zm-5.8-21.3c0-3.8-3.1-7-7-7-3.8 0-6.9 3.2-6.9 7 0 3.8 3.1 6.9 6.9 6.9 3.9 0 7-3.1 7-6.9z"/><path class="r" d="m294.6 300.1c-0.3 0-0.6-0.3-0.7-0.7l-0.3-4c-0.1-0.4 0.2-0.7 0.6-0.8 0.3 0 0.7 0.3 0.7 0.7l0.4 4c0 0.4-0.3 0.7-0.6 0.8q-0.1 0-0.1 0zm-0.7-8c-0.4 0-0.7-0.3-0.7-0.6l-0.3-3.1c-0.4-4.9 2.7-9.5 7.3-10.9 3.4-0.9 6.8-1.1 10.2-0.4 0.4 0.1 0.6 0.5 0.6 0.8-0.1 0.4-0.5 0.6-0.8 0.5-3.3-0.6-6.5-0.5-9.6 0.4-4.1 1.2-6.7 5.2-6.3 9.5l0.2 3.1c0.1 0.3-0.2 0.6-0.6 0.7q0 0 0 0z"/><path class="x" d="m253.8 327.3v-12.8c0-4.5 3.7-8 8.1-7.9l88.6 3.1c3.9 0.1 7.1 3.2 7.3 7.1l0.8 12.4z"/><path class="r" d="m286.8 311.5h-3.8c-0.3 0-0.7-0.3-0.7-0.7 0-0.4 0.4-0.7 0.7-0.7h3.8c0.4 0 0.7 0.3 0.7 0.7 0 0.4-0.3 0.7-0.7 0.7z"/><path class="r" d="m258.6 323.3c-0.4 0-0.7-0.3-0.7-0.7v-5.2c0-4 3.3-7.3 7.3-7.3h14c0.4 0 0.7 0.3 0.7 0.7 0 0.4-0.3 0.7-0.7 0.7h-14c-3.3 0-5.9 2.6-5.9 5.9v5.2c0 0.4-0.3 0.7-0.7 0.7z"/><path class="y" d="m226.1 322.6h154.8c5.6 0 10.4 4 11.3 9.5l0.1 0.8c1.1 6-3.6 11.5-9.7 11.5h-158.8c-3.7 0-6.6-3.1-6.4-6.7l0.3-7.1c0.2-4.5 3.9-8 8.4-8z"/><path fill-rule="evenodd" class="r" d="m337.6 702.2q-0.1 0-0.2 0l-65.5-0.7c-9.3-0.1-17.1-6.5-17.9-15l-5.8-54.9c-0.3-3.2 0.7-6.4 2.8-9 2.4-2.9 6.1-4.7 10-4.9 5.6-0.4 13.3-1.1 21.6-1.8 17.3-1.5 38.9-3.3 51-3.5 8.8 0 16.3 5.2 18.3 12.9 3.4 12.6 3.1 36.5 2.5 61.9-0.2 8.3-7.7 15-16.8 15zm-76.2-79.5c-2.6 0.1-5 1.3-6.5 3.1-1.3 1.5-1.9 3.4-1.7 5.3l5.8 54.9c0.6 5.9 6.2 10.4 13 10.5l65.5 0.6q0.1 0 0.1 0c6.4 0 11.6-4.4 11.8-10 0.6-25.1 0.9-48.5-2.3-60.5-1.5-5.4-7.1-9.1-13.4-9.1-12 0.1-33.5 2-50.7 3.4-8.3 0.7-16.1 1.4-21.6 1.8z"/><path class="p" d="m268.4 628.3c13.8-0.9 43.7-3.9 57.9-4.1 6-0.1 11.3 3.5 12.7 8.8 2.7 10.1 2.4 30.3 1.9 48.9-0.2 5.6-5.3 10-11.5 10l-52.4-0.5c-6.4-0.1-11.8-4.5-12.4-10.2l-4.6-43.9c-0.4-4.6 3.3-8.6 8.4-9z"/><path class="z" d="m327.9 639.6c-2.6 4.6-9.3 13.6-17.3 23.2q6.7 13 11.7 23.5c-3.6 17.9-14.7 7.9-25.6-8-18.2 19.1-35.8 32.1-27.7 5.2 0.3-1 7-11.1 16.2-23.9-4.5-7.9-8.3-15.3-10.6-20-9.4-18.7-10.3-25.3 1.8-25.3 5.1 0 13.8 12.4 22.4 27 13.3-17.5 27.8-34.8 35.6-39.1 16.9-9.4 2.8 20.5-6.5 37.4z"/><path class="A" d="m440 187.1h330.2c18.2 0 33.2 14.2 34.2 32.4l24.3 478.8c0.8 14.3-10.4 26.3-24.7 26.5l-378.5 6.9c-13.4 0.3-24.4-10.5-24.4-23.9v-481.9c0-21.4 17.4-38.8 38.9-38.8z"/><path class="r" d="m480.8 723.6q0 0 0 0l-42.3-0.6c-14.2-0.2-25.7-11.8-25.7-26v-63.9c0-0.5 0.4-0.9 0.9-0.9 0.5 0 0.9 0.4 0.9 0.9v63.9c0 13.2 10.7 24 23.9 24.2l42.3 0.6c0.5 0 0.9 0.4 0.9 0.9 0 0.5-0.4 0.9-0.9 0.9z"/><path class="r" d="m413.7 614.2c-0.5 0-0.9-0.4-0.9-0.9v-10.4c0-0.5 0.4-0.9 0.9-0.9 0.5 0 0.9 0.4 0.9 0.9v10.4c0 0.5-0.4 0.9-0.9 0.9z"/><path class="B" d="m441 188.6c45.1 6.1 200.1 25 328.4 15.2 5.8-0.4 10.9 4 11.2 9.8l25.6 481c0.3 6.6-4.7 12.2-11.3 12.6-53.9 3.2-276 15.5-355.2 7.2-4.9-0.5-8.5-4.6-8.5-9.4l-3-505.1c-0.1-6.9 6-12.2 12.8-11.3z"/><path class="p" d="m445.8 201.1c43.4 5.9 192.6 24.1 316 14.6 5.7-0.4 10.5 3.8 10.8 9.5l24.6 462.8c0.4 6.3-4.5 11.8-10.8 12.1-51.9 3.1-265.6 15-341.9 7-4.6-0.5-8.1-4.4-8.1-9.1l-2.9-486.1c0-6.6 5.8-11.7 12.3-10.8z"/><path class="v" d="m480.6 240.6l108.6 3.8c3.7 0.1 6.9 2.8 7.6 6.5 4.2 22.6 2.9 76.7 2.2 95.4-0.1 3.6-3 6.6-6.6 6.8-32.4 1.7-89.6 0.3-108-0.3-3.3-0.1-6-2.7-6.1-6l-4.6-99.2c-0.2-3.9 3-7.2 6.9-7z"/><circle class="C" cx="536.2" cy="283.1" r="21.3"/><path class="D" d="m499.3 337c6-8.6 17.9-20.5 38.1-21.1 20.9-0.6 33 12.7 38.7 21.7 2.3 3.5-0.2 8.1-4.4 8.1h-67.9c-4.5 0-7.1-5-4.5-8.7z"/><g style="opacity:.6"><path class="r" d="m629.4 256.2c-2.2 0-4.6-1.7-5.4-3.7l-0.4-1.4c-0.8-2.1 0.4-3.7 2.6-3.7l118.9 2.1c2.2 0 4 1.6 4.1 3.4 0 1.8-1.7 3.3-3.9 3.3z"/></g><g style="opacity:.6"><path class="r" d="m745.1 268c2.2 0 4 1.6 4.1 3.4 0 1.8-1.7 3.3-3.9 3.3h-115.9c-2.2 0-4.6-1.7-5.4-3.7l-0.4-1.4c-0.8-2.1 0.4-3.8 2.6-3.7z"/></g><g style="opacity:.6"><path class="r" d="m745.1 286.8c2.2 0 4 1.5 4.1 3.4 0 1.8-1.7 3.3-3.9 3.3h-115.9c-2.2 0-4.6-1.7-5.4-3.8l-0.4-1.3c-0.8-2.1 0.4-3.8 2.6-3.7z"/></g><path class="E" d="m704.1 301.1c9.2-0.7 26.4-1.1 35.8-1.2 4 0 7.6 2.7 8.5 6.6 1.8 7.5 4.3 20.7 4 34.6-0.1 4.2-3.5 7.6-7.7 7.5l-34.9-0.4c-4.3 0-7.9-3.3-8.3-7.6l-3-32.9c-0.4-3.4 2.2-6.4 5.6-6.6z"/><path class="F" d="m628.9 317.8c-2.2 0-4.3-1.8-4.7-3.9l-0.1-1.1c-0.4-2.2 1.1-3.9 3.3-3.8l54.7 2c2.2 0.1 4 1.6 4 3.5 0 1.8-1.7 3.3-3.9 3.3z"/><path class="G" d="m682 330.8c2.2 0 4.1 1.4 4.1 3.3 0.1 1.8-1.6 3.4-3.8 3.4l-53.2 2c-2.2 0.1-4.4-1.6-4.8-3.8l-0.2-1c-0.5-2.2 0.9-3.9 3.1-3.9z"/><g style="opacity:.6"><path class="r" d="m484.7 384c-2.2 0-5.1-1.4-6.5-3.1l-2.1-2.7c-1.3-1.7-0.7-3.1 1.5-3.1l278.8 2.2c2.2 0 4.1 1.5 4.2 3.4 0.1 1.8-1.6 3.3-3.8 3.3z"/></g><g style="opacity:.6"><path class="r" d="m756.4 395.8c2.2 0 4.1 1.5 4.2 3.4 0.1 1.8-1.6 3.3-3.8 3.3h-272.1c-2.2 0-5.1-1.4-6.5-3.1l-2.1-2.7c-1.3-1.7-0.7-3.1 1.5-3.1z"/></g><path class="H" d="m476.2 424.5c6.8-0.5 19.3-0.8 26.2-0.9 3 0 5.5 2 6.2 4.8 1.4 5.6 3.2 15.2 3 25.4-0.1 3-2.6 5.4-5.7 5.4l-25.5-0.3c-3.1 0-5.7-2.4-6-5.5l-2.3-24c-0.2-2.5 1.7-4.7 4.1-4.9z"/><g style="opacity:.6"><path class="r" d="m587 437c2.2 0.1 4 2 4 4.2v0.8c0 2.2-1.7 4-3.9 4h-61.8c-2.2 0-4.2-1.8-4.6-4l-0.5-3.9c-0.4-2.1 1.2-3.8 3.4-3.7z"/></g><path class="I" d="m615.3 424.5c6.7-0.5 19.3-0.8 26.2-0.9 2.9 0 5.5 2 6.2 4.8 1.3 5.6 3.1 15.2 2.9 25.4-0.1 3-2.6 5.4-5.6 5.4l-25.5-0.3c-3.2 0-5.8-2.4-6.1-5.5l-2.2-24c-0.2-2.5 1.6-4.7 4.1-4.9z"/><g style="opacity:.6"><path class="r" d="m726 437c2.2 0.1 4 2 4 4.2v0.8c0.1 2.2-1.7 4-3.9 4h-61.7c-2.2 0-4.3-1.8-4.6-4l-0.6-3.9c-0.3-2.1 1.2-3.8 3.4-3.7z"/></g><g style="opacity:.6"><path class="r" d="m477.6 507.6c-2.2 0-5.1-1.4-6.4-3.2l-2-2.6c-1.4-1.7-0.7-3.1 1.5-3.1l270.8 2.2c2.2 0 4.1 1.5 4.2 3.4 0.1 1.8-1.6 3.3-3.8 3.3z"/></g><g style="opacity:.6"><path class="r" d="m741.5 519.4c2.2 0 4.1 1.5 4.2 3.4 0.1 1.8-1.6 3.3-3.8 3.3h-264.3c-2.2 0-5.1-1.4-6.4-3.2l-2-2.6c-1.4-1.7-0.7-3.1 1.5-3.1z"/></g><g style="opacity:.6"><path class="r" d="m741.5 538.2c2.2 0 4.1 1.5 4.2 3.3 0.1 1.9-1.6 3.4-3.8 3.4h-264.3c-2.2 0-5.1-1.5-6.4-3.2l-2-2.6c-1.4-1.7-0.7-3.1 1.5-3.1z"/></g><path fill-rule="evenodd" class="J" d="m626.2 168.8l-37.4-3.3-3.2-34.4c-0.6-6.9 3.7-13.3 10.4-15.3 7.3-2.1 17.6-2.3 29.6 6q23.4 16.3 0.6 47zm-7.8-28.6c0-5.2-4.2-9.4-9.3-9.4-5.2 0-9.4 4.2-9.4 9.4 0 5.1 4.2 9.3 9.4 9.3 5.1 0 9.3-4.2 9.3-9.3z"/><path class="r" d="m592.5 151c-0.5 0-0.9-0.3-0.9-0.8l-0.5-5.5c0-0.5 0.3-0.9 0.8-0.9 0.5-0.1 1 0.3 1 0.8l0.5 5.4c0.1 0.5-0.3 1-0.8 1q-0.1 0-0.1 0zm-1-10.7c-0.4 0-0.8-0.3-0.9-0.8l-0.4-4.2c-0.6-6.6 3.6-12.7 9.9-14.6 4.5-1.3 9.1-1.5 13.7-0.5 0.5 0.1 0.8 0.6 0.7 1.1-0.1 0.4-0.6 0.8-1.1 0.7-4.3-0.9-8.6-0.8-12.8 0.5-5.5 1.6-9.1 6.9-8.6 12.7l0.4 4.1c0.1 0.5-0.3 1-0.8 1q0 0-0.1 0z"/><path class="K" d="m537.6 187.7v-17.3c0-5.9 5-10.7 10.9-10.5l119.2 4.1c5.3 0.1 9.5 4.3 9.8 9.6l1 16.6z"/><path class="r" d="m582 166.4h-5.1c-0.5 0-0.9-0.4-0.9-0.9 0-0.5 0.4-0.9 0.9-0.9h5.1c0.5 0 0.9 0.4 0.9 0.9 0 0.5-0.4 0.9-0.9 0.9z"/><path class="r" d="m544.1 182.3c-0.5 0-0.9-0.4-0.9-0.9v-7c0-5.4 4.4-9.8 9.8-9.8h18.8c0.5 0 0.9 0.4 0.9 0.9 0 0.5-0.4 0.9-0.9 0.9h-18.8c-4.4 0-8 3.6-8 8v7c0 0.5-0.4 0.9-0.9 0.9z"/><path class="L" d="m500.3 181.4h208.3c7.5 0 13.9 5.4 15.2 12.7l0.2 1.1c1.4 8-4.9 15.4-13.1 15.4h-213.7c-4.9 0-8.8-4.1-8.6-9l0.5-9.5c0.3-6 5.2-10.7 11.2-10.7z"/><path fill-rule="evenodd" class="r" d="m673.4 691.9q-0.1 0-0.3 0l-105-1c-15-0.1-27.4-10.4-28.8-24l-9.2-88.1c-0.5-5.1 1.1-10.2 4.5-14.4 3.9-4.6 9.7-7.5 16.1-7.9 8.8-0.6 21.3-1.7 34.5-2.8 27.7-2.3 62.3-5.3 81.7-5.5 14.2-0.1 26.1 8.3 29.5 20.5 5.4 20.3 4.9 58.5 3.9 99.3-0.3 13.3-12.4 23.9-26.9 23.9zm-122.2-127.3c-4.1 0.2-7.9 2.1-10.4 5-2.1 2.4-3 5.4-2.7 8.4l9.2 88.1c1 9.5 10 16.7 20.9 16.8l105 1q0.1 0 0.2 0c10.2 0 18.6-7.2 18.8-16.1 1.1-40.1 1.6-77.8-3.6-97-2.4-8.6-11.3-14.5-21.5-14.6-19.2 0.3-53.6 3.2-81.2 5.6-13.3 1.1-25.8 2.1-34.7 2.8z"/><path class="p" d="m562.5 573.6c22.1-1.5 70-6.3 92.8-6.6 9.6-0.1 18 5.7 20.3 14 4.4 16.3 3.8 48.6 3.1 78.5-0.3 8.9-8.5 16-18.5 15.9l-83.9-0.8c-10.3-0.1-18.9-7.1-19.9-16.3l-7.3-70.4c-0.8-7.2 5.2-13.7 13.4-14.3z"/><path class="M" d="m567 587.5c7.8-4.6 17.8-1.9 22.2 6l20.7 37.1c2.1 3.8 7.5 3.5 9.3-0.4l51.3-114.3c2.6-5.7 11.1-3.8 11 2.5-0.5 34.9-9.8 101.4-65.7 157.1q-30.8-12-55.6-66.5c-3.6-7.8-0.7-17.2 6.8-21.5z"/><path class="N" d="m762.1 719.1q0.9 5.2 1.4 10.4c0.2 2-1.4 3.7-3.4 3.8-6.9 0.3-21.5 0.9-26.8 0.6-0.8 0-1.3-0.8-1-1.5 0.2-0.7 0.7-1.2 1.3-1.4l24.2-11.2z"/><path class="O" d="m762.9 716.1l-0.8 6.2q-4.2 2-7.1-0.3l1.8-6.9z"/><path class="P" d="m779.8 599l1 27.3q1.7-42.7 0 1.5c-1.5 39.6-13.1 81-15.6 89.3-0.2 0.9-1.1 1.5-2 1.5-3.1-0.1-5.6-0.9-7-1.4-0.5-0.2-0.8-0.8-0.7-1.4 8.5-35.6 7.1-115.2 6.8-116.8z"/><path class="Q" d="m790 721.8q1.5 2.7 2.9 9.7c0.3 1.2-0.6 2.4-1.9 2.5-2.3 0.3-5.8 0.6-8.6 0.5-1.2 0-2.2-1.1-2.1-2.4 0.3-2.5 1.3-6.7 4.3-10z"/><path class="R" d="m791.3 713.8l-1.7 9.5q-1.7 1.2-5.1 0.3l0.8-10.1z"/><path class="S" d="m796 601.5c6.9 41.9-1.5 103.6-4.4 115.7-0.2 0.8-0.8 1.3-1.5 1.5-1.3 0.2-3.4 0.3-5.5-0.3-0.7-0.2-1.2-0.8-1.2-1.6-0.4-9.7 0.3-69.7-6.2-93.4-0.3-1.2-1-2.2-2-3l-12.6-8.9-1-14.4z"/><path class="T" d="m751.7 522q20.8-0.4 43.8 5.4 6.2 36.3 1.1 78.1-16.2 4.2-34.3-2.6-2.7-15.2-15.2-57.8c-10.2-1.3-18.6-4.2-25.5-8.1 5.3-6.1 7.8-13.9 8.8-18.4 7.4 2.2 14.8 3.5 21.3 3.4z"/><path class="U" d="m690.1 491.3q2.1-2.5 4.7-1.3c3 12.9 19.1 23.4 35.6 28.6-1 4.5-3.5 12.3-8.8 18.4q-27.4-15.4-31.5-45.7z"/><path class="V" d="m686.5 489.5c-0.9-1.3-1.9-3-2.6-4.2-0.7-1.3-0.9-2.8-0.5-4.2 0.4-1.8 1.5-3.1 2.3-4.6l-4-4.1q-1.1-1.4 0.2-2.7 8.3 7.2 12.5 13c0.8 1.1 0 6.8 0 8.1-1.5 2.8-4 1.8-3.8 1.1q-2.4 0-4.1-2.4z"/><path class="W" d="m687.4 479.2l3.7 3.1 1.1 3.1-3.2 3.6q-1.1-6.1-1.9-7.4c-0.8-1.3-0.4-2 0.3-2.4z"/><path class="X" d="m787.5 547.6l8-20.2q19.4 13.3 22.6 30c-3.6 0.3-10.3 1.2-16.9 4.5q-1.4-7.9-13.7-14.3z"/><path class="Y" d="m770.5 566.6q21.8 12.3 29.2 1.8c1.5-2.2 1.9-4.4 1.5-6.5 6.6-3.3 13.3-4.2 16.9-4.5 1 5.1 0.5 10.4-2.5 15.9q-12.9 23.6-48-1.3z"/><path class="Z" d="m772 583.8l-27.7 0.2c-0.4 0-0.8-0.2-1-0.5-7.1-9.2-21.2-37.5-24.6-44.5-0.4-0.7 0.1-1.6 1-1.7 6-0.5 16.1 0.1 24.8 0.8 7.3 0.6 13.5 1.3 15.7 1.6 0.5 0 0.9 0.4 1 0.9l11.9 41.6c0.2 0.8-0.3 1.6-1.1 1.6z"/><path class="a0" d="m743.8 535l0.5 2.2c0.1 0.5-0.2 0.9-0.7 0.8l-8.3-1.1c-0.2 0-0.4-0.2-0.5-0.4l-0.8-2.6c-0.2-0.5 0.2-0.9 0.6-0.8l8.7 1.4c0.2 0.1 0.4 0.2 0.5 0.5z"/><path class="a1" d="m748.9 542.8l-17.1-0.8c-0.4 0-0.7-0.3-0.8-0.7l-1.1-4.6c-0.1-0.6 0.3-1.1 0.9-1l17.5 1.7c0.4 0.1 0.7 0.3 0.7 0.7l0.8 3.7c0.1 0.6-0.4 1.1-0.9 1z"/><path class="a2" d="m761.4 568.3q-2 1.3-3.2-0.8l1.9-2q-2.8 1.3-3.1-1.2l2.1-1.6q-3.3 1-3.6-2.1 5.1-1.9 9.4-2.6c4.4-0.6 5.7 2.5 6.3 4.9q0.7 2.4-1 9.2c-5.8 0.9-6.7-5.1-8.8-3.8z"/><path class="a3" d="m772.8 505.1l6.6 19.1c0.1 0.3 0 0.7-0.3 0.9-1.8 0.9-8.3 3.8-16.2-1.1-0.8-0.6-1.3-1.4-1.5-2.4l-2.1-16.5z"/><path class="a4" d="m775.3 492.4l-5.5 14.8c-7.8 4.5-16.9 4.9-17.8-0.7q-0.9-5.5 6.4-19.2z"/><path class="a5" d="m769.5 499.9c-0.3-0.1-0.4-0.5-0.3-0.8 0.6-0.9 1.7-2.7 2.1-4.3q1.3-0.9-3.4-2c-4.6-1.1-11.5-2.8-13-6.7-1.4-3.9 2.3-13.6 8.3-5.9 0.2 0.3 0.6 0.3 0.9 0 0.9-1.2 3.5-3.9 7.1-2.3 3.3 1.5 3.7 4 3.6 5.2 0 0.4 0.3 0.6 0.7 0.6 1.7-0.3 5.7-0.6 7.6 3.5 1.5 3.4 0.5 5.4-0.4 6.3-0.3 0.3-0.2 0.8 0.3 0.9 1.1 0.4 2.5 1.3 2.3 3.9-0.2 3.6-4.2 3.3-5.3 3.1-0.2 0-0.4 0-0.5 0.2-1 1.1-5.4 5.7-10.1 6.2-0.5 0.1-0.8-0.3-0.6-0.7l2-6c0.1-0.3 0-0.6-0.3-0.7z"/><path class="a6" d="m768.7 500.8q5.1-3.6 5.5-0.6c0.4 3-4.6 4.3-7.1 3.2z"/><path class="a7" d="m814.9 308.9c0.1 0 37.6-65.6 42.6-71.8 0.9-1 2.2-1.6 3.5-1.4l10.5 1.2 12.3 26.6-20.5-11.9c2 14-24.2 34.8-33.3 42.4-0.9 0.8-1 2.2-0.1 3l3.6 3.8c-5.9 6-12.8 9.8-20.5 11.6z"/><path class="a8" d="m831.4 298.8q2.3 0.7 3.1 2.8c0.3 0.9-0.1 2-0.9 2.7-3.8 2.7-16.3 11.4-22 13.1-0.5 0.2-1-0.3-0.8-0.7 0.2-1.4 1.2-4.1 4.3-8l-0.3 0.6c-0.3 0.7 0.4 1.4 1.1 1.1 3.9-2.2 11.7-7 15.5-11.6z"/><path class="a9" d="m829.5 325c0.1 0 5.7-13.6 5.8-13.6 5.1-31.4 17.7-58.3 21.4-65.3 0.6-1.2 1.8-2 3.2-2.1l10.5-0.9 17.4 23.5-22.5-7.5c4.8 13.3-16.7 39-24 48.3-0.7 0.9-0.5 2.3 0.5 3l4.2 2.9c-4.5 7.1-10.4 12.2-17.6 15.5z"/><path class="aa" d="m843.6 311.7q2.4 0.3 3.6 2.2c0.5 0.8 0.4 2-0.4 2.8-3.1 3.4-13.6 14.5-18.8 17.3-0.5 0.3-1-0.1-1-0.6 0-1.3 0.4-4.1 2.6-8.6l-0.1 0.6c-0.2 0.8 0.7 1.3 1.3 0.8 3.3-2.9 10-9.1 12.8-14.5z"/><path class="ab" d="m919.5 238.1q9.5 14.2 10.2 20.6c0.8 6.4-2.6 8.7-12.5 9.5q-29.6 2.4-44.2-6.4c-2-12.9-3.4-16.2-20.3-23.2q21.4 1.7 25.7 0 4.3-1.7 41.1-0.5z"/><path class="ac" d="m881.6 159q6.6-7.8 13.7 1.8c1.2 1.8 6.1 0.3 7.9 4 0.9 1.8 2.9 2.9 5 2.5 5.1-0.9 13.5-1 17.6 7 3.2 6.2 0.8 9.8-2.4 11.8-2.3 1.5-3.1 4.6-1.7 6.9 1.3 2.3 1.6 5.4-1.9 9.1q-7.8 8.4-23.2-5.3l-12.2-28.9z"/><path class="ad" d="m893.8 236.3q-11.1-10.6-16.5-17.5c-2.9-3.8-3.9-8.8-2.5-13.3 2.5-8.4 6.9-17.1 7.3-18.4q0.6-2.1 13-2 24.4 15.8 34 42.6l-10.8 3.4q-6.3-10.7-12.6-17.5 10.8 14.4 11.2 20.3z"/><path class="ae" d="m872.7 240.4l8.3-9 9.6 2.6q11.2 1.7 17.6 0 6.4-1.8 6.4-1.8l14.5-4.5 2.3 6.4c0.5 1.7 0 3.5-1.5 4.5-1.2 0.9-2.7 1.9-3.6 2.3q-1.9 0.8-43.9 0.2z"/><path class="af" d="m886.6 170.2l8.3 15.5c-0.5 3.4-9 3.5-10.4 1.4q-0.1-0.3-0.2-0.6l-5-10.4c-0.2-1 2.6-4.4 3.5-4.9l3.3-1.8c1.2-0.6-4.1-0.7 0.5 0.8z"/><path class="ag" d="m886.6 169.5c1.2 6.6-1.3 10.5-3.4 12.9-2.1 2.4-6.2 2.7-10.3-4q-4.1-6.6-3.2-11.8c1.5-6.7 15.8-3.8 16.9 2.9z"/><path class="ah" d="m881.7 170.2q-6.7-8.8-11.8-1.1l0.1 2.6q-6.7-0.3-6-6.4c0.8-6.2 6.2-10.4 13.7-8.3 7.5 2.1 11.9 4.5 12.8 9.7q0.8 5.3-3.4 4.4-1.7-3.6-3.6-3.8-2-0.3-1.3 2.6z"/><path class="ai" d="m883.2 169.9q-3.5-4.4-0.3-5.4c3.1-0.9 3 4.4 2.8 6.4z"/><path class="aj" d="m900.2 244q0 0-0.1 0h-38.2c-0.9 0-1.7-0.8-1.7-1.8 0-0.9 0.8-1.7 1.7-1.7l38.2 0.1c1 0 1.8 0.7 1.8 1.7 0 0.9-0.8 1.6-1.7 1.7z"/><path class="ak" d="m827.6 209.3h31.8c2.4 0 4.5 1.4 5.5 3.5l14.7 31.2h-39.5c-1.5 0-2.9-1-3.5-2.4l-11.4-28.8c-0.6-1.7 0.6-3.5 2.4-3.5z"/><path class="al" d="m850 225.3c0.7 2.1 0.2 4.2-1.1 4.6-1.3 0.5-3-0.9-3.7-3.1-0.6-2.1-0.1-4.2 1.2-4.6 1.3-0.4 2.9 1 3.6 3.1z"/><path class="am" d="m274.3 259.1q-0.3 0-0.6-0.2-1.5-1.3-3.1-2.5c-0.5-0.3-0.5-0.9-0.2-1.4 0.3-0.4 1-0.5 1.4-0.2q1.6 1.3 3.2 2.6c0.4 0.3 0.4 0.9 0.1 1.4-0.2 0.2-0.5 0.3-0.8 0.3z"/><path class="am" d="m103.3 343.3c-0.5 0-0.9-0.4-0.9-0.9q-0.1-1.9-0.1-3.8 0-2.2 0.1-4.5c0-0.5 0.5-0.9 1-0.9 0.6 0 1 0.5 1 1q-0.1 2.2-0.1 4.4 0 1.9 0 3.7c0.1 0.6-0.4 1-0.9 1q0 0-0.1 0zm1.5-21.3q-0.1 0-0.2 0c-0.5-0.1-0.9-0.7-0.8-1.2 0.5-2.7 1.1-5.4 1.7-8.1 0.2-0.5 0.7-0.8 1.3-0.7 0.5 0.2 0.8 0.7 0.7 1.2-0.7 2.6-1.3 5.3-1.7 7.9-0.1 0.5-0.5 0.9-1 0.9zm5.8-20.6q-0.2 0-0.4-0.1c-0.5-0.2-0.8-0.8-0.5-1.3 1-2.6 2.1-5.1 3.3-7.6 0.2-0.5 0.8-0.7 1.3-0.4 0.5 0.2 0.7 0.8 0.5 1.3-1.2 2.4-2.3 4.9-3.3 7.4-0.1 0.4-0.5 0.7-0.9 0.7zm9.8-19.1q-0.3 0-0.5-0.1c-0.5-0.3-0.6-1-0.3-1.4 1.5-2.3 3.1-4.6 4.8-6.7 0.3-0.5 0.9-0.5 1.4-0.2 0.4 0.3 0.5 1 0.1 1.4-1.6 2.1-3.2 4.3-4.7 6.6-0.1 0.3-0.5 0.4-0.8 0.4zm13.5-16.6q-0.4 0-0.7-0.3c-0.4-0.3-0.4-1 0-1.4 2-1.9 4-3.8 6.1-5.6 0.4-0.3 1-0.3 1.4 0.1 0.3 0.5 0.3 1.1-0.1 1.5-2.1 1.7-4.1 3.5-6 5.4q-0.3 0.3-0.7 0.3zm16.6-13.4c-0.3 0-0.6-0.2-0.8-0.5-0.3-0.5-0.2-1.1 0.3-1.4 2.3-1.5 4.7-2.9 7.1-4.2 0.5-0.3 1.1-0.1 1.3 0.4 0.3 0.5 0.1 1.1-0.4 1.3-2.3 1.3-4.7 2.7-6.9 4.2q-0.3 0.2-0.6 0.2zm109.7-3q-0.3 0-0.5-0.2c-2.4-1.3-4.8-2.6-7.2-3.7-0.5-0.3-0.7-0.9-0.5-1.4 0.3-0.5 0.9-0.7 1.4-0.4 2.4 1.1 4.9 2.4 7.3 3.8 0.4 0.3 0.6 0.9 0.3 1.4-0.2 0.3-0.5 0.5-0.8 0.5zm-90.6-6.9c-0.4 0-0.8-0.2-1-0.6-0.2-0.5 0.1-1.1 0.6-1.3 2.6-1 5.2-1.9 7.8-2.7 0.5-0.2 1.1 0.1 1.2 0.6 0.2 0.6-0.1 1.1-0.6 1.3-2.6 0.8-5.2 1.7-7.7 2.7q-0.1 0-0.3 0zm71-1.9q-0.1 0-0.3-0.1c-2.6-0.8-5.2-1.6-7.8-2.2-0.5-0.1-0.8-0.7-0.7-1.2 0.1-0.5 0.7-0.9 1.2-0.7 2.7 0.6 5.3 1.4 7.9 2.3 0.6 0.1 0.8 0.7 0.7 1.2-0.2 0.4-0.6 0.7-1 0.7zm-50.4-3.8c-0.5 0-0.9-0.4-1-0.9-0.1-0.5 0.3-1 0.8-1.1 2.7-0.5 5.5-0.8 8.2-1.1 0.6 0 1 0.4 1.1 0.9 0 0.6-0.4 1-0.9 1.1-2.7 0.2-5.4 0.6-8 1q-0.1 0.1-0.2 0.1zm29.5-0.8q0 0-0.1 0c-2.7-0.4-5.4-0.6-8.1-0.7-0.5 0-1-0.4-0.9-1 0-0.6 0.5-1 1-1 2.7 0.1 5.5 0.4 8.2 0.7 0.6 0 1 0.5 0.9 1.1-0.1 0.5-0.5 0.9-1 0.9z"/><path class="am" d="m105.4 360.5c-0.5 0-0.9-0.3-1-0.8q-0.4-1.9-0.7-3.9c-0.1-0.6 0.3-1.1 0.8-1.2 0.6-0.1 1.1 0.3 1.2 0.8q0.3 2 0.7 3.9c0.1 0.6-0.3 1.1-0.8 1.2q-0.1 0-0.2 0z"/><path class="am" d="m151.6 427.7q-0.3 0-0.6-0.2-1.7-1-3.3-2.2c-0.5-0.3-0.6-0.9-0.3-1.4 0.3-0.4 0.9-0.5 1.4-0.2q1.6 1.1 3.3 2.2c0.5 0.3 0.6 0.9 0.3 1.3-0.2 0.3-0.5 0.5-0.8 0.5z"/><path class="am" d="m207.8 444.1q-2.1 0-4.1-0.1c-0.6 0-1-0.5-1-1 0-0.6 0.5-1 1.1-1 2.6 0.1 5.3 0.1 7.9 0 0.6 0 1 0.4 1.1 1 0 0.5-0.4 1-1 1q-2 0.1-4 0.1zm17-1.4c-0.5 0-1-0.3-1-0.8-0.1-0.6 0.2-1.1 0.8-1.2 2.6-0.4 5.2-0.9 7.8-1.6 0.5-0.1 1.1 0.2 1.2 0.8 0.1 0.5-0.2 1-0.7 1.2-2.7 0.6-5.3 1.2-8 1.6q-0.1 0-0.1 0zm-34.1 0q-0.1 0-0.1 0c-2.7-0.5-5.4-1-8-1.7-0.5-0.1-0.9-0.6-0.7-1.2 0.1-0.5 0.7-0.8 1.2-0.7 2.6 0.6 5.2 1.2 7.8 1.6 0.5 0.1 0.9 0.6 0.8 1.2-0.1 0.5-0.5 0.8-1 0.8zm54.4-5.5c-0.4 0-0.8-0.3-0.9-0.7-0.2-0.5 0-1 0.5-1.2 2.5-1 5-2 7.3-3.2 0.5-0.2 1.1 0 1.4 0.5 0.2 0.5 0 1.1-0.5 1.3-2.4 1.2-4.9 2.3-7.5 3.2q-0.1 0.1-0.3 0.1zm-74.7 0q-0.2 0-0.4-0.1c-2.5-1-5-2-7.4-3.2-0.5-0.2-0.7-0.8-0.5-1.3 0.2-0.5 0.8-0.7 1.3-0.5 2.4 1.1 4.9 2.2 7.3 3.1 0.6 0.2 0.8 0.8 0.6 1.3-0.1 0.4-0.5 0.7-0.9 0.7zm93.5-9.5c-0.3 0-0.6-0.1-0.8-0.4-0.3-0.5-0.2-1.1 0.3-1.4 2.2-1.4 4.4-3 6.5-4.6 0.5-0.3 1.1-0.2 1.4 0.2 0.3 0.5 0.3 1.1-0.2 1.4-2.1 1.7-4.4 3.2-6.7 4.7q-0.2 0.1-0.5 0.1zm16.5-13c-0.2 0-0.5-0.1-0.7-0.3-0.4-0.4-0.3-1.1 0.1-1.4 1.9-1.9 3.7-3.8 5.5-5.8 0.3-0.4 1-0.5 1.4-0.1 0.4 0.4 0.4 1 0.1 1.4-1.8 2-3.7 4-5.7 5.9q-0.3 0.3-0.7 0.3zm13.6-16.1q-0.3 0-0.5-0.2c-0.5-0.3-0.6-0.9-0.3-1.4 1.5-2.2 2.9-4.4 4.2-6.7 0.3-0.5 0.9-0.7 1.4-0.4 0.5 0.3 0.6 0.9 0.4 1.4-1.4 2.3-2.8 4.6-4.4 6.8-0.1 0.3-0.5 0.5-0.8 0.5zm10.1-18.5q-0.2 0-0.4-0.1c-0.5-0.2-0.8-0.8-0.6-1.3q1.3-2.9 2.3-5.9 0.3-0.8 0.5-1.6c0.2-0.5 0.8-0.8 1.3-0.6 0.5 0.2 0.8 0.7 0.6 1.2q-0.2 0.8-0.5 1.6-1.1 3.1-2.3 6c-0.2 0.4-0.5 0.7-0.9 0.7zm6.1-20.2q-0.1 0-0.2 0c-0.5-0.1-0.9-0.7-0.8-1.2 0.6-2.6 1-5.2 1.3-7.9 0.1-0.5 0.6-0.9 1.1-0.8 0.6 0 1 0.5 0.9 1.1-0.3 2.7-0.8 5.4-1.3 8-0.1 0.5-0.5 0.8-1 0.8zm2-21c-0.5 0-1-0.4-1-1 0-2.6-0.1-5.3-0.3-7.9-0.1-0.6 0.3-1.1 0.9-1.1 0.5-0.1 1 0.4 1.1 0.9 0.2 2.7 0.3 5.4 0.3 8.1 0 0.6-0.4 1-1 1q0 0 0 0z"/><path class="am" d="m309.9 317.9c-0.4 0-0.8-0.3-0.9-0.8q-0.5-1.9-0.9-3.8c-0.2-0.6 0.1-1.1 0.7-1.2 0.5-0.2 1.1 0.1 1.2 0.7q0.5 1.9 0.9 3.9c0.1 0.6-0.2 1.1-0.8 1.2q-0.1 0-0.2 0z"/><path class="an" d="m282.4 309.3c0.3 0.5 0.2 1.1-0.2 1.5l-10.4 11c1.7 6.9 2.4 14.2 1.9 21.5l12.2 9.1c0.5 0.3 0.6 0.8 0.5 1.3l-5.5 17.5c-0.2 0.5-0.6 0.9-1.2 0.9l-15.2 0.4c-3.8 6.3-8.4 11.8-13.8 16.5l2.2 15.1c0.1 0.5-0.2 1-0.6 1.3l-16.3 8.5c-0.4 0.2-1 0.1-1.4-0.2l-11.1-10.5c-6.9 1.7-14.1 2.4-21.4 1.9l-9.1 12.2c-0.3 0.5-0.9 0.6-1.4 0.5l-17.4-5.5c-0.6-0.2-0.9-0.6-0.9-1.2l-0.4-15.2c-6.4-3.7-11.9-8.4-16.5-13.8l-15.1 2.2c-0.6 0.1-1.1-0.2-1.3-0.6l-8.5-16.3c-0.2-0.4-0.2-1 0.2-1.4l10.5-11.1c-1.8-6.9-2.5-14.1-1.9-21.4l-12.3-9.1c-0.4-0.3-0.6-0.9-0.4-1.4l5.5-17.4c0.1-0.5 0.6-0.9 1.1-0.9l15.3-0.4c3.7-6.3 8.4-11.9 13.8-16.5l-2.3-15.1c-0.1-0.6 0.2-1.1 0.7-1.3l16.2-8.5c0.5-0.2 1.1-0.2 1.5 0.2l11 10.5c6.9-1.8 14.2-2.5 21.5-1.9l9-12.3c0.4-0.4 0.9-0.6 1.4-0.4l17.5 5.5c0.5 0.1 0.9 0.6 0.9 1.1l0.4 15.3c6.3 3.7 11.8 8.4 16.5 13.8l15.1-2.3c0.5 0 1 0.2 1.3 0.7z"/><path fill-rule="evenodd" class="r" d="m206.9 356.1c-3.1 0-6.3-0.8-9.2-2.6-4.1-2.5-6.9-6.4-8-11-1.1-4.6-0.3-9.4 2.2-13.4 5.1-8.4 16-11 24.4-5.8 4 2.4 6.8 6.4 7.9 11 1.1 4.6 0.4 9.3-2.1 13.4-3.4 5.4-9.2 8.4-15.2 8.4zm0.1-32.5c-5 0-9.8 2.5-12.6 7-2.1 3.4-2.7 7.4-1.8 11.2 0.9 3.8 3.3 7.1 6.6 9.1 7 4.3 16.1 2.1 20.3-4.8 2.1-3.3 2.7-7.3 1.8-11.1-0.9-3.9-3.2-7.1-6.6-9.2-2.4-1.5-5.1-2.2-7.7-2.2z"/><path class="r" d="m206.6 384.2q-2.3 0-4.6-0.2-4.6-0.5-9.1-1.9c-19.5-6.1-31.9-24.2-31.9-43.6 0-4.5 0.6-9.1 2.1-13.7 3.6-11.6 11.6-21.1 22.4-26.7 10.8-5.7 23.2-6.8 34.8-3.1 7.9 2.5 15 7 20.4 13.2l-2.2 2c-5.1-5.8-11.7-10-19.1-12.4-10.9-3.4-22.4-2.4-32.5 2.9-10.1 5.3-17.6 14.2-21 25-1.3 4.3-1.9 8.6-1.9 12.8 0 18.1 11.6 35 29.8 40.7 22.5 7.1 46.5-5.4 53.5-27.9q0.4-1.2 0.7-2.5 0.6-2.2 0.9-4.5 0-0.1 0-0.1 0-0.3 0.1-0.7 0.1-0.5 0.1-1.1l3 0.3c-0.3 3.2-1 6.4-1.9 9.5-6.1 19.5-24.2 32-43.6 32z"/><path class="am" d="m362.8 378.1q-0.4 0-0.6-0.2-1.6-1.3-3.2-2.4c-0.4-0.3-0.5-1-0.2-1.4 0.3-0.5 0.9-0.6 1.4-0.3q1.7 1.2 3.2 2.5c0.5 0.4 0.5 1 0.2 1.4-0.2 0.3-0.5 0.4-0.8 0.4z"/><path class="am" d="m274.5 412.9q-0.1 0-0.2 0c-0.5 0-0.9-0.5-0.8-1.1 0.3-2.8 0.9-5.7 1.8-8.5 0.1-0.5 0.7-0.8 1.2-0.6 0.5 0.1 0.8 0.7 0.7 1.2-0.8 2.7-1.4 5.4-1.8 8.2 0 0.5-0.4 0.8-0.9 0.8zm7.2-20.9q-0.2 0-0.5-0.1c-0.5-0.3-0.6-0.9-0.3-1.4 1.5-2.5 3.1-4.9 5-7.1 0.3-0.4 1-0.5 1.4-0.1 0.4 0.4 0.5 1 0.1 1.4-1.8 2.1-3.4 4.4-4.8 6.8-0.2 0.3-0.5 0.5-0.9 0.5zm15.1-16.3c-0.3 0-0.6-0.1-0.8-0.4-0.3-0.5-0.2-1.1 0.2-1.4 2.4-1.7 4.9-3.2 7.4-4.4 0.5-0.3 1.1-0.1 1.4 0.4 0.2 0.5 0 1.1-0.5 1.3-2.5 1.3-4.9 2.7-7.1 4.3q-0.3 0.2-0.6 0.2zm50.6-6.5q-0.1 0-0.3-0.1-0.6-0.2-1.3-0.4c-2.2-0.8-4.5-1.4-6.7-1.9-0.6-0.1-0.9-0.7-0.8-1.2 0.1-0.5 0.6-0.9 1.2-0.8 2.3 0.5 4.7 1.2 7 2q0.6 0.2 1.3 0.4c0.5 0.2 0.8 0.8 0.6 1.3-0.2 0.4-0.6 0.7-1 0.7zm-30.3-2.4c-0.5 0-0.9-0.3-1-0.8-0.1-0.5 0.3-1 0.8-1.2 2.8-0.6 5.7-0.9 8.6-1.1 0.5 0 1 0.4 1 1 0.1 0.5-0.4 1-0.9 1-2.8 0.2-5.6 0.5-8.3 1.1q-0.1 0-0.2 0z"/><path class="am" d="m275.1 430.7c-0.5 0-0.9-0.3-1-0.8q-0.4-2-0.6-4c-0.1-0.5 0.3-1 0.8-1.1 0.6-0.1 1.1 0.3 1.1 0.9q0.3 1.9 0.7 3.8c0.1 0.6-0.2 1.1-0.8 1.2q-0.1 0-0.2 0z"/><path class="am" d="m300.7 466.6q-0.3 0-0.5-0.1-1.8-1.1-3.4-2.2c-0.5-0.3-0.6-1-0.3-1.4 0.3-0.5 1-0.6 1.4-0.3q1.6 1.1 3.3 2.1c0.5 0.3 0.7 0.9 0.4 1.4-0.2 0.3-0.5 0.5-0.9 0.5z"/><path class="am" d="m334.9 473.7c-0.5 0-0.9-0.4-1-0.9 0-0.5 0.4-1 0.9-1.1 2.7-0.3 5.4-0.9 8-1.6 0.6-0.2 1.1 0.1 1.3 0.7 0.1 0.5-0.2 1-0.7 1.2-2.7 0.8-5.5 1.3-8.4 1.7q0 0-0.1 0zm-13.5 0q-0.1 0-0.2 0c-2.8-0.4-5.6-1-8.3-1.8-0.5-0.1-0.8-0.7-0.7-1.2 0.2-0.5 0.7-0.8 1.3-0.7 2.6 0.8 5.3 1.3 8 1.7 0.5 0.1 0.9 0.6 0.9 1.1-0.1 0.5-0.5 0.9-1 0.9zm34.2-7c-0.4 0-0.7-0.2-0.9-0.5-0.3-0.5-0.1-1.1 0.4-1.4 2.3-1.3 4.6-2.9 6.7-4.6 0.5-0.4 1.1-0.3 1.4 0.1 0.4 0.4 0.3 1.1-0.1 1.4-2.2 1.8-4.6 3.4-7 4.9q-0.3 0.1-0.5 0.1zm16.2-14.5q-0.3 0-0.6-0.2c-0.4-0.4-0.5-1-0.2-1.4 1.6-2.2 3.1-4.6 4.4-7 0.2-0.5 0.8-0.7 1.3-0.4 0.5 0.2 0.7 0.8 0.4 1.3-1.3 2.5-2.8 5-4.5 7.2-0.2 0.3-0.5 0.5-0.8 0.5zm9.2-19.8q-0.1 0-0.2-0.1c-0.6-0.1-0.9-0.6-0.8-1.2 0.7-2.6 1.1-5.4 1.3-8.1 0.1-0.5 0.5-0.9 1.1-0.9 0.5 0 0.9 0.5 0.9 1.1-0.2 2.8-0.7 5.6-1.3 8.4-0.1 0.4-0.5 0.8-1 0.8z"/><path class="am" d="m381.6 410.5c-0.4 0-0.9-0.3-0.9-0.8q-0.4-2-0.9-3.9c-0.1-0.5 0.2-1 0.8-1.2 0.5-0.1 1 0.2 1.2 0.7q0.5 2 0.8 4c0.1 0.6-0.2 1.1-0.8 1.2q-0.1 0-0.2 0z"/><path class="ao" d="m367 403.7c0.1 0.2 0.1 0.5-0.1 0.7l-5.4 5.8c0.9 3.6 1.2 7.3 0.9 11.1l6.4 4.7c0.2 0.2 0.3 0.5 0.2 0.7l-2.8 9.1c-0.1 0.3-0.3 0.4-0.6 0.4l-7.9 0.3c-2 3.2-4.4 6.1-7.2 8.5l1.2 7.9c0 0.2-0.1 0.5-0.4 0.6l-8.4 4.4c-0.2 0.2-0.5 0.1-0.7-0.1l-5.8-5.4c-3.6 0.9-7.3 1.3-11.1 1l-4.7 6.3c-0.2 0.3-0.5 0.4-0.7 0.3l-9.1-2.9c-0.3-0.1-0.5-0.3-0.5-0.6l-0.2-7.9c-3.3-1.9-6.1-4.4-8.5-7.2l-7.9 1.2c-0.3 0-0.5-0.1-0.7-0.3l-4.3-8.5c-0.2-0.2-0.1-0.5 0.1-0.7l5.4-5.8c-0.9-3.5-1.3-7.3-1-11.1l-6.4-4.7c-0.2-0.2-0.3-0.5-0.2-0.7l2.9-9.1c0-0.2 0.3-0.4 0.6-0.4l7.9-0.3c1.9-3.2 4.4-6.1 7.2-8.5l-1.2-7.9c-0.1-0.2 0.1-0.5 0.3-0.6l8.4-4.4c0.3-0.2 0.6-0.1 0.8 0.1l5.7 5.4c3.6-0.9 7.4-1.2 11.2-1l4.7-6.3c0.2-0.3 0.4-0.3 0.7-0.3l9.1 2.9c0.2 0.1 0.4 0.3 0.4 0.6l0.2 7.9c3.3 1.9 6.2 4.4 8.6 7.2l7.8-1.2c0.3 0 0.6 0.1 0.7 0.3z"/><path fill-rule="evenodd" class="r" d="m327.8 428.7c-1.8 0-3.6-0.5-5.2-1.5-2.2-1.4-3.8-3.6-4.4-6.1-0.6-2.6-0.2-5.3 1.2-7.6 2.8-4.6 9-6.1 13.6-3.2 2.3 1.4 3.9 3.6 4.5 6.2 0.6 2.5 0.2 5.2-1.2 7.5-1.4 2.2-3.6 3.8-6.2 4.4q-1.1 0.3-2.3 0.3zm0-16.9c-2.3 0-4.6 1.2-5.9 3.3-0.9 1.6-1.2 3.5-0.8 5.3 0.4 1.8 1.5 3.3 3.1 4.3 1.6 0.9 3.4 1.2 5.2 0.8 1.8-0.4 3.4-1.5 4.3-3.1 1-1.6 1.3-3.5 0.9-5.3-0.5-1.8-1.6-3.3-3.1-4.3-1.2-0.6-2.4-1-3.7-1z"/><path class="r" d="m327.6 443.3q-1.2 0-2.4-0.2-0.1 0-0.1 0-2.4-0.2-4.8-1c-10.4-3.2-17.1-12.9-17.1-23.3 0-2.4 0.4-4.9 1.1-7.3 2-6.2 6.3-11.3 12-14.3 5.8-3 12.4-3.6 18.7-1.7 4.2 1.4 8 3.8 10.9 7.1l-2.2 2c-2.6-2.9-5.9-5-9.6-6.2-5.5-1.7-11.3-1.2-16.4 1.4-5 2.7-8.8 7.1-10.5 12.6-0.7 2.1-1 4.3-1 6.4 0 9.1 5.9 17.6 15 20.5 11.3 3.5 23.3-2.8 26.9-14q0.6-2.1 0.9-4.3 0-0.1 0-0.2l3 0.3q-0.3 2.5-1.1 5.1 0 0.1-0.1 0.3c-3.4 10.2-12.9 16.8-23.2 16.8z"/><path class="ap" d="m894.6 406.7q35.4 62.3 36.9 77.4c1.5 15-28.8 26.5-39.1 8.5q-9-15.5-37.2-90z"/><path class="aq" d="m893.4 348.3l146.1-60.9-1.8 164.8-149.1-39.9z"/><ellipse class="ar" cx="1039.7" cy="370.3" rx="17.3" ry="84.7"/><path class="as" d="m1041 449.1c-1.6-1.5-5-7.7-7.9-23.5-2.8-15.3-4.4-35.1-4.4-55.8 0-20.7 1.6-40.6 4.4-55.9 2.9-15.8 6.3-21.9 7.9-23.5 1.5 1.6 4.9 7.7 7.9 23.5 2.8 15.3 4.3 35.2 4.3 55.9 0 20.7-1.5 40.5-4.3 55.8-3 15.8-6.4 22-7.9 23.5z"/><g clip-path="url(#cp1)"><path class="at" d="m1063.1 369.1c0 14.4-7.8 26.1-23.1 26.1-15.3 0-27.8-11.7-27.8-26.1 0-14.3 12.5-26 27.8-26 15.3 0 23.1 11.7 23.1 26z"/></g><path class="au" d="m865 344.7c8.3-0.9 20.1-1.3 33 1.7-4.3 22-3.6 45 1.2 68.8h-36.1c-5.7 0-10.7-4.2-11.5-9.9-1.8-11.4-4.1-30.6-1.7-46 1.2-7.7 7.4-13.7 15.1-14.6z"/><path class="r" d="m886.7 362.4h-28.1c-1.3 0-2.4-0.7-3-1.7-0.6-1.1-0.5-2.4 0.2-3.5 0.4-0.7 1.3-0.9 2-0.4 0.7 0.4 0.9 1.4 0.5 2.1-0.1 0.1-0.1 0.2 0 0.3 0 0.1 0.1 0.2 0.3 0.2h28.1c0.2 0 0.4-0.2 0.4-0.3v-2c0-0.2-0.2-0.4-0.4-0.4h-28.3c-0.9 0-1.5-0.7-1.5-1.5 0-0.8 0.6-1.5 1.5-1.5h28.3c1.9 0 3.4 1.5 3.4 3.4v2c0 1.8-1.5 3.3-3.4 3.3z"/><path class="r" d="m884.2 374.9h-28.1c-1.3 0-2.4-0.7-3-1.8-0.6-1.1-0.5-2.4 0.2-3.4 0.4-0.7 1.3-0.9 2-0.4 0.7 0.4 0.9 1.3 0.5 2-0.1 0.2-0.1 0.3 0 0.4 0 0.1 0.1 0.2 0.3 0.2h28.1c0.2 0 0.3-0.2 0.3-0.4v-2c0-0.2-0.1-0.3-0.3-0.3h-28.4c-0.8 0-1.5-0.7-1.5-1.5 0-0.9 0.7-1.5 1.5-1.5h28.4c1.8 0 3.3 1.5 3.3 3.3v2c0 1.9-1.5 3.4-3.3 3.4z"/><path class="r" d="m918.9 344.6c-0.6 0-1.2-0.4-1.4-0.9-0.3-0.8 0-1.7 0.8-2l103.6-42.3c0.7-0.3 1.6 0 1.9 0.8 0.3 0.8 0 1.6-0.8 2l-103.6 42.3q-0.2 0.1-0.5 0.1z"/><path class="r" d="m900.9 352c-0.6 0-1.2-0.4-1.4-1-0.3-0.7 0.1-1.6 0.8-1.9l6.9-2.8c0.7-0.3 1.6 0 1.9 0.8 0.3 0.8 0 1.6-0.8 1.9l-6.8 2.8q-0.3 0.2-0.6 0.2z"/><path class="r" d="m886.7 389.5h-28.1c-1.3 0-2.4-0.7-3-1.8-0.6-1.1-0.5-2.4 0.2-3.4 0.4-0.7 1.3-0.9 2-0.4 0.7 0.4 0.9 1.3 0.5 2-0.1 0.2-0.1 0.3 0 0.4 0 0.1 0.1 0.2 0.3 0.2h28.1c0.2 0 0.4-0.2 0.4-0.4v-2c0-0.2-0.2-0.3-0.4-0.3h-28.3c-0.9 0-1.5-0.7-1.5-1.5 0-0.9 0.6-1.5 1.5-1.5h28.3c1.9 0 3.4 1.5 3.4 3.3v2c0 1.9-1.5 3.4-3.4 3.4z"/><path class="r" d="m889.4 405.7h-28.2c-1.2 0-2.3-0.7-2.9-1.8-0.6-1.1-0.6-2.4 0.1-3.4 0.4-0.7 1.4-0.9 2.1-0.4 0.7 0.4 0.9 1.3 0.4 2-0.1 0.2 0 0.3 0 0.4 0 0.1 0.1 0.2 0.3 0.2h28.2c0.1 0 0.3-0.2 0.3-0.4v-2c0-0.2-0.2-0.3-0.3-0.3h-28.4c-0.8 0-1.5-0.7-1.5-1.5 0-0.8 0.7-1.5 1.5-1.5h28.4c1.8 0 3.3 1.5 3.3 3.3v2c0 1.9-1.5 3.4-3.3 3.4z"/><path class="r" d="m914.5 493.8q-2 0-4.1-0.5c-6-1.3-10.8-5.2-13.3-10.8l-22.5-49.9c-0.3-0.8 0-1.7 0.7-2 0.8-0.3 1.7 0 2 0.7l22.5 50c2.1 4.7 6.2 8 11.2 9.1 5 1.1 10-0.2 13.8-3.5q0.3-0.3 0.6-0.6c0.6-0.5 1.5-0.5 2.1 0.1 0.6 0.6 0.5 1.6-0.1 2.2q-0.3 0.3-0.7 0.6c-3.4 3-7.7 4.6-12.2 4.6z"/><path class="r" d="m872.6 426.1c-0.5 0-1.1-0.4-1.3-0.9l-2.5-5.6c-0.4-0.7 0-1.6 0.7-2 0.8-0.3 1.7 0 2 0.8l2.5 5.6c0.3 0.7 0 1.6-0.7 1.9q-0.3 0.2-0.7 0.2z"/><path class="r" d="m1059 369.2c-0.8 0-1.5-0.6-1.5-1.4-0.5-6.8-2.8-11.9-7-15.1-7.2-5.5-17.5-3.6-17.6-3.6-0.8 0.2-1.6-0.4-1.7-1.2-0.2-0.8 0.3-1.6 1.1-1.7 0.5-0.1 11.8-2.2 20.1 4.1 4.8 3.8 7.5 9.6 8.1 17.3 0 0.8-0.6 1.5-1.4 1.6q-0.1 0-0.1 0z"/><path class="av" d="m110.3 730.7c0.4 0.6-0.1 1.5-0.9 1.5-3.6 0.2-13.9 0.7-26.7 0-0.8-0.1-1.3-0.6-1.4-1.4q0-0.2 0-0.4c1.4 0.6 3.7 1 7.8 0.8 6.8-0.3 15.5-1 20.5-1.5q0.4 0.5 0.7 1z"/><path class="aw" d="m81.3 730.4c0-2.2 0.4-6.4 3.4-10.7h4.4q15.6 4 20.5 10c-5 0.5-13.7 1.2-20.5 1.5-4.1 0.2-6.4-0.2-7.8-0.8z"/><path class="ax" d="m92.2 712.5l-1.4 7.9c-0.2 0.8-0.7 1.5-1.5 1.7-1.3 0.4-2.4 0.4-3.3 0.3-0.9-0.1-1.5-0.9-1.6-1.8l-0.4-8.1z"/><path class="ay" d="m34.5 730.7h-0.1c-0.8 1.1-2.3 1.8-3.9 1.8-1.5 0.1-3.5 0-5.2-0.8-1.5-0.6-2.2-1.9-1.9-3.2q0 0 0 0c0.4 1.2 1.4 2.3 3.5 2.6 3.6 0.5 5.9 0.4 7.6-0.4z"/><path class="az" d="m39.6 717.7c-0.7 3.4-2.2 9.1-5.1 13-1.7 0.8-4 0.9-7.6 0.4-2.1-0.3-3.1-1.4-3.5-2.6 1.1-4.5 4.6-16.2 10.1-16h3.6q3.3 1.4 2.5 5.2z"/><path class="aA" d="m41.7 706.8l-3 8.4c-0.2 0.6-0.8 1.1-1.4 1.2-1.5 0.2-3.1-0.5-4.2-1-0.9-0.5-1.4-1.5-1.1-2.5l2-8z"/><path class="aB" d="m75.1 593.5c3.4 2.7 14 9.5 33.8 9.9-7.9 29.9-14.6 67.8-15 111.3q-6.2 2.2-11 0-3.6-58.8 0.6-85.4-12 10-41.3 80.4-8.1-0.3-10.6-2.5 27-87.1 43.5-113.7z"/><path class="aC" d="m135.5 531.4q-13.7 28.2-25.5 72.3c-0.3 1.1-1.3 1.8-2.3 1.7-15.9-0.8-29.7-7.2-33.7-9.3-0.7-0.3-0.9-1.2-0.6-1.8 2.5-4.1 5.5-10 5.2-14.3-0.9-15.3-2.2-48.8 1.5-67.5q40.3-5.3 55.4 18.9z"/><path class="aD" d="m85.5 627.7q-0.2 0-0.5-0.2c-0.4-0.2-0.5-0.8-0.3-1.2 0.2-0.3 4-6.4 11.7-10.1 0.4-0.3 1-0.1 1.2 0.4 0.2 0.5 0 1-0.4 1.2-7.2 3.5-10.8 9.4-10.9 9.4-0.1 0.3-0.4 0.5-0.8 0.5z"/><path class="aE" d="m69.9 565.3q-1.8 14.4 1.3 27l-2.7 2.2c-7.1-10.1-10.7-19.6-11.9-28.3 3.7-0.9 8.9-1.8 13.3-0.9z"/><path class="aF" d="m69.9 565.3c-4.4-0.9-9.6 0-13.3 0.9q-4.5-32.3 23.5-53.7l4.2 23.1c-9.3 8-13.2 19.3-14.4 29.7z"/><path class="aG" d="m145.8 562c-1.5 3.6-3.2 8.8-3.7 15.2-8.1-2.4-15.7-8.4-17.4-22.5l10.8-23.3q-0.1 19.9 10.3 30.6z"/><path class="aH" d="m165.6 568.6l4 0.7q-5.8 16.3-27.5 7.9c0.5-6.4 2.2-11.6 3.7-15.2 4.4 4.6 10.7 7.5 19.8 6.6z"/><path class="aI" d="m125.5 502.7l-5.2 19.2c-0.6 2.1-2.9 3.3-5 2.5-2.2-0.9-5-2.1-7.5-3.5-2.6-1.4-3.4-4.7-1.8-7.2l10.9-16.2z"/><path class="aJ" d="m182.9 564.5l-129.8 60c-4.8 2.2-10.5 0.1-12.7-4.7l-0.4-0.9c-2.4-5.4 0.2-11.8 5.9-13.8l133.6-48.7z"/><ellipse class="aK" cx="241" cy="527.2" rx="66" ry="64.8"/><path fill-rule="evenodd" class="aL" d="m314.4 527.2c0 39.8-32.8 72.1-73.4 72.1-40.6 0-73.4-32.3-73.4-72.1 0-39.9 32.8-72.2 73.4-72.2 40.6 0 73.4 32.3 73.4 72.2zm-10.8 0c0-34-28-61.6-62.6-61.6-34.6 0-62.7 27.6-62.7 61.6 0 33.9 28.1 61.5 62.7 61.5 34.6 0 62.6-27.6 62.6-61.5z"/><path class="r" d="m173.1 536.1c-0.2 0-0.4-0.2-0.5-0.4q-0.3-2.6-0.4-5.2c0-0.3 0.2-0.5 0.5-0.5 0.3-0.1 0.5 0.2 0.5 0.4q0.1 2.6 0.4 5.1c0.1 0.3-0.1 0.6-0.4 0.6q0 0-0.1 0zm0.5-20.2q0 0 0 0c-0.3 0-0.5-0.3-0.4-0.6 0.8-4.6 2.1-9.2 3.9-13.5 10.6-25.7 35.7-42.3 63.9-42.3 13.2 0 25.9 3.7 37 10.6 0.2 0.1 0.3 0.4 0.1 0.7-0.1 0.2-0.4 0.3-0.6 0.1-10.9-6.8-23.5-10.4-36.5-10.4-27.8 0-52.5 16.4-63 41.7q0 0 0 0c-1.7 4.3-3 8.8-3.9 13.3 0 0.3-0.2 0.4-0.5 0.4z"/><path class="aM" d="m137 488.1q0 0.4-4.4 21.9l-12.2-2.8 1.1-21q14.7-3.6 15.5 1.9z"/><path class="aN" d="m124.2 490.9l-1.4 11q0 0.2 0 0.4c0.1 0.9 0.7 3.9 3.7 3 2.7-0.8 5.2-1.4 6.9-0.9 0.8 0.2 1.2 1 1.1 1.8-0.4 2-1.4 6.4-2.9 10.1-0.2 0.7-1.1 1.1-1.8 0.9-2.4-0.7-7.2-2.3-10.8-4.4-0.5-0.3-0.8-0.9-0.8-1.4 0.1-2.8 0.4-11.3 0.2-13.7-0.3-2.2-3-3.5-4.2-4-0.4-0.2-0.7-0.5-0.9-0.9-0.5-1.3-1.3-4.5 2.8-5.8 0.8-0.3 1.2-1.2 0.9-2.1-0.6-1.6-0.8-4.1 2.3-5.5 3.2-1.5 5.5 0.2 6.8 1.6 0.5 0.5 1.3 0.6 2 0.2 0.3-0.2 0.8-0.3 1.4 0.1 0.7 0.5 1.8 0.1 2.2-0.7 0.7-1.5 2.3-3.2 5.3-2.7 5.5 1 6.2 7.1 4.7 10.6-1.4 3.6-7.3 2.2-10.3 0.4-2.2-1.3-5.2 0.1-6.4 0.9-0.4 0.2-0.7 0.6-0.8 1.1z"/><path class="aO" d="m112.8 497.7c-0.7-4.6 2.7-5.4 5-3.8q2.3 1.5 0.1 7.8-4.1 1.7-5.1-4z"/><path class="aP" d="m70.1 591.9l12.6-1 5.5 5.1q-1.3 1.8-5.3 0.7-4.1-1-9.6-1.3-5.6 2.6-5.7-2.2z"/><path class="aQ" d="m173.8 562.7c1.1 0.3 2 2.5 2.6 4.3 0.4 1.2-0.2 2.5-1.3 3.1-2.3 1.2-6 3-7.1 2.1-4.5-3.5 3.9-10 5.8-9.5z"/><path class="r" d="m48.5 622.7q-0.1 0-0.2-0.1c-5.2-1.8-6.4-4.9-6.5-7.1-0.2-3.3 1.9-6.4 5.2-7.7l16-6.3c0.3-0.1 0.6 0.1 0.7 0.3 0.1 0.3 0 0.6-0.3 0.7l-16.1 6.2c-2.8 1.1-4.6 3.8-4.5 6.7 0.1 2.9 2.1 5 5.9 6.3 0.2 0.1 0.4 0.4 0.3 0.6-0.1 0.2-0.3 0.4-0.5 0.4z"/><path class="r" d="m68.2 600.6c-0.2 0-0.4-0.1-0.5-0.3-0.1-0.3 0-0.6 0.3-0.7l2.1-0.8c0.2-0.1 0.5 0 0.6 0.3 0.1 0.2 0 0.5-0.3 0.6l-2.1 0.8q-0.1 0.1-0.1 0.1z"/><path class="r" d="m724.4 469.1q0 0 0 0c-1.3 0-2.3-1-2.3-2.2v-0.3q0-1.3 0-2.7c-0.1-1.2 0.9-2.2 2.2-2.3 1.2 0 2.3 1 2.3 2.2q0 1.4 0 2.8v0.3c0 1.2-1 2.2-2.2 2.2zm-0.5-9.9c-1.1 0-2.1-0.9-2.2-2.1q-0.2-1.4-0.4-2.9c-0.1-1.2 0.7-2.4 2-2.5 1.2-0.2 2.4 0.7 2.5 1.9q0.2 1.5 0.4 3.1c0.1 1.2-0.8 2.3-2.1 2.4q-0.1 0.1-0.2 0.1zm-1.5-9.9c-1 0-2-0.8-2.2-1.9q-0.3-1.4-0.6-2.8c-0.3-1.3 0.5-2.5 1.7-2.7 1.2-0.3 2.4 0.4 2.7 1.7q0.4 1.5 0.7 3c0.2 1.2-0.6 2.4-1.8 2.6q-0.2 0.1-0.5 0.1zm-2.4-9.7c-0.9 0-1.8-0.7-2.1-1.7q-0.4-1.4-0.9-2.8c-0.4-1.1 0.3-2.4 1.5-2.8 1.1-0.4 2.4 0.2 2.8 1.4q0.5 1.5 0.9 3c0.4 1.2-0.3 2.4-1.5 2.8q-0.3 0.1-0.7 0.1zm-3.2-9.5c-0.9 0-1.8-0.5-2.1-1.4q-0.6-1.4-1.1-2.7c-0.5-1.2 0-2.5 1.1-3 1.2-0.5 2.5 0.1 3 1.2q0.6 1.4 1.2 2.8c0.4 1.2-0.1 2.5-1.3 3q-0.4 0.1-0.8 0.1zm-4.1-9.1c-0.8 0-1.6-0.5-2-1.3q-0.7-1.3-1.4-2.6c-0.6-1.1-0.1-2.4 1-3 1.1-0.6 2.4-0.2 3 0.9q0.7 1.4 1.4 2.7c0.6 1.1 0.1 2.5-1 3.1q-0.5 0.2-1 0.2zm-4.8-8.8c-0.8 0-1.5-0.3-2-1q-0.7-1.3-1.5-2.5c-0.7-1.1-0.4-2.5 0.7-3.2 1-0.6 2.4-0.3 3.1 0.7q0.8 1.3 1.6 2.6c0.7 1.1 0.3 2.5-0.8 3.1q-0.5 0.4-1.1 0.3zm-5.5-8.3c-0.7 0-1.4-0.3-1.8-1q-0.9-1.2-1.8-2.3c-0.7-1-0.5-2.5 0.5-3.2 1-0.7 2.4-0.5 3.2 0.5q0.9 1.2 1.7 2.4c0.8 1 0.5 2.5-0.5 3.2-0.4 0.3-0.8 0.4-1.3 0.4zm-6.1-7.9c-0.6 0-1.3-0.3-1.7-0.9q-1-1.1-1.9-2.2c-0.8-0.9-0.7-2.4 0.2-3.2 1-0.8 2.4-0.7 3.2 0.2q1 1.2 2 2.4c0.8 0.9 0.6 2.4-0.3 3.2-0.5 0.3-1 0.5-1.5 0.5zm-6.6-7.5c-0.6 0-1.2-0.2-1.6-0.7q-1.1-1.1-2.1-2.1c-0.9-0.9-0.9-2.4 0-3.2 0.9-0.9 2.3-0.9 3.2 0q1.1 1.1 2.1 2.2c0.9 0.9 0.9 2.3 0 3.2-0.5 0.4-1 0.6-1.6 0.6zm-7.1-7c-0.6 0-1.1-0.2-1.6-0.6q-1-1-2.2-2c-0.9-0.8-1-2.3-0.1-3.2 0.8-0.9 2.2-1 3.1-0.2q1.2 1 2.3 2.1c0.9 0.8 1 2.2 0.1 3.1-0.4 0.5-1 0.8-1.6 0.8zm-7.6-6.5c-0.5 0-1-0.2-1.4-0.6q-1.2-0.9-2.3-1.8c-1-0.8-1.2-2.2-0.4-3.2 0.7-0.9 2.1-1.1 3.1-0.4q1.2 1 2.4 1.9c1 0.8 1.1 2.2 0.4 3.2-0.5 0.6-1.1 0.9-1.8 0.9zm-8-6.1c-0.4 0-0.9-0.1-1.3-0.4q-1.2-0.8-2.4-1.7c-1.1-0.7-1.3-2.1-0.6-3.1 0.7-1 2.1-1.3 3.1-0.6q1.3 0.8 2.5 1.7c1 0.7 1.3 2.1 0.6 3.2-0.5 0.6-1.2 0.9-1.9 0.9zm-8.3-5.5q-0.7 0-1.2-0.3-1.3-0.8-2.6-1.5c-1-0.6-1.4-2-0.8-3.1 0.7-1.1 2-1.5 3.1-0.8q1.3 0.7 2.6 1.5c1.1 0.7 1.4 2.1 0.8 3.2-0.4 0.6-1.2 1-1.9 1zm-8.8-4.9q-0.5 0-1-0.3-1.3-0.7-2.6-1.3c-1.1-0.6-1.6-1.9-1-3 0.5-1.2 1.9-1.6 3-1.1q1.4 0.7 2.7 1.4c1.1 0.6 1.5 2 1 3.1-0.5 0.8-1.2 1.2-2.1 1.2zm-9-4.4q-0.4 0-0.9-0.2-1.3-0.6-2.7-1.2c-1.1-0.4-1.7-1.8-1.2-2.9 0.5-1.2 1.8-1.7 3-1.2q1.4 0.6 2.8 1.2c1.1 0.5 1.6 1.9 1.1 3-0.4 0.8-1.2 1.3-2.1 1.3zm-287.8-2.7q-0.9 0-1.8 0c-1.3 0-2.3-1-2.3-2.3 0-1.2 1-2.2 2.3-2.2q0 0 0 0 0.9 0 1.8 0h1.2q0 0 0 0c1.2 0 2.2 1 2.2 2.3 0 1.2-1 2.2-2.2 2.2zm8.2-0.1c-1.2 0-2.2-1-2.3-2.2 0-1.2 1-2.3 2.2-2.3q1.5 0 3-0.1c1.3 0 2.3 1 2.3 2.2 0.1 1.3-0.9 2.3-2.1 2.3q-1.6 0.1-3.1 0.1 0 0 0 0zm-17 0q0 0-0.1 0-1.5-0.1-3-0.1c-1.2-0.1-2.2-1.1-2.2-2.4 0.1-1.2 1.1-2.2 2.4-2.1q1.5 0 3 0.1c1.2 0 2.2 1.1 2.2 2.3-0.1 1.2-1.1 2.2-2.3 2.2zm27-0.3c-1.2 0-2.2-1-2.3-2.2 0-1.2 0.9-2.3 2.2-2.4q1.5 0 3-0.1c1.2-0.1 2.3 0.9 2.3 2.1 0.1 1.3-0.9 2.3-2.1 2.4q-1.5 0.1-3 0.2-0.1 0-0.1 0zm-37-0.2q-0.1 0-0.2 0-1.5-0.1-3-0.3c-1.2-0.1-2.1-1.2-2-2.4 0.1-1.2 1.2-2.2 2.4-2.1q1.5 0.2 3 0.3c1.2 0.1 2.2 1.1 2.1 2.4-0.1 1.2-1.1 2.1-2.3 2.1zm47-0.4c-1.2 0-2.2-0.9-2.3-2.1-0.1-1.3 0.9-2.3 2.1-2.4q1.5-0.1 3-0.2c1.2-0.1 2.3 0.8 2.4 2.1 0.1 1.2-0.8 2.3-2.1 2.4q-1.5 0.1-3 0.2-0.1 0-0.1 0zm250.4-0.1q-0.4 0-0.8-0.2-1.4-0.5-2.8-1c-1.1-0.4-1.7-1.7-1.3-2.9 0.4-1.2 1.7-1.8 2.9-1.3q1.4 0.5 2.8 1c1.2 0.5 1.8 1.8 1.3 2.9-0.3 0.9-1.2 1.5-2.1 1.5zm-307.3-0.4q-0.2 0-0.3-0.1-1.5-0.1-3-0.3c-1.3-0.2-2.1-1.3-2-2.6 0.2-1.2 1.3-2.1 2.6-1.9q1.4 0.2 2.9 0.4c1.3 0.1 2.1 1.2 2 2.5-0.1 1.1-1.1 2-2.2 2zm66.8-0.3c-1.1 0-2.1-0.9-2.2-2-0.1-1.3 0.8-2.4 2-2.5q1.5-0.1 3-0.2c1.3-0.1 2.4 0.8 2.5 2 0.1 1.3-0.8 2.4-2.1 2.5q-1.5 0.1-3 0.2-0.1 0-0.2 0zm10-0.9c-1.2 0-2.1-0.8-2.3-2-0.1-1.3 0.8-2.4 2.1-2.5q1.5-0.1 2.9-0.3c1.3-0.1 2.4 0.8 2.5 2 0.2 1.3-0.8 2.4-2 2.5q-1.5 0.2-3 0.3-0.1 0-0.2 0zm-86.8-0.2q-0.1 0-0.3-0.1-1.5-0.2-3-0.5c-1.3-0.2-2.1-1.4-1.8-2.6 0.2-1.2 1.4-2.1 2.6-1.8q1.5 0.2 2.9 0.5c1.2 0.2 2.1 1.3 1.9 2.6-0.2 1.1-1.2 1.9-2.3 1.9zm96.7-0.8c-1.1 0-2.1-0.9-2.2-2-0.1-1.3 0.7-2.4 2-2.5l3-0.3c1.2-0.2 2.3 0.7 2.5 1.9 0.1 1.3-0.8 2.4-2 2.5l-3 0.4q-0.1 0-0.3 0zm211.2-0.7q-0.3 0-0.7-0.2-1.4-0.4-2.8-0.8c-1.2-0.4-1.9-1.7-1.5-2.9 0.4-1.2 1.6-1.8 2.8-1.5q1.5 0.5 2.9 0.9c1.2 0.4 1.8 1.7 1.5 2.9-0.4 1-1.2 1.6-2.2 1.6zm-201.2-0.4c-1.2 0-2.1-0.9-2.3-2-0.1-1.3 0.8-2.4 2-2.5l3-0.4c1.2-0.2 2.3 0.7 2.5 2 0.1 1.2-0.7 2.3-2 2.5l-3 0.3q-0.1 0.1-0.2 0.1zm-116.5 0q-0.2 0-0.5-0.1-1.5-0.3-2.9-0.7c-1.3-0.3-2-1.5-1.7-2.7 0.3-1.2 1.5-2 2.7-1.7q1.5 0.4 2.9 0.7c1.2 0.3 2 1.5 1.7 2.7-0.2 1-1.1 1.8-2.2 1.8zm126.4-1.2c-1.1 0-2.1-0.9-2.2-2-0.2-1.3 0.7-2.4 1.9-2.6l3-0.3c1.2-0.2 2.4 0.7 2.5 1.9 0.2 1.3-0.7 2.4-1.9 2.6l-3 0.3q-0.2 0.1-0.3 0.1zm181.7-1.3q-0.3 0-0.6-0.1-1.4-0.4-2.8-0.7c-1.2-0.3-2-1.6-1.7-2.8 0.3-1.2 1.6-1.9 2.8-1.6q1.5 0.4 2.9 0.8c1.2 0.3 1.9 1.5 1.6 2.7-0.3 1-1.2 1.7-2.2 1.7zm-171.8 0c-1.1 0-2.1-0.8-2.2-2-0.2-1.2 0.7-2.3 1.9-2.5l3-0.4c1.3-0.1 2.4 0.7 2.5 2 0.2 1.2-0.7 2.3-1.9 2.5l-3 0.4q-0.1 0-0.3 0zm-146-0.1q-0.3 0.1-0.6 0-1.5-0.5-2.9-0.9c-1.2-0.4-1.9-1.7-1.5-2.9 0.4-1.2 1.7-1.8 2.8-1.4q1.5 0.4 2.9 0.8c1.2 0.4 1.9 1.6 1.5 2.8-0.3 1-1.2 1.6-2.2 1.6zm155.9-1.2c-1.1 0-2.1-0.8-2.2-1.9-0.2-1.3 0.7-2.4 2-2.6l2.9-0.3c1.3-0.2 2.4 0.7 2.6 1.9 0.1 1.2-0.8 2.4-2 2.5l-3 0.4q-0.1 0-0.3 0zm152.2-1.1q-0.2 0-0.5-0.1-1.4-0.3-2.9-0.6c-1.2-0.2-2-1.4-1.7-2.7 0.2-1.2 1.4-2 2.7-1.7q1.4 0.3 2.9 0.6c1.2 0.3 2 1.5 1.7 2.7-0.2 1.1-1.1 1.8-2.2 1.8zm-142.2-0.1c-1.2 0-2.1-0.9-2.3-2-0.1-1.2 0.7-2.4 2-2.5l3-0.4c1.2-0.1 2.3 0.7 2.5 2 0.1 1.2-0.7 2.3-2 2.5l-3 0.4q-0.1 0-0.2 0zm-175.4-0.7q-0.4 0-0.7-0.1-1.5-0.6-2.9-1.1c-1.2-0.5-1.7-1.8-1.3-3 0.5-1.1 1.8-1.7 3-1.2q1.4 0.5 2.7 1c1.2 0.5 1.8 1.8 1.4 2.9-0.4 0.9-1.2 1.5-2.2 1.5zm185.3-0.5c-1.1 0-2.1-0.9-2.3-2-0.1-1.3 0.8-2.4 2-2.5l3-0.4c1.2-0.1 2.4 0.7 2.5 2 0.2 1.2-0.7 2.4-2 2.5l-2.9 0.4q-0.2 0-0.3 0zm122.5-0.7q-0.2 0-0.4 0-1.4-0.3-2.9-0.5c-1.2-0.2-2.1-1.4-1.9-2.6 0.2-1.2 1.4-2.1 2.6-1.9q1.5 0.3 3 0.5c1.2 0.3 2.1 1.4 1.8 2.7-0.2 1.1-1.1 1.8-2.2 1.8zm-112.6-0.5c-1.1 0-2.1-0.8-2.2-2-0.2-1.2 0.7-2.3 2-2.5l3-0.3c1.2-0.2 2.3 0.7 2.5 2 0.1 1.2-0.8 2.3-2.1 2.5l-2.9 0.3q-0.2 0-0.3 0zm10-1c-1.2 0-2.2-0.9-2.3-2.1-0.1-1.2 0.8-2.3 2-2.4q1.5-0.2 3-0.3c1.3-0.2 2.4 0.8 2.5 2 0.1 1.2-0.8 2.4-2 2.5q-1.5 0.1-3 0.3-0.1 0-0.2 0zm92.7 0q-0.1 0-0.3-0.1-1.4-0.2-2.9-0.3c-1.3-0.2-2.1-1.3-2-2.6 0.2-1.2 1.3-2.1 2.6-1.9q1.5 0.2 3 0.4c1.2 0.1 2.1 1.3 1.9 2.5-0.2 1.1-1.1 2-2.3 2zm-82.8-1c-1.1 0-2.1-0.8-2.2-2-0.1-1.3 0.8-2.4 2-2.5l3-0.2c1.3-0.1 2.4 0.8 2.5 2.1 0.1 1.2-0.9 2.3-2.1 2.4l-3 0.2q-0.1 0-0.2 0zm-224.3-0.2q-0.5 0-0.9-0.2-1.4-0.6-2.8-1.3c-1.1-0.6-1.6-1.9-1-3.1 0.6-1.1 1.9-1.5 3-1q1.3 0.7 2.7 1.3c1.1 0.5 1.6 1.9 1.1 3-0.4 0.8-1.2 1.3-2.1 1.3zm297.2 0q-0.1 0-0.2 0-1.5-0.2-3-0.3c-1.2-0.1-2.1-1.2-2-2.5 0.1-1.2 1.2-2.1 2.4-2q1.5 0.1 3 0.3c1.3 0.1 2.2 1.2 2.1 2.5-0.2 1.1-1.1 2-2.3 2zm-62.9-0.5c-1.2 0-2.2-0.9-2.3-2.1 0-1.3 0.9-2.4 2.1-2.4q1.5-0.1 3-0.2c1.3-0.1 2.4 0.8 2.4 2.1 0.1 1.2-0.8 2.3-2.1 2.4q-1.5 0.1-3 0.2 0 0-0.1 0zm53-0.3q-0.1 0-0.2-0.1-1.5-0.1-3-0.1c-1.2-0.1-2.2-1.2-2.1-2.4 0.1-1.3 1.1-2.2 2.4-2.2q1.5 0.1 3 0.2c1.3 0.1 2.2 1.2 2.1 2.4-0.1 1.2-1.1 2.2-2.2 2.2zm-43-0.3c-1.2 0-2.2-0.9-2.3-2.2 0-1.2 0.9-2.3 2.2-2.3q1.5-0.1 3-0.2c1.2 0 2.3 1 2.3 2.2 0.1 1.3-0.9 2.3-2.1 2.4q-1.5 0-3 0.1-0.1 0-0.1 0zm33-0.3q-0.1 0-0.1 0-1.5 0-3-0.1c-1.2 0-2.2-1-2.2-2.3 0-1.2 1.1-2.2 2.3-2.2q1.5 0.1 3 0.1c1.3 0.1 2.3 1.1 2.2 2.4 0 1.2-1 2.1-2.2 2.1zm-23-0.1c-1.3 0-2.3-0.9-2.3-2.2 0-1.2 1-2.3 2.2-2.3q1.5 0 3-0.1 0.1 0 0.1 0c1.2 0 2.2 1 2.2 2.3 0.1 1.2-0.9 2.2-2.2 2.3q-1.5 0-3 0 0 0 0 0zm13-0.1q0 0 0 0-1.5 0-3 0c-1.2 0-2.3-1-2.3-2.3 0-1.2 1-2.2 2.3-2.2q1.5 0 3 0c1.2 0 2.2 1 2.2 2.3 0 1.2-1 2.2-2.2 2.2zm-276.1-3q-0.6 0-1.2-0.3-1.3-0.8-2.6-1.6c-1.1-0.7-1.4-2.1-0.7-3.1 0.6-1.1 2-1.4 3.1-0.7q1.2 0.7 2.5 1.5c1.1 0.6 1.4 2 0.8 3.1-0.4 0.7-1.2 1.1-1.9 1.1zm-8.4-5.5c-0.5 0-0.9-0.1-1.3-0.4q-1.3-0.9-2.5-1.8c-1-0.8-1.2-2.2-0.4-3.2 0.8-1 2.2-1.2 3.2-0.4q1.1 0.9 2.3 1.7c1 0.8 1.3 2.2 0.5 3.2-0.4 0.6-1.1 0.9-1.8 0.9zm-7.8-6.3c-0.5 0-1-0.2-1.5-0.5q-1.1-1.1-2.2-2.1c-0.9-0.9-1-2.3-0.1-3.2 0.9-0.9 2.3-1 3.2-0.1q1.1 1 2.2 2c0.9 0.8 1 2.3 0.1 3.2-0.4 0.5-1 0.7-1.7 0.7zm-7-7.1c-0.6 0-1.3-0.2-1.7-0.7q-1-1.2-2-2.4c-0.8-0.9-0.6-2.4 0.3-3.2 1-0.7 2.4-0.6 3.2 0.4q0.9 1.1 1.9 2.2c0.8 0.9 0.7 2.3-0.2 3.2-0.4 0.4-1 0.5-1.5 0.5zm-6.2-7.8c-0.7 0-1.4-0.4-1.8-1q-0.9-1.3-1.7-2.6c-0.7-1-0.4-2.4 0.7-3.1 1-0.7 2.4-0.4 3.1 0.7q0.8 1.2 1.6 2.4c0.7 1 0.5 2.5-0.6 3.2q-0.6 0.4-1.3 0.4zm-5.1-8.6c-0.8 0-1.6-0.4-2-1.2q-0.7-1.4-1.4-2.8c-0.6-1.1-0.1-2.4 1-3 1.2-0.5 2.5 0 3.1 1.1q0.6 1.3 1.3 2.6c0.6 1.1 0.1 2.5-1 3q-0.5 0.3-1 0.3zm-4.2-9.1c-0.9 0-1.7-0.5-2.1-1.4q-0.5-1.5-1-2.9c-0.5-1.2 0.2-2.5 1.3-2.9 1.2-0.4 2.5 0.2 2.9 1.4q0.5 1.4 1 2.7c0.5 1.2-0.1 2.5-1.2 3q-0.5 0.1-0.9 0.1zm-3.1-9.5c-1 0-1.9-0.6-2.2-1.6q-0.4-1.5-0.7-3c-0.3-1.2 0.4-2.5 1.6-2.7 1.2-0.3 2.5 0.4 2.8 1.6q0.3 1.5 0.7 2.9c0.3 1.2-0.4 2.4-1.6 2.7q-0.3 0.1-0.6 0.1zm-2.1-9.7c-1.1 0-2.1-0.8-2.3-1.9q-0.2-1.5-0.4-3.1c-0.2-1.2 0.7-2.3 1.9-2.5 1.3-0.2 2.4 0.7 2.6 1.9q0.2 1.5 0.4 2.9c0.2 1.3-0.6 2.4-1.9 2.6q-0.1 0.1-0.3 0.1zm-1.2-10c-1.2 0-2.2-0.9-2.2-2.1q-0.2-1.5-0.2-3c-0.1-1.3 0.9-2.3 2.2-2.4 1.2 0 2.3 0.9 2.3 2.2q0.1 1.5 0.2 2.9c0.1 1.3-0.9 2.3-2.1 2.4q-0.1 0-0.2 0zm-0.2-10q0 0-0.1 0c-1.2 0-2.2-1-2.2-2.3q0.1-1.5 0.2-3c0-1.3 1.1-2.2 2.3-2.2 1.3 0.1 2.2 1.2 2.2 2.4q-0.1 1.5-0.1 2.9c-0.1 1.3-1.1 2.2-2.3 2.2zm0.7-9.9q-0.1 0-0.3 0c-1.2-0.2-2.1-1.3-2-2.6q0.2-1.5 0.4-3c0.2-1.2 1.4-2.1 2.6-1.9 1.2 0.2 2.1 1.3 1.9 2.6q-0.2 1.4-0.4 2.9c-0.1 1.1-1.1 2-2.2 2zm1.6-9.9q-0.2 0-0.5 0c-1.2-0.3-2-1.5-1.7-2.7q0.3-1.5 0.6-3c0.3-1.2 1.5-2 2.8-1.7 1.2 0.3 1.9 1.5 1.6 2.7q-0.3 1.5-0.6 2.9c-0.2 1.1-1.2 1.8-2.2 1.8zm2.5-9.7q-0.4 0-0.7-0.1c-1.2-0.3-1.9-1.6-1.5-2.8q0.4-1.5 0.9-2.9c0.4-1.2 1.7-1.8 2.9-1.5 1.2 0.4 1.8 1.7 1.4 2.9q-0.4 1.4-0.9 2.8c-0.3 1-1.2 1.6-2.1 1.6zm3.3-9.4q-0.4 0-0.9-0.2c-1.1-0.4-1.7-1.8-1.2-2.9q0.6-1.4 1.2-2.8c0.5-1.2 1.8-1.7 3-1.2 1.1 0.5 1.6 1.8 1.1 3q-0.6 1.3-1.1 2.7c-0.4 0.9-1.2 1.4-2.1 1.4zm4.2-9.1q-0.5 0-1.1-0.2c-1.1-0.6-1.5-2-0.9-3.1q0.7-1.4 1.4-2.7c0.7-1.1 2-1.5 3.1-0.9 1.1 0.6 1.5 2 0.9 3.1q-0.7 1.3-1.4 2.6c-0.4 0.8-1.2 1.2-2 1.2zm5-8.6q-0.6 0-1.2-0.4c-1-0.7-1.3-2.1-0.7-3.1q0.9-1.3 1.8-2.6c0.7-1 2.1-1.2 3.1-0.5 1 0.7 1.3 2.1 0.6 3.1q-0.9 1.2-1.7 2.5c-0.4 0.6-1.1 1-1.9 1zm5.9-8.1c-0.5 0-1-0.2-1.4-0.5-1-0.8-1.1-2.2-0.4-3.2q1-1.2 2-2.3c0.8-1 2.3-1.1 3.2-0.3 0.9 0.8 1.1 2.3 0.2 3.2q-0.9 1.1-1.8 2.3c-0.5 0.5-1.1 0.8-1.8 0.8zm6.7-7.5c-0.6 0-1.2-0.2-1.6-0.6-0.9-0.9-0.9-2.3-0.1-3.2q1.1-1.1 2.2-2.2c0.9-0.8 2.4-0.8 3.2 0.1 0.9 0.9 0.9 2.3 0 3.2q-1.1 1-2.1 2.1c-0.5 0.4-1.1 0.6-1.6 0.6zm7.3-6.8c-0.7 0-1.3-0.3-1.7-0.8-0.9-0.9-0.7-2.4 0.2-3.2q1.2-1 2.4-1.9c0.9-0.8 2.4-0.7 3.1 0.3 0.8 1 0.7 2.4-0.3 3.2q-1.1 0.9-2.3 1.9c-0.4 0.3-0.9 0.5-1.4 0.5zm7.9-6.1c-0.8 0-1.4-0.4-1.9-1-0.7-1-0.5-2.4 0.5-3.1q1.3-0.9 2.6-1.8c1-0.7 2.4-0.4 3.1 0.6 0.7 1.1 0.4 2.5-0.6 3.2q-1.2 0.8-2.4 1.6c-0.4 0.3-0.9 0.5-1.3 0.5zm8.3-5.5c-0.7 0-1.5-0.4-1.9-1.1-0.7-1.1-0.3-2.5 0.8-3.1q1.3-0.8 2.6-1.5c1.1-0.6 2.5-0.3 3.1 0.8 0.6 1.1 0.2 2.5-0.9 3.1q-1.3 0.7-2.5 1.5-0.6 0.3-1.2 0.3zm8.8-4.7c-0.8 0-1.6-0.5-2-1.3-0.6-1.1-0.1-2.5 1-3q1.4-0.7 2.8-1.4c1.1-0.5 2.5 0 3 1.2 0.5 1.1 0 2.4-1.1 3q-1.4 0.6-2.7 1.2-0.5 0.3-1 0.3zm9.2-4.1c-0.9 0-1.8-0.5-2.1-1.4-0.5-1.2 0.1-2.5 1.2-3q1.4-0.5 2.9-1.1c1.1-0.4 2.4 0.2 2.9 1.4 0.4 1.1-0.2 2.4-1.4 2.9q-1.3 0.5-2.7 1-0.4 0.2-0.8 0.2zm9.4-3.4c-1 0-1.9-0.6-2.2-1.5-0.4-1.2 0.3-2.5 1.5-2.9q1.4-0.4 2.9-0.9c1.2-0.3 2.5 0.4 2.8 1.6 0.4 1.2-0.3 2.4-1.5 2.8q-1.4 0.4-2.8 0.8-0.4 0.1-0.7 0.1zm9.6-2.6c-1 0-1.9-0.7-2.2-1.8-0.3-1.2 0.5-2.4 1.7-2.7q1.5-0.3 3-0.7c1.2-0.2 2.4 0.6 2.6 1.8 0.3 1.2-0.5 2.4-1.7 2.7q-1.4 0.3-2.9 0.6-0.2 0.1-0.5 0.1zm62.5-1.1q-0.2 0-0.4-0.1-1.5-0.3-2.9-0.5c-1.3-0.2-2.1-1.4-1.9-2.7 0.3-1.2 1.4-2 2.7-1.8q1.5 0.3 3 0.6c1.2 0.2 2 1.4 1.7 2.6-0.2 1.1-1.1 1.9-2.2 1.9zm-52.7-0.9c-1.1 0-2-0.8-2.2-1.9-0.2-1.2 0.6-2.4 1.8-2.6q1.5-0.2 3-0.4c1.3-0.2 2.4 0.6 2.6 1.9 0.2 1.2-0.7 2.3-1.9 2.5q-1.5 0.2-2.9 0.5-0.2 0-0.4 0zm42.9-0.8q-0.2 0-0.3 0-1.5-0.2-3-0.3c-1.2-0.2-2.1-1.3-2-2.5 0.2-1.3 1.3-2.2 2.5-2q1.5 0.1 3 0.3c1.3 0.2 2.1 1.3 2 2.6-0.2 1.1-1.1 1.9-2.2 1.9zm-33-0.5c-1.1 0-2.1-0.9-2.2-2-0.1-1.3 0.8-2.4 2-2.5q1.5-0.1 3-0.3c1.3 0 2.4 0.9 2.5 2.1 0.1 1.3-0.9 2.4-2.1 2.5q-1.5 0.1-3 0.2-0.1 0-0.2 0zm23-0.4q-0.1 0-0.1 0-1.5-0.1-3-0.1c-1.2-0.1-2.2-1.1-2.2-2.4 0.1-1.2 1.2-2.2 2.4-2.2q1.5 0.1 3 0.2c1.3 0.1 2.2 1.1 2.2 2.4-0.1 1.2-1.1 2.1-2.3 2.1zm-13-0.2c-1.2 0-2.2-1-2.3-2.2 0-1.2 1-2.3 2.2-2.3q1.6-0.1 3.1-0.1 0 0 0 0c1.2 0 2.3 1 2.3 2.3 0 1.2-1 2.2-2.3 2.2q-1.5 0.1-2.9 0.1-0.1 0-0.1 0z"/></svg>