<svg version="1.2" xmlns="http://www.w3.org/2000/svg" viewBox="0 0 2772 2800" width="2772" height="2800"><defs><linearGradient id="P" gradientUnits="userSpaceOnUse"/><linearGradient id="g1" x1="2041.4" y1="3751.7" x2="116.8" y2="2067.6" href="#P"><stop stop-color="#b37cff"/><stop offset="1" stop-color="#f895e7"/></linearGradient><linearGradient id="g2" x1="2047.4" y1="560.3" x2="2047.4" y2="182.7" href="#P"><stop stop-color="#a737d5"/><stop offset="1" stop-color="#ef497a"/></linearGradient><linearGradient id="g3" x1="2477.2" y1="900.1" x2="2477.2" y2="613.9" href="#P"><stop stop-color="#a737d5"/><stop offset="1" stop-color="#ef497a"/></linearGradient><linearGradient id="g4" x1="2505.8" y1="574.6" x2="2505.8" y2="43.8" href="#P"><stop stop-color="#a737d5"/><stop offset="1" stop-color="#ef497a"/></linearGradient><linearGradient id="g5" x1="1155.4" y1="814.5" x2="699.4" y2="1463.7" href="#P"><stop stop-color="#2b3582"/><stop offset="1" stop-color="#150e42"/></linearGradient><linearGradient id="g6" x1="669.6" y1="2823.2" x2="605.6" y2="2107.8" href="#P"><stop stop-color="#f9b776"/><stop offset="1" stop-color="#f47960"/></linearGradient><linearGradient id="g7" x1="888" y1="2248.5" x2="823.1" y2="2887.4" href="#P"><stop stop-color="#53d8ff"/><stop offset="1" stop-color="#3840f7"/></linearGradient><linearGradient id="g8" x1="-77.5" y1="2527.6" x2="560.3" y2="1974.4" href="#P"><stop stop-color="#f9b776"/><stop offset="1" stop-color="#f47960"/></linearGradient><linearGradient id="g9" x1="508" y1="2079" x2="71.1" y2="2815.1" href="#P"><stop stop-color="#53d8ff"/><stop offset="1" stop-color="#3840f7"/></linearGradient><linearGradient id="g10" x1="465.4" y1="1235.7" x2="2235.5" y2="-250.3" href="#P"><stop stop-color="#53d8ff"/><stop offset=".8" stop-color="#3c58f8"/><stop offset="1" stop-color="#3840f7"/></linearGradient><linearGradient id="g11" x1="47" y1="1441.5" x2="458" y2="2099.2" href="#P"><stop stop-color="#2b3582"/><stop offset="1" stop-color="#150e42"/></linearGradient><linearGradient id="g12" x1="722.9" y1="1220.9" x2="762.5" y2="815" href="#P"><stop stop-color="#f9b776"/><stop offset="1" stop-color="#f47960"/></linearGradient><linearGradient id="g13" x1="1094.9" y1="840.1" x2="740.5" y2="991.4" href="#P"><stop stop-color="#f9b776"/><stop offset="1" stop-color="#f47960"/></linearGradient><linearGradient id="g14" x1="931" y1="698.9" x2="520.1" y2="1283.7" href="#P"><stop stop-color="#2b3582"/><stop offset="1" stop-color="#150e42"/></linearGradient><linearGradient id="g15" x1="1015.1" y1="752.7" x2="700.1" y2="887.3" href="#P"><stop stop-color="#f9b776"/><stop offset="1" stop-color="#f47960"/></linearGradient><linearGradient id="g16" x1="1361.3" y1="937.4" x2="413.6" y2="2683.2" href="#P"><stop stop-color="#a737d5"/><stop offset="1" stop-color="#ef497a"/></linearGradient><linearGradient id="g17" x1="495.3" y1="1101.2" x2="2005.6" y2="-166.6" href="#P"><stop stop-color="#53d8ff"/><stop offset=".8" stop-color="#3c58f8"/><stop offset="1" stop-color="#3840f7"/></linearGradient><linearGradient id="g18" x1="753.2" y1="1583.1" x2="497.2" y2="1779.7" href="#P"><stop stop-color="#f9b776"/><stop offset="1" stop-color="#f47960"/></linearGradient><linearGradient id="g19" x1="2066.4" y1="1471.1" x2="1846.4" y2="1471.1" href="#P"><stop stop-color="#f9b776"/><stop offset="1" stop-color="#f47960"/></linearGradient><linearGradient id="g20" x1="1682.7" y1="2281.8" x2="1677.2" y2="2878.7" href="#P"><stop stop-color="#cb236d"/><stop offset="1" stop-color="#4c246d"/></linearGradient><linearGradient id="g21" x1="1456.1" y1="2607.7" x2="1940.5" y2="2988" href="#P"><stop stop-color="#53d8ff"/><stop offset="1" stop-color="#3840f7"/></linearGradient><linearGradient id="g22" x1="1762.2" y1="2535.4" x2="1793.6" y2="2809.2" href="#P"><stop stop-color="#f9b776"/><stop offset="1" stop-color="#f47960"/></linearGradient><linearGradient id="g23" x1="1274.3" y1="2725.6" x2="1873.8" y2="3196.3" href="#P"><stop stop-color="#53d8ff"/><stop offset="1" stop-color="#3840f7"/></linearGradient><linearGradient id="g24" x1="1358.9" y1="2277.3" x2="1353.5" y2="2876.9" href="#P"><stop stop-color="#cb236d"/><stop offset="1" stop-color="#4c246d"/></linearGradient><linearGradient id="g25" x1="1505.6" y1="2564.5" x2="1536.9" y2="2837.2" href="#P"><stop stop-color="#f9b776"/><stop offset="1" stop-color="#f47960"/></linearGradient><linearGradient id="g26" x1="822.8" y1="1539.6" x2="1819.4" y2="3086" href="#P"><stop stop-color="#2b3582"/><stop offset="1" stop-color="#150e42"/></linearGradient><linearGradient id="g27" x1="5908.2" y1="513.2" x2="6481.5" y2="462.7" href="#P"><stop stop-color="#cb236d"/><stop offset="1" stop-color="#4c246d"/></linearGradient><linearGradient id="g28" x1="1655.7" y1="792.3" x2="1765.3" y2="1266" href="#P"><stop stop-color="#f9b776"/><stop offset="1" stop-color="#f47960"/></linearGradient><linearGradient id="g29" x1="1656.1" y1="676" x2="1602.7" y2="990.3" href="#P"><stop stop-color="#f9b776"/><stop offset="1" stop-color="#f47960"/></linearGradient><linearGradient id="g30" x1="1929.4" y1="727.2" x2="1760.2" y2="547.4" href="#P"><stop stop-color="#2b3582"/><stop offset="1" stop-color="#150e42"/></linearGradient><linearGradient id="g31" x1="1838.9" y1="998" x2="1847.3" y2="804.8" href="#P"><stop stop-color="#f9b776"/><stop offset="1" stop-color="#f47960"/></linearGradient><linearGradient id="g32" x1="2339.9" y1="856.7" x2="1533.1" y2="1732" href="#P"><stop stop-color="#cb236d"/><stop offset="1" stop-color="#4c246d"/></linearGradient><linearGradient id="g33" x1="1680.1" y1="1753.8" x2="1764.1" y2="1903.2" href="#P"><stop stop-color="#2b3582"/><stop offset="1" stop-color="#150e42"/></linearGradient><linearGradient id="g34" x1="1695.7" y1="2377.9" x2="1701.8" y2="1821.3" href="#P"><stop stop-color="#cb236d"/><stop offset="1" stop-color="#4c246d"/></linearGradient><linearGradient id="g35" x1="1592.4" y1="1858.7" x2="1594.7" y2="1802.1" href="#P"><stop stop-color="#cb236d"/><stop offset="1" stop-color="#4c246d"/></linearGradient><linearGradient id="g36" x1="1549.5" y1="1762.7" x2="1536.1" y2="1948.4" href="#P"><stop stop-color="#cb236d"/><stop offset="1" stop-color="#4c246d"/></linearGradient><linearGradient id="g37" x1="1411.3" y1="1852.2" x2="1413.6" y2="1795.5" href="#P"><stop stop-color="#cb236d"/><stop offset="1" stop-color="#4c246d"/></linearGradient><linearGradient id="g38" x1="1368.7" y1="1749.8" x2="1355.3" y2="1935.4" href="#P"><stop stop-color="#cb236d"/><stop offset="1" stop-color="#4c246d"/></linearGradient><linearGradient id="g39" x1="1350" y1="1714.4" x2="1362.9" y2="1809" href="#P"><stop stop-color="#cb236d"/><stop offset="1" stop-color="#4c246d"/></linearGradient><linearGradient id="g40" x1="1208.6" y1="1792.5" x2="1274" y2="2403" href="#P"><stop stop-color="#cb236d"/><stop offset="1" stop-color="#4c246d"/></linearGradient><linearGradient id="g41" x1="1393.9" y1="1846.3" x2="1420.1" y2="2053.3" href="#P"><stop stop-color="#a737d5"/><stop offset="1" stop-color="#ef497a"/></linearGradient><linearGradient id="g42" x1="1500.9" y1="1967.5" x2="1426.2" y2="1967.5" href="#P"><stop stop-color="#fff"/><stop offset="1" stop-color="#fff"/></linearGradient><linearGradient id="g43" x1="5217.2" y1="517" x2="5703.9" y2="474" href="#P"><stop stop-color="#cb236d"/><stop offset="1" stop-color="#4c246d"/></linearGradient><linearGradient id="g44" x1="1358.4" y1="1080.8" x2="1527.6" y2="2738.1" href="#P"><stop stop-color="#f9b776"/><stop offset="1" stop-color="#f47960"/></linearGradient><linearGradient id="g45" x1="2331" y1="432.5" x2="2461.4" y2="759.6" href="#P"><stop stop-color="#2b3582"/><stop offset="1" stop-color="#150e42"/></linearGradient><linearGradient id="g46" x1="2648.3" y1="2696.6" x2="2763.5" y2="2696.6" href="#P"><stop stop-color="#a737d5"/><stop offset="1" stop-color="#ef497a"/></linearGradient><linearGradient id="g47" x1="1996.8" y1="3931.7" x2="2168.2" y2="1927.8" href="#P"><stop stop-color="#a22b25"/><stop offset="1" stop-color="#c0423c"/></linearGradient><linearGradient id="g48" x1="2098.3" y1="2651.5" x2="2283.5" y2="2651.5" href="#P"><stop stop-color="#a737d5"/><stop offset="1" stop-color="#ef497a"/></linearGradient><linearGradient id="g49" x1="2234.4" y1="3714.4" x2="2399.1" y2="1789.4" href="#P"><stop stop-color="#a22b25"/><stop offset="1" stop-color="#c0423c"/></linearGradient><linearGradient id="g50" x1="1682" y1="1350.6" x2="2841.3" y2="267.9" href="#P"><stop stop-color="#fdf53f"/><stop offset=".7" stop-color="#e57a58"/><stop offset="1" stop-color="#d93c65"/></linearGradient><linearGradient id="g51" x1="2905.3" y1="1421.7" x2="2487.6" y2="2090" href="#P"><stop stop-color="#cb236d"/><stop offset="1" stop-color="#4c246d"/></linearGradient><linearGradient id="g52" x1="2049.9" y1="1223.1" x2="2081" y2="995.2" href="#P"><stop stop-color="#a22b25"/><stop offset="1" stop-color="#c0423c"/></linearGradient><linearGradient id="g53" x1="2258.6" y1="1108.3" x2="2390.9" y2="1108.3" href="#P"><stop stop-color="#a22b25"/><stop offset="1" stop-color="#c0423c"/></linearGradient><linearGradient id="g54" x1="1993.9" y1="922.9" x2="2149.5" y2="447.6" href="#P"><stop stop-color="#a22b25"/><stop offset="1" stop-color="#c0423c"/></linearGradient><linearGradient id="g55" x1="2125.8" y1="501.2" x2="2305.9" y2="779.3" href="#P"><stop stop-color="#2b3582"/><stop offset="1" stop-color="#150e42"/></linearGradient><linearGradient id="g56" x1="2111.7" y1="947.6" x2="2262.6" y2="486.6" href="#P"><stop stop-color="#a22b25"/><stop offset="1" stop-color="#c0423c"/></linearGradient></defs><style>.a{opacity:.3;fill:url(#g1)}.b{fill:#fff}.c{fill:url(#g2)}.d{fill:url(#g3)}.e{fill:url(#g4)}.f{fill:url(#g5)}.g{fill:url(#g6)}.h{fill:url(#g7)}.i{fill:url(#g8)}.j{fill:url(#g9)}.k{fill:url(#g10)}.l{fill:url(#g11)}.m{fill:url(#g12)}.n{fill:url(#g13)}.o{fill:url(#g14)}.p{fill:url(#g15)}.q{fill:#f0f0f0}.r{fill:url(#g16)}.s{fill:url(#g17)}.t{fill:url(#g18)}.u{fill:url(#g19)}.v{fill:url(#g20)}.w{fill:url(#g21)}.x{fill:url(#g22)}.y{fill:url(#g23)}.z{fill:url(#g24)}.A{fill:url(#g25)}.B{fill:url(#g26)}.C{fill:url(#g27)}.D{fill:url(#g28)}.E{fill:url(#g29)}.F{fill:url(#g30)}.G{fill:url(#g31)}.H{fill:url(#g32)}.I{fill:url(#g33)}.J{fill:url(#g34)}.K{fill:url(#g35)}.L{fill:url(#g36)}.M{fill:url(#g37)}.N{fill:url(#g38)}.O{fill:url(#g39)}.P{fill:url(#g40)}.Q{fill:url(#g41)}.R{opacity:.3;fill:url(#g42)}.S{fill:url(#g43)}.T{fill:url(#g44)}.U{fill:url(#g45)}.V{fill:url(#g46)}.W{fill:url(#g47)}.X{fill:url(#g48)}.Y{fill:url(#g49)}.Z{fill:url(#g50)}.a0{fill:url(#g51)}.a1{fill:url(#g52)}.a2{fill:url(#g53)}.a3{fill:url(#g54)}.a4{fill:url(#g55)}.a5{fill:url(#g56)}</style><path class="a" d="m2649.5 1870.2c-268.2 626.4-982.7 977.4-1602.3 882.7-100.8-15.4-377.2-61.3-622-277.7-471.1-416.8-571.8-1242-191.8-1823.6 276.6-423.2 772.4-663.2 1243.6-651.2 101.4 2.6 490.4 18.5 832.2 298.1 50.2 41.1 160.9 138.7 260.7 293.4 234.3 363.5 254.5 870 79.6 1278.3z"/><path class="b" d="m2293.7 418.2q-0.4 0-0.7-0.1c-2.2-0.3-3.7-2.4-3.3-4.6q0.5-3.3 1-6.5c0.3-2.2 2.3-3.7 4.5-3.4 2.2 0.3 3.8 2.3 3.5 4.5q-0.5 3.3-1.1 6.7c-0.3 2-2 3.4-3.9 3.4z"/><path class="b" d="m2042.6 627.7q0 0 0 0c-4.5 0-9-0.2-13.4-0.5-2.2-0.2-3.9-2.1-3.7-4.3 0.1-2.2 2-3.8 4.2-3.7 4.3 0.3 8.7 0.5 13 0.5 2.2 0 4 1.9 4 4.1-0.1 2.2-1.9 3.9-4.1 3.9zm13.2-0.1c-2.1 0-3.9-1.7-4-3.9-0.1-2.2 1.7-4.1 3.9-4.1 4.3-0.2 8.6-0.5 12.9-0.9 2.3-0.2 4.2 1.5 4.4 3.7 0.2 2.2-1.4 4.1-3.6 4.3-4.5 0.4-9 0.7-13.4 0.9q-0.1 0-0.2 0zm-39.5-1.6q-0.2 0-0.5-0.1c-4.4-0.5-8.9-1.2-13.2-2-2.2-0.3-3.7-2.4-3.3-4.6 0.4-2.2 2.5-3.7 4.7-3.3 4.2 0.8 8.5 1.4 12.8 1.9 2.2 0.3 3.8 2.3 3.5 4.5-0.2 2.1-2 3.6-4 3.6zm65.8-0.8c-2 0-3.7-1.4-4-3.4-0.3-2.2 1.2-4.3 3.4-4.6 4.3-0.6 8.6-1.3 12.8-2.2 2.2-0.4 4.3 1 4.7 3.2 0.5 2.2-1 4.3-3.1 4.7-4.4 0.9-8.9 1.6-13.2 2.3q-0.3 0-0.6 0zm-91.7-3.8q-0.5 0-1-0.1c-4.3-1-8.7-2.2-12.9-3.4-2.2-0.6-3.4-2.8-2.8-5 0.6-2.1 2.9-3.3 5-2.7 4.1 1.2 8.4 2.3 12.6 3.2 2.1 0.5 3.5 2.7 3 4.9-0.5 1.8-2.1 3.1-3.9 3.1zm117.5-1.3c-1.8 0-3.4-1.2-3.8-3-0.6-2.2 0.7-4.4 2.9-4.9 4.1-1.1 8.3-2.3 12.5-3.5 2.1-0.7 4.3 0.5 5 2.6 0.6 2.1-0.5 4.4-2.7 5-4.2 1.3-8.5 2.6-12.9 3.7q-0.5 0.1-1 0.1zm-142.9-6q-0.7 0-1.3-0.2c-4.2-1.5-8.4-3.1-12.6-4.8-2-0.8-3-3.1-2.2-5.2 0.9-2 3.2-3 5.3-2.2 4 1.6 8.1 3.2 12.1 4.6 2.1 0.7 3.2 3 2.5 5.1-0.6 1.6-2.1 2.7-3.8 2.7zm168.1-1.8c-1.6 0-3.1-1-3.7-2.7-0.8-2 0.3-4.3 2.3-5.1 4.1-1.5 8.2-3.1 12.1-4.8 2-0.9 4.4 0.1 5.3 2.1 0.9 2-0.1 4.4-2.1 5.3-4.1 1.7-8.3 3.4-12.5 4.9q-0.7 0.3-1.4 0.3zm-192.5-8.1q-0.9 0-1.7-0.4c-4.1-1.9-8.1-3.9-12-6-2-1-2.7-3.5-1.7-5.4 1-2 3.5-2.7 5.4-1.7 3.8 2 7.7 4 11.7 5.8 2 1 2.8 3.3 1.9 5.4-0.7 1.4-2.1 2.3-3.6 2.3zm216.8-2.3c-1.5 0-2.9-0.9-3.6-2.3-1-2-0.2-4.4 1.8-5.4 3.8-1.9 7.7-3.9 11.5-6 1.9-1.1 4.4-0.4 5.5 1.5 1 2 0.3 4.4-1.6 5.5-3.9 2.2-7.9 4.3-11.9 6.3q-0.8 0.4-1.7 0.4zm-240.1-10.1c-0.8 0-1.5-0.2-2.1-0.6-3.9-2.3-7.7-4.7-11.3-7.2-1.9-1.3-2.3-3.7-1.1-5.6 1.2-1.8 3.7-2.3 5.6-1.1 3.5 2.4 7.2 4.8 10.9 7 1.9 1.2 2.5 3.6 1.4 5.5-0.8 1.3-2.1 2-3.4 2zm263.1-2.8c-1.3 0-2.6-0.7-3.4-1.9-1.2-1.9-0.6-4.4 1.2-5.5 3.7-2.3 7.3-4.8 10.8-7.2 1.8-1.3 4.4-0.9 5.6 0.9 1.3 1.8 0.9 4.3-0.9 5.6-3.7 2.6-7.4 5.1-11.2 7.5-0.6 0.4-1.4 0.6-2.1 0.6zm-285-12c-0.9 0-1.7-0.3-2.4-0.8-3.6-2.7-7.1-5.5-10.5-8.4-1.7-1.4-1.9-3.9-0.5-5.6 1.4-1.7 4-1.9 5.7-0.5 3.3 2.8 6.7 5.5 10.1 8.1 1.8 1.3 2.1 3.8 0.8 5.6-0.8 1.1-2 1.6-3.2 1.6zm306.5-3.3c-1.2 0-2.3-0.5-3.1-1.5-1.4-1.7-1.1-4.2 0.6-5.6 3.4-2.7 6.8-5.5 10-8.3 1.7-1.5 4.2-1.3 5.7 0.3 1.5 1.7 1.3 4.2-0.4 5.7-3.3 2.9-6.8 5.8-10.3 8.6-0.7 0.6-1.6 0.8-2.5 0.8zm-326.7-13.7c-1 0-2-0.4-2.7-1.1-3.3-3-6.5-6.2-9.6-9.4-1.5-1.6-1.4-4.2 0.2-5.7 1.6-1.5 4.1-1.5 5.6 0.1 3 3.1 6.1 6.2 9.3 9.2 1.6 1.5 1.7 4 0.1 5.6-0.7 0.9-1.8 1.3-2.9 1.3zm346.6-3.7c-1.1 0-2.1-0.4-2.9-1.2-1.6-1.6-1.5-4.1 0-5.7 3.1-3 6.2-6.1 9.1-9.3 1.5-1.6 4-1.7 5.7-0.2 1.6 1.5 1.7 4 0.2 5.6-3 3.3-6.2 6.6-9.3 9.7-0.8 0.7-1.8 1.1-2.8 1.1zm-364.8-15.3c-1.2 0-2.3-0.5-3.1-1.4-2.9-3.4-5.8-6.9-8.5-10.4-1.3-1.8-1-4.3 0.8-5.7 1.7-1.3 4.2-1 5.6 0.8 2.6 3.4 5.4 6.7 8.2 10 1.4 1.7 1.3 4.2-0.4 5.7-0.8 0.6-1.7 1-2.6 1zm382.6-4.1c-0.9 0-1.8-0.3-2.5-0.9-1.7-1.4-2-4-0.6-5.7 2.8-3.3 5.5-6.8 8-10.2 1.3-1.8 3.9-2.2 5.6-0.9 1.8 1.4 2.2 3.9 0.9 5.7-2.7 3.5-5.4 7.1-8.3 10.5-0.8 1-1.9 1.5-3.1 1.5zm15.7-21.2c-0.7 0-1.5-0.2-2.2-0.7-1.8-1.2-2.4-3.7-1.1-5.6 2.3-3.5 4.6-7.2 6.8-11 1.2-1.9 3.6-2.5 5.5-1.4 1.9 1.1 2.6 3.6 1.5 5.5-2.3 3.9-4.7 7.7-7.1 11.4-0.8 1.1-2.1 1.8-3.4 1.8zm13.4-22.8q-1 0-1.9-0.4c-1.9-1-2.7-3.5-1.7-5.4 2-3.8 3.9-7.8 5.7-11.7 0.9-2 3.3-2.9 5.3-2 2 0.9 2.9 3.3 2 5.3-1.8 4.1-3.8 8.1-5.8 12.1-0.8 1.4-2.2 2.1-3.6 2.1zm10.9-24q-0.7 0-1.5-0.3c-2-0.8-3-3.1-2.2-5.2 1.6-4 3-8.1 4.4-12.2 0.7-2.1 3-3.2 5.1-2.5 2.1 0.7 3.2 3 2.5 5.1-1.4 4.2-2.9 8.4-4.6 12.6-0.6 1.6-2.1 2.5-3.7 2.5zm8.4-25q-0.6 0-1.1-0.1c-2.1-0.6-3.4-2.8-2.8-5 1.2-4.1 2.2-8.3 3.1-12.6 0.5-2.1 2.7-3.5 4.8-3 2.2 0.5 3.6 2.6 3.1 4.8-1 4.3-2.1 8.7-3.3 13-0.4 1.8-2.1 2.9-3.8 2.9z"/><path class="b" d="m1840.8 520c-1.3 0-2.5-0.6-3.3-1.7q-2-2.8-3.8-5.6c-1.2-1.9-0.7-4.4 1.2-5.6 1.8-1.2 4.3-0.7 5.5 1.2q1.8 2.7 3.7 5.4c1.2 1.9 0.8 4.4-1 5.6-0.7 0.5-1.5 0.7-2.3 0.7z"/><path class="c" d="m1858.7 416.3c-0.4-1.2 0-2.6 1-3.4l28.4-22.9c-1.9-17-1.2-34.4 2.4-51.6l-26.2-25.5c-0.9-0.9-1.2-2.3-0.6-3.4l18.6-39.7c0.6-1.2 1.8-1.9 3.1-1.7l36.3 3.9c10.9-13.8 23.8-25.5 38.2-34.8l-0.6-36.6c0-1.3 0.8-2.4 2-2.9l41.3-14.9c1.2-0.4 2.5 0 3.3 1l23 28.5c17-2 34.4-1.3 51.6 2.3l25.5-26.2c0.8-0.9 2.2-1.2 3.4-0.6l39.7 18.6c1.2 0.6 1.8 1.8 1.7 3.1l-3.9 36.3c13.8 10.9 25.5 23.9 34.8 38.2l36.6-0.6c1.2 0 2.4 0.8 2.8 2l14.9 41.3c0.5 1.2 0.1 2.6-0.9 3.4l-28.5 22.9c2 17 1.3 34.4-2.4 51.6l26.3 25.5c0.9 0.9 1.1 2.2 0.6 3.4l-18.7 39.7c-0.5 1.2-1.7 1.9-3 1.7l-36.3-3.9c-11 13.8-23.9 25.5-38.2 34.8l0.5 36.6c0 1.2-0.8 2.4-2 2.8l-41.2 14.9c-1.2 0.5-2.6 0.1-3.4-0.9l-23-28.5c-16.9 2-34.3 1.3-51.5-2.3l-25.5 26.2c-0.9 0.9-2.3 1.1-3.4 0.6l-39.7-18.6c-1.2-0.6-1.9-1.8-1.8-3.1l3.9-36.3c-13.8-10.9-25.4-23.9-34.7-38.2l-36.6 0.5c-1.3 0-2.4-0.8-2.9-2z"/><path fill-rule="evenodd" class="b" d="m2047.5 414.5q-4.2 0-8.3-0.8c-23.3-4.5-38.5-27.1-34-50.4 4.5-23.3 27.1-38.5 50.4-34 11.2 2.2 21 8.6 27.4 18.1 6.4 9.6 8.8 21 6.6 32.3-2.2 11.2-8.7 21-18.2 27.4-7.2 4.9-15.5 7.4-23.9 7.4zm-0.1-78c-16.4 0-31.1 11.7-34.3 28.3-1.8 9.2 0.1 18.5 5.3 26.2 5.2 7.8 13.2 13 22.3 14.8 9.2 1.8 18.5-0.1 26.2-5.3 7.8-5.3 13-13.2 14.8-22.4 1.8-9.1-0.1-18.4-5.4-26.2-5.2-7.7-13.1-12.9-22.3-14.7q-3.3-0.7-6.6-0.7z"/><path class="b" d="m2048.2 481c-16 0-31.8-3.5-46.7-10.4q-1.1-0.6-2.3-1.2-0.1 0-0.1 0 0 0-0.1 0 0 0 0 0 0-0.1 0-0.1c-5.2-2.5-10.1-5.5-14.8-8.8q-0.4-0.4-0.9-0.7-0.9-0.7-1.8-1.3l4.9-6.4c5.7 4.3 12 8.1 18.5 11.2 17.6 8.3 36.8 11.3 55.6 9q0.1-0.1 0.3-0.1 0 0 0 0c6.3-0.8 12.7-2.2 18.9-4.2q0.5-0.2 1-0.4 0.6-0.1 1.2-0.4 0.4-0.1 0.9-0.3c25.6-9.2 46.1-27.9 57.6-52.5 6.6-14 9.7-28.7 9.7-43.1 0-38.3-21.7-75.1-58.6-92.4-24.6-11.6-52.3-12.8-77.9-3.6-25.6 9.2-46 27.9-57.6 52.5-6.4 13.6-9.7 28.4-9.7 43.3q0 5.1 0.6 10.2l-8 0.8q-0.6-5.5-0.6-11c0-16.1 3.6-32 10.5-46.7 12.4-26.6 34.5-46.7 62.1-56.7 27.6-9.9 57.5-8.5 84 3.9 26.6 12.5 46.7 34.6 56.7 62.2 4.4 12.2 6.6 24.8 6.6 37.4 0 15.9-3.5 31.8-10.5 46.6-12.5 26.6-34.6 46.7-62.2 56.7-12.1 4.4-24.8 6.5-37.3 6.5z"/><path class="b" d="m2321.6 659.3c-0.7 0-1.5-0.2-2.2-0.7-1.8-1.2-2.3-3.7-1.1-5.5q1.9-2.9 3.9-5.7c1.3-1.8 3.8-2.2 5.6-0.9 1.8 1.3 2.2 3.8 0.9 5.6q-1.9 2.7-3.7 5.4c-0.8 1.2-2.1 1.8-3.4 1.8z"/><path class="b" d="m2657.6 724.7c-1.9 0-3.5-1.3-3.9-3.3-0.9-4.2-1.9-8.5-3.1-12.7-0.6-2.1 0.6-4.4 2.8-5 2.1-0.6 4.3 0.7 4.9 2.8 1.3 4.4 2.3 8.9 3.3 13.3 0.4 2.2-1 4.3-3.2 4.8q-0.4 0.1-0.8 0.1zm-7.2-25.9c-1.7 0-3.2-1-3.8-2.6-1.5-4.1-3.2-8.2-4.9-12.2-0.9-2 0-4.4 2-5.3 2-0.9 4.4 0 5.3 2 1.9 4.2 3.6 8.5 5.1 12.8 0.8 2-0.3 4.3-2.4 5.1q-0.7 0.2-1.3 0.2zm-11-24.4c-1.4 0-2.8-0.8-3.5-2.2-2.1-3.8-4.3-7.6-6.7-11.3-1.1-1.9-0.6-4.4 1.3-5.5 1.9-1.2 4.3-0.7 5.5 1.2 2.5 3.8 4.8 7.8 7 11.8 1 2 0.3 4.4-1.7 5.5q-0.9 0.5-1.9 0.5zm-14.3-22.7c-1.3 0-2.5-0.6-3.3-1.6-2.6-3.5-5.3-7-8.2-10.3-1.4-1.7-1.2-4.2 0.5-5.7 1.7-1.4 4.2-1.2 5.7 0.5 2.9 3.4 5.8 7 8.5 10.7 1.3 1.8 0.9 4.3-0.9 5.6-0.7 0.5-1.5 0.8-2.3 0.8zm-291.4-8.5c-1 0-1.9-0.3-2.6-0.9-1.7-1.5-1.9-4-0.5-5.7 2.9-3.5 6-6.9 9.1-10.2 1.6-1.6 4.1-1.6 5.7-0.1 1.6 1.6 1.6 4.1 0.1 5.7-3 3.1-6 6.4-8.8 9.8-0.8 0.9-1.9 1.4-3 1.4zm273.9-11.9c-1 0-2.1-0.4-2.8-1.2-3.1-3.1-6.3-6.1-9.6-9-1.7-1.4-1.8-4-0.4-5.6 1.5-1.7 4-1.9 5.7-0.4 3.4 3 6.8 6.2 10 9.4 1.5 1.6 1.5 4.1-0.1 5.7-0.7 0.7-1.8 1.1-2.8 1.1zm-255.3-7.4c-1.1 0-2.2-0.4-3-1.3-1.5-1.7-1.3-4.2 0.3-5.7 3.4-3 6.9-6 10.5-8.8 1.8-1.3 4.3-1 5.7 0.7 1.3 1.8 1 4.3-0.7 5.7-3.5 2.6-6.9 5.5-10.1 8.4-0.8 0.7-1.8 1-2.7 1zm235.1-10.2c-0.8 0-1.7-0.3-2.4-0.8-3.5-2.6-7.1-5.2-10.8-7.5-1.8-1.2-2.4-3.7-1.2-5.6 1.2-1.8 3.7-2.4 5.6-1.2 3.8 2.5 7.6 5.1 11.2 7.9 1.8 1.3 2.2 3.8 0.8 5.6-0.8 1-2 1.6-3.2 1.6zm-213.9-6.2c-1.3 0-2.6-0.6-3.3-1.8-1.3-1.8-0.8-4.3 1.1-5.6 3.8-2.5 7.7-4.9 11.7-7.1 1.9-1.1 4.3-0.5 5.4 1.5 1.1 1.9 0.4 4.4-1.5 5.4-3.8 2.2-7.5 4.5-11.2 6.9-0.7 0.5-1.4 0.7-2.2 0.7zm191.4-8.3q-1 0-1.9-0.5c-3.9-2.1-7.8-4.1-11.8-5.9-2-0.9-2.9-3.3-2-5.3 0.9-2 3.3-2.9 5.3-2 4.2 1.9 8.3 4 12.3 6.1 2 1.1 2.7 3.5 1.6 5.5-0.7 1.3-2.1 2.1-3.5 2.1zm-168.1-4.9c-1.5 0-2.9-0.9-3.6-2.3-0.9-2-0.1-4.4 1.9-5.4 4.2-1.9 8.4-3.8 12.6-5.4 2.1-0.8 4.4 0.2 5.2 2.3 0.8 2.1-0.2 4.4-2.3 5.2-4 1.6-8.1 3.3-12 5.2q-0.9 0.4-1.8 0.4zm143.7-6.2q-0.7 0-1.4-0.3c-4.1-1.5-8.3-2.9-12.5-4.1-2.1-0.6-3.3-2.8-2.7-4.9 0.6-2.2 2.8-3.4 5-2.8 4.4 1.3 8.7 2.7 13 4.3 2.1 0.8 3.1 3.1 2.3 5.2-0.6 1.6-2.1 2.6-3.7 2.6zm-118.6-3.5c-1.8 0-3.4-1.1-3.9-2.9-0.6-2.1 0.6-4.3 2.7-5 4.4-1.3 8.8-2.5 13.2-3.5 2.2-0.5 4.4 0.9 4.8 3 0.5 2.2-0.8 4.3-3 4.8-4.2 1-8.5 2.1-12.7 3.4q-0.6 0.2-1.1 0.2zm92.8-4q-0.4 0-0.8-0.1c-4.3-0.9-8.6-1.6-12.9-2.2-2.2-0.3-3.8-2.4-3.5-4.6 0.3-2.2 2.4-3.7 4.6-3.4 4.5 0.6 9 1.4 13.5 2.4 2.1 0.4 3.5 2.6 3.1 4.7-0.5 1.9-2.1 3.2-4 3.2zm-66.7-2c-1.9 0-3.7-1.4-4-3.4-0.3-2.2 1.2-4.2 3.4-4.6 4.5-0.6 9.1-1.2 13.6-1.5 2.2-0.2 4.2 1.5 4.3 3.7 0.2 2.2-1.4 4.1-3.6 4.3-4.4 0.3-8.8 0.8-13.1 1.5q-0.3 0-0.6 0zm40.2-1.7q-0.2 0-0.3 0c-4-0.2-8-0.4-12-0.4h-1.1q0 0-0.1 0c-2.2 0-4-1.7-4-3.9 0-2.3 1.8-4.1 4-4.1h1.2c4.2 0 8.4 0.1 12.5 0.4 2.2 0.2 3.9 2.1 3.8 4.3-0.2 2.1-1.9 3.7-4 3.7z"/><path class="b" d="m2660.6 744.7c-2.1 0-3.8-1.5-4-3.6q-0.3-3.3-0.7-6.5c-0.3-2.2 1.2-4.2 3.4-4.5 2.2-0.3 4.3 1.3 4.5 3.5q0.5 3.4 0.8 6.8c0.2 2.2-1.4 4.1-3.7 4.3q-0.1 0-0.3 0z"/><path class="d" d="m2340.2 714.5c0.2-0.9 0.9-1.6 1.9-1.8l26.7-3.9c5.2-11.5 12.2-22.4 21-32l-7.2-26.1c-0.2-0.9 0.2-1.8 0.9-2.4l26.9-18.3c0.8-0.5 1.8-0.5 2.6 0.1l21.6 16.2c12.2-4.7 24.8-7.3 37.4-7.8l13.5-23.5c0.4-0.9 1.4-1.3 2.3-1.1l31.9 6c1 0.2 1.7 1 1.8 1.9l3.9 26.8c11.6 5.1 22.4 12.1 32 20.9l26.1-7.1c0.9-0.3 1.9 0.1 2.4 0.9l18.3 26.8c0.5 0.8 0.5 1.8-0.1 2.6l-16.1 21.7c4.6 12.1 7.2 24.8 7.7 37.4l23.5 13.4c0.9 0.5 1.3 1.4 1.1 2.4l-6 31.9c-0.2 0.9-0.9 1.6-1.9 1.7l-26.8 4c-5.1 11.5-12.1 22.3-20.9 31.9l7.1 26.1c0.3 0.9-0.1 1.9-0.9 2.4l-26.8 18.3c-0.8 0.6-1.8 0.5-2.6 0l-21.7-16.2c-12.1 4.7-24.7 7.2-37.4 7.8l-13.4 23.5c-0.5 0.8-1.4 1.2-2.3 1.1l-31.9-6.1c-1-0.1-1.7-0.9-1.8-1.8l-3.9-26.8c-11.6-5.1-22.4-12.1-32-20.9l-26.1 7.1c-0.9 0.2-1.9-0.1-2.4-0.9l-18.3-26.8c-0.5-0.8-0.5-1.9 0.1-2.6l16.1-21.7c-4.7-12.2-7.2-24.8-7.8-37.4l-23.5-13.5c-0.8-0.4-1.2-1.4-1-2.3z"/><path fill-rule="evenodd" class="b" d="m2477.2 789.8c-8 0-15.7-2.9-21.7-8.2-6.6-5.9-10.5-13.9-11-22.6-0.6-8.8 2.3-17.2 8.2-23.8 5.8-6.6 13.8-10.5 22.6-11 8.7-0.5 17.2 2.4 23.7 8.2 13.6 12 14.8 32.8 2.8 46.4-5.8 6.5-13.8 10.4-22.6 11q-1 0-2 0zm0.1-57.6q-0.8 0-1.6 0c-6.6 0.4-12.6 3.4-17 8.3-4.4 5-6.6 11.4-6.2 18 0.4 6.6 3.3 12.7 8.3 17 4.9 4.4 11.3 6.6 17.9 6.3 6.6-0.4 12.7-3.4 17.1-8.4 9.1-10.2 8.1-25.9-2.1-35-4.6-4-10.4-6.2-16.4-6.2z"/><path class="b" d="m2478.1 839.4q-7.7 0-15.5-1.4c-21.6-4.1-40.3-16.4-52.7-34.6-3-4.3-5.5-8.9-7.6-13.7q0 0 0 0-0.1-0.1-0.1-0.2-0.3-0.8-0.6-1.5l7.4-3c2 4.8 4.5 9.5 7.5 13.9q0.3 0.4 0.5 0.8c11.1 15.8 27.5 26.5 46.3 30.2q0.4 0.1 0.8 0.2c19.5 3.7 39.3-0.4 55.7-11.6 21.1-14.4 32.4-37.8 32.4-61.6 0-14.4-4.1-28.9-12.9-41.7-11.1-16.4-28-27.5-47.5-31.2-19.6-3.7-39.3 0.4-55.7 11.6-11.2 7.6-20 18.1-25.6 30.2l-7.3-3.3c6.2-13.5 16-25.1 28.3-33.5 18.2-12.4 40.1-17 61.8-12.9 21.6 4.1 40.3 16.4 52.7 34.6 9.6 14.1 14.3 30.3 14.3 46.2 0 26.4-12.6 52.3-36 68.2-13.8 9.4-29.8 14.3-46.2 14.3z"/><path class="e" d="m2771.1 285.4c0.4 1.7-0.4 3.4-1.9 4.3l-43.2 25.7c-0.7 23.4-5 47-13.4 69.6l30.7 39.8c1.1 1.4 1.1 3.3 0.2 4.8l-33.2 50.4c-1 1.4-2.8 2.1-4.5 1.7l-48.6-12.4c-17.6 16.6-37.5 29.9-58.8 39.7l-6.4 49.9c-0.3 1.7-1.6 3.1-3.3 3.5l-59 12.2c-1.8 0.3-3.5-0.5-4.4-2l-25.7-43.2c-23.4-0.7-47-5-69.6-13.4l-39.8 30.7c-1.4 1.1-3.3 1.1-4.8 0.2l-50.4-33.2c-1.4-1-2.1-2.8-1.7-4.5l12.5-48.6c-16.7-17.6-30-37.5-39.8-58.8l-49.9-6.4c-1.7-0.2-3.1-1.6-3.5-3.3l-12.1-59c-0.4-1.8 0.4-3.5 1.9-4.4l43.2-25.6c0.7-23.5 5-47 13.4-69.7l-30.7-39.8c-1.1-1.4-1.1-3.3-0.2-4.8l33.2-50.4c1-1.4 2.8-2.1 4.5-1.7l48.6 12.5c17.6-16.7 37.5-30 58.8-39.8l6.4-49.9c0.3-1.7 1.6-3.1 3.3-3.5l59-12.1c1.8-0.4 3.5 0.4 4.4 1.9l25.7 43.2c23.4 0.7 47 5 69.6 13.4l39.8-30.7c1.4-1 3.3-1.1 4.8-0.1l50.4 33.1c1.4 1 2.1 2.8 1.7 4.5l-12.5 48.6c16.7 17.6 30 37.5 39.8 58.8l49.9 6.4c1.7 0.3 3.1 1.6 3.5 3.3z"/><path fill-rule="evenodd" class="b" d="m2505.8 366.8c-6.3 0-12.7-1.1-18.9-3.2-14.5-5.1-26.2-15.5-32.9-29.3-6.7-13.9-7.6-29.5-2.6-44 10.5-30 43.4-45.9 73.3-35.4 30 10.4 45.9 43.3 35.4 73.2-5 14.5-15.4 26.2-29.3 32.9-7.9 3.9-16.4 5.8-25 5.8zm0-107.1c-20.4 0-39.7 12.8-46.8 33.2-4.3 12.5-3.5 26 2.2 37.9 5.8 11.9 15.8 20.8 28.3 25.2 12.5 4.3 25.9 3.5 37.9-2.2 11.9-5.8 20.8-15.8 25.2-28.3 8.9-25.8-4.7-54.1-30.5-63.1-5.4-1.8-10.9-2.7-16.3-2.7z"/><path class="b" d="m2504.3 459.1c-28.9 0-57.2-8.4-81.9-24.7-33.4-21.9-56.2-55.6-64.3-94.7-2-10.1-3.1-20.3-3.1-30.4 0-28.9 8.5-57.2 24.7-81.9 22-33.4 55.6-56.2 94.7-64.2 39.1-8.1 79-0.4 112.4 21.5 6.2 4.1 12.1 8.7 17.7 13.7q0.1 0.1 0.3 0.2 0 0.1 0.1 0.1 0 0 0 0.1 0.6 0.4 1.1 0.9 0.2 0.2 0.5 0.5 0 0 0 0 0.3 0.2 0.5 0.4 0.6 0.6 1.2 1.2 1.6 1.5 3.2 3.1l-5.8 5.7c-7-7.2-14.8-13.6-23.2-19.2-25.7-16.9-55.5-24.9-85.7-23.1q-9.2 0.5-18.5 2.3-1.1 0.2-2.2 0.4c-37 7.6-68.8 29.2-89.6 60.8-15.4 23.3-23.3 50.1-23.3 77.5 0 9.6 0.9 19.2 2.9 28.8 7.6 37 29.2 68.8 60.8 89.6 31.5 20.8 69.3 28 106.3 20.4 37-7.6 68.8-29.2 89.6-60.7 14.1-21.4 22.1-46.2 23.2-71.7l8 0.3c-1.1 27-9.6 53.2-24.5 75.8-21.9 33.3-55.6 56.1-94.7 64.2-10.1 2.1-20.3 3.1-30.4 3.1z"/><path class="f" d="m846.5 820.8l-30.1 456.6q-146.8 261.4-293.9 183.8c-65.6-34.6-76.9-78.4-69.4-116.3 8-39.5-18-77.5-57.2-87.1-53.2-13.1-104-50.9-89.8-150.4 18.5-130.4 134.3-169.5 209.4-181 30.2-4.6 52.6-28.8 56.3-59.1 7.3-58.7 61.9-79.8 90.6-92.4q47.9-20.9 78-73.6z"/><path class="g" d="m765.3 2077.3l10.2 60.1q-34.2 346.5-40.3 485.1c-0.9 21.7 4.7 43.2 16.1 61.7l59.5 96.6-151.2-89.2-3-18.5 24.8-34-32.4-388.1c-1.9-22.8 2.8-45.7 13.5-65.9l31.3-58.7z"/><path class="h" d="m820.7 2794.8h-48.2c-9 0-17.5-4.2-23-11.3-15.1-19.6-46.2-57.7-61.1-58.7q-20.1-1.3-17.5 70h-11.3l-14.2-88.6c-3.6-22.3 7.5-44.4 27.5-54.9q4.6 33.9 29.5 48.9 24.8 15 101.1 68.7 9.4-1.3 19.6 0.6c15.2 2.7 13.1 25.3-2.4 25.3z"/><path class="i" d="m565.3 2100l-31.8 52q-253.4 238.7-349 339.2c-15 15.8-24.9 35.7-28.5 57.1l-18.6 111.9-55.3-166.6 9.8-15.8 41-9.4 230.6-313.9c13.5-18.5 32.1-32.6 53.5-40.8l62.1-23.7z"/><path class="j" d="m135.8 2677.3l-36.4-31.7c-6.8-5.9-10.5-14.7-10-23.7 1.5-24.6 3.1-73.8-7.5-84.3q-14.2-14.2-59.1 41.2l-8.5-7.4 47.5-76.1c11.9-19.2 34.8-28.5 56.7-23.3q-18.8 28.6-9.9 56.3 8.9 27.6 31.1 118.2 7.9 5.1 14.5 13.3c9.6 12-6.8 27.6-18.4 17.5z"/><path class="k" d="m684.9 1483.1q51.7-219.1-57.4-382.7c62.2-59.7 158.8-63.7 202.7-62 15.2 0.6 29.7 6.2 41.5 15.7 34.9 28.4 106.7 95.3 93.7 157.9q-10 48.1-101 288.5-84.1 39.9-179.5-17.4z"/><path class="l" d="m570.3 1591.5q21-63.4 114.6-108.4 95.4 57.3 179.5 17.4 18.9 72.2 5.9 139.2-13.1 67-94.8 497.7c-105.2 21.3-256.7-9.7-308.5-21.8-9.1-2.1-13.9-12.1-9.7-20.5 74.8-151.2 92.7-442.5 113-503.6z"/><path class="m" d="m814.9 864l34.8 15.5c9.6 4.2 15.2 14.3 13.8 24.7l-18 130.9c-0.4 2.5-1.8 4.7-2.2 7.1-5 28.1-35.1 43.1-74.9 37.3-16.9-2.5-32-7.7-28-24.3l42.1-175.2c3.5-14.3 19-21.9 32.4-16z"/><path class="n" d="m863 707.9q44.7 30.3 64 107.4c19.2 77.2-12 104.8-44.1 103.1-32-1.7-78.4-11.6-118.7-66.9-40.2-55.3 40.2-180.6 98.8-143.6z"/><path class="o" d="m797.8 828.3q-15-31.5-27.2-15.4-12.1 16 9 60.6-30.5 30-62.5-13.3c-32-43.2-18.1-92.1 20-161.7 38.2-69.7 107.1-79.4 156.8-41.2q49.7 38.2 4.8 88.8l-18.5-19.3q-91.8-16.9-75.4 93.6z"/><path class="p" d="m781.4 854.9c-15.8-12.5-55.3-49.4-26.3-65.6q29.1-16.3 37.2 40.6z"/><path class="q" d="m1046.3 939.2l-1.1-1.1 1.5-1.5 1.1 1.1z"/><path class="q" d="m412.5 1232.4c-34.2-13.9-58.4-51.8-59-92.1-0.5-36.3 16.5-73.5 46.5-102.1 24.9-23.6 58.7-41.7 100.5-53.8 4.3-1.2 8.7-2.4 13.1-3.7 28.6-7.8 58.2-15.9 75.8-38.8 13.3-17.3 16.9-39.7 20.4-61.4 1.1-6.8 2.2-13.8 3.6-20.5 5.8-27.4 23.1-60.3 53-62.7l0.1 2.1c-28.7 2.4-45.4 34.3-51 61-1.4 6.7-2.5 13.7-3.6 20.5-3.5 21.9-7.2 44.6-20.8 62.3-18 23.4-48 31.6-77 39.6q-6.6 1.8-13.1 3.6c-41.4 12-74.9 30-99.5 53.4-29.6 28.2-46.3 64.8-45.9 100.5 0.6 39.5 24.3 76.5 57.7 90.1z"/><path class="q" d="m463 1218.9c-34-12.3-56.3-51.6-51.9-91.5 3.7-34.3 25.1-68 58.7-92.6 28.5-20.8 61.4-33.4 101.9-46l0.7 2c-40.4 12.5-73.1 25.1-101.3 45.7-33.2 24.3-54.3 57.5-57.9 91.1-4.3 39 17.5 77.4 50.5 89.3z"/><path class="r" d="m315.9 1832.7c-2.1-1.5-3-4.2-2.2-6.8l21.5-71.4c-22.9-26.3-41.8-56.4-55.4-89.5l-73.5-12.7c-2.6-0.5-4.6-2.5-5-5.1l-14.3-88.3c-0.5-2.6 0.8-5.2 3.1-6.4l65.7-35.3c2.5-35.8 10.8-70.3 24.2-102.5l-43-60.9c-1.5-2.2-1.5-5 0-7.1l52.4-72.6c1.5-2.2 4.2-3.1 6.7-2.3l71.4 21.5c26.3-22.9 56.4-41.7 89.6-55.4l12.7-73.5c0.4-2.5 2.5-4.6 5-5l88.4-14.3c2.6-0.4 5.1 0.8 6.4 3.1l35.2 65.7c35.8 2.5 70.3 10.8 102.5 24.2l61-43c2.1-1.5 5-1.5 7.1 0.1l72.6 52.3c2.1 1.5 3 4.2 2.3 6.7l-21.5 71.5c22.8 26.3 41.7 56.4 55.4 89.5l73.4 12.7c2.6 0.5 4.6 2.5 5 5.1l14.4 88.3c0.4 2.6-0.9 5.1-3.2 6.4l-65.7 35.3c-2.4 35.7-10.8 70.3-24.2 102.4l43 61c1.5 2.1 1.5 5 0 7.1l-52.3 72.6c-1.6 2.1-4.3 3.1-6.8 2.3l-71.4-21.5c-26.3 22.9-56.4 41.7-89.6 55.4l-12.7 73.5c-0.4 2.5-2.4 4.5-5 5l-88.3 14.3c-2.6 0.4-5.2-0.8-6.4-3.2l-35.3-65.6c-35.8-2.5-70.3-10.9-102.5-24.3l-60.9 43c-2.2 1.6-5 1.5-7.2 0z"/><path fill-rule="evenodd" class="b" d="m582.1 1624.2c-32.6 0-63.6-19-77.3-50.7-18.5-42.6 1.2-92.2 43.8-110.6 42.6-18.4 92.2 1.2 110.6 43.8 18.4 42.6-1.3 92.2-43.8 110.6-10.9 4.7-22.2 6.9-33.3 6.9zm-0.2-158.9c-9.9 0-20 2-29.6 6.1-37.9 16.4-55.4 60.5-39 98.4 16.4 37.8 60.5 55.3 98.4 39 37.8-16.4 55.3-60.5 38.9-98.4-12.2-28.2-39.8-45.1-68.7-45.1zm31.6 147.7z"/><path class="b" d="m582.6 1759.1q-2.3 0-4.7-0.1-3.3 0-6.5-0.2l0.5-9.3c14.9 0.8 30-0.1 44.9-2.5 103.6-16.8 177.4-106.7 177.4-208.4 0-11.2-0.9-22.6-2.7-34-9.1-55.7-39.2-104.5-85-137.5-45.8-33-101.7-46.2-157.4-37.2-55.7 9.1-104.6 39.3-137.6 85-26.2 36.4-39.9 79.2-39.9 123.1 0 11.4 0.9 22.9 2.8 34.3 6.1 37.8 22.4 73.2 46.9 102.3l-7.1 6c-25.6-30.4-42.6-67.3-49-106.8-1.9-12-2.9-23.9-2.9-35.8 0-45.9 14.3-90.5 41.7-128.5 34.4-47.8 85.4-79.3 143.6-88.8 58.2-9.4 116.5 4.4 164.3 38.8 47.8 34.5 79.3 85.5 88.8 143.6 1.9 11.9 2.9 23.8 2.9 35.5-0.1 106.2-77.2 200-185.3 217.6-11.8 1.9-23.8 2.9-35.7 2.9z"/><path class="s" d="m430.1 1576.8q-58.7-250.5 197.4-476.4c61 14 76.7 54.2 60.2 113-120.5 112.9-165.6 240.9-174.9 348.6-16.3-4.7-55.6-12.2-82.7 14.8z"/><path class="t" d="m512.8 1562c-11.4 47.3-10.2 82.6-8.5 99.4 0.7 6.4 5.8 11.3 12.1 11.8 7.3 0.5 17.1 1.2 25.9 1.7 9.7 0.5 20.4-5.6 27.6-10.7 3.6-2.6 8.4 1.5 6.3 5.5-5.3 10.4-18.9 19.8-28.3 25.3-3.4 2-2.8 7 1 8.1l40.1 11.4q-65.8 62-109.3-7.4c-29.1-44.9-44.1-88.8-49.6-130.3 27.1-27 66.4-19.5 82.7-14.8z"/><path class="u" d="m1987.2 1473.1c22.6 24.1 55.8 44.9 79.2 57.9-34.9 43.2-82.2 86.4-144.8 128.7l-17.9 40.2-57.3-68.8q102.9-51.2 140.8-158z"/><path class="v" d="m1680.2 2777.3c-0.1-1.3 0-2.5 0.3-3.8q18.6-73.6 110.9-119.5l36.5 2.8c21 65 18.3 104.8 14.9 122.5 0 0.5-0.2 1-0.3 1.5-30.2 2.7-92.2 4.5-162.3-3.5z"/><path class="w" d="m1842.5 2780.8c-1.7 5.9-6 10.5-11.6 11.7-42.9 9-111.1 1.8-139.7-2-6.3-0.8-10.9-6.6-11-13.2 70.1 8 132.1 6.2 162.3 3.5z"/><path class="x" d="m1842.6 2602.4l-15.5 74.5c-1.1 5.5-5.3 9.6-10.4 10.1-6.2 0.5-15.1 0.9-24-0.4-8-1.2-13.5-9.3-12.1-18l10.8-66.2z"/><path class="y" d="m1521.9 2780.1c40.3-1.2 61.2-5.9 72-10.3 0 4 0 8.1-0.1 12.3-0.1 4.5-3.5 8.1-7.6 8.1l-221.6-1.4c-7.1-0.1-11.2-8.3-8.2-14.8 29.1 2.4 103.1 7.8 165.5 6.1z"/><path class="z" d="m1356.4 2774c0.3-0.5 0.5-1.1 0.9-1.6 19.6-27.4 69.4-81.9 167.9-105.5l47.3-1.5q21 36.6 21.4 104.4c-10.8 4.4-31.7 9.1-72 10.3-62.4 1.7-136.4-3.7-165.5-6.1z"/><path class="A" d="m1581.2 2593.8c-0.5 3.5-7 57.1-9.5 77.8-0.6 5-4.1 8.8-8.6 9.3-8.1 1-21.1 1.9-32.5-0.5-6.1-1.2-10.6-7.1-10.6-14v-84z"/><path class="B" d="m1868.6 1616.8q50.6 83.4 50.7 102.6c2.8 340.1-62.7 812.2-74.1 891.5-1 7.1-6.7 12.4-13.8 13.2-18.6 2-33.2 1.2-42.4 0.1-6-0.7-10.5-6-10.2-12q11-244-23.4-714.2c-52.2 85.7-143.9 613.7-159.9 707.4-1.6 9.2-9.4 16.1-18.7 16.3-17.4 0.5-38.5-3.1-52.8-6.1-9.7-2-16.7-10.6-16.8-20.5q-2-545.1 112-978.3z"/><path class="C" d="m1539.9 1139.1c-19.9-95.4 47.3-186.5 144.3-196.8 107.9-11.4 215.9 12.6 269.2 19.3 27.1 3.4 51.9 16.7 69.7 37.4 70.8 81.9 226.1 306.1 43.3 532-23.4-13-56.6-33.8-79.2-57.9 20.2-57 21.9-129.8-20.5-219.2q-2.2 10.7-5.4 21c-58.4 185-61.5 338.9-61.4 374.5 0 4.7-2.7 9.1-7.1 10.9-76.8 30.9-225 12.6-274.8 5.1-9.1-1.3-15.2-9.8-13.9-18.9 16.5-120-32.6-355.8-64.2-507.4z"/><path class="D" d="m1820.6 812.9l14.8 151.3q-85.2 25.7-147.1-18l43.5-137.6z"/><path class="E" d="m1834.4 709l-103.4 145.3-95.7-46.2q84.4-165.8 86.5-167.8 34.3-32.3 112.6 68.7z"/><path class="F" d="m1754.3 674.9c-29.1-3.7-75.2-25.8-66-57 9.2-31.2 45.3-68.2 86.6-45.5 22.6 12.4 24.6 30.7 21.9 44.8-1.6 8.2 3.7 15.7 12 17.4 4.3 0.9 6.7 3.3 7.8 6.2 2.7 6.4 9.7 10.1 16.7 9.2 15.6-1.9 38.7 0.4 51.5 25.3 12.8 24.6-0.6 39.8-12.9 47.9-6.9 4.5-9.1 13.8-4.7 20.7 17.6 28.1-1.7 44.6-12.7 51.2-3.7 2.2-8.1 2.8-12.2 1.6-10.9-3.1-35-8-48 5-14.1 14-55.3 70-70 90-3.3 4.6-8.8 7-14.4 6.2-34-4.7-72.3-18.9-91.7-26.8-7.3-2.9-11.2-11-8.8-18.6 9.6-30.1 24.8-61.9 32.7-77.5 3.8-7.6 13-10.7 20.6-6.8 12.8 6.7 24.9 23 37.7 40.8 15 21 34.4 5.6 40.1 0.3q1.6-1.5 2.6-3.3l47.8-79.5c2.4-4.1 2.8-9 1.1-13.5-4.7-12.1-16.4-35.4-37.7-38.1z"/><path class="G" d="m1776.3 830.9q18.4-53.7 41.9-51.7c23.5 2 42 25.4 12.9 51.7q-36.3 32.7-54.8 0z"/><path class="H" d="m1966.4 1237.1c30.3-82.8 19.3-183.2 19.1-184.2l8.6-1c0.1 1 11.3 103.4-19.6 188.2z"/><path class="I" d="m1758.5 1886.8c-2.3-0.6-3.6-2.9-3.1-5.2 10.4-40 82.1-80.6 85.1-82.3 2.1-1.2 4.7-0.4 5.9 1.6 1.1 2.1 0.4 4.7-1.7 5.9-0.7 0.4-71.5 40.5-80.9 76.9-0.5 1.9-2.3 3.2-4.2 3.2q-0.5 0-1.1-0.1z"/><path class="J" d="m1698.5 1941.4l-4.9 152.4c-0.9 26.5-22.7 47.7-49.4 47.8l-365 2.2c-17.8 0.1-33-12.9-35.6-30.5-5.7-38.4-13-107.3-4.8-171.9z"/><path class="b" d="m1288.5 2134c0-0.3 0.2-0.5 0.5-0.6h3.3c0.3 0 0.6 0.3 0.6 0.6 0 0.3-0.2 0.5-0.6 0.5h-3.2-0.1c-0.3 0-0.5-0.2-0.5-0.5zm11-0.1c0-0.3 0.2-0.5 0.5-0.5h3.3c0.3 0 0.6 0.2 0.6 0.5 0 0.3-0.3 0.6-0.6 0.6h-3.3c-0.3 0-0.5-0.3-0.5-0.6zm11 0c0-0.3 0.2-0.6 0.5-0.6h3.3q0 0 0 0c0.3 0 0.6 0.2 0.6 0.5 0 0.4-0.3 0.6-0.6 0.6h-3.3c-0.3 0-0.5-0.2-0.5-0.5zm11-0.1c0-0.3 0.2-0.5 0.5-0.5l3.3-0.1c0.3 0 0.6 0.3 0.6 0.6 0 0.3-0.3 0.5-0.6 0.5l-3.3 0.1c-0.3 0-0.5-0.3-0.5-0.6zm11-0.1c0-0.3 0.2-0.5 0.5-0.5h3.3c0.3 0 0.6 0.2 0.6 0.5 0 0.3-0.3 0.6-0.6 0.6h-3.3c-0.3 0-0.5-0.3-0.5-0.6zm11 0c0-0.3 0.2-0.6 0.5-0.6h3.3c0.3 0 0.6 0.2 0.6 0.6 0 0.3-0.3 0.5-0.6 0.5h-3.3c-0.3 0-0.5-0.2-0.5-0.5zm11-0.1c0-0.3 0.2-0.5 0.5-0.5l3.3-0.1q0 0 0 0c0.3 0 0.6 0.3 0.6 0.6 0 0.3-0.3 0.5-0.6 0.5l-3.3 0.1c-0.3 0-0.5-0.3-0.5-0.6zm11-0.1c0-0.3 0.2-0.5 0.5-0.5h3.3c0.3 0 0.6 0.2 0.6 0.5 0 0.3-0.3 0.6-0.6 0.6h-3.3c-0.3 0-0.5-0.2-0.5-0.6zm11 0c0-0.3 0.2-0.6 0.5-0.6h3.3c0.3 0 0.5 0.3 0.6 0.6 0 0.3-0.3 0.5-0.6 0.5h-3.3c-0.3 0-0.5-0.2-0.5-0.5zm10.9-0.1c0-0.3 0.3-0.5 0.6-0.5l3.3-0.1c0.3 0 0.5 0.3 0.5 0.6 0 0.3-0.2 0.5-0.5 0.5l-3.3 0.1c-0.3 0-0.6-0.3-0.6-0.6zm11 0c0-0.3 0.3-0.6 0.6-0.6h3.3c0.3 0 0.5 0.2 0.5 0.5 0 0.3-0.2 0.6-0.5 0.6h-3.3c-0.3 0-0.6-0.2-0.6-0.5zm-117.1 0.5q-1.7-0.3-3.3-0.8c-0.3-0.1-0.4-0.4-0.3-0.7 0.1-0.3 0.4-0.5 0.7-0.4q1.5 0.5 3.1 0.8c0.3 0.1 0.5 0.4 0.4 0.7 0 0.2-0.2 0.4-0.5 0.4q-0.1 0-0.1 0zm128.1-0.6c0-0.3 0.3-0.6 0.6-0.6h3.3c0.3 0 0.5 0.3 0.5 0.6 0 0.3-0.2 0.5-0.5 0.5h-3.3c-0.3 0-0.6-0.2-0.6-0.5zm11-0.1c0-0.3 0.3-0.5 0.6-0.5h3.3c0.3-0.1 0.5 0.2 0.5 0.5 0 0.3-0.2 0.5-0.5 0.6h-3.3c-0.3 0-0.6-0.3-0.6-0.6zm11 0c0-0.3 0.3-0.6 0.6-0.6h3.3c0.3 0 0.5 0.2 0.5 0.5 0 0.3-0.2 0.6-0.5 0.6h-3.3c-0.3 0-0.6-0.2-0.6-0.5zm11-0.1c0-0.3 0.3-0.6 0.6-0.6h3.3c0.3 0 0.5 0.3 0.5 0.6 0 0.3-0.2 0.5-0.5 0.5h-3.3c-0.3 0-0.6-0.2-0.6-0.5zm11-0.1c0-0.3 0.3-0.5 0.6-0.5h3.3c0.3 0 0.5 0.2 0.5 0.5 0 0.3-0.2 0.6-0.5 0.6h-3.3c-0.3 0-0.6-0.3-0.6-0.6zm11 0c0-0.3 0.3-0.6 0.6-0.6h3.3c0.3 0 0.5 0.2 0.5 0.5 0 0.3-0.2 0.6-0.5 0.6h-3.3c-0.3 0-0.6-0.2-0.6-0.5zm11-0.1c0-0.3 0.2-0.6 0.6-0.6h3.3c0.3 0 0.5 0.3 0.5 0.6 0 0.3-0.2 0.5-0.5 0.5h-3.3c-0.3 0-0.6-0.2-0.6-0.5zm11-0.1c0-0.3 0.2-0.5 0.5-0.5h3.3c0.3 0 0.6 0.2 0.6 0.5 0 0.3-0.2 0.6-0.5 0.6h-3.3-0.1c-0.3 0-0.5-0.3-0.5-0.6zm11 0c0-0.3 0.2-0.6 0.5-0.6h3.3c0.3 0 0.6 0.2 0.6 0.5 0 0.3-0.3 0.6-0.6 0.6h-3.3c-0.3 0-0.5-0.2-0.5-0.5zm11-0.1c0-0.3 0.2-0.5 0.5-0.5l3.3-0.1c0.3 0 0.6 0.3 0.6 0.6 0 0.3-0.3 0.5-0.6 0.5l-3.3 0.1c-0.3 0-0.5-0.3-0.5-0.6zm11-0.1c0-0.3 0.2-0.5 0.5-0.5h3.3c0.3 0 0.6 0.2 0.6 0.5 0 0.3-0.3 0.6-0.6 0.6h-3.3c-0.3 0-0.5-0.3-0.5-0.6zm11 0c0-0.3 0.2-0.6 0.5-0.6h3.3c0.3 0 0.6 0.2 0.6 0.6 0 0.3-0.3 0.5-0.6 0.5h-3.3c-0.3 0-0.5-0.2-0.5-0.5zm11-0.1c0-0.3 0.2-0.5 0.5-0.5l3.3-0.1c0.3 0 0.6 0.3 0.6 0.6 0 0.3-0.3 0.5-0.6 0.5l-3.3 0.1q0 0 0 0c-0.3 0-0.5-0.3-0.5-0.6zm11-0.1c0-0.3 0.2-0.5 0.5-0.5h3.3c0.3 0 0.6 0.2 0.6 0.5 0 0.3-0.3 0.6-0.6 0.6h-3.3c-0.3 0-0.5-0.3-0.5-0.6zm11 0c0-0.3 0.2-0.6 0.5-0.6h3.3c0.3 0 0.6 0.3 0.6 0.6 0 0.3-0.3 0.5-0.6 0.5h-3.3q0 0 0 0c-0.3 0-0.5-0.2-0.5-0.5zm11-0.1c0-0.3 0.2-0.5 0.5-0.5l3.3-0.1c0.3 0 0.6 0.3 0.6 0.6 0 0.3-0.3 0.5-0.6 0.5l-3.3 0.1c-0.3 0-0.5-0.3-0.5-0.6zm11 0c0-0.4 0.2-0.6 0.5-0.6h3.3c0.3 0 0.5 0.2 0.5 0.5 0.1 0.3-0.2 0.6-0.5 0.6h-3.3c-0.3 0-0.5-0.2-0.5-0.5zm10.9-0.1c0-0.3 0.3-0.6 0.6-0.6h3.3c0.3 0 0.5 0.3 0.5 0.6 0 0.3-0.2 0.5-0.5 0.5h-3.3c-0.3 0-0.6-0.2-0.6-0.5zm11-0.1c0-0.3 0.3-0.5 0.6-0.5h3.3c0.3 0 0.5 0.2 0.5 0.5 0 0.3-0.2 0.5-0.5 0.6h-3.3c-0.3 0-0.6-0.3-0.6-0.6zm11 0c0-0.3 0.3-0.6 0.6-0.6h3.3c0.3 0 0.5 0.2 0.5 0.5 0 0.3-0.2 0.6-0.5 0.6h-3.3c-0.3 0-0.6-0.2-0.6-0.5zm11-0.1c0-0.3 0.3-0.6 0.6-0.6h3.3c0.3 0 0.5 0.3 0.5 0.6 0 0.3-0.2 0.5-0.5 0.5h-3.3c-0.3 0-0.6-0.2-0.6-0.5zm11-0.3c0-0.3 0.2-0.6 0.5-0.6q1.6-0.2 3.2-0.5c0.3-0.1 0.6 0.1 0.7 0.4 0 0.3-0.2 0.6-0.5 0.7q-1.6 0.3-3.3 0.5 0 0 0 0c-0.3 0-0.6-0.2-0.6-0.5zm-369.4-1.7q-1.5-0.8-2.9-1.8c-0.2-0.2-0.3-0.5-0.1-0.8 0.2-0.2 0.5-0.3 0.8-0.1q1.3 0.9 2.7 1.7c0.3 0.2 0.4 0.5 0.2 0.8-0.1 0.2-0.3 0.3-0.5 0.3q-0.1 0-0.2-0.1zm380.1-0.7c-0.1-0.3 0.1-0.6 0.3-0.7q1.6-0.6 3.1-1.2c0.2-0.1 0.6 0 0.7 0.3 0.1 0.2 0 0.6-0.3 0.7q-1.5 0.7-3.1 1.2-0.1 0.1-0.2 0.1c-0.2 0-0.4-0.2-0.5-0.4zm9.9-4.8c-0.2-0.2-0.1-0.6 0.1-0.8q1.4-0.9 2.7-1.8c0.2-0.2 0.6-0.2 0.8 0.1 0.1 0.2 0.1 0.6-0.1 0.7q-1.4 1-2.8 2-0.1 0.1-0.3 0.1c-0.1 0-0.3-0.1-0.4-0.3zm-398.7-1.5q-1.1-1.2-2.1-2.6c-0.2-0.2-0.1-0.6 0.1-0.8 0.3-0.1 0.6-0.1 0.8 0.2q0.9 1.3 2 2.5c0.2 0.2 0.2 0.5 0 0.8q-0.2 0.1-0.4 0.1-0.2 0-0.4-0.2zm407.2-5.4c-0.3-0.2-0.3-0.6-0.1-0.8q1.2-1.2 2.2-2.4c0.2-0.3 0.5-0.3 0.8-0.1 0.2 0.2 0.2 0.5 0.1 0.7q-1.1 1.3-2.3 2.5-0.1 0.2-0.4 0.2-0.2 0-0.3-0.1zm-413.2-4q-0.6-1.5-1.1-3.1c-0.1-0.3 0-0.6 0.3-0.7 0.3-0.1 0.6 0.1 0.7 0.4q0.5 1.5 1.1 3c0.2 0.3 0 0.6-0.3 0.7q-0.1 0.1-0.2 0.1c-0.2 0-0.4-0.1-0.5-0.4zm419.8-4.7c-0.2-0.2-0.3-0.5-0.2-0.8q0.9-1.4 1.6-2.9c0.1-0.2 0.4-0.4 0.7-0.2 0.3 0.1 0.4 0.4 0.3 0.7q-0.8 1.5-1.6 3c-0.1 0.1-0.3 0.2-0.5 0.2q-0.1 0-0.3 0zm-422.5-6q-0.3-1.6-0.5-3.3c0-0.3 0.2-0.6 0.5-0.6 0.3 0 0.6 0.2 0.6 0.5q0.2 1.6 0.5 3.2c0 0.3-0.2 0.6-0.5 0.7q0 0-0.1 0c-0.2 0-0.5-0.2-0.5-0.5zm427-4.1c-0.3 0-0.4-0.4-0.4-0.6q0.5-1.6 0.9-3.2c0-0.3 0.3-0.5 0.6-0.4 0.3 0.1 0.5 0.3 0.4 0.6q-0.3 1.7-0.8 3.3c-0.1 0.2-0.3 0.4-0.5 0.4q-0.1 0-0.2-0.1zm-428.5-6.8q-0.2-1.6-0.4-3.3c-0.1-0.3 0.1-0.6 0.4-0.6 0.3 0 0.6 0.2 0.6 0.5q0.3 1.6 0.5 3.2c0 0.3-0.2 0.6-0.5 0.7q0 0-0.1 0c-0.2 0-0.5-0.2-0.5-0.5zm430.5-3.9c-0.3-0.1-0.5-0.3-0.5-0.6q0-0.6 0-1.1l0.1-2.2c0-0.3 0.3-0.5 0.6-0.5 0.3 0 0.5 0.2 0.5 0.5l-0.1 2.2q0 0.6 0 1.1c0 0.3-0.3 0.6-0.6 0.6q0 0 0 0zm-431.9-7q-0.2-1.7-0.3-3.3c-0.1-0.3 0.1-0.6 0.4-0.6 0.3 0 0.6 0.2 0.6 0.5q0.2 1.6 0.4 3.2c0.1 0.3-0.2 0.6-0.5 0.6q0 0.1 0 0.1c-0.3 0-0.5-0.3-0.6-0.5zm432.3-4c-0.3 0-0.5-0.3-0.5-0.6l0.1-3.3c0-0.3 0.2-0.5 0.5-0.5 0.3 0 0.6 0.2 0.6 0.5l-0.1 3.3c0 0.3-0.3 0.6-0.6 0.6q0 0 0 0zm-433.5-7q-0.1-1.6-0.3-3.3c0-0.3 0.2-0.5 0.5-0.6 0.3 0 0.6 0.2 0.6 0.5q0.2 1.7 0.3 3.3c0.1 0.3-0.2 0.6-0.5 0.6q0 0 0 0c-0.3 0-0.5-0.2-0.6-0.5zm433.8-4c-0.3 0-0.5-0.3-0.5-0.6l0.1-3.3c0-0.3 0.3-0.5 0.6-0.5 0.3 0 0.5 0.3 0.5 0.6l-0.1 3.3c0 0.2-0.2 0.5-0.5 0.5q0 0-0.1 0zm-434.8-6.9q-0.1-1.7-0.3-3.3c0-0.3 0.2-0.6 0.5-0.6 0.3 0 0.6 0.2 0.6 0.5q0.2 1.6 0.3 3.3c0 0.3-0.2 0.5-0.5 0.6q0 0-0.1 0c-0.2 0-0.5-0.2-0.5-0.5zm435.2-4.1c-0.3 0-0.5-0.3-0.5-0.6l0.1-3.3c0-0.3 0.3-0.5 0.5-0.5 0.3 0 0.6 0.3 0.6 0.6l-0.1 3.3c0 0.3-0.3 0.5-0.6 0.5q0 0 0 0zm-436.1-6.9q-0.1-1.6-0.2-3.3c0-0.3 0.2-0.6 0.5-0.6 0.3 0 0.6 0.2 0.6 0.5q0.1 1.7 0.2 3.3c0 0.3-0.2 0.6-0.5 0.6q0 0 0 0c-0.3 0-0.6-0.2-0.6-0.5zm436.5-4.1c-0.3 0-0.6-0.3-0.6-0.6l0.1-3.3c0-0.3 0.3-0.5 0.6-0.5 0.3 0 0.5 0.3 0.5 0.6l-0.1 3.3c0 0.3-0.2 0.5-0.5 0.5q0 0 0 0zm-437.2-6.9q-0.1-1.6-0.2-3.3c0-0.3 0.3-0.5 0.6-0.6 0.3 0 0.5 0.3 0.5 0.6q0.1 1.6 0.2 3.3c0 0.3-0.2 0.5-0.5 0.5q0 0 0 0c-0.3 0-0.6-0.2-0.6-0.5zm437.5-4.1c-0.3 0-0.5-0.2-0.5-0.6l0.1-3.2c0-0.4 0.3-0.6 0.6-0.6 0.3 0 0.5 0.3 0.5 0.6l-0.1 3.3c0 0.3-0.3 0.5-0.6 0.5q0 0 0 0zm-438-6.9q-0.1-1.6-0.1-3.3c-0.1-0.3 0.2-0.5 0.5-0.5 0.3 0 0.5 0.2 0.6 0.5q0 1.6 0.1 3.3c0 0.3-0.2 0.5-0.6 0.6q0 0 0 0c-0.3 0-0.5-0.3-0.5-0.6zm438.4-4.1c-0.3 0-0.6-0.2-0.6-0.5l0.1-3.3c0-0.3 0.3-0.6 0.6-0.6 0.3 0 0.5 0.3 0.5 0.6l-0.1 3.3c0 0.3-0.2 0.5-0.5 0.5q0 0 0 0zm-438.8-6.9q0-1.6 0-3.3c-0.1-0.3 0.2-0.5 0.5-0.5q0 0 0 0c0.3 0 0.5 0.2 0.6 0.5q0 1.7 0 3.3c0 0.3-0.2 0.6-0.5 0.6q0 0 0 0c-0.3 0-0.6-0.3-0.6-0.6zm439.1-4.1c-0.3 0-0.5-0.2-0.5-0.5l0.1-3.3c0-0.3 0.3-0.6 0.6-0.6 0.3 0.1 0.5 0.3 0.5 0.6l-0.1 3.3c0 0.3-0.3 0.5-0.6 0.5q0 0 0 0zm-439.2-6.9q0-1.6 0-3.3c0-0.3 0.2-0.5 0.5-0.5 0.3 0 0.6 0.2 0.6 0.5q0 1.7 0 3.3c0 0.3-0.3 0.6-0.6 0.6-0.3 0-0.5-0.3-0.5-0.6zm439.6-4.1c-0.3 0-0.6-0.2-0.6-0.5l0.1-3.3c0.1-0.3 0.3-0.5 0.6-0.5 0.3 0 0.6 0.2 0.5 0.5l-0.1 3.3c0 0.3-0.2 0.5-0.5 0.5q0 0 0 0zm-439.1-6.3c-0.3 0-0.5-0.3-0.5-0.6q0-1.6 0.1-3.3c0-0.3 0.2-0.5 0.5-0.5 0.3 0 0.6 0.2 0.6 0.5q-0.1 1.7-0.1 3.3c0 0.3-0.2 0.6-0.5 0.6q-0.1 0-0.1 0zm439.4-4.6c-0.3-0.1-0.5-0.3-0.5-0.6l0.1-3.3c0-0.3 0.3-0.5 0.6-0.5 0.3 0 0.5 0.2 0.5 0.5l-0.1 3.3c0 0.3-0.3 0.6-0.6 0.6q0 0 0 0zm-439.1-6.4c-0.3 0-0.5-0.3-0.5-0.6q0-1.6 0.1-3.3c0-0.3 0.3-0.5 0.6-0.5 0.3 0 0.5 0.3 0.5 0.6q-0.1 1.6-0.1 3.2c0 0.3-0.3 0.6-0.6 0.6q0 0 0 0zm439.5-4.6c-0.3 0-0.6-0.3-0.6-0.6l0.1-3.3c0.1-0.3 0.3-0.5 0.6-0.5 0.3 0 0.6 0.2 0.5 0.5l-0.1 3.3c0 0.3-0.2 0.6-0.5 0.6q0 0 0 0zm-439-6.4c-0.3 0-0.6-0.3-0.5-0.6q0-1.6 0.2-3.3c0-0.3 0.2-0.5 0.5-0.5 0.3 0 0.6 0.3 0.5 0.6q-0.1 1.6-0.1 3.3c-0.1 0.3-0.3 0.5-0.6 0.5q0 0 0 0zm439.3-4.6c-0.3 0-0.5-0.3-0.5-0.6l0.1-3.3c0-0.3 0.3-0.5 0.6-0.5 0.3 0 0.5 0.2 0.5 0.6l-0.1 3.2c0 0.3-0.3 0.6-0.6 0.6q0 0 0 0zm-438.6-6.4c-0.3 0-0.5-0.3-0.5-0.6q0.1-1.6 0.3-3.3c0-0.3 0.3-0.5 0.6-0.5 0.3 0.1 0.5 0.3 0.5 0.6q-0.2 1.7-0.3 3.3c0 0.3-0.3 0.5-0.5 0.5q-0.1 0-0.1 0zm439-4.6c-0.3 0-0.6-0.3-0.5-0.6l0.1-3.3c0-0.3 0.3-0.5 0.5-0.5 0.3 0 0.6 0.3 0.6 0.6l-0.2 3.3c0 0.3-0.2 0.5-0.5 0.5q0 0 0 0zm-438-6.3c-0.3-0.1-0.5-0.3-0.5-0.6q0.2-1.7 0.4-3.3c0-0.3 0.3-0.5 0.6-0.5 0.3 0 0.5 0.3 0.5 0.6q-0.2 1.6-0.4 3.3c0 0.3-0.3 0.5-0.5 0.5q-0.1 0-0.1 0zm438.3-4.7c-0.3 0-0.5-0.3-0.5-0.6l0.1-3.3c0-0.3 0.3-0.5 0.6-0.5 0.3 0 0.5 0.3 0.5 0.6l-0.1 3.3c0 0.3-0.3 0.5-0.5 0.5q-0.1 0-0.1 0zm-434.9-3.8c0-0.3 0.3-0.6 0.6-0.6h3.3c0.3 0 0.5 0.3 0.5 0.6 0 0.3-0.2 0.5-0.5 0.5h-3.3c-0.3 0-0.6-0.2-0.6-0.5zm11 0c0-0.3 0.3-0.6 0.6-0.6h3.3c0.3 0 0.5 0.3 0.5 0.6 0 0.3-0.2 0.5-0.5 0.5h-3.3c-0.3 0-0.6-0.2-0.6-0.5zm11 0c0-0.3 0.2-0.6 0.5-0.6h3.3c0.4 0 0.6 0.3 0.6 0.6 0 0.3-0.2 0.5-0.6 0.5h-3.3c-0.3 0-0.5-0.2-0.5-0.5zm11 0c0-0.3 0.2-0.6 0.5-0.6h3.3c0.3 0 0.6 0.3 0.6 0.6 0 0.3-0.3 0.5-0.6 0.5h-3.3c-0.3 0-0.5-0.2-0.5-0.5zm11 0c0-0.3 0.2-0.6 0.5-0.6h3.3c0.3 0 0.6 0.3 0.6 0.6 0 0.3-0.3 0.5-0.6 0.5h-3.3c-0.3 0-0.5-0.2-0.5-0.5zm11 0c0-0.3 0.2-0.6 0.5-0.6h3.3c0.3 0 0.6 0.3 0.6 0.6 0 0.3-0.3 0.5-0.6 0.5h-3.3c-0.3 0-0.5-0.2-0.5-0.5zm11 0c0-0.3 0.2-0.6 0.5-0.6h3.3c0.3 0 0.6 0.3 0.6 0.6 0 0.3-0.3 0.5-0.6 0.5h-3.3c-0.3 0-0.5-0.2-0.5-0.5zm11 0c0-0.3 0.2-0.6 0.5-0.6h3.3c0.3 0 0.6 0.3 0.6 0.6 0 0.3-0.3 0.5-0.6 0.5h-3.3c-0.3 0-0.5-0.2-0.5-0.5zm11 0c0-0.3 0.2-0.6 0.5-0.6h3.3c0.3 0 0.6 0.3 0.6 0.6 0 0.3-0.3 0.5-0.6 0.5h-3.3c-0.3 0-0.5-0.2-0.5-0.5zm11 0c0-0.3 0.2-0.6 0.5-0.6h3.3c0.3 0 0.6 0.3 0.6 0.6 0 0.3-0.3 0.5-0.6 0.5h-3.3c-0.3 0-0.5-0.2-0.5-0.5zm11 0c0-0.3 0.2-0.6 0.5-0.6h3.3c0.3 0 0.6 0.3 0.6 0.6 0 0.3-0.3 0.5-0.6 0.5h-3.3c-0.3 0-0.5-0.2-0.5-0.5zm11 0c0-0.3 0.2-0.6 0.5-0.6h3.3c0.3 0 0.6 0.3 0.6 0.6 0 0.3-0.3 0.5-0.6 0.5h-3.3c-0.3 0-0.5-0.2-0.5-0.5zm10.9 0c0-0.3 0.3-0.6 0.6-0.6h3.3c0.3 0 0.5 0.3 0.5 0.6 0 0.3-0.2 0.5-0.5 0.5h-3.3c-0.3 0-0.6-0.2-0.6-0.5zm11 0c0-0.3 0.3-0.6 0.6-0.6h3.3c0.3 0 0.5 0.3 0.5 0.6 0 0.3-0.2 0.5-0.5 0.5h-3.3c-0.3 0-0.6-0.2-0.6-0.5zm11 0c0-0.3 0.3-0.6 0.6-0.6h3.3c0.3 0 0.5 0.3 0.5 0.6 0 0.3-0.2 0.5-0.5 0.5h-3.3c-0.3 0-0.6-0.2-0.6-0.5zm11 0c0-0.3 0.3-0.6 0.6-0.6h3.3c0.3 0 0.5 0.3 0.5 0.6 0 0.3-0.2 0.5-0.5 0.5h-3.3c-0.3 0-0.6-0.2-0.6-0.5zm11 0c0-0.3 0.3-0.6 0.6-0.6h3.3c0.3 0 0.5 0.3 0.5 0.6 0 0.3-0.2 0.5-0.5 0.5h-3.3c-0.3 0-0.6-0.2-0.6-0.5zm11 0c0-0.3 0.3-0.6 0.6-0.6h3.3c0.3 0 0.5 0.3 0.5 0.6 0 0.3-0.2 0.5-0.5 0.5h-3.3c-0.3 0-0.6-0.2-0.6-0.5zm11 0c0-0.3 0.3-0.6 0.6-0.6h3.3c0.3 0 0.5 0.3 0.5 0.6 0 0.3-0.2 0.5-0.5 0.5h-3.3c-0.3 0-0.6-0.2-0.6-0.5zm11 0c0-0.3 0.3-0.6 0.6-0.6h3.3c0.3 0 0.5 0.3 0.5 0.6 0 0.3-0.2 0.5-0.5 0.5h-3.3c-0.3 0-0.6-0.2-0.6-0.5zm11 0c0-0.3 0.3-0.6 0.6-0.6h3.3c0.3 0 0.5 0.3 0.5 0.6 0 0.3-0.2 0.5-0.5 0.5h-3.3c-0.3 0-0.6-0.2-0.6-0.5zm11 0c0-0.3 0.2-0.6 0.6-0.6h3.2c0.4 0 0.6 0.3 0.6 0.6 0 0.3-0.2 0.5-0.6 0.5h-3.2c-0.4 0-0.6-0.2-0.6-0.5zm11 0c0-0.3 0.2-0.6 0.5-0.6h3.3c0.3 0 0.6 0.3 0.6 0.6 0 0.3-0.3 0.5-0.6 0.5h-3.3c-0.3 0-0.5-0.2-0.5-0.5zm11 0c0-0.3 0.2-0.6 0.5-0.6h3.3c0.3 0 0.6 0.3 0.6 0.6 0 0.3-0.3 0.5-0.6 0.5h-3.3c-0.3 0-0.5-0.2-0.5-0.5zm11 0c0-0.3 0.2-0.6 0.5-0.6h3.3c0.3 0 0.6 0.3 0.6 0.6 0 0.3-0.3 0.5-0.6 0.5h-3.3c-0.3 0-0.5-0.2-0.5-0.5zm11 0c0-0.3 0.2-0.6 0.5-0.6h3.3c0.3 0 0.6 0.3 0.6 0.6 0 0.3-0.3 0.5-0.6 0.5h-3.3c-0.3 0-0.5-0.2-0.5-0.5zm11 0c0-0.3 0.2-0.6 0.5-0.6h3.3c0.3 0 0.6 0.3 0.6 0.6 0 0.3-0.3 0.5-0.6 0.5h-3.3c-0.3 0-0.5-0.2-0.5-0.5zm11 0c0-0.3 0.2-0.6 0.5-0.6h3.3c0.3 0 0.6 0.3 0.6 0.6 0 0.3-0.3 0.5-0.6 0.5h-3.3c-0.3 0-0.5-0.2-0.5-0.5zm11 0c0-0.3 0.2-0.6 0.5-0.6h3.3c0.3 0 0.6 0.3 0.6 0.6 0 0.3-0.3 0.5-0.6 0.5h-3.3c-0.3 0-0.5-0.2-0.5-0.5zm11 0c0-0.3 0.2-0.6 0.5-0.6h3.3c0.3 0 0.6 0.3 0.6 0.6 0 0.3-0.3 0.5-0.6 0.5h-3.3c-0.3 0-0.5-0.2-0.5-0.5zm11 0c0-0.3 0.2-0.6 0.5-0.6h3.3c0.3 0 0.6 0.3 0.6 0.6 0 0.3-0.3 0.5-0.6 0.5h-3.3c-0.3 0-0.5-0.2-0.5-0.5zm10.9 0c0-0.3 0.3-0.6 0.6-0.6h3.3c0.3 0 0.5 0.3 0.5 0.6 0 0.3-0.2 0.5-0.5 0.5h-3.3c-0.3 0-0.6-0.2-0.6-0.5zm11 0c0-0.3 0.3-0.6 0.6-0.6h3.3c0.3 0 0.5 0.3 0.5 0.6 0 0.3-0.2 0.5-0.5 0.5h-3.3c-0.3 0-0.6-0.2-0.6-0.5zm11 0c0-0.3 0.3-0.6 0.6-0.6h3.3c0.3 0 0.5 0.3 0.5 0.6 0 0.3-0.2 0.5-0.5 0.5h-3.3c-0.3 0-0.6-0.2-0.6-0.5zm11 0c0-0.3 0.3-0.6 0.6-0.6h3.3c0.3 0 0.5 0.3 0.5 0.6 0 0.3-0.2 0.5-0.5 0.5h-3.3c-0.3 0-0.6-0.2-0.6-0.5zm11 0c0-0.3 0.3-0.6 0.6-0.6h3.3c0.3 0 0.5 0.3 0.5 0.6 0 0.3-0.2 0.5-0.5 0.5h-3.3c-0.3 0-0.6-0.2-0.6-0.5zm11 0c0-0.3 0.3-0.6 0.6-0.6h3.3c0.3 0 0.5 0.3 0.5 0.6 0 0.3-0.2 0.5-0.5 0.5h-3.3c-0.3 0-0.6-0.2-0.6-0.5zm11 0c0-0.3 0.3-0.6 0.6-0.6h3.3c0.3 0 0.5 0.3 0.5 0.6 0 0.3-0.2 0.5-0.5 0.5h-3.3c-0.3 0-0.6-0.2-0.6-0.5zm11 0c0-0.3 0.3-0.6 0.6-0.6h3.3c0.3 0 0.5 0.3 0.5 0.6 0 0.3-0.2 0.5-0.5 0.5h-3.3c-0.3 0-0.6-0.2-0.6-0.5zm11 0c0-0.3 0.3-0.6 0.6-0.6h3.3c0.3 0 0.5 0.3 0.5 0.6 0 0.3-0.2 0.5-0.5 0.5h-3.3c-0.3 0-0.6-0.2-0.6-0.5z"/><path class="K" d="m1528.4 1832.5l2-13.7c13.6-10.1 41.8-6.9 53.2-5.1 3 0.5 5.6 2.5 6.8 5.3l1.1 11.7z"/><path class="L" d="m1550.5 1812.5v-36.8h18.8v36.8c0 3.3-2.3 6.1-5.4 6.9q-4 1-7.9 0c-3.2-0.8-5.5-3.6-5.5-6.9z"/><path class="M" d="m1347 1832.5l2-13.7c13.6-10.1 41.8-6.9 53.1-5.1 3.1 0.5 5.7 2.5 6.9 5.3l1.1 11.7z"/><path class="N" d="m1369.1 1812.5v-40.7h18.8v40.7c0 3.3-2.3 6.1-5.5 6.9q-3.9 1-7.8 0c-3.2-0.8-5.5-3.6-5.5-6.9z"/><path class="O" d="m1571.2 1784.7l-201.4-3.9c-4.6-0.1-8.5-2.1-9.3-4.8-1.1-3.8-2.1-9.4-0.7-15.3 1.7-6.6 11.3-11.6 22.6-11.7 37.5-0.6 133.2-0.5 185.9 11.9 5.6 1.3 9.7 4.2 11.1 7.7 1.4 3.3 2.3 7.7 0.5 12.2-0.9 2.4-4.6 4-8.7 3.9z"/><path class="b" d="m1574.6 1778.6c-0.7 0-1.1-0.4-1-0.7 0-0.1 0.7-4.5-1.2-8.7-1.3-2.9-5.2-5.2-10.1-6.1-11.1-1.9-32.3-5.2-49.6-5.5-0.6 0-1.1-0.3-1.1-0.7 0-0.4 0.5-0.6 1.1-0.7 17.6 0.3 39 3.7 50.3 5.7 5.6 0.9 10 3.6 11.5 7 2 4.4 1.3 8.9 1.3 9.1-0.1 0.4-0.6 0.6-1.1 0.6q-0.1 0-0.1 0z"/><path class="P" d="m1701.7 1840.3c6.8 38.3 4.8 97.6 3.5 122.9-0.3 7.1-5.5 13.1-12.5 14.5l-198.9 39.5h-66.3l-186.7-35.3c-6.7-1.3-11.7-7.1-11.9-13.9-1.2-50.3 8.6-101 13.4-122.9 1.5-6.9 7.3-12 14.3-12.9 81.8-9.8 363.3-6.9 428.4-6.1 8.2 0.1 15.2 6.1 16.7 14.2z"/><path class="b" d="m1491.7 2001.2c-0.1-0.3 0.1-0.6 0.4-0.6l3.2-0.7c0.3 0 0.6 0.2 0.7 0.5 0 0.3-0.2 0.6-0.5 0.6l-3.2 0.7q0 0-0.1 0c-0.3 0-0.5-0.2-0.5-0.5zm-62.2-0.1c0-0.3 0.3-0.5 0.6-0.5h3.3c0.3 0 0.5 0.2 0.5 0.5 0 0.3-0.2 0.6-0.5 0.6h-3.3c-0.3 0-0.6-0.3-0.6-0.6zm11 0c0-0.3 0.2-0.5 0.6-0.5h3.2c0.4 0 0.6 0.2 0.6 0.5 0 0.3-0.2 0.6-0.6 0.6h-3.2c-0.4 0-0.6-0.3-0.6-0.6zm11 0c0-0.3 0.2-0.5 0.5-0.5h3.3c0.3 0 0.6 0.2 0.6 0.5 0 0.3-0.3 0.6-0.6 0.6h-3.3c-0.3 0-0.5-0.3-0.5-0.6zm11 0c0-0.3 0.2-0.5 0.5-0.5h3.3c0.3 0 0.6 0.2 0.6 0.5 0 0.3-0.3 0.6-0.6 0.6h-3.3c-0.3 0-0.5-0.3-0.5-0.6zm11 0c0-0.3 0.2-0.5 0.5-0.5h3.3c0.3 0 0.6 0.2 0.6 0.5 0 0.3-0.3 0.6-0.6 0.6h-3.3c-0.3 0-0.5-0.3-0.5-0.6zm11 0c0-0.3 0.2-0.5 0.5-0.5h3.3c0.3 0 0.6 0.2 0.6 0.5 0 0.3-0.3 0.6-0.6 0.6h-3.3c-0.3 0-0.5-0.3-0.5-0.6zm-62.1-0.7l-3.3-0.6c-0.3 0-0.5-0.3-0.4-0.6 0.1-0.3 0.3-0.5 0.6-0.5l3.3 0.7c0.3 0 0.5 0.3 0.4 0.6 0 0.3-0.3 0.4-0.5 0.4q-0.1 0-0.1 0zm80.1-1.3c-0.1-0.3 0.1-0.6 0.4-0.7l3.2-0.6c0.3-0.1 0.6 0.1 0.7 0.4 0 0.3-0.2 0.6-0.5 0.7l-3.2 0.6q-0.1 0-0.1 0c-0.3 0-0.5-0.1-0.5-0.4zm-90.9-0.7l-3.3-0.6c-0.3-0.1-0.5-0.4-0.4-0.7 0-0.3 0.3-0.5 0.6-0.4l3.3 0.6c0.3 0.1 0.5 0.4 0.4 0.7 0 0.2-0.3 0.4-0.5 0.4q-0.1 0-0.1 0zm101.6-1.5c0-0.2 0.2-0.5 0.5-0.6l3.2-0.6c0.3-0.1 0.6 0.1 0.6 0.4 0.1 0.3-0.1 0.6-0.4 0.6l-3.2 0.7q-0.1 0-0.1 0c-0.3 0-0.5-0.2-0.6-0.5zm-112.4-0.6l-3.3-0.6c-0.3 0-0.5-0.3-0.4-0.6 0-0.3 0.3-0.5 0.6-0.4l3.3 0.6c0.3 0 0.5 0.3 0.4 0.6 0 0.3-0.3 0.5-0.5 0.5q-0.1 0-0.1-0.1zm123.2-1.5c0-0.3 0.2-0.6 0.5-0.6l3.2-0.7c0.3 0 0.6 0.2 0.6 0.4 0.1 0.3-0.1 0.6-0.4 0.7l-3.2 0.6q-0.1 0-0.1 0c-0.3 0-0.5-0.1-0.6-0.4zm-134-0.5l-3.3-0.6c-0.3-0.1-0.5-0.4-0.4-0.7 0-0.2 0.3-0.4 0.6-0.4l3.3 0.6c0.3 0.1 0.5 0.4 0.4 0.7 0 0.2-0.3 0.4-0.5 0.4q-0.1 0-0.1 0zm144.8-1.6c-0.1-0.3 0.1-0.6 0.4-0.7l3.3-0.6c0.3-0.1 0.6 0.1 0.6 0.4 0.1 0.3-0.1 0.6-0.4 0.7l-3.3 0.6q0 0-0.1 0c-0.2 0-0.4-0.2-0.5-0.4zm-155.6-0.4l-3.3-0.7c-0.3 0-0.5-0.3-0.4-0.6 0-0.3 0.3-0.5 0.6-0.4l3.3 0.6c0.3 0 0.5 0.3 0.4 0.6 0 0.3-0.3 0.5-0.5 0.5q-0.1 0-0.1 0zm166.4-1.8c-0.1-0.3 0.1-0.6 0.4-0.6l3.3-0.7c0.3 0 0.5 0.2 0.6 0.5 0.1 0.3-0.1 0.5-0.4 0.6l-3.3 0.7q0 0-0.1 0c-0.2 0-0.5-0.2-0.5-0.5zm-177.2-0.3l-3.3-0.6c-0.3-0.1-0.5-0.3-0.4-0.6 0-0.3 0.3-0.5 0.6-0.5l3.3 0.6c0.3 0.1 0.5 0.4 0.4 0.7 0 0.2-0.3 0.4-0.5 0.4q-0.1 0-0.1 0zm188-1.8c-0.1-0.3 0.1-0.6 0.4-0.7l3.2-0.6c0.3-0.1 0.6 0.1 0.7 0.4 0 0.3-0.2 0.6-0.4 0.7l-3.3 0.6q0 0-0.1 0c-0.2 0-0.5-0.2-0.5-0.4zm-198.8-0.2l-3.3-0.6c-0.3-0.1-0.5-0.4-0.4-0.7 0-0.3 0.3-0.5 0.6-0.4l3.3 0.6c0.3 0 0.5 0.3 0.4 0.6-0.1 0.3-0.3 0.5-0.5 0.5q-0.1 0-0.1 0zm209.6-2c-0.1-0.3 0.1-0.6 0.4-0.6l3.2-0.7c0.3 0 0.6 0.2 0.7 0.5 0 0.3-0.2 0.6-0.5 0.6l-3.2 0.7q-0.1 0-0.1 0c-0.3 0-0.5-0.2-0.5-0.5zm-220.4-0.1l-3.3-0.6c-0.3 0-0.5-0.3-0.4-0.6 0-0.3 0.3-0.5 0.6-0.5l3.3 0.6c0.3 0.1 0.5 0.4 0.4 0.7-0.1 0.3-0.3 0.4-0.5 0.4q-0.1 0-0.1 0zm231.1-2c0-0.3 0.2-0.6 0.5-0.7l3.2-0.6c0.3-0.1 0.6 0.1 0.7 0.4 0 0.3-0.2 0.6-0.5 0.7l-3.2 0.6q-0.1 0-0.1 0c-0.3 0-0.5-0.2-0.6-0.4zm-242 0l-3.2-0.6c-0.3-0.1-0.5-0.4-0.4-0.7 0-0.3 0.3-0.5 0.6-0.4l3.3 0.6c0.3 0.1 0.4 0.3 0.4 0.6-0.1 0.3-0.3 0.5-0.5 0.5q-0.1 0-0.2 0zm252.8-2.2c0-0.3 0.2-0.5 0.5-0.6l3.2-0.6c0.3-0.1 0.6 0.1 0.6 0.4 0.1 0.3-0.1 0.6-0.4 0.6l-3.2 0.7q-0.1 0-0.1 0c-0.3 0-0.5-0.2-0.6-0.5zm-263.6 0.1l-3.2-0.6c-0.3 0-0.5-0.3-0.4-0.6 0-0.3 0.3-0.5 0.6-0.5l3.2 0.7c0.3 0 0.5 0.3 0.5 0.6-0.1 0.3-0.3 0.5-0.6 0.5q0 0-0.1-0.1zm274.4-2.2c-0.1-0.3 0.1-0.6 0.4-0.6l3.3-0.7c0.3-0.1 0.6 0.1 0.6 0.4 0.1 0.3-0.1 0.6-0.4 0.7l-3.2 0.6q-0.1 0-0.2 0c-0.2 0-0.4-0.1-0.5-0.4zm-285.2 0.2l-3.2-0.6c-0.3-0.1-0.5-0.4-0.4-0.7 0-0.3 0.3-0.5 0.6-0.4l3.2 0.6c0.3 0.1 0.5 0.4 0.5 0.7-0.1 0.2-0.3 0.4-0.6 0.4q0 0-0.1 0zm296-2.3c-0.1-0.3 0.1-0.6 0.4-0.7l3.3-0.6c0.3-0.1 0.5 0.1 0.6 0.4 0.1 0.3-0.1 0.6-0.4 0.6l-3.3 0.7q0 0-0.1 0c-0.2 0-0.5-0.2-0.5-0.4zm-306.8 0.3l-3.2-0.7c-0.3 0-0.5-0.3-0.4-0.6 0-0.3 0.3-0.5 0.6-0.4l3.2 0.6c0.3 0 0.5 0.3 0.5 0.6-0.1 0.3-0.3 0.5-0.6 0.5q0 0-0.1 0zm317.6-2.5c-0.1-0.3 0.1-0.6 0.4-0.6l3.2-0.7c0.3 0 0.6 0.2 0.7 0.5 0 0.3-0.1 0.5-0.4 0.6l-3.3 0.6q0 0.1-0.1 0.1c-0.2 0-0.5-0.2-0.5-0.5zm-328.4 0.4l-3.2-0.6c-0.3-0.1-0.5-0.3-0.4-0.6 0-0.3 0.3-0.5 0.6-0.5l3.2 0.6c0.3 0.1 0.5 0.4 0.5 0.7-0.1 0.2-0.3 0.4-0.6 0.4q0 0-0.1 0zm-10.8-2l-3.2-0.6c-0.3-0.1-0.5-0.4-0.4-0.7 0-0.3 0.3-0.5 0.6-0.4l3.2 0.6c0.3 0 0.5 0.3 0.5 0.6-0.1 0.3-0.3 0.5-0.6 0.5q0 0-0.1 0zm350-0.5c-0.1-0.3 0.1-0.6 0.4-0.7l3.2-0.6c0.3-0.1 0.6 0.1 0.7 0.4 0 0.3-0.2 0.6-0.5 0.7l-3.2 0.6q-0.1 0-0.1 0c-0.3 0-0.5-0.2-0.5-0.4zm-360.8-1.6l-3.2-0.6c-0.3 0-0.5-0.3-0.4-0.6 0-0.3 0.3-0.5 0.6-0.5l3.2 0.6c0.3 0.1 0.5 0.4 0.5 0.7-0.1 0.2-0.3 0.4-0.6 0.4q0 0-0.1 0zm371.5-0.6c0-0.3 0.2-0.6 0.5-0.6l3.2-0.7c0.3 0 0.6 0.2 0.7 0.5 0 0.3-0.2 0.6-0.5 0.6l-3.2 0.7q-0.1 0-0.1 0c-0.3 0-0.5-0.2-0.6-0.5zm-382.3-1.4l-3.2-0.6c-0.3-0.1-0.5-0.4-0.5-0.7 0.1-0.3 0.4-0.5 0.7-0.4l3.2 0.6c0.3 0.1 0.5 0.3 0.5 0.6-0.1 0.3-0.3 0.5-0.6 0.5q0 0-0.1 0zm393.1-0.7c0-0.3 0.2-0.6 0.5-0.7l3.2-0.6c0.3-0.1 0.6 0.1 0.6 0.4 0.1 0.3-0.1 0.6-0.4 0.7l-3.2 0.6q-0.1 0-0.1 0c-0.3 0-0.5-0.2-0.6-0.4zm-403.9-1.4l-3.2-0.6c-0.3 0-0.5-0.3-0.5-0.6 0.1-0.3 0.4-0.5 0.7-0.5l3.2 0.7c0.3 0 0.5 0.3 0.5 0.6-0.1 0.3-0.3 0.4-0.6 0.4q0 0-0.1 0zm414.7-0.8c-0.1-0.3 0.1-0.5 0.4-0.6l3.3-0.6c0.3-0.1 0.6 0.1 0.6 0.4 0.1 0.3-0.1 0.6-0.4 0.6l-3.2 0.7q-0.1 0-0.2 0c-0.2 0-0.4-0.2-0.5-0.5zm10.8-2.1c-0.1-0.3 0.1-0.6 0.4-0.7l3.3-0.6c0.3-0.1 0.5 0.1 0.6 0.4 0.1 0.3-0.1 0.6-0.4 0.7l-3.3 0.6q0 0-0.1 0c-0.2 0-0.5-0.1-0.5-0.4zm10.8-2.1c-0.1-0.3 0.1-0.6 0.4-0.7l2.4-0.5c0.1-0.3 0.3-0.5 0.6-0.5 0.3 0.1 0.6 0.3 0.5 0.6v0.8l-3.3 0.7q0 0-0.1 0c-0.2 0-0.5-0.2-0.5-0.4zm-441.5-2.6v-0.3q0-1.5 0-3c0.1-0.3 0.4-0.6 0.6-0.6 0.3 0 0.6 0.3 0.5 0.6q0 1.5 0 3v0.3c0 0.3-0.2 0.5-0.5 0.5-0.3 0-0.6-0.2-0.6-0.5zm445.2-5.6c-0.3-0.1-0.5-0.3-0.5-0.6q0.1-1.6 0.1-3.3c0-0.3 0.3-0.6 0.6-0.5 0.3 0 0.5 0.2 0.5 0.5q0 1.7-0.1 3.3c0 0.3-0.3 0.6-0.6 0.6q0 0 0 0zm-444.5-4.9c-0.3 0-0.5-0.2-0.5-0.5q0-1.7 0.1-3.3c0-0.3 0.3-0.6 0.6-0.6 0.3 0.1 0.5 0.3 0.5 0.6q-0.1 1.7-0.1 3.3c0 0.3-0.3 0.5-0.6 0.5q0 0 0 0zm444.9-6.1c-0.3 0-0.5-0.3-0.5-0.6q0.1-1.6 0.1-3.3c0-0.3 0.3-0.5 0.6-0.5 0.3 0 0.5 0.2 0.5 0.5q0 1.7-0.1 3.3c0 0.3-0.2 0.6-0.5 0.6q-0.1 0-0.1 0zm-444.4-4.8c-0.3-0.1-0.6-0.3-0.6-0.6q0.1-1.7 0.2-3.3c0.1-0.3 0.3-0.6 0.6-0.5 0.3 0 0.5 0.2 0.5 0.5q-0.1 1.7-0.2 3.3c0 0.3-0.2 0.6-0.5 0.6q0 0 0 0zm444.7-6.2c-0.3 0-0.5-0.3-0.5-0.6q0-1.6 0.1-3.3c0-0.3 0.2-0.5 0.5-0.5 0.3 0 0.6 0.2 0.6 0.5q-0.1 1.7-0.1 3.3c0 0.3-0.3 0.6-0.6 0.6q0 0 0 0zm-444-4.8c-0.3 0-0.6-0.3-0.5-0.6q0.1-1.7 0.2-3.3c0.1-0.3 0.3-0.5 0.6-0.5 0.3 0 0.6 0.3 0.5 0.6q-0.1 1.6-0.2 3.3c-0.1 0.3-0.3 0.5-0.6 0.5q0 0 0 0zm444.2-6.2c-0.3 0-0.5-0.3-0.5-0.6q0-1.6 0-3.3c0-0.3 0.2-0.5 0.5-0.5 0.3 0 0.6 0.2 0.6 0.5q0 1.7 0 3.3c0 0.3-0.3 0.6-0.6 0.6zm-443.3-4.8c-0.3 0-0.5-0.3-0.4-0.6q0.1-1.6 0.3-3.3c0-0.3 0.3-0.5 0.6-0.5 0.3 0.1 0.5 0.3 0.5 0.6q-0.2 1.7-0.4 3.3c0 0.3-0.2 0.5-0.5 0.5q0 0-0.1 0zm442.8-6.8q0-1.6 0-3.3c0-0.3 0.2-0.5 0.5-0.5q0 0 0 0c0.3 0 0.6 0.2 0.6 0.5q0 1.7 0 3.3c0 0.3-0.2 0.6-0.6 0.6-0.3 0-0.5-0.3-0.5-0.6zm-441.6-4.1c-0.3-0.1-0.5-0.3-0.4-0.6q0.2-1.7 0.4-3.3c0-0.3 0.3-0.5 0.6-0.5 0.3 0.1 0.5 0.3 0.4 0.6q-0.2 1.7-0.4 3.3c0 0.3-0.2 0.5-0.5 0.5q0 0-0.1 0zm441.5-6.9q-0.1-1.6-0.1-3.3c0-0.3 0.2-0.5 0.5-0.5 0.3 0 0.6 0.2 0.6 0.5q0 1.7 0.1 3.3c0 0.3-0.3 0.6-0.6 0.6q0 0 0 0c-0.3 0-0.5-0.3-0.5-0.6zm-440.1-4c-0.3-0.1-0.5-0.3-0.4-0.6q0.2-1.7 0.4-3.3c0.1-0.3 0.4-0.5 0.7-0.5 0.3 0.1 0.5 0.3 0.4 0.6q-0.2 1.7-0.4 3.3c-0.1 0.3-0.3 0.5-0.6 0.5q0 0-0.1 0zm439.8-6.9q-0.1-1.7-0.2-3.3c0-0.3 0.3-0.6 0.6-0.6 0.2 0 0.5 0.2 0.5 0.5q0.1 1.7 0.2 3.3c0 0.3-0.3 0.6-0.6 0.6q0 0 0 0c-0.3 0-0.5-0.2-0.5-0.5zm-438.1-4c-0.3-0.1-0.6-0.3-0.5-0.6q0.3-1.7 0.5-3.3c0.1-0.3 0.4-0.5 0.7-0.4 0.3 0 0.5 0.3 0.4 0.6q-0.3 1.6-0.5 3.2c-0.1 0.3-0.3 0.5-0.6 0.5q0 0 0 0zm437.6-7q-0.1-1.7-0.2-3.3c-0.1-0.3 0.2-0.6 0.5-0.6 0.3 0 0.5 0.2 0.5 0.5q0.2 1.7 0.3 3.3c0 0.3-0.3 0.6-0.6 0.6q0 0 0 0c-0.3 0-0.5-0.2-0.5-0.5zm-435.8-3.9c-0.3 0-0.5-0.3-0.5-0.6q0.3-1.7 0.6-3.2c0.1-0.3 0.3-0.5 0.6-0.5 0.3 0.1 0.5 0.4 0.5 0.7q-0.3 1.5-0.6 3.2c-0.1 0.3-0.3 0.4-0.5 0.4q-0.1 0.1-0.1 0zm435-7.1q-0.2-1.6-0.3-3.3c0-0.3 0.2-0.5 0.5-0.6 0.3 0 0.5 0.2 0.6 0.5q0.1 1.7 0.3 3.3c0 0.3-0.2 0.6-0.5 0.6q-0.1 0-0.1 0c-0.3 0-0.5-0.2-0.5-0.5zm-433-3.7c-0.3 0-0.5-0.3-0.5-0.6q0.4-1.7 0.7-3.3c0-0.3 0.3-0.4 0.6-0.4 0.3 0.1 0.5 0.4 0.4 0.7q-0.3 1.5-0.6 3.2c0 0.3-0.3 0.4-0.5 0.4q-0.1 0-0.1 0zm431.9-7.2q-0.2-1.6-0.5-3.3c0-0.3 0.2-0.5 0.5-0.6 0.3 0 0.6 0.2 0.6 0.5q0.3 1.6 0.5 3.3c0 0.3-0.2 0.5-0.5 0.6q-0.1 0-0.1 0c-0.3 0-0.5-0.2-0.5-0.5zm-429.7-3.6c-0.3 0-0.5-0.3-0.5-0.6l0.6-2.4c0.1-0.5 0.5-0.8 1-0.9h0.1c0.3 0 0.5 0.2 0.5 0.5 0 0.3-0.3 0.6-0.6 0.6l-0.5 2.4c0 0.3-0.3 0.5-0.5 0.5q-0.1 0-0.1-0.1zm8.4-4.1c-0.1-0.3 0.1-0.6 0.5-0.6q1.6-0.2 3.2-0.3c0.3 0 0.6 0.2 0.6 0.5 0.1 0.3-0.2 0.6-0.5 0.6q-1.6 0.1-3.2 0.3-0.1 0-0.1 0c-0.3 0-0.5-0.2-0.5-0.5zm10.9-0.9c0-0.4 0.2-0.6 0.5-0.6q1.6-0.2 3.3-0.3c0.3 0 0.6 0.2 0.6 0.5 0 0.3-0.2 0.6-0.5 0.6q-1.7 0.1-3.3 0.3 0 0 0 0c-0.3 0-0.6-0.3-0.6-0.5zm11-0.8c0-0.3 0.2-0.6 0.5-0.6l3.3-0.2c0.3 0 0.6 0.2 0.6 0.5 0 0.3-0.2 0.6-0.5 0.6l-3.3 0.2q-0.1 0-0.1 0c-0.3 0-0.5-0.2-0.5-0.5zm11-0.7c-0.1-0.3 0.2-0.5 0.5-0.5l3.3-0.2c0.3 0 0.5 0.2 0.6 0.5 0 0.3-0.3 0.6-0.6 0.6l-3.3 0.2q0 0 0 0c-0.3 0-0.5-0.3-0.5-0.6zm10.9-0.5c0-0.3 0.3-0.6 0.6-0.6l3.3-0.1c0.2 0 0.5 0.2 0.5 0.5 0 0.3-0.2 0.6-0.5 0.6l-3.3 0.1q0 0 0 0c-0.3 0-0.5-0.2-0.6-0.5zm375.9-0.2l-0.2-1c0-0.3-0.3-0.5-0.6-0.5h-0.7c-0.3 0-0.5-0.3-0.5-0.6 0-0.3 0.2-0.5 0.5-0.5h0.8c0.8 0 1.5 0.6 1.6 1.4l0.2 1c0 0.3-0.2 0.5-0.5 0.6q0 0-0.1 0c-0.2 0-0.5-0.2-0.5-0.4zm-364.9-0.3c0-0.3 0.3-0.5 0.6-0.5l3.3-0.2c0.3 0.1 0.5 0.3 0.5 0.6 0 0.3-0.2 0.5-0.5 0.5l-3.3 0.2q0 0 0 0c-0.3 0-0.6-0.3-0.6-0.6zm11-0.4c0-0.3 0.2-0.5 0.5-0.5l3.3-0.2c0.3 0.1 0.6 0.3 0.6 0.6 0 0.3-0.2 0.5-0.5 0.5l-3.3 0.2q0 0 0 0c-0.3 0-0.6-0.3-0.6-0.6zm11-0.3c0-0.3 0.2-0.6 0.5-0.6l3.3-0.1c0.3 0 0.6 0.2 0.6 0.5 0 0.3-0.2 0.6-0.5 0.6l-3.3 0.1q0 0 0 0c-0.3 0-0.6-0.2-0.6-0.5zm11-0.3c0-0.3 0.2-0.6 0.5-0.6l3.3-0.1q0 0 0 0c0.3 0 0.6 0.2 0.6 0.5 0 0.3-0.2 0.6-0.5 0.6l-3.3 0.1q0 0-0.1 0c-0.3 0-0.5-0.2-0.5-0.5zm11-0.3c0-0.3 0.2-0.6 0.5-0.6l3.3-0.1q0 0 0 0c0.3 0 0.6 0.3 0.6 0.6 0 0.3-0.2 0.5-0.6 0.5l-3.3 0.1q0 0 0 0c-0.3 0-0.5-0.2-0.5-0.5zm11-0.3c0-0.3 0.2-0.5 0.5-0.5l3.3-0.1c0.3 0 0.6 0.2 0.6 0.5 0 0.3-0.3 0.6-0.6 0.6l-3.3 0.1q0 0 0 0c-0.3 0-0.5-0.3-0.5-0.6zm11-0.2c0-0.3 0.2-0.5 0.5-0.5l3.3-0.1c0.3 0 0.6 0.2 0.6 0.5 0 0.3-0.3 0.6-0.6 0.6l-3.3 0.1q0 0 0 0c-0.3 0-0.5-0.3-0.5-0.6zm289.7 0.5l-3.3-0.1c-0.3 0-0.5-0.2-0.5-0.5 0-0.3 0.3-0.6 0.5-0.6l3.3 0.1c0.3 0 0.6 0.2 0.6 0.5 0 0.3-0.3 0.6-0.6 0.6q0 0 0 0zm-278.7-0.7c0-0.3 0.2-0.5 0.5-0.5l3.3-0.1q0 0 0 0c0.3 0 0.6 0.3 0.6 0.6 0 0.3-0.3 0.5-0.6 0.5l-3.3 0.1q0 0 0 0c-0.3 0-0.5-0.3-0.5-0.6zm267.7 0.5h-3.3c-0.3 0-0.5-0.2-0.5-0.5 0-0.3 0.2-0.6 0.5-0.6h3.3c0.3 0 0.6 0.3 0.6 0.6 0 0.3-0.3 0.5-0.6 0.5q0 0 0 0zm-11-0.1h-3.3c-0.3 0-0.5-0.3-0.5-0.6 0-0.3 0.2-0.5 0.5-0.5q0 0 0 0h3.3c0.3 0 0.6 0.3 0.6 0.6 0 0.3-0.3 0.5-0.6 0.5zm-245.7-0.5c0-0.3 0.2-0.6 0.5-0.6h3.3q0 0 0 0c0.3 0 0.6 0.2 0.6 0.5 0 0.3-0.3 0.6-0.6 0.6h-3.3q0 0 0 0c-0.3 0-0.5-0.2-0.5-0.5zm234.7 0.4h-3.3c-0.3 0-0.5-0.3-0.5-0.6 0-0.3 0.2-0.5 0.5-0.5h3.3c0.3 0 0.6 0.3 0.6 0.6 0 0.3-0.3 0.5-0.6 0.5q0 0 0 0zm-223.7-0.6c0-0.3 0.2-0.5 0.5-0.5l3.3-0.1c0.3 0 0.6 0.3 0.6 0.6 0 0.3-0.3 0.5-0.6 0.5l-3.3 0.1q0 0 0 0c-0.3 0-0.5-0.3-0.5-0.6zm212.7 0.5h-3.3c-0.3 0-0.5-0.3-0.5-0.6 0-0.3 0.2-0.5 0.5-0.5h3.3c0.3 0 0.6 0.3 0.6 0.6 0 0.3-0.3 0.5-0.6 0.5zm-201.7-0.6c0-0.3 0.2-0.6 0.5-0.6h3.3q0 0 0 0c0.3 0 0.6 0.2 0.6 0.5 0 0.4-0.3 0.6-0.6 0.6h-3.3c-0.3 0-0.5-0.2-0.5-0.5zm190.7 0.5h-3.3c-0.3 0-0.5-0.2-0.5-0.6 0-0.3 0.3-0.5 0.5-0.5h3.3c0.4 0 0.6 0.3 0.6 0.6 0 0.3-0.3 0.5-0.6 0.5q0 0 0 0zm-11-0.1h-3.3c-0.3 0-0.5-0.2-0.5-0.5 0-0.3 0.2-0.6 0.5-0.6h0.1 3.3c0.3 0 0.5 0.3 0.5 0.6 0 0.3-0.3 0.5-0.6 0.5q0 0 0 0zm-168.7-0.5c0-0.3 0.2-0.6 0.5-0.6h3.3c0.3 0 0.6 0.2 0.6 0.5 0 0.4-0.3 0.6-0.6 0.6h-3.3c-0.3 0-0.5-0.2-0.5-0.5zm157.7 0.5h-3.3c-0.3 0-0.5-0.3-0.5-0.6 0-0.3 0.2-0.5 0.5-0.5h0.1 3.3c0.3 0 0.5 0.2 0.5 0.5 0 0.3-0.3 0.6-0.6 0.6q0 0 0 0zm-146.7-0.6c-0.1-0.3 0.2-0.6 0.5-0.6h3.3c0.3 0 0.5 0.3 0.5 0.6 0.1 0.3-0.2 0.5-0.5 0.5h-3.3c-0.3 0-0.5-0.2-0.5-0.5zm135.7 0.5h-3.3c-0.3 0-0.5-0.3-0.5-0.6 0-0.3 0.2-0.5 0.5-0.5h0.1 3.3c0.3 0 0.5 0.3 0.5 0.6 0 0.3-0.2 0.5-0.6 0.5zm-124.8-0.6c0-0.3 0.3-0.5 0.6-0.5h3.3c0.3 0 0.5 0.2 0.5 0.5 0 0.3-0.2 0.5-0.5 0.6h-3.3c-0.3 0-0.5-0.3-0.6-0.6zm113.9 0.6l-3.3-0.1c-0.4 0-0.6-0.2-0.6-0.5 0-0.3 0.3-0.6 0.6-0.6l3.3 0.1c0.3 0 0.5 0.2 0.5 0.5 0 0.3-0.2 0.6-0.5 0.6q0 0 0 0zm-102.9-0.6c0-0.3 0.3-0.6 0.6-0.6h3.3c0.3 0 0.5 0.2 0.5 0.5 0 0.3-0.2 0.6-0.5 0.6h-3.3c-0.3 0-0.6-0.2-0.6-0.5zm91.9 0.5h-3.3c-0.3 0-0.6-0.3-0.6-0.6 0-0.3 0.3-0.5 0.6-0.5h3.3c0.3 0 0.5 0.3 0.5 0.6 0 0.3-0.2 0.5-0.5 0.5zm-80.9-0.6c0-0.3 0.3-0.5 0.6-0.5h3.3c0.3 0 0.5 0.2 0.5 0.5 0 0.3-0.2 0.6-0.5 0.6h-3.3c-0.3 0-0.6-0.3-0.6-0.6zm69.9 0.6h-3.3c-0.3 0-0.6-0.3-0.6-0.6 0-0.3 0.3-0.5 0.6-0.5h3.3c0.3 0 0.5 0.2 0.5 0.5 0 0.3-0.2 0.6-0.5 0.6zm-58.9-0.6c0-0.3 0.3-0.6 0.6-0.6h3.3c0.3 0 0.5 0.3 0.5 0.6 0 0.3-0.2 0.5-0.5 0.5h-3.3c-0.3 0-0.6-0.2-0.6-0.5zm47.9 0.5h-3.3c-0.3 0-0.6-0.2-0.6-0.5 0-0.3 0.3-0.6 0.6-0.6h3.3c0.3 0 0.5 0.3 0.5 0.6 0 0.3-0.2 0.5-0.5 0.5zm-36.9-0.5c0-0.3 0.3-0.6 0.6-0.6h3.3c0.3 0 0.5 0.3 0.5 0.6 0 0.3-0.2 0.5-0.5 0.5h-3.3c-0.3 0-0.6-0.2-0.6-0.5zm25.9 0.5h-3.3c-0.3 0-0.6-0.2-0.6-0.5 0-0.3 0.3-0.6 0.6-0.6h3.3c0.3 0 0.5 0.3 0.5 0.6 0 0.3-0.2 0.5-0.5 0.5zm-14.3 0c-0.3 0-0.6-0.2-0.6-0.5 0-0.3 0.3-0.6 0.6-0.6h3.3c0.3 0 0.5 0.3 0.5 0.6 0 0.3-0.2 0.5-0.5 0.5z"/><path class="Q" d="m1418.8 2031.4l-5-55.9c-0.8-8.7 6.1-16.3 14.9-16.3h69.8c9 0 16 7.9 15 16.8l-6.8 55.9c-0.9 7.5-7.3 13.1-14.9 13.1h-58.1c-7.8 0-14.3-5.9-14.9-13.6z"/><path class="R" d="m1429.5 2024.4l-3.8-42.6c-0.6-6.6 4.7-12.3 11.4-12.3h53.1c6.8 0 12.2 5.9 11.4 12.7l-5.2 42.5c-0.6 5.8-5.5 10.1-11.3 10.1h-44.2c-6 0-10.9-4.5-11.4-10.4z"/><path class="S" d="m1461.2 1507.7c4.7-128.1 13.3-293.9 27.2-363.5q24.2-120.9 109.7-166.6 182.2 26.8 3.2 344l-57.9 200.2c-18.4-8.4-46-16.2-82.2-14.1z"/><path class="T" d="m1461.2 1507.7c36.2-2.1 63.8 5.7 82.2 14.1l-46.9 162.5q8 88.7 0.8 98.5c-7.2 9.7-65.3 6.3-65.3-9.8q0-16.1 24.2-96.7 1.4-74.1 5-168.6z"/><path class="U" d="m2216.8 681.7q47.3 23.1 56 49.5c7 21.3 59.4 24 64.6 65.8 2.6 21.5 18.6 38.8 40.1 42.1 53.5 8.2 135.9 36 149.1 128.8 10.1 70.9-26.1 97.8-64 107.1-27.9 6.8-46.4 33.9-40.7 62.1 5.4 26.9-2.7 58.1-49.4 82.8q-104.7 55.2-209.3-130.9l-21.5-325.1z"/><path class="V" d="m2666.1 2698.6h61.8c18 19 30.5 51.3 37.4 72.8 3.7 11.8-4.3 24.3-16.6 25.6-28 2.9-56.7 0.8-74.5-1.2-10.6-1.2-18.9-9.6-20.2-20.1l-6.8-55.7c-1.4-11.4 7.5-21.4 18.9-21.4z"/><path class="W" d="m2236.2 2117.4l32 60c10.9 20.6 15.7 44 13.8 67.3l-33.1 396.3 25.3 34.8-3.1 18.8-154.4 91.1 60.8-98.6c11.6-18.9 17.4-40.9 16.4-63q-6.2-141.6-41.2-495.4l10.5-61.3z"/><path class="X" d="m2104.1 2774.2q10.5-1.9 20.1-0.6 77.9-54.8 103.3-70.1 25.4-15.3 30-50c20.5 10.7 31.8 33.3 28.1 56l-14.5 90.5h-11.5q2.6-72.8-17.8-71.4c-15.3 1-47.1 39.9-62.4 59.9-5.7 7.3-14.3 11.5-23.6 11.5h-49.2c-15.8 0-18-23-2.5-25.8z"/><path class="Y" d="m2479.9 2096.5c85.3 65.3 107.5 136.1 127.1 201.4 19.6 65.4 55.3 253.2 71.9 294.7 13.9 34.7 51.5 111.3 63.3 135.2 3.4 6.8 3.2 14.8-0.8 21.2-4.6 7.5-14.1 15.3-33.5 15.3-37.5 0-51.1-10.5-51.8-21.5-0.4-7-11.8-80.9-44.3-169.5q-32.6-88.6-237.2-476.8 46.7-57.4 105.3 0z"/><path class="Z" d="m2062 1478.3q-92.9-245.5-103.1-294.7-17.4-83.9 129.3-191.2 153.7 36.9 238.1 117.9-133.8 126.5-81 350.2-97.4 58.5-183.3 17.8z"/><path class="a0" d="m2486.4 2101.9q-202.2 53.4-333.7 26.8-83.4-439.8-96.7-508.3-13.3-68.4 6-142.1 85.9 40.7 183.3-17.8 95.6 46 117.1 110.7c21.4 64.7 40.3 382 124 530.7z"/><path class="a1" d="m2184.1 844.6l42.9 192.8c4.1 17-11.4 14.2-28.6 11-28.1-5.3-64.3-16.3-76.4-38.1-1.3-2.3-1.9-4.8-2.2-7.3l-18.5-133.7c-1.4-10.6 4.3-20.9 14.1-25.2l35.6-15.8c13.7-6.1 29.5 1.8 33.1 16.3z"/><path class="a2" d="m2326.3 1110.3q299.5 214.3 38.3 439.5-10 11.2-29.6 17.1c-9.9 3-39.1 25.1-54 36.6-4.7 3.7-11.6 2.5-14.8-2.6-2.6-4.1-2.8-9.1-0.8-13.4l37.1-78.4c10.3-9.6 26-10.3 37.1-1.6 7.1 5.6 17.4 3.2 21.4-4.8 20.2-41.1 58.3-162.1-97.7-298.8-5.9-5.1-7.4-13.6-3.8-20.5 11-21.1 36.1-62.9 66.8-73.1z"/><path class="a3" d="m2202.7 815.5c-41.1 56.5-88.5 66.6-121.2 68.4-32.7 1.7-64.6-26.6-45-105.3q19.7-78.8 65.4-109.7c59.8-37.8 141.9 90.1 100.8 146.6z"/><path class="a4" d="m2161.3 783.8q16.7-112.9-77-95.6l-18.9 19.7q-45.9-51.7 4.9-90.7c50.7-39.1 121.2-29.1 160.1 42 39 71.1 53.1 121 20.5 165.2q-32.7 44.2-57.3 6.3 15-38.2 2.6-54.6-12.4-16.4-28.5 9.5z"/><path class="a5" d="m2174.1 793.4q8.3-58 37.9-41.4c29.7 16.6-10.7 54.2-26.8 67z"/></svg>