<svg version="1.2" xmlns="http://www.w3.org/2000/svg" viewBox="0 0 1095 706" ><defs><linearGradient id="P" gradientUnits="userSpaceOnUse"/><linearGradient id="g1" x1="118.2" y1="-0.9" x2="1055.3" y2="-0.9" href="#P"><stop stop-color="#b37cff"/><stop offset="1" stop-color="#f895e7"/></linearGradient><linearGradient id="g2" x1="1010.7" y1="23.7" x2="105.5" y2="23.7" href="#P"><stop stop-color="#b37cff"/><stop offset="1" stop-color="#f895e7"/></linearGradient><linearGradient id="g3" x1="639.4" y1="36.2" x2="793.1" y2="36.2" href="#P"><stop stop-color="#b37cff"/><stop offset="1" stop-color="#f895e7"/></linearGradient><linearGradient id="g4" x1="555.3" y1="71.4" x2="638.2" y2="71.4" href="#P"><stop stop-color="#b37cff"/><stop offset="1" stop-color="#f895e7"/></linearGradient><linearGradient id="g5" x1="363.5" y1="166.8" x2="85.6" y2="88.1" href="#P"><stop stop-color="#cb236d"/><stop offset="1" stop-color="#4c246d"/></linearGradient><linearGradient id="g6" x1="537.3" y1="272.4" x2="400.6" y2="171.5" href="#P"><stop stop-color="#a737d5"/><stop offset="1" stop-color="#ef497a"/></linearGradient><linearGradient id="g7" x1="388.4" y1="361.2" x2="911.6" y2="1048.5" href="#P"><stop stop-color="#2b3582"/><stop offset="1" stop-color="#150e42"/></linearGradient><linearGradient id="g8" x1="1351.6" y1="624.2" x2="971" y2="62.6" href="#P"><stop stop-color="#a737d5"/><stop offset="1" stop-color="#ef497a"/></linearGradient><linearGradient id="g9" x1="878.4" y1="226.7" x2="1039.3" y2="466.3" href="#P"><stop stop-color="#fdf53f"/><stop offset="1" stop-color="#d93c65"/></linearGradient><linearGradient id="g10" x1="843.7" y1="252.2" x2="1001.6" y2="487.2" href="#P"><stop stop-color="#fdf53f"/><stop offset="1" stop-color="#d93c65"/></linearGradient><linearGradient id="g11" x1="677.1" y1="273" x2="850.3" y2="501.3" href="#P"><stop stop-color="#a737d5"/><stop offset="1" stop-color="#ef497a"/></linearGradient><linearGradient id="g12" x1="738.1" y1="240.6" x2="911.9" y2="451.2" href="#P"><stop stop-color="#a737d5"/><stop offset="1" stop-color="#ef497a"/></linearGradient><linearGradient id="g13" x1="729" y1="249.3" x2="903.2" y2="460.3" href="#P"><stop stop-color="#a737d5"/><stop offset="1" stop-color="#ef497a"/></linearGradient><linearGradient id="g14" x1="926.8" y1="394.1" x2="1060.3" y2="582.7" href="#P"><stop stop-color="#53d8ff"/><stop offset="1" stop-color="#3840f7"/></linearGradient><linearGradient id="g15" x1="786" y1="396.7" x2="897.9" y2="530.3" href="#P"><stop stop-color="#fdf53f"/><stop offset="1" stop-color="#d93c65"/></linearGradient><linearGradient id="g16" x1="850.4" y1="135.8" x2="850.4" y2="81.6" href="#P"><stop stop-color="#2b3582"/><stop offset="1" stop-color="#150e42"/></linearGradient><linearGradient id="g17" x1="731.5" y1="92" x2="882.4" y2="290.5" href="#P"><stop stop-color="#2b3582"/><stop offset="1" stop-color="#150e42"/></linearGradient><linearGradient id="g18" x1="706.4" y1="117" x2="811.2" y2="309.6" href="#P"><stop stop-color="#53d8ff"/><stop offset="1" stop-color="#3840f7"/></linearGradient><linearGradient id="g19" x1="55.7" y1="548.1" x2="18.1" y2="594.8" href="#P"><stop stop-color="#a737d5"/><stop offset="1" stop-color="#ef497a"/></linearGradient><linearGradient id="g20" x1="-6.6" y1="457.5" x2="65.6" y2="603.6" href="#P"><stop stop-color="#53d8ff"/><stop offset="1" stop-color="#3840f7"/></linearGradient><linearGradient id="g21" x1="905.6" y1="457.2" x2="1027.8" y2="124.4" href="#P"><stop stop-color="#a737d5"/><stop offset="1" stop-color="#ef497a"/></linearGradient><linearGradient id="g22" x1="1095.2" y1="378.1" x2="686.5" y2="286" href="#P"><stop stop-color="#cb236d"/><stop offset="1" stop-color="#4c246d"/></linearGradient><linearGradient id="g23" x1="359.4" y1="33.8" x2="386.7" y2="221.4" href="#P"><stop stop-color="#cb236d"/><stop offset="1" stop-color="#4c246d"/></linearGradient><linearGradient id="g24" x1="413.1" y1="307" x2="447.5" y2="409" href="#P"><stop stop-color="#fdf53f"/><stop offset="1" stop-color="#d93c65"/></linearGradient><linearGradient id="g25" x1="345.9" y1="551.6" x2="328.3" y2="440.6" href="#P"><stop stop-color="#53d8ff"/><stop offset="1" stop-color="#3840f7"/></linearGradient><linearGradient id="g26" x1="363.4" y1="548.6" x2="345.4" y2="435.6" href="#P"><stop stop-color="#53d8ff"/><stop offset="1" stop-color="#3840f7"/></linearGradient><linearGradient id="g27" x1="386.8" y1="545" x2="369.2" y2="434.1" href="#P"><stop stop-color="#53d8ff"/><stop offset="1" stop-color="#3840f7"/></linearGradient><linearGradient id="g28" x1="415.5" y1="408.5" x2="357.8" y2="408.5" href="#P"><stop stop-color="#f9b776"/><stop offset="1" stop-color="#f47960"/></linearGradient><linearGradient id="g29" x1="358.1" y1="522.5" x2="366.1" y2="645.5" href="#P"><stop stop-color="#cb236d"/><stop offset="1" stop-color="#4c246d"/></linearGradient><linearGradient id="g30" x1="484" y1="413.1" x2="361.5" y2="413.1" href="#P"><stop stop-color="#f9b776"/><stop offset="1" stop-color="#f47960"/></linearGradient><linearGradient id="g31" x1="414.5" y1="410.9" x2="299.1" y2="563.8" href="#P"><stop stop-color="#2b3582"/><stop offset="1" stop-color="#150e42"/></linearGradient><linearGradient id="g32" x1="434.7" y1="521.4" x2="442.1" y2="635.6" href="#P"><stop stop-color="#cb236d"/><stop offset="1" stop-color="#4c246d"/></linearGradient><linearGradient id="g33" x1="304.1" y1="289.4" x2="239.2" y2="430.8" href="#P"><stop stop-color="#fdf53f"/><stop offset="1" stop-color="#d93c65"/></linearGradient><linearGradient id="g34" x1="360" y1="319.4" x2="366" y2="281.3" href="#P"><stop stop-color="#f9b776"/><stop offset="1" stop-color="#f47960"/></linearGradient><linearGradient id="g35" x1="377.3" y1="237.9" x2="326.3" y2="246.5" href="#P"><stop stop-color="#f9b776"/><stop offset="1" stop-color="#f47960"/></linearGradient><linearGradient id="g36" x1="309.8" y1="190.1" x2="342.9" y2="285" href="#P"><stop stop-color="#cb236d"/><stop offset="1" stop-color="#4c246d"/></linearGradient><linearGradient id="g37" x1="370.1" y1="250.5" x2="332.4" y2="256.9" href="#P"><stop stop-color="#f9b776"/><stop offset="1" stop-color="#f47960"/></linearGradient><linearGradient id="g38" x1="311.6" y1="372.1" x2="197.3" y2="372.1" href="#P"><stop stop-color="#f9b776"/><stop offset="1" stop-color="#f47960"/></linearGradient><linearGradient id="g39" x1="243.5" y1="211.7" x2="274.8" y2="301.3" href="#P"><stop stop-color="#cb236d"/><stop offset="1" stop-color="#4c246d"/></linearGradient><linearGradient id="g40" x1="581.5" y1="396" x2="198.7" y2="396" href="#P"><stop stop-color="#9cfffb"/><stop offset="1" stop-color="#9bfffa"/></linearGradient><linearGradient id="g41" x1="559.2" y1="403.1" x2="484.5" y2="403.1" href="#P"><stop stop-color="#9cfffb"/><stop offset="1" stop-color="#9bfffa"/></linearGradient><linearGradient id="g42" x1="550.5" y1="403.1" x2="475.8" y2="403.1" href="#P"><stop stop-color="#9cfffb"/><stop offset="1" stop-color="#9bfffa"/></linearGradient><linearGradient id="g43" x1="287.4" y1="403.1" x2="212.6" y2="403.1" href="#P"><stop stop-color="#9cfffb"/><stop offset="1" stop-color="#9bfffa"/></linearGradient><linearGradient id="g44" x1="278.6" y1="403.1" x2="203.9" y2="403.1" href="#P"><stop stop-color="#9cfffb"/><stop offset="1" stop-color="#9bfffa"/></linearGradient><linearGradient id="g45" x1="610.4" y1="438.9" x2="693.6" y2="627.1" href="#P"><stop stop-color="#fdf53f"/><stop offset=".7" stop-color="#e57a58"/><stop offset="1" stop-color="#d93c65"/></linearGradient><linearGradient id="g46" x1="528.8" y1="474.9" x2="612" y2="663.2" href="#P"><stop stop-color="#fdf53f"/><stop offset=".7" stop-color="#e57a58"/><stop offset="1" stop-color="#d93c65"/></linearGradient><linearGradient id="g47" x1="696.7" y1="528" x2="682.2" y2="458.4" href="#P"><stop stop-color="#fdf53f"/><stop offset=".7" stop-color="#e57a58"/><stop offset="1" stop-color="#d93c65"/></linearGradient><linearGradient id="g48" x1="525.2" y1="553" x2="472.8" y2="553" href="#P"><stop stop-color="#cb236d"/><stop offset="1" stop-color="#4c246d"/></linearGradient><linearGradient id="g49" x1="456.7" y1="460.6" x2="471" y2="559.1" href="#P"><stop stop-color="#2b3582"/><stop offset="1" stop-color="#150e42"/></linearGradient><linearGradient id="g50" x1="522.6" y1="533.1" x2="508.3" y2="533.1" href="#P"><stop stop-color="#f9b776"/><stop offset="1" stop-color="#f47960"/></linearGradient><linearGradient id="g51" x1="442.5" y1="527.9" x2="400.4" y2="527.9" href="#P"><stop stop-color="#cb236d"/><stop offset="1" stop-color="#4c246d"/></linearGradient><linearGradient id="g52" x1="390.4" y1="472.8" x2="404.2" y2="568.5" href="#P"><stop stop-color="#2b3582"/><stop offset="1" stop-color="#150e42"/></linearGradient><linearGradient id="g53" x1="601.4" y1="411.4" x2="497.9" y2="411.4" href="#P"><stop stop-color="#2b3582"/><stop offset="1" stop-color="#150e42"/></linearGradient><linearGradient id="g54" x1="455" y1="530.6" x2="438" y2="530.6" href="#P"><stop stop-color="#f9b776"/><stop offset="1" stop-color="#f47960"/></linearGradient><linearGradient id="g55" x1="413.7" y1="504.8" x2="537.3" y2="644.9" href="#P"><stop stop-color="#2b3582"/><stop offset="1" stop-color="#150e42"/></linearGradient><linearGradient id="g56" x1="528.1" y1="325" x2="635" y2="504" href="#P"><stop stop-color="#53d8ff"/><stop offset="1" stop-color="#3840f7"/></linearGradient><linearGradient id="g57" x1="598.3" y1="245.6" x2="567.8" y2="245.6" href="#P"><stop stop-color="#f9b776"/><stop offset="1" stop-color="#f47960"/></linearGradient><linearGradient id="g58" x1="538.5" y1="242.1" x2="557" y2="303.8" href="#P"><stop stop-color="#f9b776"/><stop offset="1" stop-color="#f47960"/></linearGradient><linearGradient id="g59" x1="593.5" y1="222.9" x2="547.8" y2="205.9" href="#P"><stop stop-color="#2b3582"/><stop offset="1" stop-color="#150e42"/></linearGradient><linearGradient id="g60" x1="604.3" y1="284" x2="588.5" y2="248.2" href="#P"><stop stop-color="#f9b776"/><stop offset="1" stop-color="#f47960"/></linearGradient><linearGradient id="g61" x1="505.6" y1="350.5" x2="663.4" y2="492.2" href="#P"><stop stop-color="#53d8ff"/><stop offset="1" stop-color="#3840f7"/></linearGradient><linearGradient id="g62" x1="657.5" y1="362.5" x2="578.3" y2="313.2" href="#P"><stop stop-color="#53d8ff"/><stop offset="1" stop-color="#3840f7"/></linearGradient><linearGradient id="g63" x1="661.5" y1="357.3" x2="581.9" y2="307.7" href="#P"><stop stop-color="#53d8ff"/><stop offset="1" stop-color="#3840f7"/></linearGradient><linearGradient id="g64" x1="503" y1="377.7" x2="561.4" y2="428.6" href="#P"><stop stop-color="#f9b776"/><stop offset="1" stop-color="#f47960"/></linearGradient><linearGradient id="g65" x1="229.1" y1="769.4" x2="742.7" y2="1102.4" href="#P"><stop stop-color="#53d8ff"/><stop offset="1" stop-color="#3840f7"/></linearGradient><linearGradient id="g66" x1="824.4" y1="591.9" x2="412.8" y2="1039" href="#P"><stop stop-color="#fdf53f"/><stop offset="1" stop-color="#d93c65"/></linearGradient><linearGradient id="g67" x1="707.4" y1="519.4" x2="704.1" y2="654.4" href="#P"><stop stop-color="#53d8ff"/><stop offset="1" stop-color="#3840f7"/></linearGradient><linearGradient id="g68" x1="846.7" y1="687.5" x2="813.1" y2="687.5" href="#P"><stop stop-color="#2b3582"/><stop offset="1" stop-color="#150e42"/></linearGradient><linearGradient id="g69" x1="846.6" y1="697.9" x2="813.5" y2="697.9" href="#P"><stop stop-color="#53d8ff"/><stop offset="1" stop-color="#3840f7"/></linearGradient><linearGradient id="g70" x1="905.6" y1="687.9" x2="890" y2="687.9" href="#P"><stop stop-color="#2b3582"/><stop offset="1" stop-color="#150e42"/></linearGradient><linearGradient id="g71" x1="905.6" y1="700.7" x2="890.4" y2="700.7" href="#P"><stop stop-color="#53d8ff"/><stop offset="1" stop-color="#3840f7"/></linearGradient><linearGradient id="g72" x1="898.9" y1="674.7" x2="888.8" y2="674.7" href="#P"><stop stop-color="#f9b776"/><stop offset="1" stop-color="#f47960"/></linearGradient><linearGradient id="g73" x1="844.6" y1="676.3" x2="836.5" y2="676.3" href="#P"><stop stop-color="#f9b776"/><stop offset="1" stop-color="#f47960"/></linearGradient><linearGradient id="g74" x1="744.7" y1="591.6" x2="908.6" y2="760.6" href="#P"><stop stop-color="#cb236d"/><stop offset="1" stop-color="#4c246d"/></linearGradient><linearGradient id="g75" x1="821.7" y1="556.3" x2="856.2" y2="600.9" href="#P"><stop stop-color="#cb236d"/><stop offset="1" stop-color="#4c246d"/></linearGradient><linearGradient id="g76" x1="337.5" y1="944" x2="283.5" y2="1002.7" href="#P"><stop stop-color="#53d8ff"/><stop offset="1" stop-color="#3840f7"/></linearGradient><linearGradient id="g77" x1="838.3" y1="468.9" x2="837" y2="445.2" href="#P"><stop stop-color="#f9b776"/><stop offset="1" stop-color="#f47960"/></linearGradient><linearGradient id="g78" x1="807.8" y1="442.4" x2="830.6" y2="464.1" href="#P"><stop stop-color="#f9b776"/><stop offset="1" stop-color="#f47960"/></linearGradient><linearGradient id="g79" x1="823.7" y1="400.5" x2="797.5" y2="427.6" href="#P"><stop stop-color="#2b3582"/><stop offset="1" stop-color="#150e42"/></linearGradient><linearGradient id="g80" x1="821.2" y1="433" x2="839.8" y2="450.7" href="#P"><stop stop-color="#f9b776"/><stop offset="1" stop-color="#f47960"/></linearGradient><linearGradient id="g81" x1="809.2" y1="401" x2="1001.2" y2="614.1" href="#P"><stop stop-color="#fdf53f"/><stop offset="1" stop-color="#d93c65"/></linearGradient><linearGradient id="g82" x1="916" y1="470.3" x2="900.5" y2="607.3" href="#P"><stop stop-color="#53d8ff"/><stop offset="1" stop-color="#3840f7"/></linearGradient><linearGradient id="g83" x1="910.3" y1="507.3" x2="894.6" y2="621" href="#P"><stop stop-color="#53d8ff"/><stop offset="1" stop-color="#3840f7"/></linearGradient><linearGradient id="g84" x1="910" y1="586.8" x2="783.2" y2="728.6" href="#P"><stop stop-color="#fdf53f"/><stop offset="1" stop-color="#d93c65"/></linearGradient><linearGradient id="g85" x1="819.5" y1="507.7" x2="698.2" y2="643.2" href="#P"><stop stop-color="#fdf53f"/><stop offset="1" stop-color="#d93c65"/></linearGradient><linearGradient id="g86" x1="368.6" y1="989.1" x2="312.4" y2="1050.1" href="#P"><stop stop-color="#53d8ff"/><stop offset="1" stop-color="#3840f7"/></linearGradient><linearGradient id="g87" x1="886" y1="517.2" x2="867.4" y2="515.2" href="#P"><stop stop-color="#f9b776"/><stop offset="1" stop-color="#f47960"/></linearGradient><linearGradient id="g88" x1="1020.7" y1="687.5" x2="987.1" y2="687.5" href="#P"><stop stop-color="#2b3582"/><stop offset="1" stop-color="#150e42"/></linearGradient><linearGradient id="g89" x1="1020.6" y1="697.9" x2="987.5" y2="697.9" href="#P"><stop stop-color="#53d8ff"/><stop offset="1" stop-color="#3840f7"/></linearGradient><linearGradient id="g90" x1="1079.6" y1="687.9" x2="1064" y2="687.9" href="#P"><stop stop-color="#2b3582"/><stop offset="1" stop-color="#150e42"/></linearGradient><linearGradient id="g91" x1="1079.6" y1="700.7" x2="1064.4" y2="700.7" href="#P"><stop stop-color="#53d8ff"/><stop offset="1" stop-color="#3840f7"/></linearGradient><linearGradient id="g92" x1="1072.9" y1="674.7" x2="1062.8" y2="674.7" href="#P"><stop stop-color="#f9b776"/><stop offset="1" stop-color="#f47960"/></linearGradient><linearGradient id="g93" x1="1018.6" y1="676.3" x2="1010.5" y2="676.3" href="#P"><stop stop-color="#f9b776"/><stop offset="1" stop-color="#f47960"/></linearGradient><linearGradient id="g94" x1="918.7" y1="591.6" x2="1082.6" y2="760.6" href="#P"><stop stop-color="#2b3582"/><stop offset="1" stop-color="#150e42"/></linearGradient><linearGradient id="g95" x1="995.7" y1="556.3" x2="1030.2" y2="600.9" href="#P"><stop stop-color="#cb236d"/><stop offset="1" stop-color="#4c246d"/></linearGradient><linearGradient id="g96" x1="265.4" y1="773.6" x2="407.7" y2="722.5" href="#P"><stop stop-color="#fdf53f"/><stop offset="1" stop-color="#d93c65"/></linearGradient><linearGradient id="g97" x1="1012.3" y1="468.9" x2="1011" y2="445.2" href="#P"><stop stop-color="#f9b776"/><stop offset="1" stop-color="#f47960"/></linearGradient><linearGradient id="g98" x1="983.2" y1="401" x2="1175.2" y2="614.1" href="#P"><stop stop-color="#fdf53f"/><stop offset="1" stop-color="#d93c65"/></linearGradient><linearGradient id="g99" x1="1090" y1="470.3" x2="1074.5" y2="607.3" href="#P"><stop stop-color="#53d8ff"/><stop offset="1" stop-color="#3840f7"/></linearGradient><linearGradient id="g100" x1="1084.3" y1="507.3" x2="1068.6" y2="621" href="#P"><stop stop-color="#53d8ff"/><stop offset="1" stop-color="#3840f7"/></linearGradient><linearGradient id="g101" x1="1087.5" y1="576.7" x2="1016.6" y2="685.2" href="#P"><stop stop-color="#fdf53f"/><stop offset="1" stop-color="#d93c65"/></linearGradient><linearGradient id="g102" x1="989.1" y1="512.9" x2="921.3" y2="616.7" href="#P"><stop stop-color="#fdf53f"/><stop offset="1" stop-color="#d93c65"/></linearGradient><linearGradient id="g103" x1="273.2" y1="804.9" x2="415.5" y2="753.8" href="#P"><stop stop-color="#fdf53f"/><stop offset="1" stop-color="#d93c65"/></linearGradient><linearGradient id="g104" x1="1060" y1="517.2" x2="1041.4" y2="515.2" href="#P"><stop stop-color="#f9b776"/><stop offset="1" stop-color="#f47960"/></linearGradient><linearGradient id="g105" x1="997.3" y1="451.2" x2="1019.7" y2="431.7" href="#P"><stop stop-color="#f9b776"/><stop offset="1" stop-color="#f47960"/></linearGradient><linearGradient id="g106" x1="1000.3" y1="387.9" x2="973.1" y2="417.9" href="#P"><stop stop-color="#2b3582"/><stop offset="1" stop-color="#150e42"/></linearGradient><linearGradient id="g107" x1="998.5" y1="448.7" x2="1017.4" y2="432.4" href="#P"><stop stop-color="#f9b776"/><stop offset="1" stop-color="#f47960"/></linearGradient></defs><style>.a{opacity:.5;fill:url(#g1)}.b{opacity:.3;fill:url(#g2)}.c{opacity:.5;fill:url(#g3)}.d{opacity:.5;fill:url(#g4)}.e{fill:url(#g5)}.f{opacity:.9;fill:#fff}.g{fill:url(#g6)}.h{fill:url(#g7)}.i{fill:#fff}.j{fill:url(#g8)}.k{opacity:.6;fill:#fff}.l{opacity:.8;fill:#fff}.m{fill:url(#g9)}.n{fill:url(#g10)}.o{fill:url(#g11)}.p{fill:url(#g12)}.q{fill:url(#g13)}.r{fill:url(#g14)}.s{fill:url(#g15)}.t{fill:url(#g16)}.u{fill:url(#g17)}.v{fill:url(#g18)}.w{fill:url(#g19)}.x{opacity:.5;fill:#fff}.y{fill:url(#g20)}.z{opacity:.4;fill:#fff}.A{fill:url(#g21)}.B{fill:url(#g22)}.C{fill:url(#g23)}.D{fill:url(#g24)}.E{fill:url(#g25)}.F{fill:url(#g26)}.G{fill:url(#g27)}.H{fill:url(#g28)}.I{fill:url(#g29)}.J{fill:url(#g30)}.K{fill:url(#g31)}.L{fill:url(#g32)}.M{fill:url(#g33)}.N{fill:url(#g34)}.O{fill:url(#g35)}.P{fill:url(#g36)}.Q{fill:url(#g37)}.R{fill:url(#g38)}.S{fill:url(#g39)}.T{fill:url(#g40)}.U{fill:url(#g41)}.V{fill:url(#g42)}.W{fill:url(#g43)}.X{fill:url(#g44)}.Y{fill:url(#g45)}.Z{fill:url(#g46)}.a0{fill:url(#g47)}.a1{fill:url(#g48)}.a2{fill:url(#g49)}.a3{fill:url(#g50)}.a4{fill:url(#g51)}.a5{fill:url(#g52)}.a6{fill:url(#g53)}.a7{fill:url(#g54)}.a8{fill:url(#g55)}.a9{fill:url(#g56)}.aa{fill:url(#g57)}.ab{fill:url(#g58)}.ac{fill:url(#g59)}.ad{fill:url(#g60)}.ae{fill:url(#g61)}.af{fill:url(#g62)}.ag{fill:url(#g63)}.ah{fill:url(#g64)}.ai{fill:url(#g65)}.aj{fill:url(#g66)}.ak{fill:url(#g67)}.al{fill:url(#g68)}.am{fill:url(#g69)}.an{fill:url(#g70)}.ao{fill:url(#g71)}.ap{fill:url(#g72)}.aq{fill:url(#g73)}.ar{fill:url(#g74)}.as{fill:url(#g75)}.at{fill:url(#g76)}.au{fill:url(#g77)}.av{fill:url(#g78)}.aw{fill:url(#g79)}.ax{fill:url(#g80)}.ay{fill:url(#g81)}.az{fill:url(#g82)}.aA{fill:url(#g83)}.aB{fill:url(#g84)}.aC{fill:url(#g85)}.aD{fill:url(#g86)}.aE{fill:url(#g87)}.aF{fill:url(#g88)}.aG{fill:url(#g89)}.aH{fill:url(#g90)}.aI{fill:url(#g91)}.aJ{fill:url(#g92)}.aK{fill:url(#g93)}.aL{fill:url(#g94)}.aM{fill:url(#g95)}.aN{fill:url(#g96)}.aO{fill:url(#g97)}.aP{fill:url(#g98)}.aQ{fill:url(#g99)}.aR{fill:url(#g100)}.aS{fill:url(#g101)}.aT{fill:url(#g102)}.aU{fill:url(#g103)}.aV{fill:url(#g104)}.aW{fill:url(#g105)}.aX{fill:url(#g106)}.aY{fill:url(#g107)}</style><path class="a" d="m473.8 122.8c22 61.2 147.5 183.3 347.9 19.7 200.5-163.5 291.6 48.1 233.3 124.6-58.2 76.5-25.7 75 25.3 194.8 51 119.8-99 220.7-242.5 155.8-143.5-64.8-131-47.6-305.4 48.4-174.4 95.9-181.1-4.5-425.4-156-244.3-151.6-1.7-228 56.9-267.1 58.6-39.2-54.5-128.9 30.1-198.8 133.6-110.5 257.8 17.4 279.8 78.6z"/><path class="b" d="m756.2 73.8c57.8 67.2 258.6-7.5 256.4 116.5-2.4 145.1-199.7 187.7-135.8 289.7 63.8 102-6.7 216.3-263.4 214.2-256.8-2.2-669.7-130.2-570.3-269.2 99.5-139 33.3-146.1 28.4-207.6-4.9-61.4 45.5-196.2 244.3-83.8 198.8 112.4 293.9-230 440.4-59.8z"/><path class="c" d="m797.8 73.7c-10.3 33.9-107.5 59-151.6 63.2-34.5 3.3-15.9-29.9-4.1-27-0.4-23.1 26-36.3 32.2-24 4.7-57.7 49.3-41.5 52.2-33.6 25.4-28.8 48.2-8.5 50.7 9.1q30.8-21.5 20.6 12.3z"/><path class="d" d="m640.7 92.5c-5.5 18.2-57.9 31.7-81.7 34-18.6 1.8-8.6-16.1-2.2-14.5-0.2-12.5 14-19.6 17.3-13 2.6-31.1 26.6-22.4 28.2-18.1 13.7-15.5 26-4.6 27.3 4.9q16.6-11.6 11.1 6.7z"/><g style="opacity:.8"><path class="e" d="m87.4 75.5c58.7 35.7 392 257.1 240.5 607.2q-257-89.3-249.4-602.3c0.1-4.5 5-7.2 8.9-4.9z"/><path class="f" d="m113.3 139.6q19.3 26.6 46.7 67.7 5.2 7.7 10.7 16 5.4 8.4 11.2 17.3c3.9 6 7.8 12 11.8 18.3q3 4.7 6 9.5 3 4.8 6.1 9.8c8.2 13 16.5 26.7 24.9 40.5q6.2 10.5 12.4 21.1c4.1 7.1 8.3 14.2 12.4 21.4 4 7.1 8.1 14.3 12 21.5q3 5.4 6 10.7c1.9 3.6 3.8 7.2 5.7 10.8q2.9 5.3 5.7 10.6 2.8 5.4 5.6 10.7c3.7 7 7.1 14.1 10.6 21 6.9 13.8 13.3 27.3 19.1 40.2 5.8 12.9 11.1 25.2 15.7 36.7 2.4 5.7 4.4 11.3 6.4 16.5q1.5 4 2.9 7.8c0.9 2.5 1.8 4.9 2.6 7.3 1.6 4.8 3.2 9.2 4.5 13.3q1.9 6.3 3.5 11.5 0.8 2.6 1.5 4.9 0.7 2.3 1.2 4.3 1.1 4.1 1.8 6.9 1 3.8 1.6 5.8c0.3 1.1-0.4 2.1-1.4 2.4-1.1 0.3-2.2-0.3-2.5-1.4v-0.1q-0.5-2-1.5-5.7-0.7-2.8-1.8-6.8-0.5-2-1.1-4.3-0.7-2.3-1.5-4.9-1.6-5.2-3.4-11.4c-1.3-4.1-2.9-8.5-4.5-13.3-0.8-2.3-1.6-4.8-2.5-7.3q-1.4-3.7-2.9-7.7c-1.9-5.2-3.9-10.8-6.3-16.4-4.5-11.5-9.7-23.8-15.5-36.7-5.7-12.9-12-26.4-18.8-40.2-3.5-6.9-6.9-13.9-10.6-21q-2.7-5.3-5.4-10.6-2.8-5.3-5.7-10.7c-1.9-3.6-3.7-7.2-5.7-10.7q-2.9-5.4-5.9-10.8c-3.8-7.2-7.9-14.4-11.9-21.5-4-7.2-8.2-14.3-12.2-21.4q-6.2-10.6-12.4-21.1c-8.3-13.9-16.5-27.6-24.6-40.7q-3.1-4.9-6.1-9.7-3-4.8-6-9.5c-3.9-6.3-7.8-12.4-11.6-18.4q-5.8-8.9-11.2-17.3-5.5-8.3-10.6-16.1c-6.8-10.3-13.1-19.7-18.7-27.9-5.6-8.3-10.6-15.5-14.7-21.5q-8.2-11.8-13-18.5c-0.3-0.3-0.2-0.9 0.2-1.1 0.4-0.3 0.9-0.2 1.2 0.2z"/></g><g style="opacity:.4"><path class="g" d="m403 125.1c35.6 45.4 232.2 318.2 9.3 548.6q-175.6-146.3-17.7-547.4c1.4-3.5 6.1-4.1 8.4-1.2z"/><path class="f" d="m404.6 183.1q7.3 26.7 16.7 67.1c2.4 10.1 4.8 21 7.4 32.7 2.5 11.6 5.1 23.8 7.6 36.5 2.6 12.7 5.1 25.9 7.6 39.3q1.8 10.1 3.6 20.3c1.1 6.8 2.3 13.6 3.3 20.4 1.1 6.8 2.2 13.7 3.2 20.5q0.7 5.1 1.4 10.2 0.7 5.1 1.4 10.2 0.7 5 1.3 10 0.6 5.1 1.2 10c0.9 6.7 1.5 13.2 2.2 19.7 1.3 12.9 2.3 25.4 3.1 37.3 0.8 11.9 1.3 23.1 1.5 33.5 0.2 5.2 0.2 10.2 0.2 14.9q0 3.6 0 6.9c0 2.3-0.1 4.5-0.2 6.6-0.1 4.2-0.2 8.2-0.4 11.8q-0.3 5.5-0.6 10.1-0.1 2.2-0.3 4.3-0.2 2-0.3 3.7-0.4 3.6-0.6 6-0.3 3.3-0.5 5c-0.1 1.1-1.1 1.9-2.2 1.8-1.1-0.1-1.9-1.1-1.8-2.2v-0.1q0.2-1.7 0.5-4.9 0.3-2.4 0.6-5.9 0.2-1.8 0.4-3.8 0.2-2 0.3-4.2 0.3-4.5 0.7-10c0.2-3.6 0.3-7.5 0.4-11.7 0.1-2.1 0.2-4.3 0.2-6.5q0-3.4 0.1-6.9c0-4.7 0-9.7-0.1-14.8-0.2-10.4-0.6-21.6-1.3-33.4-0.8-11.8-1.7-24.3-3-37.2-0.6-6.4-1.2-13-2-19.6q-0.6-5-1.2-10-0.6-5-1.2-10-0.7-5.1-1.3-10.2-0.7-5.1-1.5-10.2c-0.9-6.8-2-13.6-3-20.5-1-6.8-2.2-13.6-3.2-20.4q-1.8-10.2-3.5-20.2c-2.4-13.4-4.8-26.6-7.3-39.3-2.5-12.7-5.1-25-7.5-36.6-2.5-11.6-4.9-22.6-7.2-32.7q-9.2-40.4-16.4-67.1c-0.1-0.4 0.2-0.9 0.6-1 0.5-0.1 0.9 0.1 1.1 0.6z"/></g><path class="h" d="m1060.8 192.9v481.9c0 13.4-11 24.2-24.4 23.9l-378.5-6.9c-14.3-0.2-25.5-12.2-24.7-26.5l24.3-478.8c1-18.2 16-32.4 34.2-32.4h330.2c21.5 0 38.9 17.4 38.9 38.8z"/><path class="i" d="m980.2 689.7c0-0.5 0.4-0.9 0.9-0.9l42.3-0.6c13.2-0.2 23.9-11 23.9-24.2v-63.9c0-0.5 0.4-0.9 0.9-0.9 0.5 0 0.9 0.4 0.9 0.9v63.9c0 14.2-11.5 25.8-25.7 26l-42.3 0.6q0 0 0 0c-0.5 0-0.9-0.4-0.9-0.9z"/><path class="i" d="m1047.3 580.3v-10.4c0-0.5 0.4-0.9 0.9-0.9 0.5 0 0.9 0.4 0.9 0.9v10.4c0 0.5-0.4 0.9-0.9 0.9-0.5 0-0.9-0.4-0.9-0.9z"/><path class="j" d="m1033.7 166.9l-3 505.1c0 4.8-3.6 8.9-8.5 9.4-79.2 8.3-301.3-4-355.2-7.2-6.6-0.4-11.6-6-11.3-12.6l25.6-481c0.3-5.8 5.4-10.2 11.2-9.8 128.3 9.8 283.3-9.1 328.4-15.2 6.8-0.9 12.9 4.4 12.8 11.3z"/><path class="k" d="m1028.4 178.9l-2.9 486.1c0 4.7-3.5 8.6-8.1 9.1-76.3 8-290-3.9-341.9-7-6.3-0.3-11.2-5.8-10.8-12.1l24.6-462.8c0.3-5.7 5.1-9.9 10.8-9.5 123.4 9.5 272.6-8.7 316-14.6 6.5-0.9 12.3 4.2 12.3 10.8z"/><path class="l" d="m988.2 214.6l-4.6 99.2c-0.1 3.3-2.8 5.9-6.1 6-18.4 0.6-75.6 2-108 0.3-3.6-0.2-6.5-3.2-6.6-6.8-0.7-18.7-2-72.8 2.2-95.4 0.7-3.7 3.9-6.4 7.6-6.5l108.6-3.8c3.9-0.2 7.1 3.1 6.9 7z"/><circle class="m" cx="925.7" cy="250.1" r="21.3"/><path class="n" d="m958.1 312.7h-67.9c-4.2 0-6.7-4.6-4.4-8.1 5.7-9 17.8-22.3 38.7-21.7 20.2 0.6 32.1 12.5 38.1 21.1 2.6 3.7 0 8.7-4.5 8.7z"/><g style="opacity:.6"><path class="i" d="m716.6 223.2c-2.2 0-3.9-1.5-3.9-3.3 0.1-1.8 1.9-3.4 4.1-3.4l118.9-2.1c2.2 0 3.4 1.6 2.6 3.7l-0.5 1.4c-0.7 2-3.1 3.7-5.3 3.7z"/></g><g style="opacity:.6"><path class="i" d="m835.7 232.9c2.2-0.1 3.4 1.6 2.6 3.7l-0.5 1.4c-0.7 2-3.1 3.7-5.3 3.7h-115.9c-2.2 0-3.9-1.5-3.9-3.3 0.1-1.8 1.9-3.4 4.1-3.4z"/></g><g style="opacity:.6"><path class="i" d="m835.7 251.7c2.2-0.1 3.4 1.6 2.6 3.7l-0.5 1.3c-0.7 2.1-3.1 3.8-5.3 3.8h-115.9c-2.2 0-3.9-1.5-3.9-3.3 0.1-1.9 1.9-3.4 4.1-3.4z"/></g><path class="o" d="m763.4 274.7l-3 32.9c-0.4 4.3-4 7.6-8.3 7.6l-34.9 0.4c-4.2 0.1-7.6-3.3-7.7-7.5-0.4-13.9 2.2-27.1 4-34.6 0.9-3.9 4.5-6.6 8.5-6.6 9.4 0.1 26.6 0.5 35.8 1.2 3.4 0.2 6 3.2 5.6 6.6z"/><path class="p" d="m779.7 284.8c-2.2 0-4-1.5-3.9-3.3 0-1.9 1.8-3.4 4-3.5l54.7-2c2.2-0.1 3.7 1.6 3.3 3.8l-0.2 1.1c-0.3 2.1-2.4 3.9-4.6 3.9z"/><path class="q" d="m834.7 297.8c2.2 0 3.6 1.7 3.1 3.9l-0.2 1c-0.4 2.2-2.6 3.9-4.8 3.8l-53.2-2c-2.2 0-3.9-1.6-3.8-3.4 0-1.9 1.9-3.3 4.1-3.3z"/><g style="opacity:.6"><path class="i" d="m705.1 351c-2.2 0-3.9-1.5-3.8-3.3 0.1-1.9 2-3.4 4.2-3.4l278.8-2.2c2.2 0 2.8 1.4 1.5 3.1l-2.1 2.7c-1.4 1.7-4.3 3.1-6.5 3.1z"/></g><g style="opacity:.6"><path class="i" d="m984.3 360.6c2.2 0 2.8 1.4 1.5 3.1l-2.1 2.7c-1.4 1.7-4.3 3.1-6.5 3.1h-272.1c-2.2 0-3.9-1.5-3.8-3.3 0.1-1.9 2-3.4 4.2-3.4z"/></g><path class="r" d="m989.8 396.4l-2.3 24c-0.3 3.1-2.9 5.5-6 5.5l-25.6 0.3c-3 0-5.5-2.4-5.6-5.4-0.2-10.2 1.6-19.8 3-25.4 0.7-2.8 3.2-4.8 6.2-4.8 6.9 0.1 19.4 0.4 26.2 0.9 2.4 0.2 4.3 2.4 4.1 4.9z"/><g style="opacity:.6"><path class="i" d="m938.3 401.4c2.2-0.1 3.8 1.6 3.4 3.7l-0.5 3.9c-0.4 2.2-2.4 4-4.6 4h-61.8c-2.2 0-3.9-1.8-3.9-4v-0.8c0-2.2 1.8-4.1 4-4.2z"/></g><path class="s" d="m850.7 396.4l-2.2 24c-0.3 3.1-2.9 5.5-6.1 5.5l-25.5 0.3c-3 0-5.5-2.4-5.6-5.4-0.2-10.2 1.6-19.8 2.9-25.4 0.7-2.8 3.3-4.8 6.2-4.8 6.9 0.1 19.5 0.4 26.2 0.9 2.5 0.2 4.3 2.4 4.1 4.9z"/><g style="opacity:.6"><path class="i" d="m799.3 401.4c2.2-0.1 3.7 1.6 3.4 3.7l-0.6 3.9c-0.3 2.2-2.4 4-4.6 4h-61.7c-2.2 0-4-1.8-3.9-4v-0.8c0-2.2 1.8-4.1 4-4.2z"/></g><g style="opacity:.6"><path class="i" d="m720 474.6c-2.2 0-3.9-1.5-3.8-3.3 0.1-1.9 2-3.4 4.2-3.4l270.8-2.2c2.2 0 2.9 1.4 1.5 3.1l-2 2.6c-1.3 1.8-4.2 3.2-6.4 3.2z"/></g><g style="opacity:.6"><path class="i" d="m991.2 484.2c2.2 0 2.9 1.4 1.5 3.1l-2 2.6c-1.3 1.8-4.2 3.2-6.4 3.2h-264.3c-2.2 0-3.9-1.5-3.8-3.3 0.1-1.9 2-3.4 4.2-3.4z"/></g><g style="opacity:.6"><path class="i" d="m991.2 503c2.2 0 2.9 1.4 1.5 3.1l-2 2.6c-1.3 1.7-4.2 3.2-6.4 3.2h-264.3c-2.2 0-3.9-1.5-3.8-3.4 0.1-1.8 2-3.3 4.2-3.3z"/></g><path fill-rule="evenodd" class="t" d="m836.3 88.8c12-8.3 22.3-8.1 29.6-6 6.7 2 11 8.4 10.4 15.3l-3.2 34.4-37.4 3.3q-22.8-30.7 0.6-47zm16.5 27.7c5.2 0 9.4-4.2 9.4-9.3 0-5.2-4.2-9.4-9.4-9.4-5.1 0-9.3 4.2-9.3 9.4 0 5.1 4.2 9.3 9.3 9.3z"/><path class="i" d="m869.3 118c-0.5 0-0.9-0.5-0.8-1l0.5-5.4c0-0.5 0.5-0.9 1-0.8 0.5 0 0.8 0.4 0.8 0.9l-0.5 5.5c0 0.5-0.4 0.8-0.9 0.8q0 0-0.1 0zm1-10.7c-0.5 0-0.9-0.5-0.8-1l0.4-4.1c0.5-5.8-3.1-11.1-8.6-12.7-4.2-1.3-8.5-1.4-12.8-0.5-0.5 0.1-1-0.3-1.1-0.7-0.1-0.5 0.2-1 0.7-1.1 4.6-1 9.2-0.8 13.7 0.5 6.3 1.9 10.5 8 9.9 14.6l-0.4 4.2c-0.1 0.5-0.5 0.8-0.9 0.8q-0.1 0-0.1 0z"/><path class="u" d="m783.4 157.2l0.9-16.6c0.4-5.3 4.6-9.5 9.9-9.6l119.2-4.1c5.9-0.2 10.9 4.6 10.9 10.5v17.3z"/><path class="i" d="m878.9 132.5c0-0.5 0.5-0.9 1-0.9h5.1c0.5 0 0.9 0.4 0.9 0.9 0 0.5-0.4 0.9-0.9 0.9h-5.1c-0.5 0-1-0.4-1-0.9z"/><path class="i" d="m916.9 148.4v-7c0-4.4-3.6-8-8-8h-18.8c-0.5 0-0.9-0.4-0.9-0.9 0-0.5 0.4-0.9 0.9-0.9h18.8c5.4 0 9.8 4.4 9.8 9.8v7c0 0.5-0.4 0.9-0.9 0.9-0.5 0-0.9-0.4-0.9-0.9z"/><path class="v" d="m972.8 159.1l0.5 9.5c0.2 4.9-3.7 9-8.6 9h-213.7c-8.3 0-14.5-7.4-13.1-15.4l0.2-1.1c1.3-7.3 7.7-12.7 15.2-12.7h208.3c6 0 10.9 4.7 11.2 10.7z"/><g style="opacity:.8"><path class="w" d="m85.5 645.1c-27.8-35.7-30.1-77.1-29.8-94 0-1.5 2.1-2.4 2.7-1.1 13.5 29.3 73 74.8 97.2 94.8q26.1 21.5 26.3 48.2-60.5-1.8-96.4-47.9z"/><path class="x" d="m67.7 578q0.1 0.6 0.4 1.7c0.3 1.1 0.7 2.8 1.4 4.8q0.5 1.5 1.3 3.4c0.4 1.2 1 2.5 1.6 3.8 0.5 1.4 1.3 2.8 2 4.3 0.7 1.5 1.6 3.1 2.5 4.7q1.4 2.3 3 4.9c1.1 1.6 2.2 3.3 3.4 5q1 1.3 2 2.5c0.6 0.9 1.2 1.8 2 2.6 1.4 1.7 2.8 3.4 4.4 5.1 1.6 1.6 3.2 3.4 4.8 5 1.8 1.6 3.5 3.3 5.3 4.9q2.7 2.3 5.5 4.6c1.9 1.5 3.9 3.1 5.9 4.6 3.9 3 7.8 5.9 11.7 8.8 4 2.9 7.8 5.7 11.6 8.4 3.8 2.7 7.5 5.2 10.9 7.7 3.5 2.5 6.8 4.8 9.8 7.1 3 2.2 5.6 4.4 7.9 6.4 1.2 1 2.2 2 3.2 2.9 0.9 0.9 1.8 1.8 2.5 2.6 1.5 1.6 2.6 3 3.2 4q0.7 0.9 1.1 1.4c0.1 0.3 0.1 0.6-0.2 0.7-0.2 0.2-0.5 0.1-0.6-0.1h-0.1q-0.4-0.5-1.1-1.3c-0.7-1-1.9-2.1-3.4-3.6-0.8-0.8-1.6-1.6-2.6-2.4-1-0.8-2.1-1.7-3.3-2.6-2.4-1.8-5.1-3.8-8.2-5.9-3-2.1-6.4-4.2-9.9-6.6-3.6-2.3-7.3-4.8-11.2-7.4-3.8-2.6-7.8-5.4-11.8-8.2-4-2.8-7.9-5.9-11.9-8.9-2-1.5-3.9-3-5.9-4.6q-2.8-2.4-5.6-4.8c-1.9-1.7-3.6-3.4-5.3-5.1-1.8-1.7-3.3-3.5-4.9-5.3-1.6-1.7-2.9-3.6-4.4-5.4-1.4-1.8-2.6-3.6-3.8-5.4-1.2-1.8-2.3-3.6-3.3-5.3q-1.5-2.7-2.8-5.2c-0.7-1.7-1.5-3.4-2.2-4.9-0.6-1.6-1.3-3.1-1.7-4.6-1-2.9-1.8-5.4-2.2-7.6-0.5-2.1-0.8-3.8-0.9-4.9q-0.2-1.2-0.2-1.8 0-0.1 0-0.1 0.1 0 0.1 0.1z"/></g><g style="opacity:.8"><path class="y" d="m90.2 391.1c0.5-2.4 4-2.6 4.7-0.1 6.6 23.5 26 84.6 55.7 117.1 48.3 52.7 80.5 138.5 49.7 183q-167.7-30.6-110.1-300z"/><path class="z" d="m95.8 424.7q0 0.2 0.1 0.7 0.1 0.7 0.4 2.1c0.3 1.9 0.9 4.6 1.6 8.1 0.7 3.4 1.6 7.6 2.7 12.4 1.1 4.8 2.5 10.2 3.9 16.1 1.5 5.9 3.1 12.3 4.9 19 1.8 6.7 3.9 13.7 6 21 2.2 7.3 4.5 14.8 7 22.3q1 2.8 1.9 5.7 1 2.8 2 5.7c1.3 3.8 2.7 7.6 4 11.4 1.4 3.8 2.9 7.5 4.3 11.3q2.2 5.6 4.4 11.2c1.6 3.6 3 7.3 4.6 10.9 1.6 3.5 3.1 7.1 4.7 10.5 3.2 6.9 6.4 13.4 9.6 19.6 3.1 6.2 6.3 11.9 9.3 17.2q2.3 3.9 4.4 7.5c1.5 2.3 2.9 4.5 4.2 6.6q1 1.5 1.9 3 1 1.4 1.9 2.7 1.8 2.7 3.3 4.9c2.1 2.8 3.8 5 4.9 6.6q1.1 1.5 1.7 2.3c0.2 0.3 0.1 0.6-0.1 0.7-0.2 0.2-0.5 0.2-0.7-0.1q-0.6-0.7-1.8-2.2c-1.2-1.5-3-3.7-5.1-6.5q-1.6-2.1-3.5-4.7-0.9-1.3-2-2.7-1-1.5-2-3c-1.4-2.1-2.9-4.2-4.4-6.5q-2.2-3.6-4.6-7.5c-3.1-5.2-6.5-10.9-9.7-17.1-3.4-6.1-6.6-12.7-9.9-19.6-1.6-3.4-3.1-7-4.8-10.6-1.6-3.5-3.1-7.2-4.6-10.9q-2.3-5.6-4.5-11.2c-1.5-3.8-2.9-7.6-4.3-11.4-1.4-3.8-2.7-7.6-4-11.5q-1-2.8-2-5.7-0.9-2.9-1.8-5.7c-2.5-7.6-4.8-15.1-6.9-22.4-2.1-7.3-4-14.4-5.7-21.2-1.8-6.7-3.3-13.2-4.7-19.1-2.7-11.8-4.6-21.8-5.8-28.8-0.7-3.5-1.1-6.2-1.4-8.1q-0.2-1.5-0.3-2.2-0.1-0.5-0.1-0.8c0-0.2 0.2-0.5 0.5-0.5 0.2 0 0.5 0.2 0.5 0.4z"/></g><g style="opacity:.9"><path class="A" d="m596.6 705.1q46.8-375.3 204.7-594.5c10.6-14.8 33.3-12 39.9 4.9 44.6 112.9 144.3 459.4-244.6 589.6z"/><path class="x" d="m816.1 221.7c0.2-0.8 1.5-0.6 1.4 0.2-23.4 274.9-151.6 425.5-185.5 457-1 0.9-2.3-0.4-1.5-1.3 126.2-153.5 174.5-391.5 185.6-455.9z"/></g><g style="opacity:.9"><path class="B" d="m845.3 622c-67.8 63-194.1 54.1-238.9 48.6-7.5-0.9-11.3-9.6-6.8-15.8 22.9-31 87.5-111.8 200.3-200.5 123.3-97.1 256.9-89.9 293.2-85.8 2.2 0.3 2.6 3.5 0.4 4.2-103.2 35.5-167.1 174-248.2 249.3z"/><path class="x" d="m975.7 410.8q-125 17.5-367.1 247.2 255.5-218 367.1-247.2z"/></g><path class="C" d="m505.5 229.3q-168.6-83.2-113.4-144.6c55.1-61.3 157.9-36.8 163.1 27.8 5.2 64.5-119.9 49.4-49.7 116.8z"/><path class="i" d="m404.6 100.6c0-1 0.8-1.7 1.7-1.7h74.4c0.9 0 1.7 0.7 1.7 1.7 0 0.9-0.8 1.7-1.7 1.7h-74.4c-0.9 0-1.7-0.8-1.7-1.7z"/><path class="i" d="m501.1 100.6c0-1 0.8-1.7 1.7-1.7h22.1c0.9 0 1.7 0.7 1.7 1.7 0 0.9-0.8 1.7-1.7 1.7h-22.1c-0.9 0-1.7-0.8-1.7-1.7z"/><path class="i" d="m402.1 115.6c0-0.9 0.8-1.7 1.7-1.7h27.9c1 0 1.7 0.8 1.7 1.7 0 1-0.7 1.7-1.7 1.7h-27.9c-0.9 0-1.7-0.7-1.7-1.7z"/><path class="i" d="m471 115.6c0-0.9 0.8-1.7 1.7-1.7h49.7c0.9 0 1.7 0.8 1.7 1.7 0 1-0.8 1.7-1.7 1.7h-49.7c-0.9 0-1.7-0.7-1.7-1.7z"/><path class="i" d="m399.6 130.7c0-0.9 0.8-1.7 1.7-1.7h74.3c0.9 0 1.7 0.8 1.7 1.7 0 0.9-0.8 1.7-1.7 1.7h-74.3c-0.9 0-1.7-0.8-1.7-1.7z"/><path class="i" d="m492.5 130.7c0-0.9 0.7-1.7 1.7-1.7h25.7c0.9 0 1.7 0.8 1.7 1.7 0 0.9-0.8 1.7-1.7 1.7h-25.7c-1 0-1.7-0.8-1.7-1.7z"/><path class="D" d="m365.3 390l27.7-67.3c0.6-1.3 1.8-2.1 3.2-2.1h17.1c2.5 0 4.2 2.6 3.1 4.9l-32.1 70.1c-0.7 1.5-2.3 2.3-3.9 2l-12.6-2.8c-2.1-0.5-3.3-2.8-2.5-4.8z"/><path class="E" d="m322.7 469.4h8.1v88.2h-8.1z"/><path class="F" d="m291 557.4c0-1.9 1.5-3.4 3.4-3.4h64.7c1.9 0 3.4 1.5 3.4 3.4v1.9h-71.5z"/><rect class="G" x="280.4" y="449.6" width="89.9" height="25.5" rx="8.8"></rect><path class="H" d="m387 410.5q12.1 1.9 25.8 11c2.1 1.4 3.3 3.9 3 6.5-1.7 12.9-8.4 54.8-30.5 95.7-1.2 2.2-1.5 4.7-1 7.1l3.8 17.9 7.2 6.7h-18.4l-12.2-33.2 5.2-1.6c4-1.3 6.8-5 6.9-9.3l0.6-35.5q-0.5-15.8 9.7-26.7l-29.3-1.5z"/><path class="I" d="m402.4 558.6c1.7 2.2-18 5.1-27.9 0.3q-13.8-24-13.8-36.4 1.1-2.5 9.2-1.9 4.6 28.4 9.5 31.6 4.9 3.2 13.7 0.3 6.9 2.8 9.3 6.1z"/><path class="J" d="m377.2 415.1l31.5 10.9q17.2 17 45.3 112.7l30 18c-14.5 3.4-29.2 2.5-44.2-2.7l4.8-15.3q-46.1-57-49.3-70.2-3.2-13.1-2.2-22.7-31.5 3.5-31.6 3.8z"/><path class="K" d="m368.6 400.6q8.2 3.2 39.8 14.5l-43.3 37q-50.7 0-69.7-0.8c-19.1-0.9-25.5-5.9-24-18.1q1.5-12.3 19.6-39.3 69.4 3.5 77.6 6.7z"/><path class="L" d="m477.4 555.6c1.5 0.1 2.2-1.8 1-2.7l-0.9-0.7q12.6 6 14.9 11.3-11.2 3.3-52.5-4-3.5-5.6 1.7-10.6c10.3 4.7 27.5 6.2 35.8 6.7z"/><path class="M" d="m295.8 385.8q0.8-11.2 21.5-38.7-12 13-24.1 33.4l-20.6-6.4q18.3-51.2 64.9-81.4 23.6-0.2 24.8 3.8c0.8 2.6 9.2 19.1 13.9 35.1 2.6 8.7 0.9 18.2-4.8 25.4q-10.3 13.3-31.4 33.4z"/><path class="N" d="m365.2 274.4c-0.3 0.9-6.5 21.3-7 21.7-0.4 0.5-13.5 1.2-19.6-3l10.4-21.9z"/><path class="O" d="m372.8 244.4q7.3 8 7.5 24c0.1 15.9-7.3 19.9-13.5 18-6.1-1.8-14.7-5.9-20-18.6-5.3-12.6 16.3-33.3 26-23.4z"/><path class="P" d="m354.9 263.7q-1.9-5.7-5.1-3.1-3.1 2.6-2 10.5-6.4 6.2-10.6-3.8c-4.2-9.9-2.7-20 8-31.8 10.7-11.8 28.1-9.3 36 0.5q7.9 9.8-3.2 17.5l-2.8-4.6q-17.1-7.6-19 14.8z"/><path class="Q" d="m350 269.3c-2.5-3.2-8.5-12.2-2.1-14q6.5-1.9 5.4 9.6z"/><path class="R" d="m367.6 398q-86 2.7-89.6 1.1c-1.8-0.7-4.6-2.6-7-4.3-2.7-1.9-3.8-5.4-2.7-8.5l4.3-12.2 27.6 8.6q0 0 12.3 3.3 12.2 3.3 33.5 0l21.4-9.1 15.5 15z"/><path class="S" d="m277.3 280.4c-5.2-1.2-8.4-3.1-10.2-5.2-2.5-2.8-0.3-7.1 3.5-7.1 5.8 0.1 16-9.7 34.2-30.5 16.2-18.4 32.1-13 41.4-6.9 2.9 1.9 2.6 6.3-0.7 7.6-18.8 7.2-27.7 50.9-68.2 42.1z"/><path class="T" d="m198.6 402.2c-0.2-1 0.1-2.1 0.8-2.9 0.7-0.8 1.8-1.3 2.9-1.3h375.1c1.5 0 2.8 0.7 3.6 1.9 0.8 1.1 0.9 2.6 0.3 3.8l-4.1 8.3c-0.9 1.9-2.9 3.1-5.1 3.1h-367.2c-2.1 0-3.9-1.4-4.3-3.3z"/><path class="U" d="m553.4 574l-69.1-164.3c-0.7-1.7 0.1-3.6 1.8-4.4 1.6-0.7 3.6 0.1 4.3 1.8l69 164.2c0.7 1.7 0 3.7-1.7 4.4q-0.6 0.3-1.3 0.3c-1.3 0-2.5-0.8-3-2z"/><path class="V" d="m477.3 575.7c-1.7-0.7-2.4-2.7-1.7-4.4l69-164.2c0.8-1.7 2.7-2.5 4.4-1.8 1.6 0.8 2.4 2.7 1.7 4.4l-69.1 164.3c-0.5 1.2-1.7 2-3 2q-0.6 0-1.3-0.3z"/><path class="W" d="m281.5 574l-69.1-164.3c-0.7-1.7 0.1-3.6 1.8-4.4 1.6-0.7 3.6 0.1 4.3 1.8l69 164.2c0.8 1.7 0 3.7-1.7 4.4q-0.6 0.3-1.3 0.3c-1.3 0-2.5-0.8-3-2z"/><path class="X" d="m205.4 575.7c-1.6-0.7-2.4-2.7-1.7-4.4l69.1-164.2c0.7-1.7 2.6-2.5 4.3-1.8 1.7 0.8 2.4 2.7 1.7 4.4l-69 164.3c-0.6 1.2-1.8 2-3.1 2q-0.6 0-1.3-0.3z"/><path class="Y" d="m660.1 444.7c2.5 3.6 12.1 84.7 13.6 114.7 0.1 2-1.5 3.7-3.6 3.7-1.7 0-3.2-1.3-3.5-3l-17.6-112.8z"/><path class="Z" d="m593.9 447.3l-17.6 112.8c-0.3 1.7-1.8 3-3.5 3-2.1 0-3.7-1.7-3.6-3.7 1.5-30 11.1-111.1 13.6-114.7z"/><path class="a0" d="m674.7 438.4v0.8c0.1 6.4-5.4 11.6-12.3 11.7l-81.3 1.4c-6.8 0.1-12.4-4.7-12.8-11v-0.8c-0.4-6.5 5.2-12.1 12.2-12.2l81.4-1.4c7-0.2 12.7 5 12.8 11.5z"/><path class="a1" d="m504 557.1c12.9 0 18.7-1.1 21.2-2.1-0.5 2.1-2.4 3.8-4.8 3.8h-45.7c-1.5 0-2.5-1.5-2.1-2.8 5.2 0.4 16.3 1.1 31.4 1.1z"/><path class="a2" d="m472.6 556q0.1-0.4 0.4-0.8c3.4-4.4 10.4-11.4 20-11.3 13.9 0.2 18.7 1.7 29.6 0.1l2.5 8.5c0.3 0.8 0.3 1.7 0.1 2.5-2.5 1-8.3 2.1-21.2 2.1-15.1 0-26.2-0.7-31.4-1.1z"/><path class="a3" d="m519.4 534.9l3.2 10.6q-7 3.2-13.1 0.7l-1.2-9.3z"/><path class="a4" d="m424.7 550.4c10.1 8.1 15.2 10.8 17.8 11.6-1.7 1.4-4.2 1.5-6 0l-35.7-28.6c-1.2-1-1-2.8 0.1-3.6 3.8 3.6 12 11.1 23.8 20.6z"/><path class="a5" d="m400.9 529.8q0.3-0.2 0.8-0.3c5.5-1.3 15.3-2.3 22.6 3.7 10.7 8.9 13.6 13.1 23.1 18.6l-3.3 8.2c-0.4 0.9-0.9 1.5-1.6 2-2.6-0.8-7.7-3.5-17.8-11.6-11.8-9.5-20-17-23.8-20.6z"/><path class="a6" d="m601.4 430.7l-83.7 13.7q-7.4 16.7 2.5 94-9.6 3-13.9 0.9-28.9-104.7-13-112.2 15.9-7.5 93.2-13.8z"/><path class="a7" d="m455 537.1q-0.7 0.7-7.6 14.7-7.8-1.6-9.4-6.5l7-12.7z"/><path class="a8" d="m633.1 412.7q2.6 6.1 2.5 14.1c-0.2 11.2-9.2 20.2-20.3 20.8l-91.4 4.1c-2 0.1-3.6 1.5-4.1 3.3-2.1 8.3-12.6 33.9-64 84.8-1.4 1.4-3.5 1.6-5.1 0.6l-7.3-4.7c-0.8-0.4-1-1.4-0.6-2.2l53.3-91c2.8-4.6 7.3-7.9 12.5-9.2l77.9-20z"/><path class="a9" d="m580.4 413.1c-2.6-10.8-8.6-32.6-16.2-53.7-4.5-12.7-6-38.7 0-50.7l10.9-18.8 21.2-8.6 4.2 3.3c12.7 10 21.4 24.1 24.7 39.8q9.1 42.7 8.2 88-17.9 5.3-53 0.7z"/><path class="aa" d="m581.7 247.5l16.6 38.4q-5.3 11.9-23.9 7.3l-6.6-26.5z"/><path class="ab" d="m575.6 232.4l-5.7 35.8-21.6 0.2q0.4-37.9 0.6-38.4 3.3-9 26.7 2.4z"/><path class="ac" d="m568.5 237.1c-1.9-1.8-6.3-5.2-10.5-3.7-5.7 1.9-16.1 2-17.2-4.5-1.2-6.5 2.1-16.5 11.7-16.1 5.4 0.2 7.4 3.6 8.1 6.5 0.3 1.5 1.9 2.4 3.4 1.9 1.1-0.4 1.8-0.1 2.3 0.4 1 0.9 2.4 1.1 3.5 0.3 2.6-1.8 7.2-3.8 12-0.3 4.7 3.5 3.4 7.7 1.8 10.3-0.8 1.2-0.4 2.9 0.9 3.7 6.3 3.7 3.8 8.7 2.4 10.9-0.4 0.6-1 1-1.7 1.1-2.2 0.4-7.3 1.6-8.5 5.3-1.3 3.9-3.9 18.2-4.7 22.9-0.2 1-0.8 1.8-1.8 2.1-6.8 2.4-15.6 3.2-19.7 3.5-1.4 0.1-2.7-0.8-2.9-2.2-1.1-6.7-1.1-14.5-1.1-17.9 0-1.4 1.1-2.5 2.5-2.6 3-0.3 7 1.7 11.2 4 4.7 2.5 6.9-2.3 7.4-3.7q0.1-0.3 0.1-0.7l1.6-19.1c0.1-0.8-0.2-1.6-0.8-2.1z"/><path class="ad" d="m576 259.8q-1.5-11.4 3-13.2c4.5-1.8 10 0.8 7 8.3q-3.6 9.2-10 4.9z"/><path class="ae" d="m530.7 376c54.6 17.1 51.7-59.7 52-60.2 21.7-33.1 33.8 11 31.7 17.2-19.2 69.5-67.5 66-86.4 52.4 2.4-3.7 2.9-6.9 2.7-9.4z"/><path class="af" d="m571.4 364c-0.7-0.4-0.8-1.3-0.4-1.9 8.3-13 10.2-32 10.6-42.2 0.1-0.7 0.7-1.3 1.5-1.3 0.7 0 1.3 0.7 1.3 1.4-0.5 12.8-2.8 30.7-11.1 43.6q-0.3 0.4-0.8 0.6c-0.3 0.1-0.8 0-1.1-0.2z"/><path class="ag" d="m586.3 381.2c-0.5-0.6-0.4-1.5 0.2-2 12-10.1 21.1-26 27-47.4 0.2-0.7 1-1.2 1.7-1 0.8 0.2 1.2 1 1 1.7-6.1 22-15.5 38.4-27.9 48.9q-0.3 0.1-0.5 0.2c-0.5 0.2-1.1 0-1.5-0.4z"/><path class="ah" d="m498.6 360q0.9 1.4 7.3 6.3c6.3 5 12.8 7.8 7.9 1-4.9-6.8-2.5-10.3 3.1-2.9q5.5 7.3 9.5 10.1 2.2 0.9 4.3 1.5c0.2 2.5-0.3 5.7-2.7 9.4q-2.2-0.7-3.5-1.3-16.9-3.1-20.5-10.3-3.6-7.2-5.4-13.8z"/><path class="ai" d="m113.2 634.6h590.4v57.3h-590.4c6.1 0 6.1-57.3 0-57.3z"/><path class="aj" d="m703.6 677.6v-26.3c0-9.2-5.7-16.7-12.7-16.7h-576.5c-5.5 0-10-4.5-10-10 0-1.6 1.4-3 3.1-3h601.8c6.9 0 17.7 10.8 17.7 24v36.7c0 12.4-10.5 22.6-17 22.6h-601c-2.5 0-4.6-2.1-4.6-4.6 0-4.6 3.8-8.4 8.4-8.4h579.9c6 0 10.9-6.4 10.9-14.3z"/><path class="i" d="m695.6 647.3h-572.5c-0.6 0-1-0.4-1-1 0-0.5 0.4-1 1-1h572.5c0.6 0 1 0.5 1 1 0 0.6-0.4 1-1 1z"/><path class="i" d="m695.6 655.9h-572.5c-0.6 0-1-0.5-1-1 0-0.6 0.4-1 1-1h572.5c0.6 0 1 0.4 1 1 0 0.5-0.4 1-1 1z"/><path class="i" d="m695.6 664.4h-572.5c-0.6 0-1-0.5-1-1 0-0.6 0.4-1 1-1h572.5c0.6 0 1 0.4 1 1 0 0.5-0.4 1-1 1z"/><path class="i" d="m695.6 672.9h-572.5c-0.6 0-1-0.5-1-1 0-0.6 0.4-1 1-1h572.5c0.6 0 1 0.4 1 1 0 0.5-0.4 1-1 1z"/><path class="i" d="m695.6 681.4h-572.5c-0.6 0-1-0.5-1-1 0-0.6 0.4-1 1-1h572.5c0.6 0 1 0.4 1 1 0 0.5-0.4 1-1 1z"/><rect class="ak" x="141.5" y="559.2" width="561.7" height="62.2" rx="20.1"></rect><rect class="k" x="643.8" y="566.3" width="30.3" height="47.9" rx="7.2"></rect><rect class="k" x="627.9" y="566.3" width="11.4" height="47.9" rx="3.7"></rect><path class="i" d="m301.8 670.9c-1.2 0-2.2-1-2.3-2.3 0-1.2 1.1-2.3 2.3-2.3q1.5 0 3 0c1.3 0 2.3 1 2.3 2.2 0.1 1.3-1 2.4-2.2 2.4q-1.5 0-3 0-0.1 0-0.1 0zm-7 0q0 0 0 0-1.5 0-3-0.1c-1.3 0-2.3-1.1-2.2-2.3 0-1.3 1-2.4 2.3-2.3q1.5 0.1 3 0.1c1.2 0 2.3 1.1 2.2 2.3 0 1.3-1 2.3-2.3 2.3zm17-0.2c-1.2 0-2.2-1-2.3-2.2 0-1.3 1-2.3 2.3-2.4q1.4 0 2.9-0.1c1.3-0.1 2.4 0.9 2.4 2.2 0.1 1.2-0.9 2.3-2.2 2.4q-1.5 0-3 0.1 0 0-0.1 0zm-26.9-0.1q-0.1 0-0.2-0.1-1.5 0-3-0.1c-1.2-0.1-2.2-1.2-2.1-2.4 0-1.3 1.1-2.3 2.4-2.2q1.5 0.1 3 0.2c1.2 0 2.2 1.1 2.1 2.4 0 1.2-1 2.2-2.2 2.2zm36.9-0.4c-1.2 0-2.2-1-2.3-2.2-0.1-1.2 0.9-2.3 2.2-2.4q1.5-0.1 2.9-0.2c1.3-0.1 2.4 0.8 2.5 2.1 0.1 1.2-0.8 2.3-2.1 2.4q-1.5 0.2-3 0.3-0.1 0-0.2 0zm-46.9-0.3q-0.1 0-0.2 0-1.5-0.1-3-0.3c-1.3-0.1-2.2-1.2-2.1-2.5 0.1-1.2 1.2-2.2 2.5-2.1q1.5 0.2 3 0.3c1.2 0.1 2.2 1.2 2.1 2.5-0.1 1.2-1.1 2.1-2.3 2.1zm56.9-0.6c-1.2 0-2.2-0.9-2.3-2-0.1-1.3 0.8-2.4 2.1-2.6q1.4-0.1 2.9-0.3c1.3-0.1 2.4 0.8 2.6 2.1 0.1 1.2-0.8 2.4-2.1 2.5q-1.5 0.2-3 0.3-0.1 0-0.2 0zm-66.9-0.4q-0.1 0-0.2 0-1.5-0.2-3-0.4c-1.3-0.2-2.2-1.3-2-2.6 0.1-1.2 1.3-2.1 2.5-1.9q1.5 0.1 3 0.3c1.3 0.2 2.2 1.3 2 2.6-0.1 1.1-1.1 2-2.3 2zm76.8-0.7c-1.1 0-2.1-0.9-2.3-2-0.1-1.3 0.8-2.4 2-2.6q1.5-0.2 3-0.4c1.2-0.1 2.4 0.7 2.6 2 0.1 1.2-0.7 2.4-2 2.6q-1.5 0.2-3 0.4-0.1 0-0.3 0zm-86.7-0.7q-0.1 0-0.3 0-1.5-0.2-3-0.5c-1.3-0.2-2.1-1.4-1.9-2.6 0.2-1.3 1.4-2.1 2.6-1.9q1.5 0.2 3 0.5c1.2 0.2 2.1 1.3 1.9 2.6-0.2 1.1-1.2 1.9-2.3 1.9zm96.6-0.7c-1.1 0-2.1-0.8-2.2-2-0.2-1.2 0.6-2.4 1.9-2.6q1.4-0.2 2.9-0.5c1.3-0.2 2.4 0.7 2.6 1.9 0.3 1.3-0.6 2.4-1.8 2.7q-1.5 0.2-3 0.4-0.2 0.1-0.4 0.1zm-106.4-1q-0.2 0-0.5 0-1.4-0.3-2.9-0.6c-1.3-0.3-2.1-1.5-1.8-2.7 0.2-1.3 1.5-2.1 2.7-1.8q1.5 0.3 2.9 0.6c1.3 0.2 2.1 1.4 1.8 2.7-0.2 1.1-1.1 1.8-2.2 1.8zm116.3-0.7c-1.1 0-2.1-0.8-2.3-1.9-0.2-1.3 0.6-2.5 1.9-2.7q1.4-0.3 2.9-0.6c1.2-0.2 2.4 0.6 2.7 1.9 0.2 1.2-0.6 2.4-1.8 2.6q-1.5 0.3-3 0.6-0.2 0.1-0.4 0.1zm-126.1-1.4q-0.3 0-0.5 0-1.5-0.4-3-0.7c-1.2-0.3-1.9-1.6-1.6-2.8 0.3-1.2 1.5-2 2.7-1.7q1.5 0.4 2.9 0.7c1.3 0.3 2 1.5 1.7 2.8-0.2 1-1.2 1.7-2.2 1.7zm135.9-0.6c-1.1 0-2-0.8-2.3-1.8-0.2-1.3 0.6-2.5 1.8-2.8q1.4-0.3 2.9-0.6c1.2-0.3 2.5 0.5 2.7 1.7 0.3 1.2-0.5 2.5-1.7 2.8q-1.5 0.3-2.9 0.6-0.3 0.1-0.5 0.1zm-145.6-1.8q-0.3 0-0.6-0.1-1.5-0.4-2.9-0.8c-1.2-0.4-1.9-1.7-1.6-2.9 0.4-1.2 1.6-1.9 2.9-1.5q1.4 0.4 2.8 0.8c1.2 0.3 2 1.6 1.6 2.8-0.3 1-1.2 1.7-2.2 1.7zm155.3-0.5c-1 0-1.9-0.7-2.2-1.7-0.3-1.3 0.4-2.5 1.7-2.8q1.1-0.3 2.2-0.6l0.6-0.2c1.3-0.3 2.5 0.5 2.8 1.7 0.4 1.2-0.4 2.5-1.6 2.8l-0.6 0.2q-1.2 0.2-2.3 0.5-0.3 0.1-0.6 0.1zm-164.9-2.4q-0.3 0-0.7-0.1-1.4-0.5-2.8-0.9c-1.2-0.4-1.9-1.7-1.5-2.9 0.4-1.2 1.7-1.9 2.9-1.5q1.4 0.5 2.8 0.9c1.2 0.4 1.9 1.7 1.5 2.9-0.3 1-1.2 1.6-2.2 1.6zm174.6-0.1c-1 0-1.9-0.7-2.2-1.7-0.4-1.2 0.4-2.5 1.6-2.8q1.4-0.4 2.9-0.8c1.2-0.4 2.4 0.3 2.8 1.5 0.3 1.3-0.4 2.5-1.6 2.9q-1.4 0.4-2.9 0.8-0.3 0.1-0.6 0.1zm9.6-2.8c-1 0-1.9-0.7-2.2-1.6-0.4-1.3 0.3-2.5 1.5-2.9q1.5-0.4 2.9-0.9c1.2-0.4 2.5 0.3 2.9 1.5 0.3 1.2-0.3 2.5-1.5 2.9q-1.5 0.5-2.9 0.9-0.4 0.1-0.7 0.1zm-193.6-0.3q-0.4 0-0.8-0.2-1.4-0.5-2.9-1c-1.1-0.5-1.7-1.8-1.3-3 0.5-1.2 1.8-1.8 3-1.3q1.4 0.5 2.8 1c1.2 0.5 1.8 1.8 1.3 3-0.3 0.9-1.2 1.5-2.1 1.5zm203.1-2.7c-0.9 0-1.8-0.6-2.1-1.6-0.4-1.2 0.2-2.5 1.4-2.9q1.5-0.5 2.9-0.9c1.2-0.4 2.5 0.2 2.9 1.4 0.4 1.2-0.3 2.5-1.5 2.9q-1.4 0.5-2.8 1-0.4 0.1-0.8 0.1zm-212.4-1q-0.5 0-0.9-0.1-1.4-0.6-2.8-1.2c-1.2-0.5-1.7-1.9-1.2-3 0.5-1.2 1.8-1.8 3-1.2q1.4 0.5 2.7 1.1c1.2 0.5 1.8 1.8 1.3 3-0.4 0.9-1.2 1.4-2.1 1.4zm221.9-2.2c-0.9 0-1.8-0.6-2.1-1.6-0.5-1.2 0.2-2.5 1.3-2.9q1.5-0.5 2.9-1c1.2-0.4 2.5 0.2 2.9 1.4 0.4 1.2-0.2 2.5-1.4 2.9q-1.4 0.5-2.8 1-0.4 0.2-0.8 0.2zm-231.1-1.8q-0.5 0-1-0.2-1.3-0.7-2.7-1.3c-1.1-0.6-1.6-2-1.1-3.1 0.6-1.2 2-1.6 3.1-1.1q1.4 0.7 2.7 1.3c1.1 0.5 1.6 1.9 1.1 3.1-0.4 0.8-1.2 1.3-2.1 1.3zm240.5-1.7c-0.9 0-1.8-0.5-2.1-1.4-0.5-1.2 0.1-2.6 1.3-3q1.4-0.5 2.8-1.1c1.2-0.4 2.5 0.2 3 1.3 0.4 1.2-0.2 2.6-1.4 3q-1.4 0.6-2.8 1.1-0.4 0.1-0.8 0.1zm-249.4-2.8q-0.6 0-1.1-0.2-1.3-0.7-2.7-1.5c-1.1-0.6-1.5-2-0.9-3.1 0.6-1.1 2-1.5 3.1-0.9q1.3 0.7 2.6 1.4c1.2 0.6 1.6 2 1 3.1-0.4 0.8-1.2 1.2-2 1.2zm258.7-0.8c-0.9 0-1.7-0.5-2.1-1.4-0.5-1.2 0.1-2.5 1.3-3q1.4-0.6 2.7-1.1c1.2-0.5 2.6 0.1 3 1.2 0.5 1.2-0.1 2.5-1.2 3q-1.4 0.6-2.8 1.1-0.4 0.2-0.9 0.2zm9.3-3.8c-0.9 0-1.8-0.5-2.1-1.4-0.5-1.2 0-2.5 1.2-3q1.3-0.6 2.7-1.2c1.2-0.5 2.5 0.1 3 1.2 0.5 1.2 0 2.5-1.2 3q-1.4 0.6-2.7 1.2-0.5 0.2-0.9 0.2zm-276.8-0.2q-0.6 0-1.1-0.4-1.3-0.7-2.6-1.5c-1.1-0.7-1.5-2.1-0.8-3.2 0.6-1 2-1.4 3.1-0.7q1.3 0.7 2.6 1.5c1.1 0.6 1.4 2 0.8 3.1-0.4 0.8-1.2 1.2-2 1.2zm285.9-3.8c-0.8 0-1.7-0.5-2.1-1.4-0.5-1.1 0-2.5 1.2-3q1.4-0.6 2.7-1.2c1.2-0.5 2.5 0 3.1 1.1 0.5 1.2 0 2.6-1.2 3.1q-1.4 0.6-2.7 1.2-0.5 0.2-1 0.2zm-294.4-1.5q-0.6 0-1.2-0.4-1.3-0.8-2.6-1.7c-1-0.7-1.3-2.1-0.6-3.2 0.7-1 2.2-1.3 3.2-0.6q1.2 0.9 2.5 1.7c1 0.7 1.3 2.1 0.6 3.2-0.4 0.6-1.1 1-1.9 1zm303.5-2.6c-0.8 0-1.7-0.5-2.1-1.4-0.5-1.1 0-2.5 1.2-3q1.3-0.7 2.7-1.3c1.1-0.5 2.5 0 3 1.1 0.6 1.1 0.1 2.5-1.1 3.1q-1.3 0.6-2.7 1.2-0.5 0.3-1 0.3zm-311.7-3.1c-0.5 0-0.9-0.2-1.4-0.5q-1.2-0.9-2.4-1.8c-1-0.7-1.2-2.2-0.4-3.2 0.7-1 2.2-1.2 3.2-0.4q1.2 0.9 2.4 1.7c1 0.8 1.2 2.2 0.4 3.3-0.4 0.6-1.1 0.9-1.8 0.9zm320.7-1.3c-0.8 0-1.6-0.4-2-1.2-0.6-1.2-0.1-2.6 1-3.1q1.4-0.7 2.7-1.3c1.1-0.6 2.5-0.1 3.1 1 0.6 1.1 0.1 2.5-1 3.1q-1.4 0.6-2.8 1.3-0.4 0.2-1 0.2zm9-4.4c-0.8 0-1.7-0.5-2.1-1.3-0.5-1.1-0.1-2.5 1-3.1q1.4-0.6 2.7-1.3c1.1-0.6 2.5-0.2 3.1 1 0.6 1.1 0.1 2.5-1 3.1q-1.3 0.6-2.7 1.3-0.5 0.3-1 0.3zm-337.6-0.4c-0.5 0-1-0.2-1.5-0.6q-1.1-0.9-2.3-1.9c-1-0.8-1.1-2.3-0.3-3.2 0.9-1 2.3-1.1 3.3-0.3q1.1 0.9 2.3 1.9c0.9 0.8 1.1 2.2 0.3 3.2-0.5 0.6-1.1 0.9-1.8 0.9zm346.5-4.2c-0.9 0-1.7-0.5-2.1-1.2-0.6-1.2-0.1-2.6 1-3.1q1.3-0.7 2.6-1.4c1.2-0.6 2.5-0.2 3.1 0.9 0.6 1.1 0.2 2.5-0.9 3.1q-1.3 0.7-2.7 1.4-0.5 0.3-1 0.3zm-354.1-2.4c-0.5 0-1.1-0.2-1.5-0.6q-1.1-1-2.2-2.1c-1-0.8-1-2.3-0.1-3.2 0.8-0.9 2.3-1 3.2-0.1q1.1 1 2.2 2c0.9 0.9 1 2.3 0.1 3.3-0.4 0.5-1 0.7-1.7 0.7zm362.9-2.3c-0.8 0-1.6-0.5-2-1.2-0.6-1.1-0.2-2.5 0.9-3.1q1.3-0.8 2.6-1.5c1.1-0.6 2.5-0.2 3.1 0.9 0.6 1.1 0.2 2.5-0.9 3.1q-1.3 0.8-2.6 1.5-0.6 0.3-1.1 0.3zm-370.1-4.6c-0.6 0-1.2-0.2-1.6-0.7q-1.1-1.1-2.1-2.2c-0.9-0.9-0.9-2.3 0-3.2 0.9-0.9 2.4-0.9 3.3 0.1q1 1 2 2.1c0.9 0.9 0.9 2.3 0 3.2-0.4 0.5-1 0.7-1.6 0.7zm378.8-0.3c-0.8 0-1.6-0.4-2-1.2-0.6-1.1-0.2-2.5 0.9-3.1l2.6-1.4c1.1-0.7 2.5-0.3 3.1 0.8 0.7 1.1 0.3 2.5-0.8 3.1l-2.7 1.5q-0.5 0.3-1.1 0.3zm8.7-4.9c-0.8 0-1.6-0.4-2-1.2-0.6-1.1-0.2-2.5 0.9-3.1q1.3-0.8 2.5-1.5c1.1-0.7 2.5-0.3 3.2 0.8 0.6 1.1 0.2 2.5-0.8 3.1q-1.3 0.8-2.6 1.6-0.6 0.3-1.2 0.3zm-394.3-2.1c-0.7 0-1.3-0.2-1.8-0.8q-1-1.1-2-2.2c-0.8-1-0.7-2.4 0.3-3.3 0.9-0.8 2.4-0.7 3.2 0.3q1 1.1 2 2.2c0.8 0.9 0.7 2.4-0.2 3.2-0.5 0.4-1 0.6-1.5 0.6zm402.9-3c-0.7 0-1.5-0.4-1.9-1.1-0.7-1.1-0.3-2.5 0.8-3.2l2.5-1.5c1.1-0.6 2.5-0.3 3.2 0.8 0.6 1.1 0.3 2.5-0.8 3.1l-2.6 1.6q-0.6 0.3-1.2 0.3zm-409.4-4.6c-0.7 0-1.4-0.3-1.8-0.9q-1-1.1-1.9-2.3c-0.8-1-0.6-2.5 0.4-3.2 1-0.8 2.4-0.7 3.2 0.3q0.9 1.2 1.8 2.4c0.8 0.9 0.7 2.4-0.3 3.2-0.4 0.3-0.9 0.5-1.4 0.5zm418-0.5c-0.8 0-1.5-0.4-2-1.1-0.6-1.1-0.3-2.5 0.8-3.2l2.6-1.6c1-0.6 2.5-0.3 3.1 0.8 0.7 1.1 0.3 2.5-0.7 3.2l-2.6 1.5q-0.6 0.4-1.2 0.4zm8.5-5.3c-0.7 0-1.5-0.4-1.9-1.1-0.7-1-0.4-2.4 0.7-3.1l2.6-1.6c1-0.7 2.4-0.3 3.1 0.7 0.7 1.1 0.4 2.5-0.7 3.2l-2.6 1.6q-0.5 0.3-1.2 0.3zm-432.6-2.1c-0.7 0-1.4-0.4-1.9-1q-0.9-1.2-1.8-2.4c-0.7-1.1-0.4-2.5 0.6-3.2 1-0.8 2.5-0.5 3.2 0.5q0.8 1.2 1.7 2.4c0.8 1 0.5 2.5-0.5 3.2-0.4 0.3-0.9 0.5-1.3 0.5zm441.1-3.2c-0.8 0-1.5-0.4-1.9-1.1-0.7-1-0.4-2.4 0.7-3.1l2.5-1.6c1.1-0.7 2.5-0.4 3.2 0.7 0.7 1.1 0.3 2.5-0.7 3.2l-2.6 1.6q-0.6 0.3-1.2 0.3zm-446.8-5c-0.8 0-1.5-0.4-1.9-1.1q-0.9-1.3-1.7-2.5c-0.7-1.1-0.3-2.5 0.7-3.2 1.1-0.7 2.5-0.4 3.2 0.7q0.8 1.3 1.6 2.5c0.7 1.1 0.4 2.5-0.7 3.2q-0.6 0.4-1.2 0.4zm455.2-0.4c-0.7 0-1.5-0.3-1.9-1-0.7-1.1-0.4-2.5 0.7-3.2l2.5-1.6c1.1-0.7 2.5-0.4 3.2 0.7 0.7 1 0.4 2.5-0.7 3.1l-2.5 1.7q-0.6 0.3-1.3 0.3zm8.4-5.4c-0.7 0-1.4-0.4-1.9-1-0.7-1.1-0.4-2.5 0.7-3.2l2.5-1.7c1-0.7 2.5-0.4 3.2 0.7 0.7 1.1 0.4 2.5-0.7 3.2l-2.5 1.6q-0.6 0.4-1.3 0.4zm-468.9-2.7c-0.8 0-1.5-0.4-2-1.2q-0.7-1.3-1.5-2.6c-0.6-1.1-0.2-2.5 0.9-3.1 1.1-0.7 2.5-0.3 3.1 0.8q0.7 1.3 1.5 2.6c0.6 1.1 0.3 2.5-0.8 3.1q-0.6 0.4-1.2 0.4zm477.3-2.8c-0.7 0-1.5-0.4-1.9-1-0.7-1.1-0.4-2.5 0.6-3.2l2.5-1.7c1.1-0.7 2.5-0.4 3.2 0.7 0.7 1 0.4 2.5-0.6 3.2l-2.5 1.6q-0.6 0.4-1.3 0.4zm8.3-5.5c-0.7 0-1.4-0.4-1.9-1.1-0.7-1-0.4-2.4 0.6-3.1l2.5-1.7c1.1-0.7 2.5-0.4 3.2 0.6 0.7 1.1 0.4 2.5-0.6 3.2l-2.5 1.7q-0.6 0.4-1.3 0.4zm-490.4-0.5c-0.8 0-1.6-0.4-2-1.2q-0.7-1.4-1.4-2.7c-0.6-1.2-0.1-2.5 1-3.1 1.1-0.6 2.5-0.1 3.1 1q0.6 1.3 1.3 2.7c0.6 1.1 0.2 2.5-1 3q-0.5 0.3-1 0.3zm498.7-5.1c-0.7 0-1.4-0.4-1.9-1-0.7-1.1-0.4-2.5 0.6-3.2l2.5-1.7c1.1-0.7 2.5-0.4 3.2 0.6 0.7 1.1 0.4 2.5-0.6 3.2l-2.5 1.7q-0.6 0.4-1.3 0.4zm-503.1-3.9c-0.8 0-1.7-0.5-2.1-1.3q-0.6-1.4-1.2-2.8c-0.5-1.2 0-2.5 1.2-3 1.2-0.5 2.5 0 3 1.2q0.6 1.3 1.2 2.7c0.5 1.1 0 2.5-1.1 3q-0.5 0.2-1 0.2zm511.4-1.7c-0.7 0-1.5-0.4-1.9-1-0.7-1.1-0.4-2.5 0.6-3.2l2.5-1.7c1-0.7 2.5-0.4 3.2 0.6 0.7 1.1 0.4 2.5-0.6 3.2l-2.5 1.7q-0.6 0.4-1.3 0.4zm8.3-5.6c-0.8 0-1.5-0.4-1.9-1-0.7-1.1-0.5-2.5 0.6-3.2l2.4-1.7c1.1-0.7 2.5-0.5 3.2 0.6 0.8 1 0.5 2.4-0.6 3.2l-2.4 1.7q-0.7 0.4-1.3 0.4zm-523.6-1.9c-0.9 0-1.7-0.5-2.1-1.4q-0.5-1.5-1.1-2.9c-0.4-1.2 0.2-2.5 1.4-2.9 1.2-0.5 2.5 0.1 2.9 1.3q0.5 1.4 1.1 2.8c0.4 1.2-0.1 2.5-1.3 3q-0.4 0.1-0.9 0.1zm531.8-3.8c-0.7 0-1.4-0.3-1.9-1-0.7-1-0.4-2.5 0.6-3.2l2.5-1.7c1-0.7 2.5-0.4 3.2 0.6 0.7 1.1 0.4 2.5-0.6 3.2l-2.5 1.7q-0.6 0.4-1.3 0.4zm-535.1-5.6c-1 0-1.9-0.6-2.2-1.6q-0.5-1.4-0.9-2.9c-0.4-1.2 0.3-2.5 1.5-2.8 1.2-0.4 2.5 0.3 2.8 1.5q0.5 1.4 0.9 2.8c0.4 1.2-0.2 2.5-1.4 2.9q-0.4 0.1-0.7 0.1zm543.4 0c-0.8 0-1.5-0.4-1.9-1-0.7-1.1-0.5-2.5 0.6-3.2l2.5-1.7c1-0.7 2.4-0.5 3.1 0.6 0.8 1 0.5 2.5-0.6 3.2l-2.4 1.7q-0.6 0.4-1.3 0.4zm8.2-5.7c-0.7 0-1.4-0.3-1.9-1-0.7-1-0.4-2.4 0.6-3.2l2.5-1.7c1.1-0.7 2.5-0.4 3.2 0.6 0.7 1.1 0.4 2.5-0.6 3.2l-2.5 1.7q-0.6 0.4-1.3 0.4zm-554.5-3.9c-1 0-1.9-0.6-2.2-1.7q-0.4-1.4-0.8-2.9c-0.3-1.2 0.5-2.5 1.7-2.8 1.3-0.3 2.5 0.5 2.8 1.7q0.4 1.4 0.7 2.8c0.4 1.3-0.4 2.5-1.6 2.9q-0.3 0-0.6 0zm562.8-1.7c-0.7 0-1.5-0.4-1.9-1-0.7-1.1-0.4-2.5 0.6-3.2l2.5-1.7c1-0.7 2.5-0.4 3.2 0.6 0.7 1.1 0.4 2.5-0.6 3.2l-2.5 1.7q-0.6 0.4-1.3 0.4zm8.3-5.6c-0.8 0-1.5-0.4-1.9-1-0.7-1.1-0.5-2.5 0.6-3.2l2.5-1.7c1-0.7 2.4-0.4 3.1 0.6 0.8 1.1 0.5 2.5-0.6 3.2l-2.5 1.7q-0.6 0.4-1.2 0.4zm-573.4-2.4c-1 0-2-0.7-2.2-1.8q-0.3-1.5-0.6-3c-0.2-1.2 0.6-2.4 1.8-2.7 1.3-0.2 2.5 0.6 2.7 1.9q0.3 1.4 0.6 2.9c0.2 1.2-0.6 2.4-1.8 2.7q-0.2 0-0.5 0zm581.7-3.2c-0.8 0-1.5-0.4-1.9-1-0.8-1.1-0.5-2.5 0.6-3.2l2.5-1.7c1-0.7 2.4-0.4 3.2 0.6 0.7 1.1 0.4 2.5-0.7 3.2l-2.5 1.7q-0.6 0.4-1.2 0.4zm8.3-5.6c-0.8 0-1.5-0.3-1.9-1-0.7-1.1-0.5-2.5 0.6-3.2l2.5-1.7c1-0.7 2.5-0.4 3.2 0.7 0.7 1 0.4 2.5-0.7 3.2l-2.5 1.6q-0.6 0.4-1.2 0.4zm-591.7-1c-1.1 0-2.1-0.9-2.3-2q-0.2-1.5-0.4-3c-0.1-1.3 0.8-2.4 2-2.6 1.3-0.1 2.4 0.8 2.6 2q0.2 1.5 0.4 3c0.2 1.2-0.7 2.4-2 2.5q-0.1 0.1-0.3 0.1zm600-4.5c-0.7 0-1.5-0.4-1.9-1-0.7-1.1-0.4-2.5 0.6-3.2l2.6-1.7c1-0.7 2.4-0.4 3.1 0.7 0.7 1 0.4 2.5-0.6 3.2l-2.5 1.6q-0.6 0.4-1.3 0.4zm-601.1-5.5c-1.2 0-2.2-0.9-2.3-2.1q-0.1-1.5-0.2-3c-0.1-1.3 0.9-2.4 2.2-2.4 1.2-0.1 2.3 0.9 2.4 2.1q0.1 1.5 0.2 3c0.1 1.2-0.8 2.3-2.1 2.4q-0.1 0-0.2 0zm609.5 0c-0.8 0-1.5-0.4-2-1-0.6-1.1-0.3-2.5 0.7-3.2l2.5-1.6c1.1-0.7 2.5-0.4 3.2 0.6 0.7 1.1 0.4 2.5-0.7 3.2l-2.5 1.6q-0.6 0.4-1.2 0.4zm8.4-5.4c-0.8 0-1.5-0.4-2-1.1-0.6-1-0.3-2.5 0.7-3.1l2.6-1.7c1-0.6 2.5-0.3 3.1 0.7 0.7 1.1 0.4 2.5-0.7 3.2l-2.5 1.6q-0.6 0.4-1.2 0.4zm-618.4-4.5c-1.2 0-2.2-1-2.3-2.3q0-1.2 0-2.4v-0.6c0-1.3 1.1-2.3 2.3-2.3q0 0 0 0c1.3 0 2.3 1 2.3 2.3v0.7q0 1.1 0 2.2c0 1.3-1 2.3-2.2 2.4q-0.1 0-0.1 0zm626.8-0.9c-0.7 0-1.5-0.3-1.9-1-0.7-1.1-0.4-2.5 0.7-3.2l2.5-1.6c1.1-0.7 2.5-0.3 3.2 0.7 0.7 1.1 0.4 2.5-0.7 3.2l-2.6 1.6q-0.5 0.3-1.2 0.3zm8.5-5.3c-0.8 0-1.5-0.3-1.9-1-0.7-1.1-0.4-2.5 0.7-3.2l2.6-1.6c1.1-0.6 2.5-0.3 3.1 0.8 0.7 1.1 0.3 2.5-0.7 3.1l-2.6 1.6q-0.6 0.4-1.2 0.3zm-635.1-3.8q0 0-0.1 0c-1.3-0.1-2.2-1.2-2.2-2.5q0.1-1.5 0.2-3c0.1-1.3 1.2-2.2 2.5-2.1 1.2 0.1 2.2 1.2 2.1 2.4q-0.1 1.5-0.2 3c-0.1 1.2-1.1 2.2-2.3 2.2zm867.5-1.1c-1 0-2-0.7-2.2-1.8q-0.1-0.5-0.2-1c-0.3-1.2 0.4-2.5 1.7-2.8 1.2-0.3 2.4 0.5 2.7 1.7q0.2 0.6 0.3 1.1c0.3 1.3-0.5 2.5-1.7 2.8q-0.3 0-0.6 0zm-223.8-0.3c-0.8 0-1.6-0.4-2-1.1-0.7-1.1-0.3-2.5 0.8-3.1q1.3-0.8 2.5-1.6c1.1-0.6 2.5-0.3 3.2 0.8 0.6 1.1 0.3 2.5-0.8 3.2q-1.3 0.7-2.6 1.5-0.5 0.3-1.1 0.3zm8.5-5.1c-0.7 0-1.5-0.4-1.9-1.1-0.7-1.1-0.3-2.5 0.8-3.1q1.3-0.8 2.6-1.6c1.1-0.6 2.5-0.2 3.1 0.9 0.7 1.1 0.3 2.5-0.8 3.1q-1.3 0.8-2.6 1.5-0.5 0.3-1.2 0.3zm213-2.3c-0.9 0-1.8-0.6-2.1-1.5q-0.5-1.4-1.1-2.7c-0.5-1.1 0-2.5 1.2-3 1.2-0.5 2.5 0 3 1.2q0.6 1.4 1.2 2.9c0.4 1.2-0.2 2.5-1.4 2.9q-0.4 0.2-0.8 0.2zm-864.3-1.2q-0.2 0-0.3 0c-1.3-0.2-2.2-1.3-2-2.6q0.2-1.5 0.4-3c0.2-1.2 1.3-2.1 2.6-1.9 1.2 0.1 2.1 1.3 1.9 2.6q-0.2 1.4-0.4 2.9c-0.1 1.1-1.1 2-2.2 2zm660-1.5c-0.8 0-1.6-0.4-2-1.1-0.6-1.1-0.2-2.5 0.9-3.2q1.3-0.7 2.6-1.5c1.1-0.6 2.5-0.2 3.1 0.9 0.6 1.1 0.2 2.5-0.9 3.1q-1.3 0.8-2.6 1.5-0.5 0.3-1.1 0.3zm8.7-4.9c-0.8 0-1.6-0.4-2-1.2-0.6-1.1-0.2-2.5 0.9-3.1l2.6-1.5c1.1-0.6 2.5-0.2 3.1 0.9 0.7 1.2 0.2 2.5-0.9 3.2l-2.6 1.4q-0.5 0.3-1.1 0.3zm191.4-1.4c-0.8 0-1.6-0.5-2-1.2q-0.7-1.2-1.5-2.5c-0.7-1-0.4-2.4 0.7-3.1 1-0.7 2.5-0.4 3.1 0.7q0.9 1.3 1.7 2.6c0.6 1.1 0.2 2.5-0.9 3.2q-0.5 0.3-1.1 0.3zm-858.6-2.1q-0.2 0-0.4 0c-1.3-0.3-2.1-1.5-1.9-2.7q0.3-1.5 0.6-3c0.3-1.2 1.5-2 2.8-1.8 1.2 0.3 2 1.5 1.7 2.8q-0.3 1.4-0.6 2.9c-0.2 1.1-1.1 1.8-2.2 1.8zm676-1.3c-0.8 0-1.6-0.4-2-1.2-0.6-1.1-0.2-2.5 0.9-3.1q1.3-0.7 2.6-1.4c1.2-0.6 2.6-0.2 3.1 0.9 0.6 1.1 0.2 2.5-0.9 3.1q-1.3 0.7-2.6 1.4-0.6 0.3-1.1 0.3zm8.8-4.7c-0.8 0-1.6-0.4-2-1.2-0.6-1.1-0.2-2.5 1-3.1q1.3-0.7 2.6-1.4c1.2-0.6 2.5-0.1 3.1 1 0.6 1.1 0.2 2.5-1 3.1q-1.3 0.7-2.6 1.4-0.5 0.2-1.1 0.2zm168.1-0.2c-0.7 0-1.3-0.3-1.8-0.8q-0.9-1.2-1.8-2.3c-0.9-0.9-0.8-2.4 0.2-3.2 0.9-0.8 2.4-0.7 3.2 0.2q1 1.2 2 2.4c0.8 1 0.6 2.4-0.3 3.2-0.5 0.4-1 0.5-1.5 0.5zm-850.7-3.5q-0.3 0-0.6-0.1c-1.2-0.3-1.9-1.6-1.6-2.8q0.2-0.9 0.5-1.8l0.3-1.1c0.4-1.3 1.6-2 2.9-1.6 1.2 0.3 1.9 1.6 1.5 2.8l-0.3 1.1q-0.2 0.9-0.5 1.8c-0.2 1-1.2 1.7-2.2 1.7zm691.5-0.8c-0.8 0-1.6-0.5-2-1.3-0.6-1.1-0.1-2.5 1-3.1q1.3-0.6 2.7-1.3c1.1-0.6 2.5-0.1 3.1 1 0.5 1.2 0.1 2.6-1.1 3.1q-1.3 0.7-2.7 1.3-0.5 0.3-1 0.3zm152.4-3c-0.5 0-1.1-0.2-1.5-0.6q-1.1-1-2.2-2c-1-0.8-1.1-2.3-0.2-3.2 0.8-1 2.2-1.1 3.2-0.2q1.2 1 2.3 2c0.9 0.9 1 2.3 0.1 3.3-0.5 0.5-1.1 0.7-1.7 0.7zm-143.4-1.4c-0.8 0-1.7-0.5-2.1-1.3-0.5-1.2 0-2.5 1.1-3.1q1.4-0.6 2.7-1.3c1.2-0.5 2.6 0 3.1 1.1 0.5 1.2 0 2.6-1.1 3.1q-1.4 0.6-2.7 1.3-0.5 0.2-1 0.2zm9.1-4.2c-0.9 0-1.7-0.5-2.1-1.4-0.5-1.1 0-2.5 1.1-3q1.4-0.6 2.8-1.2c1.2-0.5 2.5 0 3 1.2 0.5 1.1 0 2.5-1.2 3q-1.3 0.6-2.7 1.2-0.4 0.2-0.9 0.2zm-706.7-0.2q-0.3 0-0.7-0.1c-1.2-0.4-1.9-1.7-1.4-2.9q0.4-1.5 1-2.9c0.4-1.2 1.7-1.8 2.9-1.4 1.2 0.5 1.8 1.8 1.4 3q-0.5 1.4-1 2.8c-0.3 0.9-1.2 1.5-2.2 1.5zm833.3-0.6c-0.5 0-0.9-0.1-1.3-0.4q-1.2-0.9-2.4-1.7c-1.1-0.7-1.4-2.1-0.7-3.2 0.8-1 2.2-1.3 3.2-0.6q1.3 0.9 2.6 1.8c1 0.7 1.2 2.2 0.5 3.2-0.5 0.6-1.2 0.9-1.9 0.9zm-117.4-3.1c-0.9 0-1.8-0.6-2.1-1.5-0.5-1.1 0-2.5 1.2-3q1.4-0.5 2.8-1.1c1.2-0.4 2.5 0.1 3 1.3 0.5 1.2-0.1 2.5-1.3 3q-1.4 0.5-2.8 1.1-0.4 0.2-0.8 0.2zm109-2.3q-0.6 0-1.1-0.3-1.3-0.7-2.6-1.3c-1.1-0.6-1.6-2-1-3.1 0.6-1.2 2-1.6 3.1-1q1.4 0.7 2.7 1.4c1.1 0.7 1.5 2.1 0.9 3.2-0.4 0.7-1.2 1.1-2 1.1zm-99.7-1.3c-0.9 0-1.8-0.6-2.1-1.5-0.5-1.2 0.1-2.6 1.3-3q1.4-0.5 2.9-1c1.2-0.4 2.5 0.2 2.9 1.4 0.4 1.2-0.2 2.5-1.4 2.9q-1.4 0.5-2.8 1-0.4 0.2-0.8 0.2zm-721.6-2q-0.5 0-0.9-0.2c-1.2-0.5-1.7-1.8-1.2-3q0.6-1.4 1.2-2.8c0.5-1.2 1.8-1.7 3-1.2 1.2 0.5 1.7 1.9 1.2 3.1q-0.6 1.3-1.2 2.7c-0.4 0.8-1.2 1.4-2.1 1.4zm812.3-1.1q-0.4 0-0.9-0.2-1.3-0.5-2.7-1.1c-1.2-0.4-1.8-1.7-1.3-2.9 0.4-1.2 1.8-1.8 3-1.3q1.4 0.5 2.8 1.1c1.2 0.5 1.7 1.9 1.2 3-0.4 0.9-1.2 1.4-2.1 1.4zm-81.2-0.1c-1 0-1.9-0.7-2.2-1.7-0.4-1.2 0.3-2.5 1.5-2.8q1.4-0.5 2.9-0.9c1.2-0.4 2.5 0.3 2.8 1.5 0.4 1.2-0.3 2.5-1.5 2.9q-1.4 0.4-2.8 0.8-0.4 0.2-0.7 0.2zm9.6-2.8c-1 0-2-0.7-2.2-1.7-0.3-1.2 0.4-2.5 1.6-2.8q1.5-0.4 3-0.7c1.2-0.3 2.5 0.5 2.7 1.7 0.3 1.2-0.4 2.5-1.7 2.7q-1.4 0.4-2.8 0.7-0.3 0.1-0.6 0.1zm62.2-0.5q-0.3 0-0.7-0.1-1.4-0.4-2.8-0.8c-1.2-0.3-1.9-1.6-1.6-2.8 0.3-1.2 1.6-1.9 2.8-1.6q1.5 0.4 3 0.8c1.2 0.4 1.9 1.7 1.5 2.9-0.3 1-1.2 1.6-2.2 1.6zm-52.4-1.7c-1.1 0-2.1-0.7-2.3-1.8-0.2-1.3 0.6-2.5 1.8-2.7q1.5-0.3 3-0.5c1.3-0.3 2.5 0.6 2.7 1.8 0.2 1.3-0.7 2.5-1.9 2.7q-1.5 0.2-2.9 0.5-0.2 0-0.4 0zm42.7-0.7q-0.2 0-0.4 0-1.5-0.3-2.9-0.5c-1.3-0.2-2.1-1.4-1.9-2.6 0.2-1.3 1.4-2.1 2.6-1.9q1.5 0.2 3 0.5c1.3 0.2 2.1 1.4 1.9 2.7-0.3 1.1-1.2 1.8-2.3 1.8zm-32.9-0.8c-1.1 0-2.1-0.8-2.2-2-0.2-1.3 0.7-2.4 2-2.5q1.5-0.2 3-0.4c1.3-0.1 2.4 0.8 2.5 2.1 0.1 1.3-0.8 2.4-2.1 2.5q-1.4 0.1-2.9 0.3-0.1 0-0.3 0zm22.8-0.5c-1-0.1-2-0.1-2.9-0.2-1.3 0-2.2-1.1-2.2-2.4 0.1-1.3 1.2-2.2 2.4-2.2q1.5 0.1 3 0.2l-0.1 2.3zm-12.8-0.2c-1.2 0-2.3-1-2.3-2.2 0-1.3 0.9-2.4 2.2-2.4q1.5-0.1 3.1-0.1 0 0 0 0c1.2 0 2.3 1 2.3 2.3 0 1.2-1 2.3-2.3 2.3q-1.5 0-2.9 0.1-0.1 0-0.1 0zm-766.2-0.7q-0.5 0-1-0.2c-1.1-0.6-1.6-2-1-3.1q0.7-1.4 1.4-2.7c0.6-1.1 2-1.6 3.1-1 1.1 0.6 1.5 2 0.9 3.1q-0.6 1.3-1.3 2.6c-0.4 0.8-1.2 1.3-2.1 1.3zm4.8-8.8q-0.6 0-1.1-0.3c-1.1-0.6-1.5-2-0.9-3.1q0.8-1.4 1.6-2.7c0.7-1 2.1-1.4 3.1-0.7 1.1 0.6 1.5 2.1 0.8 3.1q-0.8 1.3-1.5 2.6c-0.4 0.7-1.2 1.1-2 1.1zm5.3-8.5q-0.6 0.1-1.2-0.3c-1.1-0.7-1.4-2.2-0.7-3.2q0.9-1.3 1.8-2.5c0.7-1.1 2.1-1.3 3.1-0.6 1.1 0.7 1.3 2.2 0.6 3.2q-0.8 1.2-1.7 2.4c-0.4 0.7-1.1 1-1.9 1zm5.9-8.1c-0.5 0-1-0.1-1.4-0.4-1-0.8-1.2-2.3-0.4-3.3q0.9-1.2 1.8-2.4c0.8-0.9 2.3-1.1 3.2-0.3 1 0.8 1.2 2.2 0.4 3.2q-0.9 1.2-1.8 2.3c-0.5 0.6-1.1 0.9-1.8 0.9zm6.3-7.7c-0.5 0-1.1-0.2-1.5-0.6-1-0.8-1.1-2.3-0.2-3.2q1-1.2 2-2.3c0.8-0.9 2.3-1 3.2-0.2 1 0.9 1 2.3 0.2 3.3q-1 1.1-2 2.2c-0.4 0.5-1.1 0.8-1.7 0.8zm6.8-7.4c-0.6 0-1.2-0.2-1.6-0.6-0.9-0.9-1-2.4-0.1-3.3q1.1-1.1 2.2-2.1c0.9-0.9 2.3-0.9 3.2 0 0.9 0.9 0.9 2.3 0 3.2q-1.1 1.1-2.1 2.1c-0.4 0.5-1 0.7-1.6 0.7zm7.2-6.9c-0.7 0-1.3-0.3-1.7-0.8-0.9-0.9-0.8-2.4 0.1-3.2q1.1-1 2.3-2c0.9-0.9 2.4-0.8 3.2 0.2 0.9 0.9 0.8 2.4-0.2 3.2q-1.1 1-2.2 2c-0.4 0.4-1 0.6-1.5 0.6zm7.6-6.5c-0.7 0-1.4-0.3-1.8-0.9-0.8-1-0.7-2.4 0.3-3.2q1.2-1 2.4-1.9c1-0.8 2.4-0.6 3.2 0.4 0.8 1 0.6 2.4-0.4 3.2q-1.1 0.9-2.3 1.9c-0.4 0.3-0.9 0.5-1.4 0.5zm7.9-6.1c-0.7 0-1.4-0.3-1.9-1-0.7-1-0.5-2.4 0.6-3.2q1.2-0.8 2.5-1.7c1-0.7 2.4-0.5 3.1 0.6 0.8 1 0.5 2.4-0.5 3.2q-1.3 0.8-2.5 1.7c-0.4 0.3-0.8 0.4-1.3 0.4zm8.3-5.6c-0.8 0-1.5-0.4-1.9-1.1-0.7-1-0.4-2.4 0.7-3.1q1.2-0.8 2.5-1.6c1.1-0.7 2.5-0.4 3.2 0.7 0.7 1.1 0.3 2.5-0.8 3.2q-1.2 0.8-2.5 1.5-0.6 0.4-1.2 0.4zm8.6-5.1c-0.8 0-1.6-0.4-2-1.2-0.6-1.1-0.2-2.5 0.9-3.1q1.3-0.7 2.6-1.5c1.2-0.6 2.5-0.1 3.1 1 0.6 1.1 0.2 2.5-0.9 3.1q-1.3 0.7-2.6 1.4-0.5 0.3-1.1 0.3zm8.9-4.6c-0.9 0-1.7-0.5-2.1-1.3-0.6-1.2-0.1-2.5 1.1-3.1q1.3-0.6 2.7-1.3c1.2-0.5 2.5 0 3.1 1.2 0.5 1.1 0 2.5-1.2 3q-1.3 0.6-2.6 1.3-0.5 0.2-1 0.2zm158.5-3.5q-0.4 0-0.8-0.2-1.4-0.5-2.8-1c-1.2-0.5-1.8-1.8-1.3-3 0.4-1.2 1.7-1.8 2.9-1.4q1.4 0.6 2.9 1.1c1.1 0.5 1.7 1.8 1.3 3-0.4 0.9-1.2 1.5-2.2 1.5zm-149.4-0.6c-0.9 0-1.8-0.5-2.1-1.4-0.5-1.2 0-2.5 1.2-3q1.1-0.5 2.2-0.9l0.6-0.2c1.2-0.5 2.5 0.1 3 1.3 0.5 1.1-0.1 2.5-1.3 2.9l-0.6 0.3q-1.1 0.4-2.1 0.8-0.5 0.2-0.9 0.2zm140-2.8q-0.3 0-0.7-0.1-1.4-0.5-2.8-0.9c-1.2-0.4-1.9-1.7-1.5-2.9 0.4-1.2 1.6-1.9 2.9-1.5q1.4 0.4 2.8 0.9c1.2 0.4 1.9 1.7 1.5 2.9-0.3 1-1.2 1.6-2.2 1.6zm-130.7-0.7c-0.9 0-1.8-0.6-2.1-1.6-0.4-1.2 0.2-2.5 1.4-2.9q1.4-0.5 2.9-1c1.2-0.4 2.5 0.3 2.9 1.5 0.4 1.2-0.3 2.5-1.5 2.9q-1.4 0.5-2.8 0.9-0.4 0.2-0.8 0.2zm121.2-2.2q-0.4 0-0.7-0.1-1.4-0.4-2.8-0.8c-1.3-0.3-2-1.6-1.7-2.8 0.4-1.2 1.6-2 2.9-1.6q1.4 0.4 2.9 0.8c1.2 0.3 1.9 1.6 1.6 2.8-0.3 1-1.2 1.7-2.2 1.7zm-111.6-0.8c-1 0-1.9-0.7-2.2-1.7-0.4-1.2 0.3-2.5 1.5-2.8q1.5-0.4 3-0.8c1.2-0.4 2.5 0.4 2.8 1.6 0.3 1.2-0.4 2.5-1.6 2.8q-1.5 0.4-2.9 0.8-0.3 0.1-0.6 0.1zm101.9-1.7q-0.3 0-0.5-0.1-1.5-0.3-2.9-0.6c-1.3-0.3-2.1-1.5-1.8-2.8 0.3-1.2 1.5-2 2.7-1.7q1.5 0.3 3 0.7c1.2 0.2 2 1.5 1.7 2.7-0.2 1.1-1.2 1.8-2.2 1.8zm-92.2-0.8c-1.1 0-2-0.7-2.3-1.8-0.3-1.2 0.5-2.5 1.7-2.7q1.5-0.4 3-0.7c1.3-0.3 2.5 0.5 2.7 1.8 0.3 1.2-0.5 2.4-1.7 2.7q-1.5 0.3-2.9 0.6-0.3 0.1-0.5 0.1zm82.4-1.3q-0.2 0-0.4 0-1.5-0.3-3-0.5c-1.2-0.2-2-1.4-1.8-2.7 0.2-1.2 1.4-2 2.6-1.8q1.5 0.2 3 0.5c1.2 0.2 2.1 1.4 1.8 2.7-0.2 1.1-1.1 1.8-2.2 1.8zm-72.6-0.7c-1.1 0-2.1-0.8-2.3-1.9-0.2-1.2 0.6-2.4 1.9-2.6q1.5-0.3 3-0.5c1.2-0.2 2.4 0.6 2.6 1.9 0.2 1.2-0.7 2.4-1.9 2.6q-1.5 0.2-2.9 0.5-0.2 0-0.4 0zm62.7-0.9q-0.1 0-0.3 0-1.5-0.2-2.9-0.4c-1.3-0.1-2.2-1.3-2-2.5 0.1-1.3 1.3-2.2 2.5-2q1.5 0.2 3 0.4c1.3 0.2 2.2 1.3 2 2.6-0.2 1.1-1.2 1.9-2.3 1.9zm-52.8-0.5c-1.2 0-2.2-0.9-2.3-2-0.2-1.3 0.7-2.4 2-2.6q1.5-0.2 3-0.3c1.3-0.2 2.4 0.8 2.5 2 0.1 1.3-0.8 2.4-2 2.5q-1.5 0.2-3 0.4-0.1 0-0.2 0zm42.9-0.6q-0.1 0-0.2 0-1.5-0.1-3-0.2c-1.3-0.1-2.2-1.2-2.1-2.5 0.1-1.3 1.2-2.2 2.5-2.1q1.5 0.1 3 0.2c1.2 0.2 2.2 1.3 2.1 2.5-0.1 1.2-1.1 2.1-2.3 2.1zm-33-0.4c-1.2 0-2.2-0.9-2.3-2.1-0.1-1.3 0.9-2.4 2.2-2.4q1.5-0.1 3-0.2c1.2-0.1 2.3 0.9 2.4 2.1 0.1 1.3-0.9 2.4-2.2 2.5q-1.5 0-2.9 0.1-0.1 0-0.2 0zm23-0.2q-0.1 0-0.1-0.1-1.5 0-3-0.1c-1.2 0-2.2-1-2.2-2.3 0-1.3 1.1-2.3 2.4-2.2q1.5 0 3 0.1c1.3 0 2.2 1.1 2.2 2.4-0.1 1.2-1.1 2.2-2.3 2.2zm-13-0.2c-1.2 0-2.3-1-2.3-2.3 0-1.2 1-2.3 2.3-2.3q1.5 0 3 0 0 0 0 0c1.3 0 2.3 1 2.3 2.3 0 1.2-1 2.3-2.3 2.3q-1.5 0-3 0 0 0 0 0z"/><path class="i" d="m686 442.4c-0.7 0-1.4-0.4-1.9-1-0.7-1-0.5-2.4 0.5-3.2q1.2-0.9 2.3-1.8c1-0.7 2.5-0.6 3.3 0.4 0.7 1.1 0.5 2.5-0.5 3.3q-1.2 0.9-2.4 1.8c-0.4 0.3-0.9 0.5-1.3 0.5zm7.8-6.2c-0.6 0-1.3-0.3-1.7-0.8-0.8-1-0.7-2.5 0.3-3.3q1.1-0.9 2.3-1.9c1-0.8 2.4-0.6 3.2 0.3 0.8 1 0.7 2.5-0.3 3.3q-1.1 0.9-2.3 1.9c-0.4 0.3-1 0.5-1.5 0.5zm7.7-6.4c-0.7 0-1.3-0.3-1.7-0.8-0.9-1-0.8-2.4 0.2-3.3q1.1-0.9 2.2-1.9c0.9-0.9 2.4-0.8 3.2 0.1 0.9 1 0.8 2.4-0.1 3.3q-1.2 1-2.3 2c-0.4 0.4-1 0.6-1.5 0.6zm7.4-6.8c-0.6 0-1.2-0.2-1.7-0.7-0.8-0.9-0.8-2.4 0.1-3.2q1.1-1 2.2-2.1c0.9-0.9 2.3-0.8 3.2 0.1 0.9 0.9 0.9 2.3 0 3.2q-1.1 1.1-2.2 2.1c-0.5 0.4-1 0.6-1.6 0.6zm7.1-7c-0.5 0-1.1-0.2-1.6-0.6-0.9-0.9-0.9-2.4 0-3.3q1.1-1 2.1-2.1c0.9-0.9 2.3-0.9 3.2 0 0.9 0.8 1 2.3 0.1 3.2q-1.1 1.1-2.1 2.2c-0.5 0.4-1.1 0.6-1.7 0.6zm6.9-7.2c-0.5 0-1.1-0.2-1.5-0.6-0.9-0.9-1-2.3-0.1-3.2q1-1.1 2-2.2c0.8-1 2.3-1.1 3.2-0.2 0.9 0.8 1 2.3 0.2 3.2q-1 1.2-2.1 2.3c-0.4 0.5-1 0.7-1.7 0.7zm6.7-7.5c-0.6 0-1.1-0.2-1.5-0.5-1-0.8-1.1-2.3-0.3-3.3q1-1.1 2-2.2c0.8-1 2.2-1.1 3.2-0.3 1 0.8 1.1 2.2 0.3 3.2q-1 1.2-2 2.3c-0.4 0.6-1.1 0.8-1.7 0.8zm6.3-7.7c-0.5 0-1-0.1-1.4-0.5-1-0.8-1.1-2.2-0.4-3.2q1-1.2 1.9-2.3c0.8-1 2.2-1.2 3.2-0.4 1 0.7 1.2 2.2 0.4 3.2q-0.9 1.2-1.9 2.4c-0.4 0.5-1.1 0.8-1.8 0.8zm6.1-7.9c-0.4 0-0.9-0.2-1.3-0.5-1-0.7-1.3-2.2-0.5-3.2q0.9-1.2 1.8-2.4c0.7-1 2.1-1.2 3.2-0.5 1 0.8 1.2 2.2 0.5 3.2q-0.9 1.3-1.8 2.5c-0.5 0.6-1.2 0.9-1.9 0.9zm5.8-8.1q-0.6 0-1.3-0.4c-1-0.8-1.3-2.2-0.5-3.2q0.8-1.3 1.6-2.5c0.7-1 2.2-1.3 3.2-0.6 1.1 0.7 1.4 2.1 0.6 3.2q-0.8 1.2-1.7 2.5c-0.4 0.6-1.1 1-1.9 1zm5.6-8.4q-0.7 0-1.3-0.3c-1-0.7-1.3-2.1-0.6-3.2q0.8-1.3 1.5-2.5c0.7-1.1 2.1-1.4 3.2-0.7 1.1 0.6 1.4 2 0.7 3.1q-0.8 1.3-1.6 2.6c-0.4 0.7-1.2 1-1.9 1zm5.2-8.5q-0.6 0-1.1-0.3c-1.1-0.6-1.5-2.1-0.8-3.1q0.7-1.3 1.5-2.6c0.6-1.1 2-1.5 3.1-0.8 1.1 0.6 1.5 2 0.8 3.1q-0.7 1.3-1.5 2.6c-0.4 0.7-1.2 1.1-2 1.1zm5-8.7q-0.6 0-1.1-0.2c-1.1-0.7-1.5-2-0.9-3.2q0.7-1.3 1.4-2.6c0.6-1.1 2-1.5 3.1-0.9 1.1 0.6 1.5 2 0.9 3.1q-0.7 1.3-1.4 2.6c-0.4 0.8-1.2 1.2-2 1.2zm4.6-8.8q-0.5 0-1-0.3c-1.1-0.5-1.6-1.9-1-3q0.7-1.4 1.3-2.7c0.6-1.1 2-1.6 3.1-1 1.1 0.5 1.6 1.9 1 3q-0.6 1.4-1.3 2.7c-0.4 0.8-1.2 1.3-2.1 1.3zm4.4-9q-0.5 0-1-0.2c-1.1-0.6-1.6-1.9-1.1-3.1q0.7-1.3 1.3-2.7c0.5-1.1 1.9-1.6 3-1.1 1.2 0.5 1.7 1.9 1.2 3q-0.7 1.4-1.3 2.8c-0.4 0.8-1.2 1.3-2.1 1.3zm4.1-9.1q-0.5 0-0.9-0.2c-1.2-0.5-1.7-1.9-1.2-3q0.5-1.4 1.1-2.8c0.5-1.2 1.8-1.7 3-1.2 1.2 0.5 1.7 1.8 1.2 3q-0.5 1.4-1.1 2.8c-0.4 0.8-1.2 1.4-2.1 1.4zm3.7-9.3q-0.4 0-0.8-0.2c-1.2-0.4-1.8-1.7-1.3-2.9q0.5-1.4 1-2.8c0.5-1.2 1.8-1.8 3-1.4 1.2 0.5 1.8 1.8 1.3 3q-0.5 1.4-1 2.8c-0.4 0.9-1.3 1.5-2.2 1.5zm3.5-9.4q-0.4 0-0.8-0.1c-1.2-0.4-1.8-1.8-1.4-3q0.5-1.4 1-2.8c0.4-1.2 1.7-1.8 2.9-1.4 1.2 0.4 1.8 1.7 1.4 2.9q-0.5 1.4-1 2.9c-0.3 0.9-1.2 1.5-2.1 1.5zm3.1-9.5q-0.4 0-0.7-0.1c-1.2-0.4-1.9-1.7-1.5-2.9q0.4-1.4 0.9-2.8c0.3-1.2 1.6-1.9 2.8-1.6 1.2 0.4 1.9 1.7 1.6 2.9q-0.5 1.4-0.9 2.9c-0.3 1-1.2 1.6-2.2 1.6zm2.8-9.6q-0.3 0-0.6-0.1c-1.2-0.3-2-1.6-1.6-2.8q0.4-1.4 0.7-2.9c0.4-1.2 1.6-1.9 2.8-1.6 1.3 0.3 2 1.6 1.7 2.8q-0.4 1.4-0.8 2.9c-0.3 1-1.2 1.7-2.2 1.7zm2.5-9.7q-0.3 0-0.6-0.1c-1.2-0.3-2-1.5-1.7-2.7q0.4-1.5 0.7-2.9c0.3-1.3 1.5-2 2.7-1.8 1.3 0.3 2 1.6 1.8 2.8q-0.4 1.5-0.7 2.9c-0.3 1.1-1.2 1.8-2.2 1.8zm2.1-9.8q-0.2 0-0.5 0c-1.2-0.3-2-1.5-1.8-2.7q0.3-1.5 0.6-2.9c0.3-1.3 1.5-2.1 2.7-1.9 1.2 0.3 2.1 1.5 1.8 2.7q-0.3 1.5-0.6 3c-0.2 1.1-1.1 1.8-2.2 1.8zm1.8-9.8q-0.2 0-0.4 0c-1.2-0.2-2.1-1.4-1.9-2.7q0.3-1.4 0.5-2.9c0.2-1.3 1.4-2.1 2.6-1.9 1.3 0.2 2.1 1.3 1.9 2.6q-0.2 1.5-0.4 3c-0.2 1.1-1.2 1.9-2.3 1.9zm1.5-9.9q-0.2 0-0.3 0c-1.3-0.2-2.2-1.3-2-2.6q0.2-1.5 0.4-2.9c0.1-1.3 1.2-2.2 2.5-2 1.3 0.1 2.2 1.2 2 2.5q-0.2 1.5-0.4 3c-0.1 1.2-1.1 2-2.2 2zm1.1-9.9q-0.1 0-0.2 0c-1.3-0.2-2.2-1.3-2.1-2.5q0.1-1.5 0.3-3c0.1-1.3 1.2-2.2 2.4-2.1 1.3 0.1 2.2 1.2 2.1 2.5q-0.1 1.5-0.2 3c-0.2 1.2-1.2 2.1-2.3 2.1zm0.7-10q0 0-0.1 0c-1.3-0.1-2.2-1.2-2.2-2.4q0.1-1.5 0.2-3c0.1-1.3 1.2-2.3 2.4-2.2 1.3 0.1 2.3 1.2 2.2 2.4q-0.1 1.5-0.2 3c0 1.3-1.1 2.2-2.3 2.2zm0.4-10q0 0 0 0c-1.3 0-2.3-1.1-2.2-2.3q0-1.5 0-3c0-1.3 1-2.3 2.3-2.3 1.3 0 2.3 1.1 2.3 2.3q0 1.6-0.1 3.1c0 1.2-1 2.2-2.3 2.2zm0.1-10c-1.3 0-2.3-1-2.3-2.3q0-1.4-0.1-2.9c0-1.3 1-2.4 2.3-2.4 1.3 0 2.3 1 2.3 2.3q0.1 1.5 0.1 3c0 1.2-1 2.3-2.3 2.3q0 0 0 0zm-0.3-10c-1.2 0-2.3-0.9-2.3-2.2q-0.1-1.5-0.2-2.9c-0.1-1.3 0.9-2.4 2.2-2.5 1.2 0 2.3 0.9 2.4 2.2q0.1 1.5 0.2 3c0 1.3-0.9 2.3-2.2 2.4q-0.1 0-0.1 0zm-0.7-10c-1.2 0-2.2-0.9-2.3-2.1q-0.1-1.4-0.3-2.9c-0.1-1.3 0.8-2.4 2.1-2.5 1.2-0.1 2.4 0.8 2.5 2q0.1 1.5 0.3 3c0.1 1.3-0.9 2.4-2.1 2.5q-0.1 0-0.2 0zm-1.1-9.9c-1.1 0-2.1-0.9-2.3-2q-0.1-1.5-0.4-2.9c-0.1-1.3 0.7-2.5 2-2.6 1.2-0.2 2.4 0.6 2.6 1.9q0.2 1.5 0.4 3c0.2 1.3-0.7 2.4-2 2.6q-0.1 0-0.3 0zm-1.5-9.9c-1.1 0-2.1-0.8-2.3-1.9q-0.3-1.4-0.6-2.9c-0.2-1.2 0.6-2.4 1.8-2.7 1.3-0.2 2.5 0.6 2.7 1.8q0.3 1.5 0.6 3c0.2 1.2-0.6 2.4-1.8 2.7q-0.2 0-0.4 0zm-2.2-9.7c-1 0-2-0.7-2.2-1.8q-0.4-1.4-0.8-2.8c-0.3-1.3 0.4-2.5 1.6-2.9 1.2-0.3 2.5 0.4 2.8 1.7q0.5 1.4 0.8 2.9c0.3 1.2-0.4 2.5-1.6 2.8q-0.3 0.1-0.6 0.1zm-2.8-9.7c-1 0-1.9-0.6-2.2-1.5q-0.4-1.4-0.9-2.8c-0.5-1.2 0.2-2.5 1.4-3 1.2-0.4 2.5 0.3 2.9 1.4q0.5 1.5 1 2.9c0.4 1.2-0.3 2.5-1.5 2.9q-0.3 0.2-0.7 0.1zm-3.5-9.3c-0.9 0-1.7-0.6-2.1-1.4q-0.6-1.4-1.2-2.7c-0.5-1.2 0-2.5 1.2-3.1 1.1-0.5 2.5 0 3 1.2q0.6 1.4 1.2 2.8c0.5 1.2 0 2.5-1.2 3q-0.4 0.2-0.9 0.2zm-4.3-9.1c-0.8 0-1.6-0.4-2-1.2q-0.7-1.3-1.4-2.5c-0.7-1.1-0.3-2.5 0.8-3.2 1.1-0.6 2.5-0.2 3.2 0.9q0.7 1.3 1.4 2.7c0.6 1.1 0.2 2.5-0.9 3.1q-0.5 0.2-1.1 0.2zm-5.2-8.5c-0.7 0-1.4-0.4-1.9-1q-0.8-1.2-1.6-2.4c-0.8-1-0.6-2.4 0.4-3.2 1-0.7 2.5-0.5 3.2 0.5q1 1.2 1.8 2.5c0.7 1 0.5 2.5-0.6 3.2q-0.6 0.4-1.3 0.4zm-6.1-7.9c-0.7 0-1.3-0.2-1.7-0.7q-1-1.1-2-2.1c-0.9-0.9-0.9-2.4 0-3.3 0.9-0.9 2.3-0.9 3.2 0q1.1 1.1 2.2 2.3c0.8 0.9 0.7 2.4-0.2 3.2-0.4 0.4-1 0.6-1.5 0.6zm-7.3-6.9c-0.5 0-1-0.1-1.4-0.5q-1.1-0.9-2.3-1.7c-1-0.8-1.2-2.2-0.5-3.2 0.8-1.1 2.2-1.3 3.2-0.5q1.3 0.9 2.5 1.9c1 0.8 1.1 2.2 0.3 3.2-0.4 0.6-1.1 0.8-1.8 0.8zm-8.2-5.6q-0.6 0-1.1-0.2-1.3-0.7-2.6-1.4c-1.1-0.5-1.6-1.9-1-3 0.5-1.2 1.9-1.7 3-1.1q1.4 0.7 2.8 1.4c1.1 0.7 1.5 2.1 0.9 3.2-0.4 0.7-1.2 1.1-2 1.1zm-9.1-4q-0.4 0-0.8-0.1-0.4-0.2-0.9-0.3c-1.2-0.4-1.8-1.7-1.4-2.9 0.3-1.2 1.6-1.9 2.8-1.5q0.5 0.2 1 0.3c1.2 0.4 1.8 1.8 1.4 3-0.3 0.9-1.2 1.5-2.1 1.5z"/><path class="al" d="m834 703.2c-7.8 0.4-15.3 0.1-20.4-0.1 4.6-3.3 15.2-10.4 24.1-13.3l6.1-0.3q2 3.1 2.8 10.3c-1 1.2-4 3-12.6 3.4z"/><path class="am" d="m813.5 703.1q0.1 0 0.1 0c5.1 0.2 12.6 0.5 20.4 0.1 8.6-0.4 11.6-2.2 12.6-3.4q0 0.5 0.1 1c0.1 1.6-1.1 3-2.7 3.1-6.4 0.5-22.2 1.6-29.9 1.2-1-0.1-1.4-1.4-0.6-2z"/><path class="an" d="m890 701.1c0.5-3.7 1.4-9 2.2-10.3q1.1-2.2 4.9 0 2.7 1.2 3.9 3.3c0.8 1.3 2.9 5.1 4.4 7.7q0.3 0.4 0.2 0.9l-15.2 0.5c-0.4-0.6-0.6-1.3-0.4-2.1z"/><path class="ao" d="m905.6 702.7c0 0.8-0.7 1.6-1.7 1.6l-10.8 0.3c-1.2 0.1-2.2-0.5-2.7-1.4z"/><path class="ap" d="m897.8 678.3c1.3 2.7 1.3 9.8 1.1 13.4 0 1.4-1.1 2.6-2.5 2.8-0.8 0.1-1.5 0.1-2.2 0.2-1.2 0-2.2-0.8-2.4-1.9-0.9-4.2-2.9-13.8-3-14.2q7.1-4.1 9-0.3z"/><path class="aq" d="m845 681.3c-0.9 0 0.3 4.4-1 8.7-0.3 1-1 1.7-2 1.7-0.7 0-1.5 0-2.2 0-1.2-0.1-2.2-1-2.3-2.2l-1-11.2z"/><path class="ar" d="m858.4 556.9c15.2 19.9 37.7 110.5 40.9 123.7 0.3 1-0.3 2-1.3 2.3-2.6 1-6 1.3-7.6 1.4-0.6 0-1.1-0.3-1.2-0.9q-5.7-21.9-43.6-101.6c4.6 29.8 0.8 93.1 0.4 100.6-0.1 0.4-0.4 0.8-0.8 0.9-3.2 0.6-6.5 0.3-8.2 0-0.7-0.1-1.2-0.6-1.2-1.3-0.8-40.2-14.1-117.9-14.5-119.7z"/><path class="as" d="m845.2 582.1l-5-5.2c-0.2-0.2-0.2-0.5 0-0.7 0.2-0.2 0.5-0.2 0.7 0l5 5.2c0.2 0.2 0.2 0.5 0 0.7q-0.1 0.2-0.3 0.2-0.2 0-0.4-0.2z"/><path class="at" d="m808.5 462.1c11.3-1.7 33.6-4.2 48.1 0.1l-1.6 44.8-52.5-5.7-4.5-6.3q2.1-31.7 10.5-32.9z"/><path class="au" d="m834.7 438.1q1 17.8 0.8 23.3-14.6 2.4-18-0.1l2.7-21.1z"/><path class="av" d="m838.5 429.2q0.7 3.7-5 11.9c-3.6 5.3-9.5 8-15.9 6.1-6.5-1.8-4.8-5.4-3.9-11q0.9-5.7 6.8-16 17.3 5.3 18 9z"/><path class="aw" d="m831.7 436.8l-0.8-0.1q4.2-6.7 1.3-8.2c-2.9-1.6-14.5-5.3-16.6-9.8-2.1-4.3 0.7-9.4 4.2-10.5 0.2-0.1 0.4 0.1 0.5 0.3l0.2 0.5c0.2 0.4 0.7 0.4 0.8 0 0.2-0.3 0.7-0.4 0.9 0 0.6 1.3 2.5 3.6 8.1 5.3 8 2.4 13 6.2 12.5 11.8 0 0.4 0.3 0.6 0.6 0.5 0.7-0.3 1.7-0.4 2.8 0.8 2 2.1 0.6 6.9-4.7 10.4-0.3 0.1-0.3 0.5-0.1 0.7 0.9 0.6 2 2.2-1.6 3.6-3.7 1.5-5.7 1.1-6.5 0.8-0.2-0.1-0.3-0.3-0.3-0.5l0.9-4.9c0-0.3-0.2-0.5-0.4-0.6z"/><path class="ax" d="m831.4 437.8q2.5-6.7 5.4-4.5c2.9 2.3-2.4 7.6-4.9 7.6z"/><path class="ay" d="m768.5 497.1l1.4-5.4c0.6-2.8 3.3-4.4 6.1-3.9l131.2 26.8c3 0.6 4.9 3.5 4.3 6.5l-8 37.9z"/><path class="az" d="m756 563.6l9.9-70.9c0.2-1.5 1.6-2.4 3.1-2.1l134.7 29.9c2.9 0.7 4.7 3.5 4 6.4l-11.3 49z"/><path class="aA" d="m759.6 560.4l3.8-63.3c0.1-1.6 1.6-2.8 3.2-2.4l136.2 28.8c1.9 0.4 3.1 2.2 2.8 4.2l-7.2 45.7z"/><path class="aB" d="m749.7 575.4l8.6-68.6c0.4-3.4 3.6-5.7 7-5.1l139.7 26.4c2.8 0.5 4.7 3.2 4.1 6l-11.8 62.5c-0.5 3-3.3 5-6.3 4.6l-135.3-18.1c-3.8-0.5-6.5-3.9-6-7.7z"/><path class="aC" d="m814.5 511c-0.6 2.9-3.4 4.8-6.3 4.2l-31.1-5.8c-2.9-0.6-4.9-3.4-4.3-6.3 0.5-2.9 3.3-4.8 6.3-4.3l31.1 5.9c2.9 0.6 4.8 3.4 4.3 6.3z"/><path class="aD" d="m841.9 481.7l14.7-19.5q23.5 25 28 56.7l-14.6 7.2c-4.6-10.7-13-25.2-28.1-44.4z"/><path class="aE" d="m862.9 569.8c1.8-2.9 5.1-8.5 6.8-10.2q-1.5-0.9-4.4-0.6c-2.9 0.4-5.2-1-5.1-2.6l13.8-4.3c0.6-1.2 3.4-8.6-4-26l14.6-7.2c1.7 11.9 0.8 24.8-5.1 37.6q-4.6 14.2-9.8 17.3c-13.7 8.2-7.5-2.9-6.8-4z"/><path class="aF" d="m1008 703.2c-7.8 0.4-15.3 0.1-20.4-0.1 4.6-3.3 15.2-10.4 24.1-13.3l6.1-0.3q2 3.1 2.8 10.3c-1 1.2-4 3-12.6 3.4z"/><path class="aG" d="m987.5 703.1q0.1 0 0.1 0c5.1 0.2 12.6 0.5 20.4 0.1 8.6-0.4 11.6-2.2 12.6-3.4q0 0.5 0.1 1c0.1 1.6-1.1 3-2.7 3.1-6.4 0.5-22.2 1.6-29.9 1.2-1-0.1-1.4-1.4-0.6-2z"/><path class="aH" d="m1064 701.1c0.5-3.7 1.4-9 2.2-10.3q1.1-2.2 4.9 0 2.7 1.2 3.9 3.3c0.8 1.3 2.9 5.1 4.4 7.7q0.3 0.4 0.2 0.9l-15.2 0.5c-0.4-0.6-0.6-1.3-0.4-2.1z"/><path class="aI" d="m1079.6 702.7c0 0.8-0.7 1.6-1.7 1.6l-10.8 0.3c-1.2 0.1-2.2-0.5-2.7-1.4z"/><path class="aJ" d="m1071.8 678.3c1.3 2.7 1.3 9.8 1.1 13.4 0 1.4-1.1 2.6-2.5 2.8-0.8 0.1-1.5 0.1-2.2 0.2-1.2 0-2.2-0.8-2.4-1.9-0.9-4.2-2.9-13.8-3-14.2q7.1-4.1 9-0.3z"/><path class="aK" d="m1019 681.3c-0.9 0 0.3 4.4-1 8.7-0.3 1-1 1.7-2 1.7-0.7 0-1.5 0-2.2 0-1.2-0.1-2.2-1-2.3-2.2l-1-11.2z"/><path class="aL" d="m1032.4 556.9c15.2 19.9 37.7 110.5 40.9 123.7 0.3 1-0.3 2-1.3 2.3-2.6 1-6 1.3-7.6 1.4-0.6 0-1.1-0.3-1.2-0.9q-5.7-21.9-43.6-101.6c4.6 29.8 0.8 93.1 0.4 100.6-0.1 0.4-0.4 0.8-0.8 0.9-3.2 0.6-6.5 0.3-8.2 0-0.7-0.1-1.2-0.6-1.2-1.3-0.8-40.2-14.1-117.9-14.5-119.7z"/><path class="aM" d="m1019.2 582.1l-5-5.2c-0.2-0.2-0.2-0.5 0-0.7 0.2-0.2 0.5-0.2 0.7 0l5 5.2c0.2 0.2 0.2 0.5 0 0.7q-0.1 0.2-0.3 0.2-0.2 0-0.4-0.2z"/><path class="aN" d="m982.5 462.1c11.3-1.7 33.6-4.2 48.1 0.1l-1.6 44.8-52.5-5.7-4.5-6.3q2.1-31.7 10.5-32.9z"/><path class="aO" d="m1008.7 438.1q1 17.8 0.8 23.3-14.6 2.4-18-0.1l2.7-21.1z"/><path class="aP" d="m942.5 497.1l1.4-5.4c0.6-2.8 3.3-4.4 6.1-3.9l131.2 26.8c3 0.6 4.9 3.5 4.3 6.5l-8 37.9z"/><path class="aQ" d="m930 563.6l9.9-70.9c0.2-1.5 1.6-2.4 3.1-2.1l134.7 29.9c2.9 0.7 4.7 3.5 4 6.4l-11.3 49z"/><path class="aR" d="m933.6 560.4l3.8-63.3c0.1-1.6 1.6-2.8 3.2-2.4l136.2 28.8c1.9 0.4 3.1 2.2 2.8 4.2l-7.2 45.7z"/><path class="aS" d="m923.7 575.4l8.6-68.6c0.4-3.4 3.6-5.7 7-5.1l139.7 26.4c2.8 0.5 4.7 3.2 4.1 6l-11.8 62.5c-0.5 3-3.3 5-6.3 4.6l-135.3-18.1c-3.8-0.5-6.5-3.9-6-7.7z"/><path class="aT" d="m988.5 511c-0.6 2.9-3.4 4.8-6.3 4.2l-31.1-5.8c-2.9-0.6-4.9-3.4-4.3-6.3 0.5-2.9 3.3-4.8 6.3-4.3l31.1 5.9c2.9 0.6 4.8 3.4 4.3 6.3z"/><path class="aU" d="m1015.9 481.7l14.7-19.5q23.5 25 28 56.7l-14.6 7.2c-4.6-10.7-13-25.2-28.1-44.4z"/><path class="aV" d="m1036.9 569.8c1.8-2.9 5.1-8.5 6.8-10.2q-1.5-0.9-4.4-0.6c-2.9 0.4-5.2-1-5.1-2.6l13.8-4.3c0.6-1.2 3.4-8.6-4-26l14.6-7.2c1.7 11.9 0.8 24.8-5.1 37.6q-4.6 14.2-9.8 17.3c-13.7 8.2-7.5-2.9-6.8-4z"/><path class="aW" d="m1009 424.5l-3.7 18.9c-8.5 7-19.3 9.3-21.5 2.8q-2.2-6.5 3.7-24.4z"/><path class="aX" d="m1003.4 434.7c-0.4-0.1-0.6-0.5-0.4-0.9 0.5-1.2 1.5-3.6 1.5-5.6q1.5-1.3-4.3-1.7c-5.8-0.4-14.5-1-17-5.5-2.5-4.3 0-16.7 8.7-8.6 0.3 0.3 0.9 0.2 1.1-0.2 0.9-1.7 3.4-5.4 8-4.2 4.3 1.1 5.3 4 5.5 5.5 0 0.4 0.5 0.7 0.9 0.5 1.9-0.7 6.7-1.8 9.8 2.7 2.6 3.8 1.7 6.3 0.8 7.7-0.3 0.4 0 1 0.5 1 1.4 0.2 3.3 1.1 3.7 4.2 0.4 4.3-4.4 4.8-5.8 4.8-0.3 0-0.5 0.1-0.6 0.3-0.9 1.5-5.3 7.9-10.9 9.5-0.5 0.2-1-0.2-0.9-0.7l1.3-7.7c0-0.3-0.2-0.6-0.5-0.7z"/><path class="aY" d="m1002.6 435.9q5.5-5.3 6.6-1.8c1 3.5-4.7 6.2-8 5.3z"/></svg>