<svg version="1.2" xmlns="http://www.w3.org/2000/svg" viewBox="0 0 2125 1322" width="2125" height="1322"><defs><linearGradient id="P" gradientUnits="userSpaceOnUse"/><linearGradient id="g1" x1="-783.8" y1="1409.6" x2="743.3" y2="-590.6" href="#P"><stop stop-color="#b37cff"/><stop offset="1" stop-color="#f895e7"/></linearGradient><linearGradient id="g2" x1="3487.9" y1="1442.7" x2="543.6" y2="1210.1" href="#P"><stop stop-color="#b37cff"/><stop offset="1" stop-color="#f895e7"/></linearGradient><linearGradient id="g3" x1="353.5" y1="309.1" x2="879.3" y2="1444.5" href="#P"><stop stop-color="#cb236d"/><stop offset="1" stop-color="#4c246d"/></linearGradient><linearGradient id="g4" x1="699.6" y1="68.7" x2="609.8" y2="433.7" href="#P"><stop stop-color="#b37cff"/><stop offset="1" stop-color="#f895e7"/></linearGradient><linearGradient id="g5" x1="1598.3" y1="774.6" x2="1977" y2="263.3" href="#P"><stop stop-color="#a737d5"/><stop offset="1" stop-color="#ef497a"/></linearGradient><linearGradient id="g6" x1="2189.4" y1="68.5" x2="1856.6" y2="864.8" href="#P"><stop stop-color="#cb236d"/><stop offset="1" stop-color="#4c246d"/></linearGradient><linearGradient id="g7" x1="2241.9" y1="214.2" x2="1013.7" y2="1323.1" href="#P"><stop stop-color="#fdf53f"/><stop offset="1" stop-color="#d93c65"/></linearGradient><linearGradient id="g8" x1="2281.5" y1="781.4" x2="894.4" y2="2365.8" href="#P"><stop stop-color="#fdf53f"/><stop offset="1" stop-color="#d93c65"/></linearGradient><linearGradient id="g9" x1="2239.8" y1="210.9" x2="1011.2" y2="1320" href="#P"><stop stop-color="#fdf53f"/><stop offset="1" stop-color="#d93c65"/></linearGradient><linearGradient id="g10" x1="1720" y1="566.3" x2="554.8" y2="2290.2" href="#P"><stop stop-color="#53d8ff"/><stop offset="1" stop-color="#3840f7"/></linearGradient><linearGradient id="g11" x1="682.7" y1="153.6" x2="250.7" y2="1357.6" href="#P"><stop stop-color="#cb236d"/><stop offset="1" stop-color="#4c246d"/></linearGradient><linearGradient id="g12" x1="742.7" y1="175.2" x2="310.7" y2="1379.2" href="#P"><stop stop-color="#cb236d"/><stop offset="1" stop-color="#4c246d"/></linearGradient><linearGradient id="g13" x1="804.1" y1="197.2" x2="372.1" y2="1401.2" href="#P"><stop stop-color="#cb236d"/><stop offset="1" stop-color="#4c246d"/></linearGradient><linearGradient id="g14" x1="896.6" y1="230.4" x2="464.6" y2="1434.4" href="#P"><stop stop-color="#cb236d"/><stop offset="1" stop-color="#4c246d"/></linearGradient><linearGradient id="g15" x1="940.4" y1="246.1" x2="508.4" y2="1450.1" href="#P"><stop stop-color="#cb236d"/><stop offset="1" stop-color="#4c246d"/></linearGradient><linearGradient id="g16" x1="987.1" y1="262.8" x2="555.1" y2="1466.8" href="#P"><stop stop-color="#cb236d"/><stop offset="1" stop-color="#4c246d"/></linearGradient><linearGradient id="g17" x1="1047.1" y1="284.4" x2="615.1" y2="1488.4" href="#P"><stop stop-color="#cb236d"/><stop offset="1" stop-color="#4c246d"/></linearGradient><linearGradient id="g18" x1="1108.6" y1="306.5" x2="676.6" y2="1510.5" href="#P"><stop stop-color="#cb236d"/><stop offset="1" stop-color="#4c246d"/></linearGradient><linearGradient id="g19" x1="1212.1" y1="1164.5" x2="1092.8" y2="1263.6" href="#P"><stop stop-color="#a737d5"/><stop offset="1" stop-color="#ef497a"/></linearGradient><linearGradient id="g20" x1="1185.8" y1="1160.4" x2="1093.5" y2="1237" href="#P"><stop stop-color="#a737d5"/><stop offset="1" stop-color="#ef497a"/></linearGradient><linearGradient id="g21" x1="519.4" y1="356.5" x2="496" y2="423.5" href="#P"><stop stop-color="#f9b776"/><stop offset="1" stop-color="#f47960"/></linearGradient><linearGradient id="g22" x1="516.5" y1="407.7" x2="534.9" y2="370.7" href="#P"><stop stop-color="#f9b776"/><stop offset="1" stop-color="#f47960"/></linearGradient><linearGradient id="g23" x1="516.1" y1="751.5" x2="442" y2="828.6" href="#P"><stop stop-color="#53d8ff"/><stop offset="1" stop-color="#3840f7"/></linearGradient><linearGradient id="g24" x1="392.7" y1="787.6" x2="406.5" y2="787.6" href="#P"><stop stop-color="#f9b776"/><stop offset="1" stop-color="#f47960"/></linearGradient><linearGradient id="g25" x1="-1720.3" y1="3097.9" x2="-2087.9" y2="3535" href="#P"><stop stop-color="#53d8ff"/><stop offset="1" stop-color="#3840f7"/></linearGradient><linearGradient id="g26" x1="471.3" y1="709" x2="396.4" y2="786.8" href="#P"><stop stop-color="#53d8ff"/><stop offset="1" stop-color="#3840f7"/></linearGradient><linearGradient id="g27" x1="342.8" y1="784.6" x2="354.8" y2="784.6" href="#P"><stop stop-color="#f9b776"/><stop offset="1" stop-color="#f47960"/></linearGradient><linearGradient id="g28" x1="-1595.6" y1="3410.1" x2="-1937.2" y2="3816.3" href="#P"><stop stop-color="#53d8ff"/><stop offset="1" stop-color="#3840f7"/></linearGradient><linearGradient id="g29" x1="450.1" y1="545.2" x2="268.7" y2="699.6" href="#P"><stop stop-color="#fdf53f"/><stop offset="1" stop-color="#d93c65"/></linearGradient><linearGradient id="g30" x1="482.5" y1="346" x2="458.5" y2="414.6" href="#P"><stop stop-color="#f9b776"/><stop offset="1" stop-color="#f47960"/></linearGradient><linearGradient id="g31" x1="385.4" y1="472.2" x2="197.4" y2="632.2" href="#P"><stop stop-color="#fdf53f"/><stop offset="1" stop-color="#d93c65"/></linearGradient><linearGradient id="g32" x1="363.7" y1="419.1" x2="399" y2="419.1" href="#P"><stop stop-color="#f9b776"/><stop offset="1" stop-color="#f47960"/></linearGradient><linearGradient id="g33" x1="395" y1="433.9" x2="357.5" y2="411" href="#P"><stop stop-color="#f9b776"/><stop offset="1" stop-color="#f47960"/></linearGradient><linearGradient id="g34" x1="372" y1="347.7" x2="420.3" y2="385.8" href="#P"><stop stop-color="#2b3582"/><stop offset="1" stop-color="#150e42"/></linearGradient><linearGradient id="g35" x1="392.8" y1="430.3" x2="359.5" y2="410" href="#P"><stop stop-color="#f9b776"/><stop offset="1" stop-color="#f47960"/></linearGradient><linearGradient id="g36" x1="313.8" y1="700.3" x2="285.7" y2="498.7" href="#P"><stop stop-color="#f9b776"/><stop offset="1" stop-color="#f47960"/></linearGradient><linearGradient id="g37" x1="319" y1="679.5" x2="297.2" y2="522.6" href="#P"><stop stop-color="#f9b776"/><stop offset="1" stop-color="#f47960"/></linearGradient><linearGradient id="g38" x1="708.7" y1="1037.8" x2="83.7" y2="1749.4" href="#P"><stop stop-color="#2b3582"/><stop offset="1" stop-color="#150e42"/></linearGradient><linearGradient id="g39" x1="649.5" y1="985.8" x2="24.5" y2="1697.5" href="#P"><stop stop-color="#2b3582"/><stop offset="1" stop-color="#150e42"/></linearGradient><linearGradient id="g40" x1="98" y1="1678.3" x2="104.3" y2="1468.3" href="#P"><stop stop-color="#2b3582"/><stop offset="1" stop-color="#150e42"/></linearGradient><linearGradient id="g41" x1="220.1" y1="1682" x2="226.4" y2="1471.9" href="#P"><stop stop-color="#2b3582"/><stop offset="1" stop-color="#150e42"/></linearGradient><linearGradient id="g42" x1="268.9" y1="1691.8" x2="275.3" y2="1479.6" href="#P"><stop stop-color="#2b3582"/><stop offset="1" stop-color="#150e42"/></linearGradient><linearGradient id="g43" x1="253.4" y1="1683.4" x2="259.7" y2="1473.2" href="#P"><stop stop-color="#2b3582"/><stop offset="1" stop-color="#150e42"/></linearGradient><linearGradient id="g44" x1="222.3" y1="1682.5" x2="228.6" y2="1472.2" href="#P"><stop stop-color="#2b3582"/><stop offset="1" stop-color="#150e42"/></linearGradient><linearGradient id="g45" x1="188.6" y1="1681.5" x2="194.9" y2="1471.2" href="#P"><stop stop-color="#2b3582"/><stop offset="1" stop-color="#150e42"/></linearGradient><linearGradient id="g46" x1="149.3" y1="1680.3" x2="155.6" y2="1470" href="#P"><stop stop-color="#2b3582"/><stop offset="1" stop-color="#150e42"/></linearGradient><linearGradient id="g47" x1="115.1" y1="1679.2" x2="121.4" y2="1469" href="#P"><stop stop-color="#2b3582"/><stop offset="1" stop-color="#150e42"/></linearGradient><linearGradient id="g48" x1="1387.8" y1="856.7" x2="1352.6" y2="964.7" href="#P"><stop stop-color="#c4421b"/><stop offset="1" stop-color="#5c0e16"/></linearGradient><linearGradient id="g49" x1="1540.9" y1="761" x2="1290.2" y2="952" href="#P"><stop stop-color="#a737d5"/><stop offset="1" stop-color="#ef497a"/></linearGradient><linearGradient id="g50" x1="1345.1" y1="1141.9" x2="1418.8" y2="1141.9" href="#P"><stop stop-color="#c4421b"/><stop offset="1" stop-color="#5c0e16"/></linearGradient><linearGradient id="g51" x1="1461" y1="1066.1" x2="1424.4" y2="1304.2" href="#P"><stop stop-color="#53d8ff"/><stop offset="1" stop-color="#3840f7"/></linearGradient><linearGradient id="g52" x1="1390.8" y1="1055.1" x2="1354.1" y2="1293.9" href="#P"><stop stop-color="#53d8ff"/><stop offset="1" stop-color="#3840f7"/></linearGradient><linearGradient id="g53" x1="1300.1" y1="1153" x2="1343.1" y2="1153" href="#P"><stop stop-color="#c4421b"/><stop offset="1" stop-color="#5c0e16"/></linearGradient><linearGradient id="g54" x1="1208.4" y1="826.7" x2="1291.6" y2="826.7" href="#P"><stop stop-color="#c4421b"/><stop offset="1" stop-color="#5c0e16"/></linearGradient><linearGradient id="g55" x1="1339.6" y1="937.9" x2="1496.9" y2="1249.4" href="#P"><stop stop-color="#cb236d"/><stop offset="1" stop-color="#4c246d"/></linearGradient><linearGradient id="g56" x1="1623.3" y1="721.9" x2="1381.6" y2="1133.5" href="#P"><stop stop-color="#53d8ff"/><stop offset="1" stop-color="#3840f7"/></linearGradient><linearGradient id="g57" x1="1313.3" y1="935.4" x2="1339.4" y2="935.4" href="#P"><stop stop-color="#f9b776"/><stop offset="1" stop-color="#f47960"/></linearGradient><linearGradient id="g58" x1="1356.7" y1="893.4" x2="1529.5" y2="905.1" href="#P"><stop stop-color="#c4421b"/><stop offset="1" stop-color="#5c0e16"/></linearGradient><linearGradient id="g59" x1="1437" y1="933.8" x2="1374.8" y2="1058.4" href="#P"><stop stop-color="#2b3582"/><stop offset="1" stop-color="#150e42"/></linearGradient><linearGradient id="g60" x1="1654.2" y1="1296" x2="1816.7" y2="996.6" href="#P"><stop stop-color="#a737d5"/><stop offset="1" stop-color="#ef497a"/></linearGradient><linearGradient id="g61" x1="1588.9" y1="1235.6" x2="1781.9" y2="1098.7" href="#P"><stop stop-color="#b37cff"/><stop offset="1" stop-color="#f895e7"/></linearGradient></defs><style>.a{opacity:.5;fill:url(#g1)}.b{opacity:.5;fill:url(#g2)}.c{fill:url(#g3)}.d{opacity:.5;fill:#fff}.e{fill:url(#g4)}.f{fill:url(#g5)}.g{fill:url(#g6)}.h{fill:url(#g7)}.i{fill:url(#g8)}.j{fill:url(#g9)}.k{fill:url(#g10)}.l{opacity:.2;fill:#fff}.m{fill:#fff}.n{fill:url(#g11)}.o{fill:url(#g12)}.p{fill:url(#g13)}.q{fill:url(#g14)}.r{fill:url(#g15)}.s{fill:url(#g16)}.t{fill:url(#g17)}.u{fill:url(#g18)}.v{fill:url(#g19)}.w{fill:url(#g20)}.x{fill:url(#g21)}.y{fill:url(#g22)}.z{fill:url(#g23)}.A{fill:url(#g24)}.B{fill:url(#g25)}.C{fill:url(#g26)}.D{fill:url(#g27)}.E{fill:url(#g28)}.F{fill:url(#g29)}.G{fill:url(#g30)}.H{fill:url(#g31)}.I{fill:url(#g32)}.J{fill:url(#g33)}.K{fill:url(#g34)}.L{fill:url(#g35)}.M{fill:url(#g36)}.N{fill:url(#g37)}.O{fill:url(#g38)}.P{fill:url(#g39)}.Q{fill:url(#g40)}.R{fill:url(#g41)}.S{fill:url(#g42)}.T{fill:url(#g43)}.U{fill:url(#g44)}.V{fill:url(#g45)}.W{fill:url(#g46)}.X{fill:url(#g47)}.Y{fill:url(#g48)}.Z{fill:url(#g49)}.a0{fill:url(#g50)}.a1{fill:url(#g51)}.a2{fill:url(#g52)}.a3{fill:url(#g53)}.a4{fill:url(#g54)}.a5{fill:url(#g55)}.a6{fill:url(#g56)}.a7{fill:url(#g57)}.a8{fill:url(#g58)}.a9{fill:url(#g59)}.aa{fill:url(#g60)}.ab{fill:url(#g61)}</style><path class="a" d="m2123.5 947.6c-7.9 57.5-43.1 108.8-80.5 155.9-50.2 63.3-109.5 125.5-189.9 153.3-60 20.8-125.9 20.5-190.1 19.9q-648.7-6.3-1297.4-12.5c-30.6-0.3-62.8-0.9-89.3-14.8-26.6-13.9-44.3-45.8-29.8-70.2 6.1-10.2 16.8-17.8 22.4-28.2 13.5-24.9-8-55.3-35.3-67.8-27.4-12.6-59.2-13.7-88.8-20.9-82.1-20.1-144.4-93.5-144.7-170.5-0.3-77.1 61.5-150.8 143.6-171.4 56.5-14.1 130.1-11.5 156.4-59 18.9-33.9-0.5-76-29.7-103.3-29.3-27.2-67.4-45.4-97.8-71.7-85.2-73.7-90.8-204.7-26.5-294.1 64.3-89.5 185.4-137.5 303.3-137.9 117.9-0.4 232.1 41.7 330.1 101.2 73.8 44.7 157.5 102.6 241.7 77.1l-4.2 20c18.8-82.7 76-157.7 154.7-203.1 78.7-45.3 178-60.4 268.8-40.9 62.2 13.4 122.8 45 153 96.1 17.5 29.7 25.7 66.6 56.4 85.7 30.9 19.3 73.4 12.8 107.6-1.3 34.2-14 65.2-34.9 101.5-43.6 72.8-17.6 153.4 21 190.2 80.5 36.8 59.6 34.3 134.5 6.8 197.9-27.6 63.5-77.7 117-132.9 163.5-24.3 20.4-50.1 40.2-67.2 66-17 25.7-23.8 59.4-7.7 85.7 17.6 28.5 56.4 40.3 92.2 44.4 35.9 4.1 73.5 3.3 106.3 17 58.2 24.2 84.8 89.4 76.8 147z"/><path class="b" d="m1107.6 221.7c245.5-37.6 282.9-211.1 510.6-188.8 156.1 15.3 302.8 112.9 385.3 238.2 92.1 139.8 86.7 287.5 85.1 333-5.1 139.9-56.7 157.5-58 299.9-1.6 173.5 74.2 230.4 32.6 289-46.5 65.7-153.5 10.6-406.4 27-241.9 15.6-289.5 75.4-466.7 49.9-106.9-15.3-155.9-46.6-260.4-88.2-459.6-182.6-783.2-82.7-829.4-217.1-31.4-91.3 113.7-149.9 92.8-304.3-18.2-135.3-138.8-157.4-154.5-276.8-17.1-130.4 100.7-298.8 248.4-354.7 272-103 451.3 249.4 820.6 192.9z"/><path class="c" d="m203.4 255.2c12.6-28 51.2-30.9 68-5.2q249.7 383.1 299.3 1021.5c-647.3-250.8-451.5-828.8-367.3-1016.3z"/><path class="d" d="m515.6 1222.2c1.2 1.7-1.1 3.7-2.6 2.2-54.9-55.9-259.8-320.7-277.8-787.3 0-1.5 2.2-1.7 2.4-0.3 13.7 109.7 76.6 516 278 785.4z"/><path class="e" d="m403.4 85.3c7.3-15.1 28.4-16 37.1-1.7q129.3 213 145.1 561.5c-348-147.9-231.3-459.2-182.2-559.8z"/><path class="d" d="m556.5 617.3c0.7 0.9-0.7 2-1.4 1.1-29-31.4-135.9-179.1-137.6-433.6 0-0.8 1.2-0.8 1.3 0 5.6 59.9 32.8 282.3 137.7 432.5z"/><path class="f" d="m1513.6 1180.1q189.9-522.1 487.7-784.2c20.1-17.6 51.6-6.2 55.7 20.1 26.8 176.3 55.9 705-543.4 764.1z"/><path class="d" d="m1986.2 559.9c0.5-1.2 2.3-0.5 1.9 0.8-123.6 385.8-356.4 559.5-415.3 593.5-1.6 0.9-3.1-1.3-1.7-2.4 231-178.4 378-503.4 415.1-591.9z"/><path class="g" d="m1407.2 961.7q116.6-587.3 390.8-915.4c18.5-22.1 54-15.2 62.6 12.3 57.4 183.4 175.3 741.8-453.4 903.1z"/><path class="d" d="m1808.8 223.5c0.3-1.4 2.4-0.9 2.1 0.4-68.3 431.3-287.8 654.5-345 700.4-1.5 1.3-3.5-0.9-2.1-2.3 216.7-227.9 320.1-598.2 345-698.5z"/><path class="h" d="m1513.9 227l350.9 328.7c-10.5 9.8-24.4 16.1-39.7 16.9l-893.9 46.6c-11 0.5-21.4-1.7-30.5-6.2l471.8-390c40.4-33.5 103.3-31.7 141.4 4z"/><path class="i" d="m1807.1 1279.1h-860.6c-34.7 0-62.9-28.2-62.9-62.9v-560.4c0-33.3 26.1-60.9 59.4-62.8l893.8-49.8c37.4-2.1 68.3 28.8 66.3 66.2l-33.2 610.2c-1.8 33.4-29.4 59.5-62.8 59.5z"/><path class="j" d="m1255.5 937.5l-352.1-327.4c10.4-9.9 24.3-16.2 39.6-17.1l893.8-49.8c10.9-0.6 21.3 1.6 30.5 6l-470.4 391.8c-40.3 33.6-103.2 32-141.4-3.5z"/><path class="k" d="m482.8 180.9c133.8 9.8 435.8 13.8 704.3 26.3 12.6 0.6 24.3 22.1 24.7 34.5l27 1029.5c0.4 13.9-10.8 25.5-25 25.9-116.2 3.5-594.8 16.3-764.7-6-10.3-1.3-18-10.1-17.8-20.3l23.3-1066.9c0.4-14.5 13.5-24.1 28.2-23z"/><path class="l" d="m489.7 199.1c123 5.5 428.9 10.4 681.9 19.6 21 0.8 19.6 38.9 19.9 50.8l25.7 978.8c0.4 13.4-10.3 24.6-24 25-111.9 3.4-572.4 15.7-735.9-5.8-10-1.3-17.3-9.7-17.1-19.6l22.4-1026.7c0.3-14 12.9-22.8 27.1-22.1z"/><g style="opacity:.6"><path class="m" d="m1137.6 517.4c2.2 0.1 4.1 1.9 4.2 4.1l0.7 13.9c0.1 2.2-1.6 4.1-3.8 4.1l-626.9 2.8c-2.2 0-4.1-1.8-4.1-4l-0.6-21.4c0-2.2 1.8-4 3.9-4z"/></g><g style="opacity:.6"><path class="m" d="m1141.5 614c2.2 0 4.1 1.8 4.2 4l0.6 14c0.1 2.2-1.6 4-3.8 4l-626.9 2.9c-2.2 0-4-1.8-4.1-4l-0.5-21.4c-0.1-2.2 1.7-4 3.9-4z"/></g><g style="opacity:.6"><path class="m" d="m1140.7 712.4c2.2 0 4.1 1.9 4.2 4l0.7 14c0.1 2.2-1.6 4-3.8 4.1l-626.9 2.8c-2.2 0-4-1.8-4.1-4l-0.5-21.4c-0.1-2.2 1.7-4 3.9-4z"/></g><g style="opacity:.6"><path class="m" d="m1144.6 809c2.2 0 4.1 1.8 4.2 4l0.7 14c0.1 2.2-1.6 4-3.8 4l-627 2.9c-2.2 0-4-1.8-4.1-4l-0.5-21.5c-0.1-2.2 1.7-3.9 3.9-3.9z"/></g><g style="opacity:.6"><path class="m" d="m1137.5 889.4c2.2 0 4.1 1.8 4.2 4l0.7 14c0.1 2.2-1.6 4-3.8 4l-626.9 2.8c-2.2 0-4-1.7-4.1-3.9l-0.5-21.5c-0.1-2.2 1.7-4 3.9-4z"/></g><g style="opacity:.6"><path class="m" d="m1141.4 985.9c2.2 0 4.1 1.9 4.2 4.1l0.7 13.9c0.1 2.2-1.6 4-3.8 4.1l-627 2.8c-2.2 0-4-1.8-4.1-4l-0.5-21.4c-0.1-2.2 1.7-4 3.9-4z"/></g><g style="opacity:.6"><path class="m" d="m1137.5 1072.9c2.2 0 4.1 1.9 4.2 4.1l0.7 13.9c0.1 2.2-1.6 4-3.8 4.1l-626.9 2.8c-2.2 0-4-1.8-4.1-4l-0.5-21.4c-0.1-2.2 1.7-4 3.9-4z"/></g><g style="opacity:.6"><path class="m" d="m720.1 426.1c2.2 0.1 4 1.9 4 4.1l0.3 12.9c0 2.2-1.7 4-3.9 4l-197.7 0.9c-2.2 0-4.3-1.7-4.7-3.9l-3.9-20.1c-0.4-2.2 1.1-3.9 3.3-3.8z"/></g><g style="opacity:.6"><path class="m" d="m784.2 420.3l345.2 5.1c2.2 0.1 4.1 1.9 4.2 4.1l0.4 12.9c0 2.2-1.7 4-3.9 4l-351 1.6c-2.2 0-4-1.8-3.9-4l0.4-15.4c0.1-4.6 3.9-8.3 8.6-8.3z"/></g><g style="opacity:.6"><path class="m" d="m1131.1 1142.9c2.2 0 4 1.8 4 4l0.3 11.8c0 2.2-1.7 4-3.9 4l-220.5 1c-2.2 0-4-1.8-4.1-4l-0.8-16.3c-0.1-2.2 1.6-4 3.8-4z"/></g><path class="m" d="m778 116.9c-1.2 0-2.2-1.1-2.2-2.4 0-1.2 1.1-2.3 2.4-2.2l11 0.3c1.3 0 2.3 1.1 2.3 2.4-0.1 1.3-1.1 2.3-2.4 2.2l-11.1-0.3q0 0 0 0z"/><path class="n" d="m580.4 385.8q-6.6 0-10.5-1.6v-14.9q4 1.3 7.7 1.3 5.2 0 7.6-3.4 2.5-3.3 2.5-9.9v-90h17.1v89.1q0 9.1-3.1 15.7-3 6.7-8.6 10.2-5.6 3.5-12.7 3.5z"/><path fill-rule="evenodd" class="o" d="m684.2 313.2q0 22.8-8.5 35-8.6 12.3-24.5 12.3-16 0-24.5-12.2-8.6-12.3-8.6-35.3 0-22.8 8.6-35 8.5-12.1 24.6-12.1 16 0 24.4 12.2 8.5 12.2 8.5 35.1zm-48.6 0q0 15.7 4 23.9 3.9 8.3 11.6 8.3 15.5 0 15.5-32.2 0-32.2-15.4-32.2-7.8 0-11.7 8.2-4 8.2-4 24z"/><path fill-rule="evenodd" class="p" d="m697.6 267.3h23.5q14.3 0 20.8 5.6 6.6 5.6 6.6 17.7 0 8-3.5 13.3-3.4 5.4-9.4 6.6v0.6q7.8 1.9 11.2 7.3 3.5 5.3 3.5 14.2 0 12.5-6.7 19.6-6.7 7-18.3 7h-27.7zm16.1 37h7.9q5.4 0 7.6-2.9 2.2-2.9 2.2-8.6 0-5.7-2.5-8.2-2.5-2.5-8-2.5h-7.2zm0 14.3v25.7h8.6q5.4 0 8-3.3 2.6-3.2 2.6-10.1 0-12.3-10.8-12.3z"/><path fill-rule="evenodd" class="q" d="m857.9 313.2q0 22.8-8.5 35-8.6 12.3-24.5 12.3-15.9 0-24.5-12.2-8.5-12.3-8.5-35.3 0-22.8 8.5-35 8.6-12.1 24.7-12.1 15.9 0 24.4 12.2 8.4 12.2 8.4 35.1zm-48.6 0q0 15.7 4 23.9 4 8.3 11.6 8.3 15.5 0 15.5-32.2 0-32.2-15.3-32.2-7.8 0-11.8 8.2-4 8.2-4 24z"/><path class="r" d="m888.3 359.2h-17v-91.9h41.2v14.8h-24.2v25.5h22.6v14.8h-22.6z"/><path class="s" d="m941 359.2h-17v-91.9h41.2v14.8h-24.2v25.5h22.6v14.8h-22.6z"/><path class="t" d="m1018.2 359.2h-41.5v-91.9h41.5v14.8h-24.4v21.9h22.6v14.8h-22.6v25.5h24.4z"/><path fill-rule="evenodd" class="u" d="m1048.6 323.5v35.7h-17.1v-91.9h22.4q14.2 0 21 6.8 6.8 6.7 6.8 20.5 0 17.4-11.8 24.3l17.7 40.3h-18.3l-14.6-35.7zm0-14.7h4.4q6.1 0 8.7-3.5 2.7-3.4 2.7-10.2 0-7-2.8-10-2.8-3-8.7-3h-4.3z"/><path fill-rule="evenodd" class="v" d="m1095.6 1223.1c-42.8 0-77.6-34.8-77.6-77.5 0-42.8 34.8-77.6 77.6-77.6 42.7 0 77.5 34.8 77.5 77.6 0 42.7-34.8 77.5-77.5 77.5zm0-151.1c-40.6 0-73.6 33-73.6 73.6 0 40.5 33 73.5 73.6 73.5 40.5 0 73.5-33 73.5-73.5 0-40.6-33-73.6-73.5-73.6z"/><path fill-rule="evenodd" class="w" d="m1095.4 1205.4c-33.1 0-60-26.9-60-60 0-33.1 26.9-60 60-60 33.1 0 60 26.9 60 60 0 33.1-26.9 60-60 60zm0-118c-32 0-58 26-58 58 0 32 26 58 58 58 32 0 58-26 58-58 0-32-26-58-58-58z"/><path class="x" d="m519.4 397.8c0.4 1.2-4 3-6.5-1.8-0.1-2.4-1.6-12.4-0.2-14.3q7.5-10.2 21.9-22.9 2.5 2.4 0.5 4.8l-7 7.3c1.4 2.6 3.2 4.9 4 8.1 0.7 2.4 0.3 5-0.9 7.2-1.3 2.2-2.9 5.1-4.5 7.3q-3 4.3-7.3 4.3z"/><path class="y" d="m525.6 379.7q-1.4 2.3-3.3 13l-5.7-6.3 2-5.4 6.4-5.4c1.3 0.7 2.1 1.8 0.6 4.1z"/><path class="z" d="m401.5 797.6l42.5 19.5c1.1 0.5 1.9 1.4 2.3 2.5 0.6 1.3-0.3 2.7-1.7 2.8-9.3 0.4-35-0.6-47.1-1.1-3.5-0.1-6.2-3.2-5.9-6.7q0.8-9.1 2.4-18.2z"/><path class="A" d="m403.4 789.3l3.1 12.2q-5.1 3.9-12.5 0.4l-1.3-10.9z"/><path class="B" d="m393.6 585.7c-0.5 2.8-3 142.3 11.9 204.8 0.3 1-0.2 2.1-1.2 2.5-2.3 0.9-6.8 2.3-12.1 2.5-1.7 0-3.2-1.1-3.7-2.7-4.2-14.5-24.6-87.1-27.3-156.5q-3-77.6 0-2.7l1.7-47.9z"/><path class="C" d="m354.6 801.7c5.3 5.7 7 13 7.5 17.5 0.3 2.2-1.5 4.2-3.7 4.2-4.9 0.1-11.1-0.5-15-0.8-2.3-0.3-3.8-2.4-3.4-4.6q2.5-12.2 5.1-16.8z"/><path class="D" d="m353.3 786.5l1.5 17.7q-6 1.6-9-0.6l-3-16.5z"/><path class="E" d="m394.9 582.3l-1.7 25.3-22.1 15.7c-1.7 1.2-3 3.1-3.6 5.2-11.4 41.6-10.2 146.8-10.8 163.9-0.1 1.3-1 2.4-2.2 2.8-3.6 1-7.3 0.7-9.5 0.4-1.4-0.3-2.4-1.3-2.7-2.6-5-21.1-19.9-129.4-7.7-203z"/><path class="F" d="m449.6 444.6c1.9 8 6.2 21.7 15.5 32.4-12.1 6.8-26.8 11.9-44.7 14.1q-21.9 74.8-26.6 101.4-31.9 11.9-60.2 4.5-9-73.3 1.9-136.9 40.3-10.2 76.8-9.6c11.3 0.2 24.4-1.9 37.3-5.9z"/><path class="G" d="m465.1 477c-9.3-10.7-13.6-24.4-15.5-32.4 29-9 57.2-27.4 62.5-50.2q4.6-2 8.2 2.3-7.2 53.2-55.2 80.3z"/><path class="H" d="m325.4 520.7c-11.5-5.8-23.2-7.5-29.7-8q5.6-29.4 39.8-52.6l14 35.4q-21.6 11.3-24.1 25.2z"/><path class="I" d="m399 420.9l-3.8 29.1c-0.2 1.7-1.2 3.1-2.6 4.1-13.8 8.7-25.2 3.6-28.4 1.9-0.5-0.3-0.7-0.9-0.5-1.5l11.6-33.6z"/><path class="J" d="m400.6 389.7q12.8 24.1 11.1 33.8c-1.6 9.7-17.4 9-31.2 1.1l-9.7-25.9z"/><path class="K" d="m379.3 412.7c-0.5 0.2-0.7 0.7-0.6 1.2l3.7 10.5c0.2 0.7-0.4 1.4-1.1 1.3-8.3-0.9-16.1-9-17.8-10.9-0.2-0.2-0.5-0.3-0.9-0.3-2 0.3-9 0.8-9.3-5.4-0.3-4.6 2.2-6.2 4.2-6.8 0.7-0.2 0.9-1.1 0.4-1.7-1.6-1.6-3.4-5-0.7-11 3.3-7.3 10.4-6.8 13.4-6.2 0.6 0.1 1.2-0.4 1.1-1-0.1-2.2 0.6-6.5 6.4-9.1 6.3-2.8 10.8 1.8 12.5 4.1 0.4 0.5 1.2 0.5 1.6 0 10.4-13.6 16.9 3.4 14.4 10.2-2.5 6.9-14.7 9.9-22.8 11.9q-8.1 1.9-5.8 3.4c0.6 2.8 2.5 6 3.5 7.5 0.3 0.5 0.1 1.2-0.4 1.5z"/><path class="L" d="m385.3 418c-4.3 2-13.2-0.4-12.5-5.6q0.6-5.3 9.7 1z"/><path class="M" d="m325.4 520.7q-11.9 53.8-1.1 84.1-13.3 6.1-10.8 4.9-26.2-76.5-17.8-97c16.7-1.7 25 2.7 29.7 8z"/><path class="N" d="m324.3 604.8q6.8 8.8 6.3 12.3-0.6 3.5-0.7 5-3.5-2.4-3.2-5.4c0.4 9.5 3.6 20.4 0.7 19.8-2.9-0.5-17.9-14.3-14.5-29 7.7-5.4 9.9-4.8 11.4-2.7z"/><path class="O" d="m477.7 1295.1c-2.1 0-3.9-1.7-3.9-3.9v-462.3c0-2.1 1.8-3.8 3.9-3.8 2.1 0 3.9 1.7 3.9 3.8v462.3c0 2.2-1.8 3.9-3.9 3.9z"/><path class="P" d="m372.9 1295.1c-2.1 0-3.9-1.7-3.9-3.9v-462.3c0-2.1 1.8-3.8 3.9-3.8 2.1 0 3.9 1.7 3.9 3.8v462.3c0 2.2-1.8 3.9-3.9 3.9z"/><path class="Q" d="m115.4 1298q-0.8 0-1.5-0.3c-2-0.8-2.9-3.1-2.1-5.1l197.8-465.2c0.8-1.9 3.1-2.9 5.1-2 1.9 0.8 2.9 3.1 2 5l-197.8 465.3c-0.6 1.4-2 2.3-3.5 2.3z"/><path class="R" d="m237.5 1298q-0.7 0-1.5-0.3c-1.9-0.8-2.8-3.1-2-5.1l197.8-465.2c0.8-1.9 3.1-2.9 5-2 2 0.8 2.9 3.1 2.1 5l-197.8 465.3c-0.6 1.4-2 2.3-3.6 2.3z"/><rect class="S" x="297.1" y="822.3" width="192.1" height="10.9" rx="2.8"></rect><path class="T" d="m405.5 903.9h-122.6c-2.1 0-3.8-1.7-3.8-3.8 0-2.2 1.7-3.9 3.8-3.9h122.6c2.1 0 3.8 1.7 3.8 3.9 0 2.1-1.7 3.8-3.8 3.8z"/><path class="U" d="m367.9 991.9h-122.6v-7.7h122.6z"/><path class="V" d="m331.5 1079.9h-122.6v-7.7h122.6z"/><path class="W" d="m293.3 1167.9h-122.5c-2.2 0-3.9-1.7-3.9-3.9 0-2.1 1.7-3.8 3.9-3.8h122.5c2.1 0 3.9 1.7 3.9 3.8 0 2.2-1.8 3.9-3.9 3.9z"/><path class="X" d="m256.4 1255.9h-122.5c-2.2 0-3.9-1.7-3.9-3.9 0-2.1 1.7-3.8 3.9-3.8h122.5c2.1 0 3.9 1.7 3.9 3.8 0 2.2-1.8 3.9-3.9 3.9z"/><path class="Y" d="m1370 852.4l-16.4 10.8-29.8-2.2q-18.1 51.8 22.4 116.8l-21 2q-56-63.9-6.9-126.6z"/><path class="Z" d="m1173.7 712l232.8-12c4.6-0.2 8.4 2.5 8.5 6.1l5.3 141c0.1 3.6-3.5 6.7-8.1 6.8-42.2 0.9-229.3 4.9-237.6 5.5-8.1 0.6-8.7-112.8-8.8-140.8 0-3.4 3.5-6.3 7.9-6.6z"/><path fill-rule="evenodd" class="m" d="m1178.4 854.3l-0.2-0.6c-3.5-12.9-5.8-66-5.9-135.2 0-0.8 0.7-1.5 1.7-1.5l232.8-12q0.6-0.1 1.1 0.3c0.4 0.3 0.6 0.7 0.7 1.1l5.2 141c0.1 0.8-0.7 1.5-1.6 1.6h-0.1c-33.5 0.7-202.4 4.2-233.1 5.3zm228.5-147.8q0 0 0 0l-232.9 12c-0.1 0-0.1 0.1-0.1 0.1 0 68 2.3 120.3 5.7 134.1 32.3-1.1 199.2-4.6 232.5-5.3h0.1c0 0 0.1-0.1 0.1-0.1l-5.3-140.9q0 0.1-0.1 0.1z"/><path class="m" d="m1328.2 721.8l64.7-2.9c1.5-0.1 2.8 2.8 3 6.3 0.1 3.6-0.9 6.5-2.4 6.6l-64.7 2.9c-1.5 0-2.8-2.8-2.9-6.4-0.2-3.5 0.9-6.5 2.3-6.5z"/><path class="m" d="m1328.6 742.6l64.8-2.9c1.4-0.1 2.7 1.3 2.8 3.1 0 1.8-1.1 3.3-2.6 3.3l-64.7 2.9c-1.4 0.1-2.7-1.3-2.8-3.1 0-1.8 1.1-3.3 2.5-3.3z"/><path class="m" d="m1328.6 756l64.8-2.9c1.4 0 2.7 1.3 2.8 3.1 0 1.8-1.1 3.3-2.6 3.4l-64.7 2.9c-1.4 0-2.7-1.4-2.8-3.2 0-1.7 1.1-3.2 2.5-3.3z"/><path fill-rule="evenodd" class="m" d="m1237.5 837.6c-1.5 0-2.4 0-2.6 0-1.6-0.1-2.9-1.2-3.1-2.8l-5.6-48.6c-0.1-0.8 0.1-1.6 0.6-2.3 0.5-0.6 1.3-1 2.1-1.1 0.1 0 4.7-0.6 8.5-3.1 1.3-0.8 2.8-4.7 4.1-8.2 2-5.3 4.5-11.9 9.1-17.2 7.4-8.5 6.2-21.3 6-22.7-0.3-3.2 2.1-7.8 5.9-9.3 2.3-0.9 6.9-1.3 12 5.7 6.3 8.7 3.5 20.5 1.7 28.3-0.5 2.4-1.1 4.7-1.2 6.1q0 0.1 0 0.2c1.6 0.9 8.8-0.2 13.1-0.8 2.3-0.4 4.7-0.7 6.9-1 8.1-0.9 17.5-0.6 19.3 10.4 0.7 4.6-1.3 8-3.2 10.2 3.5 3 5.4 6.3 5.4 9.9 0.1 3.2-1.3 5.8-2.7 7.6 3.1 2.9 4.4 6.8 3.5 11.1-0.6 2.9-2.1 5.5-4.2 7.4 1.6 1.8 1.8 3.7 1.7 4.8-0.1 5.3-6.6 10.7-15.4 12.7-10.7 2.5-51.2 2.7-61.9 2.7zm-4.8-49.2l4.9 43c10.9 0 50.6-0.2 60.4-2.5 7-1.6 10.6-5.3 10.6-6.9 0.1-0.6-1.1-1.4-2.9-1.9-1.4-0.4-2.3-1.8-2.2-3.3 0.2-1.5 1.3-2.6 2.8-2.8 2.2-0.2 4.4-2.6 4.9-5.3 0.4-1.9 0.1-4.6-3.7-6.6-0.9-0.5-1.5-1.5-1.6-2.5-0.1-1.1 0.4-2.1 1.3-2.8 0 0 3.2-2.4 3.1-5.4 0-2.9-3.2-5.5-5.9-7.2-0.9-0.6-1.4-1.6-1.4-2.7 0-1.1 0.6-2.1 1.6-2.6 0.1-0.1 4.2-2.6 3.5-6.7-0.5-3.1-1-6.6-12.3-5.3-2.2 0.3-4.5 0.7-6.7 1-8.3 1.3-14.9 2.3-18.3-0.8-1-0.9-2.1-2.4-1.9-5 0.1-2 0.6-4.4 1.3-7.2 1.6-7.1 3.9-16.8-0.7-23.3-1.8-2.5-3.6-3.9-4.7-3.5-1.1 0.3-2 2.2-2 2.8 0.2 1.7 1.6 17-7.6 27.5-3.8 4.4-6 10.2-7.9 15.3-2 5.2-3.5 9.2-6.5 11.2-2.8 1.9-5.9 2.9-8.1 3.5z"/><path class="a0" d="m1368.2 1143.9l19.8 68.3q20.5 11.9 27.5 67.9 2.3-0.1 3.5 1.5 1.1 1.7-0.4 32.1l-16.4 0.5 3.5-1.6q4.1-7.1 0-29.6-20.8-35.9-60.6-122.5z"/><path class="a1" d="m1402.2 1314.2q9.6-0.3 12.9-1.9c3.4-1.7 2.2-15.8 0.9-21.2q-1.3-5.4 2.9-11.2l2.9 0.7c2.6 0.6 4.3 3.1 3.8 5.8l-5.3 27.7c-0.5 2.6-2.7 4.4-5.3 4.4-7 0.2-19.9 0.3-19.9-0.1q0.3-3.5 7.1-4.2z"/><path class="a2" d="m1319.2 1312.3l23.9-7.8c4.3 3.6 8.4 14.4 5.4 15.7-2.3 1-28.6 1.3-40.3 1.5-1.5 0-2-2-0.7-2.8z"/><path class="a3" d="m1336.1 1163.7q-1.5 14 4.9 137.5l2.1 3.3q-5.9 7.3-12.3 7.8-6.4 0.4-15 1.9l17.2-10.8q-7.3-24.2-32.9-148.4z"/><path class="a4" d="m1236.3 865.3q-3.5 64.6 55.3 97.6l-14.1 32.3q-53.3-32.2-51.3-120c0-2.5-0.9-5-2.5-6.9l-11.3-13.1c-4.4-5-6-11.8-4.4-18.2l1.5-6c0.5-2 2.8-2.9 4.6-1.9l1.2 0.7c3.7 2.2 6.7 5.5 8.5 9.5l5.5 12.4c2.1 4.6 6.9 7.4 12 7l3.4-0.3z"/><path class="a5" d="m1289.6 958.1c9.8 2.7 43.1 11.5 64 11.1l-12.8 72.1 1 11.8-41.7-0.2q-11.7-27.2-20.9-40.8c-2.7-3.9-0.7-8.6 0.8-13.1l-2.1-1.4c-2.1-1.4-3-4-2.2-6.5l10.1-31c0.5-1.6 2.2-2.4 3.8-2z"/><path class="a6" d="m1341.4 1045.3l0.4 7.8q8 3.9 20.1 22 2.4 3.6 11.3 81.3-31.4 25.9-69.7 15.1-17.7-82.4-5.9-117.6l-0.8-7.1q11 4.6 44.6-1.5z"/><path class="a7" d="m1313.1 963.9q-0.1-0.2 8.7-26.7l12.7 1.2 4.9 30q-19.8 4-26.3-4.5z"/><path class="a8" d="m1357.3 908.9c0.4 7-8.6 31-22.3 32.4-10 1-18.2-2-22.1-3.7-1.5-0.6-2.6-2-2.9-3.6-5.6-27.2 20.6-38.1 21.4-38.6 8.4-5.2 25.5 6.6 25.9 13.5z"/><path class="a9" d="m1365.9 900.5c-0.6 2.7 1.2 5.3 3.9 5.8 4.7 0.8 10.9 3.3 14.2 10.7 3.6 8.3-0.9 13.5-4.4 16.1-1.5 1.1-2.1 2.9-1.8 4.7q0 0.1 0 0.1c0.3 1.8 2.2 3.6 4.1 3.9 22.1 3.9 26.2 27 24.1 34.7-0.7 2.8-2.5 4.6-4.6 5.8-2.7 1.5-3.1 5.3-0.9 7.5 2.3 2.2 4.2 5 4.3 8 0.3 5.1-5.1 5.7-8.9 5.5-2-0.1-3.9 1.1-4.7 3-3.5 9-15.9 31.5-50.2 18.3-34.7-13.3-25.1-37.3-20.6-45.5 1-1.8 0.8-3.9-0.5-5.5-15.6-19.2 0.1-32.6 6.6-37 1.4-0.9 2.2-2.6 2.1-4.4-0.6-8.7 6.2-6.3 9.3-10.5 3.4-4.6 0.7-10.8-6.5-21.3-7.1-10.5 7.3-15.5 8-15.6 26.7-3.5 28 8.3 26.5 15.7z"/><path class="aa" d="m1519.9 1276.6c9.1-69.7 42.8-277.2 132.8-410 7.3-10.8 23.8-9.2 28.9 2.9 33.6 78.4 109.2 315.1-142 422-10.2 4.4-21.2-3.9-19.7-14.9z"/><path class="d" d="m1665.7 946.7c0-0.6 1-0.5 1 0.1-11.3 199.1-100.8 310.5-124.7 334-0.6 0.6-1.6-0.3-1-1 88-113.4 117.9-286.4 124.7-333.1z"/><path class="ab" d="m1533.8 1301.1c-7.7-2.6-9.3-12.7-2.8-17.5 39.9-29.6 155.2-109.9 256.6-133.7 8.4-2 14.3 5.6 10.4 13.3-25.2 49.9-111.3 189.2-264.2 137.9z"/><path class="d" d="m1753 1192.4c0.4-0.3 0.7 0.2 0.4 0.5-103.8 87.5-195.6 102-217 102.9-0.6 0.1-0.6-0.8 0-0.9 92.3-16 190.6-83.7 216.6-102.5z"/></svg>