<svg version="1.2" xmlns="http://www.w3.org/2000/svg" viewBox="0 0 1035 694" width="1035" height="694"><defs><linearGradient id="P" gradientUnits="userSpaceOnUse"/><linearGradient id="g1" x1="1100" y1="308.7" x2="790.9" y2="1028.9" href="#P"><stop stop-color="#2b3582"/><stop offset="1" stop-color="#150e42"/></linearGradient><linearGradient id="g2" x1="840.6" y1="249.5" x2="1089.2" y2="175.3" href="#P"><stop stop-color="#a737d5"/><stop offset="1" stop-color="#ef497a"/></linearGradient><linearGradient id="g3" x1="-16.5" y1="300.7" x2="318.8" y2="1002.8" href="#P"><stop stop-color="#a737d5"/><stop offset="1" stop-color="#ef497a"/></linearGradient><linearGradient id="g4" x1="-65.1" y1="482.9" x2="404.4" y2="873.3" href="#P"><stop stop-color="#fdf53f"/><stop offset="1" stop-color="#d93c65"/></linearGradient><linearGradient id="g5" x1="134.4" y1="388.5" x2="215.7" y2="187.6" href="#P"><stop stop-color="#a737d5"/><stop offset="1" stop-color="#ef497a"/></linearGradient><linearGradient id="g6" x1="275.3" y1="567.5" x2="540.1" y2="739.1" href="#P"><stop stop-color="#53d8ff"/><stop offset="1" stop-color="#3840f7"/></linearGradient><linearGradient id="g7" x1="397.3" y1="551.6" x2="244.4" y2="553.7" href="#P"><stop stop-color="#fdf53f"/><stop offset="1" stop-color="#d93c65"/></linearGradient><linearGradient id="g8" x1="148.6" y1="405" x2="551" y2="513.4" href="#P"><stop stop-color="#cb236d"/><stop offset="1" stop-color="#4c246d"/></linearGradient><linearGradient id="g9" x1="227.8" y1="732.8" x2="212.1" y2="613.9" href="#P"><stop stop-color="#53d8ff"/><stop offset="1" stop-color="#3840f7"/></linearGradient><linearGradient id="g10" x1="296.2" y1="724.2" x2="280.5" y2="604.9" href="#P"><stop stop-color="#53d8ff"/><stop offset="1" stop-color="#3840f7"/></linearGradient><linearGradient id="g11" x1="771.7" y1="695.5" x2="1036.6" y2="867.1" href="#P"><stop stop-color="#53d8ff"/><stop offset="1" stop-color="#3840f7"/></linearGradient><linearGradient id="g12" x1="1103.7" y1="594" x2="871.7" y2="846" href="#P"><stop stop-color="#fdf53f"/><stop offset="1" stop-color="#d93c65"/></linearGradient><linearGradient id="g13" x1="1015.3" y1="494.4" x2="1012.3" y2="615.9" href="#P"><stop stop-color="#53d8ff"/><stop offset="1" stop-color="#3840f7"/></linearGradient><linearGradient id="g14" x1="791.1" y1="79.5" x2="938.4" y2="79.5" href="#P"><stop stop-color="#b37cff"/><stop offset="1" stop-color="#f895e7"/></linearGradient><linearGradient id="g15" x1="805.8" y1="-25" x2="824.4" y2="113" href="#P"><stop stop-color="#b37cff"/><stop offset="1" stop-color="#f895e7"/></linearGradient><linearGradient id="g16" x1="1172.4" y1="240.2" x2="587.9" y2="1007.5" href="#P"><stop stop-color="#fdf53f"/><stop offset="1" stop-color="#d93c65"/></linearGradient><linearGradient id="g17" x1="1012.4" y1="634.4" x2="551.7" y2="668.4" href="#P"><stop stop-color="#53d8ff"/><stop offset="1" stop-color="#3840f7"/></linearGradient><linearGradient id="g18" x1="887.3" y1="638.1" x2="502.5" y2="657.1" href="#P"><stop stop-color="#53d8ff"/><stop offset="1" stop-color="#3840f7"/></linearGradient><linearGradient id="g19" x1="924.4" y1="624.9" x2="439.6" y2="758" href="#P"><stop stop-color="#fdf53f"/><stop offset="1" stop-color="#d93c65"/></linearGradient><linearGradient id="g20" x1="843" y1="327.6" x2="357" y2="461.1" href="#P"><stop stop-color="#fdf53f"/><stop offset="1" stop-color="#d93c65"/></linearGradient><linearGradient id="g21" x1="292.2" y1="-50.1" x2="396.2" y2="149.2" href="#P"><stop stop-color="#53d8ff"/><stop offset="1" stop-color="#3840f7"/></linearGradient><linearGradient id="g22" x1="288.7" y1="247.6" x2="77.5" y2="356.3" href="#P"><stop stop-color="#53d8ff"/><stop offset="1" stop-color="#3840f7"/></linearGradient><linearGradient id="g23" x1="1042.2" y1="311.5" x2="463.5" y2="1071.6" href="#P"><stop stop-color="#2b3582"/><stop offset="1" stop-color="#150e42"/></linearGradient><linearGradient id="g24" x1="-22.8" y1="596.5" x2="398.2" y2="-24.5" href="#P"><stop stop-color="#a737d5"/><stop offset="1" stop-color="#ef497a"/></linearGradient><linearGradient id="g25" x1="500.2" y1="156.7" x2="322.2" y2="421.7" href="#P"><stop stop-color="#fdf53f"/><stop offset="1" stop-color="#d93c65"/></linearGradient><linearGradient id="g26" x1="538.6" y1="184.9" x2="364" y2="444.8" href="#P"><stop stop-color="#fdf53f"/><stop offset="1" stop-color="#d93c65"/></linearGradient><linearGradient id="g27" x1="722.9" y1="207.9" x2="531.3" y2="460.4" href="#P"><stop stop-color="#a737d5"/><stop offset="1" stop-color="#ef497a"/></linearGradient><linearGradient id="g28" x1="689" y1="221" x2="647.1" y2="298.2" href="#P"><stop stop-color="#fdf53f"/><stop offset="1" stop-color="#d93c65"/></linearGradient><linearGradient id="g29" x1="655.7" y1="171.7" x2="462.3" y2="406.1" href="#P"><stop stop-color="#a737d5"/><stop offset="1" stop-color="#ef497a"/></linearGradient><linearGradient id="g30" x1="665.8" y1="181.3" x2="472" y2="416.1" href="#P"><stop stop-color="#a737d5"/><stop offset="1" stop-color="#ef497a"/></linearGradient><linearGradient id="g31" x1="446.7" y1="341.9" x2="299" y2="550.4" href="#P"><stop stop-color="#53d8ff"/><stop offset="1" stop-color="#3840f7"/></linearGradient><linearGradient id="g32" x1="602.4" y1="344.7" x2="478.6" y2="492.4" href="#P"><stop stop-color="#fdf53f"/><stop offset="1" stop-color="#d93c65"/></linearGradient><linearGradient id="g33" x1="521.9" y1="398" x2="410.1" y2="617.6" href="#P"><stop stop-color="#a737d5"/><stop offset="1" stop-color="#ef497a"/></linearGradient><linearGradient id="g34" x1="455.3" y1="501.6" x2="376.5" y2="643.4" href="#P"><stop stop-color="#fdf53f"/><stop offset="1" stop-color="#d93c65"/></linearGradient><linearGradient id="g35" x1="503" y1="499.4" x2="448.2" y2="619.2" href="#P"><stop stop-color="#fdf53f"/><stop offset="1" stop-color="#d93c65"/></linearGradient><linearGradient id="g36" x1="607.5" y1="309.5" x2="476.3" y2="533.3" href="#P"><stop stop-color="#a737d5"/><stop offset="1" stop-color="#ef497a"/></linearGradient><linearGradient id="g37" x1="631.4" y1="324.3" x2="500.3" y2="548.2" href="#P"><stop stop-color="#a737d5"/><stop offset="1" stop-color="#ef497a"/></linearGradient><linearGradient id="g38" x1="650.1" y1="381.2" x2="477.6" y2="621.7" href="#P"><stop stop-color="#a737d5"/><stop offset="1" stop-color="#ef497a"/></linearGradient><linearGradient id="g39" x1="679.3" y1="354" x2="548.1" y2="577.9" href="#P"><stop stop-color="#a737d5"/><stop offset="1" stop-color="#ef497a"/></linearGradient><linearGradient id="g40" x1="608.7" y1="-21.6" x2="444" y2="195.1" href="#P"><stop stop-color="#2b3582"/><stop offset="1" stop-color="#150e42"/></linearGradient><linearGradient id="g41" x1="662.7" y1="13.7" x2="495.8" y2="233.3" href="#P"><stop stop-color="#2b3582"/><stop offset="1" stop-color="#150e42"/></linearGradient><linearGradient id="g42" x1="690.5" y1="41.5" x2="574.5" y2="254.4" href="#P"><stop stop-color="#53d8ff"/><stop offset="1" stop-color="#3840f7"/></linearGradient><linearGradient id="g43" x1="200.9" y1="389.2" x2="229.6" y2="389.2" href="#P"><stop stop-color="#53d8ff"/><stop offset="1" stop-color="#3840f7"/></linearGradient><linearGradient id="g44" x1="200.9" y1="379" x2="229" y2="379" href="#P"><stop stop-color="#2b3582"/><stop offset="1" stop-color="#150e42"/></linearGradient><linearGradient id="g45" x1="203.6" y1="371.9" x2="211.7" y2="371.9" href="#P"><stop stop-color="#f9b776"/><stop offset="1" stop-color="#f47960"/></linearGradient><linearGradient id="g46" x1="143.5" y1="387.8" x2="154.3" y2="387.8" href="#P"><stop stop-color="#53d8ff"/><stop offset="1" stop-color="#3840f7"/></linearGradient><linearGradient id="g47" x1="143.3" y1="371.8" x2="159" y2="371.8" href="#P"><stop stop-color="#2b3582"/><stop offset="1" stop-color="#150e42"/></linearGradient><linearGradient id="g48" x1="151.9" y1="364.3" x2="161.5" y2="364.3" href="#P"><stop stop-color="#f9b776"/><stop offset="1" stop-color="#f47960"/></linearGradient><linearGradient id="g49" x1="92.5" y1="367.7" x2="220.5" y2="223" href="#P"><stop stop-color="#2b3582"/><stop offset="1" stop-color="#150e42"/></linearGradient><linearGradient id="g50" x1="304.5" y1="202.5" x2="81.9" y2="396" href="#P"><stop stop-color="#fdf53f"/><stop offset="1" stop-color="#d93c65"/></linearGradient><linearGradient id="g51" x1="180" y1="332.9" x2="184.6" y2="323.6" href="#P"><stop stop-color="#53d8ff"/><stop offset="1" stop-color="#3840f7"/></linearGradient><linearGradient id="g52" x1="207.3" y1="242.4" x2="172.7" y2="273.1" href="#P"><stop stop-color="#f9b776"/><stop offset="1" stop-color="#f47960"/></linearGradient><linearGradient id="g53" x1="260.1" y1="173.6" x2="64.4" y2="343.8" href="#P"><stop stop-color="#fdf53f"/><stop offset="1" stop-color="#d93c65"/></linearGradient><linearGradient id="g54" x1="304.5" y1="204.4" x2="82.3" y2="397.7" href="#P"><stop stop-color="#fdf53f"/><stop offset="1" stop-color="#d93c65"/></linearGradient><linearGradient id="g55" x1="261.4" y1="222.7" x2="288.7" y2="222.7" href="#P"><stop stop-color="#f9b776"/><stop offset="1" stop-color="#f47960"/></linearGradient><linearGradient id="g56" x1="246.8" y1="160.1" x2="246.5" y2="210" href="#P"><stop stop-color="#f9b776"/><stop offset="1" stop-color="#f47960"/></linearGradient><linearGradient id="g57" x1="160.5" y1="216.7" x2="301.9" y2="216.7" href="#P"><stop stop-color="#2b3582"/><stop offset="1" stop-color="#150e42"/></linearGradient><linearGradient id="g58" x1="294" y1="123.1" x2="425.3" y2="123.1" href="#P"><stop stop-color="#b37cff"/><stop offset="1" stop-color="#f895e7"/></linearGradient><linearGradient id="g59" x1="286.6" y1="115.9" x2="432.7" y2="115.9" href="#P"><stop stop-color="#2b3582"/><stop offset="1" stop-color="#150e42"/></linearGradient><linearGradient id="g60" x1="261.5" y1="158.9" x2="243" y2="192.4" href="#P"><stop stop-color="#f9b776"/><stop offset="1" stop-color="#f47960"/></linearGradient><linearGradient id="g61" x1="231.3" y1="140.6" x2="259.4" y2="136.6" href="#P"><stop stop-color="#2b3582"/><stop offset="1" stop-color="#150e42"/></linearGradient><linearGradient id="g62" x1="217.4" y1="174.4" x2="230.6" y2="156.2" href="#P"><stop stop-color="#f9b776"/><stop offset="1" stop-color="#f47960"/></linearGradient><linearGradient id="g63" x1="214.8" y1="253.2" x2="184.3" y2="280.1" href="#P"><stop stop-color="#f9b776"/><stop offset="1" stop-color="#f47960"/></linearGradient><linearGradient id="g64" x1="288.1" y1="223.1" x2="295.4" y2="223.1" href="#P"><stop stop-color="#f9b776"/><stop offset="1" stop-color="#f47960"/></linearGradient><linearGradient id="g65" x1="381.9" y1="524.4" x2="4.7" y2="954" href="#P"><stop stop-color="#2b3582"/><stop offset="1" stop-color="#150e42"/></linearGradient><linearGradient id="g66" x1="346.2" y1="493" x2="-31.1" y2="922.6" href="#P"><stop stop-color="#2b3582"/><stop offset="1" stop-color="#150e42"/></linearGradient><linearGradient id="g67" x1="21.2" y1="393.5" x2="144.6" y2="393.5" href="#P"><stop stop-color="#9cfffb"/><stop offset="1" stop-color="#9bfffa"/></linearGradient><linearGradient id="g68" x1="94.9" y1="393.5" x2="218.3" y2="393.5" href="#P"><stop stop-color="#9cfffb"/><stop offset="1" stop-color="#9bfffa"/></linearGradient><linearGradient id="g69" x1="132.9" y1="391.8" x2="248.8" y2="391.8" href="#P"><stop stop-color="#9cfffb"/><stop offset="1" stop-color="#9bfffa"/></linearGradient><linearGradient id="g70" x1="122" y1="436.4" x2="200.6" y2="436.4" href="#P"><stop stop-color="#9cfffb"/><stop offset="1" stop-color="#9bfffa"/></linearGradient><linearGradient id="g71" x1="101.6" y1="489.5" x2="175.6" y2="489.5" href="#P"><stop stop-color="#9cfffb"/><stop offset="1" stop-color="#9bfffa"/></linearGradient><linearGradient id="g72" x1="79.7" y1="542.6" x2="153.6" y2="542.6" href="#P"><stop stop-color="#9cfffb"/><stop offset="1" stop-color="#9bfffa"/></linearGradient><linearGradient id="g73" x1="54.3" y1="595.8" x2="132.9" y2="595.8" href="#P"><stop stop-color="#9cfffb"/><stop offset="1" stop-color="#9bfffa"/></linearGradient><linearGradient id="g74" x1="32" y1="648.9" x2="110.6" y2="648.9" href="#P"><stop stop-color="#9cfffb"/><stop offset="1" stop-color="#9bfffa"/></linearGradient><linearGradient id="g75" x1="429" y1="516" x2="400.5" y2="556.6" href="#P"><stop stop-color="#2b3582"/><stop offset="1" stop-color="#150e42"/></linearGradient><linearGradient id="g76" x1="419.1" y1="576.6" x2="426.9" y2="813.8" href="#P"><stop stop-color="#fdf53f"/><stop offset="1" stop-color="#d93c65"/></linearGradient><linearGradient id="g77" x1="338.4" y1="594.5" x2="390.9" y2="721.2" href="#P"><stop stop-color="#c4421b"/><stop offset="1" stop-color="#5c0e16"/></linearGradient><linearGradient id="g78" x1="416.4" y1="594.5" x2="364" y2="721.2" href="#P"><stop stop-color="#c4421b"/><stop offset="1" stop-color="#5c0e16"/></linearGradient><linearGradient id="g79" x1="410" y1="616.7" x2="407.3" y2="726.4" href="#P"><stop stop-color="#53d8ff"/><stop offset="1" stop-color="#3840f7"/></linearGradient><linearGradient id="g80" x1="408.9" y1="673.4" x2="436.4" y2="673.6" href="#P"><stop stop-color="#2c759e"/><stop offset="1" stop-color="#051042"/></linearGradient><linearGradient id="g81" x1="438.9" y1="690.8" x2="420.5" y2="690.5" href="#P"><stop stop-color="#53eac9"/><stop offset="1" stop-color="#45aed8"/></linearGradient><linearGradient id="g82" x1="434.2" y1="633.2" x2="404.1" y2="714.7" href="#P"><stop stop-color="#c4421b"/><stop offset="1" stop-color="#5c0e16"/></linearGradient><linearGradient id="g83" x1="440.5" y1="687" x2="415.9" y2="686.5" href="#P"><stop stop-color="#53eac9"/><stop offset="1" stop-color="#45aed8"/></linearGradient><linearGradient id="g84" x1="440.4" y1="686.8" x2="415.9" y2="686.3" href="#P"><stop stop-color="#53eac9"/><stop offset="1" stop-color="#45aed8"/></linearGradient><linearGradient id="g85" x1="440.5" y1="687.9" x2="415.7" y2="686.2" href="#P"><stop stop-color="#53eac9"/><stop offset="1" stop-color="#45aed8"/></linearGradient><linearGradient id="g86" x1="440.2" y1="687.7" x2="415.9" y2="686" href="#P"><stop stop-color="#53eac9"/><stop offset="1" stop-color="#45aed8"/></linearGradient><linearGradient id="g87" x1="339.4" y1="673.4" x2="311.9" y2="672.9" href="#P"><stop stop-color="#2c759e"/><stop offset="1" stop-color="#051042"/></linearGradient><linearGradient id="g88" x1="308.9" y1="689.9" x2="327.7" y2="690" href="#P"><stop stop-color="#53eac9"/><stop offset="1" stop-color="#45aed8"/></linearGradient><linearGradient id="g89" x1="373.6" y1="608.5" x2="343.4" y2="690.2" href="#P"><stop stop-color="#c4421b"/><stop offset="1" stop-color="#5c0e16"/></linearGradient><linearGradient id="g90" x1="307.4" y1="686" x2="332" y2="686.2" href="#P"><stop stop-color="#53eac9"/><stop offset="1" stop-color="#45aed8"/></linearGradient><linearGradient id="g91" x1="307.4" y1="685.8" x2="332" y2="686" href="#P"><stop stop-color="#53eac9"/><stop offset="1" stop-color="#45aed8"/></linearGradient><linearGradient id="g92" x1="307.4" y1="686.9" x2="332.2" y2="685.9" href="#P"><stop stop-color="#53eac9"/><stop offset="1" stop-color="#45aed8"/></linearGradient><linearGradient id="g93" x1="307.6" y1="686.7" x2="332.1" y2="685.7" href="#P"><stop stop-color="#53eac9"/><stop offset="1" stop-color="#45aed8"/></linearGradient><linearGradient id="g94" x1="454.1" y1="652.3" x2="378" y2="709.4" href="#P"><stop stop-color="#7c27dd"/><stop offset="1" stop-color="#2b41d9"/></linearGradient><linearGradient id="g95" x1="330" y1="697.3" x2="310.3" y2="647.1" href="#P"><stop stop-color="#7c27dd"/><stop offset="1" stop-color="#2b41d9"/></linearGradient><linearGradient id="g96" x1="359.1" y1="609.5" x2="358.4" y2="549.4" href="#P"><stop stop-color="#c4421b"/><stop offset="1" stop-color="#5c0e16"/></linearGradient><linearGradient id="g97" x1="360.9" y1="568.2" x2="370.5" y2="521.8" href="#P"><stop stop-color="#c4421b"/><stop offset="1" stop-color="#5c0e16"/></linearGradient><linearGradient id="g98" x1="426.1" y1="509.9" x2="394.4" y2="555" href="#P"><stop stop-color="#2b3582"/><stop offset="1" stop-color="#150e42"/></linearGradient><linearGradient id="g99" x1="363" y1="575.6" x2="357.6" y2="517" href="#P"><stop stop-color="#c4421b"/><stop offset="1" stop-color="#5c0e16"/></linearGradient><linearGradient id="g100" x1="382.7" y1="609.2" x2="381" y2="688.1" href="#P"><stop stop-color="#53d8ff"/><stop offset="1" stop-color="#3840f7"/></linearGradient><linearGradient id="g101" x1="611.5" y1="363.4" x2="564.2" y2="293.3" href="#P"><stop stop-color="#53d8ff"/><stop offset="1" stop-color="#3840f7"/></linearGradient><linearGradient id="g102" x1="552.5" y1="334.7" x2="520.7" y2="223.3" href="#P"><stop stop-color="#53d8ff"/><stop offset="1" stop-color="#3840f7"/></linearGradient><linearGradient id="g103" x1="604.4" y1="361.3" x2="560.2" y2="295.9" href="#P"><stop stop-color="#53d8ff"/><stop offset="1" stop-color="#3840f7"/></linearGradient><linearGradient id="g104" x1="599.6" y1="317.4" x2="572.3" y2="294.2" href="#P"><stop stop-color="#53d8ff"/><stop offset="1" stop-color="#3840f7"/></linearGradient><linearGradient id="g105" x1="661.1" y1="352.9" x2="679.3" y2="398.7" href="#P"><stop stop-color="#2b3582"/><stop offset="1" stop-color="#150e42"/></linearGradient><linearGradient id="g106" x1="606.5" y1="383.6" x2="642.9" y2="466.3" href="#P"><stop stop-color="#c4421b"/><stop offset="1" stop-color="#5c0e16"/></linearGradient><linearGradient id="g107" x1="703.9" y1="668.7" x2="720.1" y2="668.7" href="#P"><stop stop-color="#a737d5"/><stop offset="1" stop-color="#ef497a"/></linearGradient><linearGradient id="g108" x1="619.6" y1="742.3" x2="643.6" y2="461.8" href="#P"><stop stop-color="#c4421b"/><stop offset="1" stop-color="#5c0e16"/></linearGradient><linearGradient id="g109" x1="627" y1="662.4" x2="652.9" y2="662.4" href="#P"><stop stop-color="#a737d5"/><stop offset="1" stop-color="#ef497a"/></linearGradient><linearGradient id="g110" x1="650.5" y1="742.3" x2="673.6" y2="472.9" href="#P"><stop stop-color="#c4421b"/><stop offset="1" stop-color="#5c0e16"/></linearGradient><linearGradient id="g111" x1="661.8" y1="456.4" x2="673.2" y2="562.7" href="#P"><stop stop-color="#cb236d"/><stop offset="1" stop-color="#4c246d"/></linearGradient><linearGradient id="g112" x1="741.3" y1="492.8" x2="682.9" y2="586.4" href="#P"><stop stop-color="#cb236d"/><stop offset="1" stop-color="#4c246d"/></linearGradient><linearGradient id="g113" x1="618.5" y1="463.9" x2="622.9" y2="432" href="#P"><stop stop-color="#c4421b"/><stop offset="1" stop-color="#5c0e16"/></linearGradient><linearGradient id="g114" x1="649.4" y1="446.4" x2="667.9" y2="446.4" href="#P"><stop stop-color="#c4421b"/><stop offset="1" stop-color="#5c0e16"/></linearGradient><linearGradient id="g115" x1="608.8" y1="416.6" x2="643.9" y2="354" href="#P"><stop stop-color="#c4421b"/><stop offset="1" stop-color="#5c0e16"/></linearGradient><linearGradient id="g116" x1="641.3" y1="362.4" x2="658.6" y2="405.8" href="#P"><stop stop-color="#2b3582"/><stop offset="1" stop-color="#150e42"/></linearGradient><linearGradient id="g117" x1="625.2" y1="422.8" x2="657" y2="366.1" href="#P"><stop stop-color="#c4421b"/><stop offset="1" stop-color="#5c0e16"/></linearGradient><linearGradient id="g118" x1="590.6" y1="387.8" x2="625.5" y2="467.2" href="#P"><stop stop-color="#c4421b"/><stop offset="1" stop-color="#5c0e16"/></linearGradient><linearGradient id="g119" x1="567" y1="354.1" x2="575.3" y2="354.1" href="#P"><stop stop-color="#c4421b"/><stop offset="1" stop-color="#5c0e16"/></linearGradient><linearGradient id="g120" x1="730.5" y1="566.9" x2="777" y2="650.6" href="#P"><stop stop-color="#cb236d"/><stop offset="1" stop-color="#4c246d"/></linearGradient><linearGradient id="g121" x1="879.1" y1="658.4" x2="776.5" y2="421.7" href="#P"><stop stop-color="#cb236d"/><stop offset="1" stop-color="#4c246d"/></linearGradient></defs><style>.a{fill:url(#g1)}.b{fill:#fff}.c{fill:url(#g2)}.d{fill:url(#g3)}.e{fill:url(#g4)}.f{fill:url(#g5)}.g{fill:url(#g6)}.h{fill:url(#g7)}.i{fill:url(#g8)}.j{fill:url(#g9)}.k{fill:url(#g10)}.l{fill:url(#g11)}.m{fill:url(#g12)}.n{fill:url(#g13)}.o{opacity:.6;fill:#fff}.p{fill:#eac4f9}.q{fill:url(#g14)}.r{fill:url(#g15)}.s{fill:url(#g16)}.t{fill:url(#g17)}.u{fill:url(#g18)}.v{fill:url(#g19)}.w{fill:url(#g20)}.x{fill:url(#g21)}.y{fill:url(#g22)}.z{fill:url(#g23)}.A{fill:url(#g24)}.B{opacity:.8;fill:#fff}.C{fill:url(#g25)}.D{fill:url(#g26)}.E{fill:url(#g27)}.F{fill:url(#g28)}.G{fill:url(#g29)}.H{fill:url(#g30)}.I{fill:url(#g31)}.J{fill:url(#g32)}.K{fill:url(#g33)}.L{fill:url(#g34)}.M{fill:url(#g35)}.N{fill:url(#g36)}.O{fill:url(#g37)}.P{fill:url(#g38)}.Q{fill:url(#g39)}.R{fill:url(#g40)}.S{fill:url(#g41)}.T{fill:url(#g42)}.U{fill:url(#g43)}.V{fill:url(#g44)}.W{fill:url(#g45)}.X{fill:url(#g46)}.Y{fill:url(#g47)}.Z{fill:url(#g48)}.a0{fill:url(#g49)}.a1{fill:url(#g50)}.a2{fill:url(#g51)}.a3{fill:url(#g52)}.a4{fill:url(#g53)}.a5{fill:url(#g54)}.a6{fill:url(#g55)}.a7{fill:url(#g56)}.a8{fill:url(#g57)}.a9{opacity:.5;fill:url(#g58)}.aa{fill:url(#g59)}.ab{fill:url(#g60)}.ac{fill:url(#g61)}.ad{fill:url(#g62)}.ae{fill:url(#g63)}.af{fill:url(#g64)}.ag{fill:url(#g65)}.ah{fill:url(#g66)}.ai{fill:url(#g67)}.aj{fill:url(#g68)}.ak{fill:url(#g69)}.al{fill:url(#g70)}.am{fill:url(#g71)}.an{fill:url(#g72)}.ao{fill:url(#g73)}.ap{fill:url(#g74)}.aq{fill:url(#g75)}.ar{fill:url(#g76)}.as{fill:url(#g77)}.at{fill:url(#g78)}.au{fill:url(#g79)}.av{fill:url(#g80)}.aw{fill:url(#g81)}.ax{fill:url(#g82)}.ay{fill:url(#g83)}.az{fill:url(#g84)}.aA{fill:url(#g85)}.aB{fill:url(#g86)}.aC{fill:url(#g87)}.aD{fill:url(#g88)}.aE{fill:url(#g89)}.aF{fill:url(#g90)}.aG{fill:url(#g91)}.aH{fill:url(#g92)}.aI{fill:url(#g93)}.aJ{fill:url(#g94)}.aK{fill:url(#g95)}.aL{fill:url(#g96)}.aM{fill:url(#g97)}.aN{fill:url(#g98)}.aO{fill:url(#g99)}.aP{fill:url(#g100)}.aQ{fill:#e992ec}.aR{fill:url(#g101)}.aS{fill:url(#g102)}.aT{fill:url(#g103)}.aU{fill:url(#g104)}.aV{fill:url(#g105)}.aW{fill:url(#g106)}.aX{fill:url(#g107)}.aY{fill:url(#g108)}.aZ{fill:url(#g109)}.b0{fill:url(#g110)}.b1{fill:url(#g111)}.b2{fill:url(#g112)}.b3{fill:url(#g113)}.b4{fill:url(#g114)}.b5{fill:url(#g115)}.b6{fill:url(#g116)}.b7{fill:url(#g117)}.b8{fill:url(#g118)}.b9{fill:url(#g119)}.ba{fill:url(#g120)}.bb{opacity:.5;fill:#fff}.bc{fill:url(#g121)}</style><g style="opacity:.5"><path class="a" d="m1020.6 416.6c-8.8 10.3-12.1 24.1-8.8 37.2 1.6 6.5 2.2 13.3 1.7 20.4-1.3 16.1-8.5 30.2-19.3 40.6-14.7 14-23 33.5-22.9 53.9q0.1 3.1-0.2 6.3c-3.2 39.5-37.8 68.9-77.2 65.7-39.5-3.1-69-37.7-65.8-77.2 1.9-23.1 14.5-42.8 32.6-54.5 15.4-10 25.3-26.6 26.8-44.9q0 0 0 0c1.5-18.8 11.1-35 25.1-45.5 12.2-9.1 19.8-23 21-38.2q0 0 0 0c2.2-27.2 26.1-47.6 53.4-45.4 27.2 2.2 47.6 26.1 45.4 53.4-0.9 10.8-5.2 20.6-11.8 28.2z"/><path class="b" d="m872.9 612.8q-0.3 0-0.5-0.2c-0.5-0.3-0.6-0.9-0.3-1.4 80.7-116.6 112.1-224.6 112.4-225.7 0.1-0.5 0.7-0.9 1.2-0.7 0.6 0.1 0.9 0.7 0.7 1.2-0.3 1.1-31.7 109.5-112.6 226.3-0.2 0.3-0.5 0.5-0.9 0.5z"/><path class="b" d="m969.7 429.8q-0.4 0-0.7-0.2c-11.3-9.9-17.2-40.9-17.5-42.2-0.1-0.6 0.3-1.1 0.8-1.2 0.6-0.1 1.1 0.3 1.2 0.8 0 0.3 6 31.7 16.9 41.1 0.4 0.4 0.4 1 0.1 1.4-0.2 0.2-0.5 0.3-0.8 0.3z"/><path class="b" d="m970.7 429.9c-0.5 0-0.9-0.3-1-0.7-0.1-0.5 0.2-1.1 0.7-1.2 0.2-0.1 20.8-5.9 33.6-17.2 0.4-0.4 1.1-0.3 1.4 0.1 0.4 0.4 0.4 1 0 1.4-13.2 11.6-33.6 17.3-34.5 17.6q-0.1 0-0.2 0z"/><path class="b" d="m939.5 498.2c-0.3 0-0.6-0.1-0.8-0.4-15.3-18.7-17.6-49.6-17.6-49.9-0.1-0.6 0.4-1 0.9-1.1 0.6 0 1 0.4 1.1 0.9 0 0.4 2.2 30.7 17.2 48.9 0.3 0.4 0.3 1-0.1 1.4q-0.3 0.2-0.7 0.2z"/><path class="b" d="m941 498.7q-1 0-1.1 0c-0.6 0-1-0.5-1-1 0-0.6 0.5-1 1.1-1 0.2 0 22.3 1 45.9-18.2 0.4-0.3 1-0.3 1.4 0.2 0.3 0.4 0.2 1-0.2 1.4-21.4 17.5-41.3 18.6-46.1 18.6z"/><path class="b" d="m899.3 579.3c-1.9 0-3 0-3.1 0-0.5-0.1-0.9-0.6-0.9-1.1 0-0.6 0.5-1 1.1-0.9 0.2 0 26.2 1.9 48.4-13.6 0.5-0.3 1.1-0.2 1.4 0.2 0.3 0.5 0.2 1.1-0.3 1.4-18.2 12.7-38.9 14-46.6 14z"/><path class="b" d="m895.5 578.9c-0.3 0-0.6-0.1-0.7-0.3-0.7-0.7-16.1-16.8-17-48 0-0.5 0.4-1 1-1 0.6 0 1 0.4 1 1 0.9 30.3 16.2 46.5 16.4 46.6 0.4 0.4 0.4 1 0 1.4q-0.3 0.3-0.7 0.3z"/></g><g style="opacity:.5"><path class="c" d="m860.8 257.7c24.5-25.1 64.7-25.6 89.8-1.2 25.1 24.5 25.6 64.7 1.1 89.8q0 0 0 0c-13.6 13.9-20.5 33-19.1 52.5 1.7 22.3-5.9 45.2-22.8 62.5q0 0 0 0c-16.4 16.9-24.1 40.5-20.7 63.8 3.9 27.3-4.4 56-25.2 77.3-35.4 36.3-93.6 37.1-129.9 1.7-36.3-35.5-37.1-93.7-1.7-130q2.9-2.9 5.9-5.5c19.8-17 31.6-41.5 32.8-67.5 0.9-19.2 8.5-38 22.9-52.8 6.4-6.5 13.5-11.7 21.2-15.6 15.3-7.9 25.9-22.7 28.4-39.8 1.8-12.8 7.6-25.2 17.3-35.2z"/><path class="b" d="m779.6 600.8q-0.1 0-0.3 0c-0.5-0.1-0.8-0.7-0.7-1.2 44.6-176.5 122.7-298.2 123.5-299.4 0.3-0.4 0.9-0.6 1.3-0.3 0.5 0.3 0.6 1 0.3 1.4-0.7 1.2-78.6 122.6-123.2 298.8-0.1 0.4-0.5 0.7-0.9 0.7z"/><path class="b" d="m878.1 353.5q-2 0-3.7-0.2c-0.5-0.1-0.9-0.6-0.8-1.2 0.1-0.5 0.6-0.9 1.1-0.8 18.3 2.5 53.7-18.2 54.1-18.4 0.4-0.3 1.1-0.1 1.3 0.4 0.3 0.5 0.2 1.1-0.3 1.4-0.1 0-9.2 5.3-20.4 10.2-13 5.7-23.6 8.6-31.3 8.6z"/><path class="b" d="m873.7 352.4c-0.4 0-0.7-0.2-0.9-0.6-0.1-0.2-12.2-25.4-12-47.9 0-0.5 0.5-1 1-1q0 0 0 0c0.6 0 1 0.5 1 1-0.2 22 11.7 46.8 11.8 47.1 0.2 0.5 0 1.1-0.5 1.3q-0.2 0.1-0.4 0.1z"/><path class="b" d="m834.1 440c-0.6 0-1-0.4-1-1-0.1-0.5 0.4-1 0.9-1 30.3-0.9 61.5-24.3 61.8-24.6 0.4-0.3 1.1-0.2 1.4 0.2 0.3 0.5 0.3 1.1-0.2 1.4-0.3 0.3-32 24.1-62.9 25q0 0 0 0z"/><path class="b" d="m833.9 439.8c0.4-0.4 0.4-1 0-1.4 0-0.1-5-5.2-10.1-15.1-4.7-9.2-10.4-24.3-11.1-44.7 0-0.6-0.4-1-1-1q0 0 0 0c-0.6 0-1 0.5-1 1 1.3 39.9 21.6 61 21.8 61.2q0.3 0.3 0.7 0.3 0.4 0 0.7-0.3z"/><path class="b" d="m792.2 550.1q-0.4 0-0.7-0.3c-0.2-0.3-24.5-24.3-28.3-59.6-0.1-0.5 0.3-1 0.8-1.1 0.6-0.1 1.1 0.3 1.1 0.9 3.8 34.6 27.6 58.1 27.8 58.3 0.4 0.4 0.4 1.1 0 1.5-0.1 0.2-0.4 0.3-0.7 0.3z"/><path class="b" d="m794 550.6q-0.7 0-0.8 0c-0.5-0.1-1-0.5-0.9-1.1 0-0.5 0.5-1 1-0.9 0.3 0 28.9 1.1 59-23.6 0.5-0.4 1.1-0.3 1.4 0.1 0.4 0.5 0.3 1.1-0.1 1.4-27.8 22.9-54.6 24.1-59.6 24.1z"/></g><g style="opacity:.6"><path class="d" d="m53.2 376.6c-3.3-27.1 16.1-51.8 43.2-55.1 27.2-3.3 51.8 16.1 55.1 43.2q0 0 0 0c1.8 15.1 10.1 28.7 22.6 37.3 14.4 9.9 24.6 25.7 26.9 44.4q0 0 0 0c2.2 18.3 12.8 34.5 28.6 43.9 18.5 10.9 31.9 30.1 34.7 53.1 4.8 39.3-23.3 75.1-62.6 79.8-39.3 4.8-75-23.2-79.8-62.6q-0.4-3.1-0.5-6.2c-0.7-20.4-9.7-39.5-25-53-11.2-9.9-18.9-23.8-20.9-39.8-0.8-7-0.5-13.9 0.9-20.5 2.7-13.2-1.1-26.9-10.3-36.7-6.9-7.4-11.6-17-12.9-27.8z"/><path class="b" d="m221.5 594.4c-0.3 0-0.6-0.1-0.8-0.4-85.6-113.5-121.3-220.5-121.7-221.6-0.2-0.5 0.1-1.1 0.7-1.2 0.5-0.2 1 0.1 1.2 0.6 0.4 1.1 36 107.8 121.4 221 0.3 0.5 0.2 1.1-0.2 1.4q-0.3 0.2-0.6 0.2z"/><path class="b" d="m117.4 415.5c-0.2 0-0.5-0.1-0.7-0.3-0.4-0.4-0.4-1 0-1.4 10.5-9.8 15.2-41.4 15.3-41.7 0-0.5 0.6-0.9 1.1-0.8 0.5 0 0.9 0.5 0.8 1.1-0.2 1.3-4.8 32.6-15.8 42.9q-0.3 0.2-0.7 0.2z"/><path class="b" d="m116.5 415.7q-0.1 0-0.3-0.1c-0.8-0.2-21.5-5-35.1-16.2-0.4-0.3-0.4-1-0.1-1.4 0.4-0.4 1-0.5 1.4-0.1 13.2 10.8 34.1 15.7 34.3 15.8 0.5 0.1 0.9 0.6 0.7 1.2-0.1 0.4-0.5 0.8-0.9 0.8z"/><path class="b" d="m150.3 482.6q-0.3 0-0.6-0.2c-0.4-0.3-0.5-0.9-0.2-1.4 14.3-18.7 15.3-49.1 15.3-49.4 0-0.6 0.4-1 1-1 0.6 0 1 0.5 1 1 0 0.3-1.1 31.3-15.7 50.6-0.2 0.3-0.5 0.4-0.8 0.4z"/><path class="b" d="m147.5 483.3c-6.7 0-25.1-1.6-45.4-16.9-0.5-0.3-0.5-0.9-0.2-1.4 0.3-0.4 0.9-0.5 1.4-0.2 24.3 18.3 46.3 16.4 46.6 16.4 0.5-0.1 1 0.3 1.1 0.9 0 0.5-0.4 1-0.9 1.1-0.2 0-1.1 0.1-2.6 0.1z"/><path class="b" d="m190.8 562.2c-9.3 0-27.5-1.6-44.1-12.2-0.5-0.3-0.6-1-0.3-1.4 0.2-0.5 0.9-0.6 1.3-0.3 22.8 14.6 48.7 11.6 49 11.6 0.5-0.1 1 0.3 1.1 0.9 0 0.5-0.4 1-0.9 1.1-0.1 0-2.4 0.3-6.1 0.3z"/><path class="b" d="m197.6 561.5q-0.4 0-0.7-0.2c-0.4-0.4-0.4-1-0.1-1.5 0.2-0.1 14.9-16.9 14.5-47.2 0-0.6 0.5-1 1-1q0 0 0 0c0.6 0 1 0.4 1 1 0.4 31.1-14.3 47.9-15 48.6-0.2 0.2-0.4 0.3-0.7 0.3z"/></g><g style="opacity:.6"><path class="e" d="m6.6 514.2c-11.7-18.9-5.8-43.8 13.2-55.4 18.9-11.7 43.7-5.8 55.4 13.2q0 0 0 0c6.5 10.5 17.2 17.7 29.4 19.8 14 2.5 26.9 10.7 34.9 23.7q0 0 0 0c7.9 12.8 21.2 21.1 36.1 22.7 17.4 1.8 33.9 11.4 43.7 27.4 16.9 27.5 8.4 63.4-19 80.3-27.5 16.9-63.4 8.4-80.3-19.1q-1.4-2.2-2.5-4.5c-7.4-14.8-20.6-25.8-36.5-30.6-11.7-3.5-22.1-11.1-29-22.3-3-4.9-5.1-10.1-6.3-15.4-2.5-10.7-10-19.5-20.1-23.6-7.6-3.2-14.4-8.6-19-16.2z"/><path class="b" d="m204.7 618.2q-0.2 0-0.5-0.1c-101.8-54.8-164.7-121.8-165.3-122.4-0.4-0.4-0.4-1.1 0-1.5 0.4-0.3 1.1-0.3 1.5 0.1 0.6 0.7 63.2 67.4 164.8 122 0.5 0.3 0.7 0.9 0.4 1.4-0.2 0.3-0.5 0.5-0.9 0.5z"/><path class="b" d="m67 521.4q-0.2 0-0.4-0.1c-0.5-0.2-0.8-0.8-0.6-1.3 4.4-10.8-2.9-35.6-2.9-35.9-0.2-0.5 0.1-1.1 0.7-1.2 0.5-0.2 1 0.1 1.2 0.7 0.3 1 7.5 25.8 2.9 37.2-0.2 0.3-0.5 0.6-0.9 0.6z"/><path class="b" d="m49.5 523.4c-4.7 0-9.8-0.4-14.6-1.7-0.5-0.1-0.8-0.6-0.7-1.2 0.2-0.5 0.7-0.8 1.3-0.7 13.4 3.5 30.4 0.1 30.6 0 0.5-0.1 1.1 0.3 1.2 0.8 0.1 0.5-0.3 1.1-0.8 1.2-0.5 0.1-8 1.6-17 1.6z"/><path class="b" d="m114.1 559.8q-0.1 0-0.2-0.1c-0.5-0.1-0.9-0.6-0.8-1.2 4.1-18.6-5.4-41.4-5.5-41.6-0.2-0.5 0-1.1 0.5-1.3 0.5-0.2 1.1 0 1.3 0.5 0.4 1 9.9 23.6 5.7 42.9-0.1 0.4-0.5 0.8-1 0.8z"/><path class="b" d="m88.9 565.9c-4.7 0-10-0.5-15.7-1.8-0.5-0.1-0.8-0.6-0.7-1.2 0.1-0.5 0.6-0.8 1.2-0.7 24.1 5.2 39.7-3.7 39.8-3.8 0.5-0.3 1.1-0.1 1.4 0.4 0.3 0.5 0.1 1.1-0.4 1.4-0.5 0.2-10 5.7-25.6 5.7z"/><path class="b" d="m142.6 611.2q-3.9 0-8-0.5c-0.5-0.1-0.9-0.6-0.8-1.1 0-0.6 0.5-1 1.1-0.9 21.7 3 39.8-7.9 40-8 0.4-0.3 1.1-0.2 1.4 0.3 0.2 0.5 0.1 1.1-0.4 1.4-0.1 0.1-14.6 8.8-33.3 8.8z"/><path class="b" d="m175.9 602q-0.2 0-0.3-0.1c-0.6-0.1-0.8-0.7-0.7-1.2 0.1-0.2 5.2-17.5-5.4-39.7-0.2-0.5 0-1.1 0.5-1.4 0.5-0.2 1.1 0 1.4 0.5 10.8 23 5.7 40.4 5.4 41.2-0.1 0.4-0.5 0.7-0.9 0.7z"/></g><g style="opacity:.6"><path class="f" d="m308.2 291.3c-3.1 17 2.2 34.5 14.3 46.8 6 6.1 11.2 13.3 15.1 21.5 9 18.6 10.2 38.9 5 57.3-7.2 25.1-3.7 52 9.6 74.5q2.1 3.4 3.8 7.1c22.1 45.7 2.9 100.6-42.8 122.7-45.7 22-100.6 2.9-122.7-42.8-12.9-26.8-11.7-56.7 0.7-81.3 10.6-21.1 10.8-45.9 0.6-67.1q0 0 0 0c-10.5-21.8-10.4-45.9-1.7-66.6 7.5-17.9 7-38.2-1.5-55.8q0 0 0 0c-15.2-31.6-2-69.5 29.6-84.7 31.5-15.3 69.5-2 84.7 29.5 6.1 12.6 7.6 26.2 5.3 38.9z"/><path class="b" d="m271.3 603.7q0 0 0 0c-0.6 0-1-0.5-0.9-1.1 13.7-181.2-21.7-321-22-322.4-0.2-0.5 0.2-1.1 0.7-1.2 0.5-0.2 1.1 0.2 1.2 0.7 0.4 1.4 35.8 141.5 22 323.1 0 0.5-0.4 0.9-1 0.9z"/><path class="b" d="m259.8 338.8q0 0-0.1 0c-8-1.5-18.2-7.9-30.5-19-9.1-8.3-16-16.2-16.1-16.3-0.4-0.4-0.3-1 0.1-1.4 0.4-0.3 1-0.3 1.4 0.1 0.3 0.3 27.3 31.2 45.4 34.6 0.6 0.1 0.9 0.6 0.8 1.2-0.1 0.5-0.5 0.8-1 0.8z"/><path class="b" d="m261 338.2q-0.4 0-0.7-0.2c-0.4-0.4-0.4-1.1 0-1.5 0.1-0.2 19.3-19.9 26.1-40.8 0.1-0.6 0.7-0.8 1.2-0.7 0.6 0.2 0.8 0.8 0.7 1.3-7 21.3-26.4 41.4-26.6 41.6q-0.3 0.3-0.7 0.3z"/><path class="b" d="m270.7 433.9q-0.1 0-0.3-0.1c-29-10.6-51.5-43.3-51.8-43.6-0.3-0.5-0.1-1.1 0.3-1.4 0.5-0.3 1.1-0.2 1.4 0.3 0.2 0.3 22.4 32.4 50.8 42.9 0.5 0.2 0.8 0.7 0.6 1.2-0.2 0.5-0.6 0.7-1 0.7z"/><path class="b" d="m271.5 434.2c-0.3 0-0.7-0.2-0.9-0.5-0.2-0.5 0-1.1 0.5-1.4 0.2-0.1 25.5-13.3 39-49.9 0.2-0.6 0.8-0.8 1.3-0.6 0.6 0.2 0.8 0.7 0.6 1.3-13.9 37.3-39.8 50.9-40 51q-0.2 0.1-0.5 0.1z"/><path class="b" d="m275.5 551.5c-0.4 0-0.8-0.2-0.9-0.5-0.3-0.5-0.1-1.1 0.4-1.4 0.3-0.1 30.4-14.9 44.9-46.5 0.2-0.5 0.8-0.7 1.3-0.5 0.5 0.3 0.8 0.9 0.5 1.4-14.8 32.2-45.5 47.3-45.8 47.4q-0.2 0.1-0.4 0.1z"/><path class="b" d="m274.3 551.7q-0.1 0-0.2-0.1c-0.3 0-28.6-8.2-49.7-41.9-0.3-0.5-0.1-1.1 0.3-1.4 0.5-0.3 1.1-0.1 1.4 0.3 20.7 33.1 48.2 41 48.5 41.1 0.5 0.2 0.8 0.7 0.7 1.2-0.1 0.5-0.5 0.8-1 0.8z"/></g><path class="g" d="m228.7 477.6h286.4v57.3h-286.4c6.1 0 6.1-57.3 0-57.3z"/><path class="h" d="m515.1 520.5v-26.2c0-9.2-5.7-16.7-12.7-16.7h-272.5c-5.5 0-9.9-4.5-9.9-10 0-1.6 1.3-3 3-3h297.8c6.9 0 17.7 10.8 17.7 24v36.6c0 12.5-10.5 22.7-17 22.7h-297c-2.5 0-4.5-2.1-4.5-4.6 0-4.7 3.7-8.4 8.3-8.4h275.9c6 0 10.9-6.4 10.9-14.4z"/><path class="b" d="m507.1 490.3h-268.5c-0.5 0-1-0.4-1-1 0-0.5 0.5-1 1-1h268.5c0.6 0 1 0.5 1 1 0 0.6-0.4 1-1 1z"/><path class="b" d="m507.1 498.8h-268.5c-0.5 0-1-0.4-1-1 0-0.5 0.5-1 1-1h268.5c0.6 0 1 0.5 1 1 0 0.6-0.4 1-1 1z"/><path class="b" d="m507.1 507.4h-268.5c-0.5 0-1-0.5-1-1 0-0.6 0.5-1 1-1h268.5c0.6 0 1 0.4 1 1 0 0.5-0.4 1-1 1z"/><path class="b" d="m507.1 515.9h-268.5c-0.5 0-1-0.5-1-1 0-0.6 0.5-1 1-1h268.5c0.6 0 1 0.4 1 1 0 0.5-0.4 1-1 1z"/><path class="b" d="m507.1 524.4h-268.5c-0.5 0-1-0.5-1-1 0-0.6 0.5-1 1-1h268.5c0.6 0 1 0.4 1 1 0 0.5-0.4 1-1 1z"/><rect class="i" x="161" y="547.1" width="517" height="124.8" rx="21.4"></rect><rect class="j" x="219.4" y="561.4" width="60.7" height="96.1" rx="7.2"></rect><rect class="k" x="289.1" y="561.4" width="22.8" height="96.1" rx="5.9"></rect><path class="l" d="m725.2 605.6h286.4v57.3h-286.4c6.1 0 6.1-57.3 0-57.3z"/><path class="m" d="m1011.6 648.6v-26.3c0-9.2-5.7-16.7-12.7-16.7h-272.5c-5.5 0-10-4.5-10-10 0-1.6 1.4-3 3.1-3h297.8c6.9 0 17.7 10.8 17.7 24v36.7c0 12.4-10.5 22.6-17 22.6h-297c-2.5 0-4.6-2.1-4.6-4.6 0-4.6 3.8-8.4 8.4-8.4h275.9c6 0 10.9-6.4 10.9-14.3z"/><path class="b" d="m1003.6 618.3h-268.5c-0.6 0-1-0.4-1-1 0-0.5 0.4-1 1-1h268.5c0.6 0 1 0.5 1 1 0 0.6-0.4 1-1 1z"/><path class="b" d="m1003.6 626.9h-268.5c-0.6 0-1-0.5-1-1 0-0.6 0.4-1 1-1h268.5c0.6 0 1 0.4 1 1 0 0.5-0.4 1-1 1z"/><path class="b" d="m1003.6 635.4h-268.5c-0.6 0-1-0.5-1-1 0-0.6 0.4-1 1-1h268.5c0.6 0 1 0.4 1 1 0 0.5-0.4 1-1 1z"/><path class="b" d="m1003.6 643.9h-268.5c-0.6 0-1-0.5-1-1 0-0.6 0.4-1 1-1h268.5c0.6 0 1 0.4 1 1 0 0.5-0.4 1-1 1z"/><path class="b" d="m1003.6 652.4h-268.5c-0.6 0-1-0.5-1-1 0-0.6 0.4-1 1-1h268.5c0.6 0 1 0.4 1 1 0 0.5-0.4 1-1 1z"/><rect class="n" x="753.5" y="530.2" width="257.7" height="62.2" rx="20.1"></rect><rect class="o" x="951.8" y="537.3" width="30.3" height="47.9" rx="7.2"></rect><rect class="o" x="935.9" y="537.3" width="11.4" height="47.9" rx="3.7"></rect><g style="opacity:.5"><path class="p" d="m902.1 244.1c-0.4 0-0.7-0.2-0.9-0.6-0.2-0.5 0-1.1 0.5-1.3q1.9-0.8 3.7-1.6c0.5-0.2 1.1 0 1.3 0.5 0.2 0.5 0 1.1-0.5 1.3q-1.8 0.9-3.7 1.6-0.2 0.1-0.4 0.1z"/><path class="p" d="m865.4 251.4q-2.5 0-5.1-0.1c-0.5-0.1-0.9-0.5-0.9-1.1 0-0.5 0.5-1 1-0.9q4.1 0.2 8.1 0.1 0 0 0 0c0.6 0 1 0.4 1 0.9 0 0.6-0.4 1-0.9 1.1q-1.6 0-3.2 0zm16.3-1.4c-0.5 0-0.9-0.3-1-0.8-0.1-0.5 0.3-1.1 0.8-1.2 2.6-0.4 5.3-1 7.9-1.7 0.5-0.1 1 0.2 1.2 0.8 0.1 0.5-0.2 1-0.7 1.2-2.7 0.7-5.4 1.3-8.1 1.7q-0.1 0-0.1 0zm-34.4-0.3q-0.1 0-0.2 0c-2.7-0.6-5.4-1.2-8-2-0.5-0.1-0.8-0.7-0.7-1.2 0.2-0.5 0.7-0.8 1.3-0.7 2.5 0.8 5.2 1.4 7.8 1.9 0.5 0.1 0.9 0.6 0.8 1.2-0.1 0.4-0.5 0.8-1 0.8zm-20.3-6.4q-0.2 0-0.4-0.1c-2.5-1.1-5-2.3-7.4-3.6-0.5-0.3-0.7-0.9-0.4-1.4 0.3-0.5 0.9-0.7 1.4-0.4 2.3 1.3 4.7 2.5 7.2 3.6 0.5 0.2 0.7 0.8 0.5 1.3-0.2 0.4-0.6 0.6-0.9 0.6zm-18.4-10.8q-0.4 0-0.6-0.2c-2.2-1.6-4.4-3.3-6.4-5.1-0.4-0.4-0.5-1-0.1-1.5 0.4-0.4 1-0.4 1.4 0 2 1.7 4.1 3.4 6.3 5 0.4 0.4 0.5 1 0.2 1.4-0.2 0.3-0.5 0.4-0.8 0.4zm-15.6-14.5c-0.3 0-0.6-0.1-0.7-0.4-1.8-2-3.5-4.2-5.1-6.4-0.3-0.5-0.2-1.1 0.2-1.4 0.5-0.3 1.1-0.2 1.4 0.2 1.6 2.2 3.2 4.3 5 6.3 0.3 0.5 0.3 1.1-0.1 1.4q-0.3 0.3-0.7 0.3zm-11.9-17.6c-0.4 0-0.7-0.2-0.9-0.6-1.3-2.4-2.5-4.9-3.5-7.4-0.2-0.5 0-1.1 0.5-1.3 0.5-0.2 1.1 0 1.3 0.5 1.1 2.5 2.2 4.9 3.5 7.3 0.2 0.5 0 1.1-0.5 1.3q-0.2 0.2-0.4 0.2zm-7.7-19.9c-0.5 0-0.9-0.3-1-0.7-0.7-2.7-1.3-5.4-1.8-8.1-0.1-0.5 0.3-1 0.8-1.1 0.6-0.1 1.1 0.3 1.2 0.8 0.5 2.6 1 5.3 1.7 7.9 0.2 0.5-0.2 1-0.7 1.2q-0.1 0-0.2 0zm-3.1-21.1c-0.6 0-1-0.4-1-0.9q-0.1-1.8-0.1-3.5 0-2.4 0.1-4.7c0-0.6 0.5-1 1.1-1 0.5 0 0.9 0.5 0.9 1q-0.1 2.4-0.1 4.7 0 1.7 0.1 3.4c0 0.5-0.5 1-1 1q0 0 0 0zm1.6-21.2q-0.1 0-0.2 0c-0.6-0.1-0.9-0.7-0.8-1.2 0.5-2.7 1.1-5.4 1.9-8 0.1-0.5 0.7-0.8 1.2-0.7 0.5 0.2 0.8 0.7 0.7 1.2-0.7 2.6-1.3 5.2-1.8 7.9-0.1 0.5-0.6 0.8-1 0.8z"/><path class="p" d="m778.2 117.8q-0.2 0-0.4-0.1c-0.5-0.2-0.7-0.8-0.5-1.3q0.8-1.9 1.7-3.7c0.3-0.5 0.9-0.7 1.3-0.4 0.5 0.2 0.7 0.8 0.5 1.3q-0.9 1.8-1.7 3.6c-0.1 0.4-0.5 0.6-0.9 0.6z"/><path class="p" d="m832.6 66.6c-0.4 0-0.7-0.2-0.9-0.6-0.2-0.6 0.1-1.1 0.6-1.3q1.9-0.7 3.8-1.3c0.5-0.2 1.1 0.1 1.3 0.6 0.1 0.5-0.1 1.1-0.7 1.3q-1.8 0.6-3.7 1.3-0.2 0-0.4 0z"/><path class="p" d="m955.9 186.4q-0.2 0-0.3-0.1c-0.6-0.2-0.8-0.7-0.7-1.3 0.9-2.4 1.6-5 2.2-7.6 0.2-0.5 0.7-0.8 1.2-0.7 0.6 0.1 0.9 0.7 0.8 1.2-0.7 2.6-1.4 5.2-2.3 7.8-0.1 0.4-0.5 0.7-0.9 0.7zm4.4-20.5q0 0-0.1 0c-0.5-0.1-0.9-0.6-0.9-1.1 0.3-2.6 0.4-5.3 0.5-7.9 0-0.6 0.4-1 1-1 0.6 0 1 0.4 1 1-0.1 2.7-0.2 5.4-0.5 8.1 0 0.5-0.5 0.9-1 0.9zm-0.2-21c-0.5 0-0.9-0.4-1-0.9-0.3-2.6-0.7-5.2-1.2-7.8-0.1-0.5 0.2-1.1 0.8-1.2 0.5-0.1 1 0.3 1.2 0.8 0.5 2.6 0.9 5.3 1.2 8 0.1 0.5-0.3 1-0.8 1.1q-0.1 0-0.2 0zm-4.7-20.4c-0.4 0-0.8-0.3-0.9-0.7-0.9-2.5-1.9-4.9-3-7.3-0.2-0.5 0-1.1 0.5-1.4 0.6-0.2 1.1 0 1.4 0.5 1.1 2.5 2.1 5 3 7.6 0.2 0.5-0.1 1-0.6 1.2q-0.2 0.1-0.4 0.1zm-9.1-18.9c-0.3 0-0.6-0.2-0.8-0.5-1.4-2.2-2.9-4.4-4.5-6.5-0.3-0.4-0.2-1.1 0.2-1.4 0.5-0.3 1.1-0.2 1.4 0.2 1.6 2.2 3.2 4.4 4.6 6.7 0.3 0.4 0.1 1.1-0.3 1.4q-0.3 0.1-0.6 0.1zm-13-16.4q-0.4 0-0.7-0.3c-1.8-1.9-3.8-3.7-5.8-5.4-0.4-0.4-0.4-1-0.1-1.4 0.4-0.5 1-0.5 1.4-0.1 2.1 1.7 4.1 3.6 6 5.5 0.3 0.4 0.3 1-0.1 1.4q-0.3 0.3-0.7 0.3zm-16.2-13.2q-0.3 0-0.6-0.2c-2.2-1.4-4.5-2.8-6.8-4-0.5-0.3-0.7-0.9-0.4-1.4 0.2-0.4 0.9-0.6 1.3-0.4 2.4 1.3 4.7 2.7 7 4.1 0.5 0.3 0.6 0.9 0.3 1.4-0.2 0.3-0.5 0.5-0.8 0.5zm-18.8-9.4q-0.2 0-0.3-0.1c-2.5-0.9-5-1.7-7.6-2.4-0.5-0.1-0.8-0.7-0.7-1.2 0.2-0.5 0.7-0.8 1.2-0.7 2.6 0.7 5.2 1.5 7.7 2.5 0.6 0.2 0.8 0.7 0.6 1.2-0.1 0.5-0.5 0.7-0.9 0.7zm-49.3-4.4c-0.4 0-0.9-0.3-0.9-0.8-0.1-0.5 0.2-1.1 0.8-1.2 2.6-0.4 5.3-0.8 8-1 0.5-0.1 1 0.3 1.1 0.9 0 0.5-0.4 1-0.9 1.1-2.7 0.2-5.3 0.6-7.9 1q-0.1 0-0.2 0zm28.9-0.6q0 0-0.1 0c-2.6-0.4-5.2-0.6-7.9-0.7-0.5 0-1-0.5-0.9-1.1 0-0.5 0.5-0.9 1-0.9 2.7 0.1 5.4 0.4 8.1 0.7 0.5 0.1 0.9 0.6 0.8 1.1 0 0.5-0.5 0.9-1 0.9z"/><path class="p" d="m949 202q-0.2 0-0.4-0.2c-0.5-0.2-0.7-0.8-0.4-1.3q0.9-1.8 1.8-3.5c0.2-0.5 0.8-0.7 1.3-0.5 0.5 0.3 0.7 0.9 0.5 1.4q-0.9 1.8-1.9 3.6c-0.2 0.3-0.5 0.5-0.9 0.5z"/><path class="q" d="m913.5 210.5c-0.3 0.4-0.8 0.5-1.3 0.3l-12.8-5.4c-5.3 3.7-11.3 6.5-17.7 8.4l-3.9 13.3c-0.1 0.5-0.6 0.8-1 0.9l-16.7 0.8c-0.5 0-1-0.3-1.1-0.7l-5.2-12.9c-6.6-1.2-12.8-3.5-18.5-6.6l-12.2 6.7c-0.5 0.2-1 0.2-1.4-0.2l-12.3-11.2c-0.4-0.3-0.5-0.8-0.3-1.3l5.4-12.8c-3.7-5.3-6.5-11.3-8.4-17.7l-13.3-3.9c-0.5-0.1-0.8-0.6-0.9-1l-0.8-16.7c0-0.5 0.3-1 0.7-1.1l12.9-5.2c1.2-6.6 3.5-12.8 6.6-18.5l-6.7-12.2c-0.2-0.4-0.2-1 0.2-1.3l11.2-12.4c0.3-0.4 0.8-0.5 1.3-0.3l12.8 5.5c5.3-3.7 11.3-6.6 17.7-8.5l3.9-13.3c0.1-0.5 0.5-0.8 1-0.9l16.7-0.8c0.5 0 0.9 0.3 1.1 0.7l5.2 12.9c6.6 1.2 12.8 3.5 18.5 6.6l12.2-6.7c0.4-0.2 1-0.2 1.3 0.2l12.4 11.2c0.4 0.3 0.5 0.8 0.3 1.3l-5.5 12.8c3.7 5.3 6.6 11.3 8.5 17.7l13.3 3.9c0.5 0.1 0.8 0.6 0.9 1l0.8 16.7c0 0.5-0.3 1-0.7 1.1l-12.9 5.2c-1.2 6.6-3.5 12.8-6.6 18.5l6.7 12.2c0.2 0.5 0.1 1-0.2 1.3z"/><path fill-rule="evenodd" class="b" d="m864.8 171.5c-7 0-13.5-4.5-15.7-11.6-1.2-4.1-0.8-8.6 1.2-12.4 2.1-3.9 5.5-6.7 9.7-8 4.1-1.2 8.5-0.8 12.4 1.2 3.9 2.1 6.7 5.5 8 9.7 2.6 8.6-2.3 17.7-10.9 20.4q-2.4 0.7-4.7 0.7zm0-29.7q-2 0-4 0.6c-3.4 1.1-6.2 3.4-7.8 6.5-1.7 3.1-2 6.8-1 10.2 2.2 7 9.6 10.9 16.6 8.8 7.1-2.2 11-9.6 8.9-16.7-1.1-3.4-3.4-6.2-6.5-7.8-2-1.1-4.1-1.6-6.2-1.6z"/><path class="b" d="m864.4 196.7c-22.1 0-40.6-17.4-41.7-39.7q0-1 0-2.1c0-22.1 17.4-40.6 39.7-41.7 23-1.1 42.6 16.6 43.8 39.6q0.1 1.1 0.1 2.2 0 3.4-0.6 6.7l-3-0.5q0.6-3.1 0.6-6.2 0-1-0.1-2c-1.1-21.4-19.3-37.9-40.7-36.8-10.3 0.5-19.9 5-26.8 12.7-6.5 7.2-10 16.4-10 26q0 1 0 2c1.1 21.3 19.4 37.9 40.7 36.8 7-0.4 13.8-2.6 19.6-6.5l1.7 2.5c-6.3 4.2-13.6 6.6-21.1 7q-1.1 0-2.2 0z"/><path class="r" d="m810.2 88.8l-5.8 7.4c-0.1 0.2-0.4 0.3-0.7 0.2l-7.4-2.5c-2.8 2.3-6 4.2-9.5 5.5l-1.6 7.6c0 0.3-0.2 0.5-0.5 0.5l-9.3 1.3c-0.3 0-0.5-0.1-0.6-0.4l-3.5-7c-3.7-0.3-7.3-1.3-10.6-2.8l-6.6 4.3c-0.2 0.1-0.5 0.1-0.7-0.1l-7.4-5.7c-0.2-0.1-0.3-0.4-0.2-0.7l2.5-7.4c-2.4-2.8-4.2-6-5.5-9.5l-7.7-1.6c-0.2-0.1-0.4-0.3-0.5-0.5l-1.2-9.3c0-0.3 0.1-0.6 0.4-0.7l6.9-3.4c0.4-3.8 1.4-7.4 2.9-10.7l-4.3-6.5c-0.1-0.2-0.1-0.5 0-0.7l5.7-7.4c0.2-0.3 0.5-0.4 0.8-0.3l7.4 2.5c2.8-2.3 6-4.2 9.5-5.5l1.6-7.6c0-0.3 0.2-0.5 0.5-0.5l9.3-1.2c0.3-0.1 0.5 0.1 0.6 0.3l3.5 7c3.7 0.4 7.3 1.4 10.6 2.9l6.6-4.3c0.2-0.2 0.5-0.2 0.7 0l7.4 5.7c0.2 0.2 0.3 0.5 0.2 0.7l-2.5 7.4c2.3 2.8 4.2 6.1 5.5 9.6l7.7 1.5c0.2 0.1 0.4 0.3 0.5 0.6l1.2 9.3c0 0.2-0.1 0.5-0.4 0.6l-6.9 3.5c-0.4 3.7-1.4 7.3-2.9 10.6l4.3 6.5c0.1 0.3 0.1 0.5 0 0.8z"/><path fill-rule="evenodd" class="b" d="m774.7 77.2c-1.3 0-2.6-0.2-3.9-0.8-2.4-1-4.2-2.9-5.2-5.4-0.9-2.4-0.9-5.1 0.1-7.5 1.1-2.4 3-4.2 5.4-5.2 5.1-2 10.8 0.5 12.8 5.5 2 5-0.5 10.7-5.5 12.7q-1.8 0.7-3.7 0.7zm0-16.6q-1.2 0-2.5 0.5c-1.6 0.7-3 1.9-3.7 3.6-0.7 1.7-0.8 3.5-0.1 5.2 0.7 1.7 2 3 3.6 3.8 1.7 0.7 3.6 0.7 5.3 0 3.4-1.3 5.2-5.3 3.8-8.8-1.1-2.7-3.6-4.3-6.4-4.3z"/><path class="p" d="m805.2 108.3c-0.3 0-0.6-0.1-0.8-0.4-0.4-0.4-0.3-1.1 0.2-1.4q1.5-1.2 3-2.5c0.4-0.4 1-0.3 1.4 0.1 0.4 0.4 0.3 1-0.1 1.4q-1.5 1.4-3.1 2.6-0.3 0.2-0.6 0.2z"/><path class="p" d="m774.1 118.6q0 0 0 0c-2.6-0.1-5.3-0.3-7.9-0.7-0.6-0.1-0.9-0.7-0.8-1.2 0-0.5 0.6-0.9 1.1-0.8 2.5 0.4 5.1 0.6 7.6 0.7 0.6 0 1 0.4 1 1 0 0.5-0.4 1-1 1zm12.6-1.5c-0.4 0-0.8-0.3-0.9-0.7-0.2-0.6 0.2-1.1 0.7-1.3q3.2-0.8 6.3-2 0.5-0.2 1-0.4c0.5-0.2 1.1 0.1 1.3 0.6 0.2 0.5 0 1.1-0.5 1.3q-0.5 0.2-1 0.4c-2.2 0.8-4.4 1.5-6.6 2.1q-0.1 0-0.3 0zm-32.5-2.9q-0.2 0-0.4-0.1c-2.4-1.1-4.8-2.4-7-3.8-0.5-0.3-0.6-1-0.3-1.4 0.3-0.5 0.9-0.6 1.4-0.3 2.1 1.4 4.4 2.6 6.7 3.7 0.5 0.2 0.7 0.8 0.5 1.3-0.2 0.4-0.5 0.6-0.9 0.6zm-16.5-12c-0.3 0-0.6-0.1-0.8-0.3-1.8-2-3.4-4.1-4.9-6.3-0.3-0.5-0.1-1.1 0.3-1.4 0.5-0.3 1.1-0.2 1.4 0.3 1.4 2.1 3 4.2 4.7 6 0.4 0.4 0.3 1.1-0.1 1.5q-0.3 0.2-0.6 0.2zm-10.4-17.6c-0.4 0-0.8-0.2-1-0.6-0.8-2.6-1.5-5.2-2-7.8-0.1-0.5 0.3-1 0.9-1.1 0.5-0.1 1 0.2 1.1 0.8 0.5 2.5 1.1 5 1.9 7.4 0.2 0.5-0.1 1.1-0.6 1.3q-0.2 0-0.3 0z"/><path class="p" d="m724.7 64.3q0 0 0 0c-0.6 0-1-0.5-1-1q0.2-2.1 0.5-4.1c0.1-0.5 0.6-0.9 1.2-0.8 0.5 0.1 0.9 0.6 0.8 1.1q-0.3 2-0.5 3.9c0 0.5-0.4 0.9-1 0.9z"/><path class="p" d="m744.5 28.4c-0.3 0-0.6-0.2-0.8-0.4-0.3-0.5-0.2-1.1 0.2-1.4q1.6-1.3 3.4-2.4c0.4-0.2 1-0.1 1.3 0.4 0.3 0.4 0.2 1-0.3 1.3q-1.6 1.1-3.2 2.3-0.3 0.2-0.6 0.2z"/><path class="p" d="m824.5 62.3c-0.5 0-0.9-0.4-1-0.9-0.3-2.5-0.8-5-1.5-7.4-0.1-0.5 0.2-1.1 0.7-1.2 0.5-0.2 1.1 0.1 1.3 0.7 0.7 2.5 1.2 5.1 1.5 7.6 0.1 0.6-0.3 1.1-0.8 1.2q-0.1 0-0.2 0zm-6.4-19.1c-0.3 0-0.7-0.1-0.8-0.5-1.3-2.1-2.7-4.2-4.3-6.2-0.4-0.4-0.3-1 0.1-1.4 0.5-0.3 1.1-0.3 1.5 0.2 1.6 2 3.1 4.2 4.4 6.4 0.3 0.5 0.1 1.1-0.4 1.4q-0.2 0.1-0.5 0.1zm-13.3-15q-0.3 0-0.6-0.2c-2-1.5-4.2-2.8-6.4-4-0.5-0.2-0.7-0.9-0.4-1.3 0.3-0.5 0.9-0.7 1.4-0.5 2.3 1.3 4.5 2.7 6.6 4.2 0.4 0.4 0.5 1 0.2 1.4-0.2 0.3-0.5 0.4-0.8 0.4zm-45.7-7.4c-0.4 0-0.8-0.3-1-0.7-0.1-0.6 0.2-1.1 0.7-1.3 2.5-0.8 5-1.4 7.6-1.9 0.5-0.1 1.1 0.3 1.1 0.9 0.1 0.5-0.2 1-0.8 1.1-2.4 0.4-4.9 1-7.3 1.8q-0.2 0.1-0.3 0.1zm27.5-1.1q-0.1 0-0.2 0c-2.5-0.6-5-1.1-7.5-1.3-0.5 0-0.9-0.5-0.9-1.1 0.1-0.5 0.6-0.9 1.1-0.9 2.6 0.3 5.2 0.7 7.8 1.3 0.5 0.1 0.8 0.7 0.7 1.2-0.1 0.5-0.5 0.8-1 0.8z"/><path class="p" d="m823.8 78.7q-0.1 0-0.2 0c-0.5-0.1-0.9-0.6-0.8-1.2q0.5-1.9 0.7-3.8c0.1-0.6 0.6-1 1.1-0.9 0.6 0.1 1 0.6 0.9 1.1q-0.3 2-0.7 4c-0.1 0.5-0.5 0.8-1 0.8z"/><path class="b" d="m774.6 91.4c-11.9 0-22.3-8.9-23.9-21q-0.2-1.6-0.2-3.1c0-5.3 1.7-10.4 5-14.7 3.9-5.1 9.6-8.3 16-9.2 6.3-0.8 12.7 0.9 17.8 4.8 5.1 4 8.3 9.6 9.2 16q0.3 2.5 0.1 4.9 0 0.1 0 0.2l-3-0.2q0.1-0.9 0.1-1.8 0-1.3-0.2-2.7c-0.7-5.6-3.6-10.6-8.1-14-4.4-3.4-10-4.9-15.5-4.2-5.6 0.7-10.6 3.6-14 8.1-2.9 3.7-4.4 8.1-4.4 12.8q0 1.3 0.2 2.7c1.5 11.6 12.1 19.7 23.6 18.2 3.8-0.5 7.4-2 10.3-4.3l1.9 2.3c-3.4 2.7-7.5 4.4-11.8 5q-1.6 0.2-3.1 0.2z"/></g><path class="s" d="m832.1 169.6l18.8 1.2c9.4 0.6 16.6 8.4 16.5 17.8l-6.6 447.8c-0.2 10.2-8.6 18.3-18.8 18.1l-129.6-2.8z"/><path class="t" d="m605.7 170l239.3-11.6c4.9-0.2 9 3.8 8.9 8.8l-14.8 461.5c-0.3 9.8-8.6 17.5-18.4 17.1l-168.2-6.7z"/><path class="u" d="m618.5 179.7l210.4-26.8c5.4-0.7 10.2 3.6 10.1 9l-10.3 465.5c-0.1 6.5-5.4 11.8-11.9 12l-154.8 4.5z"/><path class="v" d="m563.2 156.6l230.7-14.4c11.5-0.7 21.2 8.4 21.2 19.9v475.4c0 9.6-7.8 17.4-17.4 17.4h-212.7c-10.1 0-18.3-7.8-18.9-17.9l-24.5-456.1c-0.7-12.7 8.9-23.5 21.6-24.3z"/><rect class="w" x="797.2" y="187.6" width="35.9" height="141.8" rx="9.5"></rect><path class="x" d="m335.8 161.4q-77 39.6-112.9-2.8c-28.9-34 21-9.3 68.6-2.4 3.8 0.6 4.8-4.9 1.1-5.8-36.1-8.3-90.1-24.3-92.5-45.7-3.6-32.3 6.5-18.5 46.9 1.2 40.5 19.6 52.5 12.3 27.5-4.4-24.9-16.8-73.8-18.8-79-35.9-5.2-17.1-0.9-45.5-0.7-58.3 0.2-12.9 62.9-8.8 72.5 11.8 9.7 20.6 9.6 58.4 25.3 71.2 15.8 12.9 7.4-23.8 1.1-43.4-6.3-19.7-6.8-32.7 15.8-20.1 22.5 12.5 24.2 46.5 18.6 69.2-5.7 22.8-1.8 38.1 1.8 27.2 3.7-10.9 12.2-45.5 8.3-58.3-3.9-12.8 46.1 19.8-2.4 96.5z"/><g style="opacity:.8"><path class="y" d="m321.3 185.1q-25.9 65-70.4 58.1c-35.7-5.5 8-16.8 40.7-37.8 2.5-1.7 0.3-5.6-2.4-4.1-26.5 14-67.9 32.8-80.7 21.1-19.3-17.8-5.9-14.7 29.2-24.2 35.2-9.4 38.6-20.3 14.5-17.2-24.1 3-55.1 27.6-67.3 19.9-12.2-7.6-24.6-27.3-31.3-35.2-6.6-8 33.8-38.7 50.6-31.2 16.7 7.5 36.7 30.6 53.1 30.1 16.5-0.6-8.1-18.5-22.3-27.1-14.3-8.7-21.5-16.4-1.1-20.6 20.5-4.3 39.5 15.5 48.1 32.4 8.6 16.8 19.1 24.2 15.5 15.6-3.5-8.6-16.6-34.2-25.8-40-9.2-5.7 38.6-12.3 49.6 60.2z"/></g><path class="z" d="m341.6 82.5h365.3c20.1 0 36.7 15.8 37.8 35.9l26.9 529.6c0.8 15.7-11.6 29-27.3 29.3l-418.6 7.6c-14.9 0.2-27-11.7-27-26.5v-533c0-23.7 19.2-42.9 42.9-42.9z"/><path class="b" d="m386.8 675.9q0 0 0 0l-46.8-0.6c-15.7-0.2-28.4-13.1-28.4-28.8v-70.7c0-0.6 0.4-1 1-1 0.5 0 1 0.4 1 1v70.7c0 14.6 11.8 26.6 26.4 26.8l46.9 0.6c0.5 0 0.9 0.4 0.9 1 0 0.5-0.4 1-1 1z"/><path class="b" d="m312.6 554.9c-0.6 0-1-0.5-1-1v-11.5c0-0.5 0.4-1 1-1 0.5 0 1 0.5 1 1v11.5c0 0.5-0.5 1-1 1z"/><path class="A" d="m342.8 78.2c49.8 6.8 221.4 27.7 363.2 16.8 6.4-0.5 12 4.4 12.4 10.9l28.3 531.9c0.3 7.3-5.2 13.5-12.5 13.9-59.7 3.6-305.3 17.2-392.9 8-5.3-0.5-9.4-5-9.4-10.4l-3.3-558.7c0-7.5 6.6-13.4 14.2-12.4z"/><path class="o" d="m348.1 92c48 6.5 213.1 26.6 349.5 16.2 6.3-0.5 11.7 4.2 12 10.4l27.2 511.9c0.4 7-5 13-12 13.4-57.4 3.4-293.8 16.6-378.1 7.7-5.1-0.5-9-4.8-9.1-10l-3.1-537.6c-0.1-7.3 6.4-13 13.6-12z"/><path class="B" d="m386.6 135.7l120.1 4.2c4.1 0.1 7.6 3.1 8.4 7.1 4.7 25.1 3.2 85 2.5 105.6-0.2 4-3.4 7.3-7.4 7.5-35.8 1.9-99.1 0.3-119.4-0.3-3.7-0.1-6.6-3-6.8-6.6l-5.1-109.8c-0.2-4.3 3.4-7.9 7.7-7.7z"/><circle class="C" cx="448" cy="182.7" r="23.6"/><path class="D" d="m407.2 242.4c6.7-9.5 19.9-22.8 42.2-23.4 23.1-0.7 36.5 14 42.9 24 2.4 3.8-0.3 8.9-4.9 8.9h-75.2c-4.9 0-7.8-5.5-5-9.5z"/><g style="opacity:.6"><path class="b" d="m550.7 153c-2.2 0-4.6-1.7-5.3-3.8l-0.8-2.3c-0.8-2.1 0.4-3.7 2.6-3.7l132.3 2.4c2.2 0 4.1 1.7 4.1 3.7 0.1 2-1.7 3.7-3.9 3.7z"/></g><g style="opacity:.6"><path class="b" d="m679.5 166c2.2 0.1 4.1 1.7 4.1 3.8 0.1 2-1.7 3.7-3.9 3.7h-129c-2.2 0-4.6-1.7-5.3-3.8l-0.8-2.3c-0.8-2.1 0.4-3.8 2.6-3.7z"/></g><g style="opacity:.6"><path class="b" d="m679.5 186.8c2.2 0 4.1 1.7 4.1 3.7 0.1 2.1-1.7 3.7-3.9 3.7h-129c-2.2 0-4.6-1.7-5.3-3.8l-0.8-2.3c-0.8-2.1 0.4-3.7 2.6-3.7z"/></g><path class="E" d="m633.7 202.6c10.2-0.8 29.2-1.2 39.7-1.3 4.4-0.1 8.3 2.9 9.4 7.3 2 8.3 4.8 22.9 4.4 38.3-0.1 4.6-3.9 8.3-8.5 8.3l-38.6-0.5c-4.8 0-8.7-3.6-9.2-8.4l-3.4-36.3c-0.3-3.8 2.5-7.1 6.2-7.4z"/><path class="F" d="m669.6 247.9l-9.7-4.3c-0.8-0.3-1.7-0.2-2.4 0.2l-9 5.7c-1.8 1.1-4.1-0.3-3.9-2.4l1-10.6c0.1-0.8-0.2-1.6-0.9-2.2l-8.1-6.8c-1.6-1.4-1-4 1-4.4l10.4-2.3c0.8-0.2 1.5-0.8 1.8-1.6l4-9.8c0.8-2 3.4-2.2 4.5-0.4l5.4 9.2c0.5 0.7 1.2 1.2 2 1.2l10.7 0.7c2 0.2 3.1 2.6 1.7 4.2l-7.1 8c-0.5 0.6-0.7 1.5-0.5 2.3l2.6 10.3c0.5 2-1.5 3.8-3.5 3z"/><path class="b" d="m647.4 233.7q-0.4-0.7-1.1-1.2l-5.3-4.5c-0.6-0.5-0.8-1.2-0.7-1.9 0.2-0.7 0.8-1.3 1.5-1.4l6.8-1.6c1.6-0.3 2.9-1.4 3.5-3l2.6-6.4c0.2-0.7 0.9-1.1 1.6-1.2 0.7-0.1 1.4 0.3 1.8 0.9l1.8 3.1-0.5 0.3-1.8-3.1c-0.2-0.5-0.7-0.7-1.3-0.7-0.5 0.1-0.9 0.4-1.1 0.9l-2.6 6.5c-0.7 1.6-2.1 2.9-3.9 3.3l-6.8 1.5c-0.5 0.1-0.9 0.5-1 1-0.2 0.5 0 1 0.4 1.4l5.4 4.4q0.7 0.6 1.1 1.4z"/><path class="b" d="m649.3 245.7q-0.5 0-1-0.3c-0.6-0.3-1-1-0.9-1.8l0.5-5.3 0.6 0.1-0.5 5.3c-0.1 0.5 0.1 1 0.6 1.3 0.4 0.3 1 0.3 1.4 0l5.9-3.7c1.5-1 3.5-1.1 5.1-0.4l6.4 2.8c0.5 0.2 1 0.1 1.5-0.3 0.4-0.3 0.5-0.8 0.4-1.3l-1.7-6.8c-0.4-1.7 0-3.6 1.2-5l4.6-5.2c0.4-0.4 0.4-0.9 0.2-1.4-0.2-0.5-0.6-0.8-1.1-0.8l-7-0.5q-1.1-0.1-2-0.6l0.2-0.5q0.9 0.5 1.9 0.5l6.9 0.5c0.7 0.1 1.4 0.5 1.6 1.2 0.3 0.7 0.2 1.4-0.3 2l-4.6 5.2c-1.1 1.2-1.5 2.9-1.1 4.5l1.7 6.7c0.2 0.7 0 1.5-0.6 2-0.6 0.4-1.3 0.5-2 0.2l-6.4-2.7c-1.5-0.7-3.2-0.5-4.6 0.3l-5.9 3.7q-0.5 0.3-1 0.3z"/><path class="b" d="m660.5 218.6l-1.1-1.8 0.5-0.3 1.1 1.8z"/><path class="G" d="m550.2 221.1c-2.2 0-4.3-1.8-4.7-4l-0.3-1.9c-0.4-2.2 1.1-3.9 3.3-3.8l61.3 2.2c2.2 0 4.1 1.8 4.1 3.8 0 2-1.7 3.7-3.9 3.7z"/><path class="H" d="m609.7 235.4c2.2 0 4.1 1.7 4.2 3.7 0.1 2-1.6 3.7-3.8 3.8l-59.7 2.2c-2.2 0.1-4.3-1.6-4.8-3.8l-0.4-1.9c-0.5-2.2 1-4 3.2-4z"/><g style="opacity:.6"><path class="b" d="m390.7 294.3c-2.2 0-5.1-1.4-6.5-3.1l-2.8-3.6c-1.4-1.8-0.7-3.1 1.5-3.1l309.2 2.4c2.2 0 4.1 1.7 4.2 3.7 0.1 2-1.6 3.7-3.8 3.7z"/></g><g style="opacity:.6"><path class="b" d="m692.1 307.4c2.2 0 4.1 1.7 4.2 3.7 0.1 2-1.6 3.7-3.8 3.7h-301.8c-2.2 0-5.1-1.4-6.5-3.2l-2.8-3.6c-1.4-1.7-0.7-3.1 1.5-3.1z"/></g><path class="I" d="m381.8 339.1c7.4-0.6 21.3-0.8 28.9-1 3.3 0 6.1 2.2 6.9 5.3 1.5 6.2 3.5 16.8 3.2 28.1 0 3.3-2.8 6-6.2 6l-28.2-0.3c-3.5-0.1-6.4-2.7-6.7-6.2l-2.5-26.5c-0.2-2.8 1.8-5.2 4.6-5.4z"/><g style="opacity:.6"><path class="b" d="m504.6 352.9c2.2 0.1 4.1 2 4.1 4.2v1.7c0 2.2-1.7 4-3.9 4h-69.2c-2.2 0-4.2-1.8-4.5-3.9l-0.8-5.1c-0.3-2.2 1.2-3.9 3.4-3.8z"/></g><path class="J" d="m535.5 339.1c7.5-0.6 21.4-0.8 29-1 3.3 0 6.1 2.2 6.9 5.3 1.4 6.2 3.5 16.8 3.2 28.1-0.1 3.3-2.8 6-6.2 6l-28.2-0.3c-3.5-0.1-6.4-2.7-6.7-6.2l-2.5-26.5c-0.2-2.8 1.8-5.2 4.5-5.4z"/><g style="opacity:.6"><path class="b" d="m658.4 352.9c2.2 0.1 4 2 4.1 4.2v1.7c0 2.2-1.8 4-4 4h-69.1c-2.2 0-4.2-1.8-4.6-3.9l-0.7-5.1c-0.4-2.2 1.2-3.9 3.4-3.8z"/></g><path class="K" d="m395.7 402.1c18.5-0.8 58.7-3.3 77.8-3.5 8.1 0 15.2 3 17.1 7.4 3.7 8.4 3.2 25.2 2.5 40.7-0.2 4.6-7 8.4-15.5 8.3l-70.4-0.4c-8.7-0.1-15.8-3.7-16.7-8.5l-6.1-36.6c-0.7-3.8 4.4-7.1 11.3-7.4z"/><g style="opacity:.6"><path class="b" d="m493.3 472.5c2.2 0.1 4 2 4.1 4.2l0.1 11.3c0 2.2-1.8 4-4 4h-94.8c-2.2 0-4.2-1.8-4.4-4l-1.8-17.9c-0.2-2.2 1.4-3.8 3.6-3.7z"/></g><path class="L" d="m394.1 513.8c6.8-0.5 21.7-2 28.8-2.1 3 0 5.6 1.8 6.3 4.4 1.4 5 1.2 15.1 0.9 24.3 0 2.8-2.6 5-5.7 5l-26-0.3c-3.2 0-5.9-2.2-6.2-5l-2.3-21.9c-0.2-2.2 1.7-4.2 4.2-4.4z"/><g style="opacity:.6"><path class="b" d="m427.7 555.6c2.2 0.2 4 2.2 4 4.4l0.1 38.2c0 2.2-1.8 4-4 4h-30.1c-2.2 0-4-1.8-4-4l-0.8-42.2c-0.1-2.2 1.7-3.8 3.9-3.6z"/></g><path class="M" d="m445 513.8c6.9-0.5 21.8-2 28.8-2.1 3 0 5.6 1.8 6.3 4.4 1.4 5 1.2 15.1 1 24.3-0.1 2.8-2.6 5-5.8 5l-26-0.3c-3.2 0-5.9-2.2-6.2-5l-2.2-21.9c-0.3-2.2 1.6-4.2 4.1-4.4z"/><g style="opacity:.6"><path class="b" d="m478.7 555.6c2.1 0.2 3.9 2.2 3.9 4.4l0.1 38.2c0 2.2-1.8 4-4 4h-30c-2.2 0-4.1-1.8-4.1-4l-0.8-42.2c0-2.2 1.7-3.8 3.9-3.6z"/></g><path fill-rule="evenodd" class="b" d="m543.5 433.1q0 0 0 0l-26.1-0.3c-3.7 0-6.8-2.6-7.1-5.9l-2.3-21.9c-0.1-1.3 0.3-2.5 1.1-3.5 1-1.2 2.4-1.9 4-2 2.2-0.2 5.3-0.4 8.5-0.7 6.9-0.6 15.5-1.3 20.3-1.4 3.5 0 6.5 2.1 7.3 5.1 1.4 5 1.3 14.5 1 24.7-0.1 3.2-3.1 5.9-6.7 5.9zm-30.3-31.6c-1 0.1-1.9 0.5-2.6 1.2-0.5 0.6-0.7 1.4-0.6 2.1l2.3 21.9c0.2 2.3 2.4 4.1 5.1 4.1l26.1 0.3q0 0 0 0c2.6 0 4.7-1.8 4.7-4 0.3-10 0.4-19.3-0.9-24.1-0.6-2.1-2.8-3.6-5.3-3.6-4.8 0.1-13.3 0.8-20.2 1.4-3.3 0.3-6.4 0.5-8.6 0.7z"/><path class="o" d="m516 403.7c5.5-0.3 17.4-1.5 23-1.6 2.4 0 4.5 1.4 5.1 3.5 1.1 4 0.9 12 0.7 19.4 0 2.3-2.1 4-4.5 4l-20.9-0.2c-2.5 0-4.6-1.8-4.9-4l-1.8-17.5c-0.2-1.8 1.3-3.4 3.3-3.6z"/><g style="opacity:.6"><path class="b" d="m698.9 413.6c2.2 0.1 4 1.9 4.1 4.1v1.7c0.1 2.2-1.7 4-3.9 4h-127.4c-2.2 0-4.5-1.7-5-3.8l-1.4-5.3c-0.6-2.1 0.8-3.8 3-3.8z"/></g><path class="N" d="m517.1 407.2c2-1.2 4.5-0.5 5.6 1.5l5.1 9.2c0.5 0.9 1.9 0.8 2.3-0.1l12.7-28.4c0.7-1.4 2.8-0.9 2.7 0.6-0.1 8.7-2.4 25.2-16.3 39q-7.6-3-13.7-16.5c-0.9-1.9-0.2-4.2 1.6-5.3z"/><path fill-rule="evenodd" class="b" d="m543.5 488.9q0 0 0 0l-26.1-0.2c-3.7-0.1-6.8-2.6-7.1-6l-2.3-21.8c-0.1-1.3 0.3-2.6 1.1-3.6 1-1.2 2.4-1.9 4-2 2.2-0.1 5.3-0.4 8.5-0.7 6.9-0.6 15.5-1.3 20.3-1.4q0.1 0 0.1 0c3.5 0 6.4 2.1 7.2 5.2 1.4 5 1.3 14.5 1 24.6-0.1 3.3-3.1 5.9-6.7 5.9zm-30.3-31.6c-1 0.1-1.9 0.5-2.6 1.3-0.5 0.6-0.7 1.3-0.6 2l2.3 21.9c0.2 2.3 2.4 4.1 5.1 4.2l26.1 0.2q0 0 0 0c2.6 0 4.7-1.8 4.7-4 0.3-9.9 0.4-19.3-0.9-24-0.6-2.2-2.8-3.7-5.3-3.7-4.8 0.1-13.3 0.8-20.2 1.4-3.3 0.3-6.4 0.6-8.6 0.7z"/><path class="o" d="m516 459.6c5.5-0.4 17.4-1.6 23-1.7 2.4 0 4.5 1.4 5.1 3.5 1.1 4 0.9 12.1 0.7 19.5 0 2.2-2.1 3.9-4.5 3.9l-20.9-0.2c-2.5 0-4.6-1.7-4.9-4l-1.8-17.5c-0.2-1.8 1.3-3.4 3.3-3.5z"/><g style="opacity:.6"><path class="b" d="m698.9 469.5c2.2 0 4 1.8 4.1 4v1.8c0.1 2.2-1.7 4-3.9 4h-127.4c-2.2 0-4.5-1.8-5-3.9l-1.4-5.3c-0.6-2.1 0.8-3.8 3-3.8z"/></g><path class="O" d="m517.1 463c2-1.1 4.5-0.5 5.6 1.5l5.1 9.2c0.5 0.9 1.9 0.9 2.3-0.1l12.7-28.4c0.7-1.4 2.8-0.9 2.7 0.7-0.1 8.6-2.4 25.1-16.3 38.9q-7.6-2.9-13.7-16.5c-0.9-1.9-0.2-4.2 1.6-5.3z"/><path fill-rule="evenodd" class="b" d="m543.5 544.7q0 0 0 0l-26.1-0.2c-3.7 0-6.8-2.6-7.1-6l-2.3-21.8c-0.1-1.3 0.3-2.6 1.1-3.6 1-1.1 2.4-1.9 4-2 2.2-0.1 5.3-0.4 8.5-0.6 6.9-0.6 15.5-1.4 20.3-1.4q0.1 0 0.1 0c3.5 0 6.4 2.1 7.2 5.1 1.4 5 1.3 14.5 1 24.6-0.1 3.3-3.1 5.9-6.7 5.9zm-30.3-31.6c-1 0.1-1.9 0.6-2.6 1.3-0.5 0.6-0.7 1.3-0.6 2.1l2.3 21.8c0.2 2.4 2.4 4.2 5.1 4.2l26.1 0.2q0 0 0 0c2.6 0 4.7-1.7 4.7-3.9 0.3-10 0.4-19.3-0.9-24.1-0.6-2.1-2.8-3.7-5.3-3.6-4.8 0-13.3 0.8-20.2 1.3-3.3 0.3-6.4 0.6-8.6 0.7z"/><path class="o" d="m516 515.4c5.5-0.4 17.4-1.6 23-1.7 2.4 0 4.5 1.5 5.1 3.5 1.1 4.1 0.9 12.1 0.7 19.5 0 2.2-2.1 4-4.5 3.9l-20.9-0.2c-2.5 0-4.6-1.7-4.9-4l-1.8-17.5c-0.2-1.8 1.3-3.4 3.3-3.5z"/><g style="opacity:.6"><path class="b" d="m698.9 525.3c2.2 0 4 1.9 4.1 4.1v1.7c0.1 2.2-1.7 4-3.9 4h-127.4c-2.2 0-4.5-1.8-5-3.9l-1.4-5.3c-0.6-2.1 0.8-3.8 3-3.7z"/></g><path class="P" d="m517.1 518.8c2-1.1 4.5-0.4 5.6 1.5l5.1 9.2c0.5 1 1.9 0.9 2.3-0.1l12.7-28.3c0.7-1.5 2.8-1 2.7 0.6-0.1 8.7-2.4 25.1-16.3 39q-7.6-3-13.7-16.5c-0.9-2-0.2-4.3 1.6-5.4z"/><path fill-rule="evenodd" class="b" d="m543.5 600.6q0 0 0 0l-26.1-0.3c-3.7 0-6.8-2.6-7.1-5.9l-2.3-21.9c-0.1-1.3 0.3-2.5 1.1-3.6 1-1.1 2.4-1.8 4-1.9 2.2-0.2 5.3-0.4 8.5-0.7 6.9-0.6 15.5-1.3 20.3-1.4q0.1 0 0.1 0c3.5 0 6.4 2.1 7.2 5.1 1.4 5 1.3 14.5 1 24.6-0.1 3.3-3.1 6-6.7 6zm-30.3-31.6c-1 0-1.9 0.5-2.6 1.2-0.5 0.6-0.7 1.4-0.6 2.1l2.3 21.8c0.2 2.4 2.4 4.2 5.1 4.2l26.1 0.3q0 0 0 0c2.6 0 4.7-1.8 4.7-4 0.3-10 0.4-19.3-0.9-24.1-0.6-2.1-2.8-3.7-5.3-3.6-4.8 0.1-13.3 0.8-20.2 1.4-3.3 0.2-6.4 0.5-8.6 0.7z"/><path class="o" d="m516 571.2c5.5-0.4 17.4-1.6 23-1.6 2.4-0.1 4.5 1.4 5.1 3.5 1.1 4 0.9 12 0.7 19.4 0 2.2-2.1 4-4.5 4l-20.9-0.2c-2.5-0.1-4.6-1.8-4.9-4.1l-1.8-17.4c-0.2-1.8 1.3-3.4 3.3-3.6z"/><g style="opacity:.6"><path class="b" d="m698.9 581.1c2.2 0.1 4 1.9 4.1 4.1v1.7c0.1 2.2-1.7 4-3.9 4h-127.4c-2.2 0-4.5-1.7-5-3.9l-1.4-5.2c-0.6-2.2 0.8-3.9 3-3.8z"/></g><path class="Q" d="m517.1 574.6c2-1.1 4.5-0.4 5.6 1.5l5.1 9.3c0.5 0.9 1.9 0.8 2.3-0.1l12.7-28.4c0.7-1.4 2.8-1 2.7 0.6-0.1 8.7-2.4 25.2-16.3 39q-7.6-3-13.7-16.5c-0.9-2-0.2-4.3 1.6-5.4z"/><path fill-rule="evenodd" class="R" d="m547.7 62.3l-41.5-3.7-3.5-38c-0.7-7.6 4.1-14.7 11.5-16.9 8-2.4 19.5-2.6 32.7 6.6q25.9 18 0.8 52zm-8.7-31.7c0-5.7-4.6-10.3-10.3-10.3-5.7 0-10.3 4.6-10.3 10.3 0 5.7 4.6 10.4 10.3 10.4 5.7 0 10.3-4.7 10.3-10.4z"/><path class="b" d="m510.4 42.6c-0.6 0-1-0.3-1-0.9l-0.6-6c0-0.6 0.4-1.1 0.9-1.1 0.6-0.1 1 0.3 1.1 0.9l0.6 6.1c0 0.5-0.4 1-1 1q0 0 0 0zm-1.1-11.8c-0.5 0-1-0.4-1-0.9l-0.4-4.6c-0.7-7.3 3.9-14.1 10.9-16.2 4.9-1.4 10-1.6 15.1-0.6 0.5 0.1 0.9 0.7 0.8 1.2-0.1 0.5-0.7 0.9-1.2 0.8-4.8-1-9.6-0.8-14.2 0.6-6.1 1.8-10 7.7-9.5 14l0.5 4.6c0 0.5-0.4 1-0.9 1.1q-0.1 0-0.1 0z"/><path class="S" d="m449.7 83.2v-19.1c0-6.6 5.4-11.9 12-11.7l131.8 4.5c5.8 0.2 10.6 4.9 10.9 10.7l1.1 18.4z"/><path class="b" d="m498.8 59.6h-5.7c-0.5 0-1-0.4-1-1 0-0.5 0.5-1 1-1h5.7c0.5 0 1 0.5 1 1 0 0.6-0.5 1-1 1z"/><path class="b" d="m456.8 77.2c-0.6 0-1-0.5-1-1v-7.7c0-6 4.8-10.9 10.8-10.9h20.9c0.5 0 1 0.5 1 1 0 0.6-0.5 1-1 1h-20.9c-4.8 0-8.8 4-8.8 8.9v7.7c0 0.5-0.5 1-1 1z"/><path class="T" d="m408.4 76.2h230.4c8.3 0 15.4 6 16.8 14.1l0.2 1.1c1.5 9-5.4 17.2-14.4 17.2h-236.4c-5.5 0-9.8-4.6-9.5-10l0.5-10.6c0.3-6.6 5.7-11.8 12.4-11.8z"/><path class="U" d="m229.7 391.9c0.4 0.7-0.1 1.5-0.8 1.5-3.7 0.3-13.8 0.7-26.7 0-0.7 0-1.3-0.6-1.3-1.3q0-0.2 0-0.4c1.3 0.5 3.7 0.9 7.8 0.7 6.8-0.3 15.4-1 20.3-1.4q0.4 0.5 0.7 0.9z"/><path class="V" d="m200.9 391.7c0-2.3 0.4-6.4 3.4-10.7h4.4q15.4 4 20.3 10c-4.9 0.4-13.5 1.1-20.3 1.4-4.1 0.2-6.5-0.2-7.8-0.7z"/><path class="W" d="m211.7 373.9l-1.4 7.8c-0.1 0.8-0.7 1.5-1.5 1.7-1.2 0.4-2.4 0.4-3.2 0.3-0.9-0.1-1.6-0.9-1.6-1.7l-0.4-8.1z"/><path class="X" d="m154.3 392c-0.8 1.1-2.3 1.7-3.9 1.8-1.5 0-3.5-0.1-5.2-0.8-1.5-0.6-2.2-2-1.9-3.2q0 0 0 0c0.4 1.1 1.4 2.3 3.5 2.6 3.6 0.5 5.9 0.4 7.5-0.4z"/><path class="Y" d="m159.4 379c-0.7 3.4-2.1 9.1-5.1 13-1.6 0.8-3.9 0.9-7.5 0.4-2.1-0.3-3.1-1.5-3.5-2.6 1.1-4.5 4.6-16.1 10.1-16h3.6q3.2 1.4 2.4 5.2z"/><path class="Z" d="m161.5 368.1l-2.9 8.4c-0.3 0.6-0.8 1.1-1.5 1.2-1.5 0.2-3-0.4-4.2-1-0.9-0.5-1.3-1.5-1.1-2.4l2-8z"/><path class="a0" d="m194.7 255.5c3.4 2.7 13.9 9.4 33.6 9.9-7.8 29.7-14.5 67.4-14.9 110.7q-6.2 2.1-11 0-3.5-58.5 0.7-84.9-11.9 9.9-41.1 79.9-8.1-0.3-10.6-2.5 26.9-86.6 43.3-113.1z"/><path class="a1" d="m254.8 193.8q-13.7 28.1-25.4 71.9c-0.3 1-1.2 1.8-2.3 1.7-15.8-0.8-29.5-7.2-33.5-9.3-0.7-0.3-0.9-1.1-0.5-1.8 2.4-4 5.4-9.9 5.1-14.2-0.9-15.2-2.2-48.5 1.5-67.1q40-5.2 55.1 18.8z"/><path class="a2" d="m205.1 289.5q-0.3 0-0.5-0.1c-0.4-0.3-0.6-0.9-0.3-1.3 0.2-0.3 3.9-6.4 11.6-10 0.4-0.3 1-0.1 1.2 0.4 0.2 0.5 0 1-0.4 1.2-7.1 3.5-10.8 9.3-10.8 9.4-0.2 0.3-0.5 0.4-0.8 0.4z"/><path class="a3" d="m189.5 227.5q-1.8 14.3 1.3 26.9l-2.6 2.2c-7.1-10.1-10.7-19.5-11.9-28.2 3.7-0.9 8.8-1.8 13.2-0.9z"/><path class="a4" d="m189.5 227.5c-4.4-0.9-9.5 0-13.2 0.9q-4.4-32.1 23.4-53.4l4.2 23c-9.3 8-13.1 19.1-14.4 29.5z"/><path class="a5" d="m265 224.2c-1.5 3.6-3.1 8.7-3.6 15.1-8.1-2.3-15.6-8.4-17.4-22.3l10.8-23.2q-0.2 19.8 10.2 30.4z"/><path class="a6" d="m284.7 230.7l4 0.7q-5.7 16.3-27.3 7.9c0.5-6.4 2.1-11.5 3.6-15.1 4.4 4.6 10.7 7.5 19.7 6.5z"/><path class="a7" d="m244.9 165.3l-5.2 19c-0.6 2.2-2.9 3.3-5 2.5-2.2-0.9-5-2.1-7.4-3.4-2.6-1.4-3.5-4.8-1.8-7.2l10.8-16.1z"/><path class="a8" d="m301.9 226.7l-129.1 59.7c-4.7 2.2-10.4 0.1-12.5-4.7l-0.4-0.9c-2.5-5.4 0.2-11.7 5.7-13.7l133-48.4z"/><ellipse class="a9" cx="359.7" cy="189.6" rx="65.6" ry="64.4"/><path fill-rule="evenodd" class="aa" d="m432.7 189.6c0 39.6-32.7 71.7-73 71.7-40.4 0-73.1-32.1-73.1-71.7 0-39.6 32.7-71.7 73.1-71.7 40.3 0 73 32.1 73 71.7zm-10.7 0c0-33.8-27.9-61.2-62.3-61.2-34.4 0-62.3 27.4-62.3 61.2 0 33.8 27.9 61.1 62.3 61.1 34.4 0 62.3-27.3 62.3-61.1z"/><path class="b" d="m292.2 198.5c-0.2 0-0.5-0.2-0.5-0.5q-0.3-2.5-0.4-5.1c-0.1-0.3 0.2-0.5 0.4-0.5 0.3-0.1 0.5 0.2 0.6 0.4q0.1 2.6 0.4 5.1c0 0.3-0.2 0.5-0.4 0.6q-0.1 0-0.1 0zm0.5-20.1q0 0-0.1 0c-0.3 0-0.4-0.3-0.4-0.6 0.8-4.6 2.2-9.1 3.9-13.5 10.6-25.5 35.5-42 63.6-42 13 0 25.8 3.6 36.7 10.5 0.3 0.2 0.4 0.5 0.2 0.7-0.1 0.2-0.4 0.3-0.7 0.2-10.8-6.8-23.3-10.4-36.2-10.4-27.7 0-52.3 16.3-62.6 41.4q0 0 0 0c-1.8 4.3-3.1 8.8-3.9 13.3 0 0.2-0.3 0.4-0.5 0.4z"/><path class="ab" d="m256.2 150.8q0.1 0.3-4.3 21.7l-12.2-2.7 1.1-21q14.6-3.5 15.4 2z"/><path class="ac" d="m243.6 153.5l-1.5 11q0 0.2 0 0.4c0.2 0.9 0.8 3.8 3.7 3 2.7-0.8 5.2-1.5 6.9-0.9 0.7 0.2 1.2 1 1 1.7-0.3 2-1.3 6.4-2.8 10-0.2 0.8-1.1 1.2-1.8 0.9-2.3-0.6-7.2-2.2-10.8-4.4-0.5-0.2-0.7-0.8-0.7-1.3 0.1-2.8 0.4-11.2 0.1-13.6-0.2-2.2-2.9-3.5-4.1-4-0.4-0.2-0.7-0.5-0.9-0.9-0.5-1.3-1.3-4.5 2.7-5.8 0.9-0.3 1.3-1.2 1-2-0.6-1.7-0.8-4.2 2.3-5.6 3.1-1.4 5.5 0.3 6.7 1.7 0.5 0.5 1.4 0.6 2 0.2 0.4-0.2 0.8-0.3 1.4 0.1 0.8 0.4 1.8 0.1 2.1-0.7 0.8-1.5 2.3-3.2 5.4-2.7 5.5 1 6.1 7 4.7 10.6-1.5 3.5-7.4 2.2-10.3 0.4-2.2-1.4-5.1 0-6.4 0.8-0.4 0.2-0.7 0.6-0.7 1.1z"/><path class="ad" d="m232.2 160.3c-0.7-4.6 2.7-5.4 5-3.8q2.3 1.5 0.1 7.8-4.1 1.7-5.1-4z"/><path class="ae" d="m189.7 254l12.6-1 5.4 5q-1.2 1.8-5.3 0.7-4-1-9.5-1.2-5.6 2.5-5.6-2.2z"/><path class="af" d="m292.8 224.9c1.2 0.3 2.1 2.5 2.6 4.3 0.4 1.2-0.1 2.5-1.2 3.1-2.3 1.2-6 3-7.1 2.1-4.5-3.5 3.9-9.9 5.7-9.5z"/><path class="b" d="m168.3 284.5q-0.1 0-0.2 0c-5.2-1.8-6.4-4.9-6.5-7.1-0.1-3.3 1.9-6.4 5.2-7.6l15.9-6.3c0.3-0.1 0.6 0.1 0.7 0.3 0.1 0.3-0.1 0.6-0.3 0.7l-16 6.2c-2.8 1.1-4.6 3.8-4.5 6.6 0.1 2.9 2.1 5 5.8 6.3 0.3 0.1 0.4 0.3 0.3 0.6 0 0.2-0.2 0.3-0.4 0.3z"/><path class="b" d="m187.8 262.6c-0.2 0-0.4-0.1-0.4-0.3-0.1-0.3 0-0.6 0.2-0.7l2.1-0.8c0.3-0.1 0.6 0 0.7 0.3 0.1 0.2-0.1 0.5-0.3 0.6l-2.1 0.8q-0.1 0.1-0.2 0.1z"/><path class="ag" d="m241.9 679.2c-1.3 0-2.3-1-2.3-2.3v-279.1c0-1.3 1-2.3 2.3-2.3 1.3 0 2.3 1 2.3 2.3v279.1c0 1.3-1 2.3-2.3 2.3z"/><path class="ah" d="m178.6 679.2c-1.3 0-2.3-1-2.3-2.3v-279.1c0-1.3 1-2.3 2.3-2.3 1.3 0 2.4 1 2.4 2.3v279.1c0 1.3-1.1 2.3-2.4 2.3z"/><path class="ai" d="m23.2 681q-0.5 0-0.9-0.2c-1.2-0.5-1.8-1.9-1.3-3.1l119.4-280.8c0.5-1.2 1.9-1.7 3.1-1.2 1.2 0.5 1.7 1.8 1.2 3l-119.4 280.9c-0.3 0.8-1.2 1.4-2.1 1.4z"/><path class="aj" d="m96.9 681q-0.4 0-0.9-0.2c-1.2-0.5-1.7-1.9-1.2-3.1l119.4-280.8c0.5-1.2 1.8-1.7 3-1.2 1.2 0.5 1.8 1.8 1.3 3l-119.4 280.9c-0.4 0.8-1.3 1.4-2.2 1.4z"/><path class="ak" d="m245.5 400.4h-109.3c-1.9 0-3.3-1.5-3.3-3.3 0-1.8 1.4-3.3 3.3-3.3h109.3c1.8 0 3.3 1.5 3.3 3.3 0 1.8-1.5 3.3-3.3 3.3z"/><path class="al" d="m198.3 443.1h-74c-1.3 0-2.3-1.1-2.3-2.3 0-1.3 1-2.4 2.3-2.4h74c1.3 0 2.3 1.1 2.3 2.4 0 1.2-1 2.3-2.3 2.3z"/><path class="am" d="m175.6 496.2h-74v-4.7h74z"/><path class="an" d="m153.6 549.3h-73.9v-4.7h73.9z"/><path class="ao" d="m130.6 602.4h-74c-1.3 0-2.3-1-2.3-2.3 0-1.3 1-2.3 2.3-2.3h74c1.3 0 2.3 1 2.3 2.3 0 1.3-1 2.3-2.3 2.3z"/><path class="ap" d="m108.3 655.5h-74c-1.2 0-2.3-1-2.3-2.3 0-1.3 1.1-2.3 2.3-2.3h74c1.3 0 2.3 1 2.3 2.3 0 1.3-1 2.3-2.3 2.3z"/><path class="aq" d="m386.2 540.7c7.5-0.8 13.8-0.4 12.7 3.8q-4.7 18.5-13.6 16.3-11.2 10.1-19 4.6-7.2-5-9-17.7 8-5.9 8.1-6.1 11 0.1 20.8-0.9z"/><path class="ar" d="m350.5 584.7c3.1-2.1 6.6-3.7 10.2-4.7 1.4-0.4 8.9 1.8 13.5 1.6 6.3-0.1 12.7-3 17.9-1.7 5.2 1.3 9.4 3 11.9 4.7 7.3 5.2 11.6 14.9 14.2 24.5q-5 5.1-11.2 7.4l-1.2 46.7-27.6 14.1-31.5-15.8 1.1-45.6q-10-4.7-10.7-6.4c-0.8-1.7 4.5-18.7 13.4-24.8z"/><path class="as" d="m349.3 616.4q-4 31 9.3 34 2.5 10.5-3.9 11.4-30.6-15.3-17.2-52.5 8.2 4.1 11.8 7.1z"/><path class="at" d="m417.5 609.3q9.3 38.8-17.1 52.5-6.4-0.9-3.9-11.4 10.7-5.3 9.3-34 3.6-3 11.7-7.1z"/><rect class="au" x="346.3" y="623.5" width="60.6" height="40.9" rx="8.3"></rect><path class="av" d="m434.3 688.1q-0.3 0.3-0.6 0.6-1 0.4-2.1 0.4-7.6 0-22.8-2.8l1.1-8.8 0.6-1.7q16-0.9 23 0.7c3.1 3 4 8.1 0.8 11.6z"/><path class="aw" d="m433.7 688.7q0.3-0.3 0.6-0.6c3.2-3.5 2.3-8.6-0.8-11.6q0.3 0.1 0.7 0.2c5.8 1.6 5.1 10.3-0.5 12z"/><path class="ax" d="m405.9 675.3l2.7 0.1c1.5 0.1 2.9 0.8 3.8 2 1 1.2 1.5 2.8 1.4 4.4 0 1.3-0.6 2.5-1.4 3.3-0.9 0.9-2 1.3-3.2 1.2l-4.2-0.3z"/><path class="ay" d="m420.4 684.6c-0.1 0-0.3-0.1-0.3-0.3-0.7-2.8-3.4-5.6-3.5-5.6-0.1-0.2-0.1-0.5 0-0.6 0.2-0.2 0.4-0.2 0.6-0.1 0.1 0.2 2.9 3 3.6 6 0.1 0.3 0 0.5-0.2 0.6q-0.1 0-0.2 0z"/><path class="az" d="m416.8 684.4q-0.1 0-0.1 0c-0.3-0.1-0.4-0.4-0.3-0.6 0.9-3.2 4.3-5.8 4.5-5.9 0.1-0.2 0.4-0.1 0.5 0.1 0.1 0.2 0.1 0.5-0.1 0.6 0 0-3.3 2.5-4.1 5.5-0.1 0.2-0.3 0.3-0.4 0.3z"/><path class="aA" d="m427.8 685c-0.2 0-0.3-0.1-0.4-0.3-0.6-2.8-3.1-5.8-3.2-5.8-0.1-0.2-0.1-0.4 0.1-0.6 0.1-0.2 0.4-0.2 0.5 0 0.1 0.1 2.8 3.1 3.4 6.2 0 0.2-0.1 0.5-0.3 0.5q-0.1 0-0.1 0z"/><path class="aB" d="m424.1 684.6q0 0-0.1 0c-0.2-0.1-0.3-0.4-0.2-0.6 1-3.2 4.5-5.6 4.7-5.7 0.2-0.1 0.4 0 0.5 0.2 0.2 0.2 0.1 0.5-0.1 0.6 0 0-3.4 2.3-4.4 5.2 0 0.2-0.2 0.3-0.4 0.3z"/><path class="aC" d="m314.7 675.7q7-1.4 23-0.1l0.6 1.8 0.8 8.8q-15.3 2.3-22.8 2.1-1.2-0.1-2.1-0.4-0.3-0.3-0.7-0.7c-3.1-3.6-2-8.7 1.2-11.5z"/><path class="aD" d="m314 675.8q0.3-0.1 0.7-0.1c-3.2 2.8-4.3 7.9-1.2 11.5q0.4 0.4 0.7 0.7c-5.6-1.9-6.1-10.6-0.2-12.1z"/><path class="aE" d="m342.9 686.1l-4.2 0.1c-1.1 0.1-2.3-0.4-3.1-1.3-0.9-0.9-1.4-2.1-1.4-3.4-0.1-1.6 0.5-3.2 1.5-4.3 1-1.2 2.4-1.9 3.9-1.9h2.7z"/><path class="aF" d="m327.4 684.1c-0.2 0-0.3-0.3-0.3-0.5 0.9-3 3.7-5.8 3.8-5.9 0.2-0.2 0.5-0.2 0.6 0 0.1 0.2 0.1 0.5 0 0.7-0.1 0-2.8 2.7-3.6 5.4 0 0.2-0.2 0.4-0.4 0.4q0 0-0.1-0.1z"/><path class="aG" d="m330.8 683.7c-0.7-2.9-4-5.5-4-5.5-0.2-0.2-0.2-0.5-0.1-0.7 0.1-0.2 0.4-0.2 0.6-0.1 0.1 0.1 3.5 2.8 4.3 6.1 0 0.2-0.1 0.5-0.3 0.5q-0.1 0-0.1 0c-0.2 0-0.3-0.1-0.4-0.3z"/><path class="aH" d="m320.1 684.3c-0.3 0-0.4-0.3-0.3-0.5 0.7-3 3.4-6 3.5-6.1 0.2-0.2 0.4-0.1 0.6 0 0.1 0.2 0.1 0.5 0 0.7-0.1 0-2.7 2.8-3.4 5.6 0 0.2-0.2 0.4-0.4 0.4q0 0 0-0.1z"/><path class="aI" d="m323.4 683.7c-0.8-2.9-4.2-5.3-4.2-5.3-0.2-0.1-0.3-0.4-0.1-0.6 0.1-0.2 0.3-0.3 0.5-0.1 0.2 0.1 3.6 2.6 4.6 5.8 0.1 0.2 0 0.4-0.3 0.5q0 0.1-0.1 0.1c-0.2-0.1-0.3-0.2-0.4-0.4z"/><path class="aJ" d="m426.2 668.4c-26.2 8.2-56.6 17.6-84.6 19q0.1-1.1 0-2.3c-0.1-3.5-0.6-7.1-1.7-10.4 36.6-9.3 78-30.6 78.1-30.7 6.6-3.4 14.3-2.2 17.4 5 3.5 8-1.1 16.8-9.2 19.4z"/><path class="aK" d="m406.2 686.6c-21-1.5-43.9-6.6-62.2-12.3-6.9-2.2 4-0.3-16.9-7.2-7-2.4-11.6-9-9.5-16.7 2.4-8.7 10.7-11.4 18.1-7.4 18.9 10.3 38.6 19.3 64.6 28.2 3.5 1.2 6.2 2.1 8.3 2.7q-0.1 0.2-0.1 0.5-2.6 5.2-2.4 11.3 0 0.4 0.1 0.9z"/><path class="aL" d="m368.5 578.5l0.3-9.5 13.5-1 0.8 10 9 1.9q-1.2 11.7-15 11.9-13.6 0.3-16.4-11.8z"/><path class="aM" d="m386.1 540.8q2.4-1.2 6.2 9.3c2.4 6.8-5.7 31.9-18.7 26.8q-18.5-7.3-2.9-37.4z"/><path class="aN" d="m396 536.8c7.7 2.1 1.2 18.7-10.4 14.8-11.6-4-16.1-3.9-17.9-0.7-1.8 3.1-2.2 14.4-6.1 8.8-4.3-6.1-6.7-18.3-1.4-22.3 4.7-3.5 5.8-9 11.4-8.8 7.5 0.3 13.3-3.1 16.6-0.7 3.9 2.8 2.2 7.3 7.8 8.9z"/><path class="aO" d="m366.3 561c-2 3-3.7-2.5-3.2-6.8q0.6-4.3 3.9-0.7 1.3 4.5-0.7 7.5z"/><path class="aP" d="m380.2 634.6c0.3 2.1-0.9 4.1-3 4.4-2.2 0.3-4.2-1.2-4.5-3.3-0.4-2.2 0.6-4.3 2.8-4.7 2.2-0.3 4.4 1.4 4.7 3.6z"/><path class="aQ" d="m871 345.7l2.8-1.2c0.4-0.2 0.9 0 1 0.4 0.2 0.4 0 0.9-0.4 1q0 0 0 0l-2.8 1.2c-0.4 0.1-0.8-0.1-1-0.5-0.1-0.3 0-0.8 0.4-0.9z"/><path class="aQ" d="m880.1 341.6l2.7-1.3c0.5-0.2 1 0 1.2 0.4 0.2 0.5 0.1 1-0.4 1.2q0 0 0 0l-2.7 1.3c-0.5 0.2-1 0-1.2-0.4-0.2-0.5 0-1 0.4-1.2z"/><path class="aQ" d="m889 337.1l2.6-1.4c0.5-0.3 1.1-0.1 1.4 0.3 0.2 0.5 0.1 1.1-0.4 1.4q0 0 0 0l-2.7 1.4c-0.5 0.2-1 0.1-1.3-0.4-0.2-0.5 0-1 0.4-1.3z"/><path class="aQ" d="m897.6 332.1l2.6-1.5c0.5-0.3 1.1-0.2 1.4 0.3 0.3 0.5 0.2 1.1-0.3 1.4q0 0 0 0l-2.6 1.6c-0.5 0.3-1.1 0.1-1.4-0.3-0.3-0.5-0.2-1.1 0.3-1.4z"/><path class="aQ" d="m906 326.7l2.4-1.7c0.5-0.4 1.2-0.3 1.6 0.2 0.3 0.5 0.2 1.2-0.3 1.6q0 0 0 0l-2.5 1.7c-0.5 0.4-1.2 0.2-1.5-0.3-0.4-0.5-0.2-1.1 0.2-1.5z"/><path class="aQ" d="m913.9 320.8l2.4-1.9c0.5-0.4 1.2-0.3 1.6 0.2 0.5 0.5 0.4 1.3-0.1 1.7q0 0-0.1 0l-2.3 1.8c-0.5 0.4-1.3 0.4-1.7-0.2-0.4-0.5-0.3-1.2 0.2-1.6z"/><path class="aQ" d="m921.5 314.4l2.2-2h0.1c0.5-0.5 1.3-0.4 1.7 0.1 0.5 0.5 0.5 1.3-0.1 1.8q0 0 0 0l-2.2 2c-0.5 0.4-1.3 0.4-1.8-0.1-0.4-0.5-0.4-1.3 0.1-1.8z"/><path class="aQ" d="m928.7 307.6l2.1-2.2c0.5-0.5 1.3-0.5 1.9 0 0.5 0.5 0.5 1.3 0 1.8q0 0 0 0.1l-2.1 2.1c-0.5 0.5-1.4 0.5-1.9 0-0.5-0.5-0.5-1.3 0-1.8z"/><path class="aQ" d="m935.4 300.3l1.9-2.3v-0.1c0.5-0.5 1.4-0.6 2-0.1 0.6 0.5 0.6 1.3 0.1 1.9q0 0 0 0l-1.9 2.3c-0.5 0.6-1.4 0.7-2 0.2-0.5-0.5-0.6-1.3-0.1-1.9z"/><path class="aQ" d="m941.5 292.5l1.7-2.4 0.1-0.1c0.4-0.6 1.3-0.8 2-0.3 0.7 0.5 0.8 1.4 0.3 2q0 0.1 0 0.1l-1.8 2.4c-0.4 0.6-1.3 0.8-2 0.3-0.6-0.5-0.8-1.3-0.3-2z"/><path class="aQ" d="m947 284.3l1.6-2.5v-0.1c0.4-0.7 1.4-0.9 2.1-0.5 0.7 0.4 0.9 1.4 0.5 2.1l-1.6 2.6c-0.5 0.7-1.4 0.9-2.1 0.5-0.7-0.5-0.9-1.4-0.5-2.1z"/><path class="aQ" d="m951.9 275.7l1.3-2.6v-0.1c0.4-0.8 1.4-1.1 2.1-0.7 0.8 0.4 1.1 1.3 0.7 2.1l-1.4 2.7c-0.3 0.8-1.3 1.1-2 0.7-0.8-0.4-1.1-1.3-0.7-2.1z"/><path class="aQ" d="m956 266.7l1.1-2.7c0.4-0.9 1.3-1.3 2.1-1 0.8 0.4 1.2 1.3 0.9 2.1l-1.1 2.9c-0.4 0.8-1.3 1.2-2.1 0.8-0.8-0.3-1.2-1.2-0.9-2z"/><path class="aQ" d="m959.3 257.5l0.8-2.9h0.1c0.2-0.9 1.1-1.4 2-1.1 0.9 0.2 1.4 1.1 1.1 2l-0.9 2.9c-0.2 0.9-1.1 1.4-2 1.1-0.8-0.2-1.3-1.1-1.1-2z"/><path class="aQ" d="m961.8 247.9l0.5-2.9c0.2-0.9 1.1-1.5 2-1.4 0.9 0.2 1.5 1.1 1.3 2l-0.6 3c-0.2 0.9-1 1.5-1.9 1.3-0.9-0.2-1.5-1-1.4-1.9z"/><path class="aQ" d="m963.3 238.2l0.3-2.9v-0.1c0.1-0.9 1-1.6 1.9-1.5 1 0.1 1.6 0.9 1.5 1.9l-0.3 3c-0.1 0.9-0.9 1.6-1.9 1.5-0.9-0.1-1.6-0.9-1.5-1.9z"/><path class="aQ" d="m964 228.4v-3c0-1 0.8-1.8 1.8-1.8 1 0 1.8 0.8 1.8 1.8l-0.1 3.1c0 0.9-0.8 1.7-1.8 1.7-1 0-1.7-0.8-1.7-1.8z"/><path class="aQ" d="m963.8 218.5l-0.3-2.9c0-1 0.7-1.9 1.7-2 1-0.1 1.9 0.7 1.9 1.7l0.3 3c0 1-0.7 1.9-1.7 1.9-1 0.1-1.8-0.6-1.9-1.6z"/><path class="aQ" d="m962.7 208.8l-0.6-2.9v-0.1c-0.2-1 0.5-1.9 1.5-2.1 1-0.2 2 0.5 2.2 1.5l0.5 3c0.2 1-0.5 2-1.5 2.1-1 0.2-2-0.5-2.1-1.5z"/><path class="aQ" d="m960.6 199.2l-0.8-2.8v-0.1c-0.3-1 0.3-2.1 1.3-2.3 1-0.3 2 0.3 2.3 1.3l0.8 2.9c0.3 1-0.3 2.1-1.3 2.3-1 0.3-2-0.3-2.3-1.3z"/><path class="aQ" d="m957.6 189.9l-1.1-2.8c-0.4-1 0-2.1 1-2.5 1-0.4 2.2 0 2.6 1v0.1l1.1 2.8c0.4 1-0.1 2.1-1.1 2.5-1 0.4-2.1-0.1-2.5-1.1z"/><path class="aQ" d="m953.6 180.9l-1.4-2.5v-0.1c-0.6-1-0.2-2.2 0.8-2.7 0.9-0.5 2.1-0.1 2.6 0.8h0.1l1.4 2.8c0.5 0.9 0.1 2.1-0.8 2.6-1 0.5-2.2 0.2-2.7-0.8z"/><path class="aQ" d="m948.6 172.5l-1.6-2.4h-0.1c-0.6-0.9-0.4-2.2 0.5-2.8 0.9-0.6 2.2-0.4 2.8 0.5l1.7 2.5c0.7 0.9 0.4 2.2-0.5 2.8-0.9 0.6-2.1 0.4-2.7-0.5z"/><path class="aQ" d="m942.7 164.8q-0.9-1.1-1.9-2.2c-0.8-0.8-0.7-2.1 0.1-2.8 0.8-0.8 2-0.8 2.8 0v0.1q1 1.1 2.1 2.3c0.7 0.8 0.6 2-0.2 2.8-0.8 0.7-2.1 0.6-2.8-0.2z"/><path class="aQ" d="m935.9 157.8l-2.2-1.9v-0.1c-0.9-0.7-1-2-0.2-2.8 0.7-0.9 2-1 2.8-0.2l2.3 2c0.9 0.7 0.9 2 0.2 2.8-0.7 0.9-2 1-2.8 0.2z"/><path class="aQ" d="m928.3 151.7l-2.4-1.7h-0.1c-0.9-0.7-1.1-2-0.5-2.9 0.7-0.9 1.9-1.1 2.9-0.5l2.5 1.8c0.9 0.6 1.1 1.9 0.5 2.8-0.6 0.9-1.9 1.1-2.8 0.5z"/><path class="aQ" d="m920.1 146.4l-2.6-1.4h-0.1c-1-0.5-1.3-1.8-0.8-2.8 0.5-1 1.8-1.3 2.8-0.8l2.7 1.5c1 0.5 1.3 1.7 0.8 2.7-0.6 1-1.8 1.4-2.8 0.9z"/><path class="aQ" d="m911.3 142.1l-2.7-1.1h-0.1c-1-0.4-1.6-1.7-1.1-2.7 0.4-1.1 1.6-1.6 2.7-1.1l2.8 1.1c1.1 0.5 1.6 1.7 1.1 2.7-0.4 1.1-1.6 1.6-2.7 1.1z"/><path class="aQ" d="m902.1 138.7l-2.8-0.8h-0.1c-1.1-0.3-1.7-1.5-1.4-2.6 0.3-1.1 1.5-1.7 2.6-1.4l2.9 0.9c1.1 0.3 1.8 1.5 1.4 2.6-0.3 1.1-1.5 1.7-2.5 1.4z"/><path class="aQ" d="m892.6 136.3l-2.9-0.6c-1.2-0.2-1.9-1.3-1.7-2.4 0.2-1.2 1.3-1.9 2.5-1.7l3 0.6c1.1 0.2 1.8 1.3 1.6 2.4-0.2 1.2-1.3 1.9-2.4 1.7z"/><path class="aQ" d="m882.9 134.8l-2.9-0.3h-0.1c-1.1-0.1-2-1.2-1.9-2.3 0.2-1.2 1.2-2 2.3-1.9l3.1 0.3c1.1 0.1 2 1.1 1.9 2.3-0.1 1.1-1.2 2-2.3 1.9z"/><path class="aQ" d="m873.2 134.2h-3-0.1c-1.1 0-2.1-1-2.1-2.2 0-1.1 1-2.1 2.1-2.1h3.1c1.2 0 2.1 1 2.1 2.1 0 1.2-0.9 2.2-2.1 2.2z"/><path class="aQ" d="m863.4 134.5l-3 0.3c-1.2 0.1-2.2-0.7-2.4-1.9-0.1-1.2 0.8-2.2 2-2.3l3-0.3c1.2-0.2 2.2 0.7 2.3 1.9 0.1 1.1-0.7 2.2-1.9 2.3z"/><path class="aQ" d="m853.7 135.8l-2.9 0.6h-0.1c-1.2 0.2-2.3-0.6-2.5-1.7-0.2-1.2 0.5-2.3 1.7-2.5l3-0.6c1.2-0.2 2.3 0.5 2.5 1.7 0.2 1.1-0.5 2.3-1.7 2.5z"/><path class="aQ" d="m844.1 138l-2.8 0.8h-0.1c-1.1 0.3-2.3-0.3-2.7-1.5-0.3-1.1 0.4-2.3 1.5-2.6l3-0.9c1.1-0.3 2.3 0.4 2.6 1.5 0.3 1.1-0.3 2.3-1.5 2.7z"/><path class="aQ" d="m834.8 141l-2.8 1v0.1c-1.2 0.4-2.4-0.2-2.9-1.3-0.4-1.1 0.2-2.4 1.3-2.8l2.9-1.1c1.1-0.4 2.3 0.2 2.8 1.3 0.4 1.1-0.2 2.3-1.3 2.8z"/><path class="aQ" d="m825.7 144.8l-2.7 1.3c-1.1 0.5-2.4 0-2.9-1-0.6-1.1-0.1-2.4 1-3l2.8-1.3c1-0.5 2.3 0 2.9 1 0.5 1.1 0 2.4-1.1 3z"/><path class="aQ" d="m817 149.3l-2.6 1.4v0.1c-1.1 0.6-2.4 0.2-3-0.8-0.6-1.1-0.3-2.4 0.8-3l2.6-1.6c1.1-0.6 2.4-0.2 3 0.8 0.6 1.1 0.3 2.4-0.8 3z"/><path class="aQ" d="m808.6 154.4l-2.5 1.7c-1 0.7-2.4 0.4-3-0.6-0.7-1-0.5-2.3 0.5-3l2.5-1.7c1-0.7 2.4-0.5 3.1 0.5 0.7 1 0.4 2.4-0.6 3.1z"/><path class="aQ" d="m800.6 160.1l-2.4 1.9c-0.9 0.7-2.3 0.6-3-0.4-0.8-0.9-0.6-2.3 0.3-3l2.4-1.9c1-0.7 2.3-0.6 3.1 0.4 0.7 0.9 0.5 2.3-0.4 3z"/><path class="aQ" d="m793 166.4l-2.2 2c-0.9 0.8-2.3 0.8-3.1-0.1-0.8-0.9-0.7-2.2 0.2-3l2.2-2.1c0.9-0.8 2.3-0.7 3.1 0.1 0.8 0.9 0.7 2.3-0.2 3.1z"/><path class="aQ" d="m785.8 173.2l-2 2.1v0.1c-0.9 0.8-2.2 0.8-3.1 0-0.8-0.8-0.8-2.1 0-3l2.1-2.2c0.8-0.8 2.2-0.9 3 0 0.9 0.8 0.9 2.1 0.1 3z"/><path class="aQ" d="m779.2 180.5l-1.9 2.2-0.1 0.1c-0.7 0.9-2 1-2.9 0.2-0.9-0.7-1.1-2.1-0.3-2.9l1.9-2.4c0.8-0.9 2.1-1 3-0.2 0.9 0.7 1 2 0.3 2.9z"/><path class="aQ" d="m773 188.2l-1.8 2.3v0.1c-0.7 0.9-2 1.1-3 0.4-0.9-0.7-1.1-2-0.4-2.9l1.8-2.5c0.7-0.9 2-1.1 3-0.4 0.9 0.7 1.1 2 0.4 2.9z"/><path class="aQ" d="m767.2 196.2l-1.6 2.5h-0.1c-0.6 0.9-1.9 1.2-2.8 0.6-1-0.7-1.3-2-0.6-2.9l1.7-2.5c0.6-1 1.9-1.3 2.8-0.6 1 0.6 1.3 1.9 0.6 2.9z"/><path class="aQ" d="m761.8 204.5l-1.5 2.6c-0.6 1-1.9 1.3-2.9 0.7-0.9-0.6-1.3-1.9-0.7-2.9l1.6-2.5c0.6-1 1.9-1.3 2.8-0.8 1 0.6 1.3 1.9 0.7 2.9z"/><path class="aQ" d="m756.8 213.1l-1.5 2.6c-0.5 1-1.8 1.3-2.8 0.8-1-0.6-1.3-1.8-0.8-2.8l1.5-2.7c0.6-1 1.8-1.3 2.8-0.8 1 0.6 1.3 1.8 0.8 2.8z"/><path class="aQ" d="m752 221.8l-1.4 2.6c-0.5 1-1.8 1.4-2.8 0.9-1-0.6-1.3-1.8-0.8-2.8l1.4-2.6c0.5-1 1.7-1.4 2.7-0.9 1 0.5 1.4 1.8 0.9 2.8z"/><path class="aQ" d="m747.4 230.6l-1.4 2.7c-0.5 1-1.7 1.4-2.7 0.9-1-0.5-1.4-1.7-0.9-2.7l1.4-2.7c0.5-1 1.7-1.4 2.7-0.9 1 0.5 1.4 1.7 0.9 2.7z"/><path class="aQ" d="m742.9 239.5l-1.3 2.7c-0.5 1-1.7 1.4-2.7 0.9-1-0.5-1.4-1.7-0.9-2.7l1.3-2.7c0.5-1 1.7-1.4 2.7-0.9 1 0.5 1.4 1.7 0.9 2.7z"/><path class="aQ" d="m738.5 248.5l-1.4 2.7c-0.5 1-1.7 1.4-2.6 0.9-1-0.5-1.4-1.7-0.9-2.7l1.3-2.7c0.5-1 1.7-1.4 2.7-0.9 0.9 0.5 1.3 1.7 0.9 2.7z"/><path class="aQ" d="m734 257.4l-1.4 2.7c-0.5 1-1.6 1.4-2.6 0.9-1-0.5-1.4-1.7-0.9-2.6l1.4-2.7c0.5-1 1.6-1.4 2.6-0.9 1 0.5 1.4 1.7 0.9 2.6z"/><path class="aQ" d="m729.4 266.4l-1.4 2.6c-0.5 1-1.7 1.3-2.6 0.8-0.9-0.5-1.3-1.6-0.8-2.5v-0.1l1.4-2.6c0.5-1 1.6-1.3 2.6-0.9 0.9 0.5 1.3 1.7 0.8 2.7z"/><path class="aQ" d="m724.6 275.2l-1.4 2.7c-0.5 0.9-1.7 1.2-2.6 0.7-0.9-0.5-1.2-1.7-0.7-2.6l1.4-2.6c0.5-0.9 1.7-1.3 2.6-0.8 0.9 0.5 1.3 1.7 0.8 2.6z"/><path class="aQ" d="m719.6 283.9l-1.6 2.6c-0.5 0.9-1.6 1.2-2.5 0.6-0.8-0.5-1.1-1.6-0.6-2.5l1.6-2.5v-0.1c0.5-0.8 1.6-1.1 2.5-0.6 0.9 0.5 1.1 1.7 0.6 2.5z"/><path class="aQ" d="m714.2 292.5l-1.6 2.5c-0.6 0.8-1.7 1-2.5 0.5-0.8-0.6-1-1.7-0.5-2.5l1.6-2.5h0.1c0.5-0.8 1.6-1.1 2.4-0.5 0.9 0.5 1.1 1.6 0.6 2.5z"/><path class="aQ" d="m708.5 300.8l-1.8 2.4c-0.6 0.7-1.7 0.9-2.4 0.3-0.8-0.5-1-1.6-0.4-2.4l1.8-2.4c0.6-0.8 1.6-1 2.4-0.4 0.8 0.6 1 1.7 0.4 2.4z"/><path class="aQ" d="m702.3 308.7l-1.9 2.4c-0.6 0.7-1.7 0.8-2.4 0.2-0.7-0.6-0.8-1.6-0.2-2.4l1.9-2.3c0.6-0.7 1.7-0.8 2.4-0.3 0.7 0.6 0.8 1.7 0.2 2.4z"/><path class="aQ" d="m695.7 316.4l-2.1 2.2c-0.6 0.6-1.6 0.7-2.3 0.1-0.6-0.7-0.7-1.7 0-2.3v-0.1l2-2.1v-0.1c0.6-0.6 1.7-0.7 2.3-0.1 0.7 0.7 0.7 1.7 0.1 2.4z"/><path class="aQ" d="m688.6 323.6l-2.2 2c-0.7 0.6-1.7 0.6-2.3-0.1-0.5-0.6-0.5-1.6 0.1-2.2h0.1l2.1-2v-0.1c0.7-0.6 1.7-0.5 2.3 0.1 0.6 0.6 0.6 1.7-0.1 2.3z"/><path class="aQ" d="m681 330.2l-2.4 1.9c-0.7 0.5-1.6 0.4-2.2-0.2-0.5-0.7-0.4-1.7 0.3-2.2l2.3-1.9h0.1c0.6-0.5 1.6-0.4 2.2 0.2 0.5 0.7 0.4 1.7-0.3 2.2z"/><path class="aQ" d="m672.8 336.2l-2.5 1.7c-0.7 0.4-1.6 0.3-2.1-0.4-0.4-0.7-0.2-1.6 0.5-2.1l2.5-1.6v-0.1c0.7-0.4 1.6-0.2 2.1 0.5 0.4 0.6 0.2 1.6-0.4 2z"/><path class="aQ" d="m664.1 341.5l-2.7 1.3c-0.7 0.4-1.5 0.1-1.9-0.6-0.3-0.7-0.1-1.5 0.6-1.9l2.7-1.4c0.7-0.4 1.6-0.1 2 0.6 0.3 0.7 0.1 1.6-0.6 1.9q-0.1 0.1-0.1 0.1z"/><path class="aQ" d="m654.9 345.7l-2.8 1.1c-0.7 0.3-1.5-0.1-1.8-0.8-0.2-0.7 0.1-1.4 0.8-1.7l2.8-1.1c0.7-0.3 1.5 0 1.8 0.7 0.3 0.7-0.1 1.5-0.8 1.8q0 0 0 0z"/><path class="aQ" d="m645.3 348.9q-1.5 0.4-3 0.7c-0.7 0.2-1.3-0.2-1.5-0.9-0.2-0.7 0.3-1.3 0.9-1.5q1.5-0.4 2.9-0.8c0.7-0.2 1.4 0.2 1.6 0.9 0.2 0.7-0.2 1.4-0.9 1.6q0 0 0 0z"/><path class="aQ" d="m635.3 350.9l-3 0.3c-0.7 0.1-1.3-0.4-1.3-1.1-0.1-0.6 0.4-1.2 1-1.3h0.1l2.9-0.3h0.1c0.6-0.1 1.2 0.4 1.3 1.1 0.1 0.6-0.4 1.2-1.1 1.3q0 0 0 0z"/><path class="aQ" d="m625.1 351.3l-3-0.3c-0.7-0.1-1.1-0.6-1-1.2 0-0.6 0.5-1.1 1.1-1h0.1l2.9 0.2h0.1c0.6 0.1 1.1 0.6 1.1 1.2-0.1 0.7-0.6 1.1-1.3 1.1q0 0 0 0z"/><path class="aQ" d="m615 349.5c-0.9-0.4-1.9-0.7-2.9-1.1-0.5-0.2-0.8-0.8-0.5-1.3 0.2-0.6 0.8-0.8 1.3-0.6 0.9 0.3 1.8 0.6 2.8 0.9v0.1c0.6 0.2 0.9 0.8 0.7 1.3-0.2 0.6-0.8 0.9-1.4 0.7q0 0 0 0z"/><path class="aQ" d="m605.8 344.9l-2.4-1.9c-0.4-0.3-0.5-0.9-0.2-1.3 0.3-0.4 0.9-0.5 1.3-0.2l0.1 0.1 2.3 1.7 0.1 0.1c0.4 0.3 0.5 0.9 0.2 1.3-0.3 0.5-0.9 0.6-1.4 0.2q0 0 0 0z"/><path class="aQ" d="m598.5 337.7l-1.6-2.6c-0.3-0.4-0.2-0.9 0.2-1.2 0.4-0.2 0.9-0.1 1.2 0.3l1.6 2.5 0.1 0.1c0.3 0.4 0.1 0.9-0.3 1.2-0.4 0.2-0.9 0.1-1.2-0.3q0 0 0 0z"/><path class="aQ" d="m594.3 328.3l-0.3-2.3c-0.1-0.4 0.2-0.8 0.6-0.8 0.4-0.1 0.8 0.2 0.9 0.6v0.1l0.3 2.1 0.1 0.1c0 0.4-0.2 0.8-0.7 0.9-0.4 0-0.8-0.3-0.9-0.7q0 0 0 0z"/><path class="aR" d="m593.6 303.1l-10 15.2-6-13.3z"/><path class="aS" d="m617.2 292.5c0.6 0.3 1 1 1 1.8-0.1 0.7-0.6 1.4-1.3 1.6l-62.8 19.6c-1.2 0.4-2.5 0.3-3.6-0.3-1.1-0.6-1.9-1.7-2.2-2.9l-17.2-63.1z"/><path class="aT" d="m580.9 310.7l2.6-4.4-52.4-57.1 62.5 53.9z"/><path class="aU" d="m583.5 306.3l0.1 12-6.1-10.1z"/><path class="aV" d="m643.5 388.4q6.7 3.2 7.9 6.9c1 3 8.3 3.4 9 9.2 0.4 3 2.6 5.4 5.6 5.9 7.5 1.2 19.1 5 20.9 18 1.4 10-3.6 13.7-9 15-3.9 1-6.4 4.8-5.7 8.7 0.8 3.8-0.3 8.2-6.9 11.6q-14.6 7.7-29.3-18.3l-3-45.5z"/><path class="aW" d="m574.5 364.4q18.9 51.4 51 67.5-10.7 17.4-16.2 18.5-34.4-44-37.9-80z"/><path class="aX" d="m706.4 670.7h8.7c2.5 2.6 4.3 7.2 5.2 10.2 0.5 1.6-0.6 3.4-2.3 3.6-3.9 0.4-7.9 0.1-10.4-0.2-1.5-0.2-2.7-1.3-2.9-2.8l-0.9-7.8c-0.2-1.6 1-3 2.6-3z"/><path class="aY" d="m646.3 589.3l4.4 8.4c1.6 2.9 2.2 6.2 2 9.5l-4.7 55.4 3.6 4.9-0.5 2.6-21.6 12.8 8.5-13.8c1.7-2.7 2.5-5.7 2.3-8.8q-0.8-19.9-5.7-69.4l1.4-8.6z"/><path class="aZ" d="m627.8 681.3q1.4-0.3 2.8-0.1 10.9-7.7 14.4-9.8 3.6-2.2 4.2-7c2.9 1.5 4.5 4.6 4 7.8l-2.1 12.7h-1.6q0.4-10.2-2.5-10c-2.1 0.1-6.5 5.6-8.7 8.4-0.8 1-2 1.6-3.3 1.6h-6.9c-2.2 0-2.5-3.2-0.3-3.6z"/><path class="b0" d="m680.4 586.4c11.9 9.1 15 19.1 17.8 28.2 2.7 9.1 7.7 35.4 10 41.2 2 4.9 7.2 15.6 8.9 19 0.5 0.9 0.4 2-0.1 2.9-0.7 1.1-2 2.2-4.7 2.2-5.3 0-7.2-1.5-7.3-3 0-1-1.6-11.3-6.2-23.8q-4.5-12.4-33.2-66.7 6.6-8 14.8 0z"/><path class="b1" d="m621.9 499.9q-13-34.4-14.5-41.3-2.4-11.7 18.1-26.7 21.6 5.1 33.4 16.5-18.8 17.7-11.4 49-13.6 8.2-25.6 2.5z"/><path class="b2" d="m681.3 587.2q-28.3 7.4-46.7 3.7-11.7-61.6-13.6-71.1-1.8-9.6 0.9-19.9 12 5.7 25.6-2.5 13.4 6.4 16.4 15.5c3 9 5.7 53.5 17.4 74.3z"/><path class="b3" d="m639 411.2l6 27c0.5 2.3-1.6 1.9-4 1.5-4-0.7-9-2.3-10.7-5.3q-0.3-0.5-0.3-1.1l-2.6-18.7c-0.2-1.4 0.6-2.9 1.9-3.5l5-2.2c1.9-0.9 4.2 0.2 4.7 2.3z"/><path class="b4" d="m658.9 448.4q41.9 30 5.3 61.5-1.4 1.6-4.1 2.4c-1.4 0.4-5.5 3.5-7.6 5.1-0.6 0.5-1.6 0.3-2-0.4-0.4-0.5-0.4-1.2-0.2-1.8l5.2-11c1.5-1.4 3.7-1.4 5.2-0.2 1 0.7 2.5 0.4 3-0.7 2.9-5.8 8.2-22.7-13.7-41.8-0.8-0.7-1-1.9-0.5-2.9 1.6-3 5.1-8.8 9.4-10.2z"/><path class="b5" d="m641.8 408.4c-7.2 6.6-14 6.7-18.5 6.1-4.6-0.7-8.2-5.4-3.3-15.7q4.8-10.3 11.9-13.3c9.3-3.6 17.1 16.2 9.9 22.9z"/><path class="b6" d="m636.9 402.9q5.4-15.1-7.9-15.2l-3.2 2.1q-4.8-8.3 3.2-12.3c8-4 17.4-0.7 20.8 10.2 3.4 10.8 4 18-1.7 23.2q-5.6 5.2-8-0.7 3.1-4.8 1.9-7.4-1.3-2.6-4.2 0.5z"/><path class="b7" d="m638.4 404.5q2.8-7.7 6.4-4.6c3.6 3.1-3 7.1-5.5 8.5z"/><path class="b8" d="m567.1 370.4c-1.2-1.7-2.5-3.9-3.4-5.6-0.9-1.7-1.2-3.7-0.7-5.5 0.6-2.5 2-4.2 3.1-6.2l-5.4-5.6q-1.5-1.8 0.3-3.7 11.1 9.8 16.8 17.6c1.1 1.4 0 9.1-0.1 10.9-1.9 3.7-5.3 2.4-5 1.4q-3.3 0-5.6-3.3z"/><path class="b9" d="m570 369.9c-0.4-2.2-1.6-8.4-2.5-9.8q-0.9-1.4-0.6-2.4 0.3-0.9 1.3-1.4l0.3-0.2 5.2 4.5 1.6 4.2-0.9 0.4-1.5-4-4.5-3.9q-0.4 0.3-0.5 0.6-0.2 0.6 0.5 1.7c1.1 1.8 2.5 9.8 2.6 10.1z"/><path class="ba" d="m805 592.8c-6.8 6.7-13 31.2-14.4 39.3-1.3 8 6.2-0.3 10.3-16.4 4.1-16.2 16.5-36.9 34.8-37.2 18.4-0.4 13.7 7.6 3.2 17.9-10.5 10.2-28.1 30.3-13.9 27.6 14.2-2.8 26.8-26.5 39.7-36.2 12.9-9.7 53.6 8.7 49.4 16.8-4.2 8.1-11 27.4-19.9 36.4-9 8.9-40.3-6.1-61.6-4-21.2 2.1-16.2 10.7 15.8 12 31.9 1.2 42.9-4.1 29.8 14.9-8.7 12.6-47.8 4.6-73.3-2.3-2.6-0.7-3.8 3.1-1.3 4 32.2 11.7 71.8 12.8 42.3 24.5q-36.8 14.6-71.7-36c-4.8-64.3 37.5-68 30.8-61.3z"/><path class="bb" d="m777.2 654.8c-0.1-0.3 0-0.6 0.2-0.8 39.4-26.2 101.5-40.8 102.1-40.9 0.3-0.1 0.6 0.1 0.7 0.4 0 0.3-0.1 0.6-0.4 0.7-0.7 0.1-62.6 14.6-101.8 40.7-0.2 0.2-0.4 0.2-0.6 0.1q-0.1-0.1-0.2-0.2z"/><path class="bc" d="m717.9 600.1c0.1 11.7 16.4 38.1 22.4 46.2 5.9 8.1 5-5.7-5.7-23-10.8-17.4-18.4-46-3-62.5 15.3-16.5 18.4-5.5 18.4 12.5 0 18 2.8 50.6 12.5 35.8 9.7-14.9-0.5-46.3 2-65.9 2.5-19.7 53.5-39.8 57.1-29.2 3.6 10.6 14.7 33.1 15 48.6 0.2 15.6-39.8 30.4-56.1 50.9-16.3 20.6-4.4 23.4 24-3.7 28.4-27.1 33.1-41.2 38.7-13.5 3.7 18.4-36.9 46.1-64.7 62.7-2.8 1.7-0.5 6 2.5 4.5 37.7-18.4 72.5-52.3 57.6-16.3q-18.5 44.8-93 32.5c-60.7-50.8-27.9-91.3-27.7-79.6z"/><path class="bb" d="m748.9 677.5c-0.4 0-0.6-0.4-0.6-0.7 10.6-57.2 50.8-124.4 51.2-125 0.2-0.4 0.6-0.5 0.9-0.3 0.3 0.2 0.4 0.6 0.2 0.9-0.4 0.7-40.5 67.7-51 124.6 0 0.3-0.2 0.4-0.4 0.5q-0.2 0.1-0.3 0z"/></svg>